<?xml version="1.0" encoding="UTF-8" standalone="no"?>
<svg
   version="1.2"
   width="145mm"
   height="200mm"
   viewBox="0 0 14500 20000"
   preserveAspectRatio="xMidYMid"
   fill-rule="evenodd"
   stroke-width="28.222"
   stroke-linejoin="round"
   xml:space="preserve"
   id="svg25"
   sodipodi:docname="heat_shrink_keychain_template_01.svg"
   inkscape:version="1.4.2 (f4327f4, 2025-05-13)"
   xmlns:inkscape="http://www.inkscape.org/namespaces/inkscape"
   xmlns:sodipodi="http://sodipodi.sourceforge.net/DTD/sodipodi-0.dtd"
   xmlns="http://www.w3.org/2000/svg"
   xmlns:svg="http://www.w3.org/2000/svg"
   xmlns:ooo="http://xml.openoffice.org/svg/export"><sodipodi:namedview
   id="namedview25"
   pagecolor="#ffffff"
   bordercolor="#000000"
   borderopacity="0.25"
   inkscape:showpageshadow="2"
   inkscape:pageopacity="0.0"
   inkscape:pagecheckerboard="0"
   inkscape:deskcolor="#d1d1d1"
   inkscape:document-units="mm"
   inkscape:zoom="0.72309771"
   inkscape:cx="127.23039"
   inkscape:cy="295.25747"
   inkscape:window-width="1920"
   inkscape:window-height="991"
   inkscape:window-x="1911"
   inkscape:window-y="-9"
   inkscape:window-maximized="1"
   inkscape:current-layer="svg25" />
 <defs
   class="ClipPathGroup"
   id="defs2">
  
  <clipPath
   id="presentation_clip_path_shrink"
   clipPathUnits="userSpaceOnUse">
   <rect
   x="14"
   y="20"
   width="14471"
   height="19960"
   id="rect2" />
  </clipPath>
 
  
 
   
  
  
 
    
   
   
   
  
     
    
      
      
      
      
      
      
      
      
      
      
     
       
      
       
      
       
      
       
      
       
      
       
      
       
      
       
      
       
      
       
      
        
        
       
        
        
       
        
        
       
        
        
       <clipPath
   clipPathUnits="userSpaceOnUse"
   id="clipPath33"><rect
     x="0"
     y="0"
     width="14500"
     height="20000"
     id="rect34"
     style="stroke-width:28.222" /></clipPath><clipPath
   clipPathUnits="userSpaceOnUse"
   id="clipPath34"><rect
     x="0"
     y="0"
     width="14500"
     height="20000"
     id="rect35"
     style="stroke-width:28.222" /></clipPath>
        
        
       <clipPath
   clipPathUnits="userSpaceOnUse"
   id="clipPath35"><rect
     x="0"
     y="0"
     width="14500"
     height="20000"
     id="rect36"
     style="stroke-width:28.222" /></clipPath>
        
        
       <clipPath
   clipPathUnits="userSpaceOnUse"
   id="clipPath36"><rect
     x="0"
     y="0"
     width="14500"
     height="20000"
     id="rect37"
     style="stroke-width:28.222" /></clipPath>
        
        
       
        
        
       
        
        
       
        
        
       <clipPath
   clipPathUnits="userSpaceOnUse"
   id="clipPath37"><rect
     x="0"
     y="0"
     width="14500"
     height="20000"
     id="rect38"
     style="stroke-width:28.222" /></clipPath></defs>
 <defs
   class="TextShapeIndex"
   id="defs3">
  <g
   ooo:slide="id1"
   ooo:id-list="id3 id4 id5 id6 id7 id8 id9 id10 id11 id12"
   id="g2" />
 </defs>
 <defs
   class="EmbeddedBulletChars"
   id="defs12">
  <g
   id="bullet-char-template-57356"
   transform="scale(0.00048828125,-0.00048828125)">
   <path
   d="M 580,1141 L 1163,571 580,0 -4,571 580,1141 Z"
   id="path3" />
  </g>
  <g
   id="bullet-char-template-57354"
   transform="scale(0.00048828125,-0.00048828125)">
   <path
   d="M 8,1128 L 1137,1128 1137,0 8,0 8,1128 Z"
   id="path4" />
  </g>
  <g
   id="bullet-char-template-10146"
   transform="scale(0.00048828125,-0.00048828125)">
   <path
   d="M 174,0 L 602,739 174,1481 1456,739 174,0 Z M 1358,739 L 309,1346 659,739 1358,739 Z"
   id="path5" />
  </g>
  <g
   id="bullet-char-template-10132"
   transform="scale(0.00048828125,-0.00048828125)">
   <path
   d="M 2015,739 L 1276,0 717,0 1260,543 174,543 174,936 1260,936 717,1481 1274,1481 2015,739 Z"
   id="path6" />
  </g>
  <g
   id="bullet-char-template-10007"
   transform="scale(0.00048828125,-0.00048828125)">
   <path
   d="M 0,-2 C -7,14 -16,27 -25,37 L 356,567 C 262,823 215,952 215,954 215,979 228,992 255,992 264,992 276,990 289,987 310,991 331,999 354,1012 L 381,999 492,748 772,1049 836,1024 860,1049 C 881,1039 901,1025 922,1006 886,937 835,863 770,784 769,783 710,716 594,584 L 774,223 C 774,196 753,168 711,139 L 727,119 C 717,90 699,76 672,76 641,76 570,178 457,381 L 164,-76 C 142,-110 111,-127 72,-127 30,-127 9,-110 8,-76 1,-67 -2,-52 -2,-32 -2,-23 -1,-13 0,-2 Z"
   id="path7" />
  </g>
  <g
   id="bullet-char-template-10004"
   transform="scale(0.00048828125,-0.00048828125)">
   <path
   d="M 285,-33 C 182,-33 111,30 74,156 52,228 41,333 41,471 41,549 55,616 82,672 116,743 169,778 240,778 293,778 328,747 346,684 L 369,508 C 377,444 397,411 428,410 L 1163,1116 C 1174,1127 1196,1133 1229,1133 1271,1133 1292,1118 1292,1087 L 1292,965 C 1292,929 1282,901 1262,881 L 442,47 C 390,-6 338,-33 285,-33 Z"
   id="path8" />
  </g>
  <g
   id="bullet-char-template-9679"
   transform="scale(0.00048828125,-0.00048828125)">
   <path
   d="M 813,0 C 632,0 489,54 383,161 276,268 223,411 223,592 223,773 276,916 383,1023 489,1130 632,1184 813,1184 992,1184 1136,1130 1245,1023 1353,916 1407,772 1407,592 1407,412 1353,268 1245,161 1136,54 992,0 813,0 Z"
   id="path9" />
  </g>
  <g
   id="bullet-char-template-8226"
   transform="scale(0.00048828125,-0.00048828125)">
   <path
   d="M 346,457 C 273,457 209,483 155,535 101,586 74,649 74,723 74,796 101,859 155,911 209,963 273,989 346,989 419,989 480,963 531,910 582,859 608,796 608,723 608,648 583,586 532,535 482,483 420,457 346,457 Z"
   id="path10" />
  </g>
  <g
   id="bullet-char-template-8211"
   transform="scale(0.00048828125,-0.00048828125)">
   <path
   d="M -4,459 L 1135,459 1135,606 -4,606 -4,459 Z"
   id="path11" />
  </g>
  <g
   id="bullet-char-template-61548"
   transform="scale(0.00048828125,-0.00048828125)">
   <path
   d="M 173,740 C 173,903 231,1043 346,1159 462,1274 601,1332 765,1332 928,1332 1067,1274 1183,1159 1299,1043 1357,903 1357,740 1357,577 1299,437 1183,322 1067,206 928,148 765,148 601,148 462,206 346,322 231,437 173,577 173,740 Z"
   id="path12" />
  </g>
 </defs>
 
 <rect
   class="BoundingBox"
   stroke="none"
   fill="none"
   x="-1"
   y="6666"
   width="14503"
   height="3"
   id="rect12"
   style="fill:none;stroke:#000000;stroke-width:10;stroke-dasharray:none;stroke-opacity:1"
   clip-path="url(#clipPath37)" /><path
   fill="none"
   stroke="#000000"
   d="M 0,6667 H 14500"
   id="path13"
   style="fill:none;stroke:#000000;stroke-width:10;stroke-dasharray:none;stroke-opacity:1" /><rect
   class="BoundingBox"
   stroke="none"
   fill="none"
   x="-1"
   y="13332"
   width="14503"
   height="3"
   id="rect13"
   style="fill:none;stroke:#000000;stroke-width:10;stroke-dasharray:none;stroke-opacity:1"
   clip-path="url(#clipPath35)" /><path
   fill="none"
   stroke="#000000"
   d="M 0,13333 H 14500"
   id="path14"
   style="fill:none;stroke:#000000;stroke-width:10;stroke-dasharray:none;stroke-opacity:1" /><rect
   class="BoundingBox"
   stroke="none"
   fill="none"
   x="7249"
   y="-1"
   width="3"
   height="20003"
   id="rect14"
   style="fill:none;stroke:#000000;stroke-width:10;stroke-dasharray:none;stroke-opacity:1"
   clip-path="url(#clipPath36)" /><path
   fill="none"
   stroke="#000000"
   d="M 7250,0 V 20000"
   id="path15"
   style="fill:none;stroke:#000000;stroke-width:10;stroke-dasharray:none;stroke-opacity:1" /><path
   fill="none"
   stroke="#000000"
   d="m 1001,802 c 0,35 -9,69 -27,100 -17,30 -43,56 -73,73 -31,18 -65,27 -100,27 -36,0 -70,-9 -101,-27 -30,-17 -56,-43 -73,-73 -18,-31 -27,-65 -27,-100 0,-36 9,-70 27,-101 17,-30 43,-56 73,-73 31,-18 65,-27 100,-27 36,0 70,9 101,27 30,17 56,43 73,73 18,31 27,65 27,100 z"
   id="path16"
   style="fill:none;stroke:#000000;stroke-width:10;stroke-dasharray:none;stroke-opacity:1" /><path
   fill="none"
   stroke="#000000"
   d="m 8251,801 c 0,35 -9,69 -27,100 -17,30 -43,56 -73,73 -31,18 -65,27 -100,27 -36,0 -70,-9 -101,-27 -30,-17 -56,-43 -73,-73 -18,-31 -27,-65 -27,-100 0,-36 9,-70 27,-101 17,-30 43,-56 73,-73 31,-18 65,-27 101,-27 35,0 69,9 100,27 30,17 56,43 73,73 18,31 27,65 27,100 z"
   id="path17"
   style="fill:none;stroke:#000000;stroke-width:10;stroke-dasharray:none;stroke-opacity:1" /><path
   fill="none"
   stroke="#000000"
   d="m 1001,7468 c 0,35 -9,69 -27,100 -17,30 -43,56 -73,73 -31,18 -65,27 -100,27 -36,0 -70,-9 -101,-27 -30,-17 -56,-43 -73,-73 -18,-31 -27,-65 -27,-100 0,-36 9,-70 27,-101 17,-30 43,-56 73,-73 31,-18 65,-27 100,-27 36,0 70,9 101,27 30,17 56,43 73,73 18,31 27,65 27,101 z"
   id="path18"
   style="fill:none;stroke:#000000;stroke-width:10;stroke-dasharray:none;stroke-opacity:1" /><path
   fill="none"
   stroke="#000000"
   d="m 8251,7467 c 0,35 -9,69 -27,100 -17,30 -43,56 -73,73 -31,18 -65,27 -100,27 -36,0 -70,-9 -101,-27 -30,-17 -56,-43 -73,-73 -18,-31 -27,-65 -27,-100 0,-36 9,-70 27,-101 17,-30 43,-56 73,-73 31,-18 65,-27 101,-27 35,0 69,9 100,27 30,17 56,43 73,73 18,31 27,65 27,101 z"
   id="path19"
   style="fill:none;stroke:#000000;stroke-width:10;stroke-dasharray:none;stroke-opacity:1" /><path
   fill="none"
   stroke="#000000"
   d="m 1001,14135 c 0,35 -9,69 -27,100 -17,30 -43,56 -73,73 -31,18 -65,27 -100,27 -36,0 -70,-9 -101,-27 -30,-17 -56,-43 -73,-73 -18,-31 -27,-65 -27,-100 0,-36 9,-70 27,-101 17,-30 43,-56 73,-73 31,-18 65,-27 100,-27 36,0 70,9 101,27 30,17 56,43 73,73 18,31 27,65 27,101 z"
   id="path20"
   style="fill:none;stroke:#000000;stroke-width:10;stroke-dasharray:none;stroke-opacity:1" /><path
   fill="none"
   stroke="#000000"
   d="m 8251,14134 c 0,35 -9,69 -27,100 -17,30 -43,56 -73,73 -31,18 -65,27 -100,27 -36,0 -70,-9 -101,-27 -30,-17 -56,-43 -73,-73 -18,-31 -27,-65 -27,-100 0,-36 9,-70 27,-101 17,-30 43,-56 73,-73 31,-18 65,-27 101,-27 35,0 69,9 100,27 30,17 56,43 73,73 18,31 27,65 27,101 z"
   id="path21"
   style="fill:none;stroke:#000000;stroke-width:10;stroke-dasharray:none;stroke-opacity:1" /><rect
   class="BoundingBox"
   stroke="none"
   fill="none"
   x="-1"
   y="-1"
   width="14503"
   height="20003"
   id="rect21"
   style="fill:none;stroke:#000000;stroke-width:10;stroke-dasharray:none;stroke-opacity:1"
   clip-path="url(#clipPath34)" /><path
   fill="none"
   stroke="#000000"
   d="M 7250,20000 H 0 V 0 h 14500 v 20000 z"
   id="path22"
   style="fill:none;stroke:#000000;stroke-width:10;stroke-dasharray:none;stroke-opacity:1"
   clip-path="url(#clipPath33)" />
   
  
</svg>
