999
dxfrw 0.6.3
  0
SECTION
  2
HEADER
  9
$ACADVER
  1
AC1021
  9
$DWGCODEPAGE
  3
ANSI_1252
  9
$INSBASE
 10
0
 20
0
 30
0
  9
$EXTMIN
 10
-74.4741236221937
 20
38.63984863007718
 30
0
  9
$EXTMAX
 10
82.22810000000001
 20
107.4078923561061
 30
0
  9
$LIMMIN
 10
0
 20
0
  9
$LIMMAX
 10
12
 20
9
  9
$ORTHOMODE
 70
    0
  9
$REGENMODE
 70
    1
  9
$FILLMODE
 70
    1
  9
$QTEXTMODE
 70
    0
  9
$MIRRTEXT
 70
    1
  9
$LTSCALE
 40
1
  9
$ATTMODE
 70
    1
  9
$TEXTSIZE
 40
0.2
  9
$TRACEWID
 40
0.05
  9
$TEXTSTYLE
  7
Standard
  9
$CLAYER
  8
0
  9
$CELTYPE
  6
ByLayer
  9
$CECOLOR
 62
  256
  9
$CELTSCALE
 40
1
  9
$DISPSILH
 70
    0
  9
$DIMSCALE
 40
1
  9
$DIMASZ
 40
0.18
  9
$DIMEXO
 40
0.0625
  9
$DIMDLI
 40
0.38
  9
$DIMRND
 40
0
  9
$DIMDLE
 40
0
  9
$DIMEXE
 40
0.18
  9
$DIMTP
 40
0
  9
$DIMTM
 40
0
  9
$DIMTXT
 40
0.18
  9
$DIMCEN
 40
0.09
  9
$DIMTSZ
 40
0
  9
$DIMTOL
 70
    0
  9
$DIMLIM
 70
    0
  9
$DIMTIH
 70
    1
  9
$DIMTOH
 70
    1
  9
$DIMSE1
 70
    0
  9
$DIMSE2
 70
    0
  9
$DIMTAD
 70
    0
  9
$DIMZIN
 70
    0
  9
$DIMBLK
  1

  9
$DIMASO
 70
    1
  9
$DIMSHO
 70
    1
  9
$DIMPOST
  1

  9
$DIMAPOST
  1

  9
$DIMALT
 70
    0
  9
$DIMALTD
 70
    2
  9
$DIMALTF
 40
25.4
  9
$DIMLFAC
 40
1
  9
$DIMTOFL
 70
    0
  9
$DIMTVP
 40
0
  9
$DIMTIX
 70
    0
  9
$DIMSOXD
 70
    0
  9
$DIMSAH
 70
    0
  9
$DIMBLK1
  1

  9
$DIMBLK2
  1

  9
$DIMSTYLE
  2
Standard
  9
$DIMCLRD
 70
    0
  9
$DIMCLRE
 70
    0
  9
$DIMCLRT
 70
    0
  9
$DIMTFAC
 40
1
  9
$DIMGAP
 40
0.09
  9
$DIMJUST
 70
    0
  9
$DIMSD1
 70
    0
  9
$DIMSD2
 70
    0
  9
$DIMTOLJ
 70
    1
  9
$DIMTZIN
 70
    0
  9
$DIMALTZ
 70
    0
  9
$DIMALTTZ
 70
    0
  9
$DIMUPT
 70
    0
  9
$DIMDEC
 70
    4
  9
$DIMTDEC
 70
    4
  9
$DIMALTU
 70
    2
  9
$DIMALTTD
 70
    2
  9
$DIMTXSTY
  7
Standard
  9
$DIMAUNIT
 70
    0
  9
$DIMADEC
 70
    0
  9
$DIMALTRND
 40
0
  9
$DIMAZIN
 70
    0
  9
$DIMDSEP
 70
   46
  9
$DIMATFIT
 70
    3
  9
$DIMFRAC
 70
    0
  9
$DIMLDRBLK
  1

  9
$DIMLUNIT
 70
    2
  9
$DIMLWD
 70
   -2
  9
$DIMLWE
 70
   -2
  9
$DIMTMOVE
 70
    0
  9
$DIMFXL
 40
1
  9
$DIMFXLON
 70
    0
  9
$DIMJOGANG
 40
0.7853981633974483
  9
$DIMTFILL
 70
    0
  9
$DIMTFILLCLR
 70
    0
  9
$DIMARCSYM
 70
    0
  9
$DIMLTYPE
  6

  9
$DIMLTEX1
  6

  9
$DIMLTEX2
  6

  9
$LUNITS
 70
    2
  9
$LUPREC
 70
    4
  9
$SKETCHINC
 40
0.1
  9
$FILLETRAD
 40
0.5
  9
$AUNITS
 70
    0
  9
$AUPREC
 70
    0
  9
$MENU
  1
.
  9
$ELEVATION
 40
0
  9
$PELEVATION
 40
0
  9
$THICKNESS
 40
0
  9
$LIMCHECK
 70
    0
  9
$CHAMFERA
 40
0
  9
$CHAMFERB
 40
0
  9
$CHAMFERC
 40
0
  9
$CHAMFERD
 40
0
  9
$SKPOLY
 70
    0
  9
$USRTIMER
 70
    1
  9
$ANGBASE
 50
0
  9
$ANGDIR
 70
    0
  9
$PDMODE
 70
    0
  9
$PDSIZE
 40
0
  9
$PLINEWID
 40
0
  9
$SPLFRAME
 70
    0
  9
$SPLINETYPE
 70
    6
  9
$SPLINESEGS
 70
    8
  9
$HANDSEED
  5
20000
  9
$SURFTAB1
 70
    6
  9
$SURFTAB2
 70
    6
  9
$SURFTYPE
 70
    6
  9
$SURFU
 70
    6
  9
$SURFV
 70
    6
  9
$UCSBASE
  2

  9
$UCSNAME
  2

  9
$UCSORG
 10
0
 20
0
 30
0
  9
$UCSXDIR
 10
1
 20
0
 30
0
  9
$UCSYDIR
 10
0
 20
1
 30
0
  9
$UCSORTHOREF
  2

  9
$UCSORTHOVIEW
 70
    0
  9
$UCSORGTOP
 10
0
 20
0
 30
0
  9
$UCSORGBOTTOM
 10
0
 20
0
 30
0
  9
$UCSORGLEFT
 10
0
 20
0
 30
0
  9
$UCSORGRIGHT
 10
0
 20
0
 30
0
  9
$UCSORGFRONT
 10
0
 20
0
 30
0
  9
$UCSORGBACK
 10
0
 20
0
 30
0
  9
$PUCSBASE
  2

  9
$PUCSNAME
  2

  9
$PUCSORG
 10
0
 20
0
 30
0
  9
$PUCSXDIR
 10
1
 20
0
 30
0
  9
$PUCSYDIR
 10
0
 20
1
 30
0
  9
$PUCSORTHOREF
  2

  9
$PUCSORTHOVIEW
 70
    0
  9
$PUCSORGTOP
 10
0
 20
0
 30
0
  9
$PUCSORGBOTTOM
 10
0
 20
0
 30
0
  9
$PUCSORGLEFT
 10
0
 20
0
 30
0
  9
$PUCSORGRIGHT
 10
0
 20
0
 30
0
  9
$PUCSORGFRONT
 10
0
 20
0
 30
0
  9
$PUCSORGBACK
 10
0
 20
0
 30
0
  9
$USERI1
 70
    0
  9
$USERI2
 70
    0
  9
$USERI3
 70
    0
  9
$USERI4
 70
    0
  9
$USERI5
 70
    0
  9
$USERR1
 40
0
  9
$USERR2
 40
0
  9
$USERR3
 40
0
  9
$USERR4
 40
0
  9
$USERR5
 40
0
  9
$WORLDVIEW
 70
    1
  9
$SHADEDGE
 70
    3
  9
$SHADEDIF
 70
   70
  9
$TILEMODE
 70
    1
  9
$MAXACTVP
 70
   64
  9
$PINSBASE
 10
0
 20
0
 30
0
  9
$PLIMCHECK
 70
    0
  9
$PEXTMIN
 10
1e+20
 20
1e+20
 30
1e+20
  9
$PEXTMAX
 10
-1e+20
 20
-1e+20
 30
-1e+20
  9
$GRIDMODE
 70
    0
  9
$SNAPSTYLE
 70
    0
  9
$PLIMMIN
 10
0
 20
0
  9
$PLIMMAX
 10
12
 20
9
  9
$UNITMODE
 70
    0
  9
$VISRETAIN
 70
    1
  9
$PLINEGEN
 70
    0
  9
$PSLTSCALE
 70
    1
  9
$TREEDEPTH
 70
 3020
  9
$CMLSTYLE
  2
Standard
  9
$CMLJUST
 70
    0
  9
$CMLSCALE
 40
1
  9
$PROXYGRAPHICS
 70
    1
  9
$MEASUREMENT
 70
    0
  9
$CELWEIGHT
370
   -1
  9
$ENDCAPS
280
    0
  9
$JOINSTYLE
280
    0
  9
$LWDISPLAY
290
    0
  9
$INSUNITS
 70
    4
  9
$HYPERLINKBASE
  1

  9
$STYLESHEET
  1

  9
$XEDIT
290
    1
  9
$CEPSNTYPE
380
    0
  9
$PSTYLEMODE
290
    1
  9
$EXTNAMES
290
    1
  9
$PSVPSCALE
 40
0
  9
$OLESTARTUP
290
    0
  9
$SORTENTS
280
  127
  9
$INDEXCTL
280
    0
  9
$HIDETEXT
280
    1
  9
$XCLIPFRAME
290
    0
  9
$HALOGAP
280
    0
  9
$OBSCOLOR
 70
  257
  9
$OBSLTYPE
280
    0
  9
$INTERSECTIONDISPLAY
280
    0
  9
$INTERSECTIONCOLOR
 70
  257
  9
$DIMASSOC
280
    2
  9
$PROJECTNAME
  1

  9
$CAMERADISPLAY
290
    0
  9
$LENSLENGTH
 40
50
  9
$CAMERAHEIGHT
 40
0
  9
$STEPSPERSEC
 40
2
  9
$STEPSIZE
 40
6
  9
$3DDWFPREC
 40
2
  9
$PSOLWIDTH
 40
0.25
  9
$PSOLHEIGHT
 40
4
  9
$LOFTANG1
 40
1.570796326794897
  9
$LOFTANG2
 40
1.570796326794897
  9
$LOFTMAG1
 40
0
  9
$LOFTMAG2
 40
0
  9
$LOFTPARAM
 70
    7
  9
$LOFTNORMALS
280
    1
  9
$LATITUDE
 40
37.795
  9
$LONGITUDE
 40
-122.394
  9
$NORTHDIRECTION
 40
0
  9
$TIMEZONE
 70
-8000
  9
$LIGHTGLYPHDISPLAY
280
    1
  9
$TILEMODELIGHTSYNCH
280
    1
  9
$SOLIDHIST
280
    0
  9
$SHOWHIST
280
    1
  9
$DWFFRAME
280
    2
  9
$DGNFRAME
280
    2
  9
$REALWORLDSCALE
290
    1
  9
$INTERFERECOLOR
 62
  256
  9
$CSHADOW
280
    0
  9
$SHADOWPLANELOCATION
 40
0
  0
ENDSEC
  0
SECTION
  2
CLASSES
  0
ENDSEC
  0
SECTION
  2
TABLES
  0
TABLE
  2
VPORT
  5
8
330
0
100
AcDbSymbolTable
 70
    1
  0
VPORT
  5
31
330
2
100
AcDbSymbolTableRecord
100
AcDbViewportTableRecord
  2
*ACTIVE
 70
    0
 10
0
 20
0
 11
1
 21
1
 12
41.71868097892101
 22
56.69168702888992
 13
0
 23
0
 14
10
 24
10
 15
10
 25
10
 16
0
 26
0
 36
1
 17
0
 27
0
 37
0
 40
80.92281132349609
 41
1.964689265536723
 42
50
 43
0
 44
0
 50
0
 51
0
 71
    0
 72
  100
 73
    1
 74
    3
 75
    0
 76
    0
 77
    0
 78
    0
281
    0
 65
    1
110
0
120
0
130
0
111
1
121
0
131
0
112
0
122
1
132
0
 79
    0
146
0
348
10020
 60
    7
 61
    5
292
1
282
    1
141
0
142
0
 63
  250
421
3358443
  0
ENDTAB
  0
TABLE
  2
LTYPE
  5
5
330
0
100
AcDbSymbolTable
 70
    4
  0
LTYPE
  5
14
330
5
100
AcDbSymbolTableRecord
100
AcDbLinetypeTableRecord
  2
ByBlock
 70
    0
  3

 72
   65
 73
    0
 40
0
  0
LTYPE
  5
15
330
5
100
AcDbSymbolTableRecord
100
AcDbLinetypeTableRecord
  2
ByLayer
 70
    0
  3

 72
   65
 73
    0
 40
0
  0
LTYPE
  5
16
330
5
100
AcDbSymbolTableRecord
100
AcDbLinetypeTableRecord
  2
Continuous
 70
    0
  3
Solid line
 72
   65
 73
    0
 40
0
  0
LTYPE
  5
32
330
5
100
AcDbSymbolTableRecord
100
AcDbLinetypeTableRecord
  2
DOT
 70
    0
  3
Dot . . . . . . . . . . . . . . . . . . . . . .
 72
   65
 73
    2
 40
6.35
 49
0
 74
    0
 49
-6.35
 74
    0
  0
LTYPE
  5
33
330
5
100
AcDbSymbolTableRecord
100
AcDbLinetypeTableRecord
  2
DOTTINY
 70
    0
  3
Dot (.15x) .....................................
 72
   65
 73
    2
 40
0.9525
 49
0
 74
    0
 49
-0.9525
 74
    0
  0
LTYPE
  5
34
330
5
100
AcDbSymbolTableRecord
100
AcDbLinetypeTableRecord
  2
DOT2
 70
    0
  3
Dot (.5x) .....................................
 72
   65
 73
    2
 40
3.175
 49
0
 74
    0
 49
-3.175
 74
    0
  0
LTYPE
  5
35
330
5
100
AcDbSymbolTableRecord
100
AcDbLinetypeTableRecord
  2
DOTX2
 70
    0
  3
Dot (2x) .  .  .  .  .  .  .  .  .  .  .  .  .
 72
   65
 73
    2
 40
12.7
 49
0
 74
    0
 49
-12.7
 74
    0
  0
LTYPE
  5
36
330
5
100
AcDbSymbolTableRecord
100
AcDbLinetypeTableRecord
  2
DASHED
 70
    0
  3
Dashed _ _ _ _ _ _ _ _ _ _ _ _ _ _ _ _ _
 72
   65
 73
    2
 40
19.05
 49
12.7
 74
    0
 49
-6.35
 74
    0
  0
LTYPE
  5
37
330
5
100
AcDbSymbolTableRecord
100
AcDbLinetypeTableRecord
  2
DASHEDTINY
 70
    0
  3
Dashed (.15x) _ _ _ _ _ _ _ _ _ _ _ _ _ _ _ _ _
 72
   65
 73
    2
 40
2.8575
 49
1.905
 74
    0
 49
-0.9525
 74
    0
  0
LTYPE
  5
38
330
5
100
AcDbSymbolTableRecord
100
AcDbLinetypeTableRecord
  2
DASHED2
 70
    0
  3
Dashed (.5x) _ _ _ _ _ _ _ _ _ _ _ _ _ _ _ _ _
 72
   65
 73
    2
 40
9.524999999999999
 49
6.35
 74
    0
 49
-3.175
 74
    0
  0
LTYPE
  5
39
330
5
100
AcDbSymbolTableRecord
100
AcDbLinetypeTableRecord
  2
DASHEDX2
 70
    0
  3
Dashed (2x) ____  ____  ____  ____  ____  ___
 72
   65
 73
    2
 40
38.09999999999999
 49
25.4
 74
    0
 49
-12.7
 74
    0
  0
LTYPE
  5
3A
330
5
100
AcDbSymbolTableRecord
100
AcDbLinetypeTableRecord
  2
DASHDOT
 70
    0
  3
Dash dot __ . __ . __ . __ . __ . __ . __ . __
 72
   65
 73
    4
 40
25.4
 49
12.7
 74
    0
 49
-6.35
 74
    0
 49
0
 74
    0
 49
-6.35
 74
    0
  0
LTYPE
  5
3B
330
5
100
AcDbSymbolTableRecord
100
AcDbLinetypeTableRecord
  2
DASHDOTTINY
 70
    0
  3
Dash dot (.15x) _._._._._._._._._._._._._._._.
 72
   65
 73
    4
 40
3.81
 49
1.905
 74
    0
 49
-0.9525
 74
    0
 49
0
 74
    0
 49
-0.9525
 74
    0
  0
LTYPE
  5
3C
330
5
100
AcDbSymbolTableRecord
100
AcDbLinetypeTableRecord
  2
DASHDOT2
 70
    0
  3
Dash dot (.5x) _._._._._._._._._._._._._._._.
 72
   65
 73
    4
 40
12.7
 49
6.35
 74
    0
 49
-3.175
 74
    0
 49
0
 74
    0
 49
-3.175
 74
    0
  0
LTYPE
  5
3D
330
5
100
AcDbSymbolTableRecord
100
AcDbLinetypeTableRecord
  2
DASHDOTX2
 70
    0
  3
Dash dot (2x) ____  .  ____  .  ____  .  ___
 72
   65
 73
    4
 40
50.8
 49
25.4
 74
    0
 49
-12.7
 74
    0
 49
0
 74
    0
 49
-12.7
 74
    0
  0
LTYPE
  5
3E
330
5
100
AcDbSymbolTableRecord
100
AcDbLinetypeTableRecord
  2
DIVIDE
 70
    0
  3
Divide ____ . . ____ . . ____ . . ____ . . ____
 72
   65
 73
    6
 40
31.75
 49
12.7
 74
    0
 49
-6.35
 74
    0
 49
0
 74
    0
 49
-6.35
 74
    0
 49
0
 74
    0
 49
-6.35
 74
    0
  0
LTYPE
  5
3F
330
5
100
AcDbSymbolTableRecord
100
AcDbLinetypeTableRecord
  2
DIVIDETINY
 70
    0
  3
Divide (.15x) __..__..__..__..__..__..__..__.._
 72
   65
 73
    6
 40
4.7625
 49
1.905
 74
    0
 49
-0.9525
 74
    0
 49
0
 74
    0
 49
-0.9525
 74
    0
 49
0
 74
    0
 49
-0.9525
 74
    0
  0
LTYPE
  5
40
330
5
100
AcDbSymbolTableRecord
100
AcDbLinetypeTableRecord
  2
DIVIDE2
 70
    0
  3
Divide (.5x) __..__..__..__..__..__..__..__.._
 72
   65
 73
    6
 40
15.875
 49
6.35
 74
    0
 49
-3.175
 74
    0
 49
0
 74
    0
 49
-3.175
 74
    0
 49
0
 74
    0
 49
-3.175
 74
    0
  0
LTYPE
  5
41
330
5
100
AcDbSymbolTableRecord
100
AcDbLinetypeTableRecord
  2
DIVIDEX2
 70
    0
  3
Divide (2x) ________  .  .  ________  .  .  _
 72
   65
 73
    6
 40
63.5
 49
25.4
 74
    0
 49
-12.7
 74
    0
 49
0
 74
    0
 49
-12.7
 74
    0
 49
0
 74
    0
 49
-12.7
 74
    0
  0
LTYPE
  5
42
330
5
100
AcDbSymbolTableRecord
100
AcDbLinetypeTableRecord
  2
BORDER
 70
    0
  3
Border __ __ . __ __ . __ __ . __ __ . __ __ .
 72
   65
 73
    6
 40
44.45
 49
12.7
 74
    0
 49
-6.35
 74
    0
 49
12.7
 74
    0
 49
-6.35
 74
    0
 49
0
 74
    0
 49
-6.35
 74
    0
  0
LTYPE
  5
43
330
5
100
AcDbSymbolTableRecord
100
AcDbLinetypeTableRecord
  2
BORDERTINY
 70
    0
  3
Border (.15x) __.__.__.__.__.__.__.__.__.__.__.
 72
   65
 73
    6
 40
6.6675
 49
1.905
 74
    0
 49
-0.9525
 74
    0
 49
1.905
 74
    0
 49
-0.9525
 74
    0
 49
0
 74
    0
 49
-0.9525
 74
    0
  0
LTYPE
  5
44
330
5
100
AcDbSymbolTableRecord
100
AcDbLinetypeTableRecord
  2
BORDER2
 70
    0
  3
Border (.5x) __.__.__.__.__.__.__.__.__.__.__.
 72
   65
 73
    6
 40
22.225
 49
6.35
 74
    0
 49
-3.175
 74
    0
 49
6.35
 74
    0
 49
-3.175
 74
    0
 49
0
 74
    0
 49
-3.175
 74
    0
  0
LTYPE
  5
45
330
5
100
AcDbSymbolTableRecord
100
AcDbLinetypeTableRecord
  2
BORDERX2
 70
    0
  3
Border (2x) ____  ____  .  ____  ____  .  ___
 72
   65
 73
    6
 40
88.89999999999999
 49
25.4
 74
    0
 49
-12.7
 74
    0
 49
25.4
 74
    0
 49
-12.7
 74
    0
 49
0
 74
    0
 49
-12.7
 74
    0
  0
LTYPE
  5
46
330
5
100
AcDbSymbolTableRecord
100
AcDbLinetypeTableRecord
  2
CENTER
 70
    0
  3
Center ____ _ ____ _ ____ _ ____ _ ____ _ ____
 72
   65
 73
    4
 40
50.8
 49
31.75
 74
    0
 49
-6.35
 74
    0
 49
6.35
 74
    0
 49
-6.35
 74
    0
  0
LTYPE
  5
47
330
5
100
AcDbSymbolTableRecord
100
AcDbLinetypeTableRecord
  2
CENTERTINY
 70
    0
  3
Center (.15x) ___ _ ___ _ ___ _ ___ _ ___ _ ___
 72
   65
 73
    4
 40
7.619999999999999
 49
4.7625
 74
    0
 49
-0.9525
 74
    0
 49
0.9525
 74
    0
 49
-0.9525
 74
    0
  0
LTYPE
  5
48
330
5
100
AcDbSymbolTableRecord
100
AcDbLinetypeTableRecord
  2
CENTER2
 70
    0
  3
Center (.5x) ___ _ ___ _ ___ _ ___ _ ___ _ ___
 72
   65
 73
    4
 40
28.575
 49
19.05
 74
    0
 49
-3.175
 74
    0
 49
3.175
 74
    0
 49
-3.175
 74
    0
  0
LTYPE
  5
49
330
5
100
AcDbSymbolTableRecord
100
AcDbLinetypeTableRecord
  2
CENTERX2
 70
    0
  3
Center (2x) ________  __  ________  __  _____
 72
   65
 73
    4
 40
101.6
 49
63.5
 74
    0
 49
-12.7
 74
    0
 49
12.7
 74
    0
 49
-12.7
 74
    0
  0
ENDTAB
  0
TABLE
  2
LAYER
  5
2
330
0
100
AcDbSymbolTable
 70
    1
  0
LAYER
  5
10
330
2
100
AcDbSymbolTableRecord
100
AcDbLayerTableRecord
  2
0
 70
    0
 62
    7
  6
CONTINUOUS
370
   -3
390
F
  0
LAYER
  5
4A
330
2
100
AcDbSymbolTableRecord
100
AcDbLayerTableRecord
  2
layer 1
 70
    0
 62
    7
  6
CONTINUOUS
370
   -3
390
F
  0
ENDTAB
  0
TABLE
  2
STYLE
  5
3
330
0
100
AcDbSymbolTable
 70
    3
  0
STYLE
  5
4B
330
2
100
AcDbSymbolTableRecord
100
AcDbTextStyleTableRecord
  2
Standard
 70
    0
 40
0
 41
1
 50
0
 71
    0
 42
1
  3
txt
  4

  0
ENDTAB
  0
TABLE
  2
VIEW
  5
6
330
0
100
AcDbSymbolTable
 70
    0
  0
ENDTAB
  0
TABLE
  2
UCS
  5
7
330
0
100
AcDbSymbolTable
 70
    0
  0
ENDTAB
  0
TABLE
  2
APPID
  5
9
330
0
100
AcDbSymbolTable
 70
    1
  0
APPID
  5
12
330
9
100
AcDbSymbolTableRecord
100
AcDbRegAppTableRecord
  2
ACAD
 70
    0
  0
APPID
  5
4C
330
9
100
AcDbSymbolTableRecord
100
AcDbRegAppTableRecord
  2
LibreCad
 70
    0
  0
ENDTAB
  0
TABLE
  2
DIMSTYLE
  5
A
330
0
100
AcDbSymbolTable
 70
    1
100
AcDbDimStyleTable
 71
    1
  0
DIMSTYLE
105
4D
330
A
100
AcDbSymbolTableRecord
100
AcDbDimStyleTableRecord
  2
Standard
 70
    0
 40
1
 41
0.18
 42
0.0625
 43
0.38
 44
0.18
 45
0
 46
0
 47
0
 48
0
 49
1
140
0.18
141
0.09
142
0
143
25.4
144
1
145
0
146
1
147
0.09
148
0
 71
    0
 72
    0
 73
    1
 74
    1
 75
    0
 76
    0
 77
    0
 78
    0
 79
    0
170
    0
171
    2
172
    0
173
    0
174
    0
175
    0
176
    0
177
    0
178
    0
179
    0
271
    4
272
    4
273
    2
274
    2
275
    0
276
    0
277
    2
278
   46
279
    0
280
    0
281
    0
282
    0
283
    1
284
    0
285
    0
286
    0
288
    0
289
    3
340
Standard
341

371
   -2
372
   -2
  0
ENDTAB
  0
TABLE
  2
BLOCK_RECORD
  5
1
330
0
100
AcDbSymbolTable
 70
    2
  0
BLOCK_RECORD
  5
1F
330
1
100
AcDbSymbolTableRecord
100
AcDbBlockTableRecord
  2
*Model_Space
 70
    0
280
    1
281
    0
  0
BLOCK_RECORD
  5
1E
330
1
100
AcDbSymbolTableRecord
100
AcDbBlockTableRecord
  2
*Paper_Space
 70
    0
280
    1
281
    0
  0
ENDTAB
  0
ENDSEC
  0
SECTION
  2
BLOCKS
  0
BLOCK
  5
20
330
1F
100
AcDbEntity
  8
0
100
AcDbBlockBegin
  2
*Model_Space
 70
    0
 10
0
 20
0
 30
0
  3
*Model_Space
  1

  0
ENDBLK
  5
21
330
1F
100
AcDbEntity
  8
0
100
AcDbBlockEnd
  0
BLOCK
  5
1C
330
1B
100
AcDbEntity
  8
0
100
AcDbBlockBegin
  2
*Paper_Space
 70
    0
 10
0
 20
0
 30
0
  3
*Paper_Space
  1

  0
ENDBLK
  5
1D
330
1F
100
AcDbEntity
  8
0
100
AcDbBlockEnd
  0
ENDSEC
  0
SECTION
  2
ENTITIES
  0
SPLINE
  5
4E
100
AcDbEntity
  8
layer 1
  6
ByLayer
 62
  242
370
   18
100
AcDbSpline
210
0
220
0
230
0
 70
   11
 71
    3
 72
  108
 73
  104
 74
    0
 42
1e-07
 43
1e-07
 40
0
 40
0
 40
0
 40
0
 40
0.037037037037037
 40
0.037037037037037
 40
0.037037037037037
 40
0.037037037037037
 40
0.0740740740740741
 40
0.0740740740740741
 40
0.0740740740740741
 40
0.0740740740740741
 40
0.1111111111111111
 40
0.1111111111111111
 40
0.1111111111111111
 40
0.1111111111111111
 40
0.1481481481481481
 40
0.1481481481481481
 40
0.1481481481481481
 40
0.1481481481481481
 40
0.1851851851851852
 40
0.1851851851851852
 40
0.1851851851851852
 40
0.1851851851851852
 40
0.2222222222222222
 40
0.2222222222222222
 40
0.2222222222222222
 40
0.2222222222222222
 40
0.2592592592592592
 40
0.2592592592592592
 40
0.2592592592592592
 40
0.2592592592592592
 40
0.2962962962962963
 40
0.2962962962962963
 40
0.2962962962962963
 40
0.2962962962962963
 40
0.3333333333333333
 40
0.3333333333333333
 40
0.3333333333333333
 40
0.3333333333333333
 40
0.3703703703703703
 40
0.3703703703703703
 40
0.3703703703703703
 40
0.3703703703703703
 40
0.4074074074074074
 40
0.4074074074074074
 40
0.4074074074074074
 40
0.4074074074074074
 40
0.4444444444444444
 40
0.4444444444444444
 40
0.4444444444444444
 40
0.4444444444444444
 40
0.4814814814814815
 40
0.4814814814814815
 40
0.4814814814814815
 40
0.4814814814814815
 40
0.5185185185185185
 40
0.5185185185185185
 40
0.5185185185185185
 40
0.5185185185185185
 40
0.5555555555555556
 40
0.5555555555555556
 40
0.5555555555555556
 40
0.5555555555555556
 40
0.5925925925925926
 40
0.5925925925925926
 40
0.5925925925925926
 40
0.5925925925925926
 40
0.6296296296296297
 40
0.6296296296296297
 40
0.6296296296296297
 40
0.6296296296296297
 40
0.6666666666666666
 40
0.6666666666666666
 40
0.6666666666666666
 40
0.6666666666666666
 40
0.7037037037037037
 40
0.7037037037037037
 40
0.7037037037037037
 40
0.7037037037037037
 40
0.7407407407407407
 40
0.7407407407407407
 40
0.7407407407407407
 40
0.7407407407407407
 40
0.7777777777777778
 40
0.7777777777777778
 40
0.7777777777777778
 40
0.7777777777777778
 40
0.8148148148148148
 40
0.8148148148148148
 40
0.8148148148148148
 40
0.8148148148148148
 40
0.8518518518518519
 40
0.8518518518518519
 40
0.8518518518518519
 40
0.8518518518518519
 40
0.8888888888888888
 40
0.8888888888888888
 40
0.8888888888888888
 40
0.8888888888888888
 40
0.9259259259259259
 40
0.9259259259259259
 40
0.9259259259259259
 40
0.9259259259259259
 40
1
 40
1
 40
1
 40
1
 10
22.1196
 20
63.0122
 30
0
 10
22.1981
 20
63.0006
 30
0
 10
22.6797
 20
62.9877
 30
0
 10
23.1898
 20
62.9826
 30
0
 10
23.1898
 20
62.9826
 30
0
 10
24.6958
 20
62.9689
 30
0
 10
25.5338
 20
63.2209
 30
0
 10
26.2571
 20
63.905
 30
0
 10
26.2571
 20
63.905
 30
0
 10
27.0292
 20
64.6352
 30
0
 10
27.3255
 20
65.5792
 30
0
 10
27.2805
 20
67.167
 30
0
 10
27.2805
 20
67.167
 30
0
 10
27.2546
 20
68.084
 30
0
 10
27.2392
 20
68.17359999999999
 30
0
 10
27.0296
 20
68.6193
 30
0
 10
27.0296
 20
68.6193
 30
0
 10
26.7568
 20
69.1998
 30
0
 10
26.3773
 20
69.58
 30
0
 10
25.7415
 20
69.9097
 30
0
 10
25.7415
 20
69.9097
 30
0
 10
25.204
 20
70.1883
 30
0
 10
24.7717
 20
70.3343
 30
0
 10
23.3871
 20
70.7046
 30
0
 10
23.3871
 20
70.7046
 30
0
 10
22.8678
 20
70.8436
 30
0
 10
22.267
 20
71.04040000000001
 30
0
 10
22.0519
 20
71.1421
 30
0
 10
22.0519
 20
71.1421
 30
0
 10
21.5375
 20
71.38549999999999
 30
0
 10
21.1246
 20
71.8561
 30
0
 10
21.0114
 20
72.32810000000001
 30
0
 10
21.0114
 20
72.32810000000001
 30
0
 10
20.8841
 20
72.8586
 30
0
 10
20.9542
 20
73.6374
 30
0
 10
21.1719
 20
74.1131
 30
0
 10
21.1719
 20
74.1131
 30
0
 10
21.6397
 20
75.1348
 30
0
 10
22.7852
 20
75.3732
 30
0
 10
25.7473
 20
75.0651
 30
0
 10
25.7473
 20
75.0651
 30
0
 10
26.369
 20
75.0005
 30
0
 10
26.8872
 20
74.9579
 30
0
 10
26.8988
 20
74.9705
 30
0
 10
26.8988
 20
74.9705
 30
0
 10
26.9104
 20
74.98309999999999
 30
0
 10
26.9321
 20
75.24339999999999
 30
0
 10
26.947
 20
75.5491
 30
0
 10
26.947
 20
75.5491
 30
0
 10
26.9782
 20
76.1874
 30
0
 10
27.0765
 20
76.1093
 30
0
 10
26.0381
 20
76.27209999999999
 30
0
 10
26.0381
 20
76.27209999999999
 30
0
 10
24.7378
 20
76.4761
 30
0
 10
23.4319
 20
76.55070000000001
 30
0
 10
22.6912
 20
76.4633
 30
0
 10
22.6912
 20
76.4633
 30
0
 10
20.3677
 20
76.1893
 30
0
 10
19.3779
 20
75.0257
 30
0
 10
19.4587
 20
72.6636
 30
0
 10
19.4587
 20
72.6636
 30
0
 10
19.4857
 20
71.8746
 30
0
 10
19.5008
 20
71.8045
 30
0
 10
19.7531
 20
71.294
 30
0
 10
19.7531
 20
71.294
 30
0
 10
19.9198
 20
70.95659999999999
 30
0
 10
20.1312
 20
70.658
 30
0
 10
20.3202
 20
70.4931
 30
0
 10
20.3202
 20
70.4931
 30
0
 10
20.8161
 20
70.0603
 30
0
 10
21.7873
 20
69.6439
 30
0
 10
23.049
 20
69.3233
 30
0
 10
23.049
 20
69.3233
 30
0
 10
24.5059
 20
68.953
 30
0
 10
25.167
 20
68.6383
 30
0
 10
25.4839
 20
68.16419999999999
 30
0
 10
25.4839
 20
68.16419999999999
 30
0
 10
26.065
 20
67.29470000000001
 30
0
 10
25.9085
 20
65.6387
 30
0
 10
25.1738
 20
64.88460000000001
 30
0
 10
25.1738
 20
64.88460000000001
 30
0
 10
24.7857
 20
64.4862
 30
0
 10
24.3112
 20
64.3117
 30
0
 10
23.5109
 20
64.27290000000001
 30
0
 10
23.5109
 20
64.27290000000001
 30
0
 10
22.9148
 20
64.2439
 30
0
 10
20.3685
 20
64.4102
 30
0
 10
19.8649
 20
64.51090000000001
 30
0
 10
19.8649
 20
64.51090000000001
 30
0
 10
19.6791
 20
64.54810000000001
 30
0
 10
19.6791
 20
64.548
 30
0
 10
19.6386
 20
63.9568
 30
0
 10
19.6386
 20
63.9568
 30
0
 10
19.6126
 20
63.5792
 30
0
 10
19.625
 20
63.349
 30
0
 10
19.6726
 20
63.3195
 30
0
 10
19.6726
 20
63.3195
 30
0
 10
19.7136
 20
63.2942
 30
0
 10
20.2489
 20
63.2194
 30
0
 10
20.8621
 20
63.1534
 30
0
 10
20.8621
 20
63.1534
 30
0
 10
21.4752
 20
63.0873
 30
0
 10
22.0411
 20
63.0238
 30
0
 10
22.1196
 20
63.0122
 30
0
  0
SPLINE
  5
4F
100
AcDbEntity
  8
layer 1
  6
ByLayer
 62
  242
370
   18
100
AcDbSpline
210
0
220
0
230
0
 70
    8
 71
    3
 72
   12
 73
    8
 74
    0
 42
1e-07
 43
1e-07
 40
0
 40
0
 40
0
 40
0
 40
0.3333333333333333
 40
0.3333333333333333
 40
0.3333333333333333
 40
0.3333333333333333
 40
1
 40
1
 40
1
 40
1
 10
13.4574
 20
67.8232
 30
0
 10
13.4574
 20
67.8232
 30
0
 10
11.3233
 20
67.8232
 30
0
 10
11.3233
 20
67.8232
 30
0
 10
11.3233
 20
67.8232
 30
0
 10
11.3233
 20
67.8232
 30
0
 10
11.6731
 20
69.1609
 30
0
 10
11.6731
 20
69.1609
 30
0
  0
SPLINE
  5
50
100
AcDbEntity
  8
layer 1
  6
ByLayer
 62
  242
370
   18
100
AcDbSpline
210
0
220
0
230
0
 70
    8
 71
    3
 72
    8
 73
    4
 74
    0
 42
1e-07
 43
1e-07
 40
0
 40
0
 40
0
 40
0
 40
1
 40
1
 40
1
 40
1
 10
11.6731
 20
69.1609
 30
0
 10
11.8656
 20
69.89660000000001
 30
0
 10
12.2893
 20
71.51000000000001
 30
0
 10
12.6149
 20
72.746
 30
0
  0
SPLINE
  5
51
100
AcDbEntity
  8
layer 1
  6
ByLayer
 62
  242
370
   18
100
AcDbSpline
210
0
220
0
230
0
 70
    8
 71
    3
 72
   20
 73
   16
 74
    0
 42
1e-07
 43
1e-07
 40
0
 40
0
 40
0
 40
0
 40
0.2
 40
0.2
 40
0.2
 40
0.2
 40
0.4
 40
0.4
 40
0.4
 40
0.4
 40
0.6
 40
0.6
 40
0.6
 40
0.6
 40
1
 40
1
 40
1
 40
1
 10
12.6149
 20
72.746
 30
0
 10
12.6149
 20
72.746
 30
0
 10
13.2069
 20
74.99339999999999
 30
0
 10
13.2069
 20
74.99339999999999
 30
0
 10
13.2069
 20
74.99339999999999
 30
0
 10
13.2069
 20
74.99339999999999
 30
0
 10
13.4821
 20
74.99339999999999
 30
0
 10
13.4821
 20
74.99339999999999
 30
0
 10
13.4821
 20
74.99339999999999
 30
0
 10
13.4821
 20
74.99339999999999
 30
0
 10
13.7573
 20
74.99339999999999
 30
0
 10
13.7573
 20
74.99339999999999
 30
0
 10
13.7573
 20
74.99339999999999
 30
0
 10
13.7573
 20
74.99339999999999
 30
0
 10
14.6708
 20
71.4975
 30
0
 10
14.6708
 20
71.4975
 30
0
  0
SPLINE
  5
52
100
AcDbEntity
  8
layer 1
  6
ByLayer
 62
  242
370
   18
100
AcDbSpline
210
0
220
0
230
0
 70
    8
 71
    3
 72
   12
 73
    8
 74
    0
 42
1e-07
 43
1e-07
 40
0
 40
0
 40
0
 40
0
 40
0.3333333333333333
 40
0.3333333333333333
 40
0.3333333333333333
 40
0.3333333333333333
 40
1
 40
1
 40
1
 40
1
 10
14.6708
 20
71.4975
 30
0
 10
15.1732
 20
69.57470000000001
 30
0
 10
15.5862
 20
67.9614
 30
0
 10
15.5879
 20
67.91240000000001
 30
0
 10
15.5879
 20
67.91240000000001
 30
0
 10
15.5907
 20
67.8429
 30
0
 10
15.119
 20
67.8232
 30
0
 10
13.4574
 20
67.8232
 30
0
  0
SPLINE
  5
53
100
AcDbEntity
  8
layer 1
  6
ByLayer
 62
  242
370
   18
100
AcDbSpline
210
0
220
0
230
0
 70
   11
 71
    3
 72
   52
 73
   48
 74
    0
 42
1e-07
 43
1e-07
 40
0
 40
0
 40
0
 40
0
 40
0.0769230769230769
 40
0.0769230769230769
 40
0.0769230769230769
 40
0.0769230769230769
 40
0.1538461538461539
 40
0.1538461538461539
 40
0.1538461538461539
 40
0.1538461538461539
 40
0.2307692307692308
 40
0.2307692307692308
 40
0.2307692307692308
 40
0.2307692307692308
 40
0.3076923076923077
 40
0.3076923076923077
 40
0.3076923076923077
 40
0.3076923076923077
 40
0.3846153846153846
 40
0.3846153846153846
 40
0.3846153846153846
 40
0.3846153846153846
 40
0.4615384615384616
 40
0.4615384615384616
 40
0.4615384615384616
 40
0.4615384615384616
 40
0.5384615384615384
 40
0.5384615384615384
 40
0.5384615384615384
 40
0.5384615384615384
 40
0.6153846153846154
 40
0.6153846153846154
 40
0.6153846153846154
 40
0.6153846153846154
 40
0.6923076923076923
 40
0.6923076923076923
 40
0.6923076923076923
 40
0.6923076923076923
 40
0.7692307692307693
 40
0.7692307692307693
 40
0.7692307692307693
 40
0.7692307692307693
 40
0.8461538461538461
 40
0.8461538461538461
 40
0.8461538461538461
 40
0.8461538461538461
 40
1
 40
1
 40
1
 40
1
 10
38.7788
 20
69.71380000000001
 30
0
 10
38.7788
 20
69.71380000000001
 30
0
 10
38.7788
 20
76.3133
 30
0
 10
38.7788
 20
76.3133
 30
0
 10
38.7788
 20
76.3133
 30
0
 10
38.7788
 20
76.3133
 30
0
 10
39.4922
 20
76.3133
 30
0
 10
39.4922
 20
76.3133
 30
0
 10
39.4922
 20
76.3133
 30
0
 10
39.4922
 20
76.3133
 30
0
 10
40.2056
 20
76.3133
 30
0
 10
40.2056
 20
76.3133
 30
0
 10
40.2056
 20
76.3133
 30
0
 10
40.2056
 20
76.3133
 30
0
 10
40.2056
 20
70.3916
 30
0
 10
40.2056
 20
70.3916
 30
0
 10
40.2056
 20
70.3916
 30
0
 10
40.2056
 20
70.3916
 30
0
 10
40.2056
 20
64.47
 30
0
 10
40.2056
 20
64.47
 30
0
 10
40.2056
 20
64.47
 30
0
 10
40.2056
 20
64.47
 30
0
 10
42.8097
 20
64.47
 30
0
 10
42.8097
 20
64.47
 30
0
 10
42.8097
 20
64.47
 30
0
 10
42.8097
 20
64.47
 30
0
 10
45.4139
 20
64.47
 30
0
 10
45.4139
 20
64.47
 30
0
 10
45.4139
 20
64.47
 30
0
 10
45.4139
 20
64.47
 30
0
 10
45.4139
 20
63.7922
 30
0
 10
45.4139
 20
63.7922
 30
0
 10
45.4139
 20
63.7922
 30
0
 10
45.4139
 20
63.7922
 30
0
 10
45.4139
 20
63.1144
 30
0
 10
45.4139
 20
63.1144
 30
0
 10
45.4139
 20
63.1144
 30
0
 10
45.4139
 20
63.1144
 30
0
 10
42.0963
 20
63.1144
 30
0
 10
42.0963
 20
63.1144
 30
0
 10
42.0963
 20
63.1144
 30
0
 10
42.0963
 20
63.1144
 30
0
 10
38.7788
 20
63.1144
 30
0
 10
38.7788
 20
63.1144
 30
0
 10
38.7788
 20
63.1144
 30
0
 10
38.7788
 20
63.1144
 30
0
 10
38.7788
 20
69.71380000000001
 30
0
 10
38.7788
 20
69.71380000000001
 30
0
  0
SPLINE
  5
54
100
AcDbEntity
  8
layer 1
  6
ByLayer
 62
  242
370
   18
100
AcDbSpline
210
0
220
0
230
0
 70
    8
 71
    3
 72
   12
 73
    8
 74
    0
 42
1e-07
 43
1e-07
 40
0
 40
0
 40
0
 40
0
 40
0.3333333333333333
 40
0.3333333333333333
 40
0.3333333333333333
 40
0.3333333333333333
 40
1
 40
1
 40
1
 40
1
 10
27.9266
 20
87.4432
 30
0
 10
29.5986
 20
87.4432
 30
0
 10
30.0741
 20
87.46299999999999
 30
0
 10
30.0724
 20
87.53230000000001
 30
0
 10
30.0724
 20
87.53230000000001
 30
0
 10
30.0716
 20
87.5814
 30
0
 10
29.6593
 20
89.1947
 30
0
 10
29.1571
 20
91.11750000000001
 30
0
  0
SPLINE
  5
55
100
AcDbEntity
  8
layer 1
  6
ByLayer
 62
  242
370
   18
100
AcDbSpline
210
0
220
0
230
0
 70
    8
 71
    3
 72
   20
 73
   16
 74
    0
 42
1e-07
 43
1e-07
 40
0
 40
0
 40
0
 40
0
 40
0.2
 40
0.2
 40
0.2
 40
0.2
 40
0.4
 40
0.4
 40
0.4
 40
0.4
 40
0.6
 40
0.6
 40
0.6
 40
0.6
 40
1
 40
1
 40
1
 40
1
 10
29.1571
 20
91.11750000000001
 30
0
 10
29.1571
 20
91.11750000000001
 30
0
 10
28.244
 20
94.6134
 30
0
 10
28.244
 20
94.6134
 30
0
 10
28.244
 20
94.6134
 30
0
 10
28.244
 20
94.6134
 30
0
 10
27.9643
 20
94.6339
 30
0
 10
27.9643
 20
94.6339
 30
0
 10
27.9643
 20
94.6339
 30
0
 10
27.9643
 20
94.6339
 30
0
 10
27.6845
 20
94.6545
 30
0
 10
27.6845
 20
94.6545
 30
0
 10
27.6845
 20
94.6545
 30
0
 10
27.6845
 20
94.6545
 30
0
 10
26.7637
 20
91.13800000000001
 30
0
 10
26.7637
 20
91.13800000000001
 30
0
  0
SPLINE
  5
56
100
AcDbEntity
  8
layer 1
  6
ByLayer
 62
  242
370
   18
100
AcDbSpline
210
0
220
0
230
0
 70
    8
 71
    3
 72
   12
 73
    8
 74
    0
 42
1e-07
 43
1e-07
 40
0
 40
0
 40
0
 40
0
 40
0.3333333333333333
 40
0.3333333333333333
 40
0.3333333333333333
 40
0.3333333333333333
 40
1
 40
1
 40
1
 40
1
 10
26.7637
 20
91.13800000000001
 30
0
 10
26.2573
 20
89.20399999999999
 30
0
 10
25.8285
 20
87.5814
 30
0
 10
25.8108
 20
87.5324
 30
0
 10
25.8108
 20
87.5324
 30
0
 10
25.7855
 20
87.4623
 30
0
 10
26.2386
 20
87.4432
 30
0
 10
27.9266
 20
87.4432
 30
0
  0
SPLINE
  5
57
100
AcDbEntity
  8
layer 1
  6
ByLayer
 62
  242
370
   18
100
AcDbSpline
210
0
220
0
230
0
 70
    8
 71
    3
 72
    8
 73
    4
 74
    0
 42
1e-07
 43
1e-07
 40
0
 40
0
 40
0
 40
0
 40
1
 40
1
 40
1
 40
1
 10
30.0724
 20
87.5324
 30
0
 10
30.0724
 20
87.5324
 30
0
 10
30.0724
 20
87.53230000000001
 30
0
 10
30.0724
 20
87.53230000000001
 30
0
  0
SPLINE
  5
58
100
AcDbEntity
  8
layer 1
  6
ByLayer
 62
  242
370
   18
100
AcDbSpline
210
0
220
0
230
0
 70
   11
 71
    3
 72
  100
 73
   96
 74
    0
 42
1e-07
 43
1e-07
 40
0
 40
0
 40
0
 40
0
 40
0.04
 40
0.04
 40
0.04
 40
0.04
 40
0.08
 40
0.08
 40
0.08
 40
0.08
 40
0.12
 40
0.12
 40
0.12
 40
0.12
 40
0.16
 40
0.16
 40
0.16
 40
0.16
 40
0.2
 40
0.2
 40
0.2
 40
0.2
 40
0.24
 40
0.24
 40
0.24
 40
0.24
 40
0.28
 40
0.28
 40
0.28
 40
0.28
 40
0.32
 40
0.32
 40
0.32
 40
0.32
 40
0.36
 40
0.36
 40
0.36
 40
0.36
 40
0.4
 40
0.4
 40
0.4
 40
0.4
 40
0.44
 40
0.44
 40
0.44
 40
0.44
 40
0.48
 40
0.48
 40
0.48
 40
0.48
 40
0.52
 40
0.52
 40
0.52
 40
0.52
 40
0.5600000000000001
 40
0.5600000000000001
 40
0.5600000000000001
 40
0.5600000000000001
 40
0.6
 40
0.6
 40
0.6
 40
0.6
 40
0.64
 40
0.64
 40
0.64
 40
0.64
 40
0.68
 40
0.68
 40
0.68
 40
0.68
 40
0.72
 40
0.72
 40
0.72
 40
0.72
 40
0.76
 40
0.76
 40
0.76
 40
0.76
 40
0.8
 40
0.8
 40
0.8
 40
0.8
 40
0.84
 40
0.84
 40
0.84
 40
0.84
 40
0.88
 40
0.88
 40
0.88
 40
0.88
 40
0.92
 40
0.92
 40
0.92
 40
0.92
 40
1
 40
1
 40
1
 40
1
 10
44.7004
 20
89.3695
 30
0
 10
44.7004
 20
89.3695
 30
0
 10
44.7004
 20
95.9333
 30
0
 10
44.7004
 20
95.9333
 30
0
 10
44.7004
 20
95.9333
 30
0
 10
44.7004
 20
95.9333
 30
0
 10
48.3747
 20
95.9333
 30
0
 10
48.3747
 20
95.9333
 30
0
 10
48.3747
 20
95.9333
 30
0
 10
48.3747
 20
95.9333
 30
0
 10
52.049
 20
95.9333
 30
0
 10
52.049
 20
95.9333
 30
0
 10
52.049
 20
95.9333
 30
0
 10
52.049
 20
95.9333
 30
0
 10
52.049
 20
95.2912
 30
0
 10
52.049
 20
95.2912
 30
0
 10
52.049
 20
95.2912
 30
0
 10
52.049
 20
95.2912
 30
0
 10
52.049
 20
94.649
 30
0
 10
52.049
 20
94.649
 30
0
 10
52.049
 20
94.649
 30
0
 10
52.049
 20
94.649
 30
0
 10
49.0882
 20
94.649
 30
0
 10
49.0882
 20
94.649
 30
0
 10
49.0882
 20
94.649
 30
0
 10
49.0882
 20
94.649
 30
0
 10
46.1273
 20
94.649
 30
0
 10
46.1273
 20
94.649
 30
0
 10
46.1273
 20
94.649
 30
0
 10
46.1273
 20
94.649
 30
0
 10
46.1273
 20
92.40170000000001
 30
0
 10
46.1273
 20
92.40170000000001
 30
0
 10
46.1273
 20
92.40170000000001
 30
0
 10
46.1273
 20
92.40170000000001
 30
0
 10
46.1273
 20
90.15430000000001
 30
0
 10
46.1273
 20
90.15430000000001
 30
0
 10
46.1273
 20
90.15430000000001
 30
0
 10
46.1273
 20
90.15430000000001
 30
0
 10
48.5531
 20
90.15430000000001
 30
0
 10
48.5531
 20
90.15430000000001
 30
0
 10
48.5531
 20
90.15430000000001
 30
0
 10
48.5531
 20
90.15430000000001
 30
0
 10
50.9788
 20
90.15430000000001
 30
0
 10
50.9788
 20
90.15430000000001
 30
0
 10
50.9788
 20
90.15430000000001
 30
0
 10
50.9788
 20
90.15430000000001
 30
0
 10
50.9788
 20
89.51220000000001
 30
0
 10
50.9788
 20
89.51220000000001
 30
0
 10
50.9788
 20
89.51220000000001
 30
0
 10
50.9788
 20
89.51220000000001
 30
0
 10
50.9788
 20
88.87009999999999
 30
0
 10
50.9788
 20
88.87009999999999
 30
0
 10
50.9788
 20
88.87009999999999
 30
0
 10
50.9788
 20
88.87009999999999
 30
0
 10
48.5531
 20
88.87009999999999
 30
0
 10
48.5531
 20
88.87009999999999
 30
0
 10
48.5531
 20
88.87009999999999
 30
0
 10
48.5531
 20
88.87009999999999
 30
0
 10
46.1273
 20
88.87009999999999
 30
0
 10
46.1273
 20
88.87009999999999
 30
0
 10
46.1273
 20
88.87009999999999
 30
0
 10
46.1273
 20
88.87009999999999
 30
0
 10
46.1273
 20
86.48
 30
0
 10
46.1273
 20
86.48
 30
0
 10
46.1273
 20
86.48
 30
0
 10
46.1273
 20
86.48
 30
0
 10
46.1273
 20
84.0899
 30
0
 10
46.1273
 20
84.0899
 30
0
 10
46.1273
 20
84.0899
 30
0
 10
46.1273
 20
84.0899
 30
0
 10
49.0882
 20
84.0899
 30
0
 10
49.0882
 20
84.0899
 30
0
 10
49.0882
 20
84.0899
 30
0
 10
49.0882
 20
84.0899
 30
0
 10
52.049
 20
84.0899
 30
0
 10
52.049
 20
84.0899
 30
0
 10
52.049
 20
84.0899
 30
0
 10
52.049
 20
84.0899
 30
0
 10
52.049
 20
83.4478
 30
0
 10
52.049
 20
83.4478
 30
0
 10
52.049
 20
83.4478
 30
0
 10
52.049
 20
83.4478
 30
0
 10
52.049
 20
82.8057
 30
0
 10
52.049
 20
82.8057
 30
0
 10
52.049
 20
82.8057
 30
0
 10
52.049
 20
82.8057
 30
0
 10
48.3747
 20
82.8057
 30
0
 10
48.3747
 20
82.8057
 30
0
 10
48.3747
 20
82.8057
 30
0
 10
48.3747
 20
82.8057
 30
0
 10
44.7004
 20
82.8057
 30
0
 10
44.7004
 20
82.8057
 30
0
 10
44.7004
 20
82.8057
 30
0
 10
44.7004
 20
82.8057
 30
0
 10
44.7004
 20
89.3695
 30
0
 10
44.7004
 20
89.3695
 30
0
  0
SPLINE
  5
59
100
AcDbEntity
  8
layer 1
  6
ByLayer
 62
  242
370
   18
100
AcDbSpline
210
0
220
0
230
0
 70
    8
 71
    3
 72
    8
 73
    4
 74
    0
 42
1e-07
 43
1e-07
 40
0
 40
0
 40
0
 40
0
 40
1
 40
1
 40
1
 40
1
 10
60.4694
 20
88.0855
 30
0
 10
60.4701
 20
88.0659
 30
0
 10
61.0281
 20
86.8699
 30
0
 10
61.7095
 20
85.42789999999999
 30
0
  0
SPLINE
  5
5A
100
AcDbEntity
  8
layer 1
  6
ByLayer
 62
  242
370
   18
100
AcDbSpline
210
0
220
0
230
0
 70
    8
 71
    3
 72
   64
 73
   60
 74
    0
 42
1e-07
 43
1e-07
 40
0
 40
0
 40
0
 40
0
 40
0.0625
 40
0.0625
 40
0.0625
 40
0.0625
 40
0.125
 40
0.125
 40
0.125
 40
0.125
 40
0.1875
 40
0.1875
 40
0.1875
 40
0.1875
 40
0.25
 40
0.25
 40
0.25
 40
0.25
 40
0.3125
 40
0.3125
 40
0.3125
 40
0.3125
 40
0.375
 40
0.375
 40
0.375
 40
0.375
 40
0.4375
 40
0.4375
 40
0.4375
 40
0.4375
 40
0.5
 40
0.5
 40
0.5
 40
0.5
 40
0.5625
 40
0.5625
 40
0.5625
 40
0.5625
 40
0.625
 40
0.625
 40
0.625
 40
0.625
 40
0.6875
 40
0.6875
 40
0.6875
 40
0.6875
 40
0.75
 40
0.75
 40
0.75
 40
0.75
 40
0.8125
 40
0.8125
 40
0.8125
 40
0.8125
 40
0.875
 40
0.875
 40
0.875
 40
0.875
 40
1
 40
1
 40
1
 40
1
 10
61.7095
 20
85.42789999999999
 30
0
 10
61.7095
 20
85.42789999999999
 30
0
 10
62.9486
 20
82.80589999999999
 30
0
 10
62.9486
 20
82.80589999999999
 30
0
 10
62.9486
 20
82.80589999999999
 30
0
 10
62.9486
 20
82.80589999999999
 30
0
 10
62.1471
 20
82.80589999999999
 30
0
 10
62.1471
 20
82.80589999999999
 30
0
 10
62.1471
 20
82.80589999999999
 30
0
 10
62.1471
 20
82.80589999999999
 30
0
 10
61.3457
 20
82.80589999999999
 30
0
 10
61.3457
 20
82.80589999999999
 30
0
 10
61.3457
 20
82.80589999999999
 30
0
 10
61.3457
 20
82.80589999999999
 30
0
 10
60.1716
 20
85.32089999999999
 30
0
 10
60.1716
 20
85.32089999999999
 30
0
 10
60.1716
 20
85.32089999999999
 30
0
 10
60.1716
 20
85.32089999999999
 30
0
 10
58.9974
 20
87.83580000000001
 30
0
 10
58.9974
 20
87.83580000000001
 30
0
 10
58.9974
 20
87.83580000000001
 30
0
 10
58.9974
 20
87.83580000000001
 30
0
 10
57.396
 20
87.83580000000001
 30
0
 10
57.396
 20
87.83580000000001
 30
0
 10
57.396
 20
87.83580000000001
 30
0
 10
57.396
 20
87.83580000000001
 30
0
 10
55.7946
 20
87.83580000000001
 30
0
 10
55.7946
 20
87.83580000000001
 30
0
 10
55.7946
 20
87.83580000000001
 30
0
 10
55.7946
 20
87.83580000000001
 30
0
 10
55.7758
 20
85.32089999999999
 30
0
 10
55.7758
 20
85.32089999999999
 30
0
 10
55.7758
 20
85.32089999999999
 30
0
 10
55.7758
 20
85.32089999999999
 30
0
 10
55.7571
 20
82.80589999999999
 30
0
 10
55.7571
 20
82.80589999999999
 30
0
 10
55.7571
 20
82.80589999999999
 30
0
 10
55.7571
 20
82.80589999999999
 30
0
 10
55.0446
 20
82.80589999999999
 30
0
 10
55.0446
 20
82.80589999999999
 30
0
 10
55.0446
 20
82.80589999999999
 30
0
 10
55.0446
 20
82.80589999999999
 30
0
 10
54.332
 20
82.80589999999999
 30
0
 10
54.332
 20
82.80589999999999
 30
0
 10
54.332
 20
82.80589999999999
 30
0
 10
54.332
 20
82.80589999999999
 30
0
 10
54.332
 20
89.36969999999999
 30
0
 10
54.332
 20
89.36969999999999
 30
0
 10
54.332
 20
89.36969999999999
 30
0
 10
54.332
 20
89.36969999999999
 30
0
 10
54.332
 20
89.3695
 30
0
 10
54.332
 20
89.3695
 30
0
 10
54.332
 20
89.3695
 30
0
 10
54.332
 20
89.3695
 30
0
 10
54.332
 20
95.9333
 30
0
 10
54.332
 20
95.9333
 30
0
 10
54.332
 20
95.9333
 30
0
 10
54.332
 20
95.9333
 30
0
 10
56.954
 20
95.9324
 30
0
 10
56.954
 20
95.9324
 30
0
  0
SPLINE
  5
5B
100
AcDbEntity
  8
layer 1
  6
ByLayer
 62
  242
370
   18
100
AcDbSpline
210
0
220
0
230
0
 70
    8
 71
    3
 72
   28
 73
   24
 74
    0
 42
1e-07
 43
1e-07
 40
0
 40
0
 40
0
 40
0
 40
0.1428571428571428
 40
0.1428571428571428
 40
0.1428571428571428
 40
0.1428571428571428
 40
0.2857142857142857
 40
0.2857142857142857
 40
0.2857142857142857
 40
0.2857142857142857
 40
0.4285714285714285
 40
0.4285714285714285
 40
0.4285714285714285
 40
0.4285714285714285
 40
0.5714285714285714
 40
0.5714285714285714
 40
0.5714285714285714
 40
0.5714285714285714
 40
0.7142857142857143
 40
0.7142857142857143
 40
0.7142857142857143
 40
0.7142857142857143
 40
1
 40
1
 40
1
 40
1
 10
56.954
 20
95.9324
 30
0
 10
59.801
 20
95.9316
 30
0
 10
60.1189
 20
95.8985
 30
0
 10
60.8437
 20
95.5314
 30
0
 10
60.8437
 20
95.5314
 30
0
 10
61.4024
 20
95.24850000000001
 30
0
 10
61.6497
 20
95.0346
 30
0
 10
61.9662
 20
94.56059999999999
 30
0
 10
61.9662
 20
94.56059999999999
 30
0
 10
62.4525
 20
93.83240000000001
 30
0
 10
62.5725
 20
93.313
 30
0
 10
62.572
 20
91.93810000000001
 30
0
 10
62.572
 20
91.93810000000001
 30
0
 10
62.572
 20
90.9997
 30
0
 10
62.5452
 20
90.6748
 30
0
 10
62.4409
 20
90.3359
 30
0
 10
62.4409
 20
90.3359
 30
0
 10
62.1377
 20
89.3506
 30
0
 10
61.6741
 20
88.74460000000001
 30
0
 10
60.9281
 20
88.35890000000001
 30
0
 10
60.9281
 20
88.35890000000001
 30
0
 10
60.6752
 20
88.2281
 30
0
 10
60.4688
 20
88.10509999999999
 30
0
 10
60.4694
 20
88.0855
 30
0
  0
SPLINE
  5
5C
100
AcDbEntity
  8
layer 1
  6
ByLayer
 62
  242
370
   18
100
AcDbSpline
210
0
220
0
230
0
 70
   11
 71
    3
 72
   68
 73
   64
 74
    0
 42
1e-07
 43
1e-07
 40
0
 40
0
 40
0
 40
0
 40
0.0588235294117647
 40
0.0588235294117647
 40
0.0588235294117647
 40
0.0588235294117647
 40
0.1176470588235294
 40
0.1176470588235294
 40
0.1176470588235294
 40
0.1176470588235294
 40
0.1764705882352941
 40
0.1764705882352941
 40
0.1764705882352941
 40
0.1764705882352941
 40
0.2352941176470588
 40
0.2352941176470588
 40
0.2352941176470588
 40
0.2352941176470588
 40
0.2941176470588235
 40
0.2941176470588235
 40
0.2941176470588235
 40
0.2941176470588235
 40
0.3529411764705883
 40
0.3529411764705883
 40
0.3529411764705883
 40
0.3529411764705883
 40
0.4117647058823529
 40
0.4117647058823529
 40
0.4117647058823529
 40
0.4117647058823529
 40
0.4705882352941176
 40
0.4705882352941176
 40
0.4705882352941176
 40
0.4705882352941176
 40
0.5294117647058824
 40
0.5294117647058824
 40
0.5294117647058824
 40
0.5294117647058824
 40
0.5882352941176471
 40
0.5882352941176471
 40
0.5882352941176471
 40
0.5882352941176471
 40
0.6470588235294118
 40
0.6470588235294118
 40
0.6470588235294118
 40
0.6470588235294118
 40
0.7058823529411765
 40
0.7058823529411765
 40
0.7058823529411765
 40
0.7058823529411765
 40
0.7647058823529411
 40
0.7647058823529411
 40
0.7647058823529411
 40
0.7647058823529411
 40
0.8235294117647058
 40
0.8235294117647058
 40
0.8235294117647058
 40
0.8235294117647058
 40
0.8823529411764706
 40
0.8823529411764706
 40
0.8823529411764706
 40
0.8823529411764706
 40
1
 40
1
 40
1
 40
1
 10
77.59059999999999
 20
98.3947
 30
0
 10
77.59059999999999
 20
98.3947
 30
0
 10
77.59059999999999
 20
99.7146
 30
0
 10
77.59059999999999
 20
99.7146
 30
0
 10
77.59059999999999
 20
99.7146
 30
0
 10
77.59059999999999
 20
99.7146
 30
0
 10
77.1982
 20
99.7146
 30
0
 10
77.1982
 20
99.7146
 30
0
 10
77.1982
 20
99.7146
 30
0
 10
77.1982
 20
99.7146
 30
0
 10
76.8058
 20
99.7146
 30
0
 10
76.8058
 20
99.7146
 30
0
 10
76.8058
 20
99.7146
 30
0
 10
76.8058
 20
99.7146
 30
0
 10
76.8058
 20
99.96429999999999
 30
0
 10
76.8058
 20
99.96429999999999
 30
0
 10
76.8058
 20
99.96429999999999
 30
0
 10
76.8058
 20
99.96429999999999
 30
0
 10
76.8058
 20
100.214
 30
0
 10
76.8058
 20
100.214
 30
0
 10
76.8058
 20
100.214
 30
0
 10
76.8058
 20
100.214
 30
0
 10
77.876
 20
100.214
 30
0
 10
77.876
 20
100.214
 30
0
 10
77.876
 20
100.214
 30
0
 10
77.876
 20
100.214
 30
0
 10
78.9462
 20
100.214
 30
0
 10
78.9462
 20
100.214
 30
0
 10
78.9462
 20
100.214
 30
0
 10
78.9462
 20
100.214
 30
0
 10
78.9462
 20
99.96429999999999
 30
0
 10
78.9462
 20
99.96429999999999
 30
0
 10
78.9462
 20
99.96429999999999
 30
0
 10
78.9462
 20
99.96429999999999
 30
0
 10
78.9462
 20
99.7146
 30
0
 10
78.9462
 20
99.7146
 30
0
 10
78.9462
 20
99.7146
 30
0
 10
78.9462
 20
99.7146
 30
0
 10
78.5894
 20
99.7146
 30
0
 10
78.5894
 20
99.7146
 30
0
 10
78.5894
 20
99.7146
 30
0
 10
78.5894
 20
99.7146
 30
0
 10
78.23269999999999
 20
99.7146
 30
0
 10
78.23269999999999
 20
99.7146
 30
0
 10
78.23269999999999
 20
99.7146
 30
0
 10
78.23269999999999
 20
99.7146
 30
0
 10
78.23269999999999
 20
98.3947
 30
0
 10
78.23269999999999
 20
98.3947
 30
0
 10
78.23269999999999
 20
98.3947
 30
0
 10
78.23269999999999
 20
98.3947
 30
0
 10
78.23269999999999
 20
97.0748
 30
0
 10
78.23269999999999
 20
97.0748
 30
0
 10
78.23269999999999
 20
97.0748
 30
0
 10
78.23269999999999
 20
97.0748
 30
0
 10
77.9117
 20
97.0748
 30
0
 10
77.9117
 20
97.0748
 30
0
 10
77.9117
 20
97.0748
 30
0
 10
77.9117
 20
97.0748
 30
0
 10
77.59059999999999
 20
97.0748
 30
0
 10
77.59059999999999
 20
97.0748
 30
0
 10
77.59059999999999
 20
97.0748
 30
0
 10
77.59059999999999
 20
97.0748
 30
0
 10
77.59059999999999
 20
98.3947
 30
0
 10
77.59059999999999
 20
98.3947
 30
0
  0
SPLINE
  5
5D
100
AcDbEntity
  8
layer 1
  6
ByLayer
 62
  242
370
   18
100
AcDbSpline
210
0
220
0
230
0
 70
    8
 71
    3
 72
    8
 73
    4
 74
    0
 42
1e-07
 43
1e-07
 40
0
 40
0
 40
0
 40
0
 40
1
 40
1
 40
1
 40
1
 10
49.803
 20
63.0479
 30
0
 10
49.803
 20
63.0479
 30
0
 10
49.8031
 20
63.0478
 30
0
 10
49.8031
 20
63.0478
 30
0
  0
SPLINE
  5
5E
100
AcDbEntity
  8
layer 1
  6
ByLayer
 62
  242
370
   18
100
AcDbSpline
210
0
220
0
230
0
 70
    8
 71
    3
 72
   16
 73
   12
 74
    0
 42
1e-07
 43
1e-07
 40
0
 40
0
 40
0
 40
0
 40
0.25
 40
0.25
 40
0.25
 40
0.25
 40
0.5
 40
0.5
 40
0.5
 40
0.5
 40
1
 40
1
 40
1
 40
1
 10
49.8031
 20
63.0478
 30
0
 10
48.9579
 20
63.1891
 30
0
 10
48.0322
 20
63.6697
 30
0
 10
47.636
 20
64.173
 30
0
 10
47.636
 20
64.173
 30
0
 10
47.3463
 20
64.5408
 30
0
 10
47.0742
 20
65.1046
 30
0
 10
46.9338
 20
65.628
 30
0
 10
46.9338
 20
65.628
 30
0
 10
46.8278
 20
66.0227
 30
0
 10
46.8107
 20
66.67570000000001
 30
0
 10
46.7881
 20
71.1943
 30
0
  0
SPLINE
  5
5F
100
AcDbEntity
  8
layer 1
  6
ByLayer
 62
  242
370
   18
100
AcDbSpline
210
0
220
0
230
0
 70
    8
 71
    3
 72
   20
 73
   16
 74
    0
 42
1e-07
 43
1e-07
 40
0
 40
0
 40
0
 40
0
 40
0.2
 40
0.2
 40
0.2
 40
0.2
 40
0.4
 40
0.4
 40
0.4
 40
0.4
 40
0.6
 40
0.6
 40
0.6
 40
0.6
 40
1
 40
1
 40
1
 40
1
 10
46.7881
 20
71.1943
 30
0
 10
46.7881
 20
71.1943
 30
0
 10
46.7625
 20
76.3133
 30
0
 10
46.7625
 20
76.3133
 30
0
 10
46.7625
 20
76.3133
 30
0
 10
46.7625
 20
76.3133
 30
0
 10
47.5151
 20
76.3133
 30
0
 10
47.5151
 20
76.3133
 30
0
 10
47.5151
 20
76.3133
 30
0
 10
47.5151
 20
76.3133
 30
0
 10
48.2677
 20
76.3133
 30
0
 10
48.2677
 20
76.3133
 30
0
 10
48.2677
 20
76.3133
 30
0
 10
48.2677
 20
76.3133
 30
0
 10
48.2677
 20
71.291
 30
0
 10
48.2677
 20
71.291
 30
0
  0
SPLINE
  5
60
100
AcDbEntity
  8
layer 1
  6
ByLayer
 62
  242
370
   18
100
AcDbSpline
210
0
220
0
230
0
 70
    8
 71
    3
 72
   24
 73
   20
 74
    0
 42
1e-07
 43
1e-07
 40
0
 40
0
 40
0
 40
0
 40
0.1666666666666667
 40
0.1666666666666667
 40
0.1666666666666667
 40
0.1666666666666667
 40
0.3333333333333333
 40
0.3333333333333333
 40
0.3333333333333333
 40
0.3333333333333333
 40
0.5
 40
0.5
 40
0.5
 40
0.5
 40
0.6666666666666666
 40
0.6666666666666666
 40
0.6666666666666666
 40
0.6666666666666666
 40
1
 40
1
 40
1
 40
1
 10
48.2677
 20
71.291
 30
0
 10
48.2677
 20
66.4062
 30
0
 10
48.2719
 20
66.25539999999999
 30
0
 10
48.416
 20
65.78830000000001
 30
0
 10
48.416
 20
65.78830000000001
 30
0
 10
48.5318
 20
65.41370000000001
 30
0
 10
48.6387
 20
65.2337
 30
0
 10
48.9019
 20
64.9705
 30
0
 10
48.9019
 20
64.9705
 30
0
 10
49.3615
 20
64.51090000000001
 30
0
 10
49.8728
 20
64.3241
 30
0
 10
50.807
 20
64.2747
 30
0
 10
50.807
 20
64.2747
 30
0
 10
52.4178
 20
64.18940000000001
 30
0
 10
53.3621
 20
64.67959999999999
 30
0
 10
53.7472
 20
65.80070000000001
 30
0
 10
53.7472
 20
65.80070000000001
 30
0
 10
53.8527
 20
66.1082
 30
0
 10
53.8683
 20
66.71080000000001
 30
0
 10
53.8877
 20
71.2299
 30
0
  0
SPLINE
  5
61
100
AcDbEntity
  8
layer 1
  6
ByLayer
 62
  242
370
   18
100
AcDbSpline
210
0
220
0
230
0
 70
    8
 71
    3
 72
   20
 73
   16
 74
    0
 42
1e-07
 43
1e-07
 40
0
 40
0
 40
0
 40
0
 40
0.2
 40
0.2
 40
0.2
 40
0.2
 40
0.4
 40
0.4
 40
0.4
 40
0.4
 40
0.6
 40
0.6
 40
0.6
 40
0.6
 40
1
 40
1
 40
1
 40
1
 10
53.8877
 20
71.2299
 30
0
 10
53.8877
 20
71.2299
 30
0
 10
53.9094
 20
76.3133
 30
0
 10
53.9094
 20
76.3133
 30
0
 10
53.9094
 20
76.3133
 30
0
 10
53.9094
 20
76.3133
 30
0
 10
54.6619
 20
76.3133
 30
0
 10
54.6619
 20
76.3133
 30
0
 10
54.6619
 20
76.3133
 30
0
 10
54.6619
 20
76.3133
 30
0
 10
55.4145
 20
76.3133
 30
0
 10
55.4145
 20
76.3133
 30
0
 10
55.4145
 20
76.3133
 30
0
 10
55.4145
 20
76.3133
 30
0
 10
55.385
 20
71.2299
 30
0
 10
55.385
 20
71.2299
 30
0
  0
SPLINE
  5
62
100
AcDbEntity
  8
layer 1
  6
ByLayer
 62
  242
370
   18
100
AcDbSpline
210
0
220
0
230
0
 70
    8
 71
    3
 72
   20
 73
   16
 74
    0
 42
1e-07
 43
1e-07
 40
0
 40
0
 40
0
 40
0
 40
0.2
 40
0.2
 40
0.2
 40
0.2
 40
0.4
 40
0.4
 40
0.4
 40
0.4
 40
0.6
 40
0.6
 40
0.6
 40
0.6
 40
1
 40
1
 40
1
 40
1
 10
55.385
 20
71.2299
 30
0
 10
55.3565
 20
66.2961
 30
0
 10
55.3511
 20
66.1301
 30
0
 10
55.2022
 20
65.5883
 30
0
 10
55.2022
 20
65.5883
 30
0
 10
54.999
 20
64.8493
 30
0
 10
54.7463
 20
64.4023
 30
0
 10
54.2853
 20
63.9663
 30
0
 10
54.2853
 20
63.9663
 30
0
 10
53.5455
 20
63.2667
 30
0
 10
52.5498
 20
62.9654
 30
0
 10
51.0261
 20
62.9801
 30
0
 10
51.0261
 20
62.9801
 30
0
 10
50.5489
 20
62.9843
 30
0
 10
49.9985
 20
63.0152
 30
0
 10
49.8031
 20
63.0478
 30
0
  0
SPLINE
  5
63
100
AcDbEntity
  8
layer 1
  6
ByLayer
 62
  242
370
   18
100
AcDbSpline
210
0
220
0
230
0
 70
    8
 71
    3
 72
    8
 73
    4
 74
    0
 42
1e-07
 43
1e-07
 40
0
 40
0
 40
0
 40
0
 40
1
 40
1
 40
1
 40
1
 10
49.8031
 20
63.0478
 30
0
 10
49.8031
 20
63.0478
 30
0
 10
49.803
 20
63.0479
 30
0
 10
49.803
 20
63.0479
 30
0
  0
SPLINE
  5
64
100
AcDbEntity
  8
layer 1
  6
ByLayer
 62
  242
370
   18
100
AcDbSpline
210
0
220
0
230
0
 70
    8
 71
    3
 72
   32
 73
   28
 74
    0
 42
1e-07
 43
1e-07
 40
0
 40
0
 40
0
 40
0
 40
0.125
 40
0.125
 40
0.125
 40
0.125
 40
0.25
 40
0.25
 40
0.25
 40
0.25
 40
0.375
 40
0.375
 40
0.375
 40
0.375
 40
0.5
 40
0.5
 40
0.5
 40
0.5
 40
0.625
 40
0.625
 40
0.625
 40
0.625
 40
0.75
 40
0.75
 40
0.75
 40
0.75
 40
1
 40
1
 40
1
 40
1
 10
8.670999999999999
 20
63.2075
 30
0
 10
8.670999999999999
 20
63.2614
 30
0
 10
9.4255
 20
66.2217
 30
0
 10
10.3476
 20
69.7859
 30
0
 10
10.3476
 20
69.7859
 30
0
 10
11.2697
 20
73.3501
 30
0
 10
12.0242
 20
76.27679999999999
 30
0
 10
12.0242
 20
76.2898
 30
0
 10
12.0242
 20
76.2898
 30
0
 10
12.0242
 20
76.3027
 30
0
 10
12.6824
 20
76.3133
 30
0
 10
13.4868
 20
76.3133
 30
0
 10
13.4868
 20
76.3133
 30
0
 10
14.2913
 20
76.3133
 30
0
 10
14.9494
 20
76.2938
 30
0
 10
14.9494
 20
76.27
 30
0
 10
14.9494
 20
76.27
 30
0
 10
14.9494
 20
76.2461
 30
0
 10
15.7039
 20
73.2942
 30
0
 10
16.626
 20
69.7101
 30
0
 10
16.626
 20
69.7101
 30
0
 10
17.5482
 20
66.126
 30
0
 10
18.3026
 20
63.1746
 30
0
 10
18.3026
 20
63.1515
 30
0
 10
18.3026
 20
63.1515
 30
0
 10
18.3026
 20
63.1284
 30
0
 10
17.9757
 20
63.1186
 30
0
 10
17.5761
 20
63.1297
 30
0
  0
SPLINE
  5
65
100
AcDbEntity
  8
layer 1
  6
ByLayer
 62
  242
370
   18
100
AcDbSpline
210
0
220
0
230
0
 70
    8
 71
    3
 72
   12
 73
    8
 74
    0
 42
1e-07
 43
1e-07
 40
0
 40
0
 40
0
 40
0
 40
0.3333333333333333
 40
0.3333333333333333
 40
0.3333333333333333
 40
0.3333333333333333
 40
1
 40
1
 40
1
 40
1
 10
17.5761
 20
63.1297
 30
0
 10
17.5761
 20
63.1297
 30
0
 10
16.8496
 20
63.15
 30
0
 10
16.8496
 20
63.15
 30
0
 10
16.8496
 20
63.15
 30
0
 10
16.8496
 20
63.15
 30
0
 10
16.4693
 20
64.54130000000001
 30
0
 10
16.4693
 20
64.54130000000001
 30
0
  0
SPLINE
  5
66
100
AcDbEntity
  8
layer 1
  6
ByLayer
 62
  242
370
   18
100
AcDbSpline
210
0
220
0
230
0
 70
    8
 71
    3
 72
    8
 73
    4
 74
    0
 42
1e-07
 43
1e-07
 40
0
 40
0
 40
0
 40
0
 40
1
 40
1
 40
1
 40
1
 10
16.4693
 20
64.54130000000001
 30
0
 10
16.2602
 20
65.3064
 30
0
 10
16.0562
 20
66.05289999999999
 30
0
 10
16.0159
 20
66.20010000000001
 30
0
  0
SPLINE
  5
67
100
AcDbEntity
  8
layer 1
  6
ByLayer
 62
  242
370
   18
100
AcDbSpline
210
0
220
0
230
0
 70
    8
 71
    3
 72
   20
 73
   16
 74
    0
 42
1e-07
 43
1e-07
 40
0
 40
0
 40
0
 40
0
 40
0.2
 40
0.2
 40
0.2
 40
0.2
 40
0.4
 40
0.4
 40
0.4
 40
0.4
 40
0.6
 40
0.6
 40
0.6
 40
0.6
 40
1
 40
1
 40
1
 40
1
 10
16.0159
 20
66.20010000000001
 30
0
 10
16.0159
 20
66.20010000000001
 30
0
 10
15.9428
 20
66.4676
 30
0
 10
15.9428
 20
66.4676
 30
0
 10
15.9428
 20
66.4676
 30
0
 10
15.9428
 20
66.4676
 30
0
 10
13.4861
 20
66.4676
 30
0
 10
13.4861
 20
66.4676
 30
0
 10
13.4861
 20
66.4676
 30
0
 10
13.4861
 20
66.4676
 30
0
 10
11.0294
 20
66.4676
 30
0
 10
11.0294
 20
66.4676
 30
0
 10
11.0294
 20
66.4676
 30
0
 10
11.0294
 20
66.4676
 30
0
 10
10.9224
 20
66.093
 30
0
 10
10.9224
 20
66.093
 30
0
  0
SPLINE
  5
68
100
AcDbEntity
  8
layer 1
  6
ByLayer
 62
  242
370
   18
100
AcDbSpline
210
0
220
0
230
0
 70
    8
 71
    3
 72
    8
 73
    4
 74
    0
 42
1e-07
 43
1e-07
 40
0
 40
0
 40
0
 40
0
 40
1
 40
1
 40
1
 40
1
 10
10.9224
 20
66.093
 30
0
 10
10.8635
 20
65.887
 30
0
 10
10.6585
 20
65.14060000000001
 30
0
 10
10.4668
 20
64.4342
 30
0
  0
SPLINE
  5
69
100
AcDbEntity
  8
layer 1
  6
ByLayer
 62
  242
370
   18
100
AcDbSpline
210
0
220
0
230
0
 70
    8
 71
    3
 72
   12
 73
    8
 74
    0
 42
1e-07
 43
1e-07
 40
0
 40
0
 40
0
 40
0
 40
0.3333333333333333
 40
0.3333333333333333
 40
0.3333333333333333
 40
0.3333333333333333
 40
1
 40
1
 40
1
 40
1
 10
10.4668
 20
64.4342
 30
0
 10
10.4668
 20
64.4342
 30
0
 10
10.1183
 20
63.15
 30
0
 10
10.1183
 20
63.15
 30
0
 10
10.1183
 20
63.15
 30
0
 10
10.1183
 20
63.15
 30
0
 10
9.3947
 20
63.1297
 30
0
 10
9.3947
 20
63.1297
 30
0
  0
SPLINE
  5
6A
100
AcDbEntity
  8
layer 1
  6
ByLayer
 62
  242
370
   18
100
AcDbSpline
210
0
220
0
230
0
 70
    8
 71
    3
 72
    8
 73
    4
 74
    0
 42
1e-07
 43
1e-07
 40
0
 40
0
 40
0
 40
0
 40
1
 40
1
 40
1
 40
1
 10
9.3947
 20
63.1297
 30
0
 10
8.8184
 20
63.1135
 30
0
 10
8.670999999999999
 20
63.1294
 30
0
 10
8.670999999999999
 20
63.2075
 30
0
  0
SPLINE
  5
6B
100
AcDbEntity
  8
layer 1
  6
ByLayer
 62
  242
370
   18
100
AcDbSpline
210
0
220
0
230
0
 70
    8
 71
    3
 72
   12
 73
    8
 74
    0
 42
1e-07
 43
1e-07
 40
0
 40
0
 40
0
 40
0
 40
0.3333333333333333
 40
0.3333333333333333
 40
0.3333333333333333
 40
0.3333333333333333
 40
1
 40
1
 40
1
 40
1
 10
34.0621
 20
73.31780000000001
 30
0
 10
34.0621
 20
73.31780000000001
 30
0
 10
35.5168
 20
76.3133
 30
0
 10
35.5168
 20
76.3133
 30
0
 10
35.5168
 20
76.3133
 30
0
 10
35.5168
 20
76.3133
 30
0
 10
36.2916
 20
76.3133
 30
0
 10
36.2916
 20
76.3133
 30
0
  0
SPLINE
  5
6C
100
AcDbEntity
  8
layer 1
  6
ByLayer
 62
  242
370
   18
100
AcDbSpline
210
0
220
0
230
0
 70
    8
 71
    3
 72
   12
 73
    8
 74
    0
 42
1e-07
 43
1e-07
 40
0
 40
0
 40
0
 40
0
 40
0.3333333333333333
 40
0.3333333333333333
 40
0.3333333333333333
 40
0.3333333333333333
 40
1
 40
1
 40
1
 40
1
 10
36.2916
 20
76.3133
 30
0
 10
36.7178
 20
76.3133
 30
0
 10
37.0664
 20
76.2971
 30
0
 10
37.0664
 20
76.2774
 30
0
 10
37.0664
 20
76.2774
 30
0
 10
37.0664
 20
76.2576
 30
0
 10
36.2157
 20
74.5401
 30
0
 10
35.1758
 20
72.4607
 30
0
  0
SPLINE
  5
6D
100
AcDbEntity
  8
layer 1
  6
ByLayer
 62
  242
370
   18
100
AcDbSpline
210
0
220
0
230
0
 70
    8
 71
    3
 72
   52
 73
   48
 74
    0
 42
1e-07
 43
1e-07
 40
0
 40
0
 40
0
 40
0
 40
0.0769230769230769
 40
0.0769230769230769
 40
0.0769230769230769
 40
0.0769230769230769
 40
0.1538461538461539
 40
0.1538461538461539
 40
0.1538461538461539
 40
0.1538461538461539
 40
0.2307692307692308
 40
0.2307692307692308
 40
0.2307692307692308
 40
0.2307692307692308
 40
0.3076923076923077
 40
0.3076923076923077
 40
0.3076923076923077
 40
0.3076923076923077
 40
0.3846153846153846
 40
0.3846153846153846
 40
0.3846153846153846
 40
0.3846153846153846
 40
0.4615384615384616
 40
0.4615384615384616
 40
0.4615384615384616
 40
0.4615384615384616
 40
0.5384615384615384
 40
0.5384615384615384
 40
0.5384615384615384
 40
0.5384615384615384
 40
0.6153846153846154
 40
0.6153846153846154
 40
0.6153846153846154
 40
0.6153846153846154
 40
0.6923076923076923
 40
0.6923076923076923
 40
0.6923076923076923
 40
0.6923076923076923
 40
0.7692307692307693
 40
0.7692307692307693
 40
0.7692307692307693
 40
0.7692307692307693
 40
0.8461538461538461
 40
0.8461538461538461
 40
0.8461538461538461
 40
0.8461538461538461
 40
1
 40
1
 40
1
 40
1
 10
35.1758
 20
72.4607
 30
0
 10
35.1758
 20
72.4607
 30
0
 10
33.2852
 20
68.6799
 30
0
 10
33.2852
 20
68.6799
 30
0
 10
33.2852
 20
68.6799
 30
0
 10
33.2852
 20
68.6799
 30
0
 10
33.2852
 20
65.8972
 30
0
 10
33.2852
 20
65.8972
 30
0
 10
33.2852
 20
65.8972
 30
0
 10
33.2852
 20
65.8972
 30
0
 10
33.2852
 20
63.1144
 30
0
 10
33.2852
 20
63.1144
 30
0
 10
33.2852
 20
63.1144
 30
0
 10
33.2852
 20
63.1144
 30
0
 10
32.5717
 20
63.1144
 30
0
 10
32.5717
 20
63.1144
 30
0
 10
32.5717
 20
63.1144
 30
0
 10
32.5717
 20
63.1144
 30
0
 10
31.8582
 20
63.1144
 30
0
 10
31.8582
 20
63.1144
 30
0
 10
31.8582
 20
63.1144
 30
0
 10
31.8582
 20
63.1144
 30
0
 10
31.8582
 20
65.9044
 30
0
 10
31.8582
 20
65.9044
 30
0
 10
31.8582
 20
65.9044
 30
0
 10
31.8582
 20
65.9044
 30
0
 10
31.8582
 20
68.69450000000001
 30
0
 10
31.8582
 20
68.69450000000001
 30
0
 10
31.8582
 20
68.69450000000001
 30
0
 10
31.8582
 20
68.69450000000001
 30
0
 10
29.9414
 20
72.5039
 30
0
 10
29.9414
 20
72.5039
 30
0
 10
29.9414
 20
72.5039
 30
0
 10
29.9414
 20
72.5039
 30
0
 10
28.0244
 20
76.3133
 30
0
 10
28.0244
 20
76.3133
 30
0
 10
28.0244
 20
76.3133
 30
0
 10
28.0244
 20
76.3133
 30
0
 10
28.8223
 20
76.3133
 30
0
 10
28.8223
 20
76.3133
 30
0
 10
28.8223
 20
76.3133
 30
0
 10
28.8223
 20
76.3133
 30
0
 10
29.6202
 20
76.3133
 30
0
 10
29.6202
 20
76.3133
 30
0
 10
29.6202
 20
76.3133
 30
0
 10
29.6202
 20
76.3133
 30
0
 10
31.0781
 20
73.3181
 30
0
 10
31.0781
 20
73.3181
 30
0
  0
SPLINE
  5
6E
100
AcDbEntity
  8
layer 1
  6
ByLayer
 62
  242
370
   18
100
AcDbSpline
210
0
220
0
230
0
 70
    8
 71
    3
 72
   12
 73
    8
 74
    0
 42
1e-07
 43
1e-07
 40
0
 40
0
 40
0
 40
0
 40
0.3333333333333333
 40
0.3333333333333333
 40
0.3333333333333333
 40
0.3333333333333333
 40
1
 40
1
 40
1
 40
1
 10
31.0781
 20
73.3181
 30
0
 10
31.88
 20
71.67059999999999
 30
0
 10
32.5521
 20
70.3227
 30
0
 10
32.5717
 20
70.32259999999999
 30
0
 10
32.5717
 20
70.32259999999999
 30
0
 10
32.5913
 20
70.3224
 30
0
 10
33.262
 20
71.6703
 30
0
 10
34.0621
 20
73.31780000000001
 30
0
  0
SPLINE
  5
6F
100
AcDbEntity
  8
layer 1
  6
ByLayer
 62
  242
370
   18
100
AcDbSpline
210
0
220
0
230
0
 70
    8
 71
    3
 72
   20
 73
   16
 74
    0
 42
1e-07
 43
1e-07
 40
0
 40
0
 40
0
 40
0
 40
0.2
 40
0.2
 40
0.2
 40
0.2
 40
0.4
 40
0.4
 40
0.4
 40
0.4
 40
0.6
 40
0.6
 40
0.6
 40
0.6
 40
1
 40
1
 40
1
 40
1
 10
66.73050000000001
 20
69.33920000000001
 30
0
 10
66.73050000000001
 20
69.33920000000001
 30
0
 10
65.0497
 20
63.6495
 30
0
 10
65.0497
 20
63.6495
 30
0
 10
65.0497
 20
63.6495
 30
0
 10
65.0497
 20
63.6495
 30
0
 10
64.13209999999999
 20
63.6302
 30
0
 10
64.13209999999999
 20
63.6302
 30
0
 10
64.13209999999999
 20
63.6302
 30
0
 10
64.13209999999999
 20
63.6302
 30
0
 10
63.2145
 20
63.6109
 30
0
 10
63.2145
 20
63.6109
 30
0
 10
63.2145
 20
63.6109
 30
0
 10
63.2145
 20
63.6109
 30
0
 10
61.5386
 20
69.3199
 30
0
 10
61.5386
 20
69.3199
 30
0
  0
SPLINE
  5
70
100
AcDbEntity
  8
layer 1
  6
ByLayer
 62
  242
370
   18
100
AcDbSpline
210
0
220
0
230
0
 70
    8
 71
    3
 72
   12
 73
    8
 74
    0
 42
1e-07
 43
1e-07
 40
0
 40
0
 40
0
 40
0
 40
0.3333333333333333
 40
0.3333333333333333
 40
0.3333333333333333
 40
0.3333333333333333
 40
1
 40
1
 40
1
 40
1
 10
61.5386
 20
69.3199
 30
0
 10
60.1392
 20
74.0869
 30
0
 10
59.842
 20
75.029
 30
0
 10
59.7371
 20
75.029
 30
0
 10
59.7371
 20
75.029
 30
0
 10
59.6183
 20
75.029
 30
0
 10
59.6116
 20
74.7105
 30
0
 10
59.6116
 20
69.0716
 30
0
  0
SPLINE
  5
71
100
AcDbEntity
  8
layer 1
  6
ByLayer
 62
  242
370
   18
100
AcDbSpline
210
0
220
0
230
0
 70
    8
 71
    3
 72
   36
 73
   32
 74
    0
 42
1e-07
 43
1e-07
 40
0
 40
0
 40
0
 40
0
 40
0.1111111111111111
 40
0.1111111111111111
 40
0.1111111111111111
 40
0.1111111111111111
 40
0.2222222222222222
 40
0.2222222222222222
 40
0.2222222222222222
 40
0.2222222222222222
 40
0.3333333333333333
 40
0.3333333333333333
 40
0.3333333333333333
 40
0.3333333333333333
 40
0.4444444444444444
 40
0.4444444444444444
 40
0.4444444444444444
 40
0.4444444444444444
 40
0.5555555555555556
 40
0.5555555555555556
 40
0.5555555555555556
 40
0.5555555555555556
 40
0.6666666666666666
 40
0.6666666666666666
 40
0.6666666666666666
 40
0.6666666666666666
 40
0.7777777777777778
 40
0.7777777777777778
 40
0.7777777777777778
 40
0.7777777777777778
 40
1
 40
1
 40
1
 40
1
 10
59.6116
 20
69.0716
 30
0
 10
59.6116
 20
69.0716
 30
0
 10
59.6116
 20
63.1143
 30
0
 10
59.6116
 20
63.1143
 30
0
 10
59.6116
 20
63.1143
 30
0
 10
59.6116
 20
63.1143
 30
0
 10
58.9338
 20
63.1143
 30
0
 10
58.9338
 20
63.1143
 30
0
 10
58.9338
 20
63.1143
 30
0
 10
58.9338
 20
63.1143
 30
0
 10
58.256
 20
63.1143
 30
0
 10
58.256
 20
63.1143
 30
0
 10
58.256
 20
63.1143
 30
0
 10
58.256
 20
63.1143
 30
0
 10
58.256
 20
69.71380000000001
 30
0
 10
58.256
 20
69.71380000000001
 30
0
 10
58.256
 20
69.71380000000001
 30
0
 10
58.256
 20
69.71380000000001
 30
0
 10
58.256
 20
76.3133
 30
0
 10
58.256
 20
76.3133
 30
0
 10
58.256
 20
76.3133
 30
0
 10
58.256
 20
76.3133
 30
0
 10
59.5283
 20
76.3133
 30
0
 10
59.5283
 20
76.3133
 30
0
 10
59.5283
 20
76.3133
 30
0
 10
59.5283
 20
76.3133
 30
0
 10
60.8007
 20
76.3133
 30
0
 10
60.8007
 20
76.3133
 30
0
 10
60.8007
 20
76.3133
 30
0
 10
60.8007
 20
76.3133
 30
0
 10
62.392
 20
70.94450000000001
 30
0
 10
62.392
 20
70.94450000000001
 30
0
  0
SPLINE
  5
72
100
AcDbEntity
  8
layer 1
  6
ByLayer
 62
  242
370
   18
100
AcDbSpline
210
0
220
0
230
0
 70
    8
 71
    3
 72
    8
 73
    4
 74
    0
 42
1e-07
 43
1e-07
 40
0
 40
0
 40
0
 40
0
 40
1
 40
1
 40
1
 40
1
 10
62.392
 20
70.94450000000001
 30
0
 10
63.2673
 20
67.99169999999999
 30
0
 10
64.0154
 20
65.46339999999999
 30
0
 10
64.0543
 20
65.3261
 30
0
  0
SPLINE
  5
73
100
AcDbEntity
  8
layer 1
  6
ByLayer
 62
  242
370
   18
100
AcDbSpline
210
0
220
0
230
0
 70
    8
 71
    3
 72
   12
 73
    8
 74
    0
 42
1e-07
 43
1e-07
 40
0
 40
0
 40
0
 40
0
 40
0.3333333333333333
 40
0.3333333333333333
 40
0.3333333333333333
 40
0.3333333333333333
 40
1
 40
1
 40
1
 40
1
 10
64.0543
 20
65.3261
 30
0
 10
64.0543
 20
65.3261
 30
0
 10
64.12520000000001
 20
65.07640000000001
 30
0
 10
64.12520000000001
 20
65.07640000000001
 30
0
 10
64.12520000000001
 20
65.07640000000001
 30
0
 10
64.12520000000001
 20
65.07640000000001
 30
0
 10
64.2116
 20
65.3261
 30
0
 10
64.2116
 20
65.3261
 30
0
  0
SPLINE
  5
74
100
AcDbEntity
  8
layer 1
  6
ByLayer
 62
  242
370
   18
100
AcDbSpline
210
0
220
0
230
0
 70
    8
 71
    3
 72
    8
 73
    4
 74
    0
 42
1e-07
 43
1e-07
 40
0
 40
0
 40
0
 40
0
 40
1
 40
1
 40
1
 40
1
 10
64.2116
 20
65.3261
 30
0
 10
64.25920000000001
 20
65.46339999999999
 30
0
 10
65.0166
 20
67.99169999999999
 30
0
 10
65.89490000000001
 20
70.94450000000001
 30
0
  0
SPLINE
  5
75
100
AcDbEntity
  8
layer 1
  6
ByLayer
 62
  242
370
   18
100
AcDbSpline
210
0
220
0
230
0
 70
    8
 71
    3
 72
   36
 73
   32
 74
    0
 42
1e-07
 43
1e-07
 40
0
 40
0
 40
0
 40
0
 40
0.1111111111111111
 40
0.1111111111111111
 40
0.1111111111111111
 40
0.1111111111111111
 40
0.2222222222222222
 40
0.2222222222222222
 40
0.2222222222222222
 40
0.2222222222222222
 40
0.3333333333333333
 40
0.3333333333333333
 40
0.3333333333333333
 40
0.3333333333333333
 40
0.4444444444444444
 40
0.4444444444444444
 40
0.4444444444444444
 40
0.4444444444444444
 40
0.5555555555555556
 40
0.5555555555555556
 40
0.5555555555555556
 40
0.5555555555555556
 40
0.6666666666666666
 40
0.6666666666666666
 40
0.6666666666666666
 40
0.6666666666666666
 40
0.7777777777777778
 40
0.7777777777777778
 40
0.7777777777777778
 40
0.7777777777777778
 40
1
 40
1
 40
1
 40
1
 10
65.89490000000001
 20
70.94450000000001
 30
0
 10
65.89490000000001
 20
70.94450000000001
 30
0
 10
67.49169999999999
 20
76.3133
 30
0
 10
67.49169999999999
 20
76.3133
 30
0
 10
67.49169999999999
 20
76.3133
 30
0
 10
67.49169999999999
 20
76.3133
 30
0
 10
68.7599
 20
76.3133
 30
0
 10
68.7599
 20
76.3133
 30
0
 10
68.7599
 20
76.3133
 30
0
 10
68.7599
 20
76.3133
 30
0
 10
70.02800000000001
 20
76.3133
 30
0
 10
70.02800000000001
 20
76.3133
 30
0
 10
70.02800000000001
 20
76.3133
 30
0
 10
70.02800000000001
 20
76.3133
 30
0
 10
70.02800000000001
 20
69.71380000000001
 30
0
 10
70.02800000000001
 20
69.71380000000001
 30
0
 10
70.02800000000001
 20
69.71380000000001
 30
0
 10
70.02800000000001
 20
69.71380000000001
 30
0
 10
70.02800000000001
 20
63.1144
 30
0
 10
70.02800000000001
 20
63.1144
 30
0
 10
70.02800000000001
 20
63.1144
 30
0
 10
70.02800000000001
 20
63.1144
 30
0
 10
69.3502
 20
63.1144
 30
0
 10
69.3502
 20
63.1144
 30
0
 10
69.3502
 20
63.1144
 30
0
 10
69.3502
 20
63.1144
 30
0
 10
68.6724
 20
63.1144
 30
0
 10
68.6724
 20
63.1144
 30
0
 10
68.6724
 20
63.1144
 30
0
 10
68.6724
 20
63.1144
 30
0
 10
68.6724
 20
69.07170000000001
 30
0
 10
68.6724
 20
69.07170000000001
 30
0
  0
SPLINE
  5
76
100
AcDbEntity
  8
layer 1
  6
ByLayer
 62
  242
370
   18
100
AcDbSpline
210
0
220
0
230
0
 70
    8
 71
    3
 72
   12
 73
    8
 74
    0
 42
1e-07
 43
1e-07
 40
0
 40
0
 40
0
 40
0
 40
0.3333333333333333
 40
0.3333333333333333
 40
0.3333333333333333
 40
0.3333333333333333
 40
1
 40
1
 40
1
 40
1
 10
68.6724
 20
69.07170000000001
 30
0
 10
68.6724
 20
74.7976
 30
0
 10
68.6674
 20
75.0291
 30
0
 10
68.54179999999999
 20
75.0291
 30
0
 10
68.54179999999999
 20
75.0291
 30
0
 10
68.43040000000001
 20
75.0291
 30
0
 10
68.1645
 20
74.19370000000001
 30
0
 10
66.73050000000001
 20
69.33920000000001
 30
0
  0
SPLINE
  5
77
100
AcDbEntity
  8
layer 1
  6
ByLayer
 62
  242
370
   18
100
AcDbSpline
210
0
220
0
230
0
 70
    8
 71
    3
 72
    8
 73
    4
 74
    0
 42
1e-07
 43
1e-07
 40
0
 40
0
 40
0
 40
0
 40
1
 40
1
 40
1
 40
1
 10
71.09820000000001
 20
82.63760000000001
 30
0
 10
71.09820000000001
 20
82.63760000000001
 30
0
 10
71.09820000000001
 20
82.6377
 30
0
 10
71.09820000000001
 20
82.6377
 30
0
  0
SPLINE
  5
78
100
AcDbEntity
  8
layer 1
  6
ByLayer
 62
  242
370
   18
100
AcDbSpline
210
0
220
0
230
0
 70
    8
 71
    3
 72
   44
 73
   40
 74
    0
 42
1e-07
 43
1e-07
 40
0
 40
0
 40
0
 40
0
 40
0.0909090909090909
 40
0.0909090909090909
 40
0.0909090909090909
 40
0.0909090909090909
 40
0.1818181818181818
 40
0.1818181818181818
 40
0.1818181818181818
 40
0.1818181818181818
 40
0.2727272727272727
 40
0.2727272727272727
 40
0.2727272727272727
 40
0.2727272727272727
 40
0.3636363636363636
 40
0.3636363636363636
 40
0.3636363636363636
 40
0.3636363636363636
 40
0.4545454545454545
 40
0.4545454545454545
 40
0.4545454545454545
 40
0.4545454545454545
 40
0.5454545454545454
 40
0.5454545454545454
 40
0.5454545454545454
 40
0.5454545454545454
 40
0.6363636363636364
 40
0.6363636363636364
 40
0.6363636363636364
 40
0.6363636363636364
 40
0.7272727272727273
 40
0.7272727272727273
 40
0.7272727272727273
 40
0.7272727272727273
 40
0.8181818181818182
 40
0.8181818181818182
 40
0.8181818181818182
 40
0.8181818181818182
 40
1
 40
1
 40
1
 40
1
 10
71.09820000000001
 20
82.6377
 30
0
 10
70.6301
 20
82.6728
 30
0
 10
68.3629
 20
82.9457
 30
0
 10
68.3506
 20
82.9683
 30
0
 10
68.3506
 20
82.9683
 30
0
 10
68.3237
 20
83.0177
 30
0
 10
68.4299
 20
84.0853
 30
0
 10
68.4653
 20
84.1206
 30
0
 10
68.4653
 20
84.1206
 30
0
 10
68.48860000000001
 20
84.14400000000001
 30
0
 10
69.0505
 20
84.113
 30
0
 10
69.71380000000001
 20
84.0521
 30
0
 10
69.71380000000001
 20
84.0521
 30
0
 10
72.4472
 20
83.8005
 30
0
 10
73.2462
 20
83.8891
 30
0
 10
73.8867
 20
84.51479999999999
 30
0
 10
73.8867
 20
84.51479999999999
 30
0
 10
74.36450000000001
 20
84.9816
 30
0
 10
74.5432
 20
85.49039999999999
 30
0
 10
74.5518
 20
86.4087
 30
0
 10
74.5518
 20
86.4087
 30
0
 10
74.556
 20
86.8475
 30
0
 10
74.52079999999999
 20
87.2287
 30
0
 10
74.4606
 20
87.399
 30
0
 10
74.4606
 20
87.399
 30
0
 10
74.21429999999999
 20
88.0963
 30
0
 10
73.4721
 20
88.5607
 30
0
 10
72.06140000000001
 20
88.9002
 30
0
 10
72.06140000000001
 20
88.9002
 30
0
 10
69.0873
 20
89.616
 30
0
 10
68.1695
 20
90.4829
 30
0
 10
68.1743
 20
92.572
 30
0
 10
68.1743
 20
92.572
 30
0
 10
68.1776
 20
94.10469999999999
 30
0
 10
68.7794
 20
95.1955
 30
0
 10
69.9141
 20
95.7265
 30
0
 10
69.9141
 20
95.7265
 30
0
 10
70.99079999999999
 20
96.2304
 30
0
 10
72.4422
 20
96.2775
 30
0
 10
74.9696
 20
95.8908
 30
0
  0
SPLINE
  5
79
100
AcDbEntity
  8
layer 1
  6
ByLayer
 62
  242
370
   18
100
AcDbSpline
210
0
220
0
230
0
 70
    8
 71
    3
 72
   12
 73
    8
 74
    0
 42
1e-07
 43
1e-07
 40
0
 40
0
 40
0
 40
0
 40
0.3333333333333333
 40
0.3333333333333333
 40
0.3333333333333333
 40
0.3333333333333333
 40
1
 40
1
 40
1
 40
1
 10
74.9696
 20
95.8908
 30
0
 10
74.9696
 20
95.8908
 30
0
 10
75.7375
 20
95.77330000000001
 30
0
 10
75.7375
 20
95.77330000000001
 30
0
 10
75.7375
 20
95.77330000000001
 30
0
 10
75.7375
 20
95.77330000000001
 30
0
 10
75.69110000000001
 20
95.19329999999999
 30
0
 10
75.69110000000001
 20
95.19329999999999
 30
0
  0
SPLINE
  5
7A
100
AcDbEntity
  8
layer 1
  6
ByLayer
 62
  242
370
   18
100
AcDbSpline
210
0
220
0
230
0
 70
    8
 71
    3
 72
   48
 73
   44
 74
    0
 42
1e-07
 43
1e-07
 40
0
 40
0
 40
0
 40
0
 40
0.0833333333333333
 40
0.0833333333333333
 40
0.0833333333333333
 40
0.0833333333333333
 40
0.1666666666666667
 40
0.1666666666666667
 40
0.1666666666666667
 40
0.1666666666666667
 40
0.25
 40
0.25
 40
0.25
 40
0.25
 40
0.3333333333333333
 40
0.3333333333333333
 40
0.3333333333333333
 40
0.3333333333333333
 40
0.4166666666666667
 40
0.4166666666666667
 40
0.4166666666666667
 40
0.4166666666666667
 40
0.5
 40
0.5
 40
0.5
 40
0.5
 40
0.5833333333333334
 40
0.5833333333333334
 40
0.5833333333333334
 40
0.5833333333333334
 40
0.6666666666666666
 40
0.6666666666666666
 40
0.6666666666666666
 40
0.6666666666666666
 40
0.75
 40
0.75
 40
0.75
 40
0.75
 40
0.8333333333333334
 40
0.8333333333333334
 40
0.8333333333333334
 40
0.8333333333333334
 40
1
 40
1
 40
1
 40
1
 10
75.69110000000001
 20
95.19329999999999
 30
0
 10
75.6656
 20
94.87439999999999
 30
0
 10
75.64100000000001
 20
94.60850000000001
 30
0
 10
75.6367
 20
94.60250000000001
 30
0
 10
75.6367
 20
94.60250000000001
 30
0
 10
75.63249999999999
 20
94.5966
 30
0
 10
75.2273
 20
94.6392
 30
0
 10
74.7368
 20
94.6972
 30
0
 10
74.7368
 20
94.6972
 30
0
 10
74.24630000000001
 20
94.75530000000001
 30
0
 10
73.2831
 20
94.8081
 30
0
 10
72.59650000000001
 20
94.8145
 30
0
 10
72.59650000000001
 20
94.8145
 30
0
 10
71.4342
 20
94.82550000000001
 30
0
 10
71.31829999999999
 20
94.8145
 30
0
 10
70.9198
 20
94.6566
 30
0
 10
70.9198
 20
94.6566
 30
0
 10
70.39100000000001
 20
94.447
 30
0
 10
69.9537
 20
94.01690000000001
 30
0
 10
69.8216
 20
93.5763
 30
0
 10
69.8216
 20
93.5763
 30
0
 10
69.581
 20
92.7741
 30
0
 10
69.6651
 20
91.87949999999999
 30
0
 10
70.0283
 20
91.3781
 30
0
 10
70.0283
 20
91.3781
 30
0
 10
70.3211
 20
90.9739
 30
0
 10
71.03149999999999
 20
90.6498
 30
0
 10
72.4894
 20
90.25530000000001
 30
0
 10
72.4894
 20
90.25530000000001
 30
0
 10
74.4983
 20
89.7116
 30
0
 10
75.2962
 20
89.24169999999999
 30
0
 10
75.73520000000001
 20
88.3437
 30
0
 10
75.73520000000001
 20
88.3437
 30
0
 10
76.2124
 20
87.3673
 30
0
 10
76.1794
 20
85.6129
 30
0
 10
75.6622
 20
84.4679
 30
0
 10
75.6622
 20
84.4679
 30
0
 10
75.28870000000001
 20
83.64109999999999
 30
0
 10
74.5269
 20
83.0275
 30
0
 10
73.5538
 20
82.7696
 30
0
 10
73.5538
 20
82.7696
 30
0
 10
73.12269999999999
 20
82.6554
 30
0
 10
71.80419999999999
 20
82.58450000000001
 30
0
 10
71.09820000000001
 20
82.6377
 30
0
  0
SPLINE
  5
7B
100
AcDbEntity
  8
layer 1
  6
ByLayer
 62
  242
370
   18
100
AcDbSpline
210
0
220
0
230
0
 70
    8
 71
    3
 72
    8
 73
    4
 74
    0
 42
1e-07
 43
1e-07
 40
0
 40
0
 40
0
 40
0
 40
1
 40
1
 40
1
 40
1
 10
71.09820000000001
 20
82.6377
 30
0
 10
71.09820000000001
 20
82.6377
 30
0
 10
71.09820000000001
 20
82.63760000000001
 30
0
 10
71.09820000000001
 20
82.63760000000001
 30
0
  0
SPLINE
  5
7C
100
AcDbEntity
  8
layer 1
  6
ByLayer
 62
  242
370
   18
100
AcDbSpline
210
0
220
0
230
0
 70
    8
 71
    3
 72
   20
 73
   16
 74
    0
 42
1e-07
 43
1e-07
 40
0
 40
0
 40
0
 40
0
 40
0.2
 40
0.2
 40
0.2
 40
0.2
 40
0.4
 40
0.4
 40
0.4
 40
0.4
 40
0.6
 40
0.6
 40
0.6
 40
0.6
 40
1
 40
1
 40
1
 40
1
 10
16.3311
 20
83.64400000000001
 30
0
 10
16.3311
 20
83.64400000000001
 30
0
 10
16.2221
 20
83.3051
 30
0
 10
16.2221
 20
83.3051
 30
0
 10
16.2221
 20
83.3051
 30
0
 10
16.2221
 20
83.3051
 30
0
 10
15.3038
 20
83.3051
 30
0
 10
15.3038
 20
83.3051
 30
0
 10
15.3038
 20
83.3051
 30
0
 10
15.3038
 20
83.3051
 30
0
 10
14.3854
 20
83.3051
 30
0
 10
14.3854
 20
83.3051
 30
0
 10
14.3854
 20
83.3051
 30
0
 10
14.3854
 20
83.3051
 30
0
 10
14.2538
 20
83.751
 30
0
 10
14.2538
 20
83.751
 30
0
  0
SPLINE
  5
7D
100
AcDbEntity
  8
layer 1
  6
ByLayer
 62
  242
370
   18
100
AcDbSpline
210
0
220
0
230
0
 70
    8
 71
    3
 72
   12
 73
    8
 74
    0
 42
1e-07
 43
1e-07
 40
0
 40
0
 40
0
 40
0
 40
0.3333333333333333
 40
0.3333333333333333
 40
0.3333333333333333
 40
0.3333333333333333
 40
1
 40
1
 40
1
 40
1
 10
14.2538
 20
83.751
 30
0
 10
14.1814
 20
83.99630000000001
 30
0
 10
13.4334
 20
86.54819999999999
 30
0
 10
12.5916
 20
89.422
 30
0
 10
12.5916
 20
89.422
 30
0
 10
11.1523
 20
94.33580000000001
 30
0
 10
11.0515
 20
94.6472
 30
0
 10
10.9006
 20
94.6481
 30
0
  0
SPLINE
  5
7E
100
AcDbEntity
  8
layer 1
  6
ByLayer
 62
  242
370
   18
100
AcDbSpline
210
0
220
0
230
0
 70
    8
 71
    3
 72
   44
 73
   40
 74
    0
 42
1e-07
 43
1e-07
 40
0
 40
0
 40
0
 40
0
 40
0.0909090909090909
 40
0.0909090909090909
 40
0.0909090909090909
 40
0.0909090909090909
 40
0.1818181818181818
 40
0.1818181818181818
 40
0.1818181818181818
 40
0.1818181818181818
 40
0.2727272727272727
 40
0.2727272727272727
 40
0.2727272727272727
 40
0.2727272727272727
 40
0.3636363636363636
 40
0.3636363636363636
 40
0.3636363636363636
 40
0.3636363636363636
 40
0.4545454545454545
 40
0.4545454545454545
 40
0.4545454545454545
 40
0.4545454545454545
 40
0.5454545454545454
 40
0.5454545454545454
 40
0.5454545454545454
 40
0.5454545454545454
 40
0.6363636363636364
 40
0.6363636363636364
 40
0.6363636363636364
 40
0.6363636363636364
 40
0.7272727272727273
 40
0.7272727272727273
 40
0.7272727272727273
 40
0.7272727272727273
 40
0.8181818181818182
 40
0.8181818181818182
 40
0.8181818181818182
 40
0.8181818181818182
 40
1
 40
1
 40
1
 40
1
 10
10.9006
 20
94.6481
 30
0
 10
10.9006
 20
94.6481
 30
0
 10
10.74
 20
94.6489
 30
0
 10
10.74
 20
94.6489
 30
0
 10
10.74
 20
94.6489
 30
0
 10
10.74
 20
94.6489
 30
0
 10
10.74
 20
88.7273
 30
0
 10
10.74
 20
88.7273
 30
0
 10
10.74
 20
88.7273
 30
0
 10
10.74
 20
88.7273
 30
0
 10
10.74
 20
82.8056
 30
0
 10
10.74
 20
82.8056
 30
0
 10
10.74
 20
82.8056
 30
0
 10
10.74
 20
82.8056
 30
0
 10
10.0623
 20
82.8056
 30
0
 10
10.0623
 20
82.8056
 30
0
 10
10.0623
 20
82.8056
 30
0
 10
10.0623
 20
82.8056
 30
0
 10
9.384499999999999
 20
82.8056
 30
0
 10
9.384499999999999
 20
82.8056
 30
0
 10
9.384499999999999
 20
82.8056
 30
0
 10
9.384499999999999
 20
82.8056
 30
0
 10
9.384499999999999
 20
89.3695
 30
0
 10
9.384499999999999
 20
89.3695
 30
0
 10
9.384499999999999
 20
89.3695
 30
0
 10
9.384499999999999
 20
89.3695
 30
0
 10
9.384499999999999
 20
95.9333
 30
0
 10
9.384499999999999
 20
95.9333
 30
0
 10
9.384499999999999
 20
95.9333
 30
0
 10
9.384499999999999
 20
95.9333
 30
0
 10
10.6877
 20
95.9333
 30
0
 10
10.6877
 20
95.9333
 30
0
 10
10.6877
 20
95.9333
 30
0
 10
10.6877
 20
95.9333
 30
0
 10
11.9909
 20
95.9333
 30
0
 10
11.9909
 20
95.9333
 30
0
 10
11.9909
 20
95.9333
 30
0
 10
11.9909
 20
95.9333
 30
0
 10
13.6208
 20
90.4218
 30
0
 10
13.6208
 20
90.4218
 30
0
  0
SPLINE
  5
7F
100
AcDbEntity
  8
layer 1
  6
ByLayer
 62
  242
370
   18
100
AcDbSpline
210
0
220
0
230
0
 70
    8
 71
    3
 72
   16
 73
   12
 74
    0
 42
1e-07
 43
1e-07
 40
0
 40
0
 40
0
 40
0
 40
0.25
 40
0.25
 40
0.25
 40
0.25
 40
0.5
 40
0.5
 40
0.5
 40
0.5
 40
1
 40
1
 40
1
 40
1
 10
13.6208
 20
90.4218
 30
0
 10
14.5173
 20
87.3905
 30
0
 10
15.2731
 20
84.886
 30
0
 10
15.3006
 20
84.8562
 30
0
 10
15.3006
 20
84.8562
 30
0
 10
15.3279
 20
84.82640000000001
 30
0
 10
16.0364
 20
87.10590000000001
 30
0
 10
16.8749
 20
89.9217
 30
0
 10
16.8749
 20
89.9217
 30
0
 10
17.7134
 20
92.7376
 30
0
 10
18.4595
 20
95.24209999999999
 30
0
 10
18.5328
 20
95.4873
 30
0
  0
SPLINE
  5
80
100
AcDbEntity
  8
layer 1
  6
ByLayer
 62
  242
370
   18
100
AcDbSpline
210
0
220
0
230
0
 70
    8
 71
    3
 72
   36
 73
   32
 74
    0
 42
1e-07
 43
1e-07
 40
0
 40
0
 40
0
 40
0
 40
0.1111111111111111
 40
0.1111111111111111
 40
0.1111111111111111
 40
0.1111111111111111
 40
0.2222222222222222
 40
0.2222222222222222
 40
0.2222222222222222
 40
0.2222222222222222
 40
0.3333333333333333
 40
0.3333333333333333
 40
0.3333333333333333
 40
0.3333333333333333
 40
0.4444444444444444
 40
0.4444444444444444
 40
0.4444444444444444
 40
0.4444444444444444
 40
0.5555555555555556
 40
0.5555555555555556
 40
0.5555555555555556
 40
0.5555555555555556
 40
0.6666666666666666
 40
0.6666666666666666
 40
0.6666666666666666
 40
0.6666666666666666
 40
0.7777777777777778
 40
0.7777777777777778
 40
0.7777777777777778
 40
0.7777777777777778
 40
1
 40
1
 40
1
 40
1
 10
18.5328
 20
95.4873
 30
0
 10
18.5328
 20
95.4873
 30
0
 10
18.6661
 20
95.9333
 30
0
 10
18.6661
 20
95.9333
 30
0
 10
18.6661
 20
95.9333
 30
0
 10
18.6661
 20
95.9333
 30
0
 10
19.947
 20
95.9333
 30
0
 10
19.947
 20
95.9333
 30
0
 10
19.947
 20
95.9333
 30
0
 10
19.947
 20
95.9333
 30
0
 10
21.2278
 20
95.9333
 30
0
 10
21.2278
 20
95.9333
 30
0
 10
21.2278
 20
95.9333
 30
0
 10
21.2278
 20
95.9333
 30
0
 10
21.2278
 20
89.3695
 30
0
 10
21.2278
 20
89.3695
 30
0
 10
21.2278
 20
89.3695
 30
0
 10
21.2278
 20
89.3695
 30
0
 10
21.2278
 20
82.8057
 30
0
 10
21.2278
 20
82.8057
 30
0
 10
21.2278
 20
82.8057
 30
0
 10
21.2278
 20
82.8057
 30
0
 10
20.55
 20
82.8057
 30
0
 10
20.55
 20
82.8057
 30
0
 10
20.55
 20
82.8057
 30
0
 10
20.55
 20
82.8057
 30
0
 10
19.8722
 20
82.8057
 30
0
 10
19.8722
 20
82.8057
 30
0
 10
19.8722
 20
82.8057
 30
0
 10
19.8722
 20
82.8057
 30
0
 10
19.8722
 20
88.7274
 30
0
 10
19.8722
 20
88.7274
 30
0
  0
SPLINE
  5
81
100
AcDbEntity
  8
layer 1
  6
ByLayer
 62
  242
370
   18
100
AcDbSpline
210
0
220
0
230
0
 70
    8
 71
    3
 72
   16
 73
   12
 74
    0
 42
1e-07
 43
1e-07
 40
0
 40
0
 40
0
 40
0
 40
0.25
 40
0.25
 40
0.25
 40
0.25
 40
0.5
 40
0.5
 40
0.5
 40
0.5
 40
1
 40
1
 40
1
 40
1
 10
19.8722
 20
88.7274
 30
0
 10
19.8722
 20
94.5188
 30
0
 10
19.8688
 20
94.649
 30
0
 10
19.7353
 20
94.649
 30
0
 10
19.7353
 20
94.649
 30
0
 10
19.5663
 20
94.649
 30
0
 10
19.7166
 20
95.1159
 30
0
 10
17.9098
 20
88.97709999999999
 30
0
 10
17.9098
 20
88.97709999999999
 30
0
 10
17.1014
 20
86.2303
 30
0
 10
16.391
 20
83.8304
 30
0
 10
16.3311
 20
83.64400000000001
 30
0
  0
SPLINE
  5
82
100
AcDbEntity
  8
layer 1
  6
ByLayer
 62
  242
370
   18
100
AcDbSpline
210
0
220
0
230
0
 70
    8
 71
    3
 72
   52
 73
   48
 74
    0
 42
1e-07
 43
1e-07
 40
0
 40
0
 40
0
 40
0
 40
0.0769230769230769
 40
0.0769230769230769
 40
0.0769230769230769
 40
0.0769230769230769
 40
0.1538461538461539
 40
0.1538461538461539
 40
0.1538461538461539
 40
0.1538461538461539
 40
0.2307692307692308
 40
0.2307692307692308
 40
0.2307692307692308
 40
0.2307692307692308
 40
0.3076923076923077
 40
0.3076923076923077
 40
0.3076923076923077
 40
0.3076923076923077
 40
0.3846153846153846
 40
0.3846153846153846
 40
0.3846153846153846
 40
0.3846153846153846
 40
0.4615384615384616
 40
0.4615384615384616
 40
0.4615384615384616
 40
0.4615384615384616
 40
0.5384615384615384
 40
0.5384615384615384
 40
0.5384615384615384
 40
0.5384615384615384
 40
0.6153846153846154
 40
0.6153846153846154
 40
0.6153846153846154
 40
0.6153846153846154
 40
0.6923076923076923
 40
0.6923076923076923
 40
0.6923076923076923
 40
0.6923076923076923
 40
0.7692307692307693
 40
0.7692307692307693
 40
0.7692307692307693
 40
0.7692307692307693
 40
0.8461538461538461
 40
0.8461538461538461
 40
0.8461538461538461
 40
0.8461538461538461
 40
1
 40
1
 40
1
 40
1
 10
36.139
 20
89.87009999999999
 30
0
 10
36.139
 20
89.87009999999999
 30
0
 10
36.139
 20
92.90170000000001
 30
0
 10
36.139
 20
92.90170000000001
 30
0
 10
36.139
 20
92.90170000000001
 30
0
 10
36.139
 20
92.90170000000001
 30
0
 10
36.139
 20
95.9333
 30
0
 10
36.139
 20
95.9333
 30
0
 10
36.139
 20
95.9333
 30
0
 10
36.139
 20
95.9333
 30
0
 10
35.4255
 20
95.9333
 30
0
 10
35.4255
 20
95.9333
 30
0
 10
35.4255
 20
95.9333
 30
0
 10
35.4255
 20
95.9333
 30
0
 10
34.7121
 20
95.9333
 30
0
 10
34.7121
 20
95.9333
 30
0
 10
34.7121
 20
95.9333
 30
0
 10
34.7121
 20
95.9333
 30
0
 10
34.7121
 20
89.3695
 30
0
 10
34.7121
 20
89.3695
 30
0
 10
34.7121
 20
89.3695
 30
0
 10
34.7121
 20
89.3695
 30
0
 10
34.7121
 20
89.36969999999999
 30
0
 10
34.7121
 20
89.36969999999999
 30
0
 10
34.7121
 20
89.36969999999999
 30
0
 10
34.7121
 20
89.36969999999999
 30
0
 10
34.7121
 20
82.80589999999999
 30
0
 10
34.7121
 20
82.80589999999999
 30
0
 10
34.7121
 20
82.80589999999999
 30
0
 10
34.7121
 20
82.80589999999999
 30
0
 10
35.4255
 20
82.80589999999999
 30
0
 10
35.4255
 20
82.80589999999999
 30
0
 10
35.4255
 20
82.80589999999999
 30
0
 10
35.4255
 20
82.80589999999999
 30
0
 10
36.139
 20
82.80589999999999
 30
0
 10
36.139
 20
82.80589999999999
 30
0
 10
36.139
 20
82.80589999999999
 30
0
 10
36.139
 20
82.80589999999999
 30
0
 10
36.139
 20
85.68899999999999
 30
0
 10
36.139
 20
85.68899999999999
 30
0
 10
36.139
 20
85.68899999999999
 30
0
 10
36.139
 20
85.68899999999999
 30
0
 10
36.139
 20
88.57210000000001
 30
0
 10
36.139
 20
88.57210000000001
 30
0
 10
36.139
 20
88.57210000000001
 30
0
 10
36.139
 20
88.57210000000001
 30
0
 10
36.7276
 20
88.62009999999999
 30
0
 10
36.7276
 20
88.62009999999999
 30
0
  0
SPLINE
  5
83
100
AcDbEntity
  8
layer 1
  6
ByLayer
 62
  242
370
   18
100
AcDbSpline
210
0
220
0
230
0
 70
    8
 71
    3
 72
    8
 73
    4
 74
    0
 42
1e-07
 43
1e-07
 40
0
 40
0
 40
0
 40
0
 40
1
 40
1
 40
1
 40
1
 10
36.7276
 20
88.62009999999999
 30
0
 10
37.0513
 20
88.6469
 30
0
 10
37.4593
 20
88.6575
 30
0
 10
37.6343
 20
88.6444
 30
0
  0
SPLINE
  5
84
100
AcDbEntity
  8
layer 1
  6
ByLayer
 62
  242
370
   18
100
AcDbSpline
210
0
220
0
230
0
 70
    8
 71
    3
 72
   20
 73
   16
 74
    0
 42
1e-07
 43
1e-07
 40
0
 40
0
 40
0
 40
0
 40
0.2
 40
0.2
 40
0.2
 40
0.2
 40
0.4
 40
0.4
 40
0.4
 40
0.4
 40
0.6
 40
0.6
 40
0.6
 40
0.6
 40
1
 40
1
 40
1
 40
1
 10
37.6343
 20
88.6444
 30
0
 10
37.6343
 20
88.6444
 30
0
 10
37.9524
 20
88.6206
 30
0
 10
37.9524
 20
88.6206
 30
0
 10
37.9524
 20
88.6206
 30
0
 10
37.9524
 20
88.6206
 30
0
 10
39.6238
 20
85.7133
 30
0
 10
39.6238
 20
85.7133
 30
0
 10
39.6238
 20
85.7133
 30
0
 10
39.6238
 20
85.7133
 30
0
 10
41.2953
 20
82.806
 30
0
 10
41.2953
 20
82.806
 30
0
 10
41.2953
 20
82.806
 30
0
 10
41.2953
 20
82.806
 30
0
 10
42.1061
 20
82.806
 30
0
 10
42.1061
 20
82.806
 30
0
  0
SPLINE
  5
85
100
AcDbEntity
  8
layer 1
  6
ByLayer
 62
  242
370
   18
100
AcDbSpline
210
0
220
0
230
0
 70
    8
 71
    3
 72
   28
 73
   24
 74
    0
 42
1e-07
 43
1e-07
 40
0
 40
0
 40
0
 40
0
 40
0.1428571428571428
 40
0.1428571428571428
 40
0.1428571428571428
 40
0.1428571428571428
 40
0.2857142857142857
 40
0.2857142857142857
 40
0.2857142857142857
 40
0.2857142857142857
 40
0.4285714285714285
 40
0.4285714285714285
 40
0.4285714285714285
 40
0.4285714285714285
 40
0.5714285714285714
 40
0.5714285714285714
 40
0.5714285714285714
 40
0.5714285714285714
 40
0.7142857142857143
 40
0.7142857142857143
 40
0.7142857142857143
 40
0.7142857142857143
 40
1
 40
1
 40
1
 40
1
 10
42.1061
 20
82.806
 30
0
 10
42.5519
 20
82.806
 30
0
 10
42.9168
 20
82.8203
 30
0
 10
42.9168
 20
82.8378
 30
0
 10
42.9168
 20
82.8378
 30
0
 10
42.9168
 20
82.8553
 30
0
 10
42.0951
 20
84.3212
 30
0
 10
41.0909
 20
86.09529999999999
 30
0
 10
41.0909
 20
86.09529999999999
 30
0
 10
40.0866
 20
87.8695
 30
0
 10
39.2506
 20
89.35850000000001
 30
0
 10
39.2331
 20
89.4042
 30
0
 10
39.2331
 20
89.4042
 30
0
 10
39.2155
 20
89.45
 30
0
 10
39.989
 20
90.9273
 30
0
 10
40.9519
 20
92.68729999999999
 30
0
 10
40.9519
 20
92.68729999999999
 30
0
 10
41.9149
 20
94.4472
 30
0
 10
42.7027
 20
95.8986
 30
0
 10
42.7027
 20
95.9126
 30
0
 10
42.7027
 20
95.9126
 30
0
 10
42.7027
 20
95.9263
 30
0
 10
42.3312
 20
95.92870000000001
 30
0
 10
41.877
 20
95.9177
 30
0
  0
SPLINE
  5
86
100
AcDbEntity
  8
layer 1
  6
ByLayer
 62
  242
370
   18
100
AcDbSpline
210
0
220
0
230
0
 70
    8
 71
    3
 72
    8
 73
    4
 74
    0
 42
1e-07
 43
1e-07
 40
0
 40
0
 40
0
 40
0
 40
1
 40
1
 40
1
 40
1
 10
41.877
 20
95.9177
 30
0
 10
41.877
 20
95.9177
 30
0
 10
41.0514
 20
95.8976
 30
0
 10
41.0514
 20
95.8976
 30
0
  0
SPLINE
  5
87
100
AcDbEntity
  8
layer 1
  6
ByLayer
 62
  242
370
   18
100
AcDbSpline
210
0
220
0
230
0
 70
    8
 71
    3
 72
    8
 73
    4
 74
    0
 42
1e-07
 43
1e-07
 40
0
 40
0
 40
0
 40
0
 40
1
 40
1
 40
1
 40
1
 10
41.0514
 20
95.8976
 30
0
 10
40.0059
 20
93.9264
 30
0
 10
38.9604
 20
91.95529999999999
 30
0
 10
37.9149
 20
89.9841
 30
0
  0
SPLINE
  5
88
100
AcDbEntity
  8
layer 1
  6
ByLayer
 62
  242
370
   18
100
AcDbSpline
210
0
220
0
230
0
 70
    8
 71
    3
 72
   12
 73
    8
 74
    0
 42
1e-07
 43
1e-07
 40
0
 40
0
 40
0
 40
0
 40
0.3333333333333333
 40
0.3333333333333333
 40
0.3333333333333333
 40
0.3333333333333333
 40
1
 40
1
 40
1
 40
1
 10
37.9149
 20
89.9841
 30
0
 10
37.9149
 20
89.9841
 30
0
 10
37.013
 20
89.9151
 30
0
 10
37.013
 20
89.9151
 30
0
 10
37.013
 20
89.9151
 30
0
 10
37.013
 20
89.9151
 30
0
 10
36.139
 20
89.87009999999999
 30
0
 10
36.139
 20
89.87009999999999
 30
0
  0
SPLINE
  5
89
100
AcDbEntity
  8
layer 1
  6
ByLayer
 62
  242
370
   18
100
AcDbSpline
210
0
220
0
230
0
 70
    8
 71
    3
 72
    8
 73
    4
 74
    0
 42
1e-07
 43
1e-07
 40
0
 40
0
 40
0
 40
0
 40
1
 40
1
 40
1
 40
1
 10
59.1028
 20
89.1527
 30
0
 10
59.1028
 20
89.1527
 30
0
 10
59.1028
 20
89.1529
 30
0
 10
59.1028
 20
89.1529
 30
0
  0
SPLINE
  5
8A
100
AcDbEntity
  8
layer 1
  6
ByLayer
 62
  242
370
   18
100
AcDbSpline
210
0
220
0
230
0
 70
    8
 71
    3
 72
   20
 73
   16
 74
    0
 42
1e-07
 43
1e-07
 40
0
 40
0
 40
0
 40
0
 40
0.2
 40
0.2
 40
0.2
 40
0.2
 40
0.4
 40
0.4
 40
0.4
 40
0.4
 40
0.6
 40
0.6
 40
0.6
 40
0.6
 40
1
 40
1
 40
1
 40
1
 10
59.1028
 20
89.1529
 30
0
 10
59.7493
 20
89.2461
 30
0
 10
60.2826
 20
89.5269
 30
0
 10
60.5727
 20
89.9267
 30
0
 10
60.5727
 20
89.9267
 30
0
 10
60.9502
 20
90.447
 30
0
 10
61.075
 20
90.97029999999999
 30
0
 10
61.0691
 20
92.0093
 30
0
 10
61.0691
 20
92.0093
 30
0
 10
61.0623
 20
93.1267
 30
0
 10
60.9147
 20
93.5812
 30
0
 10
60.3903
 20
94.0932
 30
0
 10
60.3903
 20
94.0932
 30
0
 10
59.848
 20
94.62269999999999
 30
0
 10
59.5699
 20
94.6795
 30
0
 10
57.5069
 20
94.6823
 30
0
  0
SPLINE
  5
8B
100
AcDbEntity
  8
layer 1
  6
ByLayer
 62
  242
370
   18
100
AcDbSpline
210
0
220
0
230
0
 70
    8
 71
    3
 72
   12
 73
    8
 74
    0
 42
1e-07
 43
1e-07
 40
0
 40
0
 40
0
 40
0
 40
0.3333333333333333
 40
0.3333333333333333
 40
0.3333333333333333
 40
0.3333333333333333
 40
1
 40
1
 40
1
 40
1
 10
57.5069
 20
94.6823
 30
0
 10
57.5069
 20
94.6823
 30
0
 10
55.7946
 20
94.6849
 30
0
 10
55.7946
 20
94.6849
 30
0
 10
55.7946
 20
94.6849
 30
0
 10
55.7946
 20
94.6849
 30
0
 10
55.7759
 20
91.974
 30
0
 10
55.7759
 20
91.974
 30
0
  0
SPLINE
  5
8C
100
AcDbEntity
  8
layer 1
  6
ByLayer
 62
  242
370
   18
100
AcDbSpline
210
0
220
0
230
0
 70
    8
 71
    3
 72
   12
 73
    8
 74
    0
 42
1e-07
 43
1e-07
 40
0
 40
0
 40
0
 40
0
 40
0.3333333333333333
 40
0.3333333333333333
 40
0.3333333333333333
 40
0.3333333333333333
 40
1
 40
1
 40
1
 40
1
 10
55.7759
 20
91.974
 30
0
 10
55.7656
 20
90.483
 30
0
 10
55.7725
 20
89.2229
 30
0
 10
55.7915
 20
89.1737
 30
0
 10
55.7915
 20
89.1737
 30
0
 10
55.8332
 20
89.06489999999999
 30
0
 10
58.3836
 20
89.0489
 30
0
 10
59.1028
 20
89.1529
 30
0
  0
SPLINE
  5
8D
100
AcDbEntity
  8
layer 1
  6
ByLayer
 62
  242
370
   18
100
AcDbSpline
210
0
220
0
230
0
 70
    8
 71
    3
 72
    8
 73
    4
 74
    0
 42
1e-07
 43
1e-07
 40
0
 40
0
 40
0
 40
0
 40
1
 40
1
 40
1
 40
1
 10
59.1028
 20
89.1529
 30
0
 10
59.1028
 20
89.1529
 30
0
 10
59.1028
 20
89.1527
 30
0
 10
59.1028
 20
89.1527
 30
0
  0
SPLINE
  5
8E
100
AcDbEntity
  8
layer 1
  6
ByLayer
 62
  242
370
   18
100
AcDbSpline
210
0
220
0
230
0
 70
    8
 71
    3
 72
   12
 73
    8
 74
    0
 42
1e-07
 43
1e-07
 40
0
 40
0
 40
0
 40
0
 40
0.3333333333333333
 40
0.3333333333333333
 40
0.3333333333333333
 40
0.3333333333333333
 40
1
 40
1
 40
1
 40
1
 10
31.1671
 20
83.693
 30
0
 10
31.1671
 20
83.693
 30
0
 10
31.4015
 20
82.8192
 30
0
 10
31.4015
 20
82.8192
 30
0
 10
31.4015
 20
82.8192
 30
0
 10
31.4015
 20
82.8192
 30
0
 10
32.1375
 20
82.819
 30
0
 10
32.1375
 20
82.819
 30
0
  0
SPLINE
  5
8F
100
AcDbEntity
  8
layer 1
  6
ByLayer
 62
  242
370
   18
100
AcDbSpline
210
0
220
0
230
0
 70
    8
 71
    3
 72
   24
 73
   20
 74
    0
 42
1e-07
 43
1e-07
 40
0
 40
0
 40
0
 40
0
 40
0.1666666666666667
 40
0.1666666666666667
 40
0.1666666666666667
 40
0.1666666666666667
 40
0.3333333333333333
 40
0.3333333333333333
 40
0.3333333333333333
 40
0.3333333333333333
 40
0.5
 40
0.5
 40
0.5
 40
0.5
 40
0.6666666666666666
 40
0.6666666666666666
 40
0.6666666666666666
 40
0.6666666666666666
 40
1
 40
1
 40
1
 40
1
 10
32.1375
 20
82.819
 30
0
 10
32.8049
 20
82.8188
 30
0
 10
32.8703
 20
82.8305
 30
0
 10
32.8375
 20
82.9436
 30
0
 10
32.8375
 20
82.9436
 30
0
 10
32.7605
 20
83.2089
 30
0
 10
29.5108
 20
95.87520000000001
 30
0
 10
29.5108
 20
95.9098
 30
0
 10
29.5108
 20
95.9098
 30
0
 10
29.5108
 20
95.9299
 30
0
 10
28.8548
 20
95.94629999999999
 30
0
 10
28.053
 20
95.94629999999999
 30
0
 10
28.053
 20
95.94629999999999
 30
0
 10
26.7267
 20
95.94629999999999
 30
0
 10
26.5918
 20
95.93510000000001
 30
0
 10
26.5572
 20
95.8215
 30
0
 10
26.5572
 20
95.8215
 30
0
 10
26.4409
 20
95.4404
 30
0
 10
23.2324
 20
82.9695
 30
0
 10
23.2324
 20
82.89870000000001
 30
0
  0
SPLINE
  5
90
100
AcDbEntity
  8
layer 1
  6
ByLayer
 62
  242
370
   18
100
AcDbSpline
210
0
220
0
230
0
 70
    8
 71
    3
 72
    8
 73
    4
 74
    0
 42
1e-07
 43
1e-07
 40
0
 40
0
 40
0
 40
0
 40
1
 40
1
 40
1
 40
1
 10
23.2324
 20
82.89870000000001
 30
0
 10
23.2324
 20
82.83750000000001
 30
0
 10
23.4336
 20
82.81950000000001
 30
0
 10
23.959
 20
82.8342
 30
0
  0
SPLINE
  5
91
100
AcDbEntity
  8
layer 1
  6
ByLayer
 62
  242
370
   18
100
AcDbSpline
210
0
220
0
230
0
 70
    8
 71
    3
 72
   12
 73
    8
 74
    0
 42
1e-07
 43
1e-07
 40
0
 40
0
 40
0
 40
0
 40
0.3333333333333333
 40
0.3333333333333333
 40
0.3333333333333333
 40
0.3333333333333333
 40
1
 40
1
 40
1
 40
1
 10
23.959
 20
82.8342
 30
0
 10
23.959
 20
82.8342
 30
0
 10
24.6855
 20
82.8545
 30
0
 10
24.6855
 20
82.8545
 30
0
 10
24.6855
 20
82.8545
 30
0
 10
24.6855
 20
82.8545
 30
0
 10
25.0658
 20
84.2457
 30
0
 10
25.0658
 20
84.2457
 30
0
  0
SPLINE
  5
92
100
AcDbEntity
  8
layer 1
  6
ByLayer
 62
  242
370
   18
100
AcDbSpline
210
0
220
0
230
0
 70
    8
 71
    3
 72
    8
 73
    4
 74
    0
 42
1e-07
 43
1e-07
 40
0
 40
0
 40
0
 40
0
 40
1
 40
1
 40
1
 40
1
 10
25.0658
 20
84.2457
 30
0
 10
25.2749
 20
85.01090000000001
 30
0
 10
25.4789
 20
85.7573
 30
0
 10
25.5192
 20
85.9045
 30
0
  0
SPLINE
  5
93
100
AcDbEntity
  8
layer 1
  6
ByLayer
 62
  242
370
   18
100
AcDbSpline
210
0
220
0
230
0
 70
    8
 71
    3
 72
   20
 73
   16
 74
    0
 42
1e-07
 43
1e-07
 40
0
 40
0
 40
0
 40
0
 40
0.2
 40
0.2
 40
0.2
 40
0.2
 40
0.4
 40
0.4
 40
0.4
 40
0.4
 40
0.6
 40
0.6
 40
0.6
 40
0.6
 40
1
 40
1
 40
1
 40
1
 10
25.5192
 20
85.9045
 30
0
 10
25.5192
 20
85.9045
 30
0
 10
25.5923
 20
86.172
 30
0
 10
25.5923
 20
86.172
 30
0
 10
25.5923
 20
86.172
 30
0
 10
25.5923
 20
86.172
 30
0
 10
28.0421
 20
86.172
 30
0
 10
28.0421
 20
86.172
 30
0
 10
28.0421
 20
86.172
 30
0
 10
28.0421
 20
86.172
 30
0
 10
30.4918
 20
86.172
 30
0
 10
30.4918
 20
86.172
 30
0
 10
30.4918
 20
86.172
 30
0
 10
30.4918
 20
86.172
 30
0
 10
30.7122
 20
85.3694
 30
0
 10
30.7122
 20
85.3694
 30
0
  0
SPLINE
  5
94
100
AcDbEntity
  8
layer 1
  6
ByLayer
 62
  242
370
   18
100
AcDbSpline
210
0
220
0
230
0
 70
    8
 71
    3
 72
    8
 73
    4
 74
    0
 42
1e-07
 43
1e-07
 40
0
 40
0
 40
0
 40
0
 40
1
 40
1
 40
1
 40
1
 10
30.7122
 20
85.3694
 30
0
 10
30.8335
 20
84.928
 30
0
 10
31.0381
 20
84.17359999999999
 30
0
 10
31.1671
 20
83.693
 30
0
  0
SPLINE
  5
95
100
AcDbEntity
  8
layer 1
  6
ByLayer
 62
  242
370
   18
100
AcDbSpline
210
0
220
0
230
0
 70
    8
 71
    3
 72
    8
 73
    4
 74
    0
 42
1e-07
 43
1e-07
 40
0
 40
0
 40
0
 40
0
 40
1
 40
1
 40
1
 40
1
 10
64.8652
 20
91.9836
 30
0
 10
64.8402
 20
92.1656
 30
0
 10
64.8198
 20
93.1448
 30
0
 10
64.8198
 20
94.1596
 30
0
  0
SPLINE
  5
96
100
AcDbEntity
  8
layer 1
  6
ByLayer
 62
  242
370
   18
100
AcDbSpline
210
0
220
0
230
0
 70
    8
 71
    3
 72
   20
 73
   16
 74
    0
 42
1e-07
 43
1e-07
 40
0
 40
0
 40
0
 40
0
 40
0.2
 40
0.2
 40
0.2
 40
0.2
 40
0.4
 40
0.4
 40
0.4
 40
0.4
 40
0.6
 40
0.6
 40
0.6
 40
0.6
 40
1
 40
1
 40
1
 40
1
 10
64.8198
 20
94.1596
 30
0
 10
64.8198
 20
94.1596
 30
0
 10
64.8198
 20
96.0046
 30
0
 10
64.8198
 20
96.0046
 30
0
 10
64.8198
 20
96.0046
 30
0
 10
64.8198
 20
96.0046
 30
0
 10
65.5089
 20
96.0046
 30
0
 10
65.5089
 20
96.0046
 30
0
 10
65.5089
 20
96.0046
 30
0
 10
65.5089
 20
96.0046
 30
0
 10
66.19799999999999
 20
96.0046
 30
0
 10
66.19799999999999
 20
96.0046
 30
0
 10
66.19799999999999
 20
96.0046
 30
0
 10
66.19799999999999
 20
96.0046
 30
0
 10
66.1512
 20
94.6669
 30
0
 10
66.1512
 20
94.6669
 30
0
  0
SPLINE
  5
97
100
AcDbEntity
  8
layer 1
  6
ByLayer
 62
  242
370
   18
100
AcDbSpline
210
0
220
0
230
0
 70
    8
 71
    3
 72
    8
 73
    4
 74
    0
 42
1e-07
 43
1e-07
 40
0
 40
0
 40
0
 40
0
 40
1
 40
1
 40
1
 40
1
 10
66.1512
 20
94.6669
 30
0
 10
66.1255
 20
93.9311
 30
0
 10
66.10429999999999
 20
92.95189999999999
 30
0
 10
66.10429999999999
 20
92.4909
 30
0
  0
SPLINE
  5
98
100
AcDbEntity
  8
layer 1
  6
ByLayer
 62
  242
370
   18
100
AcDbSpline
210
0
220
0
230
0
 70
    8
 71
    3
 72
   24
 73
   20
 74
    0
 42
1e-07
 43
1e-07
 40
0
 40
0
 40
0
 40
0
 40
0.1666666666666667
 40
0.1666666666666667
 40
0.1666666666666667
 40
0.1666666666666667
 40
0.3333333333333333
 40
0.3333333333333333
 40
0.3333333333333333
 40
0.3333333333333333
 40
0.5
 40
0.5
 40
0.5
 40
0.5
 40
0.6666666666666666
 40
0.6666666666666666
 40
0.6666666666666666
 40
0.6666666666666666
 40
1
 40
1
 40
1
 40
1
 10
66.10429999999999
 20
92.4909
 30
0
 10
66.10429999999999
 20
92.4909
 30
0
 10
66.10429999999999
 20
91.6525
 30
0
 10
66.10429999999999
 20
91.6525
 30
0
 10
66.10429999999999
 20
91.6525
 30
0
 10
66.10429999999999
 20
91.6525
 30
0
 10
65.50749999999999
 20
91.6525
 30
0
 10
65.50749999999999
 20
91.6525
 30
0
 10
65.50749999999999
 20
91.6525
 30
0
 10
65.50749999999999
 20
91.6525
 30
0
 10
64.91079999999999
 20
91.6525
 30
0
 10
64.91079999999999
 20
91.6525
 30
0
 10
64.91079999999999
 20
91.6525
 30
0
 10
64.91079999999999
 20
91.6525
 30
0
 10
64.86539999999999
 20
91.9836
 30
0
 10
64.86539999999999
 20
91.9836
 30
0
 10
64.86539999999999
 20
91.9836
 30
0
 10
64.86539999999999
 20
91.9836
 30
0
 10
64.8652
 20
91.9836
 30
0
 10
64.8652
 20
91.9836
 30
0
  0
SPLINE
  5
99
100
AcDbEntity
  8
layer 1
  6
ByLayer
 62
  242
370
   18
100
AcDbSpline
210
0
220
0
230
0
 70
    8
 71
    3
 72
    8
 73
    4
 74
    0
 42
1e-07
 43
1e-07
 40
0
 40
0
 40
0
 40
0
 40
1
 40
1
 40
1
 40
1
 10
79.8616
 20
99.1618
 30
0
 10
79.8305
 20
99.21080000000001
 30
0
 10
79.80459999999999
 20
98.7612
 30
0
 10
79.804
 20
98.1628
 30
0
  0
SPLINE
  5
9A
100
AcDbEntity
  8
layer 1
  6
ByLayer
 62
  242
370
   18
100
AcDbSpline
210
0
220
0
230
0
 70
    8
 71
    3
 72
   36
 73
   32
 74
    0
 42
1e-07
 43
1e-07
 40
0
 40
0
 40
0
 40
0
 40
0.1111111111111111
 40
0.1111111111111111
 40
0.1111111111111111
 40
0.1111111111111111
 40
0.2222222222222222
 40
0.2222222222222222
 40
0.2222222222222222
 40
0.2222222222222222
 40
0.3333333333333333
 40
0.3333333333333333
 40
0.3333333333333333
 40
0.3333333333333333
 40
0.4444444444444444
 40
0.4444444444444444
 40
0.4444444444444444
 40
0.4444444444444444
 40
0.5555555555555556
 40
0.5555555555555556
 40
0.5555555555555556
 40
0.5555555555555556
 40
0.6666666666666666
 40
0.6666666666666666
 40
0.6666666666666666
 40
0.6666666666666666
 40
0.7777777777777778
 40
0.7777777777777778
 40
0.7777777777777778
 40
0.7777777777777778
 40
1
 40
1
 40
1
 40
1
 10
79.804
 20
98.1628
 30
0
 10
79.804
 20
98.1628
 30
0
 10
79.8031
 20
97.0748
 30
0
 10
79.8031
 20
97.0748
 30
0
 10
79.8031
 20
97.0748
 30
0
 10
79.8031
 20
97.0748
 30
0
 10
79.5177
 20
97.0748
 30
0
 10
79.5177
 20
97.0748
 30
0
 10
79.5177
 20
97.0748
 30
0
 10
79.5177
 20
97.0748
 30
0
 10
79.2324
 20
97.0748
 30
0
 10
79.2324
 20
97.0748
 30
0
 10
79.2324
 20
97.0748
 30
0
 10
79.2324
 20
97.0748
 30
0
 10
79.2315
 20
98.648
 30
0
 10
79.2315
 20
98.648
 30
0
 10
79.2315
 20
98.648
 30
0
 10
79.2315
 20
98.648
 30
0
 10
79.2315
 20
100.2211
 30
0
 10
79.2315
 20
100.2211
 30
0
 10
79.2315
 20
100.2211
 30
0
 10
79.2315
 20
100.2211
 30
0
 10
79.6408
 20
100.1997
 30
0
 10
79.6408
 20
100.1997
 30
0
 10
79.6408
 20
100.1997
 30
0
 10
79.6408
 20
100.1997
 30
0
 10
80.05
 20
100.1783
 30
0
 10
80.05
 20
100.1783
 30
0
 10
80.05
 20
100.1783
 30
0
 10
80.05
 20
100.1783
 30
0
 10
80.3691
 20
99.16160000000001
 30
0
 10
80.3691
 20
99.16160000000001
 30
0
  0
SPLINE
  5
9B
100
AcDbEntity
  8
layer 1
  6
ByLayer
 62
  242
370
   18
100
AcDbSpline
210
0
220
0
230
0
 70
    8
 71
    3
 72
   12
 73
    8
 74
    0
 42
1e-07
 43
1e-07
 40
0
 40
0
 40
0
 40
0
 40
0.3333333333333333
 40
0.3333333333333333
 40
0.3333333333333333
 40
0.3333333333333333
 40
1
 40
1
 40
1
 40
1
 10
80.3691
 20
99.16160000000001
 30
0
 10
80.5446
 20
98.6024
 30
0
 10
80.7064
 20
98.145
 30
0
 10
80.7287
 20
98.145
 30
0
 10
80.7287
 20
98.145
 30
0
 10
80.7509
 20
98.145
 30
0
 10
80.92310000000001
 20
98.6105
 30
0
 10
81.1112
 20
99.1794
 30
0
  0
SPLINE
  5
9C
100
AcDbEntity
  8
layer 1
  6
ByLayer
 62
  242
370
   18
100
AcDbSpline
210
0
220
0
230
0
 70
    8
 71
    3
 72
   60
 73
   56
 74
    0
 42
1e-07
 43
1e-07
 40
0
 40
0
 40
0
 40
0
 40
0.06666666666666669
 40
0.06666666666666669
 40
0.06666666666666669
 40
0.06666666666666669
 40
0.1333333333333333
 40
0.1333333333333333
 40
0.1333333333333333
 40
0.1333333333333333
 40
0.2
 40
0.2
 40
0.2
 40
0.2
 40
0.2666666666666667
 40
0.2666666666666667
 40
0.2666666666666667
 40
0.2666666666666667
 40
0.3333333333333333
 40
0.3333333333333333
 40
0.3333333333333333
 40
0.3333333333333333
 40
0.4
 40
0.4
 40
0.4
 40
0.4
 40
0.4666666666666667
 40
0.4666666666666667
 40
0.4666666666666667
 40
0.4666666666666667
 40
0.5333333333333333
 40
0.5333333333333333
 40
0.5333333333333333
 40
0.5333333333333333
 40
0.6
 40
0.6
 40
0.6
 40
0.6
 40
0.6666666666666666
 40
0.6666666666666666
 40
0.6666666666666666
 40
0.6666666666666666
 40
0.7333333333333333
 40
0.7333333333333333
 40
0.7333333333333333
 40
0.7333333333333333
 40
0.8
 40
0.8
 40
0.8
 40
0.8
 40
0.8666666666666667
 40
0.8666666666666667
 40
0.8666666666666667
 40
0.8666666666666667
 40
1
 40
1
 40
1
 40
1
 10
81.1112
 20
99.1794
 30
0
 10
81.1112
 20
99.1794
 30
0
 10
81.4533
 20
100.214
 30
0
 10
81.4533
 20
100.214
 30
0
 10
81.4533
 20
100.214
 30
0
 10
81.4533
 20
100.214
 30
0
 10
81.8407
 20
100.214
 30
0
 10
81.8407
 20
100.214
 30
0
 10
81.8407
 20
100.214
 30
0
 10
81.8407
 20
100.214
 30
0
 10
82.2281
 20
100.214
 30
0
 10
82.2281
 20
100.214
 30
0
 10
82.2281
 20
100.214
 30
0
 10
82.2281
 20
100.214
 30
0
 10
82.2281
 20
98.6444
 30
0
 10
82.2281
 20
98.6444
 30
0
 10
82.2281
 20
98.6444
 30
0
 10
82.2281
 20
98.6444
 30
0
 10
82.2281
 20
97.0748
 30
0
 10
82.2281
 20
97.0748
 30
0
 10
82.2281
 20
97.0748
 30
0
 10
82.2281
 20
97.0748
 30
0
 10
81.9427
 20
97.0748
 30
0
 10
81.9427
 20
97.0748
 30
0
 10
81.9427
 20
97.0748
 30
0
 10
81.9427
 20
97.0748
 30
0
 10
81.65730000000001
 20
97.0748
 30
0
 10
81.65730000000001
 20
97.0748
 30
0
 10
81.65730000000001
 20
97.0748
 30
0
 10
81.65730000000001
 20
97.0748
 30
0
 10
81.6497
 20
98.1628
 30
0
 10
81.6497
 20
98.1628
 30
0
 10
81.6497
 20
98.1628
 30
0
 10
81.6497
 20
98.1628
 30
0
 10
81.6421
 20
99.2508
 30
0
 10
81.6421
 20
99.2508
 30
0
 10
81.6421
 20
99.2508
 30
0
 10
81.6421
 20
99.2508
 30
0
 10
81.3141
 20
98.2341
 30
0
 10
81.3141
 20
98.2341
 30
0
 10
81.3141
 20
98.2341
 30
0
 10
81.3141
 20
98.2341
 30
0
 10
80.986
 20
97.2174
 30
0
 10
80.986
 20
97.2174
 30
0
 10
80.986
 20
97.2174
 30
0
 10
80.986
 20
97.2174
 30
0
 10
80.7334
 20
97.2178
 30
0
 10
80.7334
 20
97.2178
 30
0
 10
80.7334
 20
97.2178
 30
0
 10
80.7334
 20
97.2178
 30
0
 10
80.4807
 20
97.2182
 30
0
 10
80.4807
 20
97.2182
 30
0
 10
80.4807
 20
97.2182
 30
0
 10
80.4807
 20
97.2182
 30
0
 10
80.1994
 20
98.1455
 30
0
 10
80.1994
 20
98.1455
 30
0
  0
SPLINE
  5
9D
100
AcDbEntity
  8
layer 1
  6
ByLayer
 62
  242
370
   18
100
AcDbSpline
210
0
220
0
230
0
 70
    8
 71
    3
 72
    8
 73
    4
 74
    0
 42
1e-07
 43
1e-07
 40
0
 40
0
 40
0
 40
0
 40
1
 40
1
 40
1
 40
1
 10
80.1994
 20
98.1455
 30
0
 10
80.04470000000001
 20
98.6555
 30
0
 10
79.8927
 20
99.1129
 30
0
 10
79.8616
 20
99.1618
 30
0
  0
SPLINE
  5
9E
100
AcDbEntity
  8
layer 1
  6
ByLayer
 62
  242
370
   18
100
AcDbSpline
210
0
220
0
230
0
 70
   11
 71
    3
 72
   24
 73
   20
 74
    0
 42
1e-07
 43
1e-07
 40
0
 40
0
 40
0
 40
0
 40
0.1666666666666667
 40
0.1666666666666667
 40
0.1666666666666667
 40
0.1666666666666667
 40
0.3333333333333333
 40
0.3333333333333333
 40
0.3333333333333333
 40
0.3333333333333333
 40
0.5
 40
0.5
 40
0.5
 40
0.5
 40
0.6666666666666666
 40
0.6666666666666666
 40
0.6666666666666666
 40
0.6666666666666666
 40
1
 40
1
 40
1
 40
1
 10
-26.7238
 20
58.5311
 30
0
 10
-26.8112
 20
58.3013
 30
0
 10
-27.1194
 20
58.2735
 30
0
 10
-27.2327
 20
58.4851
 30
0
 10
-27.2327
 20
58.4851
 30
0
 10
-27.348
 20
58.7006
 30
0
 10
-27.3363
 20
70.00920000000001
 30
0
 10
-27.2207
 20
70.12479999999999
 30
0
 10
-27.2207
 20
70.12479999999999
 30
0
 10
-27.0853
 20
70.2602
 30
0
 10
-26.8908
 20
70.22839999999999
 30
0
 10
-26.7661
 20
70.0504
 30
0
 10
-26.7661
 20
70.0504
 30
0
 10
-26.6659
 20
69.90730000000001
 30
0
 10
-26.6528
 20
69.2405
 30
0
 10
-26.6528
 20
64.3032
 30
0
 10
-26.6528
 20
64.3032
 30
0
 10
-26.6528
 20
60.8503
 30
0
 10
-26.6799
 20
58.6465
 30
0
 10
-26.7238
 20
58.5311
 30
0
  0
SPLINE
  5
9F
100
AcDbEntity
  8
layer 1
  6
ByLayer
 62
  242
370
   18
100
AcDbSpline
210
0
220
0
230
0
 70
    8
 71
    3
 72
   28
 73
   24
 74
    0
 42
1e-07
 43
1e-07
 40
0
 40
0
 40
0
 40
0
 40
0.1428571428571428
 40
0.1428571428571428
 40
0.1428571428571428
 40
0.1428571428571428
 40
0.2857142857142857
 40
0.2857142857142857
 40
0.2857142857142857
 40
0.2857142857142857
 40
0.4285714285714285
 40
0.4285714285714285
 40
0.4285714285714285
 40
0.4285714285714285
 40
0.5714285714285714
 40
0.5714285714285714
 40
0.5714285714285714
 40
0.5714285714285714
 40
0.7142857142857143
 40
0.7142857142857143
 40
0.7142857142857143
 40
0.7142857142857143
 40
1
 40
1
 40
1
 40
1
 10
-44.3897
 20
52.5907
 30
0
 10
-44.6395
 20
52.6917
 30
0
 10
-44.9977
 20
53.1837
 30
0
 10
-45.1163
 20
53.5889
 30
0
 10
-45.1163
 20
53.5889
 30
0
 10
-45.2097
 20
53.9079
 30
0
 10
-45.2149
 20
54.1287
 30
0
 10
-45.1499
 20
55.0087
 30
0
 10
-45.1499
 20
55.0087
 30
0
 10
-45.1075
 20
55.5818
 30
0
 10
-45.008
 20
57.2303
 30
0
 10
-44.9287
 20
58.6719
 30
0
 10
-44.9287
 20
58.6719
 30
0
 10
-44.7637
 20
61.672
 30
0
 10
-44.7292
 20
62.0929
 30
0
 10
-44.6266
 20
62.3595
 30
0
 10
-44.6266
 20
62.3595
 30
0
 10
-44.5503
 20
62.5578
 30
0
 10
-44.6629
 20
62.8837
 30
0
 10
-44.9021
 20
63.1575
 30
0
 10
-44.9021
 20
63.1575
 30
0
 10
-45.041
 20
63.3163
 30
0
 10
-44.9039
 20
63.4277
 30
0
 10
-44.4806
 20
63.5
 30
0
  0
SPLINE
  5
A0
100
AcDbEntity
  8
layer 1
  6
ByLayer
 62
  242
370
   18
100
AcDbSpline
210
0
220
0
230
0
 70
    8
 71
    3
 72
   12
 73
    8
 74
    0
 42
1e-07
 43
1e-07
 40
0
 40
0
 40
0
 40
0
 40
0.3333333333333333
 40
0.3333333333333333
 40
0.3333333333333333
 40
0.3333333333333333
 40
1
 40
1
 40
1
 40
1
 10
-44.4806
 20
63.5
 30
0
 10
-44.4806
 20
63.5
 30
0
 10
-44.1634
 20
63.5542
 30
0
 10
-44.1634
 20
63.5542
 30
0
 10
-44.1634
 20
63.5542
 30
0
 10
-44.1634
 20
63.5542
 30
0
 10
-44.1449
 20
70.6722
 30
0
 10
-44.1449
 20
70.6722
 30
0
  0
SPLINE
  5
A1
100
AcDbEntity
  8
layer 1
  6
ByLayer
 62
  242
370
   18
100
AcDbSpline
210
0
220
0
230
0
 70
    8
 71
    3
 72
   16
 73
   12
 74
    0
 42
1e-07
 43
1e-07
 40
0
 40
0
 40
0
 40
0
 40
0.25
 40
0.25
 40
0.25
 40
0.25
 40
0.5
 40
0.5
 40
0.5
 40
0.5
 40
1
 40
1
 40
1
 40
1
 10
-44.1449
 20
70.6722
 30
0
 10
-44.1284
 20
77.00960000000001
 30
0
 10
-44.1388
 20
77.81440000000001
 30
0
 10
-44.2402
 20
78.0104
 30
0
 10
-44.2402
 20
78.0104
 30
0
 10
-44.3365
 20
78.1968
 30
0
 10
-44.3418
 20
78.3164
 30
0
 10
-44.2746
 20
78.7902
 30
0
 10
-44.2746
 20
78.7902
 30
0
 10
-44.1438
 20
79.71210000000001
 30
0
 10
-44.1606
 20
79.67740000000001
 30
0
 10
-43.8451
 20
79.67740000000001
 30
0
  0
SPLINE
  5
A2
100
AcDbEntity
  8
layer 1
  6
ByLayer
 62
  242
370
   18
100
AcDbSpline
210
0
220
0
230
0
 70
    8
 71
    3
 72
   12
 73
    8
 74
    0
 42
1e-07
 43
1e-07
 40
0
 40
0
 40
0
 40
0
 40
0.3333333333333333
 40
0.3333333333333333
 40
0.3333333333333333
 40
0.3333333333333333
 40
1
 40
1
 40
1
 40
1
 10
-43.8451
 20
79.67740000000001
 30
0
 10
-43.8451
 20
79.67740000000001
 30
0
 10
-43.5661
 20
79.67740000000001
 30
0
 10
-43.5661
 20
79.67740000000001
 30
0
 10
-43.5661
 20
79.67740000000001
 30
0
 10
-43.5661
 20
79.67740000000001
 30
0
 10
-43.4756
 20
78.9312
 30
0
 10
-43.4756
 20
78.9312
 30
0
  0
SPLINE
  5
A3
100
AcDbEntity
  8
layer 1
  6
ByLayer
 62
  242
370
   18
100
AcDbSpline
210
0
220
0
230
0
 70
    8
 71
    3
 72
   12
 73
    8
 74
    0
 42
1e-07
 43
1e-07
 40
0
 40
0
 40
0
 40
0
 40
0.3333333333333333
 40
0.3333333333333333
 40
0.3333333333333333
 40
0.3333333333333333
 40
1
 40
1
 40
1
 40
1
 10
-43.4756
 20
78.9312
 30
0
 10
-43.4091
 20
78.3826
 30
0
 10
-43.4062
 20
78.1305
 30
0
 10
-43.4648
 20
77.9799
 30
0
 10
-43.4648
 20
77.9799
 30
0
 10
-43.5207
 20
77.8364
 30
0
 10
-43.5445
 20
75.6371
 30
0
 10
-43.5445
 20
70.6443
 30
0
  0
SPLINE
  5
A4
100
AcDbEntity
  8
layer 1
  6
ByLayer
 62
  242
370
   18
100
AcDbSpline
210
0
220
0
230
0
 70
    8
 71
    3
 72
   12
 73
    8
 74
    0
 42
1e-07
 43
1e-07
 40
0
 40
0
 40
0
 40
0
 40
0.3333333333333333
 40
0.3333333333333333
 40
0.3333333333333333
 40
0.3333333333333333
 40
1
 40
1
 40
1
 40
1
 10
-43.5445
 20
70.6443
 30
0
 10
-43.5445
 20
70.6443
 30
0
 10
-43.5445
 20
63.5138
 30
0
 10
-43.5445
 20
63.5138
 30
0
 10
-43.5445
 20
63.5138
 30
0
 10
-43.5445
 20
63.5138
 30
0
 10
-43.2715
 20
63.5133
 30
0
 10
-43.2715
 20
63.5133
 30
0
  0
SPLINE
  5
A5
100
AcDbEntity
  8
layer 1
  6
ByLayer
 62
  242
370
   18
100
AcDbSpline
210
0
220
0
230
0
 70
    8
 71
    3
 72
   24
 73
   20
 74
    0
 42
1e-07
 43
1e-07
 40
0
 40
0
 40
0
 40
0
 40
0.1666666666666667
 40
0.1666666666666667
 40
0.1666666666666667
 40
0.1666666666666667
 40
0.3333333333333333
 40
0.3333333333333333
 40
0.3333333333333333
 40
0.3333333333333333
 40
0.5
 40
0.5
 40
0.5
 40
0.5
 40
0.6666666666666666
 40
0.6666666666666666
 40
0.6666666666666666
 40
0.6666666666666666
 40
1
 40
1
 40
1
 40
1
 10
-43.2715
 20
63.5133
 30
0
 10
-42.66
 20
63.5125
 30
0
 10
-42.2485
 20
63.2763
 30
0
 10
-42.498
 20
63.0693
 30
0
 10
-42.498
 20
63.0693
 30
0
 10
-42.7535
 20
62.8572
 30
0
 10
-42.824
 20
62.5877
 30
0
 10
-42.7483
 20
62.1118
 30
0
 10
-42.7483
 20
62.1118
 30
0
 10
-42.6545
 20
61.5226
 30
0
 10
-42.4245
 20
54.0528
 30
0
 10
-42.4905
 20
53.7405
 30
0
 10
-42.4905
 20
53.7405
 30
0
 10
-42.5729
 20
53.3508
 30
0
 10
-42.8981
 20
52.8171
 30
0
 10
-43.1471
 20
52.6633
 30
0
 10
-43.1471
 20
52.6633
 30
0
 10
-43.3945
 20
52.5104
 30
0
 10
-44.0903
 20
52.4698
 30
0
 10
-44.3897
 20
52.5907
 30
0
  0
SPLINE
  5
A6
100
AcDbEntity
  8
layer 1
  6
ByLayer
 62
  242
370
   18
100
AcDbSpline
210
0
220
0
230
0
 70
    8
 71
    3
 72
    8
 73
    4
 74
    0
 42
1e-07
 43
1e-07
 40
0
 40
0
 40
0
 40
0
 40
1
 40
1
 40
1
 40
1
 10
-29.1772
 20
53.4478
 30
0
 10
-29.1772
 20
53.4478
 30
0
 10
-29.1771
 20
53.4478
 30
0
 10
-29.1771
 20
53.4478
 30
0
  0
SPLINE
  5
A7
100
AcDbEntity
  8
layer 1
  6
ByLayer
 62
  242
370
   18
100
AcDbSpline
210
0
220
0
230
0
 70
    8
 71
    3
 72
   12
 73
    8
 74
    0
 42
1e-07
 43
1e-07
 40
0
 40
0
 40
0
 40
0
 40
0.3333333333333333
 40
0.3333333333333333
 40
0.3333333333333333
 40
0.3333333333333333
 40
1
 40
1
 40
1
 40
1
 10
-29.1771
 20
53.4478
 30
0
 10
-29.5179
 20
53.8191
 30
0
 10
-29.8412
 20
54.5002
 30
0
 10
-29.9377
 20
55.0496
 30
0
 10
-29.9377
 20
55.0496
 30
0
 10
-30.1372
 20
56.186
 30
0
 10
-29.5196
 20
57.4936
 30
0
 10
-28.5017
 20
58.0901
 30
0
  0
SPLINE
  5
A8
100
AcDbEntity
  8
layer 1
  6
ByLayer
 62
  242
370
   18
100
AcDbSpline
210
0
220
0
230
0
 70
    8
 71
    3
 72
   20
 73
   16
 74
    0
 42
1e-07
 43
1e-07
 40
0
 40
0
 40
0
 40
0
 40
0.2
 40
0.2
 40
0.2
 40
0.2
 40
0.4
 40
0.4
 40
0.4
 40
0.4
 40
0.6
 40
0.6
 40
0.6
 40
0.6
 40
1
 40
1
 40
1
 40
1
 10
-28.5017
 20
58.0901
 30
0
 10
-28.5017
 20
58.0901
 30
0
 10
-28.1818
 20
58.2776
 30
0
 10
-28.1818
 20
58.2776
 30
0
 10
-28.1818
 20
58.2776
 30
0
 10
-28.1818
 20
58.2776
 30
0
 10
-28.1818
 20
64.7916
 30
0
 10
-28.1818
 20
64.7916
 30
0
 10
-28.1818
 20
64.7916
 30
0
 10
-28.1818
 20
64.7916
 30
0
 10
-28.1818
 20
71.3056
 30
0
 10
-28.1818
 20
71.3056
 30
0
 10
-28.1818
 20
71.3056
 30
0
 10
-28.1818
 20
71.3056
 30
0
 10
-28.6438
 20
71.76000000000001
 30
0
 10
-28.6438
 20
71.76000000000001
 30
0
  0
SPLINE
  5
A9
100
AcDbEntity
  8
layer 1
  6
ByLayer
 62
  242
370
   18
100
AcDbSpline
210
0
220
0
230
0
 70
    8
 71
    3
 72
   28
 73
   24
 74
    0
 42
1e-07
 43
1e-07
 40
0
 40
0
 40
0
 40
0
 40
0.1428571428571428
 40
0.1428571428571428
 40
0.1428571428571428
 40
0.1428571428571428
 40
0.2857142857142857
 40
0.2857142857142857
 40
0.2857142857142857
 40
0.2857142857142857
 40
0.4285714285714285
 40
0.4285714285714285
 40
0.4285714285714285
 40
0.4285714285714285
 40
0.5714285714285714
 40
0.5714285714285714
 40
0.5714285714285714
 40
0.5714285714285714
 40
0.7142857142857143
 40
0.7142857142857143
 40
0.7142857142857143
 40
0.7142857142857143
 40
1
 40
1
 40
1
 40
1
 10
-28.6438
 20
71.76000000000001
 30
0
 10
-29.2598
 20
72.3659
 30
0
 10
-29.447
 20
72.8373
 30
0
 10
-29.4026
 20
73.6707
 30
0
 10
-29.4026
 20
73.6707
 30
0
 10
-29.3788
 20
74.1185
 30
0
 10
-29.326
 20
74.3421
 30
0
 10
-29.1746
 20
74.6379
 30
0
 10
-29.1746
 20
74.6379
 30
0
 10
-28.7983
 20
75.3732
 30
0
 10
-28.1372
 20
75.8532
 30
0
 10
-27.3633
 20
75.9532
 30
0
 10
-27.3633
 20
75.9532
 30
0
 10
-26.9561
 20
76.00579999999999
 30
0
 10
-26.331
 20
75.9575
 30
0
 10
-26.2402
 20
75.86709999999999
 30
0
 10
-26.2402
 20
75.86709999999999
 30
0
 10
-26.1816
 20
75.8085
 30
0
 10
-27.2212
 20
74.8085
 30
0
 10
-27.3468
 20
74.8027
 30
0
 10
-27.3468
 20
74.8027
 30
0
 10
-27.388
 20
74.801
 30
0
 10
-27.6092
 20
74.6099
 30
0
 10
-27.8382
 20
74.3784
 30
0
  0
SPLINE
  5
AA
100
AcDbEntity
  8
layer 1
  6
ByLayer
 62
  242
370
   18
100
AcDbSpline
210
0
220
0
230
0
 70
    8
 71
    3
 72
   20
 73
   16
 74
    0
 42
1e-07
 43
1e-07
 40
0
 40
0
 40
0
 40
0
 40
0.2
 40
0.2
 40
0.2
 40
0.2
 40
0.4
 40
0.4
 40
0.4
 40
0.4
 40
0.6
 40
0.6
 40
0.6
 40
0.6
 40
1
 40
1
 40
1
 40
1
 10
-27.8382
 20
74.3784
 30
0
 10
-27.8382
 20
74.3784
 30
0
 10
-28.2546
 20
73.9577
 30
0
 10
-28.2546
 20
73.9577
 30
0
 10
-28.2546
 20
73.9577
 30
0
 10
-28.2546
 20
73.9577
 30
0
 10
-28.2536
 20
73.48650000000001
 30
0
 10
-28.2536
 20
73.48650000000001
 30
0
 10
-28.2536
 20
73.48650000000001
 30
0
 10
-28.2536
 20
73.48650000000001
 30
0
 10
-28.2527
 20
73.0154
 30
0
 10
-28.2527
 20
73.0154
 30
0
 10
-28.2527
 20
73.0154
 30
0
 10
-28.2527
 20
73.0154
 30
0
 10
-27.8583
 20
72.6695
 30
0
 10
-27.8583
 20
72.6695
 30
0
  0
SPLINE
  5
AB
100
AcDbEntity
  8
layer 1
  6
ByLayer
 62
  242
370
   18
100
AcDbSpline
210
0
220
0
230
0
 70
    8
 71
    3
 72
    8
 73
    4
 74
    0
 42
1e-07
 43
1e-07
 40
0
 40
0
 40
0
 40
0
 40
1
 40
1
 40
1
 40
1
 10
-27.8583
 20
72.6695
 30
0
 10
-27.4699
 20
72.3289
 30
0
 10
-27.4564
 20
72.3237
 30
0
 10
-26.9646
 20
72.3237
 30
0
  0
SPLINE
  5
AC
100
AcDbEntity
  8
layer 1
  6
ByLayer
 62
  242
370
   18
100
AcDbSpline
210
0
220
0
230
0
 70
    8
 71
    3
 72
   12
 73
    8
 74
    0
 42
1e-07
 43
1e-07
 40
0
 40
0
 40
0
 40
0
 40
0.3333333333333333
 40
0.3333333333333333
 40
0.3333333333333333
 40
0.3333333333333333
 40
1
 40
1
 40
1
 40
1
 10
-26.9646
 20
72.3237
 30
0
 10
-26.9646
 20
72.3237
 30
0
 10
-26.4652
 20
72.3237
 30
0
 10
-26.4652
 20
72.3237
 30
0
 10
-26.4652
 20
72.3237
 30
0
 10
-26.4652
 20
72.3237
 30
0
 10
-26.1221
 20
72.672
 30
0
 10
-26.1221
 20
72.672
 30
0
  0
SPLINE
  5
AD
100
AcDbEntity
  8
layer 1
  6
ByLayer
 62
  242
370
   18
100
AcDbSpline
210
0
220
0
230
0
 70
    8
 71
    3
 72
   20
 73
   16
 74
    0
 42
1e-07
 43
1e-07
 40
0
 40
0
 40
0
 40
0
 40
0.2
 40
0.2
 40
0.2
 40
0.2
 40
0.4
 40
0.4
 40
0.4
 40
0.4
 40
0.6
 40
0.6
 40
0.6
 40
0.6
 40
1
 40
1
 40
1
 40
1
 10
-26.1221
 20
72.672
 30
0
 10
-25.9334
 20
72.86360000000001
 30
0
 10
-25.7773
 20
73.0684
 30
0
 10
-25.7751
 20
73.1271
 30
0
 10
-25.7751
 20
73.1271
 30
0
 10
-25.7705
 20
73.2556
 30
0
 10
-24.6879
 20
74.15309999999999
 30
0
 10
-24.6018
 20
74.09990000000001
 30
0
 10
-24.6018
 20
74.09990000000001
 30
0
 10
-24.5685
 20
74.0793
 30
0
 10
-24.5413
 20
73.83629999999999
 30
0
 10
-24.5413
 20
73.5598
 30
0
 10
-24.5413
 20
73.5598
 30
0
 10
-24.5413
 20
72.8242
 30
0
 10
-24.7524
 20
72.3193
 30
0
 10
-25.2812
 20
71.79049999999999
 30
0
  0
SPLINE
  5
AE
100
AcDbEntity
  8
layer 1
  6
ByLayer
 62
  242
370
   18
100
AcDbSpline
210
0
220
0
230
0
 70
    8
 71
    3
 72
   20
 73
   16
 74
    0
 42
1e-07
 43
1e-07
 40
0
 40
0
 40
0
 40
0
 40
0.2
 40
0.2
 40
0.2
 40
0.2
 40
0.4
 40
0.4
 40
0.4
 40
0.4
 40
0.6
 40
0.6
 40
0.6
 40
0.6
 40
1
 40
1
 40
1
 40
1
 10
-25.2812
 20
71.79049999999999
 30
0
 10
-25.2812
 20
71.79049999999999
 30
0
 10
-25.7062
 20
71.3655
 30
0
 10
-25.7062
 20
71.3655
 30
0
 10
-25.7062
 20
71.3655
 30
0
 10
-25.7062
 20
71.3655
 30
0
 10
-25.7062
 20
64.8224
 30
0
 10
-25.7062
 20
64.8224
 30
0
 10
-25.7062
 20
64.8224
 30
0
 10
-25.7062
 20
64.8224
 30
0
 10
-25.7062
 20
58.2792
 30
0
 10
-25.7062
 20
58.2792
 30
0
 10
-25.7062
 20
58.2792
 30
0
 10
-25.7062
 20
58.2792
 30
0
 10
-25.3037
 20
58.0121
 30
0
 10
-25.3037
 20
58.0121
 30
0
  0
SPLINE
  5
AF
100
AcDbEntity
  8
layer 1
  6
ByLayer
 62
  242
370
   18
100
AcDbSpline
210
0
220
0
230
0
 70
    8
 71
    3
 72
   20
 73
   16
 74
    0
 42
1e-07
 43
1e-07
 40
0
 40
0
 40
0
 40
0
 40
0.2
 40
0.2
 40
0.2
 40
0.2
 40
0.4
 40
0.4
 40
0.4
 40
0.4
 40
0.6
 40
0.6
 40
0.6
 40
0.6
 40
1
 40
1
 40
1
 40
1
 10
-25.3037
 20
58.0121
 30
0
 10
-24.8142
 20
57.6872
 30
0
 10
-24.4659
 20
57.2744
 30
0
 10
-24.1974
 20
56.701
 30
0
 10
-24.1974
 20
56.701
 30
0
 10
-24.0166
 20
56.3149
 30
0
 10
-23.9952
 20
56.1883
 30
0
 10
-23.9952
 20
55.5047
 30
0
 10
-23.9952
 20
55.5047
 30
0
 10
-23.9952
 20
54.7988
 30
0
 10
-24.0127
 20
54.7033
 30
0
 10
-24.2237
 20
54.258
 30
0
 10
-24.2237
 20
54.258
 30
0
 10
-24.5071
 20
53.6597
 30
0
 10
-24.9302
 20
53.1748
 30
0
 10
-25.1686
 20
53.1748
 30
0
  0
SPLINE
  5
B0
100
AcDbEntity
  8
layer 1
  6
ByLayer
 62
  242
370
   18
100
AcDbSpline
210
0
220
0
230
0
 70
    8
 71
    3
 72
   20
 73
   16
 74
    0
 42
1e-07
 43
1e-07
 40
0
 40
0
 40
0
 40
0
 40
0.2
 40
0.2
 40
0.2
 40
0.2
 40
0.4
 40
0.4
 40
0.4
 40
0.4
 40
0.6
 40
0.6
 40
0.6
 40
0.6
 40
1
 40
1
 40
1
 40
1
 10
-25.1686
 20
53.1748
 30
0
 10
-25.1686
 20
53.1748
 30
0
 10
-25.3422
 20
53.1748
 30
0
 10
-25.3422
 20
53.1748
 30
0
 10
-25.3422
 20
53.1748
 30
0
 10
-25.3422
 20
53.1748
 30
0
 10
-25.3422
 20
54.1087
 30
0
 10
-25.3422
 20
54.1087
 30
0
 10
-25.3422
 20
54.1087
 30
0
 10
-25.3422
 20
54.1087
 30
0
 10
-25.3422
 20
55.0426
 30
0
 10
-25.3422
 20
55.0426
 30
0
 10
-25.3422
 20
55.0426
 30
0
 10
-25.3422
 20
55.0426
 30
0
 10
-26.1235
 20
55.6498
 30
0
 10
-26.1235
 20
55.6498
 30
0
  0
SPLINE
  5
B1
100
AcDbEntity
  8
layer 1
  6
ByLayer
 62
  242
370
   18
100
AcDbSpline
210
0
220
0
230
0
 70
    8
 71
    3
 72
   12
 73
    8
 74
    0
 42
1e-07
 43
1e-07
 40
0
 40
0
 40
0
 40
0
 40
0.3333333333333333
 40
0.3333333333333333
 40
0.3333333333333333
 40
0.3333333333333333
 40
1
 40
1
 40
1
 40
1
 10
-26.1235
 20
55.6498
 30
0
 10
-26.5533
 20
55.9838
 30
0
 10
-26.9392
 20
56.257
 30
0
 10
-26.981
 20
56.257
 30
0
 10
-26.981
 20
56.257
 30
0
 10
-27.0229
 20
56.257
 30
0
 10
-27.4076
 20
55.9813
 30
0
 10
-27.8361
 20
55.6442
 30
0
  0
SPLINE
  5
B2
100
AcDbEntity
  8
layer 1
  6
ByLayer
 62
  242
370
   18
100
AcDbSpline
210
0
220
0
230
0
 70
    8
 71
    3
 72
   12
 73
    8
 74
    0
 42
1e-07
 43
1e-07
 40
0
 40
0
 40
0
 40
0
 40
0.3333333333333333
 40
0.3333333333333333
 40
0.3333333333333333
 40
0.3333333333333333
 40
1
 40
1
 40
1
 40
1
 10
-27.8361
 20
55.6442
 30
0
 10
-27.8361
 20
55.6442
 30
0
 10
-28.615
 20
55.0314
 30
0
 10
-28.615
 20
55.0314
 30
0
 10
-28.615
 20
55.0314
 30
0
 10
-28.615
 20
55.0314
 30
0
 10
-28.6168
 20
54.1031
 30
0
 10
-28.6168
 20
54.1031
 30
0
  0
SPLINE
  5
B3
100
AcDbEntity
  8
layer 1
  6
ByLayer
 62
  242
370
   18
100
AcDbSpline
210
0
220
0
230
0
 70
    8
 71
    3
 72
   12
 73
    8
 74
    0
 42
1e-07
 43
1e-07
 40
0
 40
0
 40
0
 40
0
 40
0.3333333333333333
 40
0.3333333333333333
 40
0.3333333333333333
 40
0.3333333333333333
 40
1
 40
1
 40
1
 40
1
 10
-28.6168
 20
54.1031
 30
0
 10
-28.6185
 20
53.2071
 30
0
 10
-28.624
 20
53.1748
 30
0
 10
-28.7726
 20
53.1748
 30
0
 10
-28.7726
 20
53.1748
 30
0
 10
-28.8575
 20
53.1748
 30
0
 10
-29.0391
 20
53.2973
 30
0
 10
-29.1771
 20
53.4478
 30
0
  0
SPLINE
  5
B4
100
AcDbEntity
  8
layer 1
  6
ByLayer
 62
  242
370
   18
100
AcDbSpline
210
0
220
0
230
0
 70
    8
 71
    3
 72
    8
 73
    4
 74
    0
 42
1e-07
 43
1e-07
 40
0
 40
0
 40
0
 40
0
 40
1
 40
1
 40
1
 40
1
 10
-29.1771
 20
53.4478
 30
0
 10
-29.1771
 20
53.4478
 30
0
 10
-29.1772
 20
53.4478
 30
0
 10
-29.1772
 20
53.4478
 30
0
  0
SPLINE
  5
B5
100
AcDbEntity
  8
layer 1
  6
ByLayer
 62
  242
370
   18
100
AcDbSpline
210
0
220
0
230
0
 70
    8
 71
    3
 72
   20
 73
   16
 74
    0
 42
1e-07
 43
1e-07
 40
0
 40
0
 40
0
 40
0
 40
0.2
 40
0.2
 40
0.2
 40
0.2
 40
0.4
 40
0.4
 40
0.4
 40
0.4
 40
0.6
 40
0.6
 40
0.6
 40
0.6
 40
1
 40
1
 40
1
 40
1
 10
-40.6465
 20
69.40049999999999
 30
0
 10
-40.6465
 20
69.40049999999999
 30
0
 10
-42.9543
 20
71.4135
 30
0
 10
-42.9543
 20
71.4135
 30
0
 10
-42.9543
 20
71.4135
 30
0
 10
-42.9543
 20
71.4135
 30
0
 10
-42.9582
 20
72.64579999999999
 30
0
 10
-42.9582
 20
72.64579999999999
 30
0
 10
-42.9582
 20
72.64579999999999
 30
0
 10
-42.9582
 20
72.64579999999999
 30
0
 10
-42.962
 20
73.8781
 30
0
 10
-42.962
 20
73.8781
 30
0
 10
-42.962
 20
73.8781
 30
0
 10
-42.962
 20
73.8781
 30
0
 10
-42.7982
 20
73.7302
 30
0
 10
-42.7982
 20
73.7302
 30
0
  0
SPLINE
  5
B6
100
AcDbEntity
  8
layer 1
  6
ByLayer
 62
  242
370
   18
100
AcDbSpline
210
0
220
0
230
0
 70
    8
 71
    3
 72
   56
 73
   52
 74
    0
 42
1e-07
 43
1e-07
 40
0
 40
0
 40
0
 40
0
 40
0.0714285714285714
 40
0.0714285714285714
 40
0.0714285714285714
 40
0.0714285714285714
 40
0.1428571428571428
 40
0.1428571428571428
 40
0.1428571428571428
 40
0.1428571428571428
 40
0.2142857142857143
 40
0.2142857142857143
 40
0.2142857142857143
 40
0.2142857142857143
 40
0.2857142857142857
 40
0.2857142857142857
 40
0.2857142857142857
 40
0.2857142857142857
 40
0.3571428571428572
 40
0.3571428571428572
 40
0.3571428571428572
 40
0.3571428571428572
 40
0.4285714285714285
 40
0.4285714285714285
 40
0.4285714285714285
 40
0.4285714285714285
 40
0.5
 40
0.5
 40
0.5
 40
0.5
 40
0.5714285714285714
 40
0.5714285714285714
 40
0.5714285714285714
 40
0.5714285714285714
 40
0.6428571428571429
 40
0.6428571428571429
 40
0.6428571428571429
 40
0.6428571428571429
 40
0.7142857142857143
 40
0.7142857142857143
 40
0.7142857142857143
 40
0.7142857142857143
 40
0.7857142857142857
 40
0.7857142857142857
 40
0.7857142857142857
 40
0.7857142857142857
 40
0.8571428571428571
 40
0.8571428571428571
 40
0.8571428571428571
 40
0.8571428571428571
 40
1
 40
1
 40
1
 40
1
 10
-42.7982
 20
73.7302
 30
0
 10
-38.363
 20
69.7272
 30
0
 10
-34.8595
 20
66.7313
 30
0
 10
-34.1885
 20
66.3682
 30
0
 10
-34.1885
 20
66.3682
 30
0
 10
-34.0684
 20
66.3032
 30
0
 10
-33.7244
 20
66.23009999999999
 30
0
 10
-33.424
 20
66.20569999999999
 30
0
 10
-33.424
 20
66.20569999999999
 30
0
 10
-32.7794
 20
66.1534
 30
0
 10
-32.4028
 20
65.99039999999999
 30
0
 10
-32.0027
 20
65.5903
 30
0
 10
-32.0027
 20
65.5903
 30
0
 10
-31.6024
 20
65.19
 30
0
 10
-31.4352
 20
64.8083
 30
0
 10
-31.4278
 20
64.2782
 30
0
 10
-31.4278
 20
64.2782
 30
0
 10
-31.4219
 20
63.8537
 30
0
 10
-31.4275
 20
63.8407
 30
0
 10
-31.6227
 20
63.8183
 30
0
 10
-31.6227
 20
63.8183
 30
0
 10
-31.7819
 20
63.8
 30
0
 10
-31.9267
 20
63.8868
 30
0
 10
-32.3206
 20
64.23690000000001
 30
0
 10
-32.3206
 20
64.23690000000001
 30
0
 10
-32.594
 20
64.4799
 30
0
 10
-32.8533
 20
64.67870000000001
 30
0
 10
-32.8968
 20
64.67870000000001
 30
0
 10
-32.8968
 20
64.67870000000001
 30
0
 10
-33.0425
 20
64.67870000000001
 30
0
 10
-33.4427
 20
64.2877
 30
0
 10
-33.5431
 20
64.04730000000001
 30
0
 10
-33.5431
 20
64.04730000000001
 30
0
 10
-33.7164
 20
63.6327
 30
0
 10
-33.6721
 20
63.5108
 30
0
 10
-33.1602
 20
62.995
 30
0
 10
-33.1602
 20
62.995
 30
0
 10
-32.6992
 20
62.5305
 30
0
 10
-32.6848
 20
62.5054
 30
0
 10
-32.833
 20
62.4262
 30
0
 10
-32.833
 20
62.4262
 30
0
 10
-32.9182
 20
62.3805
 30
0
 10
-33.1926
 20
62.3259
 30
0
 10
-33.4426
 20
62.3048
 30
0
 10
-33.4426
 20
62.3048
 30
0
 10
-33.8163
 20
62.2732
 30
0
 10
-33.9526
 20
62.2946
 30
0
 10
-34.2076
 20
62.4248
 30
0
 10
-34.2076
 20
62.4248
 30
0
 10
-34.846
 20
62.7508
 30
0
 10
-35.2553
 20
63.4434
 30
0
 10
-35.367
 20
64.3869
 30
0
  0
SPLINE
  5
B7
100
AcDbEntity
  8
layer 1
  6
ByLayer
 62
  242
370
   18
100
AcDbSpline
210
0
220
0
230
0
 70
    8
 71
    3
 72
   12
 73
    8
 74
    0
 42
1e-07
 43
1e-07
 40
0
 40
0
 40
0
 40
0
 40
0.3333333333333333
 40
0.3333333333333333
 40
0.3333333333333333
 40
0.3333333333333333
 40
1
 40
1
 40
1
 40
1
 10
-35.367
 20
64.3869
 30
0
 10
-35.367
 20
64.3869
 30
0
 10
-35.4104
 20
64.7533
 30
0
 10
-35.4104
 20
64.7533
 30
0
 10
-35.4104
 20
64.7533
 30
0
 10
-35.4104
 20
64.7533
 30
0
 10
-36.8745
 20
66.07040000000001
 30
0
 10
-36.8745
 20
66.07040000000001
 30
0
  0
SPLINE
  5
B8
100
AcDbEntity
  8
layer 1
  6
ByLayer
 62
  242
370
   18
100
AcDbSpline
210
0
220
0
230
0
 70
    8
 71
    3
 72
    8
 73
    4
 74
    0
 42
1e-07
 43
1e-07
 40
0
 40
0
 40
0
 40
0
 40
1
 40
1
 40
1
 40
1
 10
-36.8745
 20
66.07040000000001
 30
0
 10
-37.6798
 20
66.7948
 30
0
 10
-39.3772
 20
68.2933
 30
0
 10
-40.6465
 20
69.40049999999999
 30
0
  0
SPLINE
  5
B9
100
AcDbEntity
  8
layer 1
  6
ByLayer
 62
  242
370
   18
100
AcDbSpline
210
0
220
0
230
0
 70
    8
 71
    3
 72
   16
 73
   12
 74
    0
 42
1e-07
 43
1e-07
 40
0
 40
0
 40
0
 40
0
 40
0.25
 40
0.25
 40
0.25
 40
0.25
 40
0.5
 40
0.5
 40
0.5
 40
0.5
 40
1
 40
1
 40
1
 40
1
 10
-38.2358
 20
63.5669
 30
0
 10
-38.9962
 20
64.2967
 30
0
 10
-39.1687
 20
64.5484
 30
0
 10
-39.0264
 20
64.71980000000001
 30
0
 10
-39.0264
 20
64.71980000000001
 30
0
 10
-38.9825
 20
64.7728
 30
0
 10
-38.7279
 20
64.88800000000001
 30
0
 10
-38.4606
 20
64.97580000000001
 30
0
 10
-38.4606
 20
64.97580000000001
 30
0
 10
-38.1933
 20
65.06359999999999
 30
0
 10
-37.8186
 20
65.2487
 30
0
 10
-37.628
 20
65.3871
 30
0
  0
SPLINE
  5
BA
100
AcDbEntity
  8
layer 1
  6
ByLayer
 62
  242
370
   18
100
AcDbSpline
210
0
220
0
230
0
 70
    8
 71
    3
 72
   12
 73
    8
 74
    0
 42
1e-07
 43
1e-07
 40
0
 40
0
 40
0
 40
0
 40
0.3333333333333333
 40
0.3333333333333333
 40
0.3333333333333333
 40
0.3333333333333333
 40
1
 40
1
 40
1
 40
1
 10
-37.628
 20
65.3871
 30
0
 10
-37.628
 20
65.3871
 30
0
 10
-37.2814
 20
65.6388
 30
0
 10
-37.2814
 20
65.6388
 30
0
 10
-37.2814
 20
65.6388
 30
0
 10
-37.2814
 20
65.6388
 30
0
 10
-36.7907
 20
65.2025
 30
0
 10
-36.7907
 20
65.2025
 30
0
  0
SPLINE
  5
BB
100
AcDbEntity
  8
layer 1
  6
ByLayer
 62
  242
370
   18
100
AcDbSpline
210
0
220
0
230
0
 70
    8
 71
    3
 72
    8
 73
    4
 74
    0
 42
1e-07
 43
1e-07
 40
0
 40
0
 40
0
 40
0
 40
1
 40
1
 40
1
 40
1
 10
-36.7907
 20
65.2025
 30
0
 10
-36.5208
 20
64.96259999999999
 30
0
 10
-36.2199
 20
64.6803
 30
0
 10
-36.1219
 20
64.57510000000001
 30
0
  0
SPLINE
  5
BC
100
AcDbEntity
  8
layer 1
  6
ByLayer
 62
  242
370
   18
100
AcDbSpline
210
0
220
0
230
0
 70
    8
 71
    3
 72
   12
 73
    8
 74
    0
 42
1e-07
 43
1e-07
 40
0
 40
0
 40
0
 40
0
 40
0.3333333333333333
 40
0.3333333333333333
 40
0.3333333333333333
 40
0.3333333333333333
 40
1
 40
1
 40
1
 40
1
 10
-36.1219
 20
64.57510000000001
 30
0
 10
-36.1219
 20
64.57510000000001
 30
0
 10
-35.9438
 20
64.384
 30
0
 10
-35.9438
 20
64.384
 30
0
 10
-35.9438
 20
64.384
 30
0
 10
-35.9438
 20
64.384
 30
0
 10
-36.4201
 20
63.9306
 30
0
 10
-36.4201
 20
63.9306
 30
0
  0
SPLINE
  5
BD
100
AcDbEntity
  8
layer 1
  6
ByLayer
 62
  242
370
   18
100
AcDbSpline
210
0
220
0
230
0
 70
    8
 71
    3
 72
   16
 73
   12
 74
    0
 42
1e-07
 43
1e-07
 40
0
 40
0
 40
0
 40
0
 40
0.25
 40
0.25
 40
0.25
 40
0.25
 40
0.5
 40
0.5
 40
0.5
 40
0.5
 40
1
 40
1
 40
1
 40
1
 10
-36.4201
 20
63.9306
 30
0
 10
-36.6821
 20
63.6812
 30
0
 10
-36.951
 20
63.3717
 30
0
 10
-37.0176
 20
63.2428
 30
0
 10
-37.0176
 20
63.2428
 30
0
 10
-37.1225
 20
63.04
 30
0
 10
-37.3307
 20
62.8584
 30
0
 10
-37.4584
 20
62.8584
 30
0
 10
-37.4584
 20
62.8584
 30
0
 10
-37.48
 20
62.8584
 30
0
 10
-37.8298
 20
63.1772
 30
0
 10
-38.2358
 20
63.5669
 30
0
  0
SPLINE
  5
BE
100
AcDbEntity
  8
layer 1
  6
ByLayer
 62
  242
370
   18
100
AcDbSpline
210
0
220
0
230
0
 70
    8
 71
    3
 72
   20
 73
   16
 74
    0
 42
1e-07
 43
1e-07
 40
0
 40
0
 40
0
 40
0
 40
0.2
 40
0.2
 40
0.2
 40
0.2
 40
0.4
 40
0.4
 40
0.4
 40
0.4
 40
0.6
 40
0.6
 40
0.6
 40
0.6
 40
1
 40
1
 40
1
 40
1
 10
-33.5675
 20
66.8497
 30
0
 10
-33.8232
 20
66.86799999999999
 30
0
 10
-33.9968
 20
66.9499
 30
0
 10
-34.3782
 20
67.23269999999999
 30
0
 10
-34.3782
 20
67.23269999999999
 30
0
 10
-35.1008
 20
67.7683
 30
0
 10
-35.092
 20
67.72329999999999
 30
0
 10
-34.5704
 20
68.2209
 30
0
 10
-34.5704
 20
68.2209
 30
0
 10
-33.9403
 20
68.822
 30
0
 10
-32.945
 20
69.639
 30
0
 10
-31.7266
 20
70.5551
 30
0
 10
-31.7266
 20
70.5551
 30
0
 10
-31.1585
 20
70.98220000000001
 30
0
 10
-30.4258
 20
71.5545
 30
0
 10
-30.0984
 20
71.82680000000001
 30
0
  0
SPLINE
  5
BF
100
AcDbEntity
  8
layer 1
  6
ByLayer
 62
  242
370
   18
100
AcDbSpline
210
0
220
0
230
0
 70
    8
 71
    3
 72
   12
 73
    8
 74
    0
 42
1e-07
 43
1e-07
 40
0
 40
0
 40
0
 40
0
 40
0.3333333333333333
 40
0.3333333333333333
 40
0.3333333333333333
 40
0.3333333333333333
 40
1
 40
1
 40
1
 40
1
 10
-30.0984
 20
71.82680000000001
 30
0
 10
-30.0984
 20
71.82680000000001
 30
0
 10
-29.5031
 20
72.3219
 30
0
 10
-29.5031
 20
72.3219
 30
0
 10
-29.5031
 20
72.3219
 30
0
 10
-29.5031
 20
72.3219
 30
0
 10
-29.3567
 20
72.08620000000001
 30
0
 10
-29.3567
 20
72.08620000000001
 30
0
  0
SPLINE
  5
C0
100
AcDbEntity
  8
layer 1
  6
ByLayer
 62
  242
370
   18
100
AcDbSpline
210
0
220
0
230
0
 70
    8
 71
    3
 72
    8
 73
    4
 74
    0
 42
1e-07
 43
1e-07
 40
0
 40
0
 40
0
 40
0
 40
1
 40
1
 40
1
 40
1
 10
-29.3567
 20
72.08620000000001
 30
0
 10
-29.2762
 20
71.95650000000001
 30
0
 10
-29.0819
 20
71.7255
 30
0
 10
-28.925
 20
71.5729
 30
0
  0
SPLINE
  5
C1
100
AcDbEntity
  8
layer 1
  6
ByLayer
 62
  242
370
   18
100
AcDbSpline
210
0
220
0
230
0
 70
    8
 71
    3
 72
   12
 73
    8
 74
    0
 42
1e-07
 43
1e-07
 40
0
 40
0
 40
0
 40
0
 40
0.3333333333333333
 40
0.3333333333333333
 40
0.3333333333333333
 40
0.3333333333333333
 40
1
 40
1
 40
1
 40
1
 10
-28.925
 20
71.5729
 30
0
 10
-28.925
 20
71.5729
 30
0
 10
-28.6398
 20
71.2955
 30
0
 10
-28.6398
 20
71.2955
 30
0
 10
-28.6398
 20
71.2955
 30
0
 10
-28.6398
 20
71.2955
 30
0
 10
-30.507
 20
69.4251
 30
0
 10
-30.507
 20
69.4251
 30
0
  0
SPLINE
  5
C2
100
AcDbEntity
  8
layer 1
  6
ByLayer
 62
  242
370
   18
100
AcDbSpline
210
0
220
0
230
0
 70
    8
 71
    3
 72
   12
 73
    8
 74
    0
 42
1e-07
 43
1e-07
 40
0
 40
0
 40
0
 40
0
 40
0.3333333333333333
 40
0.3333333333333333
 40
0.3333333333333333
 40
0.3333333333333333
 40
1
 40
1
 40
1
 40
1
 10
-30.507
 20
69.4251
 30
0
 10
-31.534
 20
68.3963
 30
0
 10
-32.5695
 20
67.3908
 30
0
 10
-32.8081
 20
67.1906
 30
0
 10
-32.8081
 20
67.1906
 30
0
 10
-33.2064
 20
66.8565
 30
0
 10
-33.2688
 20
66.82850000000001
 30
0
 10
-33.5675
 20
66.8497
 30
0
  0
SPLINE
  5
C3
100
AcDbEntity
  8
layer 1
  6
ByLayer
 62
  242
370
   18
100
AcDbSpline
210
0
220
0
230
0
 70
    8
 71
    3
 72
   68
 73
   64
 74
    0
 42
1e-07
 43
1e-07
 40
0
 40
0
 40
0
 40
0
 40
0.0588235294117647
 40
0.0588235294117647
 40
0.0588235294117647
 40
0.0588235294117647
 40
0.1176470588235294
 40
0.1176470588235294
 40
0.1176470588235294
 40
0.1176470588235294
 40
0.1764705882352941
 40
0.1764705882352941
 40
0.1764705882352941
 40
0.1764705882352941
 40
0.2352941176470588
 40
0.2352941176470588
 40
0.2352941176470588
 40
0.2352941176470588
 40
0.2941176470588235
 40
0.2941176470588235
 40
0.2941176470588235
 40
0.2941176470588235
 40
0.3529411764705883
 40
0.3529411764705883
 40
0.3529411764705883
 40
0.3529411764705883
 40
0.4117647058823529
 40
0.4117647058823529
 40
0.4117647058823529
 40
0.4117647058823529
 40
0.4705882352941176
 40
0.4705882352941176
 40
0.4705882352941176
 40
0.4705882352941176
 40
0.5294117647058824
 40
0.5294117647058824
 40
0.5294117647058824
 40
0.5294117647058824
 40
0.5882352941176471
 40
0.5882352941176471
 40
0.5882352941176471
 40
0.5882352941176471
 40
0.6470588235294118
 40
0.6470588235294118
 40
0.6470588235294118
 40
0.6470588235294118
 40
0.7058823529411765
 40
0.7058823529411765
 40
0.7058823529411765
 40
0.7058823529411765
 40
0.7647058823529411
 40
0.7647058823529411
 40
0.7647058823529411
 40
0.7647058823529411
 40
0.8235294117647058
 40
0.8235294117647058
 40
0.8235294117647058
 40
0.8235294117647058
 40
0.8823529411764706
 40
0.8823529411764706
 40
0.8823529411764706
 40
0.8823529411764706
 40
1
 40
1
 40
1
 40
1
 10
-21.1545
 20
72.8151
 30
0
 10
-21.3653
 20
73.3853
 30
0
 10
-21.7543
 20
74.0372
 30
0
 10
-22.1291
 20
74.4483
 30
0
 10
-22.1291
 20
74.4483
 30
0
 10
-22.3234
 20
74.6613
 30
0
 10
-22.5041
 20
74.905
 30
0
 10
-22.5307
 20
74.9898
 30
0
 10
-22.5307
 20
74.9898
 30
0
 10
-22.5574
 20
75.0746
 30
0
 10
-22.6423
 20
75.2012
 30
0
 10
-22.7195
 20
75.2711
 30
0
 10
-22.7195
 20
75.2711
 30
0
 10
-22.8537
 20
75.3925
 30
0
 10
-22.8837
 20
75.3882
 30
0
 10
-23.4043
 20
75.17140000000001
 30
0
 10
-23.4043
 20
75.17140000000001
 30
0
 10
-23.7037
 20
75.0468
 30
0
 10
-24.0201
 20
74.9448
 30
0
 10
-24.1073
 20
74.9448
 30
0
 10
-24.1073
 20
74.9448
 30
0
 10
-24.2736
 20
74.9448
 30
0
 10
-24.7469
 20
74.5916
 30
0
 10
-25.961
 20
73.56140000000001
 30
0
 10
-25.961
 20
73.56140000000001
 30
0
 10
-26.3622
 20
73.221
 30
0
 10
-26.7466
 20
72.89830000000001
 30
0
 10
-26.8153
 20
72.8442
 30
0
 10
-26.8153
 20
72.8442
 30
0
 10
-26.925
 20
72.75790000000001
 30
0
 10
-26.989
 20
72.7876
 30
0
 10
-27.3425
 20
73.08969999999999
 30
0
 10
-27.3425
 20
73.08969999999999
 30
0
 10
-27.6728
 20
73.37179999999999
 30
0
 10
-27.7449
 20
73.4747
 30
0
 10
-27.7449
 20
73.6631
 30
0
 10
-27.7449
 20
73.6631
 30
0
 10
-27.7449
 20
73.8583
 30
0
 10
-27.6655
 20
73.9602
 30
0
 10
-27.2137
 20
74.3449
 30
0
 10
-27.2137
 20
74.3449
 30
0
 10
-26.6852
 20
74.7948
 30
0
 10
-25.4478
 20
76.0557
 30
0
 10
-24.9964
 20
76.6044
 30
0
 10
-24.9964
 20
76.6044
 30
0
 10
-24.7116
 20
76.9504
 30
0
 10
-24.6858
 20
77.2944
 30
0
 10
-24.9097
 20
77.75700000000001
 30
0
 10
-24.9097
 20
77.75700000000001
 30
0
 10
-25.0186
 20
77.9819
 30
0
 10
-25.1446
 20
78.108
 30
0
 10
-25.3696
 20
78.2169
 30
0
 10
-25.3696
 20
78.2169
 30
0
 10
-25.54
 20
78.2993
 30
0
 10
-25.7128
 20
78.3668
 30
0
 10
-25.7535
 20
78.3668
 30
0
 10
-25.7535
 20
78.3668
 30
0
 10
-25.8716
 20
78.3668
 30
0
 10
-26.3616
 20
79.1251
 30
0
 10
-26.3616
 20
79.3078
 30
0
 10
-26.3616
 20
79.3078
 30
0
 10
-26.3616
 20
79.5431
 30
0
 10
-25.9374
 20
79.9372
 30
0
 10
-25.5636
 20
80.0492
 30
0
  0
SPLINE
  5
C4
100
AcDbEntity
  8
layer 1
  6
ByLayer
 62
  242
370
   18
100
AcDbSpline
210
0
220
0
230
0
 70
    8
 71
    3
 72
   12
 73
    8
 74
    0
 42
1e-07
 43
1e-07
 40
0
 40
0
 40
0
 40
0
 40
0.3333333333333333
 40
0.3333333333333333
 40
0.3333333333333333
 40
0.3333333333333333
 40
1
 40
1
 40
1
 40
1
 10
-25.5636
 20
80.0492
 30
0
 10
-25.5636
 20
80.0492
 30
0
 10
-25.2462
 20
80.1443
 30
0
 10
-25.2462
 20
80.1443
 30
0
 10
-25.2462
 20
80.1443
 30
0
 10
-25.2462
 20
80.1443
 30
0
 10
-24.9002
 20
79.7518
 30
0
 10
-24.9002
 20
79.7518
 30
0
  0
SPLINE
  5
C5
100
AcDbEntity
  8
layer 1
  6
ByLayer
 62
  242
370
   18
100
AcDbSpline
210
0
220
0
230
0
 70
    8
 71
    3
 72
   36
 73
   32
 74
    0
 42
1e-07
 43
1e-07
 40
0
 40
0
 40
0
 40
0
 40
0.1111111111111111
 40
0.1111111111111111
 40
0.1111111111111111
 40
0.1111111111111111
 40
0.2222222222222222
 40
0.2222222222222222
 40
0.2222222222222222
 40
0.2222222222222222
 40
0.3333333333333333
 40
0.3333333333333333
 40
0.3333333333333333
 40
0.3333333333333333
 40
0.4444444444444444
 40
0.4444444444444444
 40
0.4444444444444444
 40
0.4444444444444444
 40
0.5555555555555556
 40
0.5555555555555556
 40
0.5555555555555556
 40
0.5555555555555556
 40
0.6666666666666666
 40
0.6666666666666666
 40
0.6666666666666666
 40
0.6666666666666666
 40
0.7777777777777778
 40
0.7777777777777778
 40
0.7777777777777778
 40
0.7777777777777778
 40
1
 40
1
 40
1
 40
1
 10
-24.9002
 20
79.7518
 30
0
 10
-24.7098
 20
79.5359
 30
0
 10
-24.5372
 20
79.2752
 30
0
 10
-24.5166
 20
79.1725
 30
0
 10
-24.5166
 20
79.1725
 30
0
 10
-24.4959
 20
79.0698
 30
0
 10
-24.4018
 20
78.8711
 30
0
 10
-24.3073
 20
78.73090000000001
 30
0
 10
-24.3073
 20
78.73090000000001
 30
0
 10
-24.1631
 20
78.517
 30
0
 10
-24.0818
 20
78.46980000000001
 30
0
 10
-23.8009
 20
78.4372
 30
0
 10
-23.8009
 20
78.4372
 30
0
 10
-23.3314
 20
78.3828
 30
0
 10
-22.9246
 20
78.0737
 30
0
 10
-22.5133
 20
77.45869999999999
 30
0
 10
-22.5133
 20
77.45869999999999
 30
0
 10
-22.0893
 20
76.82470000000001
 30
0
 10
-21.4297
 20
75.5368
 30
0
 10
-21.1555
 20
74.8075
 30
0
 10
-21.1555
 20
74.8075
 30
0
 10
-20.9086
 20
74.1506
 30
0
 10
-20.4711
 20
72.5592
 30
0
 10
-20.5233
 20
72.50709999999999
 30
0
 10
-20.5233
 20
72.50709999999999
 30
0
 10
-20.544
 20
72.4863
 30
0
 10
-20.6658
 20
72.4693
 30
0
 10
-20.7939
 20
72.4693
 30
0
 10
-20.7939
 20
72.4693
 30
0
 10
-21.0051
 20
72.4693
 30
0
 10
-21.0385
 20
72.5012
 30
0
 10
-21.1545
 20
72.8151
 30
0
  0
SPLINE
  5
C6
100
AcDbEntity
  8
layer 1
  6
ByLayer
 62
  242
370
   18
100
AcDbSpline
210
0
220
0
230
0
 70
    8
 71
    3
 72
   20
 73
   16
 74
    0
 42
1e-07
 43
1e-07
 40
0
 40
0
 40
0
 40
0
 40
0.2
 40
0.2
 40
0.2
 40
0.2
 40
0.4
 40
0.4
 40
0.4
 40
0.4
 40
0.6
 40
0.6
 40
0.6
 40
0.6
 40
1
 40
1
 40
1
 40
1
 10
-44.9483
 20
75.74079999999999
 30
0
 10
-44.9483
 20
75.74079999999999
 30
0
 10
-44.706
 20
75.4811
 30
0
 10
-44.706
 20
75.4811
 30
0
 10
-44.706
 20
75.4811
 30
0
 10
-44.706
 20
75.4811
 30
0
 10
-44.7259
 20
74.2273
 30
0
 10
-44.7259
 20
74.2273
 30
0
 10
-44.7259
 20
74.2273
 30
0
 10
-44.7259
 20
74.2273
 30
0
 10
-44.7459
 20
72.9736
 30
0
 10
-44.7459
 20
72.9736
 30
0
 10
-44.7459
 20
72.9736
 30
0
 10
-44.7459
 20
72.9736
 30
0
 10
-45.656
 20
73.74890000000001
 30
0
 10
-45.656
 20
73.74890000000001
 30
0
  0
SPLINE
  5
C7
100
AcDbEntity
  8
layer 1
  6
ByLayer
 62
  242
370
   18
100
AcDbSpline
210
0
220
0
230
0
 70
    8
 71
    3
 72
   16
 73
   12
 74
    0
 42
1e-07
 43
1e-07
 40
0
 40
0
 40
0
 40
0
 40
0.25
 40
0.25
 40
0.25
 40
0.25
 40
0.5
 40
0.5
 40
0.5
 40
0.5
 40
1
 40
1
 40
1
 40
1
 10
-45.656
 20
73.74890000000001
 30
0
 10
-46.9052
 20
74.813
 30
0
 10
-46.8099
 20
74.7628
 30
0
 10
-47.5823
 20
74.7628
 30
0
 10
-47.5823
 20
74.7628
 30
0
 10
-48.1729
 20
74.7628
 30
0
 10
-48.2766
 20
74.7838
 30
0
 10
-48.5887
 20
74.96729999999999
 30
0
 10
-48.5887
 20
74.96729999999999
 30
0
 10
-49.1108
 20
75.27419999999999
 30
0
 10
-49.4641
 20
75.8456
 30
0
 10
-49.5022
 20
76.4448
 30
0
  0
SPLINE
  5
C8
100
AcDbEntity
  8
layer 1
  6
ByLayer
 62
  242
370
   18
100
AcDbSpline
210
0
220
0
230
0
 70
    8
 71
    3
 72
   12
 73
    8
 74
    0
 42
1e-07
 43
1e-07
 40
0
 40
0
 40
0
 40
0
 40
0.3333333333333333
 40
0.3333333333333333
 40
0.3333333333333333
 40
0.3333333333333333
 40
1
 40
1
 40
1
 40
1
 10
-49.5022
 20
76.4448
 30
0
 10
-49.5022
 20
76.4448
 30
0
 10
-49.5319
 20
76.91070000000001
 30
0
 10
-49.5319
 20
76.91070000000001
 30
0
 10
-49.5319
 20
76.91070000000001
 30
0
 10
-49.5319
 20
76.91070000000001
 30
0
 10
-49.2601
 20
76.91070000000001
 30
0
 10
-49.2601
 20
76.91070000000001
 30
0
  0
SPLINE
  5
C9
100
AcDbEntity
  8
layer 1
  6
ByLayer
 62
  242
370
   18
100
AcDbSpline
210
0
220
0
230
0
 70
    8
 71
    3
 72
    8
 73
    4
 74
    0
 42
1e-07
 43
1e-07
 40
0
 40
0
 40
0
 40
0
 40
1
 40
1
 40
1
 40
1
 10
-49.2601
 20
76.91070000000001
 30
0
 10
-49.0315
 20
76.91070000000001
 30
0
 10
-48.9108
 20
76.8419
 30
0
 10
-48.5
 20
76.4777
 30
0
  0
SPLINE
  5
CA
100
AcDbEntity
  8
layer 1
  6
ByLayer
 62
  242
370
   18
100
AcDbSpline
210
0
220
0
230
0
 70
    8
 71
    3
 72
   12
 73
    8
 74
    0
 42
1e-07
 43
1e-07
 40
0
 40
0
 40
0
 40
0
 40
0.3333333333333333
 40
0.3333333333333333
 40
0.3333333333333333
 40
0.3333333333333333
 40
1
 40
1
 40
1
 40
1
 10
-48.5
 20
76.4777
 30
0
 10
-48.5
 20
76.4777
 30
0
 10
-48.0116
 20
76.04470000000001
 30
0
 10
-48.0116
 20
76.04470000000001
 30
0
 10
-48.0116
 20
76.04470000000001
 30
0
 10
-48.0116
 20
76.04470000000001
 30
0
 10
-47.7843
 20
76.18300000000001
 30
0
 10
-47.7843
 20
76.18300000000001
 30
0
  0
SPLINE
  5
CB
100
AcDbEntity
  8
layer 1
  6
ByLayer
 62
  242
370
   18
100
AcDbSpline
210
0
220
0
230
0
 70
    8
 71
    3
 72
   12
 73
    8
 74
    0
 42
1e-07
 43
1e-07
 40
0
 40
0
 40
0
 40
0
 40
0.3333333333333333
 40
0.3333333333333333
 40
0.3333333333333333
 40
0.3333333333333333
 40
1
 40
1
 40
1
 40
1
 10
-47.7843
 20
76.18300000000001
 30
0
 10
-47.5007
 20
76.35550000000001
 30
0
 10
-47.3362
 20
76.6014
 30
0
 10
-47.2823
 20
76.93380000000001
 30
0
 10
-47.2823
 20
76.93380000000001
 30
0
 10
-47.2426
 20
77.1785
 30
0
 10
-47.2679
 20
77.21680000000001
 30
0
 10
-47.8135
 20
77.73699999999999
 30
0
  0
SPLINE
  5
CC
100
AcDbEntity
  8
layer 1
  6
ByLayer
 62
  242
370
   18
100
AcDbSpline
210
0
220
0
230
0
 70
    8
 71
    3
 72
   12
 73
    8
 74
    0
 42
1e-07
 43
1e-07
 40
0
 40
0
 40
0
 40
0
 40
0.3333333333333333
 40
0.3333333333333333
 40
0.3333333333333333
 40
0.3333333333333333
 40
1
 40
1
 40
1
 40
1
 10
-47.8135
 20
77.73699999999999
 30
0
 10
-47.8135
 20
77.73699999999999
 30
0
 10
-48.3864
 20
78.28319999999999
 30
0
 10
-48.3864
 20
78.28319999999999
 30
0
 10
-48.3864
 20
78.28319999999999
 30
0
 10
-48.3864
 20
78.28319999999999
 30
0
 10
-48.1679
 20
78.3695
 30
0
 10
-48.1679
 20
78.3695
 30
0
  0
SPLINE
  5
CD
100
AcDbEntity
  8
layer 1
  6
ByLayer
 62
  242
370
   18
100
AcDbSpline
210
0
220
0
230
0
 70
    8
 71
    3
 72
   16
 73
   12
 74
    0
 42
1e-07
 43
1e-07
 40
0
 40
0
 40
0
 40
0
 40
0.25
 40
0.25
 40
0.25
 40
0.25
 40
0.5
 40
0.5
 40
0.5
 40
0.5
 40
1
 40
1
 40
1
 40
1
 10
-48.1679
 20
78.3695
 30
0
 10
-47.8022
 20
78.5141
 30
0
 10
-47.048
 20
78.4807
 30
0
 10
-46.6731
 20
78.3034
 30
0
 10
-46.6731
 20
78.3034
 30
0
 10
-45.9186
 20
77.9465
 30
0
 10
-45.5722
 20
77.4931
 30
0
 10
-45.4435
 20
76.69370000000001
 30
0
 10
-45.4435
 20
76.69370000000001
 30
0
 10
-45.3666
 20
76.2161
 30
0
 10
-45.3349
 20
76.1551
 30
0
 10
-44.9483
 20
75.74079999999999
 30
0
  0
SPLINE
  5
CE
100
AcDbEntity
  8
layer 1
  6
ByLayer
 62
  242
370
   18
100
AcDbSpline
210
0
220
0
230
0
 70
    8
 71
    3
 72
    8
 73
    4
 74
    0
 42
1e-07
 43
1e-07
 40
0
 40
0
 40
0
 40
0
 40
1
 40
1
 40
1
 40
1
 10
-48.9999
 20
97.89530000000001
 30
0
 10
-48.9999
 20
97.89530000000001
 30
0
 10
-49.7488
 20
97.4988
 30
0
 10
-49.7488
 20
97.4988
 30
0
  0
SPLINE
  5
CF
100
AcDbEntity
  8
layer 1
  6
ByLayer
 62
  242
370
   18
100
AcDbSpline
210
0
220
0
230
0
 70
    8
 71
    3
 72
   24
 73
   20
 74
    0
 42
1e-07
 43
1e-07
 40
0
 40
0
 40
0
 40
0
 40
0.1666666666666667
 40
0.1666666666666667
 40
0.1666666666666667
 40
0.1666666666666667
 40
0.3333333333333333
 40
0.3333333333333333
 40
0.3333333333333333
 40
0.3333333333333333
 40
0.5
 40
0.5
 40
0.5
 40
0.5
 40
0.6666666666666666
 40
0.6666666666666666
 40
0.6666666666666666
 40
0.6666666666666666
 40
1
 40
1
 40
1
 40
1
 10
-49.7488
 20
97.4988
 30
0
 10
-50.4684
 20
97.11790000000001
 30
0
 10
-52.1361
 20
96.1396
 30
0
 10
-52.1361
 20
96.0984
 30
0
 10
-52.1361
 20
96.0984
 30
0
 10
-52.1361
 20
96.08750000000001
 30
0
 10
-51.8092
 20
95.80540000000001
 30
0
 10
-51.4098
 20
95.47150000000001
 30
0
 10
-51.4098
 20
95.47150000000001
 30
0
 10
-50.6065
 20
94.8001
 30
0
 10
-50.4766
 20
94.58929999999999
 30
0
 10
-50.635
 20
94.215
 30
0
 10
-50.635
 20
94.215
 30
0
 10
-50.7813
 20
93.86960000000001
 30
0
 10
-51.0137
 20
93.6966
 30
0
 10
-51.3317
 20
93.6966
 30
0
 10
-51.3317
 20
93.6966
 30
0
 10
-51.5585
 20
93.6966
 30
0
 10
-51.7914
 20
93.8184
 30
0
 10
-52.6347
 20
94.37779999999999
 30
0
  0
SPLINE
  5
D0
100
AcDbEntity
  8
layer 1
  6
ByLayer
 62
  242
370
   18
100
AcDbSpline
210
0
220
0
230
0
 70
    8
 71
    3
 72
   12
 73
    8
 74
    0
 42
1e-07
 43
1e-07
 40
0
 40
0
 40
0
 40
0
 40
0.3333333333333333
 40
0.3333333333333333
 40
0.3333333333333333
 40
0.3333333333333333
 40
1
 40
1
 40
1
 40
1
 10
-52.6347
 20
94.37779999999999
 30
0
 10
-52.6347
 20
94.37779999999999
 30
0
 10
-53.6616
 20
95.05889999999999
 30
0
 10
-53.6616
 20
95.05889999999999
 30
0
 10
-53.6616
 20
95.05889999999999
 30
0
 10
-53.6616
 20
95.05889999999999
 30
0
 10
-54.3368
 20
94.52679999999999
 30
0
 10
-54.3368
 20
94.52679999999999
 30
0
  0
SPLINE
  5
D1
100
AcDbEntity
  8
layer 1
  6
ByLayer
 62
  242
370
   18
100
AcDbSpline
210
0
220
0
230
0
 70
    8
 71
    3
 72
   24
 73
   20
 74
    0
 42
1e-07
 43
1e-07
 40
0
 40
0
 40
0
 40
0
 40
0.1666666666666667
 40
0.1666666666666667
 40
0.1666666666666667
 40
0.1666666666666667
 40
0.3333333333333333
 40
0.3333333333333333
 40
0.3333333333333333
 40
0.3333333333333333
 40
0.5
 40
0.5
 40
0.5
 40
0.5
 40
0.6666666666666666
 40
0.6666666666666666
 40
0.6666666666666666
 40
0.6666666666666666
 40
1
 40
1
 40
1
 40
1
 10
-54.3368
 20
94.52679999999999
 30
0
 10
-55.1993
 20
93.8472
 30
0
 10
-56.359
 20
92.8408
 30
0
 10
-56.359
 20
92.7719
 30
0
 10
-56.359
 20
92.7719
 30
0
 10
-56.359
 20
92.7428
 30
0
 10
-56.0395
 20
92.5324
 30
0
 10
-55.6491
 20
92.3045
 30
0
 10
-55.6491
 20
92.3045
 30
0
 10
-55.2587
 20
92.0766
 30
0
 10
-54.8781
 20
91.83710000000001
 30
0
 10
-54.8034
 20
91.7724
 30
0
 10
-54.8034
 20
91.7724
 30
0
 10
-54.3365
 20
91.3677
 30
0
 10
-54.6786
 20
90.5261
 30
0
 10
-55.31
 20
90.5261
 30
0
 10
-55.31
 20
90.5261
 30
0
 10
-55.4489
 20
90.5261
 30
0
 10
-56.0108
 20
90.72790000000001
 30
0
 10
-56.629
 20
90.99979999999999
 30
0
  0
SPLINE
  5
D2
100
AcDbEntity
  8
layer 1
  6
ByLayer
 62
  242
370
   18
100
AcDbSpline
210
0
220
0
230
0
 70
    8
 71
    3
 72
   12
 73
    8
 74
    0
 42
1e-07
 43
1e-07
 40
0
 40
0
 40
0
 40
0
 40
0.3333333333333333
 40
0.3333333333333333
 40
0.3333333333333333
 40
0.3333333333333333
 40
1
 40
1
 40
1
 40
1
 10
-56.629
 20
90.99979999999999
 30
0
 10
-56.629
 20
90.99979999999999
 30
0
 10
-57.706
 20
91.4734
 30
0
 10
-57.706
 20
91.4734
 30
0
 10
-57.706
 20
91.4734
 30
0
 10
-57.706
 20
91.4734
 30
0
 10
-58.1692
 20
90.9816
 30
0
 10
-58.1692
 20
90.9816
 30
0
  0
SPLINE
  5
D3
100
AcDbEntity
  8
layer 1
  6
ByLayer
 62
  242
370
   18
100
AcDbSpline
210
0
220
0
230
0
 70
    8
 71
    3
 72
   52
 73
   48
 74
    0
 42
1e-07
 43
1e-07
 40
0
 40
0
 40
0
 40
0
 40
0.0769230769230769
 40
0.0769230769230769
 40
0.0769230769230769
 40
0.0769230769230769
 40
0.1538461538461539
 40
0.1538461538461539
 40
0.1538461538461539
 40
0.1538461538461539
 40
0.2307692307692308
 40
0.2307692307692308
 40
0.2307692307692308
 40
0.2307692307692308
 40
0.3076923076923077
 40
0.3076923076923077
 40
0.3076923076923077
 40
0.3076923076923077
 40
0.3846153846153846
 40
0.3846153846153846
 40
0.3846153846153846
 40
0.3846153846153846
 40
0.4615384615384616
 40
0.4615384615384616
 40
0.4615384615384616
 40
0.4615384615384616
 40
0.5384615384615384
 40
0.5384615384615384
 40
0.5384615384615384
 40
0.5384615384615384
 40
0.6153846153846154
 40
0.6153846153846154
 40
0.6153846153846154
 40
0.6153846153846154
 40
0.6923076923076923
 40
0.6923076923076923
 40
0.6923076923076923
 40
0.6923076923076923
 40
0.7692307692307693
 40
0.7692307692307693
 40
0.7692307692307693
 40
0.7692307692307693
 40
0.8461538461538461
 40
0.8461538461538461
 40
0.8461538461538461
 40
0.8461538461538461
 40
1
 40
1
 40
1
 40
1
 10
-58.1692
 20
90.9816
 30
0
 10
-58.8281
 20
90.282
 30
0
 10
-60.0054
 20
88.83280000000001
 30
0
 10
-59.979
 20
88.75369999999999
 30
0
 10
-59.979
 20
88.75369999999999
 30
0
 10
-59.9668
 20
88.717
 30
0
 10
-59.5836
 20
88.5483
 30
0
 10
-59.1276
 20
88.3789
 30
0
 10
-59.1276
 20
88.3789
 30
0
 10
-58.278
 20
88.0634
 30
0
 10
-57.9608
 20
87.8338
 30
0
 10
-57.9608
 20
87.5346
 30
0
 10
-57.9608
 20
87.5346
 30
0
 10
-57.9608
 20
87.23650000000001
 30
0
 10
-58.17
 20
86.8877
 30
0
 10
-58.4205
 20
86.7683
 30
0
 10
-58.4205
 20
86.7683
 30
0
 10
-58.6616
 20
86.6533
 30
0
 10
-58.7096
 20
86.6589
 30
0
 10
-59.8792
 20
86.9387
 30
0
 10
-59.8792
 20
86.9387
 30
0
 10
-60.9785
 20
87.2015
 30
0
 10
-61.0977
 20
87.21729999999999
 30
0
 10
-61.1866
 20
87.1114
 30
0
 10
-61.1866
 20
87.1114
 30
0
 10
-61.5041
 20
86.7334
 30
0
 10
-62.9582
 20
84.21380000000001
 30
0
 10
-62.8952
 20
84.1508
 30
0
 10
-62.8952
 20
84.1508
 30
0
 10
-62.8768
 20
84.1324
 30
0
 10
-62.488
 20
84.04949999999999
 30
0
 10
-62.0313
 20
83.9666
 30
0
 10
-62.0313
 20
83.9666
 30
0
 10
-61.5745
 20
83.8837
 30
0
 10
-61.1199
 20
83.77760000000001
 30
0
 10
-61.0209
 20
83.7308
 30
0
 10
-61.0209
 20
83.7308
 30
0
 10
-60.4897
 20
83.4794
 30
0
 10
-60.6015
 20
82.5457
 30
0
 10
-61.1819
 20
82.38630000000001
 30
0
 10
-61.1819
 20
82.38630000000001
 30
0
 10
-61.3151
 20
82.3497
 30
0
 10
-61.7548
 20
82.3464
 30
0
 10
-62.1837
 20
82.37860000000001
 30
0
 10
-62.1837
 20
82.37860000000001
 30
0
 10
-62.6042
 20
82.41030000000001
 30
0
 10
-63.1312
 20
82.4376
 30
0
 10
-63.3547
 20
82.4402
 30
0
  0
SPLINE
  5
D4
100
AcDbEntity
  8
layer 1
  6
ByLayer
 62
  242
370
   18
100
AcDbSpline
210
0
220
0
230
0
 70
    8
 71
    3
 72
   12
 73
    8
 74
    0
 42
1e-07
 43
1e-07
 40
0
 40
0
 40
0
 40
0
 40
0.3333333333333333
 40
0.3333333333333333
 40
0.3333333333333333
 40
0.3333333333333333
 40
1
 40
1
 40
1
 40
1
 10
-63.3547
 20
82.4402
 30
0
 10
-63.3547
 20
82.4402
 30
0
 10
-63.7611
 20
82.44450000000001
 30
0
 10
-63.7611
 20
82.44450000000001
 30
0
 10
-63.7611
 20
82.44450000000001
 30
0
 10
-63.7611
 20
82.44450000000001
 30
0
 10
-64.07470000000001
 20
81.6618
 30
0
 10
-64.07470000000001
 20
81.6618
 30
0
  0
SPLINE
  5
D5
100
AcDbEntity
  8
layer 1
  6
ByLayer
 62
  242
370
   18
100
AcDbSpline
210
0
220
0
230
0
 70
    8
 71
    3
 72
    8
 73
    4
 74
    0
 42
1e-07
 43
1e-07
 40
0
 40
0
 40
0
 40
0
 40
1
 40
1
 40
1
 40
1
 10
-64.07470000000001
 20
81.6618
 30
0
 10
-64.4721
 20
80.6698
 30
0
 10
-64.9178
 20
79.4207
 30
0
 10
-64.98390000000001
 20
79.1134
 30
0
  0
SPLINE
  5
D6
100
AcDbEntity
  8
layer 1
  6
ByLayer
 62
  242
370
   18
100
AcDbSpline
210
0
220
0
230
0
 70
    8
 71
    3
 72
   20
 73
   16
 74
    0
 42
1e-07
 43
1e-07
 40
0
 40
0
 40
0
 40
0
 40
0.2
 40
0.2
 40
0.2
 40
0.2
 40
0.4
 40
0.4
 40
0.4
 40
0.4
 40
0.6
 40
0.6
 40
0.6
 40
0.6
 40
1
 40
1
 40
1
 40
1
 10
-64.98390000000001
 20
79.1134
 30
0
 10
-64.98390000000001
 20
79.1134
 30
0
 10
-65.03489999999999
 20
78.8768
 30
0
 10
-65.03489999999999
 20
78.8768
 30
0
 10
-65.03489999999999
 20
78.8768
 30
0
 10
-65.03489999999999
 20
78.8768
 30
0
 10
-64.0162
 20
78.8768
 30
0
 10
-64.0162
 20
78.8768
 30
0
 10
-64.0162
 20
78.8768
 30
0
 10
-64.0162
 20
78.8768
 30
0
 10
-62.9976
 20
78.8768
 30
0
 10
-62.9976
 20
78.8768
 30
0
 10
-62.9976
 20
78.8768
 30
0
 10
-62.9976
 20
78.8768
 30
0
 10
-62.8091
 20
78.6528
 30
0
 10
-62.8091
 20
78.6528
 30
0
  0
SPLINE
  5
D7
100
AcDbEntity
  8
layer 1
  6
ByLayer
 62
  242
370
   18
100
AcDbSpline
210
0
220
0
230
0
 70
    8
 71
    3
 72
   52
 73
   48
 74
    0
 42
1e-07
 43
1e-07
 40
0
 40
0
 40
0
 40
0
 40
0.0769230769230769
 40
0.0769230769230769
 40
0.0769230769230769
 40
0.0769230769230769
 40
0.1538461538461539
 40
0.1538461538461539
 40
0.1538461538461539
 40
0.1538461538461539
 40
0.2307692307692308
 40
0.2307692307692308
 40
0.2307692307692308
 40
0.2307692307692308
 40
0.3076923076923077
 40
0.3076923076923077
 40
0.3076923076923077
 40
0.3076923076923077
 40
0.3846153846153846
 40
0.3846153846153846
 40
0.3846153846153846
 40
0.3846153846153846
 40
0.4615384615384616
 40
0.4615384615384616
 40
0.4615384615384616
 40
0.4615384615384616
 40
0.5384615384615384
 40
0.5384615384615384
 40
0.5384615384615384
 40
0.5384615384615384
 40
0.6153846153846154
 40
0.6153846153846154
 40
0.6153846153846154
 40
0.6153846153846154
 40
0.6923076923076923
 40
0.6923076923076923
 40
0.6923076923076923
 40
0.6923076923076923
 40
0.7692307692307693
 40
0.7692307692307693
 40
0.7692307692307693
 40
0.7692307692307693
 40
0.8461538461538461
 40
0.8461538461538461
 40
0.8461538461538461
 40
0.8461538461538461
 40
1
 40
1
 40
1
 40
1
 10
-62.8091
 20
78.6528
 30
0
 10
-62.4963
 20
78.2811
 30
0
 10
-62.5852
 20
77.7072
 30
0
 10
-62.9891
 20
77.4911
 30
0
 10
-62.9891
 20
77.4911
 30
0
 10
-63.0675
 20
77.4491
 30
0
 10
-63.6592
 20
77.3524
 30
0
 10
-64.304
 20
77.2762
 30
0
 10
-64.304
 20
77.2762
 30
0
 10
-64.9487
 20
77.2
 30
0
 10
-65.4931
 20
77.1208
 30
0
 10
-65.5137
 20
77.1001
 30
0
 10
-65.5137
 20
77.1001
 30
0
 10
-65.63290000000001
 20
76.98090000000001
 30
0
 10
-66.18089999999999
 20
73.74850000000001
 30
0
 10
-66.0963
 20
73.6639
 30
0
 10
-66.0963
 20
73.6639
 30
0
 10
-66.07170000000001
 20
73.63930000000001
 30
0
 10
-65.6421
 20
73.6885
 30
0
 10
-65.14149999999999
 20
73.773
 30
0
 10
-65.14149999999999
 20
73.773
 30
0
 10
-64.12820000000001
 20
73.9442
 30
0
 10
-63.9313
 20
73.914
 30
0
 10
-63.7478
 20
73.5591
 30
0
 10
-63.7478
 20
73.5591
 30
0
 10
-63.6504
 20
73.3707
 30
0
 10
-63.6202
 20
73.3635
 30
0
 10
-62.3881
 20
73.2358
 30
0
 10
-62.3881
 20
73.2358
 30
0
 10
-61.695
 20
73.1639
 30
0
 10
-61.1007
 20
73.0806
 30
0
 10
-61.0672
 20
73.0505
 30
0
 10
-61.0672
 20
73.0505
 30
0
 10
-61.0338
 20
73.0206
 30
0
 10
-61.0915
 20
72.8612
 30
0
 10
-61.1955
 20
72.6964
 30
0
 10
-61.1955
 20
72.6964
 30
0
 10
-61.417
 20
72.3455
 30
0
 10
-61.3651
 20
72.35169999999999
 30
0
 10
-62.7451
 20
72.5117
 30
0
 10
-62.7451
 20
72.5117
 30
0
 10
-63.6585
 20
72.6174
 30
0
 10
-63.7572
 20
72.61709999999999
 30
0
 10
-64.0005
 20
72.5074
 30
0
 10
-64.0005
 20
72.5074
 30
0
 10
-64.14570000000001
 20
72.4419
 30
0
 10
-64.72199999999999
 20
72.25060000000001
 30
0
 10
-65.28100000000001
 20
72.0822
 30
0
  0
SPLINE
  5
D8
100
AcDbEntity
  8
layer 1
  6
ByLayer
 62
  242
370
   18
100
AcDbSpline
210
0
220
0
230
0
 70
    8
 71
    3
 72
   12
 73
    8
 74
    0
 42
1e-07
 43
1e-07
 40
0
 40
0
 40
0
 40
0
 40
0.3333333333333333
 40
0.3333333333333333
 40
0.3333333333333333
 40
0.3333333333333333
 40
1
 40
1
 40
1
 40
1
 10
-65.28100000000001
 20
72.0822
 30
0
 10
-65.28100000000001
 20
72.0822
 30
0
 10
-66.2975
 20
71.7761
 30
0
 10
-66.2975
 20
71.7761
 30
0
 10
-66.2975
 20
71.7761
 30
0
 10
-66.2975
 20
71.7761
 30
0
 10
-66.31699999999999
 20
69.9666
 30
0
 10
-66.31699999999999
 20
69.9666
 30
0
  0
SPLINE
  5
D9
100
AcDbEntity
  8
layer 1
  6
ByLayer
 62
  242
370
   18
100
AcDbSpline
210
0
220
0
230
0
 70
    8
 71
    3
 72
   24
 73
   20
 74
    0
 42
1e-07
 43
1e-07
 40
0
 40
0
 40
0
 40
0
 40
0.1666666666666667
 40
0.1666666666666667
 40
0.1666666666666667
 40
0.1666666666666667
 40
0.3333333333333333
 40
0.3333333333333333
 40
0.3333333333333333
 40
0.3333333333333333
 40
0.5
 40
0.5
 40
0.5
 40
0.5
 40
0.6666666666666666
 40
0.6666666666666666
 40
0.6666666666666666
 40
0.6666666666666666
 40
1
 40
1
 40
1
 40
1
 10
-66.31699999999999
 20
69.9666
 30
0
 10
-66.3353
 20
68.2611
 30
0
 10
-66.3291
 20
68.1601
 30
0
 10
-66.20780000000001
 20
68.2088
 30
0
 10
-66.20780000000001
 20
68.2088
 30
0
 10
-66.137
 20
68.2372
 30
0
 10
-65.70829999999999
 20
68.3935
 30
0
 10
-65.2552
 20
68.556
 30
0
 10
-65.2552
 20
68.556
 30
0
 10
-64.4472
 20
68.8458
 30
0
 10
-64.42659999999999
 20
68.84910000000001
 30
0
 10
-64.18129999999999
 20
68.73220000000001
 30
0
 10
-64.18129999999999
 20
68.73220000000001
 30
0
 10
-64.0437
 20
68.6666
 30
0
 10
-63.9312
 20
68.563
 30
0
 10
-63.9312
 20
68.50190000000001
 30
0
 10
-63.9312
 20
68.50190000000001
 30
0
 10
-63.9312
 20
68.4409
 30
0
 10
-64.1191
 20
68.09269999999999
 30
0
 10
-64.3489
 20
67.7283
 30
0
  0
SPLINE
  5
DA
100
AcDbEntity
  8
layer 1
  6
ByLayer
 62
  242
370
   18
100
AcDbSpline
210
0
220
0
230
0
 70
    8
 71
    3
 72
   12
 73
    8
 74
    0
 42
1e-07
 43
1e-07
 40
0
 40
0
 40
0
 40
0
 40
0.3333333333333333
 40
0.3333333333333333
 40
0.3333333333333333
 40
0.3333333333333333
 40
1
 40
1
 40
1
 40
1
 10
-64.3489
 20
67.7283
 30
0
 10
-64.3489
 20
67.7283
 30
0
 10
-64.7666
 20
67.0655
 30
0
 10
-64.7666
 20
67.0655
 30
0
 10
-64.7666
 20
67.0655
 30
0
 10
-64.7666
 20
67.0655
 30
0
 10
-65.4843
 20
66.7054
 30
0
 10
-65.4843
 20
66.7054
 30
0
  0
SPLINE
  5
DB
100
AcDbEntity
  8
layer 1
  6
ByLayer
 62
  242
370
   18
100
AcDbSpline
210
0
220
0
230
0
 70
    8
 71
    3
 72
   12
 73
    8
 74
    0
 42
1e-07
 43
1e-07
 40
0
 40
0
 40
0
 40
0
 40
0.3333333333333333
 40
0.3333333333333333
 40
0.3333333333333333
 40
0.3333333333333333
 40
1
 40
1
 40
1
 40
1
 10
-65.4843
 20
66.7054
 30
0
 10
-66.1176
 20
66.38760000000001
 30
0
 10
-66.1973
 20
66.3265
 30
0
 10
-66.1623
 20
66.1855
 30
0
 10
-66.1623
 20
66.1855
 30
0
 10
-66.1404
 20
66.0977
 30
0
 10
-66.10129999999999
 20
65.8128
 30
0
 10
-66.0753
 20
65.5526
 30
0
  0
SPLINE
  5
DC
100
AcDbEntity
  8
layer 1
  6
ByLayer
 62
  242
370
   18
100
AcDbSpline
210
0
220
0
230
0
 70
    8
 71
    3
 72
   12
 73
    8
 74
    0
 42
1e-07
 43
1e-07
 40
0
 40
0
 40
0
 40
0
 40
0.3333333333333333
 40
0.3333333333333333
 40
0.3333333333333333
 40
0.3333333333333333
 40
1
 40
1
 40
1
 40
1
 10
-66.0753
 20
65.5526
 30
0
 10
-66.0753
 20
65.5526
 30
0
 10
-66.02800000000001
 20
65.0793
 30
0
 10
-66.02800000000001
 20
65.0793
 30
0
 10
-66.02800000000001
 20
65.0793
 30
0
 10
-66.02800000000001
 20
65.0793
 30
0
 10
-69.58929999999999
 20
59.4729
 30
0
 10
-69.58929999999999
 20
59.4729
 30
0
  0
SPLINE
  5
DD
100
AcDbEntity
  8
layer 1
  6
ByLayer
 62
  242
370
   18
100
AcDbSpline
210
0
220
0
230
0
 70
    8
 71
    3
 72
   20
 73
   16
 74
    0
 42
1e-07
 43
1e-07
 40
0
 40
0
 40
0
 40
0
 40
0.2
 40
0.2
 40
0.2
 40
0.2
 40
0.4
 40
0.4
 40
0.4
 40
0.4
 40
0.6
 40
0.6
 40
0.6
 40
0.6
 40
1
 40
1
 40
1
 40
1
 10
-69.58929999999999
 20
59.4729
 30
0
 10
-71.548
 20
56.3894
 30
0
 10
-73.2706
 20
53.6519
 30
0
 10
-73.41719999999999
 20
53.3897
 30
0
 10
-73.41719999999999
 20
53.3897
 30
0
 10
-74.5804
 20
51.3097
 30
0
 10
-74.795
 20
49.1861
 30
0
 10
-74.0056
 20
47.5686
 30
0
 10
-74.0056
 20
47.5686
 30
0
 10
-73.48309999999999
 20
46.498
 30
0
 10
-72.3008
 20
45.5531
 30
0
 10
-70.9188
 20
45.1016
 30
0
 10
-70.9188
 20
45.1016
 30
0
 10
-69.6506
 20
44.6873
 30
0
 10
-70.07170000000001
 20
44.7051
 30
0
 10
-60.8258
 20
44.6768
 30
0
  0
SPLINE
  5
DE
100
AcDbEntity
  8
layer 1
  6
ByLayer
 62
  242
370
   18
100
AcDbSpline
210
0
220
0
230
0
 70
    8
 71
    3
 72
   20
 73
   16
 74
    0
 42
1e-07
 43
1e-07
 40
0
 40
0
 40
0
 40
0
 40
0.2
 40
0.2
 40
0.2
 40
0.2
 40
0.4
 40
0.4
 40
0.4
 40
0.4
 40
0.6
 40
0.6
 40
0.6
 40
0.6
 40
1
 40
1
 40
1
 40
1
 10
-60.8258
 20
44.6768
 30
0
 10
-60.8258
 20
44.6768
 30
0
 10
-52.2961
 20
44.6506
 30
0
 10
-52.2961
 20
44.6506
 30
0
 10
-52.2961
 20
44.6506
 30
0
 10
-52.2961
 20
44.6506
 30
0
 10
-52.3887
 20
44.2522
 30
0
 10
-52.3887
 20
44.2522
 30
0
 10
-52.3887
 20
44.2522
 30
0
 10
-52.3887
 20
44.2522
 30
0
 10
-52.4813
 20
43.8538
 30
0
 10
-52.4813
 20
43.8538
 30
0
 10
-52.4813
 20
43.8538
 30
0
 10
-52.4813
 20
43.8538
 30
0
 10
-51.4896
 20
43.2497
 30
0
 10
-51.4896
 20
43.2497
 30
0
  0
SPLINE
  5
DF
100
AcDbEntity
  8
layer 1
  6
ByLayer
 62
  242
370
   18
100
AcDbSpline
210
0
220
0
230
0
 70
    8
 71
    3
 72
    8
 73
    4
 74
    0
 42
1e-07
 43
1e-07
 40
0
 40
0
 40
0
 40
0
 40
1
 40
1
 40
1
 40
1
 10
-51.4896
 20
43.2497
 30
0
 10
-50.9441
 20
42.9174
 30
0
 10
-50.2454
 20
42.5082
 30
0
 10
-49.9369
 20
42.3403
 30
0
  0
SPLINE
  5
E0
100
AcDbEntity
  8
layer 1
  6
ByLayer
 62
  242
370
   18
100
AcDbSpline
210
0
220
0
230
0
 70
    8
 71
    3
 72
   12
 73
    8
 74
    0
 42
1e-07
 43
1e-07
 40
0
 40
0
 40
0
 40
0
 40
0.3333333333333333
 40
0.3333333333333333
 40
0.3333333333333333
 40
0.3333333333333333
 40
1
 40
1
 40
1
 40
1
 10
-49.9369
 20
42.3403
 30
0
 10
-49.9369
 20
42.3403
 30
0
 10
-49.3759
 20
42.035
 30
0
 10
-49.3759
 20
42.035
 30
0
 10
-49.3759
 20
42.035
 30
0
 10
-49.3759
 20
42.035
 30
0
 10
-49.3269
 20
42.3081
 30
0
 10
-49.3269
 20
42.3081
 30
0
  0
SPLINE
  5
E1
100
AcDbEntity
  8
layer 1
  6
ByLayer
 62
  242
370
   18
100
AcDbSpline
210
0
220
0
230
0
 70
    8
 71
    3
 72
   24
 73
   20
 74
    0
 42
1e-07
 43
1e-07
 40
0
 40
0
 40
0
 40
0
 40
0.1666666666666667
 40
0.1666666666666667
 40
0.1666666666666667
 40
0.1666666666666667
 40
0.3333333333333333
 40
0.3333333333333333
 40
0.3333333333333333
 40
0.3333333333333333
 40
0.5
 40
0.5
 40
0.5
 40
0.5
 40
0.6666666666666666
 40
0.6666666666666666
 40
0.6666666666666666
 40
0.6666666666666666
 40
1
 40
1
 40
1
 40
1
 10
-49.3269
 20
42.3081
 30
0
 10
-49.0669
 20
43.755
 30
0
 10
-49.0185
 20
43.941
 30
0
 10
-48.8574
 20
44.1125
 30
0
 10
-48.8574
 20
44.1125
 30
0
 10
-48.6156
 20
44.3698
 30
0
 10
-48.0814
 20
44.3677
 30
0
 10
-47.822
 20
44.1082
 30
0
 10
-47.822
 20
44.1082
 30
0
 10
-47.5724
 20
43.8586
 30
0
 10
-47.5601
 20
43.7433
 30
0
 10
-47.6426
 20
42.4317
 30
0
 10
-47.6426
 20
42.4317
 30
0
 10
-47.7023
 20
41.482
 30
0
 10
-47.6975
 20
41.2804
 30
0
 10
-47.6135
 20
41.2266
 30
0
 10
-47.6135
 20
41.2266
 30
0
 10
-47.4336
 20
41.1115
 30
0
 10
-45.6394
 20
40.4159
 30
0
 10
-44.8915
 20
40.1713
 30
0
  0
SPLINE
  5
E2
100
AcDbEntity
  8
layer 1
  6
ByLayer
 62
  242
370
   18
100
AcDbSpline
210
0
220
0
230
0
 70
    8
 71
    3
 72
   12
 73
    8
 74
    0
 42
1e-07
 43
1e-07
 40
0
 40
0
 40
0
 40
0
 40
0.3333333333333333
 40
0.3333333333333333
 40
0.3333333333333333
 40
0.3333333333333333
 40
1
 40
1
 40
1
 40
1
 10
-44.8915
 20
40.1713
 30
0
 10
-44.8915
 20
40.1713
 30
0
 10
-44.1634
 20
39.9333
 30
0
 10
-44.1634
 20
39.9333
 30
0
 10
-44.1634
 20
39.9333
 30
0
 10
-44.1634
 20
39.9333
 30
0
 10
-44.127
 20
40.9733
 30
0
 10
-44.127
 20
40.9733
 30
0
  0
SPLINE
  5
E3
100
AcDbEntity
  8
layer 1
  6
ByLayer
 62
  242
370
   18
100
AcDbSpline
210
0
220
0
230
0
 70
    8
 71
    3
 72
   60
 73
   56
 74
    0
 42
1e-07
 43
1e-07
 40
0
 40
0
 40
0
 40
0
 40
0.06666666666666669
 40
0.06666666666666669
 40
0.06666666666666669
 40
0.06666666666666669
 40
0.1333333333333333
 40
0.1333333333333333
 40
0.1333333333333333
 40
0.1333333333333333
 40
0.2
 40
0.2
 40
0.2
 40
0.2
 40
0.2666666666666667
 40
0.2666666666666667
 40
0.2666666666666667
 40
0.2666666666666667
 40
0.3333333333333333
 40
0.3333333333333333
 40
0.3333333333333333
 40
0.3333333333333333
 40
0.4
 40
0.4
 40
0.4
 40
0.4
 40
0.4666666666666667
 40
0.4666666666666667
 40
0.4666666666666667
 40
0.4666666666666667
 40
0.5333333333333333
 40
0.5333333333333333
 40
0.5333333333333333
 40
0.5333333333333333
 40
0.6
 40
0.6
 40
0.6
 40
0.6
 40
0.6666666666666666
 40
0.6666666666666666
 40
0.6666666666666666
 40
0.6666666666666666
 40
0.7333333333333333
 40
0.7333333333333333
 40
0.7333333333333333
 40
0.7333333333333333
 40
0.8
 40
0.8
 40
0.8
 40
0.8
 40
0.8666666666666667
 40
0.8666666666666667
 40
0.8666666666666667
 40
0.8666666666666667
 40
1
 40
1
 40
1
 40
1
 10
-44.127
 20
40.9733
 30
0
 10
-44.0872
 20
42.1118
 30
0
 10
-44.0586
 20
42.1926
 30
0
 10
-43.6479
 20
42.3281
 30
0
 10
-43.6479
 20
42.3281
 30
0
 10
-43.294
 20
42.4449
 30
0
 10
-42.9231
 20
42.3112
 30
0
 10
-42.7671
 20
42.0106
 30
0
 10
-42.7671
 20
42.0106
 30
0
 10
-42.6973
 20
41.8762
 30
0
 10
-42.5923
 20
41.3119
 30
0
 10
-42.5151
 20
40.6568
 30
0
 10
-42.5151
 20
40.6568
 30
0
 10
-42.4424
 20
40.039
 30
0
 10
-42.3575
 20
39.5095
 30
0
 10
-42.3266
 20
39.4802
 30
0
 10
-42.3266
 20
39.4802
 30
0
 10
-42.2378
 20
39.396
 30
0
 10
-39.2208
 20
38.8313
 30
0
 10
-38.8597
 20
38.8313
 30
0
 10
-38.8597
 20
38.8313
 30
0
 10
-38.8454
 20
38.8313
 30
0
 10
-38.9096
 20
39.2581
 30
0
 10
-39.0023
 20
39.7796
 30
0
 10
-39.0023
 20
39.7796
 30
0
 10
-39.1913
 20
40.8424
 30
0
 10
-39.1684
 20
41.0166
 30
0
 10
-38.8131
 20
41.2188
 30
0
 10
-38.8131
 20
41.2188
 30
0
 10
-38.6928
 20
41.2873
 30
0
 10
-38.5942
 20
41.3852
 30
0
 10
-38.594
 20
41.4366
 30
0
 10
-38.594
 20
41.4366
 30
0
 10
-38.5931
 20
41.6084
 30
0
 10
-38.2979
 20
44.3262
 30
0
 10
-38.2621
 20
44.4923
 30
0
 10
-38.2621
 20
44.4923
 30
0
 10
-38.2311
 20
44.6355
 30
0
 10
-38.1811
 20
44.6561
 30
0
 10
-37.864
 20
44.6561
 30
0
 10
-37.864
 20
44.6561
 30
0
 10
-37.6646
 20
44.6561
 30
0
 10
-37.5014
 20
44.6297
 30
0
 10
-37.5014
 20
44.5974
 30
0
 10
-37.5014
 20
44.5974
 30
0
 10
-37.5014
 20
44.5651
 30
0
 10
-37.5841
 20
43.7909
 30
0
 10
-37.6853
 20
42.8769
 30
0
 10
-37.6853
 20
42.8769
 30
0
 10
-37.8685
 20
41.2206
 30
0
 10
-37.8687
 20
41.2139
 30
0
 10
-37.7284
 20
40.9151
 30
0
 10
-37.7284
 20
40.9151
 30
0
 10
-37.651
 20
40.7501
 30
0
 10
-37.4618
 20
40.1825
 30
0
 10
-37.3079
 20
39.6537
 30
0
  0
SPLINE
  5
E4
100
AcDbEntity
  8
layer 1
  6
ByLayer
 62
  242
370
   18
100
AcDbSpline
210
0
220
0
230
0
 70
    8
 71
    3
 72
   12
 73
    8
 74
    0
 42
1e-07
 43
1e-07
 40
0
 40
0
 40
0
 40
0
 40
0.3333333333333333
 40
0.3333333333333333
 40
0.3333333333333333
 40
0.3333333333333333
 40
1
 40
1
 40
1
 40
1
 10
-37.3079
 20
39.6537
 30
0
 10
-37.3079
 20
39.6537
 30
0
 10
-37.0281
 20
38.6922
 30
0
 10
-37.0281
 20
38.6922
 30
0
 10
-37.0281
 20
38.6922
 30
0
 10
-37.0281
 20
38.6922
 30
0
 10
-36.7005
 20
38.6625
 30
0
 10
-36.7005
 20
38.6625
 30
0
  0
SPLINE
  5
E5
100
AcDbEntity
  8
layer 1
  6
ByLayer
 62
  242
370
   18
100
AcDbSpline
210
0
220
0
230
0
 70
    8
 71
    3
 72
   24
 73
   20
 74
    0
 42
1e-07
 43
1e-07
 40
0
 40
0
 40
0
 40
0
 40
0.1666666666666667
 40
0.1666666666666667
 40
0.1666666666666667
 40
0.1666666666666667
 40
0.3333333333333333
 40
0.3333333333333333
 40
0.3333333333333333
 40
0.3333333333333333
 40
0.5
 40
0.5
 40
0.5
 40
0.5
 40
0.6666666666666666
 40
0.6666666666666666
 40
0.6666666666666666
 40
0.6666666666666666
 40
1
 40
1
 40
1
 40
1
 10
-36.7005
 20
38.6625
 30
0
 10
-36.2334
 20
38.6203
 30
0
 10
-33.5164
 20
38.6418
 30
0
 10
-33.4702
 20
38.6881
 30
0
 10
-33.4702
 20
38.6881
 30
0
 10
-33.449
 20
38.7094
 30
0
 10
-33.5775
 20
39.1288
 30
0
 10
-33.7559
 20
39.62
 30
0
 10
-33.7559
 20
39.62
 30
0
 10
-33.9633
 20
40.1908
 30
0
 10
-34.0648
 20
40.5751
 30
0
 10
-34.0373
 20
40.6848
 30
0
 10
-34.0373
 20
40.6848
 30
0
 10
-33.9287
 20
41.1171
 30
0
 10
-33.2538
 20
41.3779
 30
0
 10
-32.8789
 20
41.1323
 30
0
 10
-32.8789
 20
41.1323
 30
0
 10
-32.7619
 20
41.0556
 30
0
 10
-32.4944
 20
40.6115
 30
0
 10
-32.1449
 20
39.9137
 30
0
  0
SPLINE
  5
E6
100
AcDbEntity
  8
layer 1
  6
ByLayer
 62
  242
370
   18
100
AcDbSpline
210
0
220
0
230
0
 70
    8
 71
    3
 72
   12
 73
    8
 74
    0
 42
1e-07
 43
1e-07
 40
0
 40
0
 40
0
 40
0
 40
0.3333333333333333
 40
0.3333333333333333
 40
0.3333333333333333
 40
0.3333333333333333
 40
1
 40
1
 40
1
 40
1
 10
-32.1449
 20
39.9137
 30
0
 10
-32.1449
 20
39.9137
 30
0
 10
-31.595
 20
38.8158
 30
0
 10
-31.595
 20
38.8158
 30
0
 10
-31.595
 20
38.8158
 30
0
 10
-31.595
 20
38.8158
 30
0
 10
-31.1808
 20
38.8639
 30
0
 10
-31.1808
 20
38.8639
 30
0
  0
SPLINE
  5
E7
100
AcDbEntity
  8
layer 1
  6
ByLayer
 62
  242
370
   18
100
AcDbSpline
210
0
220
0
230
0
 70
    8
 71
    3
 72
    8
 73
    4
 74
    0
 42
1e-07
 43
1e-07
 40
0
 40
0
 40
0
 40
0
 40
1
 40
1
 40
1
 40
1
 10
-31.1808
 20
38.8639
 30
0
 10
-30.5209
 20
38.9407
 30
0
 10
-28.6353
 20
39.2723
 30
0
 10
-28.3295
 20
39.3653
 30
0
  0
SPLINE
  5
E8
100
AcDbEntity
  8
layer 1
  6
ByLayer
 62
  242
370
   18
100
AcDbSpline
210
0
220
0
230
0
 70
    8
 71
    3
 72
   12
 73
    8
 74
    0
 42
1e-07
 43
1e-07
 40
0
 40
0
 40
0
 40
0
 40
0.3333333333333333
 40
0.3333333333333333
 40
0.3333333333333333
 40
0.3333333333333333
 40
1
 40
1
 40
1
 40
1
 10
-28.3295
 20
39.3653
 30
0
 10
-28.3295
 20
39.3653
 30
0
 10
-28.0502
 20
39.4503
 30
0
 10
-28.0502
 20
39.4503
 30
0
 10
-28.0502
 20
39.4503
 30
0
 10
-28.0502
 20
39.4503
 30
0
 10
-28.5149
 20
40.2512
 30
0
 10
-28.5149
 20
40.2512
 30
0
  0
SPLINE
  5
E9
100
AcDbEntity
  8
layer 1
  6
ByLayer
 62
  242
370
   18
100
AcDbSpline
210
0
220
0
230
0
 70
    8
 71
    3
 72
   24
 73
   20
 74
    0
 42
1e-07
 43
1e-07
 40
0
 40
0
 40
0
 40
0
 40
0.1666666666666667
 40
0.1666666666666667
 40
0.1666666666666667
 40
0.1666666666666667
 40
0.3333333333333333
 40
0.3333333333333333
 40
0.3333333333333333
 40
0.3333333333333333
 40
0.5
 40
0.5
 40
0.5
 40
0.5
 40
0.6666666666666666
 40
0.6666666666666666
 40
0.6666666666666666
 40
0.6666666666666666
 40
1
 40
1
 40
1
 40
1
 10
-28.5149
 20
40.2512
 30
0
 10
-29.0556
 20
41.183
 30
0
 10
-29.097
 20
41.4223
 30
0
 10
-28.7736
 20
41.7457
 30
0
 10
-28.7736
 20
41.7457
 30
0
 10
-28.6586
 20
41.8607
 30
0
 10
-28.4749
 20
41.9773
 30
0
 10
-28.3654
 20
42.0048
 30
0
 10
-28.3654
 20
42.0048
 30
0
 10
-27.9973
 20
42.0971
 30
0
 10
-27.7491
 20
41.8905
 30
0
 10
-27.0168
 20
40.8823
 30
0
 10
-27.0168
 20
40.8823
 30
0
 10
-26.6364
 20
40.3584
 30
0
 10
-26.2746
 20
39.9285
 30
0
 10
-26.2129
 20
39.9268
 30
0
 10
-26.2129
 20
39.9268
 30
0
 10
-26.0641
 20
39.9226
 30
0
 10
-24.387
 20
40.4906
 30
0
 10
-23.5431
 20
40.831
 30
0
  0
SPLINE
  5
EA
100
AcDbEntity
  8
layer 1
  6
ByLayer
 62
  242
370
   18
100
AcDbSpline
210
0
220
0
230
0
 70
    8
 71
    3
 72
   12
 73
    8
 74
    0
 42
1e-07
 43
1e-07
 40
0
 40
0
 40
0
 40
0
 40
0.3333333333333333
 40
0.3333333333333333
 40
0.3333333333333333
 40
0.3333333333333333
 40
1
 40
1
 40
1
 40
1
 10
-23.5431
 20
40.831
 30
0
 10
-23.5431
 20
40.831
 30
0
 10
-22.8724
 20
41.1015
 30
0
 10
-22.8724
 20
41.1015
 30
0
 10
-22.8724
 20
41.1015
 30
0
 10
-22.8724
 20
41.1015
 30
0
 10
-23.4914
 20
41.8404
 30
0
 10
-23.4914
 20
41.8404
 30
0
  0
SPLINE
  5
EB
100
AcDbEntity
  8
layer 1
  6
ByLayer
 62
  242
370
   18
100
AcDbSpline
210
0
220
0
230
0
 70
    8
 71
    3
 72
   20
 73
   16
 74
    0
 42
1e-07
 43
1e-07
 40
0
 40
0
 40
0
 40
0
 40
0.2
 40
0.2
 40
0.2
 40
0.2
 40
0.4
 40
0.4
 40
0.4
 40
0.4
 40
0.6
 40
0.6
 40
0.6
 40
0.6
 40
1
 40
1
 40
1
 40
1
 10
-23.4914
 20
41.8404
 30
0
 10
-23.8318
 20
42.2468
 30
0
 10
-24.1302
 20
42.6583
 30
0
 10
-24.1545
 20
42.755
 30
0
 10
-24.1545
 20
42.755
 30
0
 10
-24.2459
 20
43.1192
 30
0
 10
-23.7783
 20
43.6369
 30
0
 10
-23.3579
 20
43.6369
 30
0
 10
-23.3579
 20
43.6369
 30
0
 10
-23.1411
 20
43.6369
 30
0
 10
-22.7345
 20
43.3445
 30
0
 10
-22.2478
 20
42.8385
 30
0
 10
-22.2478
 20
42.8385
 30
0
 10
-22.0476
 20
42.6304
 30
0
 10
-21.7283
 20
42.3289
 30
0
 10
-21.5383
 20
42.1683
 30
0
  0
SPLINE
  5
EC
100
AcDbEntity
  8
layer 1
  6
ByLayer
 62
  242
370
   18
100
AcDbSpline
210
0
220
0
230
0
 70
    8
 71
    3
 72
   12
 73
    8
 74
    0
 42
1e-07
 43
1e-07
 40
0
 40
0
 40
0
 40
0
 40
0.3333333333333333
 40
0.3333333333333333
 40
0.3333333333333333
 40
0.3333333333333333
 40
1
 40
1
 40
1
 40
1
 10
-21.5383
 20
42.1683
 30
0
 10
-21.5383
 20
42.1683
 30
0
 10
-21.1928
 20
41.8764
 30
0
 10
-21.1928
 20
41.8764
 30
0
 10
-21.1928
 20
41.8764
 30
0
 10
-21.1928
 20
41.8764
 30
0
 10
-20.4461
 20
42.2728
 30
0
 10
-20.4461
 20
42.2728
 30
0
  0
SPLINE
  5
ED
100
AcDbEntity
  8
layer 1
  6
ByLayer
 62
  242
370
   18
100
AcDbSpline
210
0
220
0
230
0
 70
    8
 71
    3
 72
    8
 73
    4
 74
    0
 42
1e-07
 43
1e-07
 40
0
 40
0
 40
0
 40
0
 40
1
 40
1
 40
1
 40
1
 10
-20.4461
 20
42.2728
 30
0
 10
-19.5453
 20
42.751
 30
0
 10
-18.5225
 20
43.3528
 30
0
 10
-18.2877
 20
43.5429
 30
0
  0
SPLINE
  5
EE
100
AcDbEntity
  8
layer 1
  6
ByLayer
 62
  242
370
   18
100
AcDbSpline
210
0
220
0
230
0
 70
    8
 71
    3
 72
   20
 73
   16
 74
    0
 42
1e-07
 43
1e-07
 40
0
 40
0
 40
0
 40
0
 40
0.2
 40
0.2
 40
0.2
 40
0.2
 40
0.4
 40
0.4
 40
0.4
 40
0.4
 40
0.6
 40
0.6
 40
0.6
 40
0.6
 40
1
 40
1
 40
1
 40
1
 10
-18.2877
 20
43.5429
 30
0
 10
-18.2877
 20
43.5429
 30
0
 10
-18.1162
 20
43.6818
 30
0
 10
-18.1162
 20
43.6818
 30
0
 10
-18.1162
 20
43.6818
 30
0
 10
-18.1162
 20
43.6818
 30
0
 10
-18.6739
 20
44.1508
 30
0
 10
-18.6739
 20
44.1508
 30
0
 10
-18.6739
 20
44.1508
 30
0
 10
-18.6739
 20
44.1508
 30
0
 10
-19.2316
 20
44.6198
 30
0
 10
-19.2316
 20
44.6198
 30
0
 10
-19.2316
 20
44.6198
 30
0
 10
-19.2316
 20
44.6198
 30
0
 10
-10.5828
 20
44.6627
 30
0
 10
-10.5828
 20
44.6627
 30
0
  0
SPLINE
  5
EF
100
AcDbEntity
  8
layer 1
  6
ByLayer
 62
  242
370
   18
100
AcDbSpline
210
0
220
0
230
0
 70
    8
 71
    3
 72
   28
 73
   24
 74
    0
 42
1e-07
 43
1e-07
 40
0
 40
0
 40
0
 40
0
 40
0.1428571428571428
 40
0.1428571428571428
 40
0.1428571428571428
 40
0.1428571428571428
 40
0.2857142857142857
 40
0.2857142857142857
 40
0.2857142857142857
 40
0.2857142857142857
 40
0.4285714285714285
 40
0.4285714285714285
 40
0.4285714285714285
 40
0.4285714285714285
 40
0.5714285714285714
 40
0.5714285714285714
 40
0.5714285714285714
 40
0.5714285714285714
 40
0.7142857142857143
 40
0.7142857142857143
 40
0.7142857142857143
 40
0.7142857142857143
 40
1
 40
1
 40
1
 40
1
 10
-10.5828
 20
44.6627
 30
0
 10
-4.7286
 20
44.6918
 30
0
 10
-1.8104
 20
44.7315
 30
0
 10
-1.5515
 20
44.7858
 30
0
 10
-1.5515
 20
44.7858
 30
0
 10
0.1695
 20
45.1465
 30
0
 10
1.3171
 20
45.7185
 30
0
 10
2.1271
 20
46.6194
 30
0
 10
2.1271
 20
46.6194
 30
0
 10
2.5617
 20
47.1028
 30
0
 10
2.7865
 20
47.4968
 30
0
 10
3.0265
 20
48.1955
 30
0
 10
3.0265
 20
48.1955
 30
0
 10
3.2008
 20
48.703
 30
0
 10
3.2235
 20
48.876
 30
0
 10
3.2209
 20
49.68
 30
0
 10
3.2209
 20
49.68
 30
0
 10
3.2171
 20
50.8897
 30
0
 10
3.0075
 20
51.7067
 30
0
 10
2.3803
 20
52.9565
 30
0
 10
2.3803
 20
52.9565
 30
0
 10
2.1172
 20
53.4806
 30
0
 10
0.5743
 20
55.9866
 30
0
 10
-1.2577
 20
58.8655
 30
0
  0
SPLINE
  5
F0
100
AcDbEntity
  8
layer 1
  6
ByLayer
 62
  242
370
   18
100
AcDbSpline
210
0
220
0
230
0
 70
    8
 71
    3
 72
   12
 73
    8
 74
    0
 42
1e-07
 43
1e-07
 40
0
 40
0
 40
0
 40
0
 40
0.3333333333333333
 40
0.3333333333333333
 40
0.3333333333333333
 40
0.3333333333333333
 40
1
 40
1
 40
1
 40
1
 10
-1.2577
 20
58.8655
 30
0
 10
-1.2577
 20
58.8655
 30
0
 10
-4.4388
 20
63.8644
 30
0
 10
-4.4388
 20
63.8644
 30
0
 10
-4.4388
 20
63.8644
 30
0
 10
-4.4388
 20
63.8644
 30
0
 10
-4.3046
 20
64.65389999999999
 30
0
 10
-4.3046
 20
64.65389999999999
 30
0
  0
SPLINE
  5
F1
100
AcDbEntity
  8
layer 1
  6
ByLayer
 62
  242
370
   18
100
AcDbSpline
210
0
220
0
230
0
 70
    8
 71
    3
 72
   12
 73
    8
 74
    0
 42
1e-07
 43
1e-07
 40
0
 40
0
 40
0
 40
0
 40
0.3333333333333333
 40
0.3333333333333333
 40
0.3333333333333333
 40
0.3333333333333333
 40
1
 40
1
 40
1
 40
1
 10
-4.3046
 20
64.65389999999999
 30
0
 10
-4.0739
 20
66.0111
 30
0
 10
-4.0624
 20
66.1353
 30
0
 10
-4.1684
 20
66.1318
 30
0
 10
-4.1684
 20
66.1318
 30
0
 10
-4.2209
 20
66.1301
 30
0
 10
-4.5874
 20
66.0697
 30
0
 10
-4.9829
 20
65.9978
 30
0
  0
SPLINE
  5
F2
100
AcDbEntity
  8
layer 1
  6
ByLayer
 62
  242
370
   18
100
AcDbSpline
210
0
220
0
230
0
 70
    8
 71
    3
 72
   12
 73
    8
 74
    0
 42
1e-07
 43
1e-07
 40
0
 40
0
 40
0
 40
0
 40
0.3333333333333333
 40
0.3333333333333333
 40
0.3333333333333333
 40
0.3333333333333333
 40
1
 40
1
 40
1
 40
1
 10
-4.9829
 20
65.9978
 30
0
 10
-4.9829
 20
65.9978
 30
0
 10
-5.7019
 20
65.8669
 30
0
 10
-5.7019
 20
65.8669
 30
0
 10
-5.7019
 20
65.8669
 30
0
 10
-5.7019
 20
65.8669
 30
0
 10
-6.0932
 20
66.4735
 30
0
 10
-6.0932
 20
66.4735
 30
0
  0
SPLINE
  5
F3
100
AcDbEntity
  8
layer 1
  6
ByLayer
 62
  242
370
   18
100
AcDbSpline
210
0
220
0
230
0
 70
    8
 71
    3
 72
   84
 73
   80
 74
    0
 42
1e-07
 43
1e-07
 40
0
 40
0
 40
0
 40
0
 40
0.0476190476190476
 40
0.0476190476190476
 40
0.0476190476190476
 40
0.0476190476190476
 40
0.09523809523809521
 40
0.09523809523809521
 40
0.09523809523809521
 40
0.09523809523809521
 40
0.1428571428571428
 40
0.1428571428571428
 40
0.1428571428571428
 40
0.1428571428571428
 40
0.1904761904761905
 40
0.1904761904761905
 40
0.1904761904761905
 40
0.1904761904761905
 40
0.2380952380952381
 40
0.2380952380952381
 40
0.2380952380952381
 40
0.2380952380952381
 40
0.2857142857142857
 40
0.2857142857142857
 40
0.2857142857142857
 40
0.2857142857142857
 40
0.3333333333333333
 40
0.3333333333333333
 40
0.3333333333333333
 40
0.3333333333333333
 40
0.3809523809523809
 40
0.3809523809523809
 40
0.3809523809523809
 40
0.3809523809523809
 40
0.4285714285714285
 40
0.4285714285714285
 40
0.4285714285714285
 40
0.4285714285714285
 40
0.4761904761904762
 40
0.4761904761904762
 40
0.4761904761904762
 40
0.4761904761904762
 40
0.5238095238095238
 40
0.5238095238095238
 40
0.5238095238095238
 40
0.5238095238095238
 40
0.5714285714285714
 40
0.5714285714285714
 40
0.5714285714285714
 40
0.5714285714285714
 40
0.6190476190476191
 40
0.6190476190476191
 40
0.6190476190476191
 40
0.6190476190476191
 40
0.6666666666666666
 40
0.6666666666666666
 40
0.6666666666666666
 40
0.6666666666666666
 40
0.7142857142857143
 40
0.7142857142857143
 40
0.7142857142857143
 40
0.7142857142857143
 40
0.7619047619047619
 40
0.7619047619047619
 40
0.7619047619047619
 40
0.7619047619047619
 40
0.8095238095238095
 40
0.8095238095238095
 40
0.8095238095238095
 40
0.8095238095238095
 40
0.8571428571428571
 40
0.8571428571428571
 40
0.8571428571428571
 40
0.8571428571428571
 40
0.9047619047619048
 40
0.9047619047619048
 40
0.9047619047619048
 40
0.9047619047619048
 40
1
 40
1
 40
1
 40
1
 10
-6.0932
 20
66.4735
 30
0
 10
-6.3085
 20
66.80710000000001
 30
0
 10
-6.4846
 20
67.0919
 30
0
 10
-6.4846
 20
67.1062
 30
0
 10
-6.4846
 20
67.1062
 30
0
 10
-6.4846
 20
67.16849999999999
 30
0
 10
-5.867
 20
67.39490000000001
 30
0
 10
-4.9617
 20
67.6643
 30
0
 10
-4.9617
 20
67.6643
 30
0
 10
-4.4245
 20
67.8242
 30
0
 10
-3.9658
 20
67.97410000000001
 30
0
 10
-3.9424
 20
67.9975
 30
0
 10
-3.9424
 20
67.9975
 30
0
 10
-3.8691
 20
68.0707
 30
0
 10
-3.8536
 20
71.3343
 30
0
 10
-3.9259
 20
71.4421
 30
0
 10
-3.9259
 20
71.4421
 30
0
 10
-3.982
 20
71.5256
 30
0
 10
-4.1434
 20
71.4903
 30
0
 10
-4.8435
 20
71.2419
 30
0
 10
-4.8435
 20
71.2419
 30
0
 10
-5.3108
 20
71.0761
 30
0
 10
-5.756
 20
70.9404
 30
0
 10
-5.8328
 20
70.9404
 30
0
 10
-5.8328
 20
70.9404
 30
0
 10
-6.0805
 20
70.9404
 30
0
 10
-6.4169
 20
71.3116
 30
0
 10
-6.4596
 20
71.63209999999999
 30
0
 10
-6.4596
 20
71.63209999999999
 30
0
 10
-6.5192
 20
72.07899999999999
 30
0
 10
-6.3287
 20
72.2552
 30
0
 10
-5.1477
 20
72.84529999999999
 30
0
 10
-5.1477
 20
72.84529999999999
 30
0
 10
-4.5815
 20
73.1281
 30
0
 10
-4.1056
 20
73.3712
 30
0
 10
-4.0903
 20
73.3854
 30
0
 10
-4.0903
 20
73.3854
 30
0
 10
-4.0114
 20
73.45820000000001
 30
0
 10
-4.5537
 20
76.7449
 30
0
 10
-4.6641
 20
76.8629
 30
0
 10
-4.6641
 20
76.8629
 30
0
 10
-4.6957
 20
76.89660000000001
 30
0
 10
-5.0772
 20
76.7184
 30
0
 10
-5.512
 20
76.4669
 30
0
 10
-5.512
 20
76.4669
 30
0
 10
-6.0326
 20
76.1657
 30
0
 10
-6.3827
 20
76.00920000000001
 30
0
 10
-6.5372
 20
76.0087
 30
0
 10
-6.5372
 20
76.0087
 30
0
 10
-6.8065
 20
76.0078
 30
0
 10
-7.0816
 20
76.2303
 30
0
 10
-7.2178
 20
76.5591
 30
0
 10
-7.2178
 20
76.5591
 30
0
 10
-7.376
 20
76.941
 30
0
 10
-7.1824
 20
77.1917
 30
0
 10
-6.1214
 20
77.97969999999999
 30
0
 10
-6.1214
 20
77.97969999999999
 30
0
 10
-5.5522
 20
78.4024
 30
0
 10
-5.174
 20
78.7328
 30
0
 10
-5.174
 20
78.8073
 30
0
 10
-5.174
 20
78.8073
 30
0
 10
-5.174
 20
79.0449
 30
0
 10
-6.1929
 20
81.8839
 30
0
 10
-6.3285
 20
82.0243
 30
0
 10
-6.3285
 20
82.0243
 30
0
 10
-6.3568
 20
82.0536
 30
0
 10
-6.7169
 20
81.7997
 30
0
 10
-7.1287
 20
81.45999999999999
 30
0
 10
-7.1287
 20
81.45999999999999
 30
0
 10
-7.7537
 20
80.94450000000001
 30
0
 10
-7.9197
 20
80.8425
 30
0
 10
-8.1332
 20
80.8425
 30
0
 10
-8.1332
 20
80.8425
 30
0
 10
-8.4299
 20
80.8425
 30
0
 10
-8.7761
 20
81.13760000000001
 30
0
 10
-8.8569
 20
81.4594
 30
0
 10
-8.8569
 20
81.4594
 30
0
 10
-8.933
 20
81.7625
 30
0
 10
-8.781000000000001
 20
81.9975
 30
0
 10
-7.9083
 20
82.92610000000001
 30
0
  0
SPLINE
  5
F4
100
AcDbEntity
  8
layer 1
  6
ByLayer
 62
  242
370
   18
100
AcDbSpline
210
0
220
0
230
0
 70
    8
 71
    3
 72
   12
 73
    8
 74
    0
 42
1e-07
 43
1e-07
 40
0
 40
0
 40
0
 40
0
 40
0.3333333333333333
 40
0.3333333333333333
 40
0.3333333333333333
 40
0.3333333333333333
 40
1
 40
1
 40
1
 40
1
 10
-7.9083
 20
82.92610000000001
 30
0
 10
-7.9083
 20
82.92610000000001
 30
0
 10
-7.1114
 20
83.7741
 30
0
 10
-7.1114
 20
83.7741
 30
0
 10
-7.1114
 20
83.7741
 30
0
 10
-7.1114
 20
83.7741
 30
0
 10
-7.4163
 20
84.36969999999999
 30
0
 10
-7.4163
 20
84.36969999999999
 30
0
  0
SPLINE
  5
F5
100
AcDbEntity
  8
layer 1
  6
ByLayer
 62
  242
370
   18
100
AcDbSpline
210
0
220
0
230
0
 70
    8
 71
    3
 72
   92
 73
   88
 74
    0
 42
1e-07
 43
1e-07
 40
0
 40
0
 40
0
 40
0
 40
0.0434782608695652
 40
0.0434782608695652
 40
0.0434782608695652
 40
0.0434782608695652
 40
0.0869565217391304
 40
0.0869565217391304
 40
0.0869565217391304
 40
0.0869565217391304
 40
0.1304347826086956
 40
0.1304347826086956
 40
0.1304347826086956
 40
0.1304347826086956
 40
0.1739130434782609
 40
0.1739130434782609
 40
0.1739130434782609
 40
0.1739130434782609
 40
0.2173913043478261
 40
0.2173913043478261
 40
0.2173913043478261
 40
0.2173913043478261
 40
0.2608695652173913
 40
0.2608695652173913
 40
0.2608695652173913
 40
0.2608695652173913
 40
0.3043478260869565
 40
0.3043478260869565
 40
0.3043478260869565
 40
0.3043478260869565
 40
0.3478260869565217
 40
0.3478260869565217
 40
0.3478260869565217
 40
0.3478260869565217
 40
0.391304347826087
 40
0.391304347826087
 40
0.391304347826087
 40
0.391304347826087
 40
0.4347826086956522
 40
0.4347826086956522
 40
0.4347826086956522
 40
0.4347826086956522
 40
0.4782608695652174
 40
0.4782608695652174
 40
0.4782608695652174
 40
0.4782608695652174
 40
0.5217391304347826
 40
0.5217391304347826
 40
0.5217391304347826
 40
0.5217391304347826
 40
0.5652173913043478
 40
0.5652173913043478
 40
0.5652173913043478
 40
0.5652173913043478
 40
0.6086956521739131
 40
0.6086956521739131
 40
0.6086956521739131
 40
0.6086956521739131
 40
0.6521739130434783
 40
0.6521739130434783
 40
0.6521739130434783
 40
0.6521739130434783
 40
0.6956521739130435
 40
0.6956521739130435
 40
0.6956521739130435
 40
0.6956521739130435
 40
0.7391304347826086
 40
0.7391304347826086
 40
0.7391304347826086
 40
0.7391304347826086
 40
0.7826086956521739
 40
0.7826086956521739
 40
0.7826086956521739
 40
0.7826086956521739
 40
0.8260869565217391
 40
0.8260869565217391
 40
0.8260869565217391
 40
0.8260869565217391
 40
0.8695652173913043
 40
0.8695652173913043
 40
0.8695652173913043
 40
0.8695652173913043
 40
0.9130434782608695
 40
0.9130434782608695
 40
0.9130434782608695
 40
0.9130434782608695
 40
1
 40
1
 40
1
 40
1
 10
-7.4163
 20
84.36969999999999
 30
0
 10
-7.7711
 20
85.0626
 30
0
 10
-8.787100000000001
 20
86.7873
 30
0
 10
-8.871
 20
86.83920000000001
 30
0
 10
-8.871
 20
86.83920000000001
 30
0
 10
-8.9025
 20
86.8586
 30
0
 10
-9.189399999999999
 20
86.5612
 30
0
 10
-9.5085
 20
86.1781
 30
0
 10
-9.5085
 20
86.1781
 30
0
 10
-10.2815
 20
85.25
 30
0
 10
-10.5947
 20
85.1297
 30
0
 10
-11.0733
 20
85.5767
 30
0
 10
-11.0733
 20
85.5767
 30
0
 10
-11.2442
 20
85.7364
 30
0
 10
-11.29
 20
85.84099999999999
 30
0
 10
-11.29
 20
86.072
 30
0
 10
-11.29
 20
86.072
 30
0
 10
-11.29
 20
86.319
 30
0
 10
-11.1872
 20
86.5202
 30
0
 10
-10.6347
 20
87.3549
 30
0
 10
-10.6347
 20
87.3549
 30
0
 10
-10.2743
 20
87.8995
 30
0
 10
-9.9794
 20
88.37560000000001
 30
0
 10
-9.9794
 20
88.4131
 30
0
 10
-9.9794
 20
88.4131
 30
0
 10
-9.9794
 20
88.5917
 30
0
 10
-12.1775
 20
91.1925
 30
0
 10
-12.2575
 20
91.1086
 30
0
 10
-12.2575
 20
91.1086
 30
0
 10
-12.2766
 20
91.0886
 30
0
 10
-12.5081
 20
90.7071
 30
0
 10
-12.7721
 20
90.26090000000001
 30
0
 10
-12.7721
 20
90.26090000000001
 30
0
 10
-13.2924
 20
89.3813
 30
0
 10
-13.4486
 20
89.2568
 30
0
 10
-13.8869
 20
89.3736
 30
0
 10
-13.8869
 20
89.3736
 30
0
 10
-14.1695
 20
89.44880000000001
 30
0
 10
-14.4936
 20
89.8177
 30
0
 10
-14.4936
 20
90.0641
 30
0
 10
-14.4936
 20
90.0641
 30
0
 10
-14.4936
 20
90.16419999999999
 30
0
 10
-14.2786
 20
90.7372
 30
0
 10
-14.0158
 20
91.3373
 30
0
 10
-14.0158
 20
91.3373
 30
0
 10
-13.7531
 20
91.9375
 30
0
 10
-13.5483
 20
92.4563
 30
0
 10
-13.5608
 20
92.4903
 30
0
 10
-13.5608
 20
92.4903
 30
0
 10
-13.6207
 20
92.65309999999999
 30
0
 10
-16.1017
 20
94.7491
 30
0
 10
-16.2345
 20
94.7491
 30
0
 10
-16.2345
 20
94.7491
 30
0
 10
-16.2683
 20
94.7491
 30
0
 10
-16.4036
 20
94.446
 30
0
 10
-16.5352
 20
94.07559999999999
 30
0
 10
-16.5352
 20
94.07559999999999
 30
0
 10
-16.8757
 20
93.1168
 30
0
 10
-17.0017
 20
92.8903
 30
0
 10
-17.2523
 20
92.78660000000001
 30
0
 10
-17.2523
 20
92.78660000000001
 30
0
 10
-17.7082
 20
92.5977
 30
0
 10
-18.2797
 20
92.9881
 30
0
 10
-18.2797
 20
93.4884
 30
0
 10
-18.2797
 20
93.4884
 30
0
 10
-18.2797
 20
93.62520000000001
 30
0
 10
-18.165
 20
94.1925
 30
0
 10
-18.0249
 20
94.7491
 30
0
 10
-18.0249
 20
94.7491
 30
0
 10
-17.8847
 20
95.3056
 30
0
 10
-17.77
 20
95.7929
 30
0
 10
-17.77
 20
95.8321
 30
0
 10
-17.77
 20
95.8321
 30
0
 10
-17.77
 20
95.9387
 30
0
 10
-20.6421
 20
97.6614
 30
0
 10
-20.8198
 20
97.6614
 30
0
 10
-20.8198
 20
97.6614
 30
0
 10
-20.8456
 20
97.6614
 30
0
 10
-20.9372
 20
97.2666
 30
0
 10
-21.0235
 20
96.78400000000001
 30
0
 10
-21.0235
 20
96.78400000000001
 30
0
 10
-21.1097
 20
96.3014
 30
0
 10
-21.2337
 20
95.8249
 30
0
 10
-21.2992
 20
95.72499999999999
 30
0
 10
-21.2992
 20
95.72499999999999
 30
0
 10
-21.5589
 20
95.32859999999999
 30
0
 10
-22.1413
 20
95.3227
 30
0
 10
-22.4699
 20
95.7132
 30
0
  0
SPLINE
  5
F6
100
AcDbEntity
  8
layer 1
  6
ByLayer
 62
  242
370
   18
100
AcDbSpline
210
0
220
0
230
0
 70
    8
 71
    3
 72
   12
 73
    8
 74
    0
 42
1e-07
 43
1e-07
 40
0
 40
0
 40
0
 40
0
 40
0.3333333333333333
 40
0.3333333333333333
 40
0.3333333333333333
 40
0.3333333333333333
 40
1
 40
1
 40
1
 40
1
 10
-22.4699
 20
95.7132
 30
0
 10
-22.4699
 20
95.7132
 30
0
 10
-22.6644
 20
95.9443
 30
0
 10
-22.6644
 20
95.9443
 30
0
 10
-22.6644
 20
95.9443
 30
0
 10
-22.6644
 20
95.9443
 30
0
 10
-22.6084
 20
96.9667
 30
0
 10
-22.6084
 20
96.9667
 30
0
  0
SPLINE
  5
F7
100
AcDbEntity
  8
layer 1
  6
ByLayer
 62
  242
370
   18
100
AcDbSpline
210
0
220
0
230
0
 70
    8
 71
    3
 72
   16
 73
   12
 74
    0
 42
1e-07
 43
1e-07
 40
0
 40
0
 40
0
 40
0
 40
0.25
 40
0.25
 40
0.25
 40
0.25
 40
0.5
 40
0.5
 40
0.5
 40
0.5
 40
1
 40
1
 40
1
 40
1
 10
-22.6084
 20
96.9667
 30
0
 10
-22.5143
 20
98.6848
 30
0
 10
-22.4437
 20
98.4542
 30
0
 10
-23.1579
 20
98.761
 30
0
 10
-23.1579
 20
98.761
 30
0
 10
-23.7676
 20
99.02290000000001
 30
0
 10
-25.8755
 20
99.77290000000001
 30
0
 10
-26.0019
 20
99.77290000000001
 30
0
 10
-26.0019
 20
99.77290000000001
 30
0
 10
-26.0375
 20
99.77290000000001
 30
0
 10
-26.0757
 20
99.2492
 30
0
 10
-26.0867
 20
98.6091
 30
0
  0
SPLINE
  5
F8
100
AcDbEntity
  8
layer 1
  6
ByLayer
 62
  242
370
   18
100
AcDbSpline
210
0
220
0
230
0
 70
    8
 71
    3
 72
   12
 73
    8
 74
    0
 42
1e-07
 43
1e-07
 40
0
 40
0
 40
0
 40
0
 40
0.3333333333333333
 40
0.3333333333333333
 40
0.3333333333333333
 40
0.3333333333333333
 40
1
 40
1
 40
1
 40
1
 10
-26.0867
 20
98.6091
 30
0
 10
-26.0867
 20
98.6091
 30
0
 10
-26.1067
 20
97.4453
 30
0
 10
-26.1067
 20
97.4453
 30
0
 10
-26.1067
 20
97.4453
 30
0
 10
-26.1067
 20
97.4453
 30
0
 10
-27.7044
 20
99.9379
 30
0
 10
-27.7044
 20
99.9379
 30
0
  0
SPLINE
  5
F9
100
AcDbEntity
  8
layer 1
  6
ByLayer
 62
  242
370
   18
100
AcDbSpline
210
0
220
0
230
0
 70
    8
 71
    3
 72
   24
 73
   20
 74
    0
 42
1e-07
 43
1e-07
 40
0
 40
0
 40
0
 40
0
 40
0.1666666666666667
 40
0.1666666666666667
 40
0.1666666666666667
 40
0.1666666666666667
 40
0.3333333333333333
 40
0.3333333333333333
 40
0.3333333333333333
 40
0.3333333333333333
 40
0.5
 40
0.5
 40
0.5
 40
0.5
 40
0.6666666666666666
 40
0.6666666666666666
 40
0.6666666666666666
 40
0.6666666666666666
 40
1
 40
1
 40
1
 40
1
 10
-27.7044
 20
99.9379
 30
0
 10
-30.1152
 20
103.6991
 30
0
 10
-30.5992
 20
104.4196
 30
0
 10
-31.1147
 20
105.0152
 30
0
 10
-31.1147
 20
105.0152
 30
0
 10
-33.0793
 20
107.2848
 30
0
 10
-35.5933
 20
107.9929
 30
0
 10
-37.8479
 20
106.9115
 30
0
 10
-37.8479
 20
106.9115
 30
0
 10
-38.6319
 20
106.5355
 30
0
 10
-39.0126
 20
106.2682
 30
0
 10
-39.7004
 20
105.6111
 30
0
 10
-39.7004
 20
105.6111
 30
0
 10
-40.4805
 20
104.8658
 30
0
 10
-40.9033
 20
104.2934
 30
0
 10
-42.4172
 20
101.9332
 30
0
 10
-42.4172
 20
101.9332
 30
0
 10
-43.7087
 20
99.9198
 30
0
 10
-43.7449
 20
99.92789999999999
 30
0
 10
-44.019
 20
99.8292
 30
0
  0
SPLINE
  5
FA
100
AcDbEntity
  8
layer 1
  6
ByLayer
 62
  242
370
   18
100
AcDbSpline
210
0
220
0
230
0
 70
    8
 71
    3
 72
    8
 73
    4
 74
    0
 42
1e-07
 43
1e-07
 40
0
 40
0
 40
0
 40
0
 40
1
 40
1
 40
1
 40
1
 10
-44.019
 20
99.8292
 30
0
 10
-44.019
 20
99.8292
 30
0
 10
-47.3306
 20
98.6362
 30
0
 10
-47.3306
 20
98.6362
 30
0
  0
SPLINE
  5
FB
100
AcDbEntity
  8
layer 1
  6
ByLayer
 62
  242
370
   18
100
AcDbSpline
210
0
220
0
230
0
 70
    8
 71
    3
 72
   20
 73
   16
 74
    0
 42
1e-07
 43
1e-07
 40
0
 40
0
 40
0
 40
0
 40
0.2
 40
0.2
 40
0.2
 40
0.2
 40
0.4
 40
0.4
 40
0.4
 40
0.4
 40
0.6
 40
0.6
 40
0.6
 40
0.6
 40
1
 40
1
 40
1
 40
1
 10
-47.3306
 20
98.6362
 30
0
 10
-47.3484
 20
98.6298
 30
0
 10
-47.0521
 20
98.2694
 30
0
 10
-46.7117
 20
97.8631
 30
0
 10
-46.7117
 20
97.8631
 30
0
 10
-45.9907
 20
97.00230000000001
 30
0
 10
-45.9418
 20
96.8192
 30
0
 10
-46.3189
 20
96.38979999999999
 30
0
 10
-46.3189
 20
96.38979999999999
 30
0
 10
-46.5023
 20
96.18089999999999
 30
0
 10
-46.5964
 20
96.13249999999999
 30
0
 10
-46.8187
 20
96.13249999999999
 30
0
 10
-46.8187
 20
96.13249999999999
 30
0
 10
-47.1525
 20
96.13249999999999
 30
0
 10
-47.2882
 20
96.23050000000001
 30
0
 10
-48.2562
 20
97.1721
 30
0
  0
SPLINE
  5
FC
100
AcDbEntity
  8
layer 1
  6
ByLayer
 62
  242
370
   18
100
AcDbSpline
210
0
220
0
230
0
 70
    8
 71
    3
 72
    8
 73
    4
 74
    0
 42
1e-07
 43
1e-07
 40
0
 40
0
 40
0
 40
0
 40
1
 40
1
 40
1
 40
1
 10
-48.2562
 20
97.1721
 30
0
 10
-48.2562
 20
97.1721
 30
0
 10
-48.9999
 20
97.89530000000001
 30
0
 10
-48.9999
 20
97.89530000000001
 30
0
  0
SPLINE
  5
FD
100
AcDbEntity
  8
layer 1
  6
ByLayer
 62
  242
370
   18
100
AcDbSpline
210
0
220
0
230
0
 70
    8
 71
    3
 72
   16
 73
   12
 74
    0
 42
1e-07
 43
1e-07
 40
0
 40
0
 40
0
 40
0
 40
0.25
 40
0.25
 40
0.25
 40
0.25
 40
0.5
 40
0.5
 40
0.5
 40
0.5
 40
1
 40
1
 40
1
 40
1
 10
-17.1142
 20
77.20189999999999
 30
0
 10
-8.286799999999999
 20
63.4464
 30
0
 10
-0.9749
 20
52.0271
 30
0
 10
-0.8653999999999999
 20
51.8258
 30
0
 10
-0.8653999999999999
 20
51.8258
 30
0
 10
-0.6456
 20
51.4215
 30
0
 10
-0.4414
 20
50.7201
 30
0
 10
-0.4414
 20
50.3695
 30
0
 10
-0.4414
 20
50.3695
 30
0
 10
-0.4414
 20
49.3731
 30
0
 10
-1.2173
 20
48.5521
 30
0
 10
-2.3926
 20
48.3049
 30
0
  0
SPLINE
  5
FE
100
AcDbEntity
  8
layer 1
  6
ByLayer
 62
  242
370
   18
100
AcDbSpline
210
0
220
0
230
0
 70
    8
 71
    3
 72
   48
 73
   44
 74
    0
 42
1e-07
 43
1e-07
 40
0
 40
0
 40
0
 40
0
 40
0.0833333333333333
 40
0.0833333333333333
 40
0.0833333333333333
 40
0.0833333333333333
 40
0.1666666666666667
 40
0.1666666666666667
 40
0.1666666666666667
 40
0.1666666666666667
 40
0.25
 40
0.25
 40
0.25
 40
0.25
 40
0.3333333333333333
 40
0.3333333333333333
 40
0.3333333333333333
 40
0.3333333333333333
 40
0.4166666666666667
 40
0.4166666666666667
 40
0.4166666666666667
 40
0.4166666666666667
 40
0.5
 40
0.5
 40
0.5
 40
0.5
 40
0.5833333333333334
 40
0.5833333333333334
 40
0.5833333333333334
 40
0.5833333333333334
 40
0.6666666666666666
 40
0.6666666666666666
 40
0.6666666666666666
 40
0.6666666666666666
 40
0.75
 40
0.75
 40
0.75
 40
0.75
 40
0.8333333333333334
 40
0.8333333333333334
 40
0.8333333333333334
 40
0.8333333333333334
 40
1
 40
1
 40
1
 40
1
 10
-2.3926
 20
48.3049
 30
0
 10
-2.6733
 20
48.2459
 30
0
 10
-11.7453
 20
48.2255
 30
0
 10
-35.6665
 20
48.2298
 30
0
 10
-35.6665
 20
48.2298
 30
0
 10
-70.8866
 20
48.2363
 30
0
 10
-68.9603
 20
48.2165
 30
0
 10
-69.66419999999999
 20
48.5798
 30
0
 10
-69.66419999999999
 20
48.5798
 30
0
 10
-69.8147
 20
48.6575
 30
0
 10
-70.059
 20
48.8467
 30
0
 10
-70.20699999999999
 20
49.0003
 30
0
 10
-70.20699999999999
 20
49.0003
 30
0
 10
-70.89
 20
49.709
 30
0
 10
-70.9593
 20
50.6196
 30
0
 10
-70.4143
 20
51.7224
 30
0
 10
-70.4143
 20
51.7224
 30
0
 10
-70.3044
 20
51.9447
 30
0
 10
-62.9606
 20
63.4285
 30
0
 10
-54.0946
 20
77.242
 30
0
 10
-54.0946
 20
77.242
 30
0
 10
-41.5541
 20
96.78060000000001
 30
0
 10
-37.8839
 20
102.4482
 30
0
 10
-37.566
 20
102.7661
 30
0
 10
-37.566
 20
102.7661
 30
0
 10
-37.3413
 20
102.9909
 30
0
 10
-36.9645
 20
103.2692
 30
0
 10
-36.7287
 20
103.3847
 30
0
 10
-36.7287
 20
103.3847
 30
0
 10
-36.3479
 20
103.5712
 30
0
 10
-36.2227
 20
103.5947
 30
0
 10
-35.6083
 20
103.595
 30
0
 10
-35.6083
 20
103.595
 30
0
 10
-34.961
 20
103.5953
 30
0
 10
-34.8877
 20
103.5796
 30
0
 10
-34.4653
 20
103.3505
 30
0
 10
-34.4653
 20
103.3505
 30
0
 10
-34.2152
 20
103.2148
 30
0
 10
-33.8244
 20
102.9064
 30
0
 10
-33.5889
 20
102.6588
 30
0
 10
-33.5889
 20
102.6588
 30
0
 10
-33.2726
 20
102.3262
 30
0
 10
-29.0609
 20
95.8181
 30
0
 10
-17.1142
 20
77.20189999999999
 30
0
  0
ENDSEC
  0
SECTION
  2
OBJECTS
  0
DICTIONARY
  5
C
330
0
100
AcDbDictionary
281
    1
  3
ACAD_GROUP
350
D
  0
DICTIONARY
  5
D
330
C
100
AcDbDictionary
281
    1
  0
ENDSEC
  0
EOF
