<?xml version="1.0" encoding="utf-8"?>
<!-- Generator: Adobe Illustrator 19.1.0, SVG Export Plug-In . SVG Version: 6.00 Build 0)  -->
<svg version="1.1" xmlns="http://www.w3.org/2000/svg" xmlns:xlink="http://www.w3.org/1999/xlink" x="0px" y="0px"
	 viewBox="0 0 256.2 226.6" style="enable-background:new 0 0 256.2 226.6;" xml:space="preserve">
<metadata><?xpacket begin="﻿" id="W5M0MpCehiHzreSzNTczkc9d"?>
<x:xmpmeta xmlns:x="adobe:ns:meta/" x:xmptk="Adobe XMP Core 5.6-c067 79.157747, 2015/03/30-23:40:42        ">
   <rdf:RDF xmlns:rdf="http://www.w3.org/1999/02/22-rdf-syntax-ns#">
      <rdf:Description rdf:about=""/>
   </rdf:RDF>
</x:xmpmeta>
                                                                                                    
                                                                                                    
                                                                                                    
                                                                                                    
                                                                                                    
                                                                                                    
                                                                                                    
                                                                                                    
                                                                                                    
                                                                                                    
                                                                                                    
                                                                                                    
                                                                                                    
                                                                                                    
                                                                                                    
                                                                                                    
                                                                                                    
                                                                                                    
                                                                                                    
                                                                                                    
                           
<?xpacket end="w"?></metadata>
<style type="text/css">
	.st0{fill:#FCBF15;}
</style>
<g id="background">
</g>
<g id="logos">
	<g>
		<g>
			<path class="st0" d="M156.5,122.6c-0.6,0-1,0.5-1,1v37.2c0,0.2,0.1,0.3,0.1,0.5c0.2,0.3,0.5,0.5,0.9,0.5c0.4,0,0.7-0.2,0.9-0.5
				c0.1-0.1,0.1-0.3,0.1-0.5v-37.2C157.6,123,157.1,122.6,156.5,122.6z"/>
			<path class="st0" d="M241.9,181.8L136.7,17.9c-4.7-7.3-12.4-7.3-17.1,0L14.4,181.8c-4.7,7.3-1.4,13.3,7.3,13.3h212.9
				C243.3,195.1,246.6,189.1,241.9,181.8z M90.7,107.5c-0.4,0-1.3,0.2-2.4,0.2c-1.1,0-2.5-0.2-3.6-1.2c-3.2-2.7-2.4-6-2.4-6l1.6-0.1
				l3.3,2.9c0.3-0.1,0.5-0.2,0.7-0.3c0.3-0.2,0.6-0.3,0.8-0.6c0.3-0.2,0.5-0.7,0.7-1c0.2-0.6,0.3-1.3,0.1-2.2l-3.5-3.2
				c0,0,0.1-0.1,0.3-0.2c0.3-0.2,0.6-0.3,0.9-0.3c0.3-0.1,0.9-0.2,1.8-0.2c0.1,0,0.3,0,0.4,0c1.1,0.1,2.6,0.4,4.4,2
				c2,1.8,1.9,4.4,2.1,5.5c0,0.1,0.8,0.9,2.1,2.2v8.4C93.9,110,91,107.5,90.7,107.5C90.8,107.5,90.8,107.5,90.7,107.5z M104.8,149.8
				c0.3,6.3,0.6,19.3,0.9,25.6c0.1,1.6-1,5.1-3.5,5.6c-0.3,0.1-0.7,0.1-1,0.1c-0.4,0-0.8,0-1.3-0.1c-2.4-0.5-3.5-4.1-3.3-5.7
				c0.5-6.3,1.1-19.3,1.6-25.5c0-0.5,0.2-1.1,0.5-1.5c0-0.9-0.5-1.7-0.9-2.2c-0.3-0.1-0.4-0.3-0.4-0.5c0,0,0-0.1,0-0.1c0,0,0,0,0,0
				c0-0.4,1.1-0.7,2.5-0.8c0.2,0,0,0,0.3,0V97.6c0,0-0.8-1.4-0.8-1.4l0.7-4.8h1.8l0.7,4.8c0,0-0.6,1.4-0.6,1.5v46.9
				c0.2,0,1.1,0,1.3,0.1c1.4,0.2,2.4,0.5,2.4,0.9c0,0,0,0,0,0c0,0,0,0.1,0,0.1c0,0.2-0.1,0.3-0.4,0.4c-0.4,0.5-1,1.3-1,2.1
				C104.6,148.7,104.7,149.2,104.8,149.8z M126.4,142.5l-0.4,0.3l-1.1,1l-0.2,0.2l-0.2,0.2l-0.2,0.2l-0.2,0.3l-0.3,0.4l-0.3,0.4
				l-0.3,0.5l-0.3,0.5l-0.9,0.3l-0.7-0.6l-0.7-0.6l-0.3-0.3l-0.3-0.3l-0.6-0.6l-0.6-0.6l-0.6-0.6l-0.6-0.6l-0.6-0.6l-0.1-0.1
				L117,142l-0.1-0.2l-0.1-0.2l-0.1-0.2l0-0.2l0-0.1l0-0.1v-0.1l0-0.1l0-0.1l0,0l0.1-0.1l0-0.1l0,0l0-0.1l0,0l0.1,0l0.1,0l0.1,0
				l0.1,0l0.1-0.1l0.2-0.1l0.2,0l2.2-0.7l0.1,0l0.1,0l0.1-0.1l0.2-0.1l0.2-0.1l0.1-0.1l0,0l0,0l0,0l0.2-0.1l0.1-0.1l0.1-0.1l0.2-0.1
				l0.2-0.1l0,0l0,0l0,0l0.1-0.1l0.1-0.1l0,0l0,0l0,0l0,0l0.1,0l0.1-0.1l0,0l0,0l0,0l0,0l0.1,0l0.1-0.1l0.1-0.1l0.2-0.2
				c2.1,1.9,3.6,3.2,4.3,3.9c0,0.1,0,0.2,0,0.4L126.4,142.5z M141.9,143.7l-1.2,0.1l-3.4-3.1c0,0,0,0,0,0c-2.6,1-2.7,3.7-2.7,4v0
				c0,0,0,0,0,0l3.3,3.2c0,0-0.8,0.5-2,0.6c-0.3,0.1-0.7,0.2-1.2,0.2c-1,0-2.3-0.4-3.7-1.8c-1.9-1.9-2-5.6-2.2-6.3
				c-0.1-0.4-13.8-12.6-24.8-22v-8c10.3,9.5,27.2,24.3,29.5,25.1c1.4,0.1,3.8-0.3,6.2,1.9C142.9,140.4,141.9,143.7,141.9,143.7z
				 M145.7,124.2L145,125l-1.7,2.1l-0.7,0.7l-0.8,0.7l-0.8,0.7l-0.8,0.7l-0.4,0.4l-0.5,0.4l-0.3,0.3l-0.8,0.8l-0.3,0.3l-0.8,0.7
				l-0.4,0.3l-0.6,0.6c-0.6-0.1-1.2-0.1-1.7-0.1c-0.1,0-0.2,0-0.3,0c-0.6-0.4-2-1.4-4.1-3l0.2-0.1l0.4-0.3l0.4-0.4l0.5-0.5l0.5-0.5
				l0.4-0.4l0.5-0.4l0.5-0.4l0.2-0.1l0.2-0.1l0.6-0.5l0.6-0.5l0.3-0.3l0.5-0.4l0.5-0.4l0.8-0.6l4.4-3.4l0.9-0.7l0.1-0.1l0.1-0.1
				l0.2-0.2l0.5-0.4l0.5-0.4l0.5-0.4l0.5-0.4l0.5-0.4l1-0.8l1-0.8l1-0.8l0.2-0.2l0.2-0.1c0.6,1.4,1.6,2.6,2.9,3.5l-0.4,0.3l-0.9,0.8
				l-0.9,0.8l-0.9,0.8l-0.8,0.8l-0.8,0.8L145.7,124.2z M162.9,178.8l-0.1,0l-0.8,0l0-6.2l-5.4-4.2l-5.3,4.2l0,6.2l-0.9,0
				c-2.2-1.8-3.7-4.6-3.7-7.7c0-4,2.4-7.5,5.9-9v-43.4c-0.2-0.1-0.4-0.2-0.5-0.3c-1.3-0.9-2.3-2-2.9-3.5c-0.4-1-0.7-2.1-0.7-3.3
				c0-4.5,3.6-8.1,8.1-8.1c0.9,0,1.8,0.2,2.6,0.4l-0.4,0.4l-0.5,0.5l-0.5,0.5l-0.2,0.2l-0.2,0.2l-0.5,0.4l-0.5,0.4l-1,0.9H155
				l-2.5,2.6v0.1v1.8v1.5l2.5,2.2h0.2h2.1h1.1l2.2-2.2v-0.7l0.5-0.4l1-0.8l1-0.8l1-0.8l0.3-0.3c0.2,0.7,0.3,1.4,0.3,2.1
				c0,2.9-1.5,5.5-3.8,6.9v43.6c3.4,1.6,5.8,5,5.8,9C166.6,174.2,165.2,177,162.9,178.8z M177.9,115.1l-0.2,0.1l-0.2,0.1l-0.2,0
				l-0.2,0l-0.2,0l-0.3,0l-0.3,0l-0.2-0.6l-0.2-0.6l-0.3-0.6l-0.3-0.6l-0.1-0.3l-0.1-0.3l-0.3-0.5l-0.3-0.5l-0.3-0.5l-0.2-0.3
				l-0.2-0.2l-0.3-0.5l-0.3-0.4l-0.3-0.4l-0.3-0.4l-0.4-0.4l-0.2-0.2l-0.2-0.2l-0.4-0.3l-0.1-0.3l-0.1-0.2l-0.1-0.2l-0.1-0.2
				l-0.1-0.2l-0.1-0.2l-0.1-0.1l-0.1-0.1l-0.1-0.1l-0.1-0.1l-0.1-0.1l-0.1,0l-0.1,0l-0.2,0l-0.2,0l-0.2,0l-0.2,0.1l-0.1,0l-0.1,0.1
				l-0.3,0.2l-0.2,0.1l-0.2,0.1l-0.3,0.1l-0.3,0.1l-0.3,0.1l-0.3,0.1l-0.1,0l-0.1,0l-0.1,0l-0.1,0l-0.1,0l-0.2,0.1l-0.2,0.1l-0.2,0
				l-0.2,0l-0.1,0l-0.1,0l-0.2,0l0,0l0,0l-0.1,0l-1.1,0.8l-1,0.8l-1,0.8l-1,0.8l-1,0.8l-3.4,2.9h-0.2l-2.5-2.2v-1.5l3.2-2.8l0.5-0.5
				l0.5-0.5l0.2-0.2l0.2-0.2l0.5-0.5l0.5-0.5l0.5-0.5l0.5-0.5l0.1-0.1l0.1-0.1l0.2-0.2l1-1l0-0.1l0-0.1l0.1-0.2l0.1-0.1l0.1-0.1
				l0.1-0.1l0.1-0.1l0.2-0.2l0.1-0.1l0.1-0.1l0.3-0.2l0.2-0.1l0.2-0.1l0.1-0.6l0-0.5l0-0.3l0-0.2l0-0.2l0-0.2l0-0.2l-0.1-0.2
				l-0.1-0.2l-0.1-0.2l-0.1-0.2l-0.1-0.2l-0.1-0.2l-0.1-0.2l-0.1-0.2l-0.1-0.2l-0.1-0.1l-0.1-0.1l-0.3-0.3l-0.3-0.2l-0.4-0.2
				l-0.4-0.1l-0.2-0.1l-0.2-0.1l-0.2,0l-0.3,0l-1.9-2.7l0-0.2l0-0.2l0.1-0.2l0.1-0.2l0.1-0.2l0.1-0.2l0.1-0.2l0.1-0.2l0.1-0.1
				l0.1-0.1l0.1-0.1l0.1-0.1l0.1-0.1l0.2-0.1l0.2-0.1l0.2-0.1l0.2-0.1l0.2-0.1l0.2-0.1l0.2-0.1l0.2-0.1l0.2-0.1l0.3-0.1l0.3-0.1
				l2.3,2.3l0.1,0.2l0.1,0.2l0.1,0.2l0.1,0.2l0,0.1l0,0.1l0.1,0.2l0.1,0.2l0.1,0.2l0.1,0.2l0.1,0.2l0,0l0,0l0,0.1l0.1,0.1l0.1,0.1
				l0,0.1l0,0.1l0.1,0.1l0.1,0.1l0.1,0l0.1,0l0.1,0.1l0.1,0.1l0.1,0.1l0.1,0.1l0.1,0l0.1,0l0.1,0l0.1,0l0.1,0l0.1,0l0.1,0l0.1,0
				l0.1,0l0.1,0l0.1,0l0.1,0l0.1,0l0.1,0l0.1,0l0.3,0.1l0.3,0.1l0.3,0.2l0.3,0.2l0.3,0.2l0.3,0.2l0.3,0.3l0.3,0.3l0.3,0.3l0.3,0.3
				l0.3,0.3l0.3,0.4l0.3,0.4l0.3,0.4l0.3,0.4l0.2,0.5l0.5,0.9l0.5,0.9l0.2,0.4l0.2,0.4l0.4,0.9l0.4,0.9l0.4,0.9l0.4,0.9l0.2,0.4
				l0.2,0.4l0.3,0.9l0.2,0.4l0.1,0.4l0.2,0.4l0.1,0.4l0.1,0.4l0.1,0.4l0.1,0.4l0.1,0.4l0.1,0.4l0.1,0.4l0.1,0.4l0.1,0.4l0.2,0.9
				l0.4,1.1L177.9,115.1z"/>
		</g>
		<g>
			<path d="M251.3,175.8l-20.4-32.2c0.5-2.5,0.9-5,1.2-7.5c-0.3,0.1-4.2,0.7-5.4,0.9l-2.7-4.2l0.3,0c0.6-0.6,1.3-0.8,1.3-0.8
				l6.9-2.1c0.1-2.1,0.2-4.1,0.2-6.2c0-1.9-0.1-3.7-0.2-5.6c-0.4,0.1-4.6,1.7-5.3,1.9c-0.8,0.3-2.3,0.4-3.1-1.7
				c-0.8-2.1,1.4-3.1,1.4-3.1l6.4-3.2c-0.4-4-1.1-7.9-2-11.7c-0.1,0.1-4.2,2.4-4.9,2.8c-0.7,0.4-2.2,0.8-3.3-1.1
				c-1.1-1.9,0.9-3.3,0.9-3.3l5.8-4.3c-1.1-3.8-2.5-7.5-4-11.1c0,0-3.7,3.1-4.4,3.6c-0.6,0.5-2,1.2-3.5-0.5
				c-1.4-1.7,0.3-3.4,0.3-3.4l5-5.2c-1.8-3.5-3.7-7-5.9-10.3c-0.1,0.2-3.1,3.7-3.7,4.3c-0.5,0.6-1.8,1.5-3.5,0.1
				c-1.7-1.4-0.3-3.4-0.3-3.4l4-6c-2.3-3.2-4.9-6.2-7.5-9.1c-0.2,0.4-2.5,4.2-2.9,4.9c-0.4,0.7-1.5,1.8-3.4,0.7
				c-1.9-1.1-0.9-3.3-0.9-3.3l2.9-6.6c-2.8-2.7-5.9-5.3-9-7.7c-0.1,0.4-1.7,4.6-2,5.3c-0.3,0.8-1.2,2-3.3,1.3
				c-2.1-0.8-1.4-3.1-1.4-3.1l1.7-7c-3.3-2.2-6.7-4.2-10.2-6c0,0.2-0.9,4.8-1,5.6c-0.2,0.8-0.8,2.2-3,1.8c-2.2-0.4-1.9-2.8-1.9-2.8
				l0.5-7.2c-3.8-1.7-7.7-3.1-11.7-4.3v5.7c0,0.1,0,2.1,0,2.2l-13-20.2c-10.9-17.1-26.6-17.1-37.5,0L101.3,25l-0.7-0.1
				c-3.8,1.1-7.5,2.5-11.1,4c0,0,3.1,3.7,3.7,4.4c0.5,0.6,1.2,2-0.5,3.5c-1.7,1.4-3.4-0.3-3.4-0.3l-5.2-5c-3.5,1.8-7,3.7-10.3,5.9
				c0.2,0.1,3.7,3.1,4.3,3.7c0.6,0.5,1.5,1.8,0.1,3.5c-1.4,1.7-3.4,0.3-3.4,0.3l-6-4c-3.2,2.3-6.2,4.9-9.1,7.5
				c0.4,0.2,4.2,2.5,4.9,2.9c0.7,0.4,1.8,1.5,0.7,3.4c-1.1,1.9-3.3,0.9-3.3,0.9l-6.6-2.9c-2.7,2.8-5.3,5.9-7.7,9
				c0.4,0.1,4.6,1.7,5.3,2c0.8,0.3,2,1.2,1.3,3.3c-0.8,2.1-3.1,1.4-3.1,1.4l-7-1.7c-2.2,3.3-4.2,6.7-6,10.2c0.1,0,4.8,0.9,5.6,1
				c0.8,0.2,2.2,0.8,1.8,3c-0.4,2.2-2.8,1.9-2.8,1.9l-7.2-0.5c-1.7,3.8-3.1,7.7-4.3,11.7h5.7c0.8,0,2.3,0.4,2.3,2.6
				c0,2.2-2.4,2.4-2.4,2.4l-7.2,0.8c-0.9,3.8-1.6,7.7-2.1,11.6c0.3-0.1,4.8-0.8,5.6-1c0.8-0.1,2.1,0,2.6,1.7l8.9,1l-1.5,2.4l-8-0.9
				c-0.6,0.6-1.3,0.8-1.3,0.8l-6.9,2.1c-0.1,2.1-0.2,4.1-0.2,6.2c0,1.9,0.1,3.7,0.2,5.6c0.4-0.1,4.6-1.7,5.3-1.9
				c0.7-0.2,1.9-0.4,2.7,1l-3,4.7l-4.6,2.3c0.2,1.4,0.3,2.7,0.6,4.1l-23,36.3c-10.9,17.1-3.2,31.1,17.1,31.1h51.2l-0.6,2.6
				c3.3,2.2,6.7,4.2,10.2,6c0-0.1,0.9-4.8,1-5.6c0.1-0.8,0.8-2.2,3-1.8c2.2,0.4,1.9,2.8,1.9,2.8l-0.5,7.2c3.8,1.7,7.7,3.1,11.7,4.3
				v-5.7c0-0.8,0.4-2.3,2.6-2.3c2.2,0,2.4,2.4,2.4,2.4l0.8,7.2c3.8,0.9,7.7,1.6,11.6,2.1c-0.1-0.3-0.8-4.8-1-5.6
				c-0.1-0.8,0-2.1,1.7-2.6l1.2-11h2.5l-1.3,11.5c0.6,0.6,0.8,1.3,0.8,1.3l2,6.9c2.1,0.1,4.1,0.2,6.2,0.2c1.9,0,3.7-0.1,5.6-0.2
				c-0.1-0.4-1.7-4.6-1.9-5.3c-0.3-0.8-0.4-2.3,1.7-3.1c2.1-0.8,3.1,1.4,3.1,1.4l3.2,6.4c4-0.4,7.8-1.1,11.7-2
				c0-0.1-2.4-4.2-2.8-4.9c-0.4-0.7-0.8-2.2,1.1-3.3c1.9-1.1,3.3,0.9,3.3,0.9l4.3,5.8c3.8-1.1,7.5-2.5,11.1-4c0,0-3.1-3.7-3.6-4.4
				c-0.5-0.6-1.2-2,0.5-3.5c1.7-1.4,3.4,0.3,3.4,0.3l5.2,5c3.5-1.8,7-3.7,10.3-5.9c-0.1-0.1-2.8-2.4-3.9-3.3h52.3
				C254.5,206.9,262.2,192.9,251.3,175.8z M234.6,195.1H21.7c-8.7,0-12-6-7.3-13.3L119.6,17.9c4.7-7.3,12.4-7.3,17.1,0l105.2,163.9
				C246.6,189.1,243.3,195.1,234.6,195.1z"/>
			<path d="M122.6,137.7l-0.2,0.2l-0.1,0.1l-0.1,0.1l-0.1,0l0,0l0,0l0,0l0,0l-0.1,0.1l-0.1,0l0,0l0,0l0,0l0,0l-0.1,0.1l-0.1,0.1l0,0
				l0,0l0,0l-0.2,0.1l-0.2,0.1L121,139l-0.1,0.1l-0.2,0.1l0,0l0,0l0,0l-0.1,0.1l-0.2,0.1l-0.2,0.1l-0.1,0.1l-0.1,0l-0.1,0l-2.2,0.7
				l-0.2,0l-0.2,0.1l-0.1,0.1l-0.1,0l-0.1,0l-0.1,0l-0.1,0l0,0l0,0.1l0,0l0,0.1l-0.1,0.1l0,0l0,0.1l0,0.1v0.1l0,0.1l0,0.1l0,0.2
				l0.1,0.2l0.1,0.2l0.1,0.2l0.1,0.1l0.1,0.1l0.6,0.6l0.6,0.6l0.6,0.6l0.6,0.6l0.6,0.6l0.3,0.3l0.3,0.3l0.7,0.6l0.7,0.6l0.9-0.3
				l0.3-0.5l0.3-0.5l0.3-0.4l0.3-0.4l0.2-0.3l0.2-0.2l0.2-0.2l0.2-0.2l1.1-1l0.4-0.3l0.6-0.5c0-0.1,0-0.3,0-0.4
				C126.2,140.9,124.7,139.6,122.6,137.7z"/>
			<path d="M148.2,121.9l0.9-0.8l0.9-0.8l0.9-0.8l0.4-0.3c-1.3-0.9-2.3-2-2.9-3.5l-0.2,0.1l-0.2,0.2l-1,0.8l-1,0.8l-1,0.8l-0.5,0.4
				l-0.5,0.4l-0.5,0.4l-0.5,0.4l-0.5,0.4l-0.2,0.2l-0.1,0.1l-0.1,0.1l-0.9,0.7l-4.4,3.4l-0.8,0.6l-0.5,0.4l-0.5,0.4l-0.3,0.3
				l-0.6,0.5l-0.6,0.5l-0.2,0.1l-0.2,0.1l-0.5,0.4l-0.5,0.4l-0.4,0.4l-0.5,0.5l-0.5,0.5l-0.4,0.4l-0.4,0.3l-0.2,0.1
				c2.1,1.7,3.4,2.7,4.1,3c0.1,0,0.2,0,0.3,0c0.5,0,1,0,1.7,0.1l0.6-0.6l0.4-0.3l0.8-0.7l0.3-0.3l0.8-0.8l0.3-0.3l0.5-0.4l0.4-0.4
				l0.8-0.7l0.8-0.7l0.8-0.7l0.7-0.7l1.7-2.1l0.8-0.8l0.8-0.8l0.8-0.8L148.2,121.9z"/>
			<path d="M160.9,162.1v-43.6c2.3-1.4,3.8-4,3.8-6.9c0-0.7-0.1-1.4-0.3-2.1l-0.3,0.3l-1,0.8l-1,0.8l-1,0.8l-0.5,0.4v0.7l-2.2,2.2
				h-1.1h-2.1H155l-2.5-2.2V112v-1.8v-0.1l2.5-2.6h0.5l1-0.9l0.5-0.4l0.5-0.4l0.2-0.2l0.2-0.2l0.5-0.5l0.5-0.5l0.4-0.4
				c-0.8-0.3-1.7-0.4-2.6-0.4c-4.5,0-8.1,3.6-8.1,8.1c0,1.2,0.2,2.3,0.7,3.3c0.6,1.4,1.6,2.6,2.9,3.5c0.2,0.1,0.3,0.2,0.5,0.3v43.4
				c-3.4,1.5-5.9,5-5.9,9c0,3.1,1.4,5.9,3.7,7.7l0.9,0l0-6.2l5.3-4.2l5.4,4.2l0,6.2l0.8,0l0.1,0c2.3-1.8,3.7-4.6,3.7-7.7
				C166.6,167.1,164.3,163.7,160.9,162.1z M157.6,160.8c0,0.2-0.1,0.3-0.1,0.5c-0.2,0.3-0.5,0.5-0.9,0.5c-0.4,0-0.7-0.2-0.9-0.5
				c-0.1-0.1-0.1-0.3-0.1-0.5v-37.2c0-0.6,0.5-1,1-1c0.6,0,1,0.5,1,1V160.8z"/>
			<path d="M98.1,105.1c-1.3-1.2-2.1-2-2.1-2.2c-0.3-1.1-0.1-3.7-2.1-5.5c-1.8-1.6-3.4-2-4.4-2c-0.1,0-0.3,0-0.4,0
				c-0.8,0-1.4,0.1-1.8,0.2c-0.3,0.1-0.6,0.2-0.9,0.3c-0.2,0.1-0.3,0.2-0.3,0.2l3.5,3.2c0.2,0.9,0.1,1.6-0.1,2.2
				c-0.2,0.3-0.4,0.8-0.7,1c-0.3,0.2-0.5,0.4-0.8,0.6c-0.2,0.1-0.5,0.2-0.7,0.3l-3.3-2.9l-1.6,0.1c0,0-0.8,3.2,2.4,6
				c1.2,1,2.5,1.2,3.6,1.2c1.1,0,2-0.2,2.4-0.2c0,0,0,0,0.1,0c0.2,0,3.1,2.5,7.3,6V105.1z"/>
			<path d="M139.8,137.6c-2.5-2.2-4.8-1.8-6.2-1.9c-2.4-0.8-19.2-15.6-29.5-25.1v8c10.9,9.5,24.7,21.6,24.8,22
				c0.1,0.7,0.3,4.4,2.2,6.3c1.4,1.4,2.7,1.8,3.7,1.8c0.4,0,0.8-0.1,1.2-0.2c1.2-0.1,2-0.6,2-0.6l-3.3-3.2c0,0,0,0,0,0v0
				c0-0.3,0.1-3.1,2.7-4c0,0,0,0,0,0l3.4,3.1l1.2-0.1C141.9,143.7,142.9,140.4,139.8,137.6z"/>
			<polygon points="177.5,113 177.4,112.6 177.3,112.2 177.1,111.7 177,111.3 176.9,110.9 176.8,110.4 176.7,110 176.5,109.6 
				176.4,109.1 176.2,108.7 176.1,108.3 175.9,107.8 175.6,107 175.4,106.6 175.2,106.1 174.9,105.3 174.5,104.4 174.1,103.5 
				173.6,102.7 173.4,102.2 173.2,101.8 172.7,101 172.2,100.1 171.9,99.7 171.7,99.2 171.4,98.8 171.2,98.4 170.9,98.1 170.6,97.7 
				170.3,97.4 170,97.1 169.8,96.8 169.5,96.6 169.2,96.3 168.9,96.1 168.6,95.9 168.3,95.8 167.9,95.6 167.6,95.5 167.5,95.5 
				167.4,95.5 167.3,95.6 167.1,95.6 167,95.6 166.9,95.6 166.8,95.6 166.7,95.6 166.6,95.6 166.6,95.6 166.5,95.6 166.4,95.5 
				166.3,95.5 166.2,95.4 166.2,95.4 166.1,95.4 166,95.3 165.9,95.2 165.8,95.1 165.7,95.1 165.7,95 165.6,94.9 165.5,94.8 
				165.4,94.7 165.4,94.7 165.3,94.6 165.2,94.4 165.2,94.3 165.2,94.3 165.1,94.3 165.1,94.1 165,93.9 164.9,93.7 164.8,93.6 
				164.8,93.4 164.7,93.3 164.7,93.2 164.6,92.9 164.6,92.7 164.5,92.5 164.4,92.3 162.1,89.9 161.9,90 161.6,90.1 161.4,90.1 
				161.1,90.2 160.9,90.3 160.7,90.4 160.5,90.5 160.3,90.6 160.1,90.7 160,90.8 159.8,90.9 159.7,91 159.5,91.1 159.4,91.2 
				159.3,91.4 159.2,91.5 159,91.6 158.9,91.8 158.8,92 158.7,92.2 158.7,92.4 158.6,92.6 158.6,92.8 158.5,93 160.4,95.7 
				160.7,95.8 160.9,95.8 161.1,95.9 161.3,95.9 161.8,96.1 162.1,96.3 162.5,96.5 162.8,96.7 162.9,96.9 163.1,97 163.2,97.2 
				163.3,97.3 163.4,97.5 163.5,97.7 163.6,97.8 163.6,98 163.7,98.2 163.8,98.4 163.8,98.7 163.8,98.9 163.9,99.1 163.9,99.4 
				163.9,99.6 163.9,99.9 163.9,100.4 163.8,101 163.6,101.1 163.5,101.2 163.2,101.4 163.1,101.5 163,101.6 162.7,101.9 162.6,102 
				162.6,102.1 162.5,102.2 162.4,102.4 162.3,102.6 162.3,102.7 162.3,102.9 161.3,103.9 161,104.1 160.9,104.2 160.8,104.4 
				160.3,104.8 159.8,105.3 159.3,105.8 158.8,106.3 158.6,106.5 158.4,106.8 157.9,107.2 157.4,107.7 154.2,110.5 154.2,112 
				156.7,114.2 156.9,114.2 160.2,111.3 161.2,110.5 162.2,109.6 163.3,108.8 164.3,108 165.4,107.1 165.5,107.1 165.5,107.1 
				165.6,107.1 165.7,107.1 165.8,107.1 165.9,107.1 166.1,107.1 166.4,107 166.6,107 166.8,106.9 167,106.8 167.1,106.8 
				167.2,106.8 167.2,106.8 167.4,106.7 167.6,106.6 167.9,106.5 168.2,106.4 168.6,106.2 168.7,106.1 168.9,106.1 169.2,105.9 
				169.3,105.8 169.4,105.8 169.6,105.7 169.7,105.7 169.9,105.6 170,105.6 170.2,105.7 170.3,105.7 170.5,105.8 170.6,105.8 
				170.7,105.9 170.8,106 170.9,106.2 171,106.3 171.1,106.5 171.2,106.7 171.3,106.9 171.3,107.1 171.4,107.4 171.8,107.7 
				172,107.9 172.1,108.1 172.5,108.5 172.9,108.9 173.2,109.3 173.5,109.7 173.8,110.2 174,110.4 174.2,110.6 174.5,111.1 
				174.7,111.7 175,112.2 175.2,112.5 175.3,112.8 175.6,113.3 175.8,113.9 176,114.6 176.3,115.2 176.6,115.3 176.8,115.3 
				177.1,115.3 177.3,115.3 177.5,115.2 177.7,115.2 177.9,115.1 178,115 177.6,113.9 			"/>
			<path d="M105.7,145.7C105.7,145.7,105.7,145.6,105.7,145.7C105.7,145.6,105.7,145.6,105.7,145.7c0-0.5-1-0.8-2.5-1
				c-0.2,0-1-0.1-1.3-0.1V97.7c0,0,0.6-1.5,0.6-1.5l-0.7-4.8H100l-0.7,4.8c0,0,0.8,1.4,0.8,1.4v46.9c-0.2,0,0,0-0.3,0
				c-1.5,0.1-2.5,0.4-2.5,0.8c0,0,0,0,0,0c0,0,0,0.1,0,0.1c0,0.2,0.1,0.3,0.4,0.5c0.4,0.5,0.9,1.3,0.9,2.2c-0.2,0.4-0.4,1-0.5,1.5
				c-0.5,6.3-1.1,19.3-1.6,25.5c-0.2,1.6,0.8,5.2,3.3,5.7c0.4,0.1,0.8,0.1,1.3,0.1c0.4,0,0.7,0,1-0.1c2.5-0.5,3.6-3.9,3.5-5.6
				c-0.3-6.3-0.6-19.3-0.9-25.6c0-0.5-0.2-1.1-0.4-1.5c0-0.9,0.6-1.7,1-2.1C105.6,146,105.7,145.8,105.7,145.7z"/>
		</g>
	</g>
</g>
</svg>
