<?xml version="1.0" encoding="utf-8"?>
<!-- Generator: Adobe Illustrator 19.1.0, SVG Export Plug-In . SVG Version: 6.00 Build 0)  -->
<svg version="1.1" id="Layer_1" xmlns="http://www.w3.org/2000/svg" xmlns:xlink="http://www.w3.org/1999/xlink" x="0px" y="0px"
	 viewBox="-153 482.7 533.3 226.8" style="enable-background:new -153 482.7 533.3 226.8;" xml:space="preserve">
<metadata><?xpacket begin="﻿" id="W5M0MpCehiHzreSzNTczkc9d"?>
<x:xmpmeta xmlns:x="adobe:ns:meta/" x:xmptk="Adobe XMP Core 5.6-c067 79.157747, 2015/03/30-23:40:42        ">
   <rdf:RDF xmlns:rdf="http://www.w3.org/1999/02/22-rdf-syntax-ns#">
      <rdf:Description rdf:about=""/>
   </rdf:RDF>
</x:xmpmeta>
                                                                                                    
                                                                                                    
                                                                                                    
                                                                                                    
                                                                                                    
                                                                                                    
                                                                                                    
                                                                                                    
                                                                                                    
                                                                                                    
                                                                                                    
                                                                                                    
                                                                                                    
                                                                                                    
                                                                                                    
                                                                                                    
                                                                                                    
                                                                                                    
                                                                                                    
                                                                                                    
                           
<?xpacket end="w"?></metadata>
<style type="text/css">
	.st0{fill:#080504;}
	.st1{fill:#231F20;}
</style>
<polygon class="st0" points="135.3,569.6 139.9,569.6 139.9,529.7 140.9,529.7 152.1,568 158.2,568 169.5,529.7 170.4,529.7 
	170.4,569.6 175.1,569.6 175.1,525.3 166.5,525.3 155.2,563.3 143.9,525.3 135.3,525.3 "/>
<path class="st0" d="M196.8,529.7h1.9L205,554h-14.6L196.8,529.7z M181.4,569.6h4.9l3.1-11.3H206l3.1,11.3h4.9l-11.4-44.3h-9.7
	L181.4,569.6z"/>
<polygon class="st0" points="242.6,569.6 248.1,569.6 235.5,547.2 247.4,525.3 241.9,525.3 231.2,545.5 225.2,545.8 225.2,525.3 
	220.4,525.3 220.4,569.6 225.2,569.6 225.2,550.1 231.3,549.9 "/>
<polygon class="st0" points="254,569.6 278.7,569.6 278.7,565.2 258.8,565.2 258.8,549.2 275.1,549.2 275.1,544.9 258.8,544.9 
	258.8,529.7 278.7,529.7 278.7,525.3 254,525.3 "/>
<path class="st0" d="M309.3,538.8c0,6.5-2.6,9.6-8.3,9.6h-9.7v-18.8h9.7C306.7,529.6,309.3,532.6,309.3,538.8z M310.1,569.6h5.3
	l-8.5-17.9c4.2-1.5,7.4-4.8,7.4-12.9c0-9.3-4.6-13.4-13.3-13.4h-14.6v44.3h4.9v-17h10.9L310.1,569.6z"/>
<polygon class="st0" points="326.1,539.8 326.2,525.2 321.7,525.2 321.9,539.8 "/>
<path class="st0" d="M358.4,526c0,0-6.8-1.3-11.8-1.3c-8.8,0-13.6,3.8-13.6,12.3c0,7.5,4.4,10,12.6,12c6,1.3,9,2.8,9,8.2
	c0,5.8-2.6,8.8-8.3,8.8c-4.2,0-12.4-0.9-12.4-0.9l-0.3,4c0,0,7.7,1.2,12.7,1.2c9.1,0,13.3-4.7,13.3-13.6c0-7.9-4-10.1-11.9-12.1
	c-6.7-1.7-9.6-2.8-9.6-8.1s2.9-7.4,8.8-7.4c4.3,0,11.3,0.9,11.3,0.9L358.4,526z"/>
<path class="st0" d="M148.1,595.8h1.9l6.3,24.3h-14.6L148.1,595.8z M132.7,635.7h4.9l3.1-11.3h16.6l3.1,11.3h4.9l-11.4-44.3h-9.7
	L132.7,635.7z"/>
<path class="st0" d="M194.4,592.1c0,0-6.8-1.3-11.8-1.3c-8.8,0-13.6,3.8-13.6,12.3c0,7.5,4.4,10,12.6,12c6,1.3,9,2.8,9,8.2
	c0,5.8-2.6,8.8-8.3,8.8c-4.2,0-12.4-0.9-12.4-0.9l-0.3,4c0,0,7.7,1.2,12.7,1.2c9.1,0,13.3-4.7,13.3-13.6c0-7.9-4-10.1-11.9-12.1
	c-6.7-1.7-9.6-2.8-9.6-8.1s2.9-7.4,8.8-7.4c4.3,0,11.3,0.9,11.3,0.9L194.4,592.1z"/>
<polygon class="st0" points="228.4,591.4 223.2,591.4 213.2,611.8 203.3,591.4 198,591.4 210.9,617.1 210.9,635.7 215.6,635.7 
	215.6,617.1 "/>
<polygon class="st0" points="256.4,635.7 256.4,631.4 239,631.4 239,591.4 234.1,591.4 234.1,635.7 "/>
<path class="st0" d="M265.9,591.4H261v30.8c0,9.7,4.6,14.1,14.4,14.1c9.9,0,14.5-4.4,14.5-14.1v-30.8H285v31.1
	c0,6.8-2.9,9.5-9.5,9.5c-6.5,0-9.5-2.7-9.5-9.5v-31.1H265.9z"/>
<polygon class="st0" points="299.5,635.7 304.1,635.7 304.1,595.8 305.1,595.8 316.4,634.1 322.4,634.1 333.8,595.8 334.7,595.8 
	334.7,635.7 339.3,635.7 339.3,591.4 330.8,591.4 319.4,629.4 308.2,591.4 299.5,591.4 "/>
<path class="st0" d="M370.3,521.7h1.9v-8.1l2.3,7.5h1.5l2.4-7.5v8.1h1.9v-10.8h-2.6l-2.5,7.5l-2.4-7.5h-2.6L370.3,521.7L370.3,521.7
	z M361.9,512.7h2.8v8.9h2v-8.9h2.4v-1.8h-7.2V512.7z"/>
<g>
	<g>
		<path class="st1" d="M105.9,659.9l-20.4-32.2c0.5-2.5,0.9-5,1.2-7.5c-0.3,0.1-4.2,0.7-5.4,0.9l-2.7-4.2l0.3,0
			c0.6-0.6,1.3-0.8,1.3-0.8l6.9-2.1c0.1-2.1,0.2-4.1,0.2-6.2c0-1.9-0.1-3.7-0.2-5.6c-0.4,0.1-4.6,1.7-5.3,1.9
			c-0.8,0.3-2.3,0.4-3.1-1.7c-0.8-2.1,1.4-3.1,1.4-3.1l6.4-3.2c-0.4-4-1.1-7.9-2-11.7c-0.1,0.1-4.2,2.4-4.9,2.8
			c-0.7,0.4-2.2,0.8-3.3-1.1c-1.1-1.9,0.9-3.3,0.9-3.3l5.8-4.3c-1.1-3.8-2.5-7.5-4-11.1c0,0-3.7,3.1-4.4,3.6c-0.6,0.5-2,1.2-3.5-0.5
			c-1.4-1.7,0.3-3.4,0.3-3.4l5-5.2c-1.8-3.5-3.7-7-5.9-10.3c-0.1,0.2-3.1,3.7-3.7,4.3c-0.5,0.6-1.8,1.5-3.5,0.1
			c-1.7-1.4-0.3-3.4-0.3-3.4l4-6c-2.3-3.2-4.9-6.2-7.5-9.1c-0.2,0.4-2.5,4.2-2.9,4.9c-0.4,0.7-1.5,1.8-3.4,0.7
			c-1.9-1.1-0.9-3.3-0.9-3.3l2.9-6.6c-2.8-2.7-5.9-5.3-9-7.7c-0.1,0.4-1.7,4.6-2,5.3c-0.3,0.8-1.2,2-3.3,1.3
			c-2.1-0.8-1.4-3.1-1.4-3.1l1.7-7c-3.3-2.2-6.7-4.2-10.2-6c0,0.2-0.9,4.8-1,5.6c-0.2,0.8-0.8,2.2-3,1.8c-2.2-0.4-1.9-2.8-1.9-2.8
			l0.5-7.2c-3.8-1.7-7.7-3.1-11.7-4.3v5.7c0,0.1,0,2.1,0,2.2l-13-20.2c-10.9-17.1-26.6-17.1-37.5,0l-7.8,12.2l-0.7-0.1
			c-3.8,1.1-7.5,2.5-11.1,4c0,0,3.1,3.7,3.7,4.4c0.5,0.6,1.2,2-0.5,3.5c-1.7,1.4-3.4-0.3-3.4-0.3l-5.2-5c-3.5,1.8-7,3.7-10.3,5.9
			c0.2,0.1,3.7,3.1,4.3,3.7c0.6,0.5,1.5,1.8,0.1,3.5c-1.4,1.7-3.4,0.3-3.4,0.3l-6-4c-3.2,2.3-6.2,4.9-9.1,7.5
			c0.4,0.2,4.2,2.5,4.9,2.9c0.7,0.4,1.8,1.5,0.7,3.4c-1.1,1.9-3.3,0.9-3.3,0.9l-6.6-2.9c-2.7,2.8-5.3,5.9-7.7,9
			c0.4,0.1,4.6,1.7,5.3,2c0.8,0.3,2,1.2,1.3,3.3c-0.8,2.1-3.1,1.4-3.1,1.4l-7-1.7c-2.2,3.3-4.2,6.7-6,10.2c0.1,0,4.8,0.9,5.6,1
			c0.8,0.2,2.2,0.8,1.8,3c-0.4,2.2-2.8,1.9-2.8,1.9l-7.2-0.5c-1.7,3.8-3.1,7.7-4.3,11.7h5.7c0.8,0,2.3,0.4,2.3,2.6
			c0,2.2-2.4,2.4-2.4,2.4l-7.2,0.8c-0.9,3.8-1.6,7.7-2.1,11.6c0.3-0.1,4.8-0.8,5.6-1c0.8-0.1,2.1,0,2.6,1.7l8.9,1l-1.5,2.4l-8-0.9
			c-0.6,0.6-1.3,0.8-1.3,0.8l-6.9,2.1c-0.1,2.1-0.2,4.1-0.2,6.2c0,1.9,0.1,3.7,0.2,5.6c0.4-0.1,4.6-1.7,5.3-1.9
			c0.7-0.2,1.9-0.4,2.7,1l-3,4.7l-4.6,2.3c0.2,1.4,0.3,2.7,0.6,4.1l-23,36.3c-10.9,17.1-3.2,31.1,17.1,31.1h51.2l-0.6,2.6
			c3.3,2.2,6.7,4.2,10.2,6c0-0.1,0.9-4.8,1-5.6c0.1-0.8,0.8-2.2,3-1.8c2.2,0.4,1.9,2.8,1.9,2.8l-0.5,7.2c3.8,1.7,7.7,3.1,11.7,4.3
			v-5.7c0-0.8,0.4-2.3,2.6-2.3c2.2,0,2.4,2.4,2.4,2.4l0.8,7.2c3.8,0.9,7.7,1.6,11.6,2.1c-0.1-0.3-0.8-4.8-1-5.6
			c-0.1-0.8,0-2.1,1.7-2.6l1.2-11h2.5l-1.3,11.5c0.6,0.6,0.8,1.3,0.8,1.3l2,6.9c2.1,0.1,4.1,0.2,6.2,0.2c1.9,0,3.7-0.1,5.6-0.2
			c-0.1-0.4-1.7-4.6-1.9-5.3c-0.3-0.8-0.4-2.3,1.7-3.1c2.1-0.8,3.1,1.4,3.1,1.4l3.2,6.4c4-0.4,7.8-1.1,11.7-2c0-0.1-2.4-4.2-2.8-4.9
			c-0.4-0.7-0.8-2.2,1.1-3.3c1.9-1.1,3.3,0.9,3.3,0.9l4.3,5.8c3.8-1.1,7.5-2.5,11.1-4c0,0-3.1-3.7-3.6-4.4c-0.5-0.6-1.2-2,0.5-3.5
			c1.7-1.4,3.4,0.3,3.4,0.3l5.2,5c3.5-1.8,7-3.7,10.3-5.9c-0.1-0.1-2.8-2.4-3.9-3.3h52.3C109.1,691,116.8,677,105.9,659.9z
			 M89.2,679.3h-212.9c-8.7,0-12-6-7.3-13.3L-25.9,502c4.7-7.3,12.4-7.3,17.1,0L96.5,665.9C101.2,673.3,97.9,679.3,89.2,679.3z"/>
		<path class="st1" d="M-22.8,621.8L-23,622l-0.1,0.1l-0.1,0.1l-0.1,0l0,0l0,0l0,0l0,0l-0.1,0.1l-0.1,0l0,0l0,0l0,0l0,0l-0.1,0.1
			l-0.1,0.1l0,0l0,0l0,0l-0.2,0.1l-0.2,0.1l-0.1,0.1l-0.1,0.1l-0.2,0.1l0,0l0,0l0,0l-0.1,0.1l-0.2,0.1l-0.2,0.1l-0.1,0.1l-0.1,0
			l-0.1,0l-2.2,0.7l-0.2,0l-0.2,0.1l-0.1,0.1l-0.1,0l-0.1,0l-0.1,0l-0.1,0l0,0l0,0.1l0,0l0,0.1l-0.1,0.1l0,0l0,0.1l0,0.1v0.1l0,0.1
			l0,0.1l0,0.2l0.1,0.2l0.1,0.2l0.1,0.2l0.1,0.1l0.1,0.1l0.6,0.6l0.6,0.6l0.6,0.6l0.6,0.6l0.6,0.6l0.3,0.3l0.3,0.3l0.7,0.6l0.7,0.6
			l0.9-0.3l0.3-0.5l0.3-0.5l0.3-0.4l0.3-0.4l0.2-0.3l0.2-0.2l0.2-0.2l0.2-0.2l1.1-1l0.4-0.3l0.6-0.5c0-0.1,0-0.3,0-0.4
			C-19.2,625.1-20.7,623.7-22.8,621.8z"/>
		<path class="st1" d="M2.8,606l0.9-0.8l0.9-0.8l0.9-0.8l0.4-0.3c-1.3-0.9-2.3-2-2.9-3.5l-0.2,0.1l-0.2,0.2l-1,0.8l-1,0.8l-1,0.8
			l-0.5,0.4l-0.5,0.4l-0.5,0.4l-0.5,0.4l-0.5,0.4l-0.2,0.2l-0.1,0.1l-0.1,0.1l-0.9,0.7l-4.4,3.4l-0.8,0.6l-0.5,0.4l-0.5,0.4
			l-0.3,0.3l-0.6,0.5l-0.6,0.5l-0.2,0.1l-0.2,0.1l-0.5,0.4l-0.5,0.4l-0.4,0.4l-0.5,0.5l-0.5,0.5l-0.4,0.4l-0.4,0.3l-0.2,0.1
			c2.1,1.7,3.4,2.7,4.1,3c0.1,0,0.2,0,0.3,0c0.5,0,1,0,1.7,0.1l0.6-0.6l0.4-0.3l0.8-0.7l0.3-0.3l0.8-0.8l0.3-0.3l0.5-0.4l0.4-0.4
			l0.8-0.7l0.8-0.7l0.8-0.7l0.7-0.7l1.7-2.1l0.8-0.8l0.8-0.8l0.8-0.8L2.8,606z"/>
		<path class="st1" d="M15.4,646.3v-43.6c2.3-1.4,3.8-4,3.8-6.9c0-0.7-0.1-1.4-0.3-2.1l-0.3,0.3l-1,0.8l-1,0.8l-1,0.8l-0.5,0.4v0.7
			l-2.2,2.2h-1.1H9.8H9.6l-2.5-2.2v-1.5v-1.8v-0.1l2.5-2.6h0.5l1-0.9l0.5-0.4l0.5-0.4l0.2-0.2l0.2-0.2L13,589l0.5-0.5l0.4-0.4
			c-0.8-0.3-1.7-0.4-2.6-0.4c-4.5,0-8.1,3.6-8.1,8.1c0,1.2,0.2,2.3,0.7,3.3c0.6,1.4,1.6,2.6,2.9,3.5c0.2,0.1,0.3,0.2,0.5,0.3v43.4
			c-3.4,1.5-5.9,5-5.9,9c0,3.1,1.4,5.9,3.7,7.7l0.9,0l0-6.2l5.3-4.2l5.4,4.2l0,6.2l0.8,0l0.1,0c2.3-1.8,3.7-4.6,3.7-7.7
			C21.2,651.3,18.8,647.8,15.4,646.3z M12.1,644.9c0,0.2-0.1,0.3-0.1,0.5c-0.2,0.3-0.5,0.5-0.9,0.5c-0.4,0-0.7-0.2-0.9-0.5
			c-0.1-0.1-0.1-0.3-0.1-0.5v-37.2c0-0.6,0.5-1,1-1c0.6,0,1,0.5,1,1V644.9z"/>
		<path class="st1" d="M-47.3,589.2c-1.3-1.2-2.1-2-2.1-2.2c-0.3-1.1-0.1-3.7-2.1-5.5c-1.8-1.6-3.4-2-4.4-2c-0.1,0-0.3,0-0.4,0
			c-0.8,0-1.4,0.1-1.8,0.2c-0.3,0.1-0.6,0.2-0.9,0.3c-0.2,0.1-0.3,0.2-0.3,0.2l3.5,3.2c0.2,0.9,0.1,1.6-0.1,2.2
			c-0.2,0.3-0.4,0.8-0.7,1c-0.3,0.2-0.5,0.4-0.8,0.6c-0.2,0.1-0.5,0.2-0.7,0.3l-3.3-2.9l-1.6,0.1c0,0-0.8,3.2,2.4,6
			c1.2,1,2.5,1.2,3.6,1.2c1.1,0,2-0.2,2.4-0.2c0,0,0,0,0.1,0c0.2,0,3.1,2.5,7.3,6V589.2z"/>
		<path class="st1" d="M-5.6,621.7c-2.5-2.2-4.8-1.8-6.2-1.9c-2.4-0.8-19.2-15.6-29.5-25.1v8c10.9,9.5,24.7,21.6,24.8,22
			c0.1,0.7,0.3,4.4,2.2,6.3c1.4,1.4,2.7,1.8,3.7,1.8c0.4,0,0.8-0.1,1.2-0.2c1.2-0.1,2-0.6,2-0.6l-3.3-3.2c0,0,0,0,0,0c0,0,0,0,0,0
			c0-0.3,0.1-3.1,2.7-4c0,0,0,0,0,0l3.4,3.1l1.2-0.1C-3.5,627.9-2.6,624.5-5.6,621.7z"/>
		<polygon class="st1" points="32,597.2 31.9,596.7 31.8,596.3 31.7,595.9 31.6,595.4 31.5,595 31.4,594.6 31.2,594.1 31.1,593.7 
			31,593.3 30.8,592.8 30.7,592.4 30.5,592 30.2,591.1 30,590.7 29.8,590.2 29.4,589.4 29,588.5 28.6,587.7 28.2,586.8 28,586.4 
			27.7,585.9 27.3,585.1 26.8,584.2 26.5,583.8 26.3,583.3 26,582.9 25.7,582.6 25.5,582.2 25.2,581.8 24.9,581.5 24.6,581.2 
			24.3,580.9 24,580.7 23.8,580.5 23.4,580.2 23.1,580 22.8,579.9 22.5,579.7 22.2,579.6 22.1,579.6 22,579.7 21.8,579.7 
			21.7,579.7 21.6,579.7 21.5,579.7 21.3,579.7 21.3,579.7 21.2,579.7 21.2,579.7 21.1,579.7 21,579.6 20.9,579.6 20.8,579.6 
			20.8,579.5 20.7,579.5 20.6,579.4 20.5,579.3 20.4,579.3 20.3,579.2 20.3,579.2 20.2,579 20.1,578.9 20,578.9 20,578.8 
			19.9,578.7 19.8,578.5 19.8,578.5 19.7,578.4 19.7,578.4 19.6,578.2 19.6,578.1 19.5,577.9 19.4,577.7 19.3,577.5 19.3,577.4 
			19.3,577.3 19.2,577.1 19.1,576.9 19.1,576.6 19,576.4 16.7,574 16.5,574.1 16.2,574.2 16,574.3 15.7,574.3 15.5,574.4 
			15.3,574.5 15.1,574.6 14.9,574.7 14.7,574.8 14.5,574.9 14.4,575 14.2,575.1 14.1,575.2 14,575.4 13.8,575.5 13.7,575.6 
			13.6,575.8 13.5,576 13.4,576.1 13.3,576.3 13.2,576.5 13.2,576.7 13.1,576.9 13.1,577.2 15,579.8 15.2,579.9 15.5,579.9 
			15.7,580 15.9,580 16.3,580.2 16.7,580.4 17.1,580.6 17.4,580.8 17.5,581 17.6,581.1 17.8,581.3 17.9,581.4 18,581.6 18.1,581.8 
			18.1,582 18.2,582.2 18.3,582.3 18.3,582.6 18.4,582.8 18.4,583 18.5,583.2 18.5,583.5 18.5,583.7 18.5,584 18.5,584.5 
			18.4,585.1 18.2,585.2 18.1,585.3 17.8,585.5 17.7,585.7 17.5,585.8 17.3,586 17.2,586.1 17.1,586.2 17.1,586.4 17,586.5 
			16.9,586.7 16.9,586.9 16.8,587 15.9,588 15.6,588.2 15.5,588.3 15.4,588.5 14.9,589 14.4,589.4 13.9,589.9 13.4,590.4 
			13.2,590.6 12.9,590.9 12.5,591.3 12,591.8 8.8,594.6 8.8,596.1 11.3,598.3 11.4,598.3 14.8,595.4 15.8,594.6 16.8,593.8 
			17.8,592.9 18.9,592.1 20,591.2 20.1,591.2 20.1,591.2 20.1,591.2 20.3,591.2 20.4,591.2 20.5,591.2 20.7,591.2 21,591.1 
			21.2,591.1 21.4,591 21.6,591 21.7,590.9 21.7,590.9 21.8,590.9 21.9,590.8 22.2,590.7 22.5,590.6 22.8,590.5 23.1,590.3 
			23.3,590.3 23.5,590.2 23.8,590 23.9,590 24,589.9 24.1,589.8 24.3,589.8 24.5,589.8 24.6,589.8 24.8,589.8 24.9,589.8 25,589.9 
			25.2,590 25.3,590.1 25.4,590.2 25.5,590.3 25.6,590.5 25.7,590.6 25.8,590.8 25.8,591 25.9,591.3 26,591.5 26.4,591.8 26.5,592 
			26.7,592.2 27.1,592.6 27.4,593 27.8,593.4 28.1,593.8 28.4,594.3 28.6,594.5 28.7,594.8 29,595.3 29.3,595.8 29.6,596.3 
			29.8,596.6 29.9,596.9 30.1,597.5 30.4,598.1 30.6,598.7 30.9,599.3 31.1,599.4 31.4,599.4 31.6,599.4 31.9,599.4 32.1,599.3 
			32.3,599.3 32.4,599.2 32.6,599.1 32.2,598 		"/>
		<path class="st1" d="M-39.7,629.8C-39.7,629.8-39.7,629.8-39.7,629.8C-39.7,629.7-39.7,629.7-39.7,629.8c0-0.5-1-0.8-2.5-1
			c-0.2,0-1-0.1-1.3-0.1v-46.9c0,0,0.6-1.5,0.6-1.5l-0.7-4.8h-1.8l-0.7,4.8c0,0,0.8,1.4,0.8,1.4v46.9c-0.2,0,0,0-0.3,0
			c-1.5,0.1-2.5,0.4-2.5,0.8c0,0,0,0,0,0c0,0,0,0.1,0,0.1c0,0.2,0.1,0.3,0.4,0.5c0.4,0.5,0.9,1.3,0.9,2.2c-0.2,0.4-0.4,1-0.5,1.5
			c-0.5,6.3-1.1,19.3-1.6,25.5c-0.2,1.6,0.8,5.2,3.3,5.7c0.4,0.1,0.8,0.1,1.3,0.1c0.4,0,0.7,0,1-0.1c2.5-0.5,3.6-3.9,3.5-5.6
			c-0.3-6.3-0.6-19.3-0.9-25.6c0-0.5-0.2-1.1-0.4-1.5c0-0.9,0.6-1.7,1-2.1C-39.8,630.1-39.7,630-39.7,629.8z"/>
	</g>
</g>
</svg>
