  0
SECTION
  2
HEADER
  9
$ACADVER
  1
AC1014
  9
$HANDSEED
  5
FFFF
  9
$INSUNITS
 70
     0
  9
$MEASUREMENT
 70
     1
  0
ENDSEC
  0
SECTION
  2
TABLES
  0
TABLE
  2
VPORT
  5
8
330
0
100
AcDbSymbolTable
 70
     4
  0
VPORT
  5
2E
330
8
100
AcDbSymbolTableRecord
100
AcDbViewportTableRecord
  2
*ACTIVE
 70
     0
 10
0.0
 20
0.0
 11
1.0
 21
1.0
 12
210.0
 22
148.5
 13
0.0
 23
0.0
 14
10.0
 24
10.0
 15
10.0
 25
10.0
 16
0.0
 26
0.0
 36
1.0
 17
0.0
 27
0.0
 37
0.0
 40
341.0
 41
1.24
 42
50.0
 43
0.0
 44
0.0
 50
0.0
 51
0.0
 71
     0
 72
   100
 73
     1
 74
     3
 75
     0
 76
     0
 77
     0
 78
     0
  0
ENDTAB
  0
TABLE
  2
LTYPE
  5
5
330
0
100
AcDbSymbolTable
 70
     1
  0
LTYPE
  5
14
330
5
100
AcDbSymbolTableRecord
100
AcDbLinetypeTableRecord
  2
BYBLOCK
 70
     0
  3

 72
    65
 73
     0
 40
0.0
  0
LTYPE
  5
15
330
5
100
AcDbSymbolTableRecord
100
AcDbLinetypeTableRecord
  2
BYLAYER
 70
     0
  3

 72
    65
 73
     0
 40
0.0
  0
LTYPE
  5
16
330
5
100
AcDbSymbolTableRecord
100
AcDbLinetypeTableRecord
  2
CONTINUOUS
 70
     0
  3
Solid line
 72
    65
 73
     0
 40
0.0
  0
ENDTAB
  0
TABLE
  2
LAYER
  5
2
100
AcDbSymbolTable
 70
1
  0
LAYER
  5
50
100
AcDbSymbolTableRecord
100
AcDbLayerTableRecord
  2
0
 70
0
  6
CONTINUOUS
  0
ENDTAB
  0
TABLE
  2
STYLE
  5
3
330
0
100
AcDbSymbolTable
 70
     1
  0
STYLE
  5
11
330
3
100
AcDbSymbolTableRecord
100
AcDbTextStyleTableRecord
  2
STANDARD
 70
     0
 40
0.0
 41
1.0
 50
0.0
 71
     0
 42
2.5
  3
txt
  4

  0
ENDTAB
  0
TABLE
  2
VIEW
  5
6
330
0
100
AcDbSymbolTable
 70
     0
  0
ENDTAB
  0
TABLE
  2
UCS
  5
7
330
0
100
AcDbSymbolTable
 70
     0
  0
ENDTAB
  0
TABLE
  2
APPID
  5
9
330
0
100
AcDbSymbolTable
 70
     2
  0
APPID
  5
12
330
9
100
AcDbSymbolTableRecord
100
AcDbRegAppTableRecord
  2
ACAD
 70
     0
  0
ENDTAB
  0
TABLE
  2
DIMSTYLE
  5
A
330
0
100
AcDbSymbolTable
 70
     1
  0
DIMSTYLE
105
27
330
A
100
AcDbSymbolTableRecord
100
AcDbDimStyleTableRecord
  2
ISO-25
 70
     0
  3

  4

  5

  6

  7

 40
1.0
 41
2.5
 42
0.625
 43
3.75
 44
1.25
 45
0.0
 46
0.0
 47
0.0
 48
0.0
140
2.5
141
2.5
142
0.0
143
0.03937007874016
144
1.0
145
0.0
146
1.0
147
0.625
 71
     0
 72
     0
 73
     0
 74
     0
 75
     0
 76
     0
 77
     1
 78
     8
170
     0
171
     3
172
     1
173
     0
174
     0
175
     0
176
     0
177
     0
178
     0
270
     2
271
     2
272
     2
273
     2
274
     3
340
11
275
     0
280
     0
281
     0
282
     0
283
     0
284
     8
285
     0
286
     0
287
     3
288
     0
  0
ENDTAB
  0
TABLE
  2
BLOCK_RECORD
  5
1
330
0
100
AcDbSymbolTable
 70
     1
  0
BLOCK_RECORD
  5
1F
330
1
100
AcDbSymbolTableRecord
100
AcDbBlockTableRecord
  2
*MODEL_SPACE
  0
BLOCK_RECORD
  5
1B
330
1
100
AcDbSymbolTableRecord
100
AcDbBlockTableRecord
  2
*PAPER_SPACE
  0
ENDTAB
  0
ENDSEC
  0
SECTION
  2
BLOCKS
  0
BLOCK
  5
20
330
1F
100
AcDbEntity
  8
0
100
AcDbBlockBegin
  2
*MODEL_SPACE
 70
     0
 10
0.0
 20
0.0
 30
0.0
  3
*MODEL_SPACE
  1

  0
ENDBLK
  5
21
330
1F
100
AcDbEntity
  8
0
100
AcDbBlockEnd
  0
BLOCK
  5
1C
330
1B
100
AcDbEntity
 67
     1
  8
0
100
AcDbBlockBegin
  2
*PAPER_SPACE
  1

  0
ENDBLK
  5
1D
330
1B
100
AcDbEntity
 67
     1
  8
0
100
AcDbBlockEnd
  0
ENDSEC
  0
SECTION
  2
ENTITIES
  0
LWPOLYLINE
  5
100
100
AcDbEntity
  8
0
 62
7
100
AcDbPolyline
 90
5
 70
1
 10
196.800000
 20
-302.900000
 30
0.0
 10
198.700000
 20
-302.900000
 30
0.0
 10
205.000000
 20
-327.200000
 30
0.0
 10
190.400000
 20
-327.200000
 30
0.0
 10
196.800000
 20
-302.900000
 30
0.0
  0
SPLINE
  5
101
100
AcDbEntity
  8
0
 62
7
100
AcDbSpline
 70
8
 71
3
 72
8
 73
4
 74
0
 40
0
 40
0
 40
0
 40
0
 40
1
 40
1
 40
1
 40
1
 10
309.300000
 20
-312.000000
 30
0.0
 10
309.300000
 20
-318.500000
 30
0.0
 10
306.700000
 20
-321.600000
 30
0.0
 10
301.000000
 20
-321.600000
 30
0.0
  0
LWPOLYLINE
  5
102
100
AcDbEntity
  8
0
 62
7
100
AcDbPolyline
 90
9
 70
1
 10
181.400000
 20
-342.800000
 30
0.0
 10
186.300000
 20
-342.800000
 30
0.0
 10
189.400000
 20
-331.500000
 30
0.0
 10
206.000000
 20
-331.500000
 30
0.0
 10
209.100000
 20
-342.800000
 30
0.0
 10
214.000000
 20
-342.800000
 30
0.0
 10
202.600000
 20
-298.500000
 30
0.0
 10
192.900000
 20
-298.500000
 30
0.0
 10
181.400000
 20
-342.800000
 30
0.0
  0
SPLINE
  5
103
100
AcDbEntity
  8
0
 62
7
100
AcDbSpline
 70
8
 71
3
 72
8
 73
4
 74
0
 40
0
 40
0
 40
0
 40
0
 40
1
 40
1
 40
1
 40
1
 10
301.000000
 20
-302.800000
 30
0.0
 10
306.700000
 20
-302.800000
 30
0.0
 10
309.300000
 20
-305.800000
 30
0.0
 10
309.300000
 20
-312.000000
 30
0.0
  0
LWPOLYLINE
  5
104
100
AcDbEntity
  8
0
 62
7
100
AcDbPolyline
 90
4
 70
0
 10
301.000000
 20
-321.600000
 30
0.0
 10
291.300000
 20
-321.600000
 30
0.0
 10
291.300000
 20
-302.800000
 30
0.0
 10
301.000000
 20
-302.800000
 30
0.0
  0
LWPOLYLINE
  5
105
100
AcDbEntity
  8
0
 62
7
100
AcDbPolyline
 90
1
 70
1
 10
309.300000
 20
-312.000000
 30
0.0
  0
SPLINE
  5
106
100
AcDbEntity
  8
0
 62
7
100
AcDbSpline
 70
8
 71
3
 72
8
 73
4
 74
0
 40
0
 40
0
 40
0
 40
0
 40
1
 40
1
 40
1
 40
1
 10
306.900000
 20
-324.900000
 30
0.0
 10
311.100000
 20
-323.400000
 30
0.0
 10
314.300000
 20
-320.100000
 30
0.0
 10
314.300000
 20
-312.000000
 30
0.0
  0
SPLINE
  5
107
100
AcDbEntity
  8
0
 62
7
100
AcDbSpline
 70
8
 71
3
 72
8
 73
4
 74
0
 40
0
 40
0
 40
0
 40
0
 40
1
 40
1
 40
1
 40
1
 10
314.300000
 20
-312.000000
 30
0.0
 10
314.300000
 20
-302.700000
 30
0.0
 10
309.700000
 20
-298.600000
 30
0.0
 10
301.000000
 20
-298.600000
 30
0.0
  0
LWPOLYLINE
  5
108
100
AcDbEntity
  8
0
 62
7
100
AcDbPolyline
 90
3
 70
0
 10
310.100000
 20
-342.800000
 30
0.0
 10
315.400000
 20
-342.800000
 30
0.0
 10
306.900000
 20
-324.900000
 30
0.0
  0
SPLINE
  5
109
100
AcDbEntity
  8
0
 62
7
100
AcDbSpline
 70
8
 71
3
 72
8
 73
4
 74
0
 40
0
 40
0
 40
0
 40
0
 40
1
 40
1
 40
1
 40
1
 10
358.400000
 20
-299.200000
 30
0.0
 10
358.400000
 20
-299.200000
 30
0.0
 10
351.600000
 20
-297.900000
 30
0.0
 10
346.600000
 20
-297.900000
 30
0.0
  0
SPLINE
  5
10a
100
AcDbEntity
  8
0
 62
7
100
AcDbSpline
 70
8
 71
3
 72
8
 73
4
 74
0
 40
0
 40
0
 40
0
 40
0
 40
1
 40
1
 40
1
 40
1
 10
346.600000
 20
-297.900000
 30
0.0
 10
337.800000
 20
-297.900000
 30
0.0
 10
333.000000
 20
-301.700000
 30
0.0
 10
333.000000
 20
-310.200000
 30
0.0
  0
SPLINE
  5
10b
100
AcDbEntity
  8
0
 62
7
100
AcDbSpline
 70
8
 71
3
 72
8
 73
4
 74
0
 40
0
 40
0
 40
0
 40
0
 40
1
 40
1
 40
1
 40
1
 10
333.000000
 20
-310.200000
 30
0.0
 10
333.000000
 20
-317.700000
 30
0.0
 10
337.400000
 20
-320.200000
 30
0.0
 10
345.600000
 20
-322.200000
 30
0.0
  0
SPLINE
  5
10c
100
AcDbEntity
  8
0
 62
7
100
AcDbSpline
 70
8
 71
3
 72
8
 73
4
 74
0
 40
0
 40
0
 40
0
 40
0
 40
1
 40
1
 40
1
 40
1
 10
345.600000
 20
-322.200000
 30
0.0
 10
351.600000
 20
-323.500000
 30
0.0
 10
354.600000
 20
-325.000000
 30
0.0
 10
354.600000
 20
-330.400000
 30
0.0
  0
SPLINE
  5
10d
100
AcDbEntity
  8
0
 62
7
100
AcDbSpline
 70
8
 71
3
 72
8
 73
4
 74
0
 40
0
 40
0
 40
0
 40
0
 40
1
 40
1
 40
1
 40
1
 10
354.600000
 20
-330.400000
 30
0.0
 10
354.600000
 20
-336.200000
 30
0.0
 10
352.000000
 20
-339.200000
 30
0.0
 10
346.300000
 20
-339.200000
 30
0.0
  0
SPLINE
  5
10e
100
AcDbEntity
  8
0
 62
7
100
AcDbSpline
 70
8
 71
3
 72
8
 73
4
 74
0
 40
0
 40
0
 40
0
 40
0
 40
1
 40
1
 40
1
 40
1
 10
346.300000
 20
-339.200000
 30
0.0
 10
342.100000
 20
-339.200000
 30
0.0
 10
333.900000
 20
-338.300000
 30
0.0
 10
333.900000
 20
-338.300000
 30
0.0
  0
LWPOLYLINE
  5
10f
100
AcDbEntity
  8
0
 62
7
100
AcDbPolyline
 90
8
 70
0
 10
301.000000
 20
-298.600000
 30
0.0
 10
286.400000
 20
-298.600000
 30
0.0
 10
286.400000
 20
-342.900000
 30
0.0
 10
291.300000
 20
-342.900000
 30
0.0
 10
291.300000
 20
-325.900000
 30
0.0
 10
302.200000
 20
-325.900000
 30
0.0
 10
310.100000
 20
-342.800000
 30
0.0
 10
310.100000
 20
-342.800000
 30
0.0
  0
SPLINE
  5
110
100
AcDbEntity
  8
0
 62
7
100
AcDbSpline
 70
8
 71
3
 72
8
 73
4
 74
0
 40
0
 40
0
 40
0
 40
0
 40
1
 40
1
 40
1
 40
1
 10
333.600000
 20
-342.300000
 30
0.0
 10
333.600000
 20
-342.300000
 30
0.0
 10
341.300000
 20
-343.500000
 30
0.0
 10
346.300000
 20
-343.500000
 30
0.0
  0
SPLINE
  5
111
100
AcDbEntity
  8
0
 62
7
100
AcDbSpline
 70
8
 71
3
 72
8
 73
4
 74
0
 40
0
 40
0
 40
0
 40
0
 40
1
 40
1
 40
1
 40
1
 10
346.300000
 20
-343.500000
 30
0.0
 10
355.400000
 20
-343.500000
 30
0.0
 10
359.600000
 20
-338.800000
 30
0.0
 10
359.600000
 20
-329.900000
 30
0.0
  0
SPLINE
  5
112
100
AcDbEntity
  8
0
 62
7
100
AcDbSpline
 70
8
 71
3
 72
8
 73
4
 74
0
 40
0
 40
0
 40
0
 40
0
 40
1
 40
1
 40
1
 40
1
 10
359.600000
 20
-329.900000
 30
0.0
 10
359.600000
 20
-322.000000
 30
0.0
 10
355.600000
 20
-319.800000
 30
0.0
 10
347.700000
 20
-317.800000
 30
0.0
  0
SPLINE
  5
113
100
AcDbEntity
  8
0
 62
7
100
AcDbSpline
 70
8
 71
3
 72
8
 73
4
 74
0
 40
0
 40
0
 40
0
 40
0
 40
1
 40
1
 40
1
 40
1
 10
347.700000
 20
-317.800000
 30
0.0
 10
341.000000
 20
-316.100000
 30
0.0
 10
338.100000
 20
-315.000000
 30
0.0
 10
338.100000
 20
-309.700000
 30
0.0
  0
SPLINE
  5
114
100
AcDbEntity
  8
0
 62
7
100
AcDbSpline
 70
8
 71
3
 72
8
 73
4
 74
0
 40
0
 40
0
 40
0
 40
0
 40
1
 40
1
 40
1
 40
1
 10
338.100000
 20
-309.700000
 30
0.0
 10
338.100000
 20
-304.400000
 30
0.0
 10
341.000000
 20
-302.300000
 30
0.0
 10
346.900000
 20
-302.300000
 30
0.0
  0
SPLINE
  5
115
100
AcDbEntity
  8
0
 62
7
100
AcDbSpline
 70
8
 71
3
 72
8
 73
4
 74
0
 40
0
 40
0
 40
0
 40
0
 40
1
 40
1
 40
1
 40
1
 10
346.900000
 20
-302.300000
 30
0.0
 10
351.200000
 20
-302.300000
 30
0.0
 10
358.200000
 20
-303.200000
 30
0.0
 10
358.200000
 20
-303.200000
 30
0.0
  0
LWPOLYLINE
  5
116
100
AcDbEntity
  8
0
 62
7
100
AcDbPolyline
 90
2
 70
0
 10
333.900000
 20
-338.300000
 30
0.0
 10
333.600000
 20
-342.300000
 30
0.0
  0
LWPOLYLINE
  5
117
100
AcDbEntity
  8
0
 62
7
100
AcDbPolyline
 90
3
 70
0
 10
358.200000
 20
-303.200000
 30
0.0
 10
358.400000
 20
-299.200000
 30
0.0
 10
358.400000
 20
-299.200000
 30
0.0
  0
LWPOLYLINE
  5
118
100
AcDbEntity
  8
0
 62
7
100
AcDbPolyline
 90
5
 70
1
 10
148.100000
 20
-369.000000
 30
0.0
 10
150.000000
 20
-369.000000
 30
0.0
 10
156.300000
 20
-393.300000
 30
0.0
 10
141.700000
 20
-393.300000
 30
0.0
 10
148.100000
 20
-369.000000
 30
0.0
  0
SPLINE
  5
119
100
AcDbEntity
  8
0
 62
7
100
AcDbSpline
 70
8
 71
3
 72
8
 73
4
 74
0
 40
0
 40
0
 40
0
 40
0
 40
1
 40
1
 40
1
 40
1
 10
194.400000
 20
-365.300000
 30
0.0
 10
194.400000
 20
-365.300000
 30
0.0
 10
187.600000
 20
-364.000000
 30
0.0
 10
182.600000
 20
-364.000000
 30
0.0
  0
SPLINE
  5
11a
100
AcDbEntity
  8
0
 62
7
100
AcDbSpline
 70
8
 71
3
 72
8
 73
4
 74
0
 40
0
 40
0
 40
0
 40
0
 40
1
 40
1
 40
1
 40
1
 10
182.600000
 20
-364.000000
 30
0.0
 10
173.800000
 20
-364.000000
 30
0.0
 10
169.000000
 20
-367.800000
 30
0.0
 10
169.000000
 20
-376.300000
 30
0.0
  0
SPLINE
  5
11b
100
AcDbEntity
  8
0
 62
7
100
AcDbSpline
 70
8
 71
3
 72
8
 73
4
 74
0
 40
0
 40
0
 40
0
 40
0
 40
1
 40
1
 40
1
 40
1
 10
169.000000
 20
-376.300000
 30
0.0
 10
169.000000
 20
-383.800000
 30
0.0
 10
173.400000
 20
-386.300000
 30
0.0
 10
181.600000
 20
-388.300000
 30
0.0
  0
SPLINE
  5
11c
100
AcDbEntity
  8
0
 62
7
100
AcDbSpline
 70
8
 71
3
 72
8
 73
4
 74
0
 40
0
 40
0
 40
0
 40
0
 40
1
 40
1
 40
1
 40
1
 10
181.600000
 20
-388.300000
 30
0.0
 10
187.600000
 20
-389.600000
 30
0.0
 10
190.600000
 20
-391.100000
 30
0.0
 10
190.600000
 20
-396.500000
 30
0.0
  0
SPLINE
  5
11d
100
AcDbEntity
  8
0
 62
7
100
AcDbSpline
 70
8
 71
3
 72
8
 73
4
 74
0
 40
0
 40
0
 40
0
 40
0
 40
1
 40
1
 40
1
 40
1
 10
190.600000
 20
-396.500000
 30
0.0
 10
190.600000
 20
-402.300000
 30
0.0
 10
188.000000
 20
-405.300000
 30
0.0
 10
182.300000
 20
-405.300000
 30
0.0
  0
SPLINE
  5
11e
100
AcDbEntity
  8
0
 62
7
100
AcDbSpline
 70
8
 71
3
 72
8
 73
4
 74
0
 40
0
 40
0
 40
0
 40
0
 40
1
 40
1
 40
1
 40
1
 10
182.300000
 20
-405.300000
 30
0.0
 10
178.100000
 20
-405.300000
 30
0.0
 10
169.900000
 20
-404.400000
 30
0.0
 10
169.900000
 20
-404.400000
 30
0.0
  0
LWPOLYLINE
  5
11f
100
AcDbEntity
  8
0
 62
7
100
AcDbPolyline
 90
9
 70
1
 10
132.700000
 20
-408.900000
 30
0.0
 10
137.600000
 20
-408.900000
 30
0.0
 10
140.700000
 20
-397.600000
 30
0.0
 10
157.300000
 20
-397.600000
 30
0.0
 10
160.400000
 20
-408.900000
 30
0.0
 10
165.300000
 20
-408.900000
 30
0.0
 10
153.900000
 20
-364.600000
 30
0.0
 10
144.200000
 20
-364.600000
 30
0.0
 10
132.700000
 20
-408.900000
 30
0.0
  0
SPLINE
  5
120
100
AcDbEntity
  8
0
 62
7
100
AcDbSpline
 70
8
 71
3
 72
8
 73
4
 74
0
 40
0
 40
0
 40
0
 40
0
 40
1
 40
1
 40
1
 40
1
 10
169.600000
 20
-408.400000
 30
0.0
 10
169.600000
 20
-408.400000
 30
0.0
 10
177.300000
 20
-409.600000
 30
0.0
 10
182.300000
 20
-409.600000
 30
0.0
  0
SPLINE
  5
121
100
AcDbEntity
  8
0
 62
7
100
AcDbSpline
 70
8
 71
3
 72
8
 73
4
 74
0
 40
0
 40
0
 40
0
 40
0
 40
1
 40
1
 40
1
 40
1
 10
182.300000
 20
-409.600000
 30
0.0
 10
191.400000
 20
-409.600000
 30
0.0
 10
195.600000
 20
-404.900000
 30
0.0
 10
195.600000
 20
-396.000000
 30
0.0
  0
SPLINE
  5
122
100
AcDbEntity
  8
0
 62
7
100
AcDbSpline
 70
8
 71
3
 72
8
 73
4
 74
0
 40
0
 40
0
 40
0
 40
0
 40
1
 40
1
 40
1
 40
1
 10
195.600000
 20
-396.000000
 30
0.0
 10
195.600000
 20
-388.100000
 30
0.0
 10
191.600000
 20
-385.900000
 30
0.0
 10
183.700000
 20
-383.900000
 30
0.0
  0
SPLINE
  5
123
100
AcDbEntity
  8
0
 62
7
100
AcDbSpline
 70
8
 71
3
 72
8
 73
4
 74
0
 40
0
 40
0
 40
0
 40
0
 40
1
 40
1
 40
1
 40
1
 10
183.700000
 20
-383.900000
 30
0.0
 10
177.000000
 20
-382.200000
 30
0.0
 10
174.100000
 20
-381.100000
 30
0.0
 10
174.100000
 20
-375.800000
 30
0.0
  0
SPLINE
  5
124
100
AcDbEntity
  8
0
 62
7
100
AcDbSpline
 70
8
 71
3
 72
8
 73
4
 74
0
 40
0
 40
0
 40
0
 40
0
 40
1
 40
1
 40
1
 40
1
 10
174.100000
 20
-375.800000
 30
0.0
 10
174.100000
 20
-370.500000
 30
0.0
 10
177.000000
 20
-368.400000
 30
0.0
 10
182.900000
 20
-368.400000
 30
0.0
  0
SPLINE
  5
125
100
AcDbEntity
  8
0
 62
7
100
AcDbSpline
 70
8
 71
3
 72
8
 73
4
 74
0
 40
0
 40
0
 40
0
 40
0
 40
1
 40
1
 40
1
 40
1
 10
182.900000
 20
-368.400000
 30
0.0
 10
187.200000
 20
-368.400000
 30
0.0
 10
194.200000
 20
-369.300000
 30
0.0
 10
194.200000
 20
-369.300000
 30
0.0
  0
LWPOLYLINE
  5
126
100
AcDbEntity
  8
0
 62
7
100
AcDbPolyline
 90
2
 70
0
 10
169.900000
 20
-404.400000
 30
0.0
 10
169.600000
 20
-408.400000
 30
0.0
  0
LWPOLYLINE
  5
127
100
AcDbEntity
  8
0
 62
7
100
AcDbPolyline
 90
3
 70
0
 10
194.200000
 20
-369.300000
 30
0.0
 10
194.400000
 20
-365.300000
 30
0.0
 10
194.400000
 20
-365.300000
 30
0.0
  0
SPLINE
  5
128
100
AcDbEntity
  8
0
 62
7
100
AcDbSpline
 70
8
 71
3
 72
8
 73
4
 74
0
 40
0
 40
0
 40
0
 40
0
 40
1
 40
1
 40
1
 40
1
 10
261.000000
 20
-395.400000
 30
0.0
 10
261.000000
 20
-405.100000
 30
0.0
 10
265.600000
 20
-409.500000
 30
0.0
 10
275.400000
 20
-409.500000
 30
0.0
  0
SPLINE
  5
129
100
AcDbEntity
  8
0
 62
7
100
AcDbSpline
 70
8
 71
3
 72
8
 73
4
 74
0
 40
0
 40
0
 40
0
 40
0
 40
1
 40
1
 40
1
 40
1
 10
275.400000
 20
-409.500000
 30
0.0
 10
285.300000
 20
-409.500000
 30
0.0
 10
289.900000
 20
-405.100000
 30
0.0
 10
289.900000
 20
-395.400000
 30
0.0
  0
LWPOLYLINE
  5
12a
100
AcDbEntity
  8
0
 62
7
100
AcDbPolyline
 90
3
 70
0
 10
265.900000
 20
-364.600000
 30
0.0
 10
261.000000
 20
-364.600000
 30
0.0
 10
261.000000
 20
-395.400000
 30
0.0
  0
SPLINE
  5
12b
100
AcDbEntity
  8
0
 62
7
100
AcDbSpline
 70
8
 71
3
 72
8
 73
4
 74
0
 40
0
 40
0
 40
0
 40
0
 40
1
 40
1
 40
1
 40
1
 10
285.000000
 20
-395.700000
 30
0.0
 10
285.000000
 20
-402.500000
 30
0.0
 10
282.100000
 20
-405.200000
 30
0.0
 10
275.500000
 20
-405.200000
 30
0.0
  0
SPLINE
  5
12c
100
AcDbEntity
  8
0
 62
7
100
AcDbSpline
 70
8
 71
3
 72
8
 73
4
 74
0
 40
0
 40
0
 40
0
 40
0
 40
1
 40
1
 40
1
 40
1
 10
275.500000
 20
-405.200000
 30
0.0
 10
269.000000
 20
-405.200000
 30
0.0
 10
266.000000
 20
-402.500000
 30
0.0
 10
266.000000
 20
-395.700000
 30
0.0
  0
LWPOLYLINE
  5
12d
100
AcDbEntity
  8
0
 62
7
100
AcDbPolyline
 90
4
 70
0
 10
289.900000
 20
-395.400000
 30
0.0
 10
289.900000
 20
-364.600000
 30
0.0
 10
285.000000
 20
-364.600000
 30
0.0
 10
285.000000
 20
-395.700000
 30
0.0
  0
LWPOLYLINE
  5
12e
100
AcDbEntity
  8
0
 62
7
100
AcDbPolyline
 90
4
 70
0
 10
266.000000
 20
-395.700000
 30
0.0
 10
266.000000
 20
-364.600000
 30
0.0
 10
265.900000
 20
-364.600000
 30
0.0
 10
265.900000
 20
-364.600000
 30
0.0
  0
LWPOLYLINE
  5
12f
100
AcDbEntity
  8
0
 62
7
100
AcDbPolyline
 90
15
 70
1
 10
370.300000
 20
-294.900000
 30
0.0
 10
372.200000
 20
-294.900000
 30
0.0
 10
372.200000
 20
-286.800000
 30
0.0
 10
374.500000
 20
-294.300000
 30
0.0
 10
376.000000
 20
-294.300000
 30
0.0
 10
378.400000
 20
-286.800000
 30
0.0
 10
378.400000
 20
-294.900000
 30
0.0
 10
380.300000
 20
-294.900000
 30
0.0
 10
380.300000
 20
-284.100000
 30
0.0
 10
377.700000
 20
-284.100000
 30
0.0
 10
375.200000
 20
-291.600000
 30
0.0
 10
372.800000
 20
-284.100000
 30
0.0
 10
370.200000
 20
-284.100000
 30
0.0
 10
370.300000
 20
-294.900000
 30
0.0
 10
370.300000
 20
-294.900000
 30
0.0
  0
LWPOLYLINE
  5
130
100
AcDbEntity
  8
0
 62
7
100
AcDbPolyline
 90
9
 70
1
 10
361.900000
 20
-285.900000
 30
0.0
 10
364.700000
 20
-285.900000
 30
0.0
 10
364.700000
 20
-294.800000
 30
0.0
 10
366.700000
 20
-294.800000
 30
0.0
 10
366.700000
 20
-285.900000
 30
0.0
 10
369.100000
 20
-285.900000
 30
0.0
 10
369.100000
 20
-284.100000
 30
0.0
 10
361.900000
 20
-284.100000
 30
0.0
 10
361.900000
 20
-285.900000
 30
0.0
  0
SPLINE
  5
131
100
AcDbEntity
  8
0
 62
7
100
AcDbSpline
 70
8
 71
3
 72
8
 73
4
 74
0
 40
0
 40
0
 40
0
 40
0
 40
1
 40
1
 40
1
 40
1
 10
85.500000
 20
-400.900000
 30
0.0
 10
86.000000
 20
-398.400000
 30
0.0
 10
86.400000
 20
-395.900000
 30
0.0
 10
86.700000
 20
-393.400000
 30
0.0
  0
SPLINE
  5
132
100
AcDbEntity
  8
0
 62
7
100
AcDbSpline
 70
8
 71
3
 72
8
 73
4
 74
0
 40
0
 40
0
 40
0
 40
0
 40
1
 40
1
 40
1
 40
1
 10
86.700000
 20
-393.400000
 30
0.0
 10
86.400000
 20
-393.500000
 30
0.0
 10
82.500000
 20
-394.100000
 30
0.0
 10
81.300000
 20
-394.300000
 30
0.0
  0
LWPOLYLINE
  5
133
100
AcDbEntity
  8
0
 62
7
100
AcDbPolyline
 90
2
 70
0
 10
105.900000
 20
-433.100000
 30
0.0
 10
85.500000
 20
-400.900000
 30
0.0
  0
SPLINE
  5
134
100
AcDbEntity
  8
0
 62
7
100
AcDbSpline
 70
8
 71
3
 72
8
 73
4
 74
0
 40
0
 40
0
 40
0
 40
0
 40
1
 40
1
 40
1
 40
1
 10
78.900000
 20
-390.100000
 30
0.0
 10
79.500000
 20
-389.500000
 30
0.0
 10
80.200000
 20
-389.300000
 30
0.0
 10
80.200000
 20
-389.300000
 30
0.0
  0
LWPOLYLINE
  5
135
100
AcDbEntity
  8
0
 62
7
100
AcDbPolyline
 90
3
 70
0
 10
81.300000
 20
-394.300000
 30
0.0
 10
78.600000
 20
-390.100000
 30
0.0
 10
78.900000
 20
-390.100000
 30
0.0
  0
SPLINE
  5
136
100
AcDbEntity
  8
0
 62
7
100
AcDbSpline
 70
8
 71
3
 72
8
 73
4
 74
0
 40
0
 40
0
 40
0
 40
0
 40
1
 40
1
 40
1
 40
1
 10
87.100000
 20
-387.200000
 30
0.0
 10
87.200000
 20
-385.100000
 30
0.0
 10
87.300000
 20
-383.100000
 30
0.0
 10
87.300000
 20
-381.000000
 30
0.0
  0
SPLINE
  5
137
100
AcDbEntity
  8
0
 62
7
100
AcDbSpline
 70
8
 71
3
 72
8
 73
4
 74
0
 40
0
 40
0
 40
0
 40
0
 40
1
 40
1
 40
1
 40
1
 10
87.300000
 20
-381.000000
 30
0.0
 10
87.300000
 20
-379.100000
 30
0.0
 10
87.200000
 20
-377.300000
 30
0.0
 10
87.100000
 20
-375.400000
 30
0.0
  0
SPLINE
  5
138
100
AcDbEntity
  8
0
 62
7
100
AcDbSpline
 70
8
 71
3
 72
8
 73
4
 74
0
 40
0
 40
0
 40
0
 40
0
 40
1
 40
1
 40
1
 40
1
 10
87.100000
 20
-375.400000
 30
0.0
 10
86.700000
 20
-375.500000
 30
0.0
 10
82.500000
 20
-377.100000
 30
0.0
 10
81.800000
 20
-377.300000
 30
0.0
  0
SPLINE
  5
139
100
AcDbEntity
  8
0
 62
7
100
AcDbSpline
 70
8
 71
3
 72
8
 73
4
 74
0
 40
0
 40
0
 40
0
 40
0
 40
1
 40
1
 40
1
 40
1
 10
81.800000
 20
-377.300000
 30
0.0
 10
81.000000
 20
-377.600000
 30
0.0
 10
79.500000
 20
-377.700000
 30
0.0
 10
78.700000
 20
-375.600000
 30
0.0
  0
SPLINE
  5
13a
100
AcDbEntity
  8
0
 62
7
100
AcDbSpline
 70
8
 71
3
 72
8
 73
4
 74
0
 40
0
 40
0
 40
0
 40
0
 40
1
 40
1
 40
1
 40
1
 10
78.700000
 20
-375.600000
 30
0.0
 10
77.900000
 20
-373.500000
 30
0.0
 10
80.100000
 20
-372.500000
 30
0.0
 10
80.100000
 20
-372.500000
 30
0.0
  0
LWPOLYLINE
  5
13b
100
AcDbEntity
  8
0
 62
7
100
AcDbPolyline
 90
2
 70
0
 10
80.200000
 20
-389.300000
 30
0.0
 10
87.100000
 20
-387.200000
 30
0.0
  0
SPLINE
  5
13c
100
AcDbEntity
  8
0
 62
7
100
AcDbSpline
 70
8
 71
3
 72
8
 73
4
 74
0
 40
0
 40
0
 40
0
 40
0
 40
1
 40
1
 40
1
 40
1
 10
86.500000
 20
-369.300000
 30
0.0
 10
86.100000
 20
-365.300000
 30
0.0
 10
85.400000
 20
-361.400000
 30
0.0
 10
84.500000
 20
-357.600000
 30
0.0
  0
SPLINE
  5
13d
100
AcDbEntity
  8
0
 62
7
100
AcDbSpline
 70
8
 71
3
 72
8
 73
4
 74
0
 40
0
 40
0
 40
0
 40
0
 40
1
 40
1
 40
1
 40
1
 10
84.500000
 20
-357.600000
 30
0.0
 10
84.400000
 20
-357.700000
 30
0.0
 10
80.300000
 20
-360.000000
 30
0.0
 10
79.600000
 20
-360.400000
 30
0.0
  0
SPLINE
  5
13e
100
AcDbEntity
  8
0
 62
7
100
AcDbSpline
 70
8
 71
3
 72
8
 73
4
 74
0
 40
0
 40
0
 40
0
 40
0
 40
1
 40
1
 40
1
 40
1
 10
79.600000
 20
-360.400000
 30
0.0
 10
78.900000
 20
-360.800000
 30
0.0
 10
77.400000
 20
-361.200000
 30
0.0
 10
76.300000
 20
-359.300000
 30
0.0
  0
SPLINE
  5
13f
100
AcDbEntity
  8
0
 62
7
100
AcDbSpline
 70
8
 71
3
 72
8
 73
4
 74
0
 40
0
 40
0
 40
0
 40
0
 40
1
 40
1
 40
1
 40
1
 10
76.300000
 20
-359.300000
 30
0.0
 10
75.200000
 20
-357.400000
 30
0.0
 10
77.200000
 20
-356.000000
 30
0.0
 10
77.200000
 20
-356.000000
 30
0.0
  0
LWPOLYLINE
  5
140
100
AcDbEntity
  8
0
 62
7
100
AcDbPolyline
 90
2
 70
0
 10
80.100000
 20
-372.500000
 30
0.0
 10
86.500000
 20
-369.300000
 30
0.0
  0
SPLINE
  5
141
100
AcDbEntity
  8
0
 62
7
100
AcDbSpline
 70
8
 71
3
 72
8
 73
4
 74
0
 40
0
 40
0
 40
0
 40
0
 40
1
 40
1
 40
1
 40
1
 10
83.000000
 20
-351.700000
 30
0.0
 10
81.900000
 20
-347.900000
 30
0.0
 10
80.500000
 20
-344.200000
 30
0.0
 10
79.000000
 20
-340.600000
 30
0.0
  0
SPLINE
  5
142
100
AcDbEntity
  8
0
 62
7
100
AcDbSpline
 70
8
 71
3
 72
8
 73
4
 74
0
 40
0
 40
0
 40
0
 40
0
 40
1
 40
1
 40
1
 40
1
 10
79.000000
 20
-340.600000
 30
0.0
 10
79.000000
 20
-340.600000
 30
0.0
 10
75.300000
 20
-343.700000
 30
0.0
 10
74.600000
 20
-344.200000
 30
0.0
  0
SPLINE
  5
143
100
AcDbEntity
  8
0
 62
7
100
AcDbSpline
 70
8
 71
3
 72
8
 73
4
 74
0
 40
0
 40
0
 40
0
 40
0
 40
1
 40
1
 40
1
 40
1
 10
74.600000
 20
-344.200000
 30
0.0
 10
74.000000
 20
-344.700000
 30
0.0
 10
72.600000
 20
-345.400000
 30
0.0
 10
71.100000
 20
-343.700000
 30
0.0
  0
SPLINE
  5
144
100
AcDbEntity
  8
0
 62
7
100
AcDbSpline
 70
8
 71
3
 72
8
 73
4
 74
0
 40
0
 40
0
 40
0
 40
0
 40
1
 40
1
 40
1
 40
1
 10
71.100000
 20
-343.700000
 30
0.0
 10
69.700000
 20
-342.000000
 30
0.0
 10
71.400000
 20
-340.300000
 30
0.0
 10
71.400000
 20
-340.300000
 30
0.0
  0
LWPOLYLINE
  5
145
100
AcDbEntity
  8
0
 62
7
100
AcDbPolyline
 90
2
 70
0
 10
77.200000
 20
-356.000000
 30
0.0
 10
83.000000
 20
-351.700000
 30
0.0
  0
SPLINE
  5
146
100
AcDbEntity
  8
0
 62
7
100
AcDbSpline
 70
8
 71
3
 72
8
 73
4
 74
0
 40
0
 40
0
 40
0
 40
0
 40
1
 40
1
 40
1
 40
1
 10
76.400000
 20
-335.100000
 30
0.0
 10
74.600000
 20
-331.600000
 30
0.0
 10
72.700000
 20
-328.100000
 30
0.0
 10
70.500000
 20
-324.800000
 30
0.0
  0
SPLINE
  5
147
100
AcDbEntity
  8
0
 62
7
100
AcDbSpline
 70
8
 71
3
 72
8
 73
4
 74
0
 40
0
 40
0
 40
0
 40
0
 40
1
 40
1
 40
1
 40
1
 10
70.500000
 20
-324.800000
 30
0.0
 10
70.400000
 20
-325.000000
 30
0.0
 10
67.400000
 20
-328.500000
 30
0.0
 10
66.800000
 20
-329.100000
 30
0.0
  0
SPLINE
  5
148
100
AcDbEntity
  8
0
 62
7
100
AcDbSpline
 70
8
 71
3
 72
8
 73
4
 74
0
 40
0
 40
0
 40
0
 40
0
 40
1
 40
1
 40
1
 40
1
 10
66.800000
 20
-329.100000
 30
0.0
 10
66.300000
 20
-329.700000
 30
0.0
 10
65.000000
 20
-330.600000
 30
0.0
 10
63.300000
 20
-329.200000
 30
0.0
  0
SPLINE
  5
149
100
AcDbEntity
  8
0
 62
7
100
AcDbSpline
 70
8
 71
3
 72
8
 73
4
 74
0
 40
0
 40
0
 40
0
 40
0
 40
1
 40
1
 40
1
 40
1
 10
63.300000
 20
-329.200000
 30
0.0
 10
61.600000
 20
-327.800000
 30
0.0
 10
63.000000
 20
-325.800000
 30
0.0
 10
63.000000
 20
-325.800000
 30
0.0
  0
LWPOLYLINE
  5
14a
100
AcDbEntity
  8
0
 62
7
100
AcDbPolyline
 90
2
 70
0
 10
71.400000
 20
-340.300000
 30
0.0
 10
76.400000
 20
-335.100000
 30
0.0
  0
SPLINE
  5
14b
100
AcDbEntity
  8
0
 62
7
100
AcDbSpline
 70
8
 71
3
 72
8
 73
4
 74
0
 40
0
 40
0
 40
0
 40
0
 40
1
 40
1
 40
1
 40
1
 10
67.000000
 20
-319.800000
 30
0.0
 10
64.700000
 20
-316.600000
 30
0.0
 10
62.100000
 20
-313.600000
 30
0.0
 10
59.500000
 20
-310.700000
 30
0.0
  0
SPLINE
  5
14c
100
AcDbEntity
  8
0
 62
7
100
AcDbSpline
 70
8
 71
3
 72
8
 73
4
 74
0
 40
0
 40
0
 40
0
 40
0
 40
1
 40
1
 40
1
 40
1
 10
59.500000
 20
-310.700000
 30
0.0
 10
59.300000
 20
-311.100000
 30
0.0
 10
57.000000
 20
-314.900000
 30
0.0
 10
56.600000
 20
-315.600000
 30
0.0
  0
SPLINE
  5
14d
100
AcDbEntity
  8
0
 62
7
100
AcDbSpline
 70
8
 71
3
 72
8
 73
4
 74
0
 40
0
 40
0
 40
0
 40
0
 40
1
 40
1
 40
1
 40
1
 10
56.600000
 20
-315.600000
 30
0.0
 10
56.200000
 20
-316.300000
 30
0.0
 10
55.100000
 20
-317.400000
 30
0.0
 10
53.200000
 20
-316.300000
 30
0.0
  0
SPLINE
  5
14e
100
AcDbEntity
  8
0
 62
7
100
AcDbSpline
 70
8
 71
3
 72
8
 73
4
 74
0
 40
0
 40
0
 40
0
 40
0
 40
1
 40
1
 40
1
 40
1
 10
53.200000
 20
-316.300000
 30
0.0
 10
51.300000
 20
-315.200000
 30
0.0
 10
52.300000
 20
-313.000000
 30
0.0
 10
52.300000
 20
-313.000000
 30
0.0
  0
LWPOLYLINE
  5
14f
100
AcDbEntity
  8
0
 62
7
100
AcDbPolyline
 90
2
 70
0
 10
63.000000
 20
-325.800000
 30
0.0
 10
67.000000
 20
-319.800000
 30
0.0
  0
SPLINE
  5
150
100
AcDbEntity
  8
0
 62
7
100
AcDbSpline
 70
8
 71
3
 72
8
 73
4
 74
0
 40
0
 40
0
 40
0
 40
0
 40
1
 40
1
 40
1
 40
1
 10
55.200000
 20
-306.400000
 30
0.0
 10
52.400000
 20
-303.700000
 30
0.0
 10
49.300000
 20
-301.100000
 30
0.0
 10
46.200000
 20
-298.700000
 30
0.0
  0
SPLINE
  5
151
100
AcDbEntity
  8
0
 62
7
100
AcDbSpline
 70
8
 71
3
 72
8
 73
4
 74
0
 40
0
 40
0
 40
0
 40
0
 40
1
 40
1
 40
1
 40
1
 10
46.200000
 20
-298.700000
 30
0.0
 10
46.100000
 20
-299.100000
 30
0.0
 10
44.500000
 20
-303.300000
 30
0.0
 10
44.200000
 20
-304.000000
 30
0.0
  0
SPLINE
  5
152
100
AcDbEntity
  8
0
 62
7
100
AcDbSpline
 70
8
 71
3
 72
8
 73
4
 74
0
 40
0
 40
0
 40
0
 40
0
 40
1
 40
1
 40
1
 40
1
 10
44.200000
 20
-304.000000
 30
0.0
 10
43.900000
 20
-304.800000
 30
0.0
 10
43.000000
 20
-306.000000
 30
0.0
 10
40.900000
 20
-305.300000
 30
0.0
  0
SPLINE
  5
153
100
AcDbEntity
  8
0
 62
7
100
AcDbSpline
 70
8
 71
3
 72
8
 73
4
 74
0
 40
0
 40
0
 40
0
 40
0
 40
1
 40
1
 40
1
 40
1
 10
40.900000
 20
-305.300000
 30
0.0
 10
38.800000
 20
-304.500000
 30
0.0
 10
39.500000
 20
-302.200000
 30
0.0
 10
39.500000
 20
-302.200000
 30
0.0
  0
LWPOLYLINE
  5
154
100
AcDbEntity
  8
0
 62
7
100
AcDbPolyline
 90
2
 70
0
 10
52.300000
 20
-313.000000
 30
0.0
 10
55.200000
 20
-306.400000
 30
0.0
  0
SPLINE
  5
155
100
AcDbEntity
  8
0
 62
7
100
AcDbSpline
 70
8
 71
3
 72
8
 73
4
 74
0
 40
0
 40
0
 40
0
 40
0
 40
1
 40
1
 40
1
 40
1
 10
41.200000
 20
-295.200000
 30
0.0
 10
37.900000
 20
-293.000000
 30
0.0
 10
34.500000
 20
-291.000000
 30
0.0
 10
31.000000
 20
-289.200000
 30
0.0
  0
SPLINE
  5
156
100
AcDbEntity
  8
0
 62
7
100
AcDbSpline
 70
8
 71
3
 72
8
 73
4
 74
0
 40
0
 40
0
 40
0
 40
0
 40
1
 40
1
 40
1
 40
1
 10
31.000000
 20
-289.200000
 30
0.0
 10
31.000000
 20
-289.400000
 30
0.0
 10
30.100000
 20
-294.000000
 30
0.0
 10
30.000000
 20
-294.800000
 30
0.0
  0
SPLINE
  5
157
100
AcDbEntity
  8
0
 62
7
100
AcDbSpline
 70
8
 71
3
 72
8
 73
4
 74
0
 40
0
 40
0
 40
0
 40
0
 40
1
 40
1
 40
1
 40
1
 10
30.000000
 20
-294.800000
 30
0.0
 10
29.800000
 20
-295.600000
 30
0.0
 10
29.200000
 20
-297.000000
 30
0.0
 10
27.000000
 20
-296.600000
 30
0.0
  0
SPLINE
  5
158
100
AcDbEntity
  8
0
 62
7
100
AcDbSpline
 70
8
 71
3
 72
8
 73
4
 74
0
 40
0
 40
0
 40
0
 40
0
 40
1
 40
1
 40
1
 40
1
 10
27.000000
 20
-296.600000
 30
0.0
 10
24.800000
 20
-296.200000
 30
0.0
 10
25.100000
 20
-293.800000
 30
0.0
 10
25.100000
 20
-293.800000
 30
0.0
  0
LWPOLYLINE
  5
159
100
AcDbEntity
  8
0
 62
7
100
AcDbPolyline
 90
2
 70
0
 10
39.500000
 20
-302.200000
 30
0.0
 10
41.200000
 20
-295.200000
 30
0.0
  0
SPLINE
  5
15a
100
AcDbEntity
  8
0
 62
7
100
AcDbSpline
 70
8
 71
3
 72
8
 73
4
 74
0
 40
0
 40
0
 40
0
 40
0
 40
1
 40
1
 40
1
 40
1
 10
25.600000
 20
-286.600000
 30
0.0
 10
21.800000
 20
-284.900000
 30
0.0
 10
17.900000
 20
-283.500000
 30
0.0
 10
13.900000
 20
-282.300000
 30
0.0
  0
LWPOLYLINE
  5
15b
100
AcDbEntity
  8
0
 62
7
100
AcDbPolyline
 90
2
 70
0
 10
25.100000
 20
-293.800000
 30
0.0
 10
25.600000
 20
-286.600000
 30
0.0
  0
SPLINE
  5
15c
100
AcDbEntity
  8
0
 62
7
100
AcDbSpline
 70
8
 71
3
 72
8
 73
4
 74
0
 40
0
 40
0
 40
0
 40
0
 40
1
 40
1
 40
1
 40
1
 10
0.900000
 20
-270.000000
 30
0.0
 10
-10.000000
 20
-252.900000
 30
0.0
 10
-25.700000
 20
-252.900000
 30
0.0
 10
-36.600000
 20
-270.000000
 30
0.0
  0
LWPOLYLINE
  5
15d
100
AcDbEntity
  8
0
 62
7
100
AcDbPolyline
 90
4
 70
0
 10
13.900000
 20
-282.300000
 30
0.0
 10
13.900000
 20
-288.000000
 30
0.0
 10
13.900000
 20
-290.200000
 30
0.0
 10
0.900000
 20
-270.000000
 30
0.0
  0
SPLINE
  5
15e
100
AcDbEntity
  8
0
 62
7
100
AcDbSpline
 70
8
 71
3
 72
8
 73
4
 74
0
 40
0
 40
0
 40
0
 40
0
 40
1
 40
1
 40
1
 40
1
 10
-45.100000
 20
-282.100000
 30
0.0
 10
-48.900000
 20
-283.200000
 30
0.0
 10
-52.600000
 20
-284.600000
 30
0.0
 10
-56.200000
 20
-286.100000
 30
0.0
  0
SPLINE
  5
15f
100
AcDbEntity
  8
0
 62
7
100
AcDbSpline
 70
8
 71
3
 72
8
 73
4
 74
0
 40
0
 40
0
 40
0
 40
0
 40
1
 40
1
 40
1
 40
1
 10
-56.200000
 20
-286.100000
 30
0.0
 10
-56.200000
 20
-286.100000
 30
0.0
 10
-53.100000
 20
-289.800000
 30
0.0
 10
-52.500000
 20
-290.500000
 30
0.0
  0
SPLINE
  5
160
100
AcDbEntity
  8
0
 62
7
100
AcDbSpline
 70
8
 71
3
 72
8
 73
4
 74
0
 40
0
 40
0
 40
0
 40
0
 40
1
 40
1
 40
1
 40
1
 10
-52.500000
 20
-290.500000
 30
0.0
 10
-52.000000
 20
-291.100000
 30
0.0
 10
-51.300000
 20
-292.500000
 30
0.0
 10
-53.000000
 20
-294.000000
 30
0.0
  0
SPLINE
  5
161
100
AcDbEntity
  8
0
 62
7
100
AcDbSpline
 70
8
 71
3
 72
8
 73
4
 74
0
 40
0
 40
0
 40
0
 40
0
 40
1
 40
1
 40
1
 40
1
 10
-53.000000
 20
-294.000000
 30
0.0
 10
-54.700000
 20
-295.400000
 30
0.0
 10
-56.400000
 20
-293.700000
 30
0.0
 10
-56.400000
 20
-293.700000
 30
0.0
  0
LWPOLYLINE
  5
162
100
AcDbEntity
  8
0
 62
7
100
AcDbPolyline
 90
3
 70
0
 10
-36.600000
 20
-270.000000
 30
0.0
 10
-44.400000
 20
-282.200000
 30
0.0
 10
-45.100000
 20
-282.100000
 30
0.0
  0
SPLINE
  5
163
100
AcDbEntity
  8
0
 62
7
100
AcDbSpline
 70
8
 71
3
 72
8
 73
4
 74
0
 40
0
 40
0
 40
0
 40
0
 40
1
 40
1
 40
1
 40
1
 10
-61.600000
 20
-288.700000
 30
0.0
 10
-65.100000
 20
-290.500000
 30
0.0
 10
-68.600000
 20
-292.400000
 30
0.0
 10
-71.900000
 20
-294.600000
 30
0.0
  0
SPLINE
  5
164
100
AcDbEntity
  8
0
 62
7
100
AcDbSpline
 70
8
 71
3
 72
8
 73
4
 74
0
 40
0
 40
0
 40
0
 40
0
 40
1
 40
1
 40
1
 40
1
 10
-71.900000
 20
-294.600000
 30
0.0
 10
-71.700000
 20
-294.700000
 30
0.0
 10
-68.200000
 20
-297.700000
 30
0.0
 10
-67.600000
 20
-298.300000
 30
0.0
  0
SPLINE
  5
165
100
AcDbEntity
  8
0
 62
7
100
AcDbSpline
 70
8
 71
3
 72
8
 73
4
 74
0
 40
0
 40
0
 40
0
 40
0
 40
1
 40
1
 40
1
 40
1
 10
-67.600000
 20
-298.300000
 30
0.0
 10
-67.000000
 20
-298.800000
 30
0.0
 10
-66.100000
 20
-300.100000
 30
0.0
 10
-67.500000
 20
-301.800000
 30
0.0
  0
SPLINE
  5
166
100
AcDbEntity
  8
0
 62
7
100
AcDbSpline
 70
8
 71
3
 72
8
 73
4
 74
0
 40
0
 40
0
 40
0
 40
0
 40
1
 40
1
 40
1
 40
1
 10
-67.500000
 20
-301.800000
 30
0.0
 10
-68.900000
 20
-303.500000
 30
0.0
 10
-70.900000
 20
-302.100000
 30
0.0
 10
-70.900000
 20
-302.100000
 30
0.0
  0
LWPOLYLINE
  5
167
100
AcDbEntity
  8
0
 62
7
100
AcDbPolyline
 90
2
 70
0
 10
-56.400000
 20
-293.700000
 30
0.0
 10
-61.600000
 20
-288.700000
 30
0.0
  0
SPLINE
  5
168
100
AcDbEntity
  8
0
 62
7
100
AcDbSpline
 70
8
 71
3
 72
8
 73
4
 74
0
 40
0
 40
0
 40
0
 40
0
 40
1
 40
1
 40
1
 40
1
 10
-76.900000
 20
-298.100000
 30
0.0
 10
-80.100000
 20
-300.400000
 30
0.0
 10
-83.100000
 20
-303.000000
 30
0.0
 10
-86.000000
 20
-305.600000
 30
0.0
  0
SPLINE
  5
169
100
AcDbEntity
  8
0
 62
7
100
AcDbSpline
 70
8
 71
3
 72
8
 73
4
 74
0
 40
0
 40
0
 40
0
 40
0
 40
1
 40
1
 40
1
 40
1
 10
-86.000000
 20
-305.600000
 30
0.0
 10
-85.600000
 20
-305.800000
 30
0.0
 10
-81.800000
 20
-308.100000
 30
0.0
 10
-81.100000
 20
-308.500000
 30
0.0
  0
SPLINE
  5
16a
100
AcDbEntity
  8
0
 62
7
100
AcDbSpline
 70
8
 71
3
 72
8
 73
4
 74
0
 40
0
 40
0
 40
0
 40
0
 40
1
 40
1
 40
1
 40
1
 10
-81.100000
 20
-308.500000
 30
0.0
 10
-80.400000
 20
-308.900000
 30
0.0
 10
-79.300000
 20
-310.000000
 30
0.0
 10
-80.400000
 20
-311.900000
 30
0.0
  0
SPLINE
  5
16b
100
AcDbEntity
  8
0
 62
7
100
AcDbSpline
 70
8
 71
3
 72
8
 73
4
 74
0
 40
0
 40
0
 40
0
 40
0
 40
1
 40
1
 40
1
 40
1
 10
-80.400000
 20
-311.900000
 30
0.0
 10
-81.500000
 20
-313.800000
 30
0.0
 10
-83.700000
 20
-312.800000
 30
0.0
 10
-83.700000
 20
-312.800000
 30
0.0
  0
LWPOLYLINE
  5
16c
100
AcDbEntity
  8
0
 62
7
100
AcDbPolyline
 90
2
 70
0
 10
-70.900000
 20
-302.100000
 30
0.0
 10
-76.900000
 20
-298.100000
 30
0.0
  0
SPLINE
  5
16d
100
AcDbEntity
  8
0
 62
7
100
AcDbSpline
 70
8
 71
3
 72
8
 73
4
 74
0
 40
0
 40
0
 40
0
 40
0
 40
1
 40
1
 40
1
 40
1
 10
-90.300000
 20
-309.900000
 30
0.0
 10
-93.000000
 20
-312.700000
 30
0.0
 10
-95.600000
 20
-315.800000
 30
0.0
 10
-98.000000
 20
-318.900000
 30
0.0
  0
SPLINE
  5
16e
100
AcDbEntity
  8
0
 62
7
100
AcDbSpline
 70
8
 71
3
 72
8
 73
4
 74
0
 40
0
 40
0
 40
0
 40
0
 40
1
 40
1
 40
1
 40
1
 10
-98.000000
 20
-318.900000
 30
0.0
 10
-97.600000
 20
-319.000000
 30
0.0
 10
-93.400000
 20
-320.600000
 30
0.0
 10
-92.700000
 20
-320.900000
 30
0.0
  0
SPLINE
  5
16f
100
AcDbEntity
  8
0
 62
7
100
AcDbSpline
 70
8
 71
3
 72
8
 73
4
 74
0
 40
0
 40
0
 40
0
 40
0
 40
1
 40
1
 40
1
 40
1
 10
-92.700000
 20
-320.900000
 30
0.0
 10
-91.900000
 20
-321.200000
 30
0.0
 10
-90.700000
 20
-322.100000
 30
0.0
 10
-91.400000
 20
-324.200000
 30
0.0
  0
SPLINE
  5
170
100
AcDbEntity
  8
0
 62
7
100
AcDbSpline
 70
8
 71
3
 72
8
 73
4
 74
0
 40
0
 40
0
 40
0
 40
0
 40
1
 40
1
 40
1
 40
1
 10
-91.400000
 20
-324.200000
 30
0.0
 10
-92.200000
 20
-326.300000
 30
0.0
 10
-94.500000
 20
-325.600000
 30
0.0
 10
-94.500000
 20
-325.600000
 30
0.0
  0
LWPOLYLINE
  5
171
100
AcDbEntity
  8
0
 62
7
100
AcDbPolyline
 90
2
 70
0
 10
-83.700000
 20
-312.800000
 30
0.0
 10
-90.300000
 20
-309.900000
 30
0.0
  0
SPLINE
  5
172
100
AcDbEntity
  8
0
 62
7
100
AcDbSpline
 70
8
 71
3
 72
8
 73
4
 74
0
 40
0
 40
0
 40
0
 40
0
 40
1
 40
1
 40
1
 40
1
 10
-101.500000
 20
-323.900000
 30
0.0
 10
-103.700000
 20
-327.200000
 30
0.0
 10
-105.700000
 20
-330.600000
 30
0.0
 10
-107.500000
 20
-334.100000
 30
0.0
  0
SPLINE
  5
173
100
AcDbEntity
  8
0
 62
7
100
AcDbSpline
 70
8
 71
3
 72
8
 73
4
 74
0
 40
0
 40
0
 40
0
 40
0
 40
1
 40
1
 40
1
 40
1
 10
-107.500000
 20
-334.100000
 30
0.0
 10
-107.400000
 20
-334.100000
 30
0.0
 10
-102.700000
 20
-335.000000
 30
0.0
 10
-101.900000
 20
-335.100000
 30
0.0
  0
SPLINE
  5
174
100
AcDbEntity
  8
0
 62
7
100
AcDbSpline
 70
8
 71
3
 72
8
 73
4
 74
0
 40
0
 40
0
 40
0
 40
0
 40
1
 40
1
 40
1
 40
1
 10
-101.900000
 20
-335.100000
 30
0.0
 10
-101.100000
 20
-335.300000
 30
0.0
 10
-99.700000
 20
-335.900000
 30
0.0
 10
-100.100000
 20
-338.100000
 30
0.0
  0
SPLINE
  5
175
100
AcDbEntity
  8
0
 62
7
100
AcDbSpline
 70
8
 71
3
 72
8
 73
4
 74
0
 40
0
 40
0
 40
0
 40
0
 40
1
 40
1
 40
1
 40
1
 10
-100.100000
 20
-338.100000
 30
0.0
 10
-100.500000
 20
-340.300000
 30
0.0
 10
-102.900000
 20
-340.000000
 30
0.0
 10
-102.900000
 20
-340.000000
 30
0.0
  0
LWPOLYLINE
  5
176
100
AcDbEntity
  8
0
 62
7
100
AcDbPolyline
 90
2
 70
0
 10
-94.500000
 20
-325.600000
 30
0.0
 10
-101.500000
 20
-323.900000
 30
0.0
  0
SPLINE
  5
177
100
AcDbEntity
  8
0
 62
7
100
AcDbSpline
 70
8
 71
3
 72
8
 73
4
 74
0
 40
0
 40
0
 40
0
 40
0
 40
1
 40
1
 40
1
 40
1
 10
-110.100000
 20
-339.500000
 30
0.0
 10
-111.800000
 20
-343.300000
 30
0.0
 10
-113.200000
 20
-347.200000
 30
0.0
 10
-114.400000
 20
-351.200000
 30
0.0
  0
LWPOLYLINE
  5
178
100
AcDbEntity
  8
0
 62
7
100
AcDbPolyline
 90
2
 70
0
 10
-102.900000
 20
-340.000000
 30
0.0
 10
-110.100000
 20
-339.500000
 30
0.0
  0
SPLINE
  5
179
100
AcDbEntity
  8
0
 62
7
100
AcDbSpline
 70
8
 71
3
 72
8
 73
4
 74
0
 40
0
 40
0
 40
0
 40
0
 40
1
 40
1
 40
1
 40
1
 10
-108.700000
 20
-351.200000
 30
0.0
 10
-107.900000
 20
-351.200000
 30
0.0
 10
-106.400000
 20
-351.600000
 30
0.0
 10
-106.400000
 20
-353.800000
 30
0.0
  0
SPLINE
  5
17a
100
AcDbEntity
  8
0
 62
7
100
AcDbSpline
 70
8
 71
3
 72
8
 73
4
 74
0
 40
0
 40
0
 40
0
 40
0
 40
1
 40
1
 40
1
 40
1
 10
-106.400000
 20
-353.800000
 30
0.0
 10
-106.400000
 20
-356.000000
 30
0.0
 10
-108.800000
 20
-356.200000
 30
0.0
 10
-108.800000
 20
-356.200000
 30
0.0
  0
LWPOLYLINE
  5
17b
100
AcDbEntity
  8
0
 62
7
100
AcDbPolyline
 90
2
 70
0
 10
-114.400000
 20
-351.200000
 30
0.0
 10
-108.700000
 20
-351.200000
 30
0.0
  0
SPLINE
  5
17c
100
AcDbEntity
  8
0
 62
7
100
AcDbSpline
 70
8
 71
3
 72
8
 73
4
 74
0
 40
0
 40
0
 40
0
 40
0
 40
1
 40
1
 40
1
 40
1
 10
-116.000000
 20
-357.000000
 30
0.0
 10
-116.900000
 20
-360.800000
 30
0.0
 10
-117.600000
 20
-364.700000
 30
0.0
 10
-118.100000
 20
-368.600000
 30
0.0
  0
SPLINE
  5
17d
100
AcDbEntity
  8
0
 62
7
100
AcDbSpline
 70
8
 71
3
 72
8
 73
4
 74
0
 40
0
 40
0
 40
0
 40
0
 40
1
 40
1
 40
1
 40
1
 10
-118.100000
 20
-368.600000
 30
0.0
 10
-117.800000
 20
-368.500000
 30
0.0
 10
-113.300000
 20
-367.800000
 30
0.0
 10
-112.500000
 20
-367.600000
 30
0.0
  0
SPLINE
  5
17e
100
AcDbEntity
  8
0
 62
7
100
AcDbSpline
 70
8
 71
3
 72
8
 73
4
 74
0
 40
0
 40
0
 40
0
 40
0
 40
1
 40
1
 40
1
 40
1
 10
-112.500000
 20
-367.600000
 30
0.0
 10
-111.700000
 20
-367.500000
 30
0.0
 10
-110.400000
 20
-367.600000
 30
0.0
 10
-109.900000
 20
-369.300000
 30
0.0
  0
LWPOLYLINE
  5
17f
100
AcDbEntity
  8
0
 62
7
100
AcDbPolyline
 90
2
 70
0
 10
-108.800000
 20
-356.200000
 30
0.0
 10
-116.000000
 20
-357.000000
 30
0.0
  0
SPLINE
  5
180
100
AcDbEntity
  8
0
 62
7
100
AcDbSpline
 70
8
 71
3
 72
8
 73
4
 74
0
 40
0
 40
0
 40
0
 40
0
 40
1
 40
1
 40
1
 40
1
 10
-110.500000
 20
-371.800000
 30
0.0
 10
-111.100000
 20
-372.400000
 30
0.0
 10
-111.800000
 20
-372.600000
 30
0.0
 10
-111.800000
 20
-372.600000
 30
0.0
  0
LWPOLYLINE
  5
181
100
AcDbEntity
  8
0
 62
7
100
AcDbPolyline
 90
4
 70
0
 10
-109.900000
 20
-369.300000
 30
0.0
 10
-101.000000
 20
-370.300000
 30
0.0
 10
-102.500000
 20
-372.700000
 30
0.0
 10
-110.500000
 20
-371.800000
 30
0.0
  0
SPLINE
  5
182
100
AcDbEntity
  8
0
 62
7
100
AcDbSpline
 70
8
 71
3
 72
8
 73
4
 74
0
 40
0
 40
0
 40
0
 40
0
 40
1
 40
1
 40
1
 40
1
 10
-118.700000
 20
-374.700000
 30
0.0
 10
-118.800000
 20
-376.800000
 30
0.0
 10
-118.900000
 20
-378.800000
 30
0.0
 10
-118.900000
 20
-380.900000
 30
0.0
  0
SPLINE
  5
183
100
AcDbEntity
  8
0
 62
7
100
AcDbSpline
 70
8
 71
3
 72
8
 73
4
 74
0
 40
0
 40
0
 40
0
 40
0
 40
1
 40
1
 40
1
 40
1
 10
-118.900000
 20
-380.900000
 30
0.0
 10
-118.900000
 20
-382.800000
 30
0.0
 10
-118.800000
 20
-384.600000
 30
0.0
 10
-118.700000
 20
-386.500000
 30
0.0
  0
SPLINE
  5
184
100
AcDbEntity
  8
0
 62
7
100
AcDbSpline
 70
8
 71
3
 72
8
 73
4
 74
0
 40
0
 40
0
 40
0
 40
0
 40
1
 40
1
 40
1
 40
1
 10
-118.700000
 20
-386.500000
 30
0.0
 10
-118.300000
 20
-386.400000
 30
0.0
 10
-114.100000
 20
-384.800000
 30
0.0
 10
-113.400000
 20
-384.600000
 30
0.0
  0
SPLINE
  5
185
100
AcDbEntity
  8
0
 62
7
100
AcDbSpline
 70
8
 71
3
 72
8
 73
4
 74
0
 40
0
 40
0
 40
0
 40
0
 40
1
 40
1
 40
1
 40
1
 10
-113.400000
 20
-384.600000
 30
0.0
 10
-112.700000
 20
-384.400000
 30
0.0
 10
-111.500000
 20
-384.200000
 30
0.0
 10
-110.700000
 20
-385.600000
 30
0.0
  0
LWPOLYLINE
  5
186
100
AcDbEntity
  8
0
 62
7
100
AcDbPolyline
 90
2
 70
0
 10
-111.800000
 20
-372.600000
 30
0.0
 10
-118.700000
 20
-374.700000
 30
0.0
  0
SPLINE
  5
187
100
AcDbEntity
  8
0
 62
7
100
AcDbSpline
 70
8
 71
3
 72
8
 73
4
 74
0
 40
0
 40
0
 40
0
 40
0
 40
1
 40
1
 40
1
 40
1
 10
-118.300000
 20
-392.600000
 30
0.0
 10
-118.100000
 20
-394.000000
 30
0.0
 10
-118.000000
 20
-395.300000
 30
0.0
 10
-117.700000
 20
-396.700000
 30
0.0
  0
LWPOLYLINE
  5
188
100
AcDbEntity
  8
0
 62
7
100
AcDbPolyline
 90
3
 70
0
 10
-110.700000
 20
-385.600000
 30
0.0
 10
-113.700000
 20
-390.300000
 30
0.0
 10
-118.300000
 20
-392.600000
 30
0.0
  0
SPLINE
  5
189
100
AcDbEntity
  8
0
 62
7
100
AcDbSpline
 70
8
 71
3
 72
8
 73
4
 74
0
 40
0
 40
0
 40
0
 40
0
 40
1
 40
1
 40
1
 40
1
 10
-140.700000
 20
-433.000000
 30
0.0
 10
-151.600000
 20
-450.100000
 30
0.0
 10
-143.900000
 20
-464.100000
 30
0.0
 10
-123.600000
 20
-464.100000
 30
0.0
  0
LWPOLYLINE
  5
18a
100
AcDbEntity
  8
0
 62
7
100
AcDbPolyline
 90
2
 70
0
 10
-117.700000
 20
-396.700000
 30
0.0
 10
-140.700000
 20
-433.000000
 30
0.0
  0
SPLINE
  5
18b
100
AcDbEntity
  8
0
 62
7
100
AcDbSpline
 70
8
 71
3
 72
8
 73
4
 74
0
 40
0
 40
0
 40
0
 40
0
 40
1
 40
1
 40
1
 40
1
 10
-73.000000
 20
-466.700000
 30
0.0
 10
-69.700000
 20
-468.900000
 30
0.0
 10
-66.300000
 20
-470.900000
 30
0.0
 10
-62.800000
 20
-472.700000
 30
0.0
  0
SPLINE
  5
18c
100
AcDbEntity
  8
0
 62
7
100
AcDbSpline
 70
8
 71
3
 72
8
 73
4
 74
0
 40
0
 40
0
 40
0
 40
0
 40
1
 40
1
 40
1
 40
1
 10
-62.800000
 20
-472.700000
 30
0.0
 10
-62.800000
 20
-472.600000
 30
0.0
 10
-61.900000
 20
-467.900000
 30
0.0
 10
-61.800000
 20
-467.100000
 30
0.0
  0
SPLINE
  5
18d
100
AcDbEntity
  8
0
 62
7
100
AcDbSpline
 70
8
 71
3
 72
8
 73
4
 74
0
 40
0
 40
0
 40
0
 40
0
 40
1
 40
1
 40
1
 40
1
 10
-61.800000
 20
-467.100000
 30
0.0
 10
-61.700000
 20
-466.300000
 30
0.0
 10
-61.000000
 20
-464.900000
 30
0.0
 10
-58.800000
 20
-465.300000
 30
0.0
  0
SPLINE
  5
18e
100
AcDbEntity
  8
0
 62
7
100
AcDbSpline
 70
8
 71
3
 72
8
 73
4
 74
0
 40
0
 40
0
 40
0
 40
0
 40
1
 40
1
 40
1
 40
1
 10
-58.800000
 20
-465.300000
 30
0.0
 10
-56.600000
 20
-465.700000
 30
0.0
 10
-56.900000
 20
-468.100000
 30
0.0
 10
-56.900000
 20
-468.100000
 30
0.0
  0
LWPOLYLINE
  5
18f
100
AcDbEntity
  8
0
 62
7
100
AcDbPolyline
 90
3
 70
0
 10
-123.600000
 20
-464.100000
 30
0.0
 10
-72.400000
 20
-464.100000
 30
0.0
 10
-73.000000
 20
-466.700000
 30
0.0
  0
SPLINE
  5
190
100
AcDbEntity
  8
0
 62
7
100
AcDbSpline
 70
8
 71
3
 72
8
 73
4
 74
0
 40
0
 40
0
 40
0
 40
0
 40
1
 40
1
 40
1
 40
1
 10
-57.400000
 20
-475.300000
 30
0.0
 10
-53.600000
 20
-477.000000
 30
0.0
 10
-49.700000
 20
-478.400000
 30
0.0
 10
-45.700000
 20
-479.600000
 30
0.0
  0
LWPOLYLINE
  5
191
100
AcDbEntity
  8
0
 62
7
100
AcDbPolyline
 90
2
 70
0
 10
-56.900000
 20
-468.100000
 30
0.0
 10
-57.400000
 20
-475.300000
 30
0.0
  0
SPLINE
  5
192
100
AcDbEntity
  8
0
 62
7
100
AcDbSpline
 70
8
 71
3
 72
8
 73
4
 74
0
 40
0
 40
0
 40
0
 40
0
 40
1
 40
1
 40
1
 40
1
 10
-45.700000
 20
-473.900000
 30
0.0
 10
-45.700000
 20
-473.100000
 30
0.0
 10
-45.300000
 20
-471.600000
 30
0.0
 10
-43.100000
 20
-471.600000
 30
0.0
  0
SPLINE
  5
193
100
AcDbEntity
  8
0
 62
7
100
AcDbSpline
 70
8
 71
3
 72
8
 73
4
 74
0
 40
0
 40
0
 40
0
 40
0
 40
1
 40
1
 40
1
 40
1
 10
-43.100000
 20
-471.600000
 30
0.0
 10
-40.900000
 20
-471.600000
 30
0.0
 10
-40.700000
 20
-474.000000
 30
0.0
 10
-40.700000
 20
-474.000000
 30
0.0
  0
LWPOLYLINE
  5
194
100
AcDbEntity
  8
0
 62
7
100
AcDbPolyline
 90
2
 70
0
 10
-45.700000
 20
-479.600000
 30
0.0
 10
-45.700000
 20
-473.900000
 30
0.0
  0
SPLINE
  5
195
100
AcDbEntity
  8
0
 62
7
100
AcDbSpline
 70
8
 71
3
 72
8
 73
4
 74
0
 40
0
 40
0
 40
0
 40
0
 40
1
 40
1
 40
1
 40
1
 10
-39.900000
 20
-481.200000
 30
0.0
 10
-36.100000
 20
-482.100000
 30
0.0
 10
-32.200000
 20
-482.800000
 30
0.0
 10
-28.300000
 20
-483.300000
 30
0.0
  0
SPLINE
  5
196
100
AcDbEntity
  8
0
 62
7
100
AcDbSpline
 70
8
 71
3
 72
8
 73
4
 74
0
 40
0
 40
0
 40
0
 40
0
 40
1
 40
1
 40
1
 40
1
 10
-28.300000
 20
-483.300000
 30
0.0
 10
-28.400000
 20
-483.000000
 30
0.0
 10
-29.100000
 20
-478.500000
 30
0.0
 10
-29.300000
 20
-477.700000
 30
0.0
  0
SPLINE
  5
197
100
AcDbEntity
  8
0
 62
7
100
AcDbSpline
 70
8
 71
3
 72
8
 73
4
 74
0
 40
0
 40
0
 40
0
 40
0
 40
1
 40
1
 40
1
 40
1
 10
-29.300000
 20
-477.700000
 30
0.0
 10
-29.400000
 20
-476.900000
 30
0.0
 10
-29.300000
 20
-475.600000
 30
0.0
 10
-27.600000
 20
-475.100000
 30
0.0
  0
LWPOLYLINE
  5
198
100
AcDbEntity
  8
0
 62
7
100
AcDbPolyline
 90
2
 70
0
 10
-40.700000
 20
-474.000000
 30
0.0
 10
-39.900000
 20
-481.200000
 30
0.0
  0
SPLINE
  5
199
100
AcDbEntity
  8
0
 62
7
100
AcDbSpline
 70
8
 71
3
 72
8
 73
4
 74
0
 40
0
 40
0
 40
0
 40
0
 40
1
 40
1
 40
1
 40
1
 10
-25.200000
 20
-475.600000
 30
0.0
 10
-24.600000
 20
-476.200000
 30
0.0
 10
-24.400000
 20
-476.900000
 30
0.0
 10
-24.400000
 20
-476.900000
 30
0.0
  0
LWPOLYLINE
  5
19a
100
AcDbEntity
  8
0
 62
7
100
AcDbPolyline
 90
4
 70
0
 10
-27.600000
 20
-475.100000
 30
0.0
 10
-26.400000
 20
-464.100000
 30
0.0
 10
-23.900000
 20
-464.100000
 30
0.0
 10
-25.200000
 20
-475.600000
 30
0.0
  0
SPLINE
  5
19b
100
AcDbEntity
  8
0
 62
7
100
AcDbSpline
 70
8
 71
3
 72
8
 73
4
 74
0
 40
0
 40
0
 40
0
 40
0
 40
1
 40
1
 40
1
 40
1
 10
-22.400000
 20
-483.800000
 30
0.0
 10
-20.300000
 20
-483.900000
 30
0.0
 10
-18.300000
 20
-484.000000
 30
0.0
 10
-16.200000
 20
-484.000000
 30
0.0
  0
SPLINE
  5
19c
100
AcDbEntity
  8
0
 62
7
100
AcDbSpline
 70
8
 71
3
 72
8
 73
4
 74
0
 40
0
 40
0
 40
0
 40
0
 40
1
 40
1
 40
1
 40
1
 10
-16.200000
 20
-484.000000
 30
0.0
 10
-14.300000
 20
-484.000000
 30
0.0
 10
-12.500000
 20
-483.900000
 30
0.0
 10
-10.600000
 20
-483.800000
 30
0.0
  0
SPLINE
  5
19d
100
AcDbEntity
  8
0
 62
7
100
AcDbSpline
 70
8
 71
3
 72
8
 73
4
 74
0
 40
0
 40
0
 40
0
 40
0
 40
1
 40
1
 40
1
 40
1
 10
-10.600000
 20
-483.800000
 30
0.0
 10
-10.700000
 20
-483.400000
 30
0.0
 10
-12.300000
 20
-479.200000
 30
0.0
 10
-12.500000
 20
-478.500000
 30
0.0
  0
SPLINE
  5
19e
100
AcDbEntity
  8
0
 62
7
100
AcDbSpline
 70
8
 71
3
 72
8
 73
4
 74
0
 40
0
 40
0
 40
0
 40
0
 40
1
 40
1
 40
1
 40
1
 10
-12.500000
 20
-478.500000
 30
0.0
 10
-12.800000
 20
-477.700000
 30
0.0
 10
-12.900000
 20
-476.200000
 30
0.0
 10
-10.800000
 20
-475.400000
 30
0.0
  0
SPLINE
  5
19f
100
AcDbEntity
  8
0
 62
7
100
AcDbSpline
 70
8
 71
3
 72
8
 73
4
 74
0
 40
0
 40
0
 40
0
 40
0
 40
1
 40
1
 40
1
 40
1
 10
-10.800000
 20
-475.400000
 30
0.0
 10
-8.700000
 20
-474.600000
 30
0.0
 10
-7.700000
 20
-476.800000
 30
0.0
 10
-7.700000
 20
-476.800000
 30
0.0
  0
LWPOLYLINE
  5
1a0
100
AcDbEntity
  8
0
 62
7
100
AcDbPolyline
 90
2
 70
0
 10
-24.400000
 20
-476.900000
 30
0.0
 10
-22.400000
 20
-483.800000
 30
0.0
  0
SPLINE
  5
1a1
100
AcDbEntity
  8
0
 62
7
100
AcDbSpline
 70
8
 71
3
 72
8
 73
4
 74
0
 40
0
 40
0
 40
0
 40
0
 40
1
 40
1
 40
1
 40
1
 10
-4.500000
 20
-483.200000
 30
0.0
 10
-0.500000
 20
-482.800000
 30
0.0
 10
3.300000
 20
-482.100000
 30
0.0
 10
7.200000
 20
-481.200000
 30
0.0
  0
SPLINE
  5
1a2
100
AcDbEntity
  8
0
 62
7
100
AcDbSpline
 70
8
 71
3
 72
8
 73
4
 74
0
 40
0
 40
0
 40
0
 40
0
 40
1
 40
1
 40
1
 40
1
 10
7.200000
 20
-481.200000
 30
0.0
 10
7.200000
 20
-481.100000
 30
0.0
 10
4.800000
 20
-477.000000
 30
0.0
 10
4.400000
 20
-476.300000
 30
0.0
  0
SPLINE
  5
1a3
100
AcDbEntity
  8
0
 62
7
100
AcDbSpline
 70
8
 71
3
 72
8
 73
4
 74
0
 40
0
 40
0
 40
0
 40
0
 40
1
 40
1
 40
1
 40
1
 10
4.400000
 20
-476.300000
 30
0.0
 10
4.000000
 20
-475.600000
 30
0.0
 10
3.600000
 20
-474.100000
 30
0.0
 10
5.500000
 20
-473.000000
 30
0.0
  0
SPLINE
  5
1a4
100
AcDbEntity
  8
0
 62
7
100
AcDbSpline
 70
8
 71
3
 72
8
 73
4
 74
0
 40
0
 40
0
 40
0
 40
0
 40
1
 40
1
 40
1
 40
1
 10
5.500000
 20
-473.000000
 30
0.0
 10
7.400000
 20
-471.900000
 30
0.0
 10
8.800000
 20
-473.900000
 30
0.0
 10
8.800000
 20
-473.900000
 30
0.0
  0
LWPOLYLINE
  5
1a5
100
AcDbEntity
  8
0
 62
7
100
AcDbPolyline
 90
2
 70
0
 10
-7.700000
 20
-476.800000
 30
0.0
 10
-4.500000
 20
-483.200000
 30
0.0
  0
SPLINE
  5
1a6
100
AcDbEntity
  8
0
 62
7
100
AcDbSpline
 70
8
 71
3
 72
8
 73
4
 74
0
 40
0
 40
0
 40
0
 40
0
 40
1
 40
1
 40
1
 40
1
 10
13.100000
 20
-479.700000
 30
0.0
 10
16.900000
 20
-478.600000
 30
0.0
 10
20.600000
 20
-477.200000
 30
0.0
 10
24.200000
 20
-475.700000
 30
0.0
  0
SPLINE
  5
1a7
100
AcDbEntity
  8
0
 62
7
100
AcDbSpline
 70
8
 71
3
 72
8
 73
4
 74
0
 40
0
 40
0
 40
0
 40
0
 40
1
 40
1
 40
1
 40
1
 10
24.200000
 20
-475.700000
 30
0.0
 10
24.200000
 20
-475.700000
 30
0.0
 10
21.100000
 20
-472.000000
 30
0.0
 10
20.600000
 20
-471.300000
 30
0.0
  0
SPLINE
  5
1a8
100
AcDbEntity
  8
0
 62
7
100
AcDbSpline
 70
8
 71
3
 72
8
 73
4
 74
0
 40
0
 40
0
 40
0
 40
0
 40
1
 40
1
 40
1
 40
1
 10
20.600000
 20
-471.300000
 30
0.0
 10
20.100000
 20
-470.700000
 30
0.0
 10
19.400000
 20
-469.300000
 30
0.0
 10
21.100000
 20
-467.800000
 30
0.0
  0
SPLINE
  5
1a9
100
AcDbEntity
  8
0
 62
7
100
AcDbSpline
 70
8
 71
3
 72
8
 73
4
 74
0
 40
0
 40
0
 40
0
 40
0
 40
1
 40
1
 40
1
 40
1
 10
21.100000
 20
-467.800000
 30
0.0
 10
22.800000
 20
-466.400000
 30
0.0
 10
24.500000
 20
-468.100000
 30
0.0
 10
24.500000
 20
-468.100000
 30
0.0
  0
LWPOLYLINE
  5
1aa
100
AcDbEntity
  8
0
 62
7
100
AcDbPolyline
 90
2
 70
0
 10
8.800000
 20
-473.900000
 30
0.0
 10
13.100000
 20
-479.700000
 30
0.0
  0
SPLINE
  5
1ab
100
AcDbEntity
  8
0
 62
7
100
AcDbSpline
 70
8
 71
3
 72
8
 73
4
 74
0
 40
0
 40
0
 40
0
 40
0
 40
1
 40
1
 40
1
 40
1
 10
29.700000
 20
-473.100000
 30
0.0
 10
33.200000
 20
-471.300000
 30
0.0
 10
36.700000
 20
-469.400000
 30
0.0
 10
40.000000
 20
-467.200000
 30
0.0
  0
SPLINE
  5
1ac
100
AcDbEntity
  8
0
 62
7
100
AcDbSpline
 70
8
 71
3
 72
8
 73
4
 74
0
 40
0
 40
0
 40
0
 40
0
 40
1
 40
1
 40
1
 40
1
 10
40.000000
 20
-467.200000
 30
0.0
 10
39.900000
 20
-467.100000
 30
0.0
 10
37.200000
 20
-464.800000
 30
0.0
 10
36.100000
 20
-463.900000
 30
0.0
  0
LWPOLYLINE
  5
1ad
100
AcDbEntity
  8
0
 62
7
100
AcDbPolyline
 90
2
 70
0
 10
24.500000
 20
-468.100000
 30
0.0
 10
29.700000
 20
-473.100000
 30
0.0
  0
SPLINE
  5
1ae
100
AcDbEntity
  8
0
 62
7
100
AcDbSpline
 70
8
 71
3
 72
8
 73
4
 74
0
 40
0
 40
0
 40
0
 40
0
 40
1
 40
1
 40
1
 40
1
 10
88.400000
 20
-463.900000
 30
0.0
 10
109.100000
 20
-464.200000
 30
0.0
 10
116.800000
 20
-450.200000
 30
0.0
 10
105.900000
 20
-433.100000
 30
0.0
  0
LWPOLYLINE
  5
1af
100
AcDbEntity
  8
0
 62
7
100
AcDbPolyline
 90
2
 70
0
 10
36.100000
 20
-463.900000
 30
0.0
 10
88.400000
 20
-463.900000
 30
0.0
  0
LWPOLYLINE
  5
1b0
100
AcDbEntity
  8
0
 62
7
100
AcDbPolyline
 90
1
 70
1
 10
105.900000
 20
-433.100000
 30
0.0
  0
SPLINE
  5
1b1
100
AcDbEntity
  8
0
 62
7
100
AcDbSpline
 70
8
 71
3
 72
8
 73
4
 74
0
 40
0
 40
0
 40
0
 40
0
 40
1
 40
1
 40
1
 40
1
 10
-123.700000
 20
-452.500000
 30
0.0
 10
-132.400000
 20
-452.500000
 30
0.0
 10
-135.700000
 20
-446.500000
 30
0.0
 10
-131.000000
 20
-439.200000
 30
0.0
  0
LWPOLYLINE
  5
1b2
100
AcDbEntity
  8
0
 62
7
100
AcDbPolyline
 90
2
 70
0
 10
89.200000
 20
-452.500000
 30
0.0
 10
-123.700000
 20
-452.500000
 30
0.0
  0
SPLINE
  5
1b3
100
AcDbEntity
  8
0
 62
7
100
AcDbSpline
 70
8
 71
3
 72
8
 73
4
 74
0
 40
0
 40
0
 40
0
 40
0
 40
1
 40
1
 40
1
 40
1
 10
-25.900000
 20
-275.200000
 30
0.0
 10
-21.200000
 20
-267.900000
 30
0.0
 10
-13.500000
 20
-267.900000
 30
0.0
 10
-8.800000
 20
-275.200000
 30
0.0
  0
LWPOLYLINE
  5
1b4
100
AcDbEntity
  8
0
 62
7
100
AcDbPolyline
 90
2
 70
0
 10
-131.000000
 20
-439.200000
 30
0.0
 10
-25.900000
 20
-275.200000
 30
0.0
  0
SPLINE
  5
1b5
100
AcDbEntity
  8
0
 62
7
100
AcDbSpline
 70
8
 71
3
 72
8
 73
4
 74
0
 40
0
 40
0
 40
0
 40
0
 40
1
 40
1
 40
1
 40
1
 10
96.500000
 20
-439.100000
 30
0.0
 10
101.200000
 20
-446.500000
 30
0.0
 10
97.900000
 20
-452.500000
 30
0.0
 10
89.200000
 20
-452.500000
 30
0.0
  0
LWPOLYLINE
  5
1b6
100
AcDbEntity
  8
0
 62
7
100
AcDbPolyline
 90
2
 70
0
 10
-8.800000
 20
-275.200000
 30
0.0
 10
96.500000
 20
-439.100000
 30
0.0
  0
LWPOLYLINE
  5
1b7
100
AcDbEntity
  8
0
 62
7
100
AcDbPolyline
 90
1
 70
1
 10
89.200000
 20
-452.500000
 30
0.0
  0
SPLINE
  5
1b8
100
AcDbEntity
  8
0
 62
7
100
AcDbSpline
 70
8
 71
3
 72
8
 73
4
 74
0
 40
0
 40
0
 40
0
 40
0
 40
1
 40
1
 40
1
 40
1
 10
-18.000000
 20
-398.900000
 30
0.0
 10
-19.200000
 20
-398.300000
 30
0.0
 10
-20.700000
 20
-396.900000
 30
0.0
 10
-22.800000
 20
-395.000000
 30
0.0
  0
LWPOLYLINE
  5
1b9
100
AcDbEntity
  8
0
 62
7
100
AcDbPolyline
 90
81
 70
0
 10
-22.800000
 20
-395.000000
 30
0.0
 10
-23.000000
 20
-395.200000
 30
0.0
 10
-23.100000
 20
-395.300000
 30
0.0
 10
-23.200000
 20
-395.400000
 30
0.0
 10
-23.300000
 20
-395.400000
 30
0.0
 10
-23.300000
 20
-395.400000
 30
0.0
 10
-23.300000
 20
-395.400000
 30
0.0
 10
-23.300000
 20
-395.400000
 30
0.0
 10
-23.300000
 20
-395.400000
 30
0.0
 10
-23.400000
 20
-395.500000
 30
0.0
 10
-23.500000
 20
-395.500000
 30
0.0
 10
-23.500000
 20
-395.500000
 30
0.0
 10
-23.500000
 20
-395.500000
 30
0.0
 10
-23.500000
 20
-395.500000
 30
0.0
 10
-23.500000
 20
-395.500000
 30
0.0
 10
-23.600000
 20
-395.600000
 30
0.0
 10
-23.700000
 20
-395.700000
 30
0.0
 10
-23.700000
 20
-395.700000
 30
0.0
 10
-23.700000
 20
-395.700000
 30
0.0
 10
-23.700000
 20
-395.700000
 30
0.0
 10
-23.900000
 20
-395.800000
 30
0.0
 10
-24.100000
 20
-395.900000
 30
0.0
 10
-24.200000
 20
-396.000000
 30
0.0
 10
-24.300000
 20
-396.100000
 30
0.0
 10
-24.500000
 20
-396.200000
 30
0.0
 10
-24.500000
 20
-396.200000
 30
0.0
 10
-24.500000
 20
-396.200000
 30
0.0
 10
-24.500000
 20
-396.200000
 30
0.0
 10
-24.600000
 20
-396.300000
 30
0.0
 10
-24.800000
 20
-396.400000
 30
0.0
 10
-25.000000
 20
-396.500000
 30
0.0
 10
-25.100000
 20
-396.600000
 30
0.0
 10
-25.200000
 20
-396.600000
 30
0.0
 10
-25.300000
 20
-396.600000
 30
0.0
 10
-27.500000
 20
-397.300000
 30
0.0
 10
-27.700000
 20
-397.300000
 30
0.0
 10
-27.900000
 20
-397.400000
 30
0.0
 10
-28.000000
 20
-397.500000
 30
0.0
 10
-28.100000
 20
-397.500000
 30
0.0
 10
-28.200000
 20
-397.500000
 30
0.0
 10
-28.300000
 20
-397.500000
 30
0.0
 10
-28.400000
 20
-397.500000
 30
0.0
 10
-28.400000
 20
-397.500000
 30
0.0
 10
-28.400000
 20
-397.600000
 30
0.0
 10
-28.400000
 20
-397.600000
 30
0.0
 10
-28.400000
 20
-397.700000
 30
0.0
 10
-28.500000
 20
-397.800000
 30
0.0
 10
-28.500000
 20
-397.800000
 30
0.0
 10
-28.500000
 20
-397.900000
 30
0.0
 10
-28.500000
 20
-398.000000
 30
0.0
 10
-28.500000
 20
-398.100000
 30
0.0
 10
-28.500000
 20
-398.200000
 30
0.0
 10
-28.500000
 20
-398.300000
 30
0.0
 10
-28.500000
 20
-398.500000
 30
0.0
 10
-28.400000
 20
-398.700000
 30
0.0
 10
-28.300000
 20
-398.900000
 30
0.0
 10
-28.200000
 20
-399.100000
 30
0.0
 10
-28.100000
 20
-399.200000
 30
0.0
 10
-28.000000
 20
-399.300000
 30
0.0
 10
-27.400000
 20
-399.900000
 30
0.0
 10
-26.800000
 20
-400.500000
 30
0.0
 10
-26.200000
 20
-401.100000
 30
0.0
 10
-25.600000
 20
-401.700000
 30
0.0
 10
-25.000000
 20
-402.300000
 30
0.0
 10
-24.700000
 20
-402.600000
 30
0.0
 10
-24.400000
 20
-402.900000
 30
0.0
 10
-23.700000
 20
-403.500000
 30
0.0
 10
-23.000000
 20
-404.100000
 30
0.0
 10
-22.100000
 20
-403.800000
 30
0.0
 10
-21.800000
 20
-403.300000
 30
0.0
 10
-21.500000
 20
-402.800000
 30
0.0
 10
-21.200000
 20
-402.400000
 30
0.0
 10
-20.900000
 20
-402.000000
 30
0.0
 10
-20.700000
 20
-401.700000
 30
0.0
 10
-20.500000
 20
-401.500000
 30
0.0
 10
-20.300000
 20
-401.300000
 30
0.0
 10
-20.100000
 20
-401.100000
 30
0.0
 10
-19.000000
 20
-400.100000
 30
0.0
 10
-18.600000
 20
-399.800000
 30
0.0
 10
-18.000000
 20
-399.300000
 30
0.0
 10
-18.000000
 20
-398.900000
 30
0.0
  0
LWPOLYLINE
  5
1ba
100
AcDbEntity
  8
0
 62
7
100
AcDbPolyline
 90
1
 70
1
 10
-22.800000
 20
-395.000000
 30
0.0
  0
SPLINE
  5
1bb
100
AcDbEntity
  8
0
 62
7
100
AcDbSpline
 70
8
 71
3
 72
8
 73
4
 74
0
 40
0
 40
0
 40
0
 40
0
 40
1
 40
1
 40
1
 40
1
 10
5.900000
 20
-376.500000
 30
0.0
 10
4.600000
 20
-375.600000
 30
0.0
 10
3.600000
 20
-374.500000
 30
0.0
 10
3.000000
 20
-373.000000
 30
0.0
  0
LWPOLYLINE
  5
1bc
100
AcDbEntity
  8
0
 62
7
100
AcDbPolyline
 90
5
 70
0
 10
2.800000
 20
-379.200000
 30
0.0
 10
3.700000
 20
-378.400000
 30
0.0
 10
4.600000
 20
-377.600000
 30
0.0
 10
5.500000
 20
-376.800000
 30
0.0
 10
5.900000
 20
-376.500000
 30
0.0
  0
SPLINE
  5
1bd
100
AcDbEntity
  8
0
 62
7
100
AcDbSpline
 70
8
 71
3
 72
8
 73
4
 74
0
 40
0
 40
0
 40
0
 40
0
 40
1
 40
1
 40
1
 40
1
 10
-15.700000
 20
-388.100000
 30
0.0
 10
-13.600000
 20
-389.800000
 30
0.0
 10
-12.300000
 20
-390.800000
 30
0.0
 10
-11.600000
 20
-391.100000
 30
0.0
  0
LWPOLYLINE
  5
1be
100
AcDbEntity
  8
0
 62
7
100
AcDbPolyline
 90
32
 70
0
 10
3.000000
 20
-373.000000
 30
0.0
 10
2.800000
 20
-373.100000
 30
0.0
 10
2.600000
 20
-373.300000
 30
0.0
 10
1.600000
 20
-374.100000
 30
0.0
 10
0.600000
 20
-374.900000
 30
0.0
 10
-0.400000
 20
-375.700000
 30
0.0
 10
-0.900000
 20
-376.100000
 30
0.0
 10
-1.400000
 20
-376.500000
 30
0.0
 10
-1.900000
 20
-376.900000
 30
0.0
 10
-2.400000
 20
-377.300000
 30
0.0
 10
-2.900000
 20
-377.700000
 30
0.0
 10
-3.100000
 20
-377.900000
 30
0.0
 10
-3.200000
 20
-378.000000
 30
0.0
 10
-3.300000
 20
-378.100000
 30
0.0
 10
-4.200000
 20
-378.800000
 30
0.0
 10
-8.600000
 20
-382.200000
 30
0.0
 10
-9.400000
 20
-382.800000
 30
0.0
 10
-9.900000
 20
-383.200000
 30
0.0
 10
-10.400000
 20
-383.600000
 30
0.0
 10
-10.700000
 20
-383.900000
 30
0.0
 10
-11.300000
 20
-384.400000
 30
0.0
 10
-11.900000
 20
-384.900000
 30
0.0
 10
-12.100000
 20
-385.000000
 30
0.0
 10
-12.300000
 20
-385.100000
 30
0.0
 10
-12.800000
 20
-385.500000
 30
0.0
 10
-13.300000
 20
-385.900000
 30
0.0
 10
-13.700000
 20
-386.300000
 30
0.0
 10
-14.200000
 20
-386.800000
 30
0.0
 10
-14.700000
 20
-387.300000
 30
0.0
 10
-15.100000
 20
-387.700000
 30
0.0
 10
-15.500000
 20
-388.000000
 30
0.0
 10
-15.700000
 20
-388.100000
 30
0.0
  0
SPLINE
  5
1bf
100
AcDbEntity
  8
0
 62
7
100
AcDbSpline
 70
8
 71
3
 72
8
 73
4
 74
0
 40
0
 40
0
 40
0
 40
0
 40
1
 40
1
 40
1
 40
1
 10
-11.300000
 20
-391.100000
 30
0.0
 10
-10.800000
 20
-391.100000
 30
0.0
 10
-10.300000
 20
-391.100000
 30
0.0
 10
-9.600000
 20
-391.200000
 30
0.0
  0
LWPOLYLINE
  5
1c0
100
AcDbEntity
  8
0
 62
7
100
AcDbPolyline
 90
2
 70
0
 10
-11.600000
 20
-391.100000
 30
0.0
 10
-11.300000
 20
-391.100000
 30
0.0
  0
LWPOLYLINE
  5
1c1
100
AcDbEntity
  8
0
 62
7
100
AcDbPolyline
 90
19
 70
0
 10
-9.600000
 20
-391.200000
 30
0.0
 10
-9.000000
 20
-390.600000
 30
0.0
 10
-8.600000
 20
-390.300000
 30
0.0
 10
-7.800000
 20
-389.600000
 30
0.0
 10
-7.500000
 20
-389.300000
 30
0.0
 10
-6.700000
 20
-388.500000
 30
0.0
 10
-6.400000
 20
-388.200000
 30
0.0
 10
-5.900000
 20
-387.800000
 30
0.0
 10
-5.500000
 20
-387.400000
 30
0.0
 10
-4.700000
 20
-386.700000
 30
0.0
 10
-3.900000
 20
-386.000000
 30
0.0
 10
-3.100000
 20
-385.300000
 30
0.0
 10
-2.400000
 20
-384.600000
 30
0.0
 10
-0.700000
 20
-382.500000
 30
0.0
 10
0.100000
 20
-381.700000
 30
0.0
 10
0.900000
 20
-380.900000
 30
0.0
 10
1.700000
 20
-380.100000
 30
0.0
 10
2.800000
 20
-379.200000
 30
0.0
 10
2.800000
 20
-379.200000
 30
0.0
  0
SPLINE
  5
1c2
100
AcDbEntity
  8
0
 62
7
100
AcDbSpline
 70
8
 71
3
 72
8
 73
4
 74
0
 40
0
 40
0
 40
0
 40
0
 40
1
 40
1
 40
1
 40
1
 10
15.400000
 20
-375.900000
 30
0.0
 10
17.700000
 20
-374.500000
 30
0.0
 10
19.200000
 20
-371.900000
 30
0.0
 10
19.200000
 20
-369.000000
 30
0.0
  0
SPLINE
  5
1c3
100
AcDbEntity
  8
0
 62
7
100
AcDbSpline
 70
8
 71
3
 72
8
 73
4
 74
0
 40
0
 40
0
 40
0
 40
0
 40
1
 40
1
 40
1
 40
1
 10
19.200000
 20
-369.000000
 30
0.0
 10
19.200000
 20
-368.300000
 30
0.0
 10
19.100000
 20
-367.600000
 30
0.0
 10
18.900000
 20
-366.900000
 30
0.0
  0
LWPOLYLINE
  5
1c4
100
AcDbEntity
  8
0
 62
7
100
AcDbPolyline
 90
2
 70
0
 10
15.400000
 20
-419.500000
 30
0.0
 10
15.400000
 20
-375.900000
 30
0.0
  0
SPLINE
  5
1c5
100
AcDbEntity
  8
0
 62
7
100
AcDbSpline
 70
8
 71
3
 72
8
 73
4
 74
0
 40
0
 40
0
 40
0
 40
0
 40
1
 40
1
 40
1
 40
1
 10
13.900000
 20
-361.300000
 30
0.0
 10
13.100000
 20
-361.000000
 30
0.0
 10
12.200000
 20
-360.900000
 30
0.0
 10
11.300000
 20
-360.900000
 30
0.0
  0
SPLINE
  5
1c6
100
AcDbEntity
  8
0
 62
7
100
AcDbSpline
 70
8
 71
3
 72
8
 73
4
 74
0
 40
0
 40
0
 40
0
 40
0
 40
1
 40
1
 40
1
 40
1
 10
11.300000
 20
-360.900000
 30
0.0
 10
6.800000
 20
-360.900000
 30
0.0
 10
3.200000
 20
-364.500000
 30
0.0
 10
3.200000
 20
-369.000000
 30
0.0
  0
SPLINE
  5
1c7
100
AcDbEntity
  8
0
 62
7
100
AcDbSpline
 70
8
 71
3
 72
8
 73
4
 74
0
 40
0
 40
0
 40
0
 40
0
 40
1
 40
1
 40
1
 40
1
 10
3.200000
 20
-369.000000
 30
0.0
 10
3.200000
 20
-370.200000
 30
0.0
 10
3.400000
 20
-371.300000
 30
0.0
 10
3.900000
 20
-372.300000
 30
0.0
  0
SPLINE
  5
1c8
100
AcDbEntity
  8
0
 62
7
100
AcDbSpline
 70
8
 71
3
 72
8
 73
4
 74
0
 40
0
 40
0
 40
0
 40
0
 40
1
 40
1
 40
1
 40
1
 10
3.900000
 20
-372.300000
 30
0.0
 10
4.500000
 20
-373.700000
 30
0.0
 10
5.500000
 20
-374.900000
 30
0.0
 10
6.800000
 20
-375.800000
 30
0.0
  0
SPLINE
  5
1c9
100
AcDbEntity
  8
0
 62
7
100
AcDbSpline
 70
8
 71
3
 72
8
 73
4
 74
0
 40
0
 40
0
 40
0
 40
0
 40
1
 40
1
 40
1
 40
1
 10
6.800000
 20
-375.800000
 30
0.0
 10
7.000000
 20
-375.900000
 30
0.0
 10
7.100000
 20
-376.000000
 30
0.0
 10
7.300000
 20
-376.100000
 30
0.0
  0
LWPOLYLINE
  5
1ca
100
AcDbEntity
  8
0
 62
7
100
AcDbPolyline
 90
25
 70
0
 10
18.900000
 20
-366.900000
 30
0.0
 10
18.600000
 20
-367.200000
 30
0.0
 10
17.600000
 20
-368.000000
 30
0.0
 10
16.600000
 20
-368.800000
 30
0.0
 10
15.600000
 20
-369.600000
 30
0.0
 10
15.100000
 20
-370.000000
 30
0.0
 10
15.100000
 20
-370.700000
 30
0.0
 10
12.900000
 20
-372.900000
 30
0.0
 10
11.800000
 20
-372.900000
 30
0.0
 10
9.800000
 20
-372.900000
 30
0.0
 10
9.600000
 20
-372.900000
 30
0.0
 10
7.100000
 20
-370.700000
 30
0.0
 10
7.100000
 20
-369.200000
 30
0.0
 10
7.100000
 20
-367.400000
 30
0.0
 10
7.100000
 20
-367.300000
 30
0.0
 10
9.600000
 20
-364.700000
 30
0.0
 10
10.100000
 20
-364.700000
 30
0.0
 10
11.100000
 20
-363.800000
 30
0.0
 10
11.600000
 20
-363.400000
 30
0.0
 10
12.100000
 20
-363.000000
 30
0.0
 10
12.300000
 20
-362.800000
 30
0.0
 10
12.500000
 20
-362.600000
 30
0.0
 10
13.000000
 20
-362.200000
 30
0.0
 10
13.500000
 20
-361.700000
 30
0.0
 10
13.900000
 20
-361.300000
 30
0.0
  0
SPLINE
  5
1cb
100
AcDbEntity
  8
0
 62
7
100
AcDbSpline
 70
8
 71
3
 72
8
 73
4
 74
0
 40
0
 40
0
 40
0
 40
0
 40
1
 40
1
 40
1
 40
1
 10
7.300000
 20
-419.500000
 30
0.0
 10
3.900000
 20
-421.000000
 30
0.0
 10
1.400000
 20
-424.500000
 30
0.0
 10
1.400000
 20
-428.500000
 30
0.0
  0
SPLINE
  5
1cc
100
AcDbEntity
  8
0
 62
7
100
AcDbSpline
 70
8
 71
3
 72
8
 73
4
 74
0
 40
0
 40
0
 40
0
 40
0
 40
1
 40
1
 40
1
 40
1
 10
1.400000
 20
-428.500000
 30
0.0
 10
1.400000
 20
-431.600000
 30
0.0
 10
2.800000
 20
-434.400000
 30
0.0
 10
5.100000
 20
-436.200000
 30
0.0
  0
LWPOLYLINE
  5
1cd
100
AcDbEntity
  8
0
 62
7
100
AcDbPolyline
 90
2
 70
0
 10
7.300000
 20
-376.100000
 30
0.0
 10
7.300000
 20
-419.500000
 30
0.0
  0
SPLINE
  5
1ce
100
AcDbEntity
  8
0
 62
7
100
AcDbSpline
 70
8
 71
3
 72
8
 73
4
 74
0
 40
0
 40
0
 40
0
 40
0
 40
1
 40
1
 40
1
 40
1
 10
17.600000
 20
-436.200000
 30
0.0
 10
19.900000
 20
-434.400000
 30
0.0
 10
21.300000
 20
-431.600000
 30
0.0
 10
21.300000
 20
-428.500000
 30
0.0
  0
SPLINE
  5
1cf
100
AcDbEntity
  8
0
 62
7
100
AcDbSpline
 70
8
 71
3
 72
8
 73
4
 74
0
 40
0
 40
0
 40
0
 40
0
 40
1
 40
1
 40
1
 40
1
 10
21.300000
 20
-428.500000
 30
0.0
 10
21.200000
 20
-424.500000
 30
0.0
 10
18.800000
 20
-421.000000
 30
0.0
 10
15.400000
 20
-419.500000
 30
0.0
  0
LWPOLYLINE
  5
1d0
100
AcDbEntity
  8
0
 62
7
100
AcDbPolyline
 90
8
 70
0
 10
5.100000
 20
-436.200000
 30
0.0
 10
6.000000
 20
-436.200000
 30
0.0
 10
6.000000
 20
-430.000000
 30
0.0
 10
11.300000
 20
-425.800000
 30
0.0
 10
16.700000
 20
-430.000000
 30
0.0
 10
16.700000
 20
-436.200000
 30
0.0
 10
17.500000
 20
-436.200000
 30
0.0
 10
17.600000
 20
-436.200000
 30
0.0
  0
SPLINE
  5
1d1
100
AcDbEntity
  8
0
 62
7
100
AcDbSpline
 70
8
 71
3
 72
8
 73
4
 74
0
 40
0
 40
0
 40
0
 40
0
 40
1
 40
1
 40
1
 40
1
 10
12.100000
 20
-418.100000
 30
0.0
 10
12.100000
 20
-418.300000
 30
0.0
 10
12.000000
 20
-418.400000
 30
0.0
 10
12.000000
 20
-418.600000
 30
0.0
  0
SPLINE
  5
1d2
100
AcDbEntity
  8
0
 62
7
100
AcDbSpline
 70
8
 71
3
 72
8
 73
4
 74
0
 40
0
 40
0
 40
0
 40
0
 40
1
 40
1
 40
1
 40
1
 10
12.000000
 20
-418.600000
 30
0.0
 10
11.800000
 20
-418.900000
 30
0.0
 10
11.500000
 20
-419.100000
 30
0.0
 10
11.100000
 20
-419.100000
 30
0.0
  0
SPLINE
  5
1d3
100
AcDbEntity
  8
0
 62
7
100
AcDbSpline
 70
8
 71
3
 72
8
 73
4
 74
0
 40
0
 40
0
 40
0
 40
0
 40
1
 40
1
 40
1
 40
1
 10
11.100000
 20
-419.100000
 30
0.0
 10
10.700000
 20
-419.100000
 30
0.0
 10
10.400000
 20
-418.900000
 30
0.0
 10
10.200000
 20
-418.600000
 30
0.0
  0
SPLINE
  5
1d4
100
AcDbEntity
  8
0
 62
7
100
AcDbSpline
 70
8
 71
3
 72
8
 73
4
 74
0
 40
0
 40
0
 40
0
 40
0
 40
1
 40
1
 40
1
 40
1
 10
10.200000
 20
-418.600000
 30
0.0
 10
10.100000
 20
-418.500000
 30
0.0
 10
10.100000
 20
-418.300000
 30
0.0
 10
10.100000
 20
-418.100000
 30
0.0
  0
LWPOLYLINE
  5
1d5
100
AcDbEntity
  8
0
 62
7
100
AcDbPolyline
 90
1
 70
1
 10
15.400000
 20
-419.500000
 30
0.0
  0
SPLINE
  5
1d6
100
AcDbEntity
  8
0
 62
7
100
AcDbSpline
 70
8
 71
3
 72
8
 73
4
 74
0
 40
0
 40
0
 40
0
 40
0
 40
1
 40
1
 40
1
 40
1
 10
10.100000
 20
-380.900000
 30
0.0
 10
10.100000
 20
-380.300000
 30
0.0
 10
10.600000
 20
-379.900000
 30
0.0
 10
11.100000
 20
-379.900000
 30
0.0
  0
SPLINE
  5
1d7
100
AcDbEntity
  8
0
 62
7
100
AcDbSpline
 70
8
 71
3
 72
8
 73
4
 74
0
 40
0
 40
0
 40
0
 40
0
 40
1
 40
1
 40
1
 40
1
 10
11.100000
 20
-379.900000
 30
0.0
 10
11.700000
 20
-379.900000
 30
0.0
 10
12.100000
 20
-380.400000
 30
0.0
 10
12.100000
 20
-380.900000
 30
0.0
  0
LWPOLYLINE
  5
1d8
100
AcDbEntity
  8
0
 62
7
100
AcDbPolyline
 90
2
 70
0
 10
10.100000
 20
-418.100000
 30
0.0
 10
10.100000
 20
-380.900000
 30
0.0
  0
SPLINE
  5
1d9
100
AcDbEntity
  8
0
 62
7
100
AcDbSpline
 70
8
 71
3
 72
8
 73
4
 74
0
 40
0
 40
0
 40
0
 40
0
 40
1
 40
1
 40
1
 40
1
 10
-47.300000
 20
-362.400000
 30
0.0
 10
-48.600000
 20
-361.200000
 30
0.0
 10
-49.400000
 20
-360.400000
 30
0.0
 10
-49.400000
 20
-360.200000
 30
0.0
  0
SPLINE
  5
1da
100
AcDbEntity
  8
0
 62
7
100
AcDbSpline
 70
8
 71
3
 72
8
 73
4
 74
0
 40
0
 40
0
 40
0
 40
0
 40
1
 40
1
 40
1
 40
1
 10
-49.400000
 20
-360.200000
 30
0.0
 10
-49.700000
 20
-359.100000
 30
0.0
 10
-49.500000
 20
-356.500000
 30
0.0
 10
-51.500000
 20
-354.700000
 30
0.0
  0
SPLINE
  5
1db
100
AcDbEntity
  8
0
 62
7
100
AcDbSpline
 70
8
 71
3
 72
8
 73
4
 74
0
 40
0
 40
0
 40
0
 40
0
 40
1
 40
1
 40
1
 40
1
 10
-51.500000
 20
-354.700000
 30
0.0
 10
-53.300000
 20
-353.100000
 30
0.0
 10
-54.900000
 20
-352.700000
 30
0.0
 10
-55.900000
 20
-352.700000
 30
0.0
  0
LWPOLYLINE
  5
1dc
100
AcDbEntity
  8
0
 62
7
100
AcDbPolyline
 90
3
 70
0
 10
12.100000
 20
-380.900000
 30
0.0
 10
12.100000
 20
-418.100000
 30
0.0
 10
12.100000
 20
-418.100000
 30
0.0
  0
SPLINE
  5
1dd
100
AcDbEntity
  8
0
 62
7
100
AcDbSpline
 70
8
 71
3
 72
8
 73
4
 74
0
 40
0
 40
0
 40
0
 40
0
 40
1
 40
1
 40
1
 40
1
 10
-56.300000
 20
-352.700000
 30
0.0
 10
-57.100000
 20
-352.700000
 30
0.0
 10
-57.700000
 20
-352.800000
 30
0.0
 10
-58.100000
 20
-352.900000
 30
0.0
  0
LWPOLYLINE
  5
1de
100
AcDbEntity
  8
0
 62
7
100
AcDbPolyline
 90
2
 70
0
 10
-55.900000
 20
-352.700000
 30
0.0
 10
-56.300000
 20
-352.700000
 30
0.0
  0
SPLINE
  5
1df
100
AcDbEntity
  8
0
 62
7
100
AcDbSpline
 70
8
 71
3
 72
8
 73
4
 74
0
 40
0
 40
0
 40
0
 40
0
 40
1
 40
1
 40
1
 40
1
 10
-59.000000
 20
-353.200000
 30
0.0
 10
-59.200000
 20
-353.300000
 30
0.0
 10
-59.300000
 20
-353.400000
 30
0.0
 10
-59.300000
 20
-353.400000
 30
0.0
  0
LWPOLYLINE
  5
1e0
100
AcDbEntity
  8
0
 62
7
100
AcDbPolyline
 90
2
 70
0
 10
-58.100000
 20
-352.900000
 30
0.0
 10
-59.000000
 20
-353.200000
 30
0.0
  0
SPLINE
  5
1e1
100
AcDbEntity
  8
0
 62
7
100
AcDbSpline
 70
8
 71
3
 72
8
 73
4
 74
0
 40
0
 40
0
 40
0
 40
0
 40
1
 40
1
 40
1
 40
1
 10
-55.800000
 20
-356.600000
 30
0.0
 10
-55.600000
 20
-357.500000
 30
0.0
 10
-55.700000
 20
-358.200000
 30
0.0
 10
-55.900000
 20
-358.800000
 30
0.0
  0
SPLINE
  5
1e2
100
AcDbEntity
  8
0
 62
7
100
AcDbSpline
 70
8
 71
3
 72
8
 73
4
 74
0
 40
0
 40
0
 40
0
 40
0
 40
1
 40
1
 40
1
 40
1
 10
-55.900000
 20
-358.800000
 30
0.0
 10
-56.100000
 20
-359.100000
 30
0.0
 10
-56.300000
 20
-359.600000
 30
0.0
 10
-56.600000
 20
-359.800000
 30
0.0
  0
SPLINE
  5
1e3
100
AcDbEntity
  8
0
 62
7
100
AcDbSpline
 70
8
 71
3
 72
8
 73
4
 74
0
 40
0
 40
0
 40
0
 40
0
 40
1
 40
1
 40
1
 40
1
 10
-56.600000
 20
-359.800000
 30
0.0
 10
-56.900000
 20
-360.000000
 30
0.0
 10
-57.100000
 20
-360.200000
 30
0.0
 10
-57.400000
 20
-360.400000
 30
0.0
  0
SPLINE
  5
1e4
100
AcDbEntity
  8
0
 62
7
100
AcDbSpline
 70
8
 71
3
 72
8
 73
4
 74
0
 40
0
 40
0
 40
0
 40
0
 40
1
 40
1
 40
1
 40
1
 10
-57.400000
 20
-360.400000
 30
0.0
 10
-57.600000
 20
-360.500000
 30
0.0
 10
-57.900000
 20
-360.600000
 30
0.0
 10
-58.100000
 20
-360.700000
 30
0.0
  0
LWPOLYLINE
  5
1e5
100
AcDbEntity
  8
0
 62
7
100
AcDbPolyline
 90
2
 70
0
 10
-59.300000
 20
-353.400000
 30
0.0
 10
-55.800000
 20
-356.600000
 30
0.0
  0
SPLINE
  5
1e6
100
AcDbEntity
  8
0
 62
7
100
AcDbSpline
 70
8
 71
3
 72
8
 73
4
 74
0
 40
0
 40
0
 40
0
 40
0
 40
1
 40
1
 40
1
 40
1
 10
-63.000000
 20
-357.900000
 30
0.0
 10
-63.000000
 20
-357.900000
 30
0.0
 10
-63.800000
 20
-361.100000
 30
0.0
 10
-60.600000
 20
-363.900000
 30
0.0
  0
SPLINE
  5
1e7
100
AcDbEntity
  8
0
 62
7
100
AcDbSpline
 70
8
 71
3
 72
8
 73
4
 74
0
 40
0
 40
0
 40
0
 40
0
 40
1
 40
1
 40
1
 40
1
 10
-60.600000
 20
-363.900000
 30
0.0
 10
-59.400000
 20
-364.900000
 30
0.0
 10
-58.100000
 20
-365.100000
 30
0.0
 10
-57.000000
 20
-365.100000
 30
0.0
  0
SPLINE
  5
1e8
100
AcDbEntity
  8
0
 62
7
100
AcDbSpline
 70
8
 71
3
 72
8
 73
4
 74
0
 40
0
 40
0
 40
0
 40
0
 40
1
 40
1
 40
1
 40
1
 10
-57.000000
 20
-365.100000
 30
0.0
 10
-55.900000
 20
-365.100000
 30
0.0
 10
-55.000000
 20
-364.900000
 30
0.0
 10
-54.600000
 20
-364.900000
 30
0.0
  0
LWPOLYLINE
  5
1e9
100
AcDbEntity
  8
0
 62
7
100
AcDbPolyline
 90
3
 70
0
 10
-58.100000
 20
-360.700000
 30
0.0
 10
-61.400000
 20
-357.800000
 30
0.0
 10
-63.000000
 20
-357.900000
 30
0.0
  0
SPLINE
  5
1ea
100
AcDbEntity
  8
0
 62
7
100
AcDbSpline
 70
8
 71
3
 72
8
 73
4
 74
0
 40
0
 40
0
 40
0
 40
0
 40
1
 40
1
 40
1
 40
1
 10
-54.500000
 20
-364.900000
 30
0.0
 10
-54.300000
 20
-364.900000
 30
0.0
 10
-51.400000
 20
-367.400000
 30
0.0
 10
-47.200000
 20
-370.900000
 30
0.0
  0
LWPOLYLINE
  5
1eb
100
AcDbEntity
  8
0
 62
7
100
AcDbPolyline
 90
2
 70
0
 10
-54.600000
 20
-364.900000
 30
0.0
 10
-54.500000
 20
-364.900000
 30
0.0
  0
SPLINE
  5
1ec
100
AcDbEntity
  8
0
 62
7
100
AcDbSpline
 70
8
 71
3
 72
8
 73
4
 74
0
 40
0
 40
0
 40
0
 40
0
 40
1
 40
1
 40
1
 40
1
 10
-5.600000
 20
-394.900000
 30
0.0
 10
-8.100000
 20
-392.700000
 30
0.0
 10
-10.400000
 20
-393.100000
 30
0.0
 10
-11.800000
 20
-393.000000
 30
0.0
  0
SPLINE
  5
1ed
100
AcDbEntity
  8
0
 62
7
100
AcDbSpline
 70
8
 71
3
 72
8
 73
4
 74
0
 40
0
 40
0
 40
0
 40
0
 40
1
 40
1
 40
1
 40
1
 10
-11.800000
 20
-393.000000
 30
0.0
 10
-14.200000
 20
-392.200000
 30
0.0
 10
-31.000000
 20
-377.400000
 30
0.0
 10
-41.300000
 20
-367.900000
 30
0.0
  0
LWPOLYLINE
  5
1ee
100
AcDbEntity
  8
0
 62
7
100
AcDbPolyline
 90
3
 70
0
 10
-47.200000
 20
-370.900000
 30
0.0
 10
-47.200000
 20
-362.400000
 30
0.0
 10
-47.300000
 20
-362.400000
 30
0.0
  0
SPLINE
  5
1ef
100
AcDbEntity
  8
0
 62
7
100
AcDbSpline
 70
8
 71
3
 72
8
 73
4
 74
0
 40
0
 40
0
 40
0
 40
0
 40
1
 40
1
 40
1
 40
1
 10
-41.300000
 20
-375.900000
 30
0.0
 10
-30.400000
 20
-385.400000
 30
0.0
 10
-16.600000
 20
-397.500000
 30
0.0
 10
-16.500000
 20
-397.900000
 30
0.0
  0
SPLINE
  5
1f0
100
AcDbEntity
  8
0
 62
7
100
AcDbSpline
 70
8
 71
3
 72
8
 73
4
 74
0
 40
0
 40
0
 40
0
 40
0
 40
1
 40
1
 40
1
 40
1
 10
-16.500000
 20
-397.900000
 30
0.0
 10
-16.400000
 20
-398.600000
 30
0.0
 10
-16.200000
 20
-402.300000
 30
0.0
 10
-14.300000
 20
-404.200000
 30
0.0
  0
SPLINE
  5
1f1
100
AcDbEntity
  8
0
 62
7
100
AcDbSpline
 70
8
 71
3
 72
8
 73
4
 74
0
 40
0
 40
0
 40
0
 40
0
 40
1
 40
1
 40
1
 40
1
 10
-14.300000
 20
-404.200000
 30
0.0
 10
-12.900000
 20
-405.600000
 30
0.0
 10
-11.600000
 20
-406.000000
 30
0.0
 10
-10.600000
 20
-406.000000
 30
0.0
  0
SPLINE
  5
1f2
100
AcDbEntity
  8
0
 62
7
100
AcDbSpline
 70
8
 71
3
 72
8
 73
4
 74
0
 40
0
 40
0
 40
0
 40
0
 40
1
 40
1
 40
1
 40
1
 10
-10.600000
 20
-406.000000
 30
0.0
 10
-10.200000
 20
-406.000000
 30
0.0
 10
-9.800000
 20
-405.900000
 30
0.0
 10
-9.400000
 20
-405.800000
 30
0.0
  0
SPLINE
  5
1f3
100
AcDbEntity
  8
0
 62
7
100
AcDbSpline
 70
8
 71
3
 72
8
 73
4
 74
0
 40
0
 40
0
 40
0
 40
0
 40
1
 40
1
 40
1
 40
1
 10
-9.400000
 20
-405.800000
 30
0.0
 10
-8.200000
 20
-405.700000
 30
0.0
 10
-7.400000
 20
-405.200000
 30
0.0
 10
-7.400000
 20
-405.200000
 30
0.0
  0
LWPOLYLINE
  5
1f4
100
AcDbEntity
  8
0
 62
7
100
AcDbPolyline
 90
2
 70
0
 10
-41.300000
 20
-367.900000
 30
0.0
 10
-41.300000
 20
-375.900000
 30
0.0
  0
SPLINE
  5
1f5
100
AcDbEntity
  8
0
 62
7
100
AcDbSpline
 70
8
 71
3
 72
8
 73
4
 74
0
 40
0
 40
0
 40
0
 40
0
 40
1
 40
1
 40
1
 40
1
 10
-10.700000
 20
-402.000000
 30
0.0
 10
-10.700000
 20
-401.700000
 30
0.0
 10
-10.600000
 20
-398.900000
 30
0.0
 10
-8.000000
 20
-398.000000
 30
0.0
  0
LWPOLYLINE
  5
1f6
100
AcDbEntity
  8
0
 62
7
100
AcDbPolyline
 90
4
 70
0
 10
-7.400000
 20
-405.200000
 30
0.0
 10
-10.700000
 20
-402.000000
 30
0.0
 10
-10.700000
 20
-402.000000
 30
0.0
 10
-10.700000
 20
-402.000000
 30
0.0
  0
SPLINE
  5
1f7
100
AcDbEntity
  8
0
 62
7
100
AcDbSpline
 70
8
 71
3
 72
8
 73
4
 74
0
 40
0
 40
0
 40
0
 40
0
 40
1
 40
1
 40
1
 40
1
 10
-3.400000
 20
-401.000000
 30
0.0
 10
-3.500000
 20
-401.100000
 30
0.0
 10
-2.600000
 20
-397.700000
 30
0.0
 10
-5.600000
 20
-394.900000
 30
0.0
  0
LWPOLYLINE
  5
1f8
100
AcDbEntity
  8
0
 62
7
100
AcDbPolyline
 90
4
 70
0
 10
-8.000000
 20
-398.000000
 30
0.0
 10
-8.000000
 20
-398.000000
 30
0.0
 10
-4.600000
 20
-401.100000
 30
0.0
 10
-3.400000
 20
-401.000000
 30
0.0
  0
LWPOLYLINE
  5
1f9
100
AcDbEntity
  8
0
 62
7
100
AcDbPolyline
 90
1
 70
1
 10
-5.600000
 20
-394.900000
 30
0.0
  0
SPLINE
  5
1fa
100
AcDbEntity
  8
0
 62
7
100
AcDbSpline
 70
8
 71
3
 72
8
 73
4
 74
0
 40
0
 40
0
 40
0
 40
0
 40
1
 40
1
 40
1
 40
1
 10
-39.700000
 20
-403.000000
 30
0.0
 10
-39.700000
 20
-402.500000
 30
0.0
 10
-40.700000
 20
-402.200000
 30
0.0
 10
-42.200000
 20
-402.000000
 30
0.0
  0
SPLINE
  5
1fb
100
AcDbEntity
  8
0
 62
7
100
AcDbSpline
 70
8
 71
3
 72
8
 73
4
 74
0
 40
0
 40
0
 40
0
 40
0
 40
1
 40
1
 40
1
 40
1
 10
-42.200000
 20
-402.000000
 30
0.0
 10
-42.400000
 20
-402.000000
 30
0.0
 10
-43.200000
 20
-401.900000
 30
0.0
 10
-43.500000
 20
-401.900000
 30
0.0
  0
LWPOLYLINE
  5
1fc
100
AcDbEntity
  8
0
 62
7
100
AcDbPolyline
 90
2
 70
1
 10
-39.700000
 20
-403.000000
 30
0.0
 10
-39.700000
 20
-403.000000
 30
0.0
  0
SPLINE
  5
1fd
100
AcDbEntity
  8
0
 62
7
100
AcDbSpline
 70
8
 71
3
 72
8
 73
4
 74
0
 40
0
 40
0
 40
0
 40
0
 40
1
 40
1
 40
1
 40
1
 10
-45.300000
 20
-401.800000
 30
0.0
 10
-45.500000
 20
-401.800000
 30
0.0
 10
-45.300000
 20
-401.800000
 30
0.0
 10
-45.600000
 20
-401.800000
 30
0.0
  0
SPLINE
  5
1fe
100
AcDbEntity
  8
0
 62
7
100
AcDbSpline
 70
8
 71
3
 72
8
 73
4
 74
0
 40
0
 40
0
 40
0
 40
0
 40
1
 40
1
 40
1
 40
1
 10
-45.600000
 20
-401.800000
 30
0.0
 10
-47.100000
 20
-401.900000
 30
0.0
 10
-48.100000
 20
-402.200000
 30
0.0
 10
-48.100000
 20
-402.600000
 30
0.0
  0
LWPOLYLINE
  5
1ff
100
AcDbEntity
  8
0
 62
7
100
AcDbPolyline
 90
8
 70
0
 10
-43.500000
 20
-401.900000
 30
0.0
 10
-43.500000
 20
-355.000000
 30
0.0
 10
-42.900000
 20
-353.500000
 30
0.0
 10
-43.600000
 20
-348.700000
 30
0.0
 10
-45.400000
 20
-348.700000
 30
0.0
 10
-46.100000
 20
-353.500000
 30
0.0
 10
-45.300000
 20
-354.900000
 30
0.0
 10
-45.300000
 20
-401.800000
 30
0.0
  0
SPLINE
  5
200
100
AcDbEntity
  8
0
 62
7
100
AcDbSpline
 70
8
 71
3
 72
8
 73
4
 74
0
 40
0
 40
0
 40
0
 40
0
 40
1
 40
1
 40
1
 40
1
 10
-48.100000
 20
-402.700000
 30
0.0
 10
-48.100000
 20
-402.900000
 30
0.0
 10
-48.000000
 20
-403.000000
 30
0.0
 10
-47.700000
 20
-403.200000
 30
0.0
  0
SPLINE
  5
201
100
AcDbEntity
  8
0
 62
7
100
AcDbSpline
 70
8
 71
3
 72
8
 73
4
 74
0
 40
0
 40
0
 40
0
 40
0
 40
1
 40
1
 40
1
 40
1
 10
-47.700000
 20
-403.200000
 30
0.0
 10
-47.300000
 20
-403.700000
 30
0.0
 10
-46.800000
 20
-404.500000
 30
0.0
 10
-46.800000
 20
-405.400000
 30
0.0
  0
SPLINE
  5
202
100
AcDbEntity
  8
0
 62
7
100
AcDbSpline
 70
8
 71
3
 72
8
 73
4
 74
0
 40
0
 40
0
 40
0
 40
0
 40
1
 40
1
 40
1
 40
1
 10
-46.800000
 20
-405.400000
 30
0.0
 10
-47.000000
 20
-405.800000
 30
0.0
 10
-47.200000
 20
-406.400000
 30
0.0
 10
-47.300000
 20
-406.900000
 30
0.0
  0
SPLINE
  5
203
100
AcDbEntity
  8
0
 62
7
100
AcDbSpline
 70
8
 71
3
 72
8
 73
4
 74
0
 40
0
 40
0
 40
0
 40
0
 40
1
 40
1
 40
1
 40
1
 10
-47.300000
 20
-406.900000
 30
0.0
 10
-47.800000
 20
-413.200000
 30
0.0
 10
-48.400000
 20
-426.200000
 30
0.0
 10
-48.900000
 20
-432.400000
 30
0.0
  0
SPLINE
  5
204
100
AcDbEntity
  8
0
 62
7
100
AcDbSpline
 70
8
 71
3
 72
8
 73
4
 74
0
 40
0
 40
0
 40
0
 40
0
 40
1
 40
1
 40
1
 40
1
 10
-48.900000
 20
-432.400000
 30
0.0
 10
-49.100000
 20
-434.000000
 30
0.0
 10
-48.100000
 20
-437.600000
 30
0.0
 10
-45.600000
 20
-438.100000
 30
0.0
  0
SPLINE
  5
205
100
AcDbEntity
  8
0
 62
7
100
AcDbSpline
 70
8
 71
3
 72
8
 73
4
 74
0
 40
0
 40
0
 40
0
 40
0
 40
1
 40
1
 40
1
 40
1
 10
-45.600000
 20
-438.100000
 30
0.0
 10
-45.200000
 20
-438.200000
 30
0.0
 10
-44.800000
 20
-438.200000
 30
0.0
 10
-44.300000
 20
-438.200000
 30
0.0
  0
SPLINE
  5
206
100
AcDbEntity
  8
0
 62
7
100
AcDbSpline
 70
8
 71
3
 72
8
 73
4
 74
0
 40
0
 40
0
 40
0
 40
0
 40
1
 40
1
 40
1
 40
1
 10
-44.300000
 20
-438.200000
 30
0.0
 10
-43.900000
 20
-438.200000
 30
0.0
 10
-43.600000
 20
-438.200000
 30
0.0
 10
-43.300000
 20
-438.100000
 30
0.0
  0
SPLINE
  5
207
100
AcDbEntity
  8
0
 62
7
100
AcDbSpline
 70
8
 71
3
 72
8
 73
4
 74
0
 40
0
 40
0
 40
0
 40
0
 40
1
 40
1
 40
1
 40
1
 10
-43.300000
 20
-438.100000
 30
0.0
 10
-40.800000
 20
-437.600000
 30
0.0
 10
-39.700000
 20
-434.200000
 30
0.0
 10
-39.800000
 20
-432.500000
 30
0.0
  0
SPLINE
  5
208
100
AcDbEntity
  8
0
 62
7
100
AcDbSpline
 70
8
 71
3
 72
8
 73
4
 74
0
 40
0
 40
0
 40
0
 40
0
 40
1
 40
1
 40
1
 40
1
 10
-39.800000
 20
-432.500000
 30
0.0
 10
-40.100000
 20
-426.200000
 30
0.0
 10
-40.400000
 20
-413.200000
 30
0.0
 10
-40.700000
 20
-406.900000
 30
0.0
  0
SPLINE
  5
209
100
AcDbEntity
  8
0
 62
7
100
AcDbSpline
 70
8
 71
3
 72
8
 73
4
 74
0
 40
0
 40
0
 40
0
 40
0
 40
1
 40
1
 40
1
 40
1
 10
-40.700000
 20
-406.900000
 30
0.0
 10
-40.700000
 20
-406.400000
 30
0.0
 10
-40.900000
 20
-405.800000
 30
0.0
 10
-41.100000
 20
-405.400000
 30
0.0
  0
SPLINE
  5
20a
100
AcDbEntity
  8
0
 62
7
100
AcDbSpline
 70
8
 71
3
 72
8
 73
4
 74
0
 40
0
 40
0
 40
0
 40
0
 40
1
 40
1
 40
1
 40
1
 10
-41.100000
 20
-405.400000
 30
0.0
 10
-41.100000
 20
-404.500000
 30
0.0
 10
-40.500000
 20
-403.700000
 30
0.0
 10
-40.100000
 20
-403.300000
 30
0.0
  0
SPLINE
  5
20b
100
AcDbEntity
  8
0
 62
7
100
AcDbSpline
 70
8
 71
3
 72
8
 73
4
 74
0
 40
0
 40
0
 40
0
 40
0
 40
1
 40
1
 40
1
 40
1
 10
-40.100000
 20
-403.300000
 30
0.0
 10
-39.800000
 20
-403.300000
 30
0.0
 10
-39.700000
 20
-403.200000
 30
0.0
 10
-39.700000
 20
-403.000000
 30
0.0
  0
LWPOLYLINE
  5
20c
100
AcDbEntity
  8
0
 62
7
100
AcDbPolyline
 90
3
 70
0
 10
-48.100000
 20
-402.600000
 30
0.0
 10
-48.100000
 20
-402.600000
 30
0.0
 10
-48.100000
 20
-402.700000
 30
0.0
  0
LWPOLYLINE
  5
20d
100
AcDbEntity
  8
0
 62
7
100
AcDbPolyline
 90
1
 70
1
 10
-39.700000
 20
-403.000000
 30
0.0
  0
ENDSEC
  0
SECTION
  2
OBJECTS
  0
DICTIONARY
  5
C
330
0
100
AcDbDictionary
  3
ACAD_GROUP
350
D
  3
ACAD_MLINESTYLE
350
17
  0
DICTIONARY
  5
D
330
C
100
AcDbDictionary
  0
DICTIONARY
  5
1A
330
C
100
AcDbDictionary
  0
DICTIONARY
  5
17
330
C
100
AcDbDictionary
  3
STANDARD
350
18
  0
DICTIONARY
  5
19
330
C
100
AcDbDictionary
  0
ENDSEC
  0
EOF
