<?xml version="1.0" encoding="utf-8"?>
<!-- Generator: Adobe Illustrator 19.1.0, SVG Export Plug-In . SVG Version: 6.00 Build 0)  -->
<svg version="1.1" xmlns="http://www.w3.org/2000/svg" xmlns:xlink="http://www.w3.org/1999/xlink" x="0px" y="0px"
	 viewBox="0 0 256.2 225.4" style="enable-background:new 0 0 256.2 225.4;" xml:space="preserve">
<metadata><?xpacket begin="﻿" id="W5M0MpCehiHzreSzNTczkc9d"?>
<x:xmpmeta xmlns:x="adobe:ns:meta/" x:xmptk="Adobe XMP Core 5.6-c067 79.157747, 2015/03/30-23:40:42        ">
   <rdf:RDF xmlns:rdf="http://www.w3.org/1999/02/22-rdf-syntax-ns#">
      <rdf:Description rdf:about=""/>
   </rdf:RDF>
</x:xmpmeta>
                                                                                                    
                                                                                                    
                                                                                                    
                                                                                                    
                                                                                                    
                                                                                                    
                                                                                                    
                                                                                                    
                                                                                                    
                                                                                                    
                                                                                                    
                                                                                                    
                                                                                                    
                                                                                                    
                                                                                                    
                                                                                                    
                                                                                                    
                                                                                                    
                                                                                                    
                                                                                                    
                           
<?xpacket end="w"?></metadata>
<style type="text/css">
	.st0{fill:#B1B3B6;}
</style>
<g id="background">
</g>
<g id="logos">
	<g>
		<g>
			<path class="st0" d="M156.5,121.8c-0.6,0-1,0.5-1,1v37.2c0,0.2,0.1,0.3,0.1,0.5c0.2,0.3,0.5,0.5,0.9,0.5c0.4,0,0.7-0.2,0.9-0.5
				c0.1-0.1,0.1-0.3,0.1-0.5v-37.2C157.6,122.3,157.1,121.8,156.5,121.8z"/>
			<path class="st0" d="M241.9,181L136.7,17.1c-4.7-7.3-12.4-7.3-17.1,0L14.4,181c-4.7,7.3-1.4,13.3,7.3,13.3h212.9
				C243.3,194.4,246.6,188.4,241.9,181z M90.7,106.7c-0.4,0-1.3,0.2-2.4,0.2c-1.1,0-2.5-0.2-3.6-1.2c-3.2-2.7-2.4-6-2.4-6l1.6-0.1
				l3.3,2.9c0.3-0.1,0.5-0.2,0.7-0.3c0.3-0.2,0.6-0.3,0.8-0.6c0.3-0.2,0.5-0.7,0.7-1c0.2-0.6,0.3-1.3,0.1-2.2l-3.5-3.2
				c0,0,0.1-0.1,0.3-0.2c0.3-0.2,0.6-0.3,0.9-0.3c0.3-0.1,0.9-0.2,1.8-0.2c0.1,0,0.3,0,0.4,0c1.1,0.1,2.6,0.4,4.4,2
				c2,1.8,1.9,4.4,2.1,5.5c0,0.1,0.8,0.9,2.1,2.2v8.4C93.9,109.2,91,106.8,90.7,106.7C90.8,106.7,90.8,106.7,90.7,106.7z M104.8,149
				c0.3,6.3,0.6,19.3,0.9,25.6c0.1,1.6-1,5.1-3.5,5.6c-0.3,0.1-0.7,0.1-1,0.1c-0.4,0-0.8,0-1.3-0.1c-2.4-0.5-3.5-4.1-3.3-5.7
				c0.5-6.3,1.1-19.3,1.6-25.5c0-0.5,0.2-1.1,0.5-1.5c0-0.9-0.5-1.7-0.9-2.2c-0.3-0.1-0.4-0.3-0.4-0.5c0,0,0-0.1,0-0.1c0,0,0,0,0,0
				c0-0.4,1.1-0.7,2.5-0.8c0.2,0,0,0,0.3,0V96.9c0,0-0.8-1.4-0.8-1.4l0.7-4.8h1.8l0.7,4.8c0,0-0.6,1.4-0.6,1.5v46.9
				c0.2,0,1.1,0,1.3,0.1c1.4,0.2,2.4,0.5,2.4,0.9c0,0,0,0,0,0c0,0,0,0.1,0,0.1c0,0.2-0.1,0.3-0.4,0.4c-0.4,0.5-1,1.3-1,2.1
				C104.6,148,104.7,148.5,104.8,149z M126.4,141.7l-0.4,0.3l-1.1,1l-0.2,0.2l-0.2,0.2l-0.2,0.2l-0.2,0.3l-0.3,0.4l-0.3,0.4
				l-0.3,0.5l-0.3,0.5l-0.9,0.3l-0.7-0.6l-0.7-0.6l-0.3-0.3l-0.3-0.3l-0.6-0.6l-0.6-0.6l-0.6-0.6l-0.6-0.6l-0.6-0.6l-0.1-0.1
				l-0.1-0.1l-0.1-0.2l-0.1-0.2l-0.1-0.2l0-0.2l0-0.1l0-0.1v-0.1l0-0.1l0-0.1l0,0l0.1-0.1l0-0.1l0,0l0-0.1l0,0l0.1,0l0.1,0l0.1,0
				l0.1,0l0.1-0.1l0.2-0.1l0.2,0l2.2-0.7l0.1,0l0.1,0l0.1-0.1l0.2-0.1l0.2-0.1l0.1-0.1l0,0l0,0l0,0l0.2-0.1l0.1-0.1l0.1-0.1l0.2-0.1
				l0.2-0.1l0,0l0,0l0,0l0.1-0.1l0.1-0.1l0,0l0,0l0,0l0,0l0.1,0l0.1-0.1l0,0l0,0l0,0l0,0l0.1,0l0.1-0.1l0.1-0.1l0.2-0.2
				c2.1,1.9,3.6,3.2,4.3,3.9c0,0.1,0,0.2,0,0.4L126.4,141.7z M141.9,143l-1.2,0.1l-3.4-3.1c0,0,0,0,0,0c-2.6,1-2.7,3.7-2.7,4v0
				c0,0,0,0,0,0l3.3,3.2c0,0-0.8,0.5-2,0.6c-0.3,0.1-0.7,0.2-1.2,0.2c-1,0-2.3-0.4-3.7-1.8c-1.9-1.9-2-5.6-2.2-6.3
				c-0.1-0.4-13.8-12.6-24.8-22v-8c10.3,9.5,27.2,24.3,29.5,25.1c1.4,0.1,3.8-0.3,6.2,1.9C142.9,139.6,141.9,143,141.9,143z
				 M145.7,123.5l-0.8,0.8l-1.7,2.1l-0.7,0.7l-0.8,0.7l-0.8,0.7l-0.8,0.7l-0.4,0.4l-0.5,0.4l-0.3,0.3l-0.8,0.8l-0.3,0.3l-0.8,0.7
				l-0.4,0.3l-0.6,0.6c-0.6-0.1-1.2-0.1-1.7-0.1c-0.1,0-0.2,0-0.3,0c-0.6-0.4-2-1.4-4.1-3l0.2-0.1l0.4-0.3l0.4-0.4l0.5-0.5l0.5-0.5
				l0.4-0.4l0.5-0.4l0.5-0.4l0.2-0.1l0.2-0.1l0.6-0.5l0.6-0.5l0.3-0.3l0.5-0.4l0.5-0.4l0.8-0.6l4.4-3.4l0.9-0.7l0.1-0.1l0.1-0.1
				l0.2-0.2l0.5-0.4l0.5-0.4l0.5-0.4l0.5-0.4l0.5-0.4l1-0.8l1-0.8l1-0.8l0.2-0.2l0.2-0.1c0.6,1.4,1.6,2.6,2.9,3.5l-0.4,0.3l-0.9,0.8
				l-0.9,0.8l-0.9,0.8l-0.8,0.8l-0.8,0.8L145.7,123.5z M162.9,178.1l-0.1,0l-0.8,0l0-6.2l-5.4-4.2l-5.3,4.2l0,6.2l-0.9,0
				c-2.2-1.8-3.7-4.6-3.7-7.7c0-4,2.4-7.5,5.9-9v-43.4c-0.2-0.1-0.4-0.2-0.5-0.3c-1.3-0.9-2.3-2-2.9-3.5c-0.4-1-0.7-2.1-0.7-3.3
				c0-4.5,3.6-8.1,8.1-8.1c0.9,0,1.8,0.2,2.6,0.4l-0.4,0.4l-0.5,0.5l-0.5,0.5l-0.2,0.2l-0.2,0.2l-0.5,0.4l-0.5,0.4l-1,0.9H155
				l-2.5,2.6v0.1v1.8v1.5l2.5,2.2h0.2h2.1h1.1l2.2-2.2V112l0.5-0.4l1-0.8l1-0.8l1-0.8l0.3-0.3c0.2,0.7,0.3,1.4,0.3,2.1
				c0,2.9-1.5,5.5-3.8,6.9v43.6c3.4,1.6,5.8,5,5.8,9C166.6,173.5,165.2,176.3,162.9,178.1z M177.9,114.3l-0.2,0.1l-0.2,0.1l-0.2,0
				l-0.2,0l-0.2,0l-0.3,0l-0.3,0l-0.2-0.6l-0.2-0.6l-0.3-0.6l-0.3-0.6l-0.1-0.3l-0.1-0.3l-0.3-0.5l-0.3-0.5l-0.3-0.5l-0.2-0.3
				l-0.2-0.2l-0.3-0.5l-0.3-0.4l-0.3-0.4l-0.3-0.4l-0.4-0.4l-0.2-0.2l-0.2-0.2l-0.4-0.3l-0.1-0.3l-0.1-0.2l-0.1-0.2l-0.1-0.2
				l-0.1-0.2l-0.1-0.2l-0.1-0.1l-0.1-0.1l-0.1-0.1l-0.1-0.1l-0.1-0.1l-0.1,0l-0.1,0l-0.2,0l-0.2,0l-0.2,0l-0.2,0.1l-0.1,0l-0.1,0.1
				l-0.3,0.2l-0.2,0.1l-0.2,0.1l-0.3,0.1l-0.3,0.1l-0.3,0.1l-0.3,0.1l-0.1,0l-0.1,0l-0.1,0l-0.1,0l-0.1,0l-0.2,0.1l-0.2,0.1l-0.2,0
				l-0.2,0l-0.1,0l-0.1,0l-0.2,0l0,0l0,0l-0.1,0l-1.1,0.8l-1,0.8l-1,0.8l-1,0.8l-1,0.8l-3.4,2.9h-0.2l-2.5-2.2v-1.5l3.2-2.8l0.5-0.5
				l0.5-0.5l0.2-0.2l0.2-0.2l0.5-0.5l0.5-0.5l0.5-0.5l0.5-0.5l0.1-0.1l0.1-0.1l0.2-0.2l1-1l0-0.1l0-0.1l0.1-0.2l0.1-0.1l0.1-0.1
				l0.1-0.1l0.1-0.1l0.2-0.2l0.1-0.1l0.1-0.1l0.3-0.2l0.2-0.1l0.2-0.1l0.1-0.6l0-0.5l0-0.3l0-0.2l0-0.2l0-0.2l0-0.2l-0.1-0.2
				l-0.1-0.2l-0.1-0.2l-0.1-0.2l-0.1-0.2l-0.1-0.2l-0.1-0.2l-0.1-0.2l-0.1-0.2l-0.1-0.1l-0.1-0.1l-0.3-0.3l-0.3-0.2l-0.4-0.2
				l-0.4-0.1l-0.2-0.1l-0.2-0.1l-0.2,0l-0.3,0l-1.9-2.7l0-0.2l0-0.2l0.1-0.2l0.1-0.2l0.1-0.2l0.1-0.2l0.1-0.2l0.1-0.2l0.1-0.1
				l0.1-0.1l0.1-0.1l0.1-0.1l0.1-0.1L160,90l0.2-0.1l0.2-0.1l0.2-0.1l0.2-0.1l0.2-0.1l0.2-0.1l0.2-0.1l0.2-0.1l0.3-0.1l0.3-0.1
				l2.3,2.3l0.1,0.2l0.1,0.2l0.1,0.2l0.1,0.2l0,0.1l0,0.1l0.1,0.2l0.1,0.2l0.1,0.2l0.1,0.2l0.1,0.2l0,0l0,0l0,0.1l0.1,0.1l0.1,0.1
				l0,0.1l0,0.1l0.1,0.1l0.1,0.1l0.1,0l0.1,0l0.1,0.1l0.1,0.1l0.1,0.1l0.1,0.1l0.1,0l0.1,0l0.1,0l0.1,0l0.1,0l0.1,0l0.1,0l0.1,0
				l0.1,0l0.1,0l0.1,0l0.1,0l0.1,0l0.1,0l0.1,0l0.3,0.1l0.3,0.1l0.3,0.2l0.3,0.2l0.3,0.2l0.3,0.2l0.3,0.3l0.3,0.3l0.3,0.3l0.3,0.3
				l0.3,0.3l0.3,0.4l0.3,0.4l0.3,0.4l0.3,0.4l0.2,0.5l0.5,0.9l0.5,0.9l0.2,0.4l0.2,0.4l0.4,0.9l0.4,0.9l0.4,0.9l0.4,0.9l0.2,0.4
				l0.2,0.4l0.3,0.9l0.2,0.4l0.1,0.4l0.2,0.4l0.1,0.4l0.1,0.4l0.1,0.4l0.1,0.4l0.1,0.4l0.1,0.4l0.1,0.4l0.1,0.4l0.1,0.4l0.2,0.9
				l0.4,1.1L177.9,114.3z"/>
		</g>
		<g>
			<path d="M251.3,175l-20.4-32.2c0.5-2.5,0.9-5,1.2-7.5c-0.3,0.1-4.2,0.7-5.4,0.9L224,132l0.3,0c0.6-0.6,1.3-0.8,1.3-0.8l6.9-2.1
				c0.1-2.1,0.2-4.1,0.2-6.2c0-1.9-0.1-3.7-0.2-5.6c-0.4,0.1-4.6,1.7-5.3,1.9c-0.8,0.3-2.3,0.4-3.1-1.7c-0.8-2.1,1.4-3.1,1.4-3.1
				l6.4-3.2c-0.4-4-1.1-7.9-2-11.7c-0.1,0.1-4.2,2.4-4.9,2.8c-0.7,0.4-2.2,0.8-3.3-1.1c-1.1-1.9,0.9-3.3,0.9-3.3l5.8-4.3
				c-1.1-3.8-2.5-7.5-4-11.1c0,0-3.7,3.1-4.4,3.6c-0.6,0.5-2,1.2-3.5-0.5c-1.4-1.7,0.3-3.4,0.3-3.4l5-5.2c-1.8-3.5-3.7-7-5.9-10.3
				c-0.1,0.2-3.1,3.7-3.7,4.3c-0.5,0.6-1.8,1.5-3.5,0.1c-1.7-1.4-0.3-3.4-0.3-3.4l4-6c-2.3-3.2-4.9-6.2-7.5-9.1
				c-0.2,0.4-2.5,4.2-2.9,4.9c-0.4,0.7-1.5,1.8-3.4,0.7c-1.9-1.1-0.9-3.3-0.9-3.3l2.9-6.6c-2.8-2.7-5.9-5.3-9-7.7
				c-0.1,0.4-1.7,4.6-2,5.3c-0.3,0.8-1.2,2-3.3,1.3c-2.1-0.8-1.4-3.1-1.4-3.1l1.7-7c-3.3-2.2-6.7-4.2-10.2-6c0,0.2-0.9,4.8-1,5.6
				c-0.2,0.8-0.8,2.2-3,1.8c-2.2-0.4-1.9-2.8-1.9-2.8l0.5-7.2c-3.8-1.7-7.7-3.1-11.7-4.3v5.7c0,0.1,0,2.1,0,2.2l-13-20.2
				C135.7-5,120-5,109.1,12.1l-7.8,12.2l-0.7-0.1c-3.8,1.1-7.5,2.5-11.1,4c0,0,3.1,3.7,3.7,4.4c0.5,0.6,1.2,2-0.5,3.5
				c-1.7,1.4-3.4-0.3-3.4-0.3l-5.2-5c-3.5,1.8-7,3.7-10.3,5.9c0.2,0.1,3.7,3.1,4.3,3.7c0.6,0.5,1.5,1.8,0.1,3.5
				c-1.4,1.7-3.4,0.3-3.4,0.3l-6-4c-3.2,2.3-6.2,4.9-9.1,7.5c0.4,0.2,4.2,2.5,4.9,2.9c0.7,0.4,1.8,1.5,0.7,3.4
				c-1.1,1.9-3.3,0.9-3.3,0.9l-6.6-2.9c-2.7,2.8-5.3,5.9-7.7,9c0.4,0.1,4.6,1.7,5.3,2c0.8,0.3,2,1.2,1.3,3.3
				c-0.8,2.1-3.1,1.4-3.1,1.4l-7-1.7c-2.2,3.3-4.2,6.7-6,10.2c0.1,0,4.8,0.9,5.6,1c0.8,0.2,2.2,0.8,1.8,3c-0.4,2.2-2.8,1.9-2.8,1.9
				l-7.2-0.5c-1.7,3.8-3.1,7.7-4.3,11.7h5.7c0.8,0,2.3,0.4,2.3,2.6c0,2.2-2.4,2.4-2.4,2.4l-7.2,0.8c-0.9,3.8-1.6,7.7-2.1,11.6
				c0.3-0.1,4.8-0.8,5.6-1c0.8-0.1,2.1,0,2.6,1.7l8.9,1l-1.5,2.4l-8-0.9c-0.6,0.6-1.3,0.8-1.3,0.8l-6.9,2.1
				c-0.1,2.1-0.2,4.1-0.2,6.2c0,1.9,0.1,3.7,0.2,5.6c0.4-0.1,4.6-1.7,5.3-1.9c0.7-0.2,1.9-0.4,2.7,1l-3,4.7l-4.6,2.3
				c0.2,1.4,0.3,2.7,0.6,4.1L4.9,175c-10.9,17.1-3.2,31.1,17.1,31.1h51.2l-0.6,2.6c3.3,2.2,6.7,4.2,10.2,6c0-0.1,0.9-4.8,1-5.6
				c0.1-0.8,0.8-2.2,3-1.8c2.2,0.4,1.9,2.8,1.9,2.8l-0.5,7.2c3.8,1.7,7.7,3.1,11.7,4.3v-5.7c0-0.8,0.4-2.3,2.6-2.3
				c2.2,0,2.4,2.4,2.4,2.4l0.8,7.2c3.8,0.9,7.7,1.6,11.6,2.1c-0.1-0.3-0.8-4.8-1-5.6c-0.1-0.8,0-2.1,1.7-2.6l1.2-11h2.5l-1.3,11.5
				c0.6,0.6,0.8,1.3,0.8,1.3l2,6.9c2.1,0.1,4.1,0.2,6.2,0.2c1.9,0,3.7-0.1,5.6-0.2c-0.1-0.4-1.7-4.6-1.9-5.3
				c-0.3-0.8-0.4-2.3,1.7-3.1c2.1-0.8,3.1,1.4,3.1,1.4l3.2,6.4c4-0.4,7.8-1.1,11.7-2c0-0.1-2.4-4.2-2.8-4.9
				c-0.4-0.7-0.8-2.2,1.1-3.3c1.9-1.1,3.3,0.9,3.3,0.9l4.3,5.8c3.8-1.1,7.5-2.5,11.1-4c0,0-3.1-3.7-3.6-4.4c-0.5-0.6-1.2-2,0.5-3.5
				c1.7-1.4,3.4,0.3,3.4,0.3l5.2,5c3.5-1.8,7-3.7,10.3-5.9c-0.1-0.1-2.8-2.4-3.9-3.3h52.3C254.5,206.1,262.2,192.1,251.3,175z
				 M234.6,194.4H21.7c-8.7,0-12-6-7.3-13.3L119.6,17.1c4.7-7.3,12.4-7.3,17.1,0L241.9,181C246.6,188.4,243.3,194.4,234.6,194.4z"/>
			<path d="M122.6,137l-0.2,0.2l-0.1,0.1l-0.1,0.1l-0.1,0l0,0l0,0l0,0l0,0l-0.1,0.1l-0.1,0l0,0l0,0l0,0l0,0l-0.1,0.1l-0.1,0.1l0,0
				l0,0l0,0l-0.2,0.1l-0.2,0.1l-0.1,0.1l-0.1,0.1l-0.2,0.1l0,0l0,0l0,0l-0.1,0.1l-0.2,0.1l-0.2,0.1l-0.1,0.1l-0.1,0l-0.1,0l-2.2,0.7
				l-0.2,0l-0.2,0.1l-0.1,0.1l-0.1,0l-0.1,0l-0.1,0l-0.1,0l0,0l0,0.1l0,0l0,0.1l-0.1,0.1l0,0l0,0.1l0,0.1v0.1l0,0.1l0,0.1l0,0.2
				l0.1,0.2l0.1,0.2l0.1,0.2l0.1,0.1l0.1,0.1l0.6,0.6l0.6,0.6l0.6,0.6l0.6,0.6l0.6,0.6l0.3,0.3l0.3,0.3l0.7,0.6l0.7,0.6l0.9-0.3
				l0.3-0.5l0.3-0.5l0.3-0.4l0.3-0.4l0.2-0.3l0.2-0.2l0.2-0.2l0.2-0.2l1.1-1l0.4-0.3l0.6-0.5c0-0.1,0-0.3,0-0.4
				C126.2,140.2,124.7,138.8,122.6,137z"/>
			<path d="M148.2,121.1l0.9-0.8l0.9-0.8l0.9-0.8l0.4-0.3c-1.3-0.9-2.3-2-2.9-3.5l-0.2,0.1l-0.2,0.2l-1,0.8l-1,0.8l-1,0.8l-0.5,0.4
				l-0.5,0.4l-0.5,0.4l-0.5,0.4l-0.5,0.4l-0.2,0.2l-0.1,0.1l-0.1,0.1l-0.9,0.7l-4.4,3.4l-0.8,0.6l-0.5,0.4l-0.5,0.4l-0.3,0.3
				l-0.6,0.5l-0.6,0.5l-0.2,0.1l-0.2,0.1l-0.5,0.4l-0.5,0.4l-0.4,0.4l-0.5,0.5L131,129l-0.4,0.4l-0.4,0.3l-0.2,0.1
				c2.1,1.7,3.4,2.7,4.1,3c0.1,0,0.2,0,0.3,0c0.5,0,1,0,1.7,0.1l0.6-0.6l0.4-0.3l0.8-0.7l0.3-0.3l0.8-0.8l0.3-0.3l0.5-0.4l0.4-0.4
				l0.8-0.7l0.8-0.7l0.8-0.7l0.7-0.7l1.7-2.1l0.8-0.8l0.8-0.8l0.8-0.8L148.2,121.1z"/>
			<path d="M160.9,161.4v-43.6c2.3-1.4,3.8-4,3.8-6.9c0-0.7-0.1-1.4-0.3-2.1l-0.3,0.3l-1,0.8l-1,0.8l-1,0.8l-0.5,0.4v0.7l-2.2,2.2
				h-1.1h-2.1H155l-2.5-2.2v-1.5v-1.8v-0.1l2.5-2.6h0.5l1-0.9l0.5-0.4l0.5-0.4l0.2-0.2l0.2-0.2l0.5-0.5l0.5-0.5l0.4-0.4
				c-0.8-0.3-1.7-0.4-2.6-0.4c-4.5,0-8.1,3.6-8.1,8.1c0,1.2,0.2,2.3,0.7,3.3c0.6,1.4,1.6,2.6,2.9,3.5c0.2,0.1,0.3,0.2,0.5,0.3v43.4
				c-3.4,1.5-5.9,5-5.9,9c0,3.1,1.4,5.9,3.7,7.7l0.9,0l0-6.2l5.3-4.2l5.4,4.2l0,6.2l0.8,0l0.1,0c2.3-1.8,3.7-4.6,3.7-7.7
				C166.6,166.4,164.3,162.9,160.9,161.4z M157.6,160.1c0,0.2-0.1,0.3-0.1,0.5c-0.2,0.3-0.5,0.5-0.9,0.5c-0.4,0-0.7-0.2-0.9-0.5
				c-0.1-0.1-0.1-0.3-0.1-0.5v-37.2c0-0.6,0.5-1,1-1c0.6,0,1,0.5,1,1V160.1z"/>
			<path d="M98.1,104.3c-1.3-1.2-2.1-2-2.1-2.2c-0.3-1.1-0.1-3.7-2.1-5.5c-1.8-1.6-3.4-2-4.4-2c-0.1,0-0.3,0-0.4,0
				c-0.8,0-1.4,0.1-1.8,0.2c-0.3,0.1-0.6,0.2-0.9,0.3c-0.2,0.1-0.3,0.2-0.3,0.2l3.5,3.2c0.2,0.9,0.1,1.6-0.1,2.2
				c-0.2,0.3-0.4,0.8-0.7,1c-0.3,0.2-0.5,0.4-0.8,0.6c-0.2,0.1-0.5,0.2-0.7,0.3l-3.3-2.9l-1.6,0.1c0,0-0.8,3.2,2.4,6
				c1.2,1,2.5,1.2,3.6,1.2c1.1,0,2-0.2,2.4-0.2c0,0,0,0,0.1,0c0.2,0,3.1,2.5,7.3,6V104.3z"/>
			<path d="M139.8,136.9c-2.5-2.2-4.8-1.8-6.2-1.9c-2.4-0.8-19.2-15.6-29.5-25.1v8c10.9,9.5,24.7,21.6,24.8,22
				c0.1,0.7,0.3,4.4,2.2,6.3c1.4,1.4,2.7,1.8,3.7,1.8c0.4,0,0.8-0.1,1.2-0.2c1.2-0.1,2-0.6,2-0.6l-3.3-3.2c0,0,0,0,0,0v0
				c0-0.3,0.1-3.1,2.7-4c0,0,0,0,0,0l3.4,3.1l1.2-0.1C141.9,143,142.9,139.6,139.8,136.9z"/>
			<polygon points="177.5,112.3 177.4,111.9 177.3,111.4 177.1,111 177,110.6 176.9,110.1 176.8,109.7 176.7,109.3 176.5,108.8 
				176.4,108.4 176.2,108 176.1,107.5 175.9,107.1 175.6,106.2 175.4,105.8 175.2,105.4 174.9,104.5 174.5,103.6 174.1,102.8 
				173.6,101.9 173.4,101.5 173.2,101.1 172.7,100.2 172.2,99.4 171.9,98.9 171.7,98.5 171.4,98.1 171.2,97.7 170.9,97.3 170.6,97 
				170.3,96.6 170,96.4 169.8,96.1 169.5,95.8 169.2,95.6 168.9,95.4 168.6,95.2 168.3,95 167.9,94.9 167.6,94.7 167.5,94.8 
				167.4,94.8 167.3,94.8 167.1,94.8 167,94.9 166.9,94.9 166.8,94.8 166.7,94.8 166.6,94.8 166.6,94.8 166.5,94.8 166.4,94.8 
				166.3,94.7 166.2,94.7 166.2,94.7 166.1,94.6 166,94.5 165.9,94.5 165.8,94.4 165.7,94.3 165.7,94.3 165.6,94.2 165.5,94.1 
				165.4,94 165.4,93.9 165.3,93.8 165.2,93.7 165.2,93.6 165.2,93.5 165.1,93.5 165.1,93.3 165,93.2 164.9,93 164.8,92.8 
				164.8,92.6 164.7,92.5 164.7,92.4 164.6,92.2 164.6,92 164.5,91.7 164.4,91.5 162.1,89.2 161.9,89.2 161.6,89.3 161.4,89.4 
				161.1,89.5 160.9,89.6 160.7,89.7 160.5,89.7 160.3,89.9 160.1,89.9 160,90 159.8,90.1 159.7,90.3 159.5,90.4 159.4,90.5 
				159.3,90.6 159.2,90.7 159,90.9 158.9,91.1 158.8,91.3 158.7,91.5 158.7,91.6 158.6,91.9 158.6,92.1 158.5,92.3 160.4,95 
				160.7,95 160.9,95.1 161.1,95.1 161.3,95.2 161.8,95.3 162.1,95.5 162.5,95.7 162.8,96 162.9,96.1 163.1,96.2 163.2,96.4 
				163.3,96.6 163.4,96.7 163.5,96.9 163.6,97.1 163.6,97.3 163.7,97.5 163.8,97.7 163.8,97.9 163.8,98.1 163.9,98.4 163.9,98.6 
				163.9,98.9 163.9,99.1 163.9,99.6 163.8,100.2 163.6,100.3 163.5,100.4 163.2,100.7 163.1,100.8 163,100.9 162.7,101.1 
				162.6,101.3 162.6,101.4 162.5,101.5 162.4,101.6 162.3,101.9 162.3,102 162.3,102.1 161.3,103.1 161,103.4 160.9,103.5 
				160.8,103.6 160.3,104.1 159.8,104.6 159.3,105.1 158.8,105.5 158.6,105.8 158.4,106 157.9,106.5 157.4,106.9 154.2,109.8 
				154.2,111.3 156.7,113.5 156.9,113.5 160.2,110.6 161.2,109.7 162.2,108.9 163.3,108 164.3,107.2 165.4,106.4 165.5,106.4 
				165.5,106.4 165.6,106.4 165.7,106.4 165.8,106.3 165.9,106.3 166.1,106.3 166.4,106.3 166.6,106.2 166.8,106.1 167,106.1 
				167.1,106.1 167.2,106 167.2,106 167.4,106 167.6,105.9 167.9,105.7 168.2,105.6 168.6,105.5 168.7,105.4 168.9,105.3 
				169.2,105.1 169.3,105.1 169.4,105 169.6,105 169.7,104.9 169.9,104.9 170,104.9 170.2,104.9 170.3,105 170.5,105 170.6,105.1 
				170.7,105.2 170.8,105.3 170.9,105.4 171,105.6 171.1,105.8 171.2,106 171.3,106.2 171.3,106.4 171.4,106.6 171.8,107 172,107.1 
				172.1,107.3 172.5,107.7 172.9,108.1 173.2,108.5 173.5,109 173.8,109.4 174,109.6 174.2,109.9 174.5,110.4 174.7,110.9 
				175,111.4 175.2,111.7 175.3,112 175.6,112.6 175.8,113.2 176,113.8 176.3,114.5 176.6,114.5 176.8,114.5 177.1,114.5 
				177.3,114.5 177.5,114.5 177.7,114.4 177.9,114.3 178,114.2 177.6,113.2 			"/>
			<path d="M105.7,144.9C105.7,144.9,105.7,144.9,105.7,144.9C105.7,144.9,105.7,144.9,105.7,144.9c0-0.5-1-0.8-2.5-1
				c-0.2,0-1-0.1-1.3-0.1V96.9c0,0,0.6-1.5,0.6-1.5l-0.7-4.8H100l-0.7,4.8c0,0,0.8,1.4,0.8,1.4v46.9c-0.2,0,0,0-0.3,0
				c-1.5,0.1-2.5,0.4-2.5,0.8c0,0,0,0,0,0c0,0,0,0.1,0,0.1c0,0.2,0.1,0.3,0.4,0.5c0.4,0.5,0.9,1.3,0.9,2.2c-0.2,0.4-0.4,1-0.5,1.5
				c-0.5,6.3-1.1,19.3-1.6,25.5c-0.2,1.6,0.8,5.2,3.3,5.7c0.4,0.1,0.8,0.1,1.3,0.1c0.4,0,0.7,0,1-0.1c2.5-0.5,3.6-3.9,3.5-5.6
				c-0.3-6.3-0.6-19.3-0.9-25.6c0-0.5-0.2-1.1-0.4-1.5c0-0.9,0.6-1.7,1-2.1C105.6,145.2,105.7,145.1,105.7,144.9z"/>
		</g>
	</g>
</g>
</svg>
