<?xml version="1.0" encoding="utf-8"?>
<!-- Generator: Adobe Illustrator 19.1.0, SVG Export Plug-In . SVG Version: 6.00 Build 0)  -->
<svg version="1.1" xmlns="http://www.w3.org/2000/svg" xmlns:xlink="http://www.w3.org/1999/xlink" x="0px" y="0px"
	 viewBox="-153 482.7 533.3 226.8" style="enable-background:new -153 482.7 533.3 226.8;" xml:space="preserve">
<metadata><?xpacket begin="﻿" id="W5M0MpCehiHzreSzNTczkc9d"?>
<x:xmpmeta xmlns:x="adobe:ns:meta/" x:xmptk="Adobe XMP Core 5.6-c067 79.157747, 2015/03/30-23:40:42        ">
   <rdf:RDF xmlns:rdf="http://www.w3.org/1999/02/22-rdf-syntax-ns#">
      <rdf:Description rdf:about=""/>
   </rdf:RDF>
</x:xmpmeta>
                                                                                                    
                                                                                                    
                                                                                                    
                                                                                                    
                                                                                                    
                                                                                                    
                                                                                                    
                                                                                                    
                                                                                                    
                                                                                                    
                                                                                                    
                                                                                                    
                                                                                                    
                                                                                                    
                                                                                                    
                                                                                                    
                                                                                                    
                                                                                                    
                                                                                                    
                                                                                                    
                           
<?xpacket end="w"?></metadata>
<style type="text/css">
	.st0{display:none;}
	.st1{display:inline;fill:#231F20;}
	.st2{fill:#231F20;}
	.st3{fill:#B1B3B6;}
</style>
<g id="Layer_2" class="st0">
	<rect x="-153" y="482.5" class="st1" width="533.3" height="226.8"/>
</g>
<g id="Layer_1">
	<polygon class="st2" points="135.3,569.6 139.9,569.6 139.9,529.7 140.9,529.7 152.1,568 158.2,568 169.5,529.7 170.4,529.7 
		170.4,569.6 175.1,569.6 175.1,525.3 166.5,525.3 155.2,563.3 143.9,525.3 135.3,525.3 	"/>
	<path class="st2" d="M196.8,529.7h1.9L205,554h-14.6L196.8,529.7z M181.4,569.6h4.9l3.1-11.3H206l3.1,11.3h4.9l-11.4-44.3h-9.7
		L181.4,569.6z"/>
	<polygon class="st2" points="242.6,569.6 248.1,569.6 235.5,547.2 247.4,525.3 241.9,525.3 231.2,545.5 225.2,545.8 225.2,525.3 
		220.4,525.3 220.4,569.6 225.2,569.6 225.2,550.1 231.3,549.9 	"/>
	<polygon class="st2" points="254,569.6 278.7,569.6 278.7,565.2 258.8,565.2 258.8,549.2 275.1,549.2 275.1,544.9 258.8,544.9 
		258.8,529.7 278.7,529.7 278.7,525.3 254,525.3 	"/>
	<path class="st2" d="M309.3,538.8c0,6.5-2.6,9.6-8.3,9.6h-9.7v-18.8h9.7C306.7,529.6,309.3,532.6,309.3,538.8z M310.1,569.6h5.3
		l-8.5-17.9c4.2-1.5,7.4-4.8,7.4-12.9c0-9.3-4.6-13.4-13.3-13.4h-14.6v44.3h4.9v-17h10.9L310.1,569.6z"/>
	<polygon class="st2" points="326.1,539.8 326.2,525.2 321.7,525.2 321.9,539.8 	"/>
	<path class="st2" d="M358.4,526c0,0-6.8-1.3-11.8-1.3c-8.8,0-13.6,3.8-13.6,12.3c0,7.5,4.4,10,12.6,12c6,1.3,9,2.8,9,8.2
		c0,5.8-2.6,8.8-8.3,8.8c-4.2,0-12.4-0.9-12.4-0.9l-0.3,4c0,0,7.7,1.2,12.7,1.2c9.1,0,13.3-4.7,13.3-13.6c0-7.9-4-10.1-11.9-12.1
		c-6.7-1.7-9.6-2.8-9.6-8.1s2.9-7.4,8.8-7.4c4.3,0,11.3,0.9,11.3,0.9L358.4,526z"/>
	<path class="st2" d="M148.1,595.8h1.9l6.3,24.3h-14.6L148.1,595.8z M132.7,635.7h4.9l3.1-11.3h16.6l3.1,11.3h4.9l-11.4-44.3h-9.7
		L132.7,635.7z"/>
	<path class="st2" d="M194.4,592.1c0,0-6.8-1.3-11.8-1.3c-8.8,0-13.6,3.8-13.6,12.3c0,7.5,4.4,10,12.6,12c6,1.3,9,2.8,9,8.2
		c0,5.8-2.6,8.8-8.3,8.8c-4.2,0-12.4-0.9-12.4-0.9l-0.3,4c0,0,7.7,1.2,12.7,1.2c9.1,0,13.3-4.7,13.3-13.6c0-7.9-4-10.1-11.9-12.1
		c-6.7-1.7-9.6-2.8-9.6-8.1s2.9-7.4,8.8-7.4c4.3,0,11.3,0.9,11.3,0.9L194.4,592.1z"/>
	<polygon class="st2" points="228.4,591.4 223.2,591.4 213.2,611.8 203.3,591.4 198,591.4 210.9,617.1 210.9,635.7 215.6,635.7 
		215.6,617.1 	"/>
	<polygon class="st2" points="256.4,635.7 256.4,631.4 239,631.4 239,591.4 234.1,591.4 234.1,635.7 	"/>
	<path class="st2" d="M265.9,591.4H261v30.8c0,9.7,4.6,14.1,14.4,14.1c9.9,0,14.5-4.4,14.5-14.1v-30.8H285v31.1
		c0,6.8-2.9,9.5-9.5,9.5c-6.5,0-9.5-2.7-9.5-9.5v-31.1H265.9z"/>
	<polygon class="st2" points="299.5,635.7 304.1,635.7 304.1,595.8 305.1,595.8 316.4,634.1 322.4,634.1 333.8,595.8 334.7,595.8 
		334.7,635.7 339.3,635.7 339.3,591.4 330.8,591.4 319.4,629.4 308.2,591.4 299.5,591.4 	"/>
	<path class="st2" d="M370.3,521.7h1.9v-8.1l2.3,7.5h1.5l2.4-7.5v8.1h1.9v-10.8h-2.6l-2.5,7.5l-2.4-7.5h-2.6L370.3,521.7
		L370.3,521.7z M361.9,512.7h2.8v8.9h2v-8.9h2.4v-1.8h-7.2V512.7z"/>
	<g>
		<path class="st3" d="M5,605.1c-0.6,0-1,0.5-1,1v37.2c0,0.2,0.1,0.3,0.1,0.5c0.2,0.3,0.5,0.5,0.9,0.5c0.4,0,0.7-0.2,0.9-0.5
			c0.1-0.1,0.1-0.3,0.1-0.5v-37.2C6.1,605.5,5.6,605.1,5,605.1z"/>
		<path class="st3" d="M90.4,664.3L-14.8,500.4c-4.7-7.3-12.4-7.3-17.1,0l-105.2,163.9c-4.7,7.3-1.4,13.3,7.3,13.3H83.1
			C91.8,677.6,95.1,671.6,90.4,664.3z M-60.8,590c-0.4,0-1.3,0.2-2.4,0.2c-1.1,0-2.5-0.2-3.6-1.2c-3.2-2.7-2.4-6-2.4-6l1.6-0.1
			l3.3,2.9c0.3-0.1,0.5-0.2,0.7-0.3c0.3-0.2,0.6-0.3,0.8-0.6c0.3-0.2,0.5-0.7,0.7-1c0.2-0.6,0.3-1.3,0.1-2.2l-3.5-3.2
			c0,0,0.1-0.1,0.3-0.2c0.3-0.2,0.6-0.3,0.9-0.3c0.3-0.1,0.9-0.2,1.8-0.2c0.1,0,0.3,0,0.4,0c1.1,0.1,2.6,0.4,4.4,2
			c2,1.8,1.9,4.4,2.1,5.5c0,0.1,0.8,0.9,2.1,2.2v8.4C-57.6,592.4-60.5,590-60.8,590C-60.7,590-60.7,590-60.8,590z M-46.8,632.2
			c0.3,6.3,0.6,19.3,0.9,25.6c0.1,1.6-1,5.1-3.5,5.6c-0.3,0.1-0.7,0.1-1,0.1c-0.4,0-0.8,0-1.3-0.1c-2.4-0.5-3.5-4.1-3.3-5.7
			c0.5-6.3,1.1-19.3,1.6-25.5c0-0.5,0.2-1.1,0.5-1.5c0-0.9-0.5-1.7-0.9-2.2c-0.3-0.1-0.4-0.3-0.4-0.5c0,0,0-0.1,0-0.1c0,0,0,0,0,0
			c0-0.4,1.1-0.7,2.5-0.8c0.2,0,0,0,0.3,0v-46.9c0,0-0.8-1.4-0.8-1.4l0.7-4.8h1.8l0.7,4.8c0,0-0.6,1.4-0.6,1.5v46.9
			c0.2,0,1.1,0,1.3,0.1c1.4,0.2,2.4,0.5,2.4,0.9c0,0,0,0,0,0c0,0,0,0.1,0,0.1c0,0.2-0.1,0.3-0.4,0.4c-0.4,0.5-1,1.3-1,2.1
			C-46.9,631.2-46.8,631.7-46.8,632.2z M-25.1,625l-0.4,0.3l-1.1,1l-0.2,0.2l-0.2,0.2l-0.2,0.2l-0.2,0.3l-0.3,0.4l-0.3,0.4l-0.3,0.5
			l-0.3,0.5l-0.9,0.3l-0.7-0.6l-0.7-0.6l-0.3-0.3l-0.3-0.3l-0.6-0.6l-0.6-0.6l-0.6-0.6l-0.6-0.6l-0.6-0.6l-0.1-0.1l-0.1-0.1
			l-0.1-0.2l-0.1-0.2l-0.1-0.2l0-0.2l0-0.1l0-0.1v-0.1l0-0.1l0-0.1l0,0l0.1-0.1l0-0.1l0,0l0-0.1l0,0l0.1,0l0.1,0l0.1,0l0.1,0
			l0.1-0.1l0.2-0.1l0.2,0l2.2-0.7l0.1,0l0.1,0l0.1-0.1l0.2-0.1l0.2-0.1l0.1-0.1l0,0l0,0l0,0l0.2-0.1l0.1-0.1l0.1-0.1l0.2-0.1
			l0.2-0.1l0,0l0,0l0,0l0.1-0.1l0.1-0.1l0,0l0,0l0,0l0,0l0.1,0l0.1-0.1l0,0l0,0l0,0l0,0l0.1,0l0.1-0.1l0.1-0.1l0.2-0.2
			c2.1,1.9,3.6,3.2,4.3,3.9c0,0.1,0,0.2,0,0.4L-25.1,625z M-9.6,626.2l-1.2,0.1l-3.4-3.1c0,0,0,0,0,0c-2.6,1-2.7,3.7-2.7,4
			c0,0,0,0,0,0c0,0,0,0,0,0l3.3,3.2c0,0-0.8,0.5-2,0.6c-0.3,0.1-0.7,0.2-1.2,0.2c-1,0-2.3-0.4-3.7-1.8c-1.9-1.9-2-5.6-2.2-6.3
			c-0.1-0.4-13.8-12.6-24.8-22v-8c10.3,9.5,27.2,24.3,29.5,25.1c1.4,0.1,3.8-0.3,6.2,1.9C-8.6,622.8-9.6,626.2-9.6,626.2z
			 M-5.8,606.7l-0.8,0.8l-1.7,2.1l-0.7,0.7l-0.8,0.7l-0.8,0.7l-0.8,0.7l-0.4,0.4l-0.5,0.4l-0.3,0.3l-0.8,0.8l-0.3,0.3l-0.8,0.7
			l-0.4,0.3l-0.6,0.6c-0.6-0.1-1.2-0.1-1.7-0.1c-0.1,0-0.2,0-0.3,0c-0.6-0.4-2-1.4-4.1-3l0.2-0.1l0.4-0.3l0.4-0.4l0.5-0.5l0.5-0.5
			l0.4-0.4l0.5-0.4l0.5-0.4l0.2-0.1l0.2-0.1l0.6-0.5l0.6-0.5l0.3-0.3l0.5-0.4l0.5-0.4l0.8-0.6l4.4-3.4l0.9-0.7l0.1-0.1l0.1-0.1
			l0.2-0.2l0.5-0.4l0.5-0.4l0.5-0.4l0.5-0.4l0.5-0.4l1-0.8l1-0.8l1-0.8l0.2-0.2l0.2-0.1c0.6,1.4,1.6,2.6,2.9,3.5l-0.4,0.3l-0.9,0.8
			l-0.9,0.8l-0.9,0.8l-0.8,0.8l-0.8,0.8L-5.8,606.7z M11.4,661.3l-0.1,0l-0.8,0l0-6.2l-5.4-4.2l-5.3,4.2l0,6.2l-0.9,0
			c-2.2-1.8-3.7-4.6-3.7-7.7c0-4,2.4-7.5,5.9-9v-43.4c-0.2-0.1-0.4-0.2-0.5-0.3c-1.3-0.9-2.3-2-2.9-3.5c-0.4-1-0.7-2.1-0.7-3.3
			c0-4.5,3.6-8.1,8.1-8.1c0.9,0,1.8,0.2,2.6,0.4l-0.4,0.4l-0.5,0.5l-0.5,0.5L6.2,588l-0.2,0.2l-0.5,0.4L5,589.1L4,590H3.5L1,592.6
			v0.1v1.8v1.5l2.5,2.2h0.2h2.1h1.1l2.2-2.2v-0.7l0.5-0.4l1-0.8l1-0.8l1-0.8l0.3-0.3c0.2,0.7,0.3,1.4,0.3,2.1c0,2.9-1.5,5.5-3.8,6.9
			v43.6c3.4,1.6,5.8,5,5.8,9C15.1,656.7,13.7,659.5,11.4,661.3z M26.4,597.6l-0.2,0.1l-0.2,0.1l-0.2,0l-0.2,0l-0.2,0l-0.3,0l-0.3,0
			l-0.2-0.6l-0.2-0.6l-0.3-0.6l-0.3-0.6l-0.1-0.3l-0.1-0.3l-0.3-0.5l-0.3-0.5l-0.3-0.5l-0.2-0.3l-0.2-0.2l-0.3-0.5l-0.3-0.4
			l-0.3-0.4l-0.3-0.4l-0.4-0.4l-0.2-0.2l-0.2-0.2l-0.4-0.3l-0.1-0.3l-0.1-0.2l-0.1-0.2l-0.1-0.2l-0.1-0.2l-0.1-0.2l-0.1-0.1
			l-0.1-0.1l-0.1-0.1l-0.1-0.1l-0.1-0.1l-0.1,0l-0.1,0l-0.2,0l-0.2,0l-0.2,0l-0.2,0.1l-0.1,0l-0.1,0.1l-0.3,0.2l-0.2,0.1l-0.2,0.1
			l-0.3,0.1l-0.3,0.1l-0.3,0.1l-0.3,0.1l-0.1,0l-0.1,0l-0.1,0l-0.1,0l-0.1,0l-0.2,0.1l-0.2,0.1l-0.2,0l-0.2,0l-0.1,0l-0.1,0l-0.2,0
			l0,0l0,0l-0.1,0l-1.1,0.8l-1,0.8l-1,0.8l-1,0.8l-1,0.8l-3.4,2.9H5.2l-2.5-2.2V593l3.2-2.8l0.5-0.5l0.5-0.5l0.2-0.2l0.2-0.2
			l0.5-0.5l0.5-0.5l0.5-0.5l0.5-0.5l0.1-0.1l0.1-0.1l0.2-0.2l1-1l0-0.1l0-0.1l0.1-0.2l0.1-0.1l0.1-0.1l0.1-0.1l0.1-0.1l0.2-0.2
			l0.1-0.1l0.1-0.1l0.3-0.2l0.2-0.1l0.2-0.1l0.1-0.6l0-0.5l0-0.3l0-0.2l0-0.2l0-0.2l0-0.2l-0.1-0.2l-0.1-0.2l-0.1-0.2l-0.1-0.2
			l-0.1-0.2l-0.1-0.2l-0.1-0.2l-0.1-0.2l-0.1-0.2l-0.1-0.1l-0.1-0.1l-0.3-0.3l-0.3-0.2l-0.4-0.2l-0.4-0.1l-0.2-0.1l-0.2-0.1l-0.2,0
			l-0.3,0L7,575.5l0-0.2l0-0.2l0.1-0.2l0.1-0.2l0.1-0.2l0.1-0.2l0.1-0.2l0.1-0.2l0.1-0.1l0.1-0.1l0.1-0.1l0.1-0.1l0.1-0.1l0.2-0.1
			l0.2-0.1l0.2-0.1L9,573l0.2-0.1l0.2-0.1l0.2-0.1l0.2-0.1l0.2-0.1l0.3-0.1l0.3-0.1l2.3,2.3L13,575l0.1,0.2l0.1,0.2l0.1,0.2l0,0.1
			l0,0.1l0.1,0.2l0.1,0.2l0.1,0.2l0.1,0.2l0.1,0.2l0,0l0,0l0,0.1l0.1,0.1l0.1,0.1l0,0.1l0,0.1l0.1,0.1l0.1,0.1l0.1,0l0.1,0l0.1,0.1
			l0.1,0.1l0.1,0.1l0.1,0.1l0.1,0l0.1,0l0.1,0l0.1,0l0.1,0l0.1,0l0.1,0l0.1,0l0.1,0l0.1,0l0.1,0l0.1,0l0.1,0l0.1,0l0.1,0l0.3,0.1
			l0.3,0.1l0.3,0.2l0.3,0.2l0.3,0.2L18,579l0.3,0.3l0.3,0.3l0.3,0.3l0.3,0.3l0.3,0.3l0.3,0.4l0.3,0.4l0.3,0.4l0.3,0.4l0.2,0.5
			l0.5,0.9l0.5,0.9l0.2,0.4l0.2,0.4l0.4,0.9l0.4,0.9l0.4,0.9l0.4,0.9l0.2,0.4l0.2,0.4l0.3,0.9l0.2,0.4l0.1,0.4l0.2,0.4l0.1,0.4
			l0.1,0.4l0.1,0.4l0.1,0.4l0.1,0.4l0.1,0.4l0.1,0.4l0.1,0.4l0.1,0.4l0.2,0.9l0.4,1.1L26.4,597.6z"/>
	</g>
	<g>
		<path class="st2" d="M99.8,658.2L79.4,626c0.5-2.5,0.9-5,1.2-7.5c-0.3,0.1-4.2,0.7-5.4,0.9l-2.7-4.2l0.3,0
			c0.6-0.6,1.3-0.8,1.3-0.8l6.9-2.1c0.1-2.1,0.2-4.1,0.2-6.2c0-1.9-0.1-3.7-0.2-5.6c-0.4,0.1-4.6,1.7-5.3,1.9
			c-0.8,0.3-2.3,0.4-3.1-1.7c-0.8-2.1,1.4-3.1,1.4-3.1l6.4-3.2c-0.4-4-1.1-7.9-2-11.7c-0.1,0.1-4.2,2.4-4.9,2.8
			c-0.7,0.4-2.2,0.8-3.3-1.1c-1.1-1.9,0.9-3.3,0.9-3.3l5.8-4.3c-1.1-3.8-2.5-7.5-4-11.1c0,0-3.7,3.1-4.4,3.6c-0.6,0.5-2,1.2-3.5-0.5
			c-1.4-1.7,0.3-3.4,0.3-3.4l5-5.2c-1.8-3.5-3.7-7-5.9-10.3c-0.1,0.2-3.1,3.7-3.7,4.3c-0.5,0.6-1.8,1.5-3.5,0.1
			c-1.7-1.4-0.3-3.4-0.3-3.4l4-6c-2.3-3.2-4.9-6.2-7.5-9.1c-0.2,0.4-2.5,4.2-2.9,4.9c-0.4,0.7-1.5,1.8-3.4,0.7
			c-1.9-1.1-0.9-3.3-0.9-3.3l2.9-6.6c-2.8-2.7-5.9-5.3-9-7.7c-0.1,0.4-1.7,4.6-2,5.3c-0.3,0.8-1.2,2-3.3,1.3
			c-2.1-0.8-1.4-3.1-1.4-3.1l1.7-7c-3.3-2.2-6.7-4.2-10.2-6c0,0.2-0.9,4.8-1,5.6c-0.2,0.8-0.8,2.2-3,1.8c-2.2-0.4-1.9-2.8-1.9-2.8
			l0.5-7.2c-3.8-1.7-7.7-3.1-11.7-4.3v5.7c0,0.1,0,2.1,0,2.2l-13-20.2c-10.9-17.1-26.6-17.1-37.5,0l-7.8,12.2l-0.7-0.1
			c-3.8,1.1-7.5,2.5-11.1,4c0,0,3.1,3.7,3.7,4.4c0.5,0.6,1.2,2-0.5,3.5c-1.7,1.4-3.4-0.3-3.4-0.3l-5.2-5c-3.5,1.8-7,3.7-10.3,5.9
			c0.2,0.1,3.7,3.1,4.3,3.7c0.6,0.5,1.5,1.8,0.1,3.5c-1.4,1.7-3.4,0.3-3.4,0.3l-6-4c-3.2,2.3-6.2,4.9-9.1,7.5
			c0.4,0.2,4.2,2.5,4.9,2.9c0.7,0.4,1.8,1.5,0.7,3.4c-1.1,1.9-3.3,0.9-3.3,0.9l-6.6-2.9c-2.7,2.8-5.3,5.9-7.7,9
			c0.4,0.1,4.6,1.7,5.3,2c0.8,0.3,2,1.2,1.3,3.3c-0.8,2.1-3.1,1.4-3.1,1.4l-7-1.7c-2.2,3.3-4.2,6.7-6,10.2c0.1,0,4.8,0.9,5.6,1
			c0.8,0.2,2.2,0.8,1.8,3c-0.4,2.2-2.8,1.9-2.8,1.9l-7.2-0.5c-1.7,3.8-3.1,7.7-4.3,11.7h5.7c0.8,0,2.3,0.4,2.3,2.6
			c0,2.2-2.4,2.4-2.4,2.4l-7.2,0.8c-0.9,3.8-1.6,7.7-2.1,11.6c0.3-0.1,4.8-0.8,5.6-1c0.8-0.1,2.1,0,2.6,1.7l8.9,1l-1.5,2.4l-8-0.9
			c-0.6,0.6-1.3,0.8-1.3,0.8l-6.9,2.1c-0.1,2.1-0.2,4.1-0.2,6.2c0,1.9,0.1,3.7,0.2,5.6c0.4-0.1,4.6-1.7,5.3-1.9
			c0.7-0.2,1.9-0.4,2.7,1l-3,4.7l-4.6,2.3c0.2,1.4,0.3,2.7,0.6,4.1l-23,36.3c-10.9,17.1-3.2,31.1,17.1,31.1h51.2l-0.6,2.6
			c3.3,2.2,6.7,4.2,10.2,6c0-0.1,0.9-4.8,1-5.6c0.1-0.8,0.8-2.2,3-1.8c2.2,0.4,1.9,2.8,1.9,2.8l-0.5,7.2c3.8,1.7,7.7,3.1,11.7,4.3
			v-5.7c0-0.8,0.4-2.3,2.6-2.3c2.2,0,2.4,2.4,2.4,2.4l0.8,7.2c3.8,0.9,7.7,1.6,11.6,2.1c-0.1-0.3-0.8-4.8-1-5.6
			c-0.1-0.8,0-2.1,1.7-2.6l1.2-11h2.5l-1.3,11.5c0.6,0.6,0.8,1.3,0.8,1.3l2,6.9c2.1,0.1,4.1,0.2,6.2,0.2c1.9,0,3.7-0.1,5.6-0.2
			c-0.1-0.4-1.7-4.6-1.9-5.3c-0.3-0.8-0.4-2.3,1.7-3.1c2.1-0.8,3.1,1.4,3.1,1.4l3.2,6.4c4-0.4,7.8-1.1,11.7-2c0-0.1-2.4-4.2-2.8-4.9
			c-0.4-0.7-0.8-2.2,1.1-3.3c1.9-1.1,3.3,0.9,3.3,0.9l4.3,5.8c3.8-1.1,7.5-2.5,11.1-4c0,0-3.1-3.7-3.6-4.4c-0.5-0.6-1.2-2,0.5-3.5
			c1.7-1.4,3.4,0.3,3.4,0.3l5.2,5c3.5-1.8,7-3.7,10.3-5.9c-0.1-0.1-2.8-2.4-3.9-3.3h52.3C103,689.3,110.7,675.3,99.8,658.2z
			 M83.1,677.6h-212.9c-8.7,0-12-6-7.3-13.3l105.2-163.9c4.7-7.3,12.4-7.3,17.1,0L90.4,664.3C95.1,671.6,91.8,677.6,83.1,677.6z"/>
		<path class="st2" d="M-28.9,620.2l-0.2,0.2l-0.1,0.1l-0.1,0.1l-0.1,0l0,0l0,0l0,0l0,0l-0.1,0.1l-0.1,0l0,0l0,0l0,0l0,0l-0.1,0.1
			l-0.1,0.1l0,0l0,0l0,0l-0.2,0.1l-0.2,0.1l-0.1,0.1l-0.1,0.1l-0.2,0.1l0,0l0,0l0,0l-0.1,0.1l-0.2,0.1l-0.2,0.1l-0.1,0.1l-0.1,0
			l-0.1,0l-2.2,0.7l-0.2,0l-0.2,0.1l-0.1,0.1l-0.1,0l-0.1,0l-0.1,0l-0.1,0l0,0l0,0.1l0,0l0,0.1l-0.1,0.1l0,0l0,0.1l0,0.1v0.1l0,0.1
			l0,0.1l0,0.2l0.1,0.2l0.1,0.2l0.1,0.2l0.1,0.1l0.1,0.1l0.6,0.6l0.6,0.6l0.6,0.6l0.6,0.6l0.6,0.6l0.3,0.3l0.3,0.3l0.7,0.6l0.7,0.6
			l0.9-0.3l0.3-0.5l0.3-0.5l0.3-0.4l0.3-0.4l0.2-0.3l0.2-0.2l0.2-0.2l0.2-0.2l1.1-1l0.4-0.3l0.6-0.5c0-0.1,0-0.3,0-0.4
			C-25.3,623.4-26.8,622-28.9,620.2z"/>
		<path class="st2" d="M-3.3,604.3l0.9-0.8l0.9-0.8l0.9-0.8l0.4-0.3c-1.3-0.9-2.3-2-2.9-3.5l-0.2,0.1l-0.2,0.2l-1,0.8l-1,0.8l-1,0.8
			l-0.5,0.4l-0.5,0.4l-0.5,0.4l-0.5,0.4l-0.5,0.4l-0.2,0.2l-0.1,0.1l-0.1,0.1l-0.9,0.7l-4.4,3.4l-0.8,0.6l-0.5,0.4l-0.5,0.4
			l-0.3,0.3l-0.6,0.5l-0.6,0.5l-0.2,0.1l-0.2,0.1l-0.5,0.4l-0.5,0.4l-0.4,0.4l-0.5,0.5l-0.5,0.5l-0.4,0.4l-0.4,0.3l-0.2,0.1
			c2.1,1.7,3.4,2.7,4.1,3c0.1,0,0.2,0,0.3,0c0.5,0,1,0,1.7,0.1l0.6-0.6l0.4-0.3l0.8-0.7l0.3-0.3l0.8-0.8l0.3-0.3l0.5-0.4l0.4-0.4
			l0.8-0.7l0.8-0.7l0.8-0.7l0.7-0.7l1.7-2.1l0.8-0.8l0.8-0.8l0.8-0.8L-3.3,604.3z"/>
		<path class="st2" d="M9.4,644.6V601c2.3-1.4,3.8-4,3.8-6.9c0-0.7-0.1-1.4-0.3-2.1l-0.3,0.3l-1,0.8l-1,0.8l-1,0.8l-0.5,0.4v0.7
			l-2.2,2.2H5.7H3.7H3.5L1,596v-1.5v-1.8v-0.1l2.5-2.6H4l1-0.9l0.5-0.4l0.5-0.4l0.2-0.2l0.2-0.2l0.5-0.5l0.5-0.5l0.4-0.4
			C6.9,586.2,6,586,5.1,586c-4.5,0-8.1,3.6-8.1,8.1c0,1.2,0.2,2.3,0.7,3.3c0.6,1.4,1.6,2.6,2.9,3.5c0.2,0.1,0.3,0.2,0.5,0.3v43.4
			c-3.4,1.5-5.9,5-5.9,9c0,3.1,1.4,5.9,3.7,7.7l0.9,0l0-6.2l5.3-4.2l5.4,4.2l0,6.2l0.8,0l0.1,0c2.3-1.8,3.7-4.6,3.7-7.7
			C15.1,649.6,12.7,646.2,9.4,644.6z M6.1,643.3c0,0.2-0.1,0.3-0.1,0.5c-0.2,0.3-0.5,0.5-0.9,0.5c-0.4,0-0.7-0.2-0.9-0.5
			c-0.1-0.1-0.1-0.3-0.1-0.5v-37.2c0-0.6,0.5-1,1-1c0.6,0,1,0.5,1,1V643.3z"/>
		<path class="st2" d="M-53.4,587.6c-1.3-1.2-2.1-2-2.1-2.2c-0.3-1.1-0.1-3.7-2.1-5.5c-1.8-1.6-3.4-2-4.4-2c-0.1,0-0.3,0-0.4,0
			c-0.8,0-1.4,0.1-1.8,0.2c-0.3,0.1-0.6,0.2-0.9,0.3c-0.2,0.1-0.3,0.2-0.3,0.2l3.5,3.2c0.2,0.9,0.1,1.6-0.1,2.2
			c-0.2,0.3-0.4,0.8-0.7,1c-0.3,0.2-0.5,0.4-0.8,0.6c-0.2,0.1-0.5,0.2-0.7,0.3l-3.3-2.9l-1.6,0.1c0,0-0.8,3.2,2.4,6
			c1.2,1,2.5,1.2,3.6,1.2c1.1,0,2-0.2,2.4-0.2c0,0,0,0,0.1,0c0.2,0,3.1,2.5,7.3,6V587.6z"/>
		<path class="st2" d="M-11.7,620.1c-2.5-2.2-4.8-1.8-6.2-1.9c-2.4-0.8-19.2-15.6-29.5-25.1v8c10.9,9.5,24.7,21.6,24.8,22
			c0.1,0.7,0.3,4.4,2.2,6.3c1.4,1.4,2.7,1.8,3.7,1.8c0.4,0,0.8-0.1,1.2-0.2c1.2-0.1,2-0.6,2-0.6l-3.3-3.2c0,0,0,0,0,0c0,0,0,0,0,0
			c0-0.3,0.1-3.1,2.7-4c0,0,0,0,0,0l3.4,3.1l1.2-0.1C-9.6,626.2-8.6,622.8-11.7,620.1z"/>
		<polygon class="st2" points="26,595.5 25.9,595.1 25.7,594.6 25.6,594.2 25.5,593.8 25.4,593.3 25.3,592.9 25.1,592.5 25,592.1 
			24.9,591.6 24.7,591.2 24.6,590.8 24.4,590.3 24.1,589.5 23.9,589 23.7,588.6 23.4,587.7 23,586.9 22.5,586 22.1,585.1 
			21.9,584.7 21.7,584.3 21.2,583.4 20.7,582.6 20.4,582.1 20.2,581.7 19.9,581.3 19.6,580.9 19.4,580.5 19.1,580.2 18.8,579.9 
			18.5,579.6 18.3,579.3 18,579 17.7,578.8 17.4,578.6 17.1,578.4 16.8,578.2 16.4,578.1 16.1,578 16,578 15.9,578 15.8,578.1 
			15.6,578.1 15.5,578.1 15.4,578.1 15.3,578.1 15.2,578.1 15.1,578.1 15.1,578 15,578 14.9,578 14.8,577.9 14.7,577.9 14.7,577.9 
			14.6,577.8 14.5,577.8 14.4,577.7 14.3,577.6 14.2,577.6 14.2,577.5 14.1,577.4 14,577.3 13.9,577.2 13.9,577.2 13.8,577 
			13.7,576.9 13.7,576.8 13.7,576.8 13.6,576.7 13.6,576.6 13.5,576.4 13.4,576.2 13.3,576 13.3,575.8 13.2,575.7 13.2,575.6 
			13.1,575.4 13.1,575.2 13,575 12.9,574.7 10.6,572.4 10.4,572.5 10.1,572.5 9.9,572.6 9.6,572.7 9.4,572.8 9.2,572.9 9,573 
			8.8,573.1 8.6,573.2 8.5,573.3 8.3,573.4 8.1,573.5 8,573.6 7.9,573.7 7.8,573.8 7.7,574 7.5,574.1 7.4,574.3 7.3,574.5 
			7.2,574.7 7.2,574.9 7.1,575.1 7.1,575.3 7,575.5 8.9,578.2 9.1,578.2 9.4,578.3 9.6,578.3 9.8,578.4 10.3,578.5 10.6,578.7 
			11,578.9 11.3,579.2 11.4,579.3 11.6,579.5 11.7,579.6 11.8,579.8 11.9,579.9 12,580.1 12.1,580.3 12.1,580.5 12.2,580.7 
			12.3,580.9 12.3,581.1 12.3,581.4 12.4,581.6 12.4,581.8 12.4,582.1 12.4,582.3 12.4,582.9 12.3,583.5 12.1,583.6 12,583.7 
			11.7,583.9 11.6,584 11.4,584.1 11.2,584.4 11.1,584.5 11.1,584.6 11,584.7 10.9,584.8 10.8,585.1 10.8,585.2 10.7,585.3 
			9.8,586.3 9.5,586.6 9.4,586.7 9.3,586.8 8.8,587.3 8.3,587.8 7.8,588.3 7.3,588.8 7.1,589 6.8,589.2 6.4,589.7 5.9,590.1 
			2.7,593 2.7,594.5 5.2,596.7 5.4,596.7 8.7,593.8 9.7,592.9 10.7,592.1 11.8,591.3 12.8,590.4 13.9,589.6 14,589.6 14,589.6 
			14.1,589.6 14.2,589.6 14.3,589.6 14.4,589.6 14.6,589.5 14.9,589.5 15.1,589.4 15.3,589.4 15.5,589.3 15.6,589.3 15.7,589.3 
			15.7,589.2 15.9,589.2 16.1,589.1 16.4,589 16.7,588.8 17,588.7 17.2,588.6 17.4,588.5 17.7,588.4 17.8,588.3 17.9,588.3 
			18.1,588.2 18.2,588.1 18.4,588.1 18.5,588.1 18.7,588.1 18.8,588.2 19,588.2 19.1,588.3 19.2,588.4 19.3,588.5 19.4,588.7 
			19.5,588.8 19.6,589 19.7,589.2 19.8,589.4 19.8,589.6 19.9,589.9 20.3,590.2 20.5,590.4 20.6,590.6 21,590.9 21.3,591.3 
			21.7,591.7 22,592.2 22.3,592.6 22.5,592.9 22.7,593.1 23,593.6 23.2,594.1 23.5,594.7 23.7,594.9 23.8,595.2 24.1,595.8 
			24.3,596.4 24.5,597 24.8,597.7 25.1,597.7 25.3,597.7 25.6,597.7 25.8,597.7 26,597.7 26.2,597.6 26.4,597.6 26.5,597.5 
			26.1,596.4 		"/>
		<path class="st2" d="M-45.8,628.2C-45.8,628.1-45.8,628.1-45.8,628.2C-45.8,628.1-45.8,628.1-45.8,628.2c0-0.5-1-0.8-2.5-1
			c-0.2,0-1-0.1-1.3-0.1v-46.9c0,0,0.6-1.5,0.6-1.5l-0.7-4.8h-1.8l-0.7,4.8c0,0,0.8,1.4,0.8,1.4V627c-0.2,0,0,0-0.3,0
			c-1.5,0.1-2.5,0.4-2.5,0.8c0,0,0,0,0,0c0,0,0,0.1,0,0.1c0,0.2,0.1,0.3,0.4,0.5c0.4,0.5,0.9,1.3,0.9,2.2c-0.2,0.4-0.4,1-0.5,1.5
			c-0.5,6.3-1.1,19.3-1.6,25.5c-0.2,1.6,0.8,5.2,3.3,5.7c0.4,0.1,0.8,0.1,1.3,0.1c0.4,0,0.7,0,1-0.1c2.5-0.5,3.6-3.9,3.5-5.6
			c-0.3-6.3-0.6-19.3-0.9-25.6c0-0.5-0.2-1.1-0.4-1.5c0-0.9,0.6-1.7,1-2.1C-45.9,628.5-45.8,628.3-45.8,628.2z"/>
	</g>
</g>
</svg>
