<?xml version="1.0" encoding="utf-8"?>
<!-- Generator: Adobe Illustrator 19.1.0, SVG Export Plug-In . SVG Version: 6.00 Build 0)  -->
<svg version="1.1" xmlns="http://www.w3.org/2000/svg" xmlns:xlink="http://www.w3.org/1999/xlink" x="0px" y="0px"
	 viewBox="-153 482.7 533.3 226.8" style="enable-background:new -153 482.7 533.3 226.8;" xml:space="preserve">
<metadata><?xpacket begin="﻿" id="W5M0MpCehiHzreSzNTczkc9d"?>
<x:xmpmeta xmlns:x="adobe:ns:meta/" x:xmptk="Adobe XMP Core 5.6-c067 79.157747, 2015/03/30-23:40:42        ">
   <rdf:RDF xmlns:rdf="http://www.w3.org/1999/02/22-rdf-syntax-ns#">
      <rdf:Description rdf:about=""/>
   </rdf:RDF>
</x:xmpmeta>
                                                                                                    
                                                                                                    
                                                                                                    
                                                                                                    
                                                                                                    
                                                                                                    
                                                                                                    
                                                                                                    
                                                                                                    
                                                                                                    
                                                                                                    
                                                                                                    
                                                                                                    
                                                                                                    
                                                                                                    
                                                                                                    
                                                                                                    
                                                                                                    
                                                                                                    
                                                                                                    
                           
<?xpacket end="w"?></metadata>
<style type="text/css">
	.st0{fill:#231F20;}
	.st1{fill:#FFFFFF;}
</style>
<g id="Layer_2">
	<rect x="-153" y="482.5" class="st0" width="533.3" height="226.8"/>
</g>
<g id="Layer_1">
	<polygon class="st1" points="135.3,569.6 139.9,569.6 139.9,529.7 140.9,529.7 152.1,568 158.2,568 169.5,529.7 170.4,529.7 
		170.4,569.6 175.1,569.6 175.1,525.3 166.5,525.3 155.2,563.3 143.9,525.3 135.3,525.3 	"/>
	<path class="st1" d="M196.8,529.7h1.9L205,554h-14.6L196.8,529.7z M181.4,569.6h4.9l3.1-11.3H206l3.1,11.3h4.9l-11.4-44.3h-9.7
		L181.4,569.6z"/>
	<polygon class="st1" points="242.6,569.6 248.1,569.6 235.5,547.2 247.4,525.3 241.9,525.3 231.2,545.5 225.2,545.8 225.2,525.3 
		220.4,525.3 220.4,569.6 225.2,569.6 225.2,550.1 231.3,549.9 	"/>
	<polygon class="st1" points="254,569.6 278.7,569.6 278.7,565.2 258.8,565.2 258.8,549.2 275.1,549.2 275.1,544.9 258.8,544.9 
		258.8,529.7 278.7,529.7 278.7,525.3 254,525.3 	"/>
	<path class="st1" d="M309.3,538.8c0,6.5-2.6,9.6-8.3,9.6h-9.7v-18.8h9.7C306.7,529.6,309.3,532.6,309.3,538.8z M310.1,569.6h5.3
		l-8.5-17.9c4.2-1.5,7.4-4.8,7.4-12.9c0-9.3-4.6-13.4-13.3-13.4h-14.6v44.3h4.9v-17h10.9L310.1,569.6z"/>
	<polygon class="st1" points="326.1,539.8 326.2,525.2 321.7,525.2 321.9,539.8 	"/>
	<path class="st1" d="M358.4,526c0,0-6.8-1.3-11.8-1.3c-8.8,0-13.6,3.8-13.6,12.3c0,7.5,4.4,10,12.6,12c6,1.3,9,2.8,9,8.2
		c0,5.8-2.6,8.8-8.3,8.8c-4.2,0-12.4-0.9-12.4-0.9l-0.3,4c0,0,7.7,1.2,12.7,1.2c9.1,0,13.3-4.7,13.3-13.6c0-7.9-4-10.1-11.9-12.1
		c-6.7-1.7-9.6-2.8-9.6-8.1s2.9-7.4,8.8-7.4c4.3,0,11.3,0.9,11.3,0.9L358.4,526z"/>
	<path class="st1" d="M148.1,595.8h1.9l6.3,24.3h-14.6L148.1,595.8z M132.7,635.7h4.9l3.1-11.3h16.6l3.1,11.3h4.9l-11.4-44.3h-9.7
		L132.7,635.7z"/>
	<path class="st1" d="M194.4,592.1c0,0-6.8-1.3-11.8-1.3c-8.8,0-13.6,3.8-13.6,12.3c0,7.5,4.4,10,12.6,12c6,1.3,9,2.8,9,8.2
		c0,5.8-2.6,8.8-8.3,8.8c-4.2,0-12.4-0.9-12.4-0.9l-0.3,4c0,0,7.7,1.2,12.7,1.2c9.1,0,13.3-4.7,13.3-13.6c0-7.9-4-10.1-11.9-12.1
		c-6.7-1.7-9.6-2.8-9.6-8.1s2.9-7.4,8.8-7.4c4.3,0,11.3,0.9,11.3,0.9L194.4,592.1z"/>
	<polygon class="st1" points="228.4,591.4 223.2,591.4 213.2,611.8 203.3,591.4 198,591.4 210.9,617.1 210.9,635.7 215.6,635.7 
		215.6,617.1 	"/>
	<polygon class="st1" points="256.4,635.7 256.4,631.4 239,631.4 239,591.4 234.1,591.4 234.1,635.7 	"/>
	<path class="st1" d="M265.9,591.4H261v30.8c0,9.7,4.6,14.1,14.4,14.1c9.9,0,14.5-4.4,14.5-14.1v-30.8H285v31.1
		c0,6.8-2.9,9.5-9.5,9.5c-6.5,0-9.5-2.7-9.5-9.5v-31.1H265.9z"/>
	<polygon class="st1" points="299.5,635.7 304.1,635.7 304.1,595.8 305.1,595.8 316.4,634.1 322.4,634.1 333.8,595.8 334.7,595.8 
		334.7,635.7 339.3,635.7 339.3,591.4 330.8,591.4 319.4,629.4 308.2,591.4 299.5,591.4 	"/>
	<path class="st1" d="M370.3,521.7h1.9v-8.1l2.3,7.5h1.5l2.4-7.5v8.1h1.9v-10.8h-2.6l-2.5,7.5l-2.4-7.5h-2.6L370.3,521.7
		L370.3,521.7z M361.9,512.7h2.8v8.9h2v-8.9h2.4v-1.8h-7.2V512.7z"/>
	<g>
		<path class="st1" d="M122.2,658.2L101.8,626c0.5-2.5,0.9-5,1.2-7.5c-0.3,0.1-4.2,0.7-5.4,0.9l-2.7-4.2l0.3,0
			c0.6-0.6,1.3-0.8,1.3-0.8l6.9-2.1c0.1-2.1,0.2-4.1,0.2-6.2c0-1.9-0.1-3.7-0.2-5.6c-0.4,0.1-4.6,1.7-5.3,1.9
			c-0.8,0.3-2.3,0.4-3.1-1.7c-0.8-2.1,1.4-3.1,1.4-3.1l6.4-3.2c-0.4-4-1.1-7.9-2-11.7c-0.1,0.1-4.2,2.4-4.9,2.8
			c-0.7,0.4-2.2,0.8-3.3-1.1c-1.1-1.9,0.9-3.3,0.9-3.3l5.8-4.3c-1.1-3.8-2.5-7.5-4-11.1c0,0-3.7,3.1-4.4,3.6c-0.6,0.5-2,1.2-3.5-0.5
			c-1.4-1.7,0.3-3.4,0.3-3.4l5-5.2c-1.8-3.5-3.7-7-5.9-10.3c-0.1,0.2-3.1,3.7-3.7,4.3c-0.5,0.6-1.8,1.5-3.5,0.1
			c-1.7-1.4-0.3-3.4-0.3-3.4l4-6c-2.3-3.2-4.9-6.2-7.5-9.1c-0.2,0.4-2.5,4.2-2.9,4.9c-0.4,0.7-1.5,1.8-3.4,0.7
			c-1.9-1.1-0.9-3.3-0.9-3.3l2.9-6.6c-2.8-2.7-5.9-5.3-9-7.7c-0.1,0.4-1.7,4.6-2,5.3c-0.3,0.8-1.2,2-3.3,1.3
			c-2.1-0.8-1.4-3.1-1.4-3.1l1.7-7c-3.3-2.2-6.7-4.2-10.2-6c0,0.2-0.9,4.8-1,5.6c-0.2,0.8-0.8,2.2-3,1.8c-2.2-0.4-1.9-2.8-1.9-2.8
			l0.5-7.2c-3.8-1.7-7.7-3.1-11.7-4.3v5.7c0,0.1,0,2.1,0,2.2l-13-20.2c-10.9-17.1-26.6-17.1-37.5,0l-7.8,12.2l-0.7-0.1
			c-3.8,1.1-7.5,2.5-11.1,4c0,0,3.1,3.7,3.7,4.4c0.5,0.6,1.2,2-0.5,3.5c-1.7,1.4-3.4-0.3-3.4-0.3l-5.2-5c-3.5,1.8-7,3.7-10.3,5.9
			c0.2,0.1,3.7,3.1,4.3,3.7c0.6,0.5,1.5,1.8,0.1,3.5c-1.4,1.7-3.4,0.3-3.4,0.3l-6-4c-3.2,2.3-6.2,4.9-9.1,7.5
			c0.4,0.2,4.2,2.5,4.9,2.9c0.7,0.4,1.8,1.5,0.7,3.4c-1.1,1.9-3.3,0.9-3.3,0.9l-6.6-2.9c-2.7,2.8-5.3,5.9-7.7,9
			c0.4,0.1,4.6,1.7,5.3,2c0.8,0.3,2,1.2,1.3,3.3c-0.8,2.1-3.1,1.4-3.1,1.4l-7-1.7c-2.2,3.3-4.2,6.7-6,10.2c0.1,0,4.8,0.9,5.6,1
			c0.8,0.2,2.2,0.8,1.8,3c-0.4,2.2-2.8,1.9-2.8,1.9l-7.2-0.5c-1.7,3.8-3.1,7.7-4.3,11.7h5.7c0.8,0,2.3,0.4,2.3,2.6
			c0,2.2-2.4,2.4-2.4,2.4l-7.2,0.8c-0.9,3.8-1.6,7.7-2.1,11.6c0.3-0.1,4.8-0.8,5.6-1c0.8-0.1,2.1,0,2.6,1.7l8.9,1L-86,598l-8-0.9
			c-0.6,0.6-1.3,0.8-1.3,0.8l-6.9,2.1c-0.1,2.1-0.2,4.1-0.2,6.2c0,1.9,0.1,3.7,0.2,5.6c0.4-0.1,4.6-1.7,5.3-1.9
			c0.7-0.2,1.9-0.4,2.7,1l-3,4.7l-4.6,2.3c0.2,1.4,0.3,2.7,0.6,4.1l-23,36.3c-10.9,17.1-3.2,31.1,17.1,31.1h51.2l-0.6,2.6
			c3.3,2.2,6.7,4.2,10.2,6c0-0.1,0.9-4.8,1-5.6c0.1-0.8,0.8-2.2,3-1.8c2.2,0.4,1.9,2.8,1.9,2.8l-0.5,7.2c3.8,1.7,7.7,3.1,11.7,4.3
			v-5.7c0-0.8,0.4-2.3,2.6-2.3c2.2,0,2.4,2.4,2.4,2.4l0.8,7.2c3.8,0.9,7.7,1.6,11.6,2.1c-0.1-0.3-0.8-4.8-1-5.6
			c-0.1-0.8,0-2.1,1.7-2.6l1.2-11h2.5l-1.3,11.5c0.6,0.6,0.8,1.3,0.8,1.3l2,6.9c2.1,0.1,4.1,0.2,6.2,0.2c1.9,0,3.7-0.1,5.6-0.2
			c-0.1-0.4-1.7-4.6-1.9-5.3C4,703,3.9,701.4,6,700.7c2.1-0.8,3.1,1.4,3.1,1.4l3.2,6.4c4-0.4,7.8-1.1,11.7-2c0-0.1-2.4-4.2-2.8-4.9
			c-0.4-0.7-0.8-2.2,1.1-3.3c1.9-1.1,3.3,0.9,3.3,0.9l4.3,5.8c3.8-1.1,7.5-2.5,11.1-4c0,0-3.1-3.7-3.6-4.4c-0.5-0.6-1.2-2,0.5-3.5
			c1.7-1.4,3.4,0.3,3.4,0.3l5.2,5c3.5-1.8,7-3.7,10.3-5.9c-0.1-0.1-2.8-2.4-3.9-3.3h52.3C125.4,689.3,133.1,675.3,122.2,658.2z
			 M105.5,677.6h-212.9c-8.7,0-12-6-7.3-13.3L-9.6,500.4c4.7-7.3,12.4-7.3,17.1,0l105.2,163.9C117.5,671.6,114.2,677.6,105.5,677.6z
			"/>
		<path class="st1" d="M-6.5,620.2l-0.2,0.2l-0.1,0.1l-0.1,0.1l-0.1,0l0,0l0,0l0,0l0,0l-0.1,0.1l-0.1,0l0,0l0,0l0,0l0,0l-0.1,0.1
			l-0.1,0.1l0,0l0,0l0,0l-0.2,0.1l-0.2,0.1l-0.1,0.1l-0.1,0.1l-0.2,0.1l0,0l0,0l0,0l-0.1,0.1l-0.2,0.1l-0.2,0.1l-0.1,0.1l-0.1,0
			l-0.1,0l-2.2,0.7l-0.2,0l-0.2,0.1l-0.1,0.1l-0.1,0l-0.1,0l-0.1,0l-0.1,0l0,0l0,0.1l0,0l0,0.1l-0.1,0.1l0,0l0,0.1l0,0.1v0.1l0,0.1
			l0,0.1l0,0.2l0.1,0.2l0.1,0.2l0.1,0.2l0.1,0.1l0.1,0.1l0.6,0.6l0.6,0.6l0.6,0.6l0.6,0.6l0.6,0.6l0.3,0.3l0.3,0.3l0.7,0.6l0.7,0.6
			l0.9-0.3l0.3-0.5l0.3-0.5l0.3-0.4l0.3-0.4l0.2-0.3l0.2-0.2l0.2-0.2l0.2-0.2l1.1-1l0.4-0.3l0.6-0.5c0-0.1,0-0.3,0-0.4
			C-2.9,623.4-4.4,622-6.5,620.2z"/>
		<path class="st1" d="M19.1,604.3l0.9-0.8l0.9-0.8l0.9-0.8l0.4-0.3c-1.3-0.9-2.3-2-2.9-3.5l-0.2,0.1l-0.2,0.2l-1,0.8l-1,0.8l-1,0.8
			l-0.5,0.4l-0.5,0.4l-0.5,0.4l-0.5,0.4l-0.5,0.4l-0.2,0.2l-0.1,0.1l-0.1,0.1l-0.9,0.7l-4.4,3.4L7,607.8l-0.5,0.4L6,608.5l-0.3,0.3
			l-0.6,0.5l-0.6,0.5l-0.2,0.1l-0.2,0.1l-0.5,0.4l-0.5,0.4l-0.4,0.4l-0.5,0.5l-0.5,0.5l-0.4,0.4L1,613l-0.2,0.1
			c2.1,1.7,3.4,2.7,4.1,3c0.1,0,0.2,0,0.3,0c0.5,0,1,0,1.7,0.1l0.6-0.6l0.4-0.3l0.8-0.7l0.3-0.3l0.8-0.8l0.3-0.3l0.5-0.4l0.4-0.4
			l0.8-0.7l0.8-0.7l0.8-0.7l0.7-0.7l1.7-2.1l0.8-0.8l0.8-0.8l0.8-0.8L19.1,604.3z"/>
		<path class="st1" d="M31.8,644.6V601c2.3-1.4,3.8-4,3.8-6.9c0-0.7-0.1-1.4-0.3-2.1l-0.3,0.3l-1,0.8l-1,0.8l-1,0.8l-0.5,0.4v0.7
			l-2.2,2.2h-1.1h-2.1h-0.2l-2.5-2.2v-1.5v-1.8v-0.1l2.5-2.6h0.5l1-0.9l0.5-0.4l0.5-0.4l0.2-0.2l0.2-0.2l0.5-0.5l0.5-0.5l0.4-0.4
			c-0.8-0.3-1.7-0.4-2.6-0.4c-4.5,0-8.1,3.6-8.1,8.1c0,1.2,0.2,2.3,0.7,3.3c0.6,1.4,1.6,2.6,2.9,3.5c0.2,0.1,0.3,0.2,0.5,0.3v43.4
			c-3.4,1.5-5.9,5-5.9,9c0,3.1,1.4,5.9,3.7,7.7l0.9,0l0-6.2l5.3-4.2l5.4,4.2l0,6.2l0.8,0l0.1,0c2.3-1.8,3.7-4.6,3.7-7.7
			C37.5,649.6,35.1,646.2,31.8,644.6z M28.5,643.3c0,0.2-0.1,0.3-0.1,0.5c-0.2,0.3-0.5,0.5-0.9,0.5c-0.4,0-0.7-0.2-0.9-0.5
			c-0.1-0.1-0.1-0.3-0.1-0.5v-37.2c0-0.6,0.5-1,1-1c0.6,0,1,0.5,1,1V643.3z"/>
		<path class="st1" d="M-31,587.6c-1.3-1.2-2.1-2-2.1-2.2c-0.3-1.1-0.1-3.7-2.1-5.5c-1.8-1.6-3.4-2-4.4-2c-0.1,0-0.3,0-0.4,0
			c-0.8,0-1.4,0.1-1.8,0.2c-0.3,0.1-0.6,0.2-0.9,0.3c-0.2,0.1-0.3,0.2-0.3,0.2l3.5,3.2c0.2,0.9,0.1,1.6-0.1,2.2
			c-0.2,0.3-0.4,0.8-0.7,1c-0.3,0.2-0.5,0.4-0.8,0.6c-0.2,0.1-0.5,0.2-0.7,0.3l-3.3-2.9l-1.6,0.1c0,0-0.8,3.2,2.4,6
			c1.2,1,2.5,1.2,3.6,1.2c1.1,0,2-0.2,2.4-0.2c0,0,0,0,0.1,0c0.2,0,3.1,2.5,7.3,6V587.6z"/>
		<path class="st1" d="M10.7,620.1c-2.5-2.2-4.8-1.8-6.2-1.9c-2.4-0.8-19.2-15.6-29.5-25.1v8c10.9,9.5,24.7,21.6,24.8,22
			c0.1,0.7,0.3,4.4,2.2,6.3c1.4,1.4,2.7,1.8,3.7,1.8c0.4,0,0.8-0.1,1.2-0.2c1.2-0.1,2-0.6,2-0.6l-3.3-3.2c0,0,0,0,0,0v0
			c0-0.3,0.1-3.1,2.7-4c0,0,0,0,0,0l3.4,3.1l1.2-0.1C12.8,626.2,13.8,622.8,10.7,620.1z"/>
		<polygon class="st1" points="48.3,595.5 48.2,595.1 48.1,594.6 48,594.2 47.9,593.8 47.8,593.3 47.7,592.9 47.5,592.5 47.4,592.1 
			47.3,591.6 47.1,591.2 47,590.8 46.8,590.3 46.5,589.5 46.3,589 46.1,588.6 45.7,587.7 45.4,586.9 44.9,586 44.5,585.1 
			44.3,584.7 44,584.3 43.6,583.4 43.1,582.6 42.8,582.1 42.6,581.7 42.3,581.3 42,580.9 41.8,580.5 41.5,580.2 41.2,579.9 
			40.9,579.6 40.6,579.3 40.4,579 40.1,578.8 39.8,578.6 39.5,578.4 39.1,578.2 38.8,578.1 38.5,578 38.4,578 38.3,578 38.2,578.1 
			38,578.1 37.9,578.1 37.8,578.1 37.6,578.1 37.6,578.1 37.5,578.1 37.5,578 37.4,578 37.3,578 37.2,577.9 37.1,577.9 37.1,577.9 
			37,577.8 36.9,577.8 36.8,577.7 36.7,577.6 36.6,577.6 36.6,577.5 36.5,577.4 36.4,577.3 36.3,577.2 36.3,577.2 36.2,577 
			36.1,576.9 36.1,576.8 36.1,576.8 36,576.7 35.9,576.6 35.9,576.4 35.8,576.2 35.7,576 35.6,575.8 35.6,575.7 35.6,575.6 
			35.5,575.4 35.4,575.2 35.4,575 35.3,574.7 33,572.4 32.8,572.5 32.5,572.5 32.3,572.6 32,572.7 31.8,572.8 31.6,572.9 31.4,573 
			31.2,573.1 31,573.2 30.8,573.3 30.7,573.4 30.5,573.5 30.4,573.6 30.3,573.7 30.2,573.8 30,574 29.9,574.1 29.8,574.3 
			29.7,574.5 29.6,574.7 29.6,574.9 29.5,575.1 29.5,575.3 29.4,575.5 31.3,578.2 31.5,578.2 31.8,578.3 32,578.3 32.2,578.4 
			32.6,578.5 33,578.7 33.4,578.9 33.7,579.2 33.8,579.3 33.9,579.5 34.1,579.6 34.2,579.8 34.3,579.9 34.4,580.1 34.5,580.3 
			34.5,580.5 34.6,580.7 34.6,580.9 34.7,581.1 34.7,581.4 34.8,581.6 34.8,581.8 34.8,582.1 34.8,582.3 34.8,582.9 34.7,583.5 
			34.5,583.6 34.4,583.7 34.1,583.9 34,584 33.8,584.1 33.6,584.4 33.5,584.5 33.4,584.6 33.4,584.7 33.3,584.8 33.2,585.1 
			33.2,585.2 33.1,585.3 32.2,586.3 31.9,586.6 31.8,586.7 31.7,586.8 31.2,587.3 30.7,587.8 30.2,588.3 29.7,588.8 29.5,589 
			29.2,589.2 28.8,589.7 28.3,590.1 25.1,593 25.1,594.5 27.6,596.7 27.8,596.7 31.1,593.8 32.1,592.9 33.1,592.1 34.1,591.3 
			35.2,590.4 36.3,589.6 36.4,589.6 36.4,589.6 36.4,589.6 36.6,589.6 36.7,589.6 36.8,589.6 37,589.5 37.3,589.5 37.5,589.4 
			37.7,589.4 37.9,589.3 38,589.3 38.1,589.3 38.1,589.2 38.3,589.2 38.5,589.1 38.8,589 39.1,588.8 39.4,588.7 39.6,588.6 
			39.8,588.5 40.1,588.4 40.2,588.3 40.3,588.3 40.5,588.2 40.6,588.1 40.8,588.1 40.9,588.1 41.1,588.1 41.2,588.2 41.4,588.2 
			41.5,588.3 41.6,588.4 41.7,588.5 41.8,588.7 41.9,588.8 42,589 42.1,589.2 42.1,589.4 42.2,589.6 42.3,589.9 42.7,590.2 
			42.8,590.4 43,590.6 43.4,590.9 43.7,591.3 44.1,591.7 44.4,592.2 44.7,592.6 44.9,592.9 45,593.1 45.3,593.6 45.6,594.1 
			45.9,594.7 46.1,594.9 46.2,595.2 46.4,595.8 46.7,596.4 46.9,597 47.2,597.7 47.4,597.7 47.7,597.7 48,597.7 48.2,597.7 
			48.4,597.7 48.6,597.6 48.7,597.6 48.9,597.5 48.5,596.4 		"/>
		<path class="st1" d="M-23.4,628.2C-23.4,628.1-23.4,628.1-23.4,628.2C-23.4,628.1-23.4,628.1-23.4,628.2c0-0.5-1-0.8-2.5-1
			c-0.2,0-1-0.1-1.3-0.1v-46.9c0,0,0.6-1.5,0.6-1.5l-0.7-4.8h-1.8l-0.7,4.8c0,0,0.8,1.4,0.8,1.4V627c-0.2,0,0,0-0.3,0
			c-1.5,0.1-2.5,0.4-2.5,0.8c0,0,0,0,0,0c0,0,0,0.1,0,0.1c0,0.2,0.1,0.3,0.4,0.5c0.4,0.5,0.9,1.3,0.9,2.2c-0.2,0.4-0.4,1-0.5,1.5
			c-0.5,6.3-1.1,19.3-1.6,25.5c-0.2,1.6,0.8,5.2,3.3,5.7c0.4,0.1,0.8,0.1,1.3,0.1c0.4,0,0.7,0,1-0.1c2.5-0.5,3.6-3.9,3.5-5.6
			c-0.3-6.3-0.6-19.3-0.9-25.6c0-0.5-0.2-1.1-0.4-1.5c0-0.9,0.6-1.7,1-2.1C-23.5,628.5-23.4,628.3-23.4,628.2z"/>
	</g>
</g>
</svg>
