  0
SECTION
  2
HEADER
  9
$ACADVER
  1
AC1014
  9
$HANDSEED
  5
FFFF
  9
$INSUNITS
 70
     4
  9
$MEASUREMENT
 70
     1
  0
ENDSEC
  0
SECTION
  2
TABLES
  0
TABLE
  2
VPORT
  5
8
330
0
100
AcDbSymbolTable
 70
     4
  0
VPORT
  5
2E
330
8
100
AcDbSymbolTableRecord
100
AcDbViewportTableRecord
  2
*ACTIVE
 70
     0
 10
0.0
 20
0.0
 11
1.0
 21
1.0
 12
210.0
 22
148.5
 13
0.0
 23
0.0
 14
10.0
 24
10.0
 15
10.0
 25
10.0
 16
0.0
 26
0.0
 36
1.0
 17
0.0
 27
0.0
 37
0.0
 40
341.0
 41
1.24
 42
50.0
 43
0.0
 44
0.0
 50
0.0
 51
0.0
 71
     0
 72
   100
 73
     1
 74
     3
 75
     0
 76
     0
 77
     0
 78
     0
  0
ENDTAB
  0
TABLE
  2
LTYPE
  5
5
330
0
100
AcDbSymbolTable
 70
     1
  0
LTYPE
  5
14
330
5
100
AcDbSymbolTableRecord
100
AcDbLinetypeTableRecord
  2
BYBLOCK
 70
     0
  3

 72
    65
 73
     0
 40
0.0
  0
LTYPE
  5
15
330
5
100
AcDbSymbolTableRecord
100
AcDbLinetypeTableRecord
  2
BYLAYER
 70
     0
  3

 72
    65
 73
     0
 40
0.0
  0
LTYPE
  5
16
330
5
100
AcDbSymbolTableRecord
100
AcDbLinetypeTableRecord
  2
CONTINUOUS
 70
     0
  3
Solid line
 72
    65
 73
     0
 40
0.0
  0
ENDTAB
  0
TABLE
  2
LAYER
  5
2
100
AcDbSymbolTable
 70
2
  0
LAYER
  5
50
100
AcDbSymbolTableRecord
100
AcDbLayerTableRecord
  2
0
 70
0
  6
CONTINUOUS
  0
LAYER
  5
51
100
AcDbSymbolTableRecord
100
AcDbLayerTableRecord
  2
Layer_1
 70
0
  6
CONTINUOUS
  0
ENDTAB
  0
TABLE
  2
STYLE
  5
3
330
0
100
AcDbSymbolTable
 70
     1
  0
STYLE
  5
11
330
3
100
AcDbSymbolTableRecord
100
AcDbTextStyleTableRecord
  2
STANDARD
 70
     0
 40
0.0
 41
1.0
 50
0.0
 71
     0
 42
2.5
  3
txt
  4

  0
ENDTAB
  0
TABLE
  2
VIEW
  5
6
330
0
100
AcDbSymbolTable
 70
     0
  0
ENDTAB
  0
TABLE
  2
UCS
  5
7
330
0
100
AcDbSymbolTable
 70
     0
  0
ENDTAB
  0
TABLE
  2
APPID
  5
9
330
0
100
AcDbSymbolTable
 70
     2
  0
APPID
  5
12
330
9
100
AcDbSymbolTableRecord
100
AcDbRegAppTableRecord
  2
ACAD
 70
     0
  0
ENDTAB
  0
TABLE
  2
DIMSTYLE
  5
A
330
0
100
AcDbSymbolTable
 70
     1
  0
DIMSTYLE
105
27
330
A
100
AcDbSymbolTableRecord
100
AcDbDimStyleTableRecord
  2
ISO-25
 70
     0
  3

  4

  5

  6

  7

 40
1.0
 41
2.5
 42
0.625
 43
3.75
 44
1.25
 45
0.0
 46
0.0
 47
0.0
 48
0.0
140
2.5
141
2.5
142
0.0
143
0.03937007874016
144
1.0
145
0.0
146
1.0
147
0.625
 71
     0
 72
     0
 73
     0
 74
     0
 75
     0
 76
     0
 77
     1
 78
     8
170
     0
171
     3
172
     1
173
     0
174
     0
175
     0
176
     0
177
     0
178
     0
270
     2
271
     2
272
     2
273
     2
274
     3
340
11
275
     0
280
     0
281
     0
282
     0
283
     0
284
     8
285
     0
286
     0
287
     3
288
     0
  0
ENDTAB
  0
TABLE
  2
BLOCK_RECORD
  5
1
330
0
100
AcDbSymbolTable
 70
     1
  0
BLOCK_RECORD
  5
1F
330
1
100
AcDbSymbolTableRecord
100
AcDbBlockTableRecord
  2
*MODEL_SPACE
  0
BLOCK_RECORD
  5
1B
330
1
100
AcDbSymbolTableRecord
100
AcDbBlockTableRecord
  2
*PAPER_SPACE
  0
ENDTAB
  0
ENDSEC
  0
SECTION
  2
BLOCKS
  0
BLOCK
  5
20
330
1F
100
AcDbEntity
  8
0
100
AcDbBlockBegin
  2
*MODEL_SPACE
 70
     0
 10
0.0
 20
0.0
 30
0.0
  3
*MODEL_SPACE
  1

  0
ENDBLK
  5
21
330
1F
100
AcDbEntity
  8
0
100
AcDbBlockEnd
  0
BLOCK
  5
1C
330
1B
100
AcDbEntity
 67
     1
  8
0
100
AcDbBlockBegin
  2
*PAPER_SPACE
  1

  0
ENDBLK
  5
1D
330
1B
100
AcDbEntity
 67
     1
  8
0
100
AcDbBlockEnd
  0
ENDSEC
  0
SECTION
  2
ENTITIES
  0
SPLINE
  5
100
100
AcDbEntity
  8
Layer_1
 62
7
100
AcDbSpline
 70
8
 71
3
 72
8
 73
4
 74
0
 40
0
 40
0
 40
0
 40
0
 40
1
 40
1
 40
1
 40
1
 10
13.130448
 20
0.167440
 30
0.0
 10
11.285237
 20
0.518129
 30
0.0
 10
8.441774
 20
2.174739
 30
0.0
 10
8.569602
 20
2.824596
 30
0.0
  0
SPLINE
  5
101
100
AcDbEntity
  8
Layer_1
 62
7
100
AcDbSpline
 70
8
 71
3
 72
8
 73
4
 74
0
 40
0
 40
0
 40
0
 40
0
 40
1
 40
1
 40
1
 40
1
 10
8.569602
 20
2.824596
 30
0.0
 10
8.686026
 20
3.416445
 30
0.0
 10
9.465122
 20
3.417841
 30
0.0
 10
10.167019
 20
2.827196
 30
0.0
  0
SPLINE
  5
102
100
AcDbEntity
  8
Layer_1
 62
7
100
AcDbSpline
 70
8
 71
3
 72
8
 73
4
 74
0
 40
0
 40
0
 40
0
 40
0
 40
1
 40
1
 40
1
 40
1
 10
10.167019
 20
2.827196
 30
0.0
 10
11.403136
 20
1.787463
 30
0.0
 10
13.151651
 20
1.218658
 30
0.0
 10
15.121777
 20
1.215373
 30
0.0
  0
SPLINE
  5
103
100
AcDbEntity
  8
Layer_1
 62
7
100
AcDbSpline
 70
8
 71
3
 72
8
 73
4
 74
0
 40
0
 40
0
 40
0
 40
0
 40
1
 40
1
 40
1
 40
1
 10
15.121777
 20
1.215373
 30
0.0
 10
17.009063
 20
1.212273
 30
0.0
 10
18.630002
 20
1.741123
 30
0.0
 10
20.045541
 20
2.821969
 30
0.0
  0
SPLINE
  5
104
100
AcDbEntity
  8
Layer_1
 62
7
100
AcDbSpline
 70
8
 71
3
 72
8
 73
4
 74
0
 40
0
 40
0
 40
0
 40
0
 40
1
 40
1
 40
1
 40
1
 10
20.045541
 20
2.821969
 30
0.0
 10
20.730455
 20
3.344937
 30
0.0
 10
21.051817
 20
3.406565
 30
0.0
 10
21.380421
 20
3.077956
 30
0.0
  0
SPLINE
  5
105
100
AcDbEntity
  8
Layer_1
 62
7
100
AcDbSpline
 70
8
 71
3
 72
8
 73
4
 74
0
 40
0
 40
0
 40
0
 40
0
 40
1
 40
1
 40
1
 40
1
 10
21.380421
 20
3.077956
 30
0.0
 10
21.702167
 20
2.756216
 30
0.0
 10
21.655784
 20
2.611987
 30
0.0
 10
21.051019
 20
2.053668
 30
0.0
  0
SPLINE
  5
106
100
AcDbEntity
  8
Layer_1
 62
7
100
AcDbSpline
 70
8
 71
3
 72
8
 73
4
 74
0
 40
0
 40
0
 40
0
 40
0
 40
1
 40
1
 40
1
 40
1
 10
21.051019
 20
2.053668
 30
0.0
 10
20.385292
 20
1.439073
 30
0.0
 10
18.771459
 20
0.617976
 30
0.0
 10
17.641228
 20
0.318814
 30
0.0
  0
SPLINE
  5
107
100
AcDbEntity
  8
Layer_1
 62
7
100
AcDbSpline
 70
8
 71
3
 72
8
 73
4
 74
0
 40
0
 40
0
 40
0
 40
0
 40
1
 40
1
 40
1
 40
1
 10
17.641228
 20
0.318814
 30
0.0
 10
16.436978
 20
0.000055
 30
0.0
 10
14.374563
 20
-0.069273
 30
0.0
 10
13.130448
 20
0.167175
 30
0.0
  0
SPLINE
  5
108
100
AcDbEntity
  8
Layer_1
 62
7
100
AcDbSpline
 70
8
 71
3
 72
8
 73
4
 74
0
 40
0
 40
0
 40
0
 40
0
 40
1
 40
1
 40
1
 40
1
 10
14.169830
 20
2.328063
 30
0.0
 10
13.192953
 20
2.434400
 30
0.0
 10
11.576360
 20
3.082650
 30
0.0
 10
10.857307
 20
3.656389
 30
0.0
  0
SPLINE
  5
109
100
AcDbEntity
  8
Layer_1
 62
7
100
AcDbSpline
 70
8
 71
3
 72
8
 73
4
 74
0
 40
0
 40
0
 40
0
 40
0
 40
1
 40
1
 40
1
 40
1
 10
10.857307
 20
3.656389
 30
0.0
 10
10.340805
 20
4.068506
 30
0.0
 10
10.214499
 20
4.492652
 30
0.0
 10
10.517918
 20
4.796071
 30
0.0
  0
SPLINE
  5
10a
100
AcDbEntity
  8
Layer_1
 62
7
100
AcDbSpline
 70
8
 71
3
 72
8
 73
4
 74
0
 40
0
 40
0
 40
0
 40
0
 40
1
 40
1
 40
1
 40
1
 10
10.517918
 20
4.796071
 30
0.0
 10
10.791533
 20
5.069686
 30
0.0
 10
11.146645
 20
4.989023
 30
0.0
 10
11.843672
 20
4.494925
 30
0.0
  0
SPLINE
  5
10b
100
AcDbEntity
  8
Layer_1
 62
7
100
AcDbSpline
 70
8
 71
3
 72
8
 73
4
 74
0
 40
0
 40
0
 40
0
 40
0
 40
1
 40
1
 40
1
 40
1
 10
11.843672
 20
4.494925
 30
0.0
 10
13.818165
 20
3.095262
 30
0.0
 10
16.218185
 20
3.077381
 30
0.0
 10
18.281533
 20
4.446955
 30
0.0
  0
SPLINE
  5
10c
100
AcDbEntity
  8
Layer_1
 62
7
100
AcDbSpline
 70
8
 71
3
 72
8
 73
4
 74
0
 40
0
 40
0
 40
0
 40
0
 40
1
 40
1
 40
1
 40
1
 10
18.281533
 20
4.446955
 30
0.0
 10
19.109358
 20
4.996431
 30
0.0
 10
19.361167
 20
5.061776
 30
0.0
 10
19.626873
 20
4.796075
 30
0.0
  0
SPLINE
  5
10d
100
AcDbEntity
  8
Layer_1
 62
7
100
AcDbSpline
 70
8
 71
3
 72
8
 73
4
 74
0
 40
0
 40
0
 40
0
 40
0
 40
1
 40
1
 40
1
 40
1
 10
19.626873
 20
4.796075
 30
0.0
 10
20.115676
 20
4.307267
 30
0.0
 10
19.632073
 20
3.694362
 30
0.0
 10
18.196656
 20
2.983774
 30
0.0
  0
SPLINE
  5
10e
100
AcDbEntity
  8
Layer_1
 62
7
100
AcDbSpline
 70
8
 71
3
 72
8
 73
4
 74
0
 40
0
 40
0
 40
0
 40
0
 40
1
 40
1
 40
1
 40
1
 10
18.196656
 20
2.983774
 30
0.0
 10
16.897100
 20
2.340409
 30
0.0
 10
15.758997
 20
2.155083
 30
0.0
 10
14.169830
 20
2.328066
 30
0.0
  0
LWPOLYLINE
  5
10f
100
AcDbEntity
  8
Layer_1
 62
7
100
AcDbPolyline
 90
2
 70
0
 10
13.130448
 20
0.167175
 30
0.0
 10
13.130448
 20
0.167440
 30
0.0
  0
SPLINE
  5
110
100
AcDbEntity
  8
Layer_1
 62
7
100
AcDbSpline
 70
8
 71
3
 72
8
 73
4
 74
0
 40
0
 40
0
 40
0
 40
0
 40
1
 40
1
 40
1
 40
1
 10
43.786508
 20
4.973930
 30
0.0
 10
43.350475
 20
5.037860
 30
0.0
 10
42.743736
 20
5.217693
 30
0.0
 10
42.438192
 20
5.373567
 30
0.0
  0
SPLINE
  5
111
100
AcDbEntity
  8
Layer_1
 62
7
100
AcDbSpline
 70
8
 71
3
 72
8
 73
4
 74
0
 40
0
 40
0
 40
0
 40
0
 40
1
 40
1
 40
1
 40
1
 10
42.438192
 20
5.373567
 30
0.0
 10
41.742205
 20
5.728633
 30
0.0
 10
41.565952
 20
5.727205
 30
0.0
 10
40.621898
 20
5.358817
 30
0.0
  0
SPLINE
  5
112
100
AcDbEntity
  8
Layer_1
 62
7
100
AcDbSpline
 70
8
 71
3
 72
8
 73
4
 74
0
 40
0
 40
0
 40
0
 40
0
 40
1
 40
1
 40
1
 40
1
 10
40.621898
 20
5.358817
 30
0.0
 10
39.531127
 20
4.933212
 30
0.0
 10
36.989061
 20
4.827505
 30
0.0
 10
36.091164
 20
5.170410
 30
0.0
  0
SPLINE
  5
113
100
AcDbEntity
  8
Layer_1
 62
7
100
AcDbSpline
 70
8
 71
3
 72
8
 73
4
 74
0
 40
0
 40
0
 40
0
 40
0
 40
1
 40
1
 40
1
 40
1
 10
36.091164
 20
5.170410
 30
0.0
 10
34.631205
 20
5.727979
 30
0.0
 10
33.936419
 20
6.923286
 30
0.0
 10
33.911653
 20
8.920063
 30
0.0
  0
SPLINE
  5
114
100
AcDbEntity
  8
Layer_1
 62
7
100
AcDbSpline
 70
8
 71
3
 72
8
 73
4
 74
0
 40
0
 40
0
 40
0
 40
0
 40
1
 40
1
 40
1
 40
1
 10
33.911653
 20
8.920063
 30
0.0
 10
33.886203
 20
10.971184
 30
0.0
 10
34.642913
 20
12.213493
 30
0.0
 10
36.151916
 20
12.598011
 30
0.0
  0
SPLINE
  5
115
100
AcDbEntity
  8
Layer_1
 62
7
100
AcDbSpline
 70
8
 71
3
 72
8
 73
4
 74
0
 40
0
 40
0
 40
0
 40
0
 40
1
 40
1
 40
1
 40
1
 10
36.151916
 20
12.598011
 30
0.0
 10
37.019763
 20
12.819155
 30
0.0
 10
39.554576
 20
13.152578
 30
0.0
 10
40.378900
 20
13.154016
 30
0.0
  0
LWPOLYLINE
  5
116
100
AcDbEntity
  8
Layer_1
 62
7
100
AcDbPolyline
 90
1
 70
1
 10
14.169830
 20
2.328066
 30
0.0
  0
SPLINE
  5
117
100
AcDbEntity
  8
Layer_1
 62
7
100
AcDbSpline
 70
8
 71
3
 72
8
 73
4
 74
0
 40
0
 40
0
 40
0
 40
0
 40
1
 40
1
 40
1
 40
1
 10
41.038466
 20
13.903343
 30
0.0
 10
41.038466
 20
14.434839
 30
0.0
 10
40.961226
 20
14.746650
 30
0.0
 10
40.771888
 20
14.979477
 30
0.0
  0
SPLINE
  5
118
100
AcDbEntity
  8
Layer_1
 62
7
100
AcDbSpline
 70
8
 71
3
 72
8
 73
4
 74
0
 40
0
 40
0
 40
0
 40
0
 40
1
 40
1
 40
1
 40
1
 10
40.771888
 20
14.979477
 30
0.0
 10
40.507206
 20
15.304964
 30
0.0
 10
40.484807
 20
15.307284
 30
0.0
 10
37.612913
 20
15.307284
 30
0.0
  0
LWPOLYLINE
  5
119
100
AcDbEntity
  8
Layer_1
 62
7
100
AcDbPolyline
 90
3
 70
0
 10
40.378900
 20
13.154016
 30
0.0
 10
41.038466
 20
13.155016
 30
0.0
 10
41.038466
 20
13.903343
 30
0.0
  0
SPLINE
  5
11a
100
AcDbEntity
  8
Layer_1
 62
7
100
AcDbSpline
 70
8
 71
3
 72
8
 73
4
 74
0
 40
0
 40
0
 40
0
 40
0
 40
1
 40
1
 40
1
 40
1
 10
35.096912
 20
17.715590
 30
0.0
 10
36.276360
 20
18.083067
 30
0.0
 10
37.384764
 20
18.210953
 30
0.0
 10
39.441574
 20
18.216873
 30
0.0
  0
SPLINE
  5
11b
100
AcDbEntity
  8
Layer_1
 62
7
100
AcDbSpline
 70
8
 71
3
 72
8
 73
4
 74
0
 40
0
 40
0
 40
0
 40
0
 40
1
 40
1
 40
1
 40
1
 10
39.441574
 20
18.216873
 30
0.0
 10
40.983283
 20
18.221073
 30
0.0
 10
41.828201
 20
18.165023
 30
0.0
 10
42.202133
 20
18.032932
 30
0.0
  0
SPLINE
  5
11c
100
AcDbEntity
  8
Layer_1
 62
7
100
AcDbSpline
 70
8
 71
3
 72
8
 73
4
 74
0
 40
0
 40
0
 40
0
 40
0
 40
1
 40
1
 40
1
 40
1
 10
42.202133
 20
18.032932
 30
0.0
 10
42.969101
 20
17.762036
 30
0.0
 10
43.729787
 20
17.019650
 30
0.0
 10
44.106916
 20
16.173976
 30
0.0
  0
SPLINE
  5
11d
100
AcDbEntity
  8
Layer_1
 62
7
100
AcDbSpline
 70
8
 71
3
 72
8
 73
4
 74
0
 40
0
 40
0
 40
0
 40
0
 40
1
 40
1
 40
1
 40
1
 10
44.106916
 20
16.173976
 30
0.0
 10
44.413410
 20
15.486700
 30
0.0
 10
44.435615
 20
15.239200
 30
0.0
 10
44.505372
 20
11.732697
 30
0.0
  0
LWPOLYLINE
  5
11e
100
AcDbEntity
  8
Layer_1
 62
7
100
AcDbPolyline
 90
5
 70
0
 10
37.612913
 20
15.307284
 30
0.0
 10
34.720517
 20
15.307284
 30
0.0
 10
34.680367
 20
16.440291
 30
0.0
 10
34.640217
 20
17.573298
 30
0.0
 10
35.096912
 20
17.715590
 30
0.0
  0
SPLINE
  5
11f
100
AcDbEntity
  8
Layer_1
 62
7
100
AcDbSpline
 70
8
 71
3
 72
8
 73
4
 74
0
 40
0
 40
0
 40
0
 40
0
 40
1
 40
1
 40
1
 40
1
 10
44.961099
 20
7.665539
 30
0.0
 10
45.315786
 20
7.336993
 30
0.0
 10
45.342951
 20
7.233537
 30
0.0
 10
45.342951
 20
6.211485
 30
0.0
  0
SPLINE
  5
120
100
AcDbEntity
  8
Layer_1
 62
7
100
AcDbSpline
 70
8
 71
3
 72
8
 73
4
 74
0
 40
0
 40
0
 40
0
 40
0
 40
1
 40
1
 40
1
 40
1
 10
45.342951
 20
6.211485
 30
0.0
 10
45.342951
 20
5.265719
 30
0.0
 10
45.305221
 20
5.090947
 30
0.0
 10
45.074369
 20
4.967401
 30
0.0
  0
SPLINE
  5
121
100
AcDbEntity
  8
Layer_1
 62
7
100
AcDbSpline
 70
8
 71
3
 72
8
 73
4
 74
0
 40
0
 40
0
 40
0
 40
0
 40
1
 40
1
 40
1
 40
1
 10
45.074369
 20
4.967401
 30
0.0
 10
44.926650
 20
4.888341
 30
0.0
 10
44.754812
 20
4.831276
 30
0.0
 10
44.692517
 20
4.840592
 30
0.0
  0
SPLINE
  5
122
100
AcDbEntity
  8
Layer_1
 62
7
100
AcDbSpline
 70
8
 71
3
 72
8
 73
4
 74
0
 40
0
 40
0
 40
0
 40
0
 40
1
 40
1
 40
1
 40
1
 10
44.692517
 20
4.840592
 30
0.0
 10
44.630217
 20
4.849892
 30
0.0
 10
44.222492
 20
4.909822
 30
0.0
 10
43.786458
 20
4.973746
 30
0.0
  0
LWPOLYLINE
  5
123
100
AcDbEntity
  8
Layer_1
 62
7
100
AcDbPolyline
 90
3
 70
0
 10
44.505372
 20
11.732697
 30
0.0
 10
44.579242
 20
8.019251
 30
0.0
 10
44.961099
 20
7.665539
 30
0.0
  0
SPLINE
  5
124
100
AcDbEntity
  8
Layer_1
 62
7
100
AcDbSpline
 70
8
 71
3
 72
8
 73
4
 74
0
 40
0
 40
0
 40
0
 40
0
 40
1
 40
1
 40
1
 40
1
 10
40.006259
 20
7.749031
 30
0.0
 10
40.459416
 20
7.830471
 30
0.0
 10
40.908287
 20
7.998631
 30
0.0
 10
41.003749
 20
8.122712
 30
0.0
  0
SPLINE
  5
125
100
AcDbEntity
  8
Layer_1
 62
7
100
AcDbSpline
 70
8
 71
3
 72
8
 73
4
 74
0
 40
0
 40
0
 40
0
 40
0
 40
1
 40
1
 40
1
 40
1
 10
41.003749
 20
8.122712
 30
0.0
 10
41.110701
 20
8.261723
 30
0.0
 10
41.177320
 20
8.792831
 30
0.0
 10
41.177320
 20
9.506415
 30
0.0
  0
SPLINE
  5
126
100
AcDbEntity
  8
Layer_1
 62
7
100
AcDbSpline
 70
8
 71
3
 72
8
 73
4
 74
0
 40
0
 40
0
 40
0
 40
0
 40
1
 40
1
 40
1
 40
1
 10
41.177320
 20
9.506415
 30
0.0
 10
41.177320
 20
10.464960
 30
0.0
 10
41.136960
 20
10.680001
 30
0.0
 10
40.942987
 20
10.754430
 30
0.0
  0
SPLINE
  5
127
100
AcDbEntity
  8
Layer_1
 62
7
100
AcDbSpline
 70
8
 71
3
 72
8
 73
4
 74
0
 40
0
 40
0
 40
0
 40
0
 40
1
 40
1
 40
1
 40
1
 10
40.942987
 20
10.754430
 30
0.0
 10
40.814099
 20
10.803870
 30
0.0
 10
40.080031
 20
10.774580
 30
0.0
 10
39.311725
 20
10.689330
 30
0.0
  0
SPLINE
  5
128
100
AcDbEntity
  8
Layer_1
 62
7
100
AcDbSpline
 70
8
 71
3
 72
8
 73
4
 74
0
 40
0
 40
0
 40
0
 40
0
 40
1
 40
1
 40
1
 40
1
 10
39.311725
 20
10.689330
 30
0.0
 10
38.076390
 20
10.552234
 30
0.0
 10
37.878626
 20
10.492243
 30
0.0
 10
37.602075
 20
10.170733
 30
0.0
  0
SPLINE
  5
129
100
AcDbEntity
  8
Layer_1
 62
7
100
AcDbSpline
 70
8
 71
3
 72
8
 73
4
 74
0
 40
0
 40
0
 40
0
 40
0
 40
1
 40
1
 40
1
 40
1
 10
37.602075
 20
10.170733
 30
0.0
 10
37.256053
 20
9.768461
 30
0.0
 10
37.165146
 20
8.647918
 30
0.0
 10
37.437286
 20
8.139424
 30
0.0
  0
SPLINE
  5
12a
100
AcDbEntity
  8
Layer_1
 62
7
100
AcDbSpline
 70
8
 71
3
 72
8
 73
4
 74
0
 40
0
 40
0
 40
0
 40
0
 40
1
 40
1
 40
1
 40
1
 10
37.437286
 20
8.139424
 30
0.0
 10
37.721816
 20
7.607776
 30
0.0
 10
38.533715
 20
7.484398
 30
0.0
 10
40.006259
 20
7.749034
 30
0.0
  0
LWPOLYLINE
  5
12b
100
AcDbEntity
  8
Layer_1
 62
7
100
AcDbPolyline
 90
2
 70
0
 10
43.786458
 20
4.973746
 30
0.0
 10
43.786508
 20
4.973930
 30
0.0
  0
SPLINE
  5
12c
100
AcDbEntity
  8
Layer_1
 62
7
100
AcDbSpline
 70
8
 71
3
 72
8
 73
4
 74
0
 40
0
 40
0
 40
0
 40
0
 40
1
 40
1
 40
1
 40
1
 10
51.064725
 20
4.973851
 30
0.0
 10
50.134426
 20
5.098955
 30
0.0
 10
49.350097
 20
5.612529
 30
0.0
 10
48.889786
 20
6.397997
 30
0.0
  0
SPLINE
  5
12d
100
AcDbEntity
  8
Layer_1
 62
7
100
AcDbSpline
 70
8
 71
3
 72
8
 73
4
 74
0
 40
0
 40
0
 40
0
 40
0
 40
1
 40
1
 40
1
 40
1
 10
48.889786
 20
6.397997
 30
0.0
 10
48.433269
 20
7.176983
 30
0.0
 10
48.267466
 20
8.768585
 30
0.0
 10
48.262559
 20
12.418949
 30
0.0
  0
LWPOLYLINE
  5
12e
100
AcDbEntity
  8
Layer_1
 62
7
100
AcDbPolyline
 90
1
 70
1
 10
40.006259
 20
7.749034
 30
0.0
  0
SPLINE
  5
12f
100
AcDbEntity
  8
Layer_1
 62
7
100
AcDbSpline
 70
8
 71
3
 72
8
 73
4
 74
0
 40
0
 40
0
 40
0
 40
0
 40
1
 40
1
 40
1
 40
1
 10
48.696843
 20
21.678326
 30
0.0
 10
49.243769
 20
21.787713
 30
0.0
 10
51.007671
 20
21.786715
 30
0.0
 10
51.417863
 20
21.676726
 30
0.0
  0
SPLINE
  5
130
100
AcDbEntity
  8
Layer_1
 62
7
100
AcDbSpline
 70
8
 71
3
 72
8
 73
4
 74
0
 40
0
 40
0
 40
0
 40
0
 40
1
 40
1
 40
1
 40
1
 10
51.417863
 20
21.676726
 30
0.0
 10
51.719256
 20
21.595956
 30
0.0
 10
51.730293
 20
21.535704
 30
0.0
 10
51.730293
 20
19.970689
 30
0.0
  0
SPLINE
  5
131
100
AcDbEntity
  8
Layer_1
 62
7
100
AcDbSpline
 70
8
 71
3
 72
8
 73
4
 74
0
 40
0
 40
0
 40
0
 40
0
 40
1
 40
1
 40
1
 40
1
 10
51.730293
 20
19.970689
 30
0.0
 10
51.730293
 20
18.894042
 30
0.0
 10
51.786333
 20
18.292342
 30
0.0
 10
51.896920
 20
18.181759
 30
0.0
  0
SPLINE
  5
132
100
AcDbEntity
  8
Layer_1
 62
7
100
AcDbSpline
 70
8
 71
3
 72
8
 73
4
 74
0
 40
0
 40
0
 40
0
 40
0
 40
1
 40
1
 40
1
 40
1
 10
51.896920
 20
18.181759
 30
0.0
 10
52.004947
 20
18.073727
 30
0.0
 10
52.566515
 20
18.015132
 30
0.0
 10
53.493760
 20
18.015132
 30
0.0
  0
LWPOLYLINE
  5
133
100
AcDbEntity
  8
Layer_1
 62
7
100
AcDbPolyline
 90
11
 70
0
 10
48.262559
 20
12.418949
 30
0.0
 10
48.258859
 20
15.084669
 30
0.0
 10
47.529866
 20
15.126649
 30
0.0
 10
46.800873
 20
15.168639
 30
0.0
 10
46.761403
 20
16.584493
 30
0.0
 10
46.721943
 20
18.000341
 30
0.0
 10
47.455711
 20
18.042481
 30
0.0
 10
48.189480
 20
18.084621
 30
0.0
 10
48.228210
 20
19.838483
 30
0.0
 10
48.266940
 20
21.592346
 30
0.0
 10
48.696843
 20
21.678326
 30
0.0
  0
SPLINE
  5
134
100
AcDbEntity
  8
Layer_1
 62
7
100
AcDbSpline
 70
8
 71
3
 72
8
 73
4
 74
0
 40
0
 40
0
 40
0
 40
0
 40
1
 40
1
 40
1
 40
1
 10
51.678594
 20
12.849920
 30
0.0
 10
51.546536
 20
10.473475
 30
0.0
 10
51.646214
 20
8.741108
 30
0.0
 10
51.937971
 20
8.341791
 30
0.0
  0
SPLINE
  5
135
100
AcDbEntity
  8
Layer_1
 62
7
100
AcDbSpline
 70
8
 71
3
 72
8
 73
4
 74
0
 40
0
 40
0
 40
0
 40
0
 40
1
 40
1
 40
1
 40
1
 10
51.937971
 20
8.341791
 30
0.0
 10
52.091089
 20
8.132229
 30
0.0
 10
52.359152
 20
8.078436
 30
0.0
 10
53.446301
 20
8.039107
 30
0.0
  0
LWPOLYLINE
  5
136
100
AcDbEntity
  8
Layer_1
 62
7
100
AcDbPolyline
 90
7
 70
0
 10
53.493760
 20
18.015132
 30
0.0
 10
54.923977
 20
18.015132
 30
0.0
 10
54.923977
 20
16.561691
 30
0.0
 10
54.923977
 20
15.108250
 30
0.0
 10
53.361849
 20
15.069000
 30
0.0
 10
51.799720
 20
15.029740
 30
0.0
 10
51.678594
 20
12.849920
 30
0.0
  0
SPLINE
  5
137
100
AcDbEntity
  8
Layer_1
 62
7
100
AcDbSpline
 70
8
 71
3
 72
8
 73
4
 74
0
 40
0
 40
0
 40
0
 40
0
 40
1
 40
1
 40
1
 40
1
 10
54.856538
 20
7.275425
 30
0.0
 10
54.904978
 20
6.881691
 30
0.0
 10
54.924378
 20
6.247694
 30
0.0
 10
54.899628
 20
5.866541
 30
0.0
  0
LWPOLYLINE
  5
138
100
AcDbEntity
  8
Layer_1
 62
7
100
AcDbPolyline
 90
3
 70
0
 10
53.446301
 20
8.039107
 30
0.0
 10
54.768418
 20
7.991297
 30
0.0
 10
54.856538
 20
7.275425
 30
0.0
  0
SPLINE
  5
139
100
AcDbEntity
  8
Layer_1
 62
7
100
AcDbSpline
 70
8
 71
3
 72
8
 73
4
 74
0
 40
0
 40
0
 40
0
 40
0
 40
1
 40
1
 40
1
 40
1
 10
54.160316
 20
5.082449
 30
0.0
 10
52.860881
 20
4.911986
 30
0.0
 10
51.801174
 20
4.874813
 30
0.0
 10
51.064687
 20
4.973856
 30
0.0
  0
LWPOLYLINE
  5
13a
100
AcDbEntity
  8
Layer_1
 62
7
100
AcDbPolyline
 90
3
 70
0
 10
54.899628
 20
5.866541
 30
0.0
 10
54.854598
 20
5.173529
 30
0.0
 10
54.160316
 20
5.082449
 30
0.0
  0
SPLINE
  5
13b
100
AcDbEntity
  8
Layer_1
 62
7
100
AcDbSpline
 70
8
 71
3
 72
8
 73
4
 74
0
 40
0
 40
0
 40
0
 40
0
 40
1
 40
1
 40
1
 40
1
 10
60.793550
 20
4.970151
 30
0.0
 10
58.694178
 20
5.246747
 30
0.0
 10
57.290878
 20
6.521317
 30
0.0
 10
56.801865
 20
8.595660
 30
0.0
  0
SPLINE
  5
13c
100
AcDbEntity
  8
Layer_1
 62
7
100
AcDbSpline
 70
8
 71
3
 72
8
 73
4
 74
0
 40
0
 40
0
 40
0
 40
0
 40
1
 40
1
 40
1
 40
1
 10
56.801865
 20
8.595660
 30
0.0
 10
56.517555
 20
9.801679
 30
0.0
 10
56.521155
 20
13.004506
 30
0.0
 10
56.808165
 20
14.266721
 30
0.0
  0
SPLINE
  5
13d
100
AcDbEntity
  8
Layer_1
 62
7
100
AcDbSpline
 70
8
 71
3
 72
8
 73
4
 74
0
 40
0
 40
0
 40
0
 40
0
 40
1
 40
1
 40
1
 40
1
 10
56.808165
 20
14.266721
 30
0.0
 10
57.203337
 20
16.004147
 30
0.0
 10
58.358985
 20
17.365305
 30
0.0
 10
59.955997
 20
17.974342
 30
0.0
  0
SPLINE
  5
13e
100
AcDbEntity
  8
Layer_1
 62
7
100
AcDbSpline
 70
8
 71
3
 72
8
 73
4
 74
0
 40
0
 40
0
 40
0
 40
0
 40
1
 40
1
 40
1
 40
1
 10
59.955997
 20
17.974342
 30
0.0
 10
60.832042
 20
18.308431
 30
0.0
 10
63.639047
 20
18.307602
 30
0.0
 10
64.598163
 20
17.972742
 30
0.0
  0
SPLINE
  5
13f
100
AcDbEntity
  8
Layer_1
 62
7
100
AcDbSpline
 70
8
 71
3
 72
8
 73
4
 74
0
 40
0
 40
0
 40
0
 40
0
 40
1
 40
1
 40
1
 40
1
 10
64.598163
 20
17.972742
 30
0.0
 10
66.090456
 20
17.452088
 30
0.0
 10
67.081990
 20
16.157308
 30
0.0
 10
67.490051
 20
14.196413
 30
0.0
  0
SPLINE
  5
140
100
AcDbEntity
  8
Layer_1
 62
7
100
AcDbSpline
 70
8
 71
3
 72
8
 73
4
 74
0
 40
0
 40
0
 40
0
 40
0
 40
1
 40
1
 40
1
 40
1
 10
67.490051
 20
14.196413
 30
0.0
 10
67.711872
 20
13.130471
 30
0.0
 10
67.708645
 20
12.553096
 30
0.0
 10
67.471211
 20
10.831393
 30
0.0
  0
LWPOLYLINE
  5
141
100
AcDbEntity
  8
Layer_1
 62
7
100
AcDbPolyline
 90
1
 70
1
 10
51.064687
 20
4.973856
 30
0.0
  0
SPLINE
  5
142
100
AcDbEntity
  8
Layer_1
 62
7
100
AcDbSpline
 70
8
 71
3
 72
8
 73
4
 74
0
 40
0
 40
0
 40
0
 40
0
 40
1
 40
1
 40
1
 40
1
 10
60.007742
 20
9.652433
 30
0.0
 10
60.029832
 20
8.916607
 30
0.0
 10
60.606928
 20
8.207788
 30
0.0
 10
61.349823
 20
8.004031
 30
0.0
  0
SPLINE
  5
143
100
AcDbEntity
  8
Layer_1
 62
7
100
AcDbSpline
 70
8
 71
3
 72
8
 73
4
 74
0
 40
0
 40
0
 40
0
 40
0
 40
1
 40
1
 40
1
 40
1
 10
61.349823
 20
8.004031
 30
0.0
 10
61.754604
 20
7.893007
 30
0.0
 10
62.702363
 20
7.871112
 30
0.0
 10
64.410106
 20
7.933331
 30
0.0
  0
SPLINE
  5
144
100
AcDbEntity
  8
Layer_1
 62
7
100
AcDbSpline
 70
8
 71
3
 72
8
 73
4
 74
0
 40
0
 40
0
 40
0
 40
0
 40
1
 40
1
 40
1
 40
1
 10
64.410106
 20
7.933331
 30
0.0
 10
65.770755
 20
7.982921
 30
0.0
 10
66.957975
 20
8.037705
 30
0.0
 10
67.048374
 20
8.055108
 30
0.0
  0
SPLINE
  5
145
100
AcDbEntity
  8
Layer_1
 62
7
100
AcDbSpline
 70
8
 71
3
 72
8
 73
4
 74
0
 40
0
 40
0
 40
0
 40
0
 40
1
 40
1
 40
1
 40
1
 10
67.048374
 20
8.055108
 30
0.0
 10
67.165107
 20
8.077568
 30
0.0
 10
67.212734
 20
7.725060
 30
0.0
 10
67.212734
 20
6.838530
 30
0.0
  0
LWPOLYLINE
  5
146
100
AcDbEntity
  8
Layer_1
 62
7
100
AcDbPolyline
 90
5
 70
0
 10
67.471211
 20
10.831393
 30
0.0
 10
67.390151
 20
10.243491
 30
0.0
 10
63.691184
 20
10.206541
 30
0.0
 10
59.992212
 20
10.169591
 30
0.0
 10
60.007742
 20
9.652433
 30
0.0
  0
SPLINE
  5
147
100
AcDbEntity
  8
Layer_1
 62
7
100
AcDbSpline
 70
8
 71
3
 72
8
 73
4
 74
0
 40
0
 40
0
 40
0
 40
0
 40
1
 40
1
 40
1
 40
1
 10
66.101884
 20
5.357248
 30
0.0
 10
65.490916
 20
5.229069
 30
0.0
 10
64.491152
 20
5.085423
 30
0.0
 10
63.880190
 20
5.038033
 30
0.0
  0
SPLINE
  5
148
100
AcDbEntity
  8
Layer_1
 62
7
100
AcDbSpline
 70
8
 71
3
 72
8
 73
4
 74
0
 40
0
 40
0
 40
0
 40
0
 40
1
 40
1
 40
1
 40
1
 10
63.880190
 20
5.038033
 30
0.0
 10
63.269221
 20
4.990643
 30
0.0
 10
62.519399
 20
4.930289
 30
0.0
 10
62.213917
 20
4.903912
 30
0.0
  0
SPLINE
  5
149
100
AcDbEntity
  8
Layer_1
 62
7
100
AcDbSpline
 70
8
 71
3
 72
8
 73
4
 74
0
 40
0
 40
0
 40
0
 40
0
 40
1
 40
1
 40
1
 40
1
 10
62.213917
 20
4.903912
 30
0.0
 10
61.908431
 20
4.877512
 30
0.0
 10
61.269228
 20
4.907012
 30
0.0
 10
60.793461
 20
4.969932
 30
0.0
  0
LWPOLYLINE
  5
14a
100
AcDbEntity
  8
Layer_1
 62
7
100
AcDbPolyline
 90
3
 70
0
 10
67.212734
 20
6.838530
 30
0.0
 10
67.212734
 20
5.590306
 30
0.0
 10
66.101884
 20
5.357248
 30
0.0
  0
SPLINE
  5
14b
100
AcDbEntity
  8
Layer_1
 62
7
100
AcDbSpline
 70
8
 71
3
 72
8
 73
4
 74
0
 40
0
 40
0
 40
0
 40
0
 40
1
 40
1
 40
1
 40
1
 10
64.334822
 20
13.363502
 30
0.0
 10
64.380112
 20
14.025839
 30
0.0
 10
64.038283
 20
14.755314
 30
0.0
 10
63.496448
 20
15.152632
 30
0.0
  0
SPLINE
  5
14c
100
AcDbEntity
  8
Layer_1
 62
7
100
AcDbSpline
 70
8
 71
3
 72
8
 73
4
 74
0
 40
0
 40
0
 40
0
 40
0
 40
1
 40
1
 40
1
 40
1
 10
63.496448
 20
15.152632
 30
0.0
 10
63.197673
 20
15.371720
 30
0.0
 10
62.898096
 20
15.434088
 30
0.0
 10
62.144579
 20
15.434088
 30
0.0
  0
SPLINE
  5
14d
100
AcDbEntity
  8
Layer_1
 62
7
100
AcDbSpline
 70
8
 71
3
 72
8
 73
4
 74
0
 40
0
 40
0
 40
0
 40
0
 40
1
 40
1
 40
1
 40
1
 10
62.144579
 20
15.434088
 30
0.0
 10
61.391057
 20
15.434088
 30
0.0
 10
61.091479
 20
15.371718
 30
0.0
 10
60.792710
 20
15.152632
 30
0.0
  0
SPLINE
  5
14e
100
AcDbEntity
  8
Layer_1
 62
7
100
AcDbSpline
 70
8
 71
3
 72
8
 73
4
 74
0
 40
0
 40
0
 40
0
 40
0
 40
1
 40
1
 40
1
 40
1
 10
60.792710
 20
15.152632
 30
0.0
 10
60.270671
 20
14.769831
 30
0.0
 10
59.923357
 20
14.039993
 30
0.0
 10
59.923095
 20
13.325259
 30
0.0
  0
LWPOLYLINE
  5
14f
100
AcDbEntity
  8
Layer_1
 62
7
100
AcDbPolyline
 90
2
 70
0
 10
60.793461
 20
4.969932
 30
0.0
 10
60.793550
 20
4.970151
 30
0.0
  0
SPLINE
  5
150
100
AcDbEntity
  8
Layer_1
 62
7
100
AcDbSpline
 70
8
 71
3
 72
8
 73
4
 74
0
 40
0
 40
0
 40
0
 40
0
 40
1
 40
1
 40
1
 40
1
 10
3.408488
 20
5.083458
 30
0.0
 10
1.877218
 20
5.590902
 30
0.0
 10
0.944788
 20
6.552202
 30
0.0
 10
0.408453
 20
8.176384
 30
0.0
  0
SPLINE
  5
151
100
AcDbEntity
  8
Layer_1
 62
7
100
AcDbSpline
 70
8
 71
3
 72
8
 73
4
 74
0
 40
0
 40
0
 40
0
 40
0
 40
1
 40
1
 40
1
 40
1
 10
0.408453
 20
8.176384
 30
0.0
 10
0.052312
 20
9.254885
 30
0.0
 10
0.025379
 20
9.498071
 30
0.0
 10
0.026223
 20
11.627761
 30
0.0
  0
SPLINE
  5
152
100
AcDbEntity
  8
Layer_1
 62
7
100
AcDbSpline
 70
8
 71
3
 72
8
 73
4
 74
0
 40
0
 40
0
 40
0
 40
0
 40
1
 40
1
 40
1
 40
1
 10
0.026223
 20
11.627761
 30
0.0
 10
0.027223
 20
13.781451
 30
0.0
 10
0.050893
 20
13.988745
 30
0.0
 10
0.423384
 20
15.083546
 30
0.0
  0
SPLINE
  5
153
100
AcDbEntity
  8
Layer_1
 62
7
100
AcDbSpline
 70
8
 71
3
 72
8
 73
4
 74
0
 40
0
 40
0
 40
0
 40
0
 40
1
 40
1
 40
1
 40
1
 10
0.423384
 20
15.083546
 30
0.0
 10
0.748283
 20
16.038470
 30
0.0
 10
0.948341
 20
16.380027
 30
0.0
 10
1.534307
 20
16.980210
 30
0.0
  0
SPLINE
  5
154
100
AcDbEntity
  8
Layer_1
 62
7
100
AcDbSpline
 70
8
 71
3
 72
8
 73
4
 74
0
 40
0
 40
0
 40
0
 40
0
 40
1
 40
1
 40
1
 40
1
 10
1.534307
 20
16.980210
 30
0.0
 10
2.389895
 20
17.856554
 30
0.0
 10
3.145878
 20
18.132651
 30
0.0
 10
5.005333
 20
18.247878
 30
0.0
  0
SPLINE
  5
155
100
AcDbEntity
  8
Layer_1
 62
7
100
AcDbSpline
 70
8
 71
3
 72
8
 73
4
 74
0
 40
0
 40
0
 40
0
 40
0
 40
1
 40
1
 40
1
 40
1
 10
5.005333
 20
18.247878
 30
0.0
 10
6.173093
 20
18.320238
 30
0.0
 10
9.034164
 20
18.020158
 30
0.0
 10
9.413869
 20
17.785484
 30
0.0
  0
SPLINE
  5
156
100
AcDbEntity
  8
Layer_1
 62
7
100
AcDbSpline
 70
8
 71
3
 72
8
 73
4
 74
0
 40
0
 40
0
 40
0
 40
0
 40
1
 40
1
 40
1
 40
1
 10
9.413869
 20
17.785484
 30
0.0
 10
9.568709
 20
17.689784
 30
0.0
 10
9.435909
 20
15.232582
 30
0.0
 10
9.267767
 20
15.081872
 30
0.0
  0
SPLINE
  5
157
100
AcDbEntity
  8
Layer_1
 62
7
100
AcDbSpline
 70
8
 71
3
 72
8
 73
4
 74
0
 40
0
 40
0
 40
0
 40
0
 40
1
 40
1
 40
1
 40
1
 10
9.267767
 20
15.081872
 30
0.0
 10
9.214547
 20
15.034162
 30
0.0
 10
8.671132
 20
15.054372
 30
0.0
 10
8.060164
 20
15.126742
 30
0.0
  0
SPLINE
  5
158
100
AcDbEntity
  8
Layer_1
 62
7
100
AcDbSpline
 70
8
 71
3
 72
8
 73
4
 74
0
 40
0
 40
0
 40
0
 40
0
 40
1
 40
1
 40
1
 40
1
 10
8.060164
 20
15.126742
 30
0.0
 10
5.902050
 20
15.382419
 30
0.0
 10
4.383055
 20
15.100552
 30
0.0
 10
3.893649
 20
14.353645
 30
0.0
  0
SPLINE
  5
159
100
AcDbEntity
  8
Layer_1
 62
7
100
AcDbSpline
 70
8
 71
3
 72
8
 73
4
 74
0
 40
0
 40
0
 40
0
 40
0
 40
1
 40
1
 40
1
 40
1
 10
3.893649
 20
14.353645
 30
0.0
 10
3.521328
 20
13.785412
 30
0.0
 10
3.334453
 20
11.942127
 30
0.0
 10
3.513503
 20
10.603945
 30
0.0
  0
SPLINE
  5
15a
100
AcDbEntity
  8
Layer_1
 62
7
100
AcDbSpline
 70
8
 71
3
 72
8
 73
4
 74
0
 40
0
 40
0
 40
0
 40
0
 40
1
 40
1
 40
1
 40
1
 10
3.513503
 20
10.603945
 30
0.0
 10
3.699133
 20
9.216536
 30
0.0
 10
3.950097
 20
8.661937
 30
0.0
 10
4.560793
 20
8.289574
 30
0.0
  0
SPLINE
  5
15b
100
AcDbEntity
  8
Layer_1
 62
7
100
AcDbSpline
 70
8
 71
3
 72
8
 73
4
 74
0
 40
0
 40
0
 40
0
 40
0
 40
1
 40
1
 40
1
 40
1
 10
4.560793
 20
8.289574
 30
0.0
 10
4.951902
 20
8.051106
 30
0.0
 10
5.268200
 20
8.018462
 30
0.0
 10
7.192317
 20
8.018006
 30
0.0
  0
LWPOLYLINE
  5
15c
100
AcDbEntity
  8
Layer_1
 62
7
100
AcDbPolyline
 90
5
 70
0
 10
59.923095
 20
13.325259
 30
0.0
 10
59.922879
 20
12.731599
 30
0.0
 10
62.109863
 20
12.769859
 30
0.0
 10
64.296846
 20
12.808119
 30
0.0
 10
64.334822
 20
13.363502
 30
0.0
  0
SPLINE
  5
15d
100
AcDbEntity
  8
Layer_1
 62
7
100
AcDbSpline
 70
8
 71
3
 72
8
 73
4
 74
0
 40
0
 40
0
 40
0
 40
0
 40
1
 40
1
 40
1
 40
1
 10
8.650302
 20
5.249370
 30
0.0
 10
7.791151
 20
5.040123
 30
0.0
 10
3.909949
 20
4.917265
 30
0.0
 10
3.408488
 20
5.083441
 30
0.0
  0
LWPOLYLINE
  5
15e
100
AcDbEntity
  8
Layer_1
 62
7
100
AcDbPolyline
 90
5
 70
0
 10
7.192317
 20
8.018006
 30
0.0
 10
9.379300
 20
8.017486
 30
0.0
 10
9.379300
 20
6.722202
 30
0.0
 10
9.379300
 20
5.426919
 30
0.0
 10
8.650302
 20
5.249370
 30
0.0
  0
SPLINE
  5
15f
100
AcDbEntity
  8
Layer_1
 62
7
100
AcDbSpline
 70
8
 71
3
 72
8
 73
4
 74
0
 40
0
 40
0
 40
0
 40
0
 40
1
 40
1
 40
1
 40
1
 10
24.368879
 20
5.142318
 30
0.0
 10
21.988881
 20
5.819911
 30
0.0
 10
21.058414
 20
7.582244
 30
0.0
 10
21.048080
 20
11.431978
 30
0.0
  0
SPLINE
  5
160
100
AcDbEntity
  8
Layer_1
 62
7
100
AcDbSpline
 70
8
 71
3
 72
8
 73
4
 74
0
 40
0
 40
0
 40
0
 40
0
 40
1
 40
1
 40
1
 40
1
 10
21.048080
 20
11.431978
 30
0.0
 10
21.039880
 20
14.483859
 30
0.0
 10
21.743328
 20
16.344395
 30
0.0
 10
23.309109
 20
17.412195
 30
0.0
  0
SPLINE
  5
161
100
AcDbEntity
  8
Layer_1
 62
7
100
AcDbSpline
 70
8
 71
3
 72
8
 73
4
 74
0
 40
0
 40
0
 40
0
 40
0
 40
1
 40
1
 40
1
 40
1
 10
23.309109
 20
17.412195
 30
0.0
 10
24.119132
 20
17.964605
 30
0.0
 10
24.674607
 20
18.133268
 30
0.0
 10
26.051552
 20
18.244916
 30
0.0
  0
SPLINE
  5
162
100
AcDbEntity
  8
Layer_1
 62
7
100
AcDbSpline
 70
8
 71
3
 72
8
 73
4
 74
0
 40
0
 40
0
 40
0
 40
0
 40
1
 40
1
 40
1
 40
1
 10
26.051552
 20
18.244916
 30
0.0
 10
29.089619
 20
18.491246
 30
0.0
 10
31.222437
 20
17.241054
 30
0.0
 10
31.870604
 20
14.833955
 30
0.0
  0
SPLINE
  5
163
100
AcDbEntity
  8
Layer_1
 62
7
100
AcDbSpline
 70
8
 71
3
 72
8
 73
4
 74
0
 40
0
 40
0
 40
0
 40
0
 40
1
 40
1
 40
1
 40
1
 10
31.870604
 20
14.833955
 30
0.0
 10
32.042038
 20
14.197292
 30
0.0
 10
32.086133
 20
11.204473
 30
0.0
 10
31.933064
 20
10.594591
 30
0.0
  0
LWPOLYLINE
  5
164
100
AcDbEntity
  8
Layer_1
 62
7
100
AcDbPolyline
 90
1
 70
1
 10
3.408488
 20
5.083441
 30
0.0
  0
SPLINE
  5
165
100
AcDbEntity
  8
Layer_1
 62
7
100
AcDbSpline
 70
8
 71
3
 72
8
 73
4
 74
0
 40
0
 40
0
 40
0
 40
0
 40
1
 40
1
 40
1
 40
1
 10
24.400942
 20
9.784986
 30
0.0
 10
24.347882
 20
9.323316
 30
0.0
 10
24.787922
 20
8.563296
 30
0.0
 10
25.315456
 20
8.205449
 30
0.0
  0
SPLINE
  5
166
100
AcDbEntity
  8
Layer_1
 62
7
100
AcDbSpline
 70
8
 71
3
 72
8
 73
4
 74
0
 40
0
 40
0
 40
0
 40
0
 40
1
 40
1
 40
1
 40
1
 10
25.315456
 20
8.205449
 30
0.0
 10
25.659532
 20
7.972056
 30
0.0
 10
25.976129
 20
7.950665
 30
0.0
 10
28.714987
 20
7.975771
 30
0.0
  0
LWPOLYLINE
  5
167
100
AcDbEntity
  8
Layer_1
 62
7
100
AcDbPolyline
 90
5
 70
0
 10
31.933064
 20
10.594591
 30
0.0
 10
31.844994
 20
10.243682
 30
0.0
 10
28.145088
 20
10.206732
 30
0.0
 10
24.445182
 20
10.169782
 30
0.0
 10
24.400942
 20
9.784986
 30
0.0
  0
SPLINE
  5
168
100
AcDbEntity
  8
Layer_1
 62
7
100
AcDbSpline
 70
8
 71
3
 72
8
 73
4
 74
0
 40
0
 40
0
 40
0
 40
0
 40
1
 40
1
 40
1
 40
1
 10
31.735101
 20
6.838429
 30
0.0
 10
31.735101
 20
6.197647
 30
0.0
 10
31.683671
 20
5.641579
 30
0.0
 10
31.620781
 20
5.602717
 30
0.0
  0
SPLINE
  5
169
100
AcDbEntity
  8
Layer_1
 62
7
100
AcDbSpline
 70
8
 71
3
 72
8
 73
4
 74
0
 40
0
 40
0
 40
0
 40
0
 40
1
 40
1
 40
1
 40
1
 10
31.620781
 20
5.602717
 30
0.0
 10
30.859969
 20
5.132513
 30
0.0
 10
25.580595
 20
4.797359
 30
0.0
 10
24.368871
 20
5.142348
 30
0.0
  0
LWPOLYLINE
  5
16a
100
AcDbEntity
  8
Layer_1
 62
7
100
AcDbPolyline
 90
3
 70
0
 10
28.714987
 20
7.975771
 30
0.0
 10
31.735101
 20
8.003481
 30
0.0
 10
31.735101
 20
6.838429
 30
0.0
  0
SPLINE
  5
16b
100
AcDbEntity
  8
Layer_1
 62
7
100
AcDbSpline
 70
8
 71
3
 72
8
 73
4
 74
0
 40
0
 40
0
 40
0
 40
0
 40
1
 40
1
 40
1
 40
1
 10
28.778061
 20
13.513071
 30
0.0
 10
28.636593
 20
14.883765
 30
0.0
 10
28.019448
 20
15.449148
 30
0.0
 10
26.672979
 20
15.441591
 30
0.0
  0
SPLINE
  5
16c
100
AcDbEntity
  8
Layer_1
 62
7
100
AcDbSpline
 70
8
 71
3
 72
8
 73
4
 74
0
 40
0
 40
0
 40
0
 40
0
 40
1
 40
1
 40
1
 40
1
 10
26.672979
 20
15.441591
 30
0.0
 10
25.218164
 20
15.433491
 30
0.0
 10
24.557144
 20
14.872623
 30
0.0
 10
24.418453
 20
13.528862
 30
0.0
  0
LWPOLYLINE
  5
16d
100
AcDbEntity
  8
Layer_1
 62
7
100
AcDbPolyline
 90
1
 70
1
 10
24.368871
 20
5.142348
 30
0.0
  0
SPLINE
  5
16e
100
AcDbEntity
  8
Layer_1
 62
7
100
AcDbSpline
 70
8
 71
3
 72
8
 73
4
 74
0
 40
0
 40
0
 40
0
 40
0
 40
1
 40
1
 40
1
 40
1
 10
12.250804
 20
5.215855
 30
0.0
 10
12.036424
 20
5.257105
 30
0.0
 10
12.017562
 20
5.776451
 30
0.0
 10
12.017562
 20
11.637945
 30
0.0
  0
LWPOLYLINE
  5
16f
100
AcDbEntity
  8
Layer_1
 62
7
100
AcDbPolyline
 90
5
 70
0
 10
24.418453
 20
13.528862
 30
0.0
 10
24.336893
 20
12.738609
 30
0.0
 10
26.597444
 20
12.738609
 30
0.0
 10
28.857990
 20
12.738609
 30
0.0
 10
28.778061
 20
13.513071
 30
0.0
  0
SPLINE
  5
170
100
AcDbEntity
  8
Layer_1
 62
7
100
AcDbSpline
 70
8
 71
3
 72
8
 73
4
 74
0
 40
0
 40
0
 40
0
 40
0
 40
1
 40
1
 40
1
 40
1
 10
15.367477
 20
17.598571
 30
0.0
 10
15.391307
 20
17.026475
 30
0.0
 10
15.406887
 20
16.940081
 30
0.0
 10
15.503728
 20
16.843253
 30
0.0
  0
SPLINE
  5
171
100
AcDbEntity
  8
Layer_1
 62
7
100
AcDbSpline
 70
8
 71
3
 72
8
 73
4
 74
0
 40
0
 40
0
 40
0
 40
0
 40
1
 40
1
 40
1
 40
1
 10
15.503728
 20
16.843253
 30
0.0
 10
15.550018
 20
16.796963
 30
0.0
 10
16.112392
 20
17.009125
 30
0.0
 10
16.753432
 20
17.314748
 30
0.0
  0
SPLINE
  5
172
100
AcDbEntity
  8
Layer_1
 62
7
100
AcDbSpline
 70
8
 71
3
 72
8
 73
4
 74
0
 40
0
 40
0
 40
0
 40
0
 40
1
 40
1
 40
1
 40
1
 10
16.753432
 20
17.314748
 30
0.0
 10
17.394467
 20
17.620366
 30
0.0
 10
18.262623
 20
17.957079
 30
0.0
 10
18.682666
 20
18.062996
 30
0.0
  0
LWPOLYLINE
  5
173
100
AcDbEntity
  8
Layer_1
 62
7
100
AcDbPolyline
 90
5
 70
0
 10
12.017562
 20
11.637945
 30
0.0
 10
12.017562
 20
18.015139
 30
0.0
 10
13.683835
 20
18.015139
 30
0.0
 10
15.350107
 20
18.015139
 30
0.0
 10
15.367477
 20
17.598571
 30
0.0
  0
SPLINE
  5
174
100
AcDbEntity
  8
Layer_1
 62
7
100
AcDbSpline
 70
8
 71
3
 72
8
 73
4
 74
0
 40
0
 40
0
 40
0
 40
0
 40
1
 40
1
 40
1
 40
1
 10
19.485679
 20
16.654201
 30
0.0
 10
19.507299
 20
15.773449
 30
0.0
 10
19.476079
 20
15.007861
 30
0.0
 10
19.416249
 20
14.952898
 30
0.0
  0
SPLINE
  5
175
100
AcDbEntity
  8
Layer_1
 62
7
100
AcDbSpline
 70
8
 71
3
 72
8
 73
4
 74
0
 40
0
 40
0
 40
0
 40
0
 40
1
 40
1
 40
1
 40
1
 10
19.416249
 20
14.952898
 30
0.0
 10
19.356439
 20
14.897928
 30
0.0
 10
18.596470
 20
14.685040
 30
0.0
 10
17.727431
 20
14.479808
 30
0.0
  0
SPLINE
  5
176
100
AcDbEntity
  8
Layer_1
 62
7
100
AcDbSpline
 70
8
 71
3
 72
8
 73
4
 74
0
 40
0
 40
0
 40
0
 40
0
 40
1
 40
1
 40
1
 40
1
 10
17.727431
 20
14.479808
 30
0.0
 10
16.858393
 20
14.274576
 30
0.0
 10
15.999221
 20
14.050335
 30
0.0
 10
15.818162
 20
13.981495
 30
0.0
  0
LWPOLYLINE
  5
177
100
AcDbEntity
  8
Layer_1
 62
7
100
AcDbPolyline
 90
3
 70
0
 10
18.682666
 20
18.062996
 30
0.0
 10
19.446369
 20
18.255570
 30
0.0
 10
19.485679
 20
16.654201
 30
0.0
  0
SPLINE
  5
178
100
AcDbEntity
  8
Layer_1
 62
7
100
AcDbSpline
 70
8
 71
3
 72
8
 73
4
 74
0
 40
0
 40
0
 40
0
 40
0
 40
1
 40
1
 40
1
 40
1
 10
15.107107
 20
5.226634
 30
0.0
 10
13.878002
 20
5.182444
 30
0.0
 10
12.452229
 20
5.177044
 30
0.0
 10
12.250802
 20
5.215824
 30
0.0
  0
LWPOLYLINE
  5
179
100
AcDbEntity
  8
Layer_1
 62
7
100
AcDbPolyline
 90
5
 70
0
 10
15.818162
 20
13.981495
 30
0.0
 10
15.488959
 20
13.856333
 30
0.0
 10
15.488959
 20
9.548356
 30
0.0
 10
15.488959
 20
5.240384
 30
0.0
 10
15.107107
 20
5.226634
 30
0.0
  0
SPLINE
  5
17a
100
AcDbEntity
  8
Layer_1
 62
7
100
AcDbSpline
 70
8
 71
3
 72
8
 73
4
 74
0
 40
0
 40
0
 40
0
 40
0
 40
1
 40
1
 40
1
 40
1
 10
70.294964
 20
5.328788
 30
0.0
 10
70.241754
 20
5.381998
 30
0.0
 10
70.198224
 20
6.288713
 30
0.0
 10
70.198224
 20
7.343723
 30
0.0
  0
SPLINE
  5
17b
100
AcDbEntity
  8
Layer_1
 62
7
100
AcDbSpline
 70
8
 71
3
 72
8
 73
4
 74
0
 40
0
 40
0
 40
0
 40
0
 40
1
 40
1
 40
1
 40
1
 10
70.198224
 20
7.343723
 30
0.0
 10
70.198224
 20
9.601540
 30
0.0
 10
70.039017
 20
9.440749
 30
0.0
 10
72.211637
 20
9.377231
 30
0.0
  0
LWPOLYLINE
  5
17c
100
AcDbEntity
  8
Layer_1
 62
7
100
AcDbPolyline
 90
1
 70
1
 10
12.250802
 20
5.215824
 30
0.0
  0
SPLINE
  5
17d
100
AcDbEntity
  8
Layer_1
 62
7
100
AcDbSpline
 70
8
 71
3
 72
8
 73
4
 74
0
 40
0
 40
0
 40
0
 40
0
 40
1
 40
1
 40
1
 40
1
 10
71.995950
 20
5.270945
 30
0.0
 10
71.113613
 20
5.249585
 30
0.0
 10
70.348172
 20
5.275645
 30
0.0
 10
70.294962
 20
5.328805
 30
0.0
  0
LWPOLYLINE
  5
17e
100
AcDbEntity
  8
Layer_1
 62
7
100
AcDbPolyline
 90
5
 70
0
 10
72.211637
 20
9.377231
 30
0.0
 10
73.600195
 20
9.336661
 30
0.0
 10
73.600195
 20
7.323248
 30
0.0
 10
73.600195
 20
5.309835
 30
0.0
 10
71.995950
 20
5.270945
 30
0.0
  0
SPLINE
  5
17f
100
AcDbEntity
  8
Layer_1
 62
7
100
AcDbSpline
 70
8
 71
3
 72
8
 73
4
 74
0
 40
0
 40
0
 40
0
 40
0
 40
1
 40
1
 40
1
 40
1
 10
71.123933
 20
12.275758
 30
0.0
 10
71.073023
 20
12.326668
 30
0.0
 10
71.031443
 20
12.592234
 30
0.0
 10
71.031543
 20
12.865896
 30
0.0
  0
SPLINE
  5
180
100
AcDbEntity
  8
Layer_1
 62
7
100
AcDbSpline
 70
8
 71
3
 72
8
 73
4
 74
0
 40
0
 40
0
 40
0
 40
0
 40
1
 40
1
 40
1
 40
1
 10
71.031543
 20
12.865896
 30
0.0
 10
71.031638
 20
13.139558
 30
0.0
 10
70.961033
 20
13.869328
 30
0.0
 10
70.874641
 20
14.487612
 30
0.0
  0
SPLINE
  5
181
100
AcDbEntity
  8
Layer_1
 62
7
100
AcDbSpline
 70
8
 71
3
 72
8
 73
4
 74
0
 40
0
 40
0
 40
0
 40
0
 40
1
 40
1
 40
1
 40
1
 10
70.874641
 20
14.487612
 30
0.0
 10
70.735571
 20
15.482856
 30
0.0
 10
70.751478
 20
15.777411
 30
0.0
 10
71.013374
 20
17.056447
 30
0.0
  0
SPLINE
  5
182
100
AcDbEntity
  8
Layer_1
 62
7
100
AcDbSpline
 70
8
 71
3
 72
8
 73
4
 74
0
 40
0
 40
0
 40
0
 40
0
 40
1
 40
1
 40
1
 40
1
 10
71.013374
 20
17.056447
 30
0.0
 10
71.293025
 20
18.422176
 30
0.0
 10
71.309189
 20
18.897665
 30
0.0
 10
71.309131
 20
25.756360
 30
0.0
  0
LWPOLYLINE
  5
183
100
AcDbEntity
  8
Layer_1
 62
7
100
AcDbPolyline
 90
1
 70
1
 10
70.294962
 20
5.328805
 30
0.0
  0
SPLINE
  5
184
100
AcDbEntity
  8
Layer_1
 62
7
100
AcDbSpline
 70
8
 71
3
 72
8
 73
4
 74
0
 40
0
 40
0
 40
0
 40
0
 40
1
 40
1
 40
1
 40
1
 10
70.604117
 20
33.011587
 30
0.0
 10
70.004317
 20
33.011587
 30
0.0
 10
69.836351
 20
33.074387
 30
0.0
 10
69.478158
 20
33.432584
 30
0.0
  0
SPLINE
  5
185
100
AcDbEntity
  8
Layer_1
 62
7
100
AcDbSpline
 70
8
 71
3
 72
8
 73
4
 74
0
 40
0
 40
0
 40
0
 40
0
 40
1
 40
1
 40
1
 40
1
 10
69.478158
 20
33.432584
 30
0.0
 10
69.122048
 20
33.788694
 30
0.0
 10
69.071446
 20
33.922453
 30
0.0
 10
69.149863
 20
34.300431
 30
0.0
  0
SPLINE
  5
186
100
AcDbEntity
  8
Layer_1
 62
7
100
AcDbSpline
 70
8
 71
3
 72
8
 73
4
 74
0
 40
0
 40
0
 40
0
 40
0
 40
1
 40
1
 40
1
 40
1
 10
69.149863
 20
34.300431
 30
0.0
 10
69.200873
 20
34.546200
 30
0.0
 10
69.232123
 20
34.872254
 30
0.0
 10
69.219373
 20
35.025000
 30
0.0
  0
SPLINE
  5
187
100
AcDbEntity
  8
Layer_1
 62
7
100
AcDbSpline
 70
8
 71
3
 72
8
 73
4
 74
0
 40
0
 40
0
 40
0
 40
0
 40
1
 40
1
 40
1
 40
1
 10
69.219373
 20
35.025000
 30
0.0
 10
69.107389
 20
36.365669
 30
0.0
 10
69.110595
 20
51.264571
 30
0.0
 10
69.223073
 20
51.872626
 30
0.0
  0
SPLINE
  5
188
100
AcDbEntity
  8
Layer_1
 62
7
100
AcDbSpline
 70
8
 71
3
 72
8
 73
4
 74
0
 40
0
 40
0
 40
0
 40
0
 40
1
 40
1
 40
1
 40
1
 10
69.223073
 20
51.872626
 30
0.0
 10
69.302403
 20
52.301769
 30
0.0
 10
69.522325
 20
52.839542
 30
0.0
 10
69.729657
 20
53.111372
 30
0.0
  0
SPLINE
  5
189
100
AcDbEntity
  8
Layer_1
 62
7
100
AcDbSpline
 70
8
 71
3
 72
8
 73
4
 74
0
 40
0
 40
0
 40
0
 40
0
 40
1
 40
1
 40
1
 40
1
 10
69.729657
 20
53.111372
 30
0.0
 10
70.281054
 20
53.834288
 30
0.0
 10
70.863845
 20
54.019294
 30
0.0
 10
72.380730
 20
53.952953
 30
0.0
  0
SPLINE
  5
18a
100
AcDbEntity
  8
Layer_1
 62
7
100
AcDbSpline
 70
8
 71
3
 72
8
 73
4
 74
0
 40
0
 40
0
 40
0
 40
0
 40
1
 40
1
 40
1
 40
1
 10
72.380730
 20
53.952953
 30
0.0
 10
73.761747
 20
53.892553
 30
0.0
 10
74.114797
 20
53.740562
 30
0.0
 10
74.702542
 20
52.953399
 30
0.0
  0
SPLINE
  5
18b
100
AcDbEntity
  8
Layer_1
 62
7
100
AcDbSpline
 70
8
 71
3
 72
8
 73
4
 74
0
 40
0
 40
0
 40
0
 40
0
 40
1
 40
1
 40
1
 40
1
 10
74.702542
 20
52.953399
 30
0.0
 10
74.985089
 20
52.574985
 30
0.0
 10
74.988516
 20
52.458026
 30
0.0
 10
74.964638
 20
44.005770
 30
0.0
  0
SPLINE
  5
18c
100
AcDbEntity
  8
Layer_1
 62
7
100
AcDbSpline
 70
8
 71
3
 72
8
 73
4
 74
0
 40
0
 40
0
 40
0
 40
0
 40
1
 40
1
 40
1
 40
1
 10
74.964638
 20
44.005770
 30
0.0
 10
74.951308
 20
39.295458
 30
0.0
 10
74.915308
 20
35.010410
 30
0.0
 10
74.884628
 20
34.483448
 30
0.0
  0
SPLINE
  5
18d
100
AcDbEntity
  8
Layer_1
 62
7
100
AcDbSpline
 70
8
 71
3
 72
8
 73
4
 74
0
 40
0
 40
0
 40
0
 40
0
 40
1
 40
1
 40
1
 40
1
 10
74.884628
 20
34.483448
 30
0.0
 10
74.814118
 20
33.273278
 30
0.0
 10
74.557393
 20
33.011587
 30
0.0
 10
73.440713
 20
33.011587
 30
0.0
  0
LWPOLYLINE
  5
18e
100
AcDbEntity
  8
Layer_1
 62
7
100
AcDbPolyline
 90
3
 70
0
 10
71.309131
 20
25.756360
 30
0.0
 10
71.309079
 20
33.011587
 30
0.0
 10
70.604117
 20
33.011587
 30
0.0
  0
SPLINE
  5
18f
100
AcDbEntity
  8
Layer_1
 62
7
100
AcDbSpline
 70
8
 71
3
 72
8
 73
4
 74
0
 40
0
 40
0
 40
0
 40
0
 40
1
 40
1
 40
1
 40
1
 10
72.766254
 20
24.923224
 30
0.0
 10
72.809814
 20
20.474624
 30
0.0
 10
72.857254
 20
16.022555
 30
0.0
 10
72.871673
 20
15.029735
 30
0.0
  0
SPLINE
  5
190
100
AcDbEntity
  8
Layer_1
 62
7
100
AcDbSpline
 70
8
 71
3
 72
8
 73
4
 74
0
 40
0
 40
0
 40
0
 40
0
 40
1
 40
1
 40
1
 40
1
 10
72.871673
 20
15.029735
 30
0.0
 10
72.886103
 20
14.036915
 30
0.0
 10
72.849993
 20
12.990287
 30
0.0
 10
72.791513
 20
12.703898
 30
0.0
  0
LWPOLYLINE
  5
191
100
AcDbEntity
  8
Layer_1
 62
7
100
AcDbPolyline
 90
3
 70
0
 10
73.440713
 20
33.011587
 30
0.0
 10
72.687064
 20
33.011587
 30
0.0
 10
72.766254
 20
24.923224
 30
0.0
  0
SPLINE
  5
192
100
AcDbEntity
  8
Layer_1
 62
7
100
AcDbSpline
 70
8
 71
3
 72
8
 73
4
 74
0
 40
0
 40
0
 40
0
 40
0
 40
1
 40
1
 40
1
 40
1
 10
71.950819
 20
12.183186
 30
0.0
 10
71.546967
 20
12.183186
 30
0.0
 10
71.174887
 20
12.224856
 30
0.0
 10
71.123975
 20
12.275756
 30
0.0
  0
LWPOLYLINE
  5
193
100
AcDbEntity
  8
Layer_1
 62
7
100
AcDbPolyline
 90
3
 70
0
 10
72.791513
 20
12.703898
 30
0.0
 10
72.685129
 20
12.183186
 30
0.0
 10
71.950819
 20
12.183186
 30
0.0
  0
SPLINE
  5
194
100
AcDbEntity
  8
Layer_1
 62
7
100
AcDbSpline
 70
8
 71
3
 72
8
 73
4
 74
0
 40
0
 40
0
 40
0
 40
0
 40
1
 40
1
 40
1
 40
1
 10
70.801233
 20
36.637154
 30
0.0
 10
70.987330
 20
36.721944
 30
0.0
 10
71.208968
 20
36.943585
 30
0.0
 10
71.293762
 20
37.129683
 30
0.0
  0
SPLINE
  5
195
100
AcDbEntity
  8
Layer_1
 62
7
100
AcDbSpline
 70
8
 71
3
 72
8
 73
4
 74
0
 40
0
 40
0
 40
0
 40
0
 40
1
 40
1
 40
1
 40
1
 10
71.293762
 20
37.129683
 30
0.0
 10
71.399390
 20
37.361518
 30
0.0
 10
71.447930
 20
39.419481
 30
0.0
 10
71.447930
 20
43.666365
 30
0.0
  0
SPLINE
  5
196
100
AcDbEntity
  8
Layer_1
 62
7
100
AcDbSpline
 70
8
 71
3
 72
8
 73
4
 74
0
 40
0
 40
0
 40
0
 40
0
 40
1
 40
1
 40
1
 40
1
 10
71.447930
 20
43.666365
 30
0.0
 10
71.447930
 20
49.839218
 30
0.0
 10
71.446930
 20
49.866010
 30
0.0
 10
71.146012
 20
50.186065
 30
0.0
  0
SPLINE
  5
197
100
AcDbEntity
  8
Layer_1
 62
7
100
AcDbSpline
 70
8
 71
3
 72
8
 73
4
 74
0
 40
0
 40
0
 40
0
 40
0
 40
1
 40
1
 40
1
 40
1
 10
71.146012
 20
50.186065
 30
0.0
 10
70.822068
 20
50.530886
 30
0.0
 10
70.473252
 20
50.590085
 30
0.0
 10
70.062053
 20
50.370021
 30
0.0
  0
SPLINE
  5
198
100
AcDbEntity
  8
Layer_1
 62
7
100
AcDbSpline
 70
8
 71
3
 72
8
 73
4
 74
0
 40
0
 40
0
 40
0
 40
0
 40
1
 40
1
 40
1
 40
1
 10
70.062053
 20
50.370021
 30
0.0
 10
69.584030
 20
50.114187
 30
0.0
 10
69.503944
 20
49.065417
 30
0.0
 10
69.503944
 20
43.061128
 30
0.0
  0
LWPOLYLINE
  5
199
100
AcDbEntity
  8
Layer_1
 62
7
100
AcDbPolyline
 90
1
 70
1
 10
71.123975
 20
12.275756
 30
0.0
  0
SPLINE
  5
19a
100
AcDbEntity
  8
Layer_1
 62
7
100
AcDbSpline
 70
8
 71
3
 72
8
 73
4
 74
0
 40
0
 40
0
 40
0
 40
0
 40
1
 40
1
 40
1
 40
1
 10
69.909832
 20
36.888874
 30
0.0
 10
70.373344
 20
36.425361
 30
0.0
 10
70.350531
 20
36.431801
 30
0.0
 10
70.801233
 20
36.637154
 30
0.0
  0
LWPOLYLINE
  5
19b
100
AcDbEntity
  8
Layer_1
 62
7
100
AcDbPolyline
 90
3
 70
0
 10
69.503944
 20
43.061128
 30
0.0
 10
69.503944
 20
37.294762
 30
0.0
 10
69.909832
 20
36.888874
 30
0.0
  0
LWPOLYLINE
  5
19c
100
AcDbEntity
  8
Layer_1
 62
7
100
AcDbPolyline
 90
1
 70
1
 10
70.801233
 20
36.637154
 30
0.0
  0
SPLINE
  5
19d
100
AcDbEntity
  8
Layer_1
 62
7
100
AcDbSpline
 70
8
 71
3
 72
8
 73
4
 74
0
 40
0
 40
0
 40
0
 40
0
 40
1
 40
1
 40
1
 40
1
 10
74.433333
 20
43.537902
 30
0.0
 10
74.433333
 20
49.621647
 30
0.0
 10
74.420843
 20
49.936471
 30
0.0
 10
74.168813
 20
50.215061
 30
0.0
  0
SPLINE
  5
19e
100
AcDbEntity
  8
Layer_1
 62
7
100
AcDbSpline
 70
8
 71
3
 72
8
 73
4
 74
0
 40
0
 40
0
 40
0
 40
0
 40
1
 40
1
 40
1
 40
1
 10
74.168813
 20
50.215061
 30
0.0
 10
73.840565
 20
50.577883
 30
0.0
 10
73.336485
 20
50.590867
 30
0.0
 10
72.991018
 20
50.245391
 30
0.0
  0
SPLINE
  5
19f
100
AcDbEntity
  8
Layer_1
 62
7
100
AcDbSpline
 70
8
 71
3
 72
8
 73
4
 74
0
 40
0
 40
0
 40
0
 40
0
 40
1
 40
1
 40
1
 40
1
 10
72.991018
 20
50.245391
 30
0.0
 10
72.761225
 20
50.015597
 30
0.0
 10
72.717152
 20
49.669574
 30
0.0
 10
72.632888
 20
47.433558
 30
0.0
  0
SPLINE
  5
1a0
100
AcDbEntity
  8
Layer_1
 62
7
100
AcDbSpline
 70
8
 71
3
 72
8
 73
4
 74
0
 40
0
 40
0
 40
0
 40
0
 40
1
 40
1
 40
1
 40
1
 10
72.632888
 20
47.433558
 30
0.0
 10
72.580038
 20
46.031171
 30
0.0
 10
72.557358
 20
43.144306
 30
0.0
 10
72.582508
 20
41.018295
 30
0.0
  0
LWPOLYLINE
  5
1a1
100
AcDbEntity
  8
Layer_1
 62
7
100
AcDbPolyline
 90
3
 70
0
 10
74.043735
 20
36.818050
 30
0.0
 10
74.433333
 20
37.153115
 30
0.0
 10
74.433333
 20
43.537902
 30
0.0
  0
SPLINE
  5
1a2
100
AcDbEntity
  8
Layer_1
 62
7
100
AcDbSpline
 70
8
 71
3
 72
8
 73
4
 74
0
 40
0
 40
0
 40
0
 40
0
 40
1
 40
1
 40
1
 40
1
 10
73.017816
 20
36.817905
 30
0.0
 10
73.500479
 20
36.402969
 30
0.0
 10
73.561131
 20
36.402979
 30
0.0
 10
74.043747
 20
36.818041
 30
0.0
  0
LWPOLYLINE
  5
1a3
100
AcDbEntity
  8
Layer_1
 62
7
100
AcDbPolyline
 90
3
 70
0
 10
72.582508
 20
41.018295
 30
0.0
 10
72.628218
 20
37.152828
 30
0.0
 10
73.017816
 20
36.817905
 30
0.0
  0
SPLINE
  5
1a4
100
AcDbEntity
  8
Layer_1
 62
7
100
AcDbSpline
 70
8
 71
3
 72
8
 73
4
 74
0
 40
0
 40
0
 40
0
 40
0
 40
1
 40
1
 40
1
 40
1
 10
10.990997
 20
19.067936
 30
0.0
 10
10.811208
 20
19.536460
 30
0.0
 10
10.929267
 20
19.789402
 30
0.0
 10
11.528592
 20
20.219810
 30
0.0
  0
SPLINE
  5
1a5
100
AcDbEntity
  8
Layer_1
 62
7
100
AcDbSpline
 70
8
 71
3
 72
8
 73
4
 74
0
 40
0
 40
0
 40
0
 40
0
 40
1
 40
1
 40
1
 40
1
 10
11.528592
 20
20.219810
 30
0.0
 10
13.914074
 20
21.932932
 30
0.0
 10
17.066073
 20
21.989511
 30
0.0
 10
19.501890
 20
20.362936
 30
0.0
  0
SPLINE
  5
1a6
100
AcDbEntity
  8
Layer_1
 62
7
100
AcDbSpline
 70
8
 71
3
 72
8
 73
4
 74
0
 40
0
 40
0
 40
0
 40
0
 40
1
 40
1
 40
1
 40
1
 10
19.501890
 20
20.362936
 30
0.0
 10
20.393694
 20
19.767413
 30
0.0
 10
20.581897
 20
19.353364
 30
0.0
 10
20.130906
 20
18.979075
 30
0.0
  0
SPLINE
  5
1a7
100
AcDbEntity
  8
Layer_1
 62
7
100
AcDbSpline
 70
8
 71
3
 72
8
 73
4
 74
0
 40
0
 40
0
 40
0
 40
0
 40
1
 40
1
 40
1
 40
1
 10
20.130906
 20
18.979075
 30
0.0
 10
19.946551
 20
18.826072
 30
0.0
 10
19.716117
 20
18.898565
 30
0.0
 10
18.638205
 20
19.448659
 30
0.0
  0
SPLINE
  5
1a8
100
AcDbEntity
  8
Layer_1
 62
7
100
AcDbSpline
 70
8
 71
3
 72
8
 73
4
 74
0
 40
0
 40
0
 40
0
 40
0
 40
1
 40
1
 40
1
 40
1
 10
18.638205
 20
19.448659
 30
0.0
 10
17.937127
 20
19.806443
 30
0.0
 10
17.027195
 20
20.168347
 30
0.0
 10
16.616138
 20
20.252894
 30
0.0
  0
SPLINE
  5
1a9
100
AcDbEntity
  8
Layer_1
 62
7
100
AcDbSpline
 70
8
 71
3
 72
8
 73
4
 74
0
 40
0
 40
0
 40
0
 40
0
 40
1
 40
1
 40
1
 40
1
 10
16.616138
 20
20.252894
 30
0.0
 10
15.297054
 20
20.524200
 30
0.0
 10
13.650058
 20
20.157684
 30
0.0
 10
12.436235
 20
19.322721
 30
0.0
  0
SPLINE
  5
1aa
100
AcDbEntity
  8
Layer_1
 62
7
100
AcDbSpline
 70
8
 71
3
 72
8
 73
4
 74
0
 40
0
 40
0
 40
0
 40
0
 40
1
 40
1
 40
1
 40
1
 10
12.436235
 20
19.322721
 30
0.0
 10
11.696289
 20
18.813728
 30
0.0
 10
11.127054
 20
18.713374
 30
0.0
 10
10.990997
 20
19.067936
 30
0.0
  0
LWPOLYLINE
  5
1ab
100
AcDbEntity
  8
Layer_1
 62
7
100
AcDbPolyline
 90
1
 70
1
 10
74.043747
 20
36.818041
 30
0.0
  0
SPLINE
  5
1ac
100
AcDbEntity
  8
Layer_1
 62
7
100
AcDbSpline
 70
8
 71
3
 72
8
 73
4
 74
0
 40
0
 40
0
 40
0
 40
0
 40
1
 40
1
 40
1
 40
1
 10
9.254212
 20
20.826994
 30
0.0
 10
9.088749
 20
21.272122
 30
0.0
 10
9.178642
 20
21.416083
 30
0.0
 10
9.983047
 20
21.994219
 30
0.0
  0
SPLINE
  5
1ad
100
AcDbEntity
  8
Layer_1
 62
7
100
AcDbSpline
 70
8
 71
3
 72
8
 73
4
 74
0
 40
0
 40
0
 40
0
 40
0
 40
1
 40
1
 40
1
 40
1
 10
9.983047
 20
21.994219
 30
0.0
 10
10.859674
 20
22.624264
 30
0.0
 10
12.382914
 20
23.331802
 30
0.0
 10
13.406121
 20
23.584231
 30
0.0
  0
SPLINE
  5
1ae
100
AcDbEntity
  8
Layer_1
 62
7
100
AcDbSpline
 70
8
 71
3
 72
8
 73
4
 74
0
 40
0
 40
0
 40
0
 40
0
 40
1
 40
1
 40
1
 40
1
 10
13.406121
 20
23.584231
 30
0.0
 10
14.396584
 20
23.828577
 30
0.0
 10
16.874087
 20
23.826100
 30
0.0
 10
17.849515
 20
23.580031
 30
0.0
  0
SPLINE
  5
1af
100
AcDbEntity
  8
Layer_1
 62
7
100
AcDbSpline
 70
8
 71
3
 72
8
 73
4
 74
0
 40
0
 40
0
 40
0
 40
0
 40
1
 40
1
 40
1
 40
1
 10
17.849515
 20
23.580031
 30
0.0
 10
19.607440
 20
23.136121
 30
0.0
 10
22.015195
 20
21.738656
 30
0.0
 10
22.015195
 20
21.162263
 30
0.0
  0
SPLINE
  5
1b0
100
AcDbEntity
  8
Layer_1
 62
7
100
AcDbSpline
 70
8
 71
3
 72
8
 73
4
 74
0
 40
0
 40
0
 40
0
 40
0
 40
1
 40
1
 40
1
 40
1
 10
22.015195
 20
21.162263
 30
0.0
 10
22.015195
 20
20.419305
 30
0.0
 10
21.349080
 20
20.314841
 30
0.0
 10
20.591810
 20
20.939045
 30
0.0
  0
SPLINE
  5
1b1
100
AcDbEntity
  8
Layer_1
 62
7
100
AcDbSpline
 70
8
 71
3
 72
8
 73
4
 74
0
 40
0
 40
0
 40
0
 40
0
 40
1
 40
1
 40
1
 40
1
 10
20.591810
 20
20.939045
 30
0.0
 10
19.937267
 20
21.478576
 30
0.0
 10
18.275729
 20
22.242868
 30
0.0
 10
17.321970
 20
22.443140
 30
0.0
  0
SPLINE
  5
1b2
100
AcDbEntity
  8
Layer_1
 62
7
100
AcDbSpline
 70
8
 71
3
 72
8
 73
4
 74
0
 40
0
 40
0
 40
0
 40
0
 40
1
 40
1
 40
1
 40
1
 10
17.321970
 20
22.443140
 30
0.0
 10
15.062332
 20
22.917632
 30
0.0
 10
12.534862
 20
22.329603
 30
0.0
 10
10.504325
 20
20.856991
 30
0.0
  0
SPLINE
  5
1b3
100
AcDbEntity
  8
Layer_1
 62
7
100
AcDbSpline
 70
8
 71
3
 72
8
 73
4
 74
0
 40
0
 40
0
 40
0
 40
0
 40
1
 40
1
 40
1
 40
1
 10
10.504325
 20
20.856991
 30
0.0
 10
9.904037
 20
20.421640
 30
0.0
 10
9.409361
 20
20.409869
 30
0.0
 10
9.254212
 20
20.827231
 30
0.0
  0
LWPOLYLINE
  5
1b4
100
AcDbEntity
  8
Layer_1
 62
7
100
AcDbPolyline
 90
1
 70
1
 10
10.990997
 20
19.067936
 30
0.0
  0
SPLINE
  5
1b5
100
AcDbEntity
  8
Layer_1
 62
7
100
AcDbSpline
 70
8
 71
3
 72
8
 73
4
 74
0
 40
0
 40
0
 40
0
 40
0
 40
1
 40
1
 40
1
 40
1
 10
39.463143
 20
22.018203
 30
0.0
 10
39.297901
 20
22.200789
 30
0.0
 10
39.233339
 20
22.531026
 30
0.0
 10
39.233339
 20
23.193594
 30
0.0
  0
SPLINE
  5
1b6
100
AcDbEntity
  8
Layer_1
 62
7
100
AcDbSpline
 70
8
 71
3
 72
8
 73
4
 74
0
 40
0
 40
0
 40
0
 40
0
 40
1
 40
1
 40
1
 40
1
 10
39.233339
 20
23.193594
 30
0.0
 10
39.233339
 20
24.294456
 30
0.0
 10
39.111620
 20
24.402536
 30
0.0
 10
37.871835
 20
24.402536
 30
0.0
  0
LWPOLYLINE
  5
1b7
100
AcDbEntity
  8
Layer_1
 62
7
100
AcDbPolyline
 90
2
 70
0
 10
9.254212
 20
20.827231
 30
0.0
 10
9.254212
 20
20.826994
 30
0.0
  0
SPLINE
  5
1b8
100
AcDbEntity
  8
Layer_1
 62
7
100
AcDbSpline
 70
8
 71
3
 72
8
 73
4
 74
0
 40
0
 40
0
 40
0
 40
0
 40
1
 40
1
 40
1
 40
1
 10
36.950579
 20
25.513616
 30
0.0
 10
36.837624
 20
26.808522
 30
0.0
 10
36.744659
 20
26.901944
 30
0.0
 10
35.569074
 20
26.901944
 30
0.0
  0
SPLINE
  5
1b9
100
AcDbEntity
  8
Layer_1
 62
7
100
AcDbSpline
 70
8
 71
3
 72
8
 73
4
 74
0
 40
0
 40
0
 40
0
 40
0
 40
1
 40
1
 40
1
 40
1
 10
35.569074
 20
26.901944
 30
0.0
 10
34.812324
 20
26.901944
 30
0.0
 10
34.801565
 20
26.907744
 30
0.0
 10
34.727000
 20
27.353228
 30
0.0
  0
SPLINE
  5
1ba
100
AcDbEntity
  8
Layer_1
 62
7
100
AcDbSpline
 70
8
 71
3
 72
8
 73
4
 74
0
 40
0
 40
0
 40
0
 40
0
 40
1
 40
1
 40
1
 40
1
 10
34.727000
 20
27.353228
 30
0.0
 10
34.685440
 20
27.601432
 30
0.0
 10
34.635770
 20
28.116738
 30
0.0
 10
34.616570
 20
28.498358
 30
0.0
  0
LWPOLYLINE
  5
1bb
100
AcDbEntity
  8
Layer_1
 62
7
100
AcDbPolyline
 90
3
 70
0
 10
37.871835
 20
24.402536
 30
0.0
 10
37.047499
 20
24.402536
 30
0.0
 10
36.950579
 20
25.513616
 30
0.0
  0
SPLINE
  5
1bc
100
AcDbEntity
  8
Layer_1
 62
7
100
AcDbSpline
 70
8
 71
3
 72
8
 73
4
 74
0
 40
0
 40
0
 40
0
 40
0
 40
1
 40
1
 40
1
 40
1
 10
33.735912
 20
29.342872
 30
0.0
 10
32.451886
 20
29.571616
 30
0.0
 10
32.477943
 20
29.548026
 30
0.0
 10
32.397101
 20
30.555110
 30
0.0
  0
SPLINE
  5
1bd
100
AcDbEntity
  8
Layer_1
 62
7
100
AcDbSpline
 70
8
 71
3
 72
8
 73
4
 74
0
 40
0
 40
0
 40
0
 40
0
 40
1
 40
1
 40
1
 40
1
 10
32.397101
 20
30.555110
 30
0.0
 10
32.357371
 20
31.050164
 30
0.0
 10
32.286135
 20
31.517843
 30
0.0
 10
32.238818
 20
31.594408
 30
0.0
  0
SPLINE
  5
1be
100
AcDbEntity
  8
Layer_1
 62
7
100
AcDbSpline
 70
8
 71
3
 72
8
 73
4
 74
0
 40
0
 40
0
 40
0
 40
0
 40
1
 40
1
 40
1
 40
1
 10
32.238818
 20
31.594408
 30
0.0
 10
32.191478
 20
31.670968
 30
0.0
 10
31.718065
 20
31.777267
 30
0.0
 10
31.186736
 20
31.830625
 30
0.0
  0
LWPOLYLINE
  5
1bf
100
AcDbEntity
  8
Layer_1
 62
7
100
AcDbPolyline
 90
3
 70
0
 10
34.616570
 20
28.498358
 30
0.0
 10
34.581670
 20
29.192205
 30
0.0
 10
33.735912
 20
29.342872
 30
0.0
  0
SPLINE
  5
1c0
100
AcDbEntity
  8
Layer_1
 62
7
100
AcDbSpline
 70
8
 71
3
 72
8
 73
4
 74
0
 40
0
 40
0
 40
0
 40
0
 40
1
 40
1
 40
1
 40
1
 10
30.137192
 20
32.573770
 30
0.0
 10
29.982446
 20
33.771172
 30
0.0
 10
29.963763
 20
33.807509
 30
0.0
 10
29.453663
 20
33.903203
 30
0.0
  0
SPLINE
  5
1c1
100
AcDbEntity
  8
Layer_1
 62
7
100
AcDbSpline
 70
8
 71
3
 72
8
 73
4
 74
0
 40
0
 40
0
 40
0
 40
0
 40
1
 40
1
 40
1
 40
1
 10
29.453663
 20
33.903203
 30
0.0
 10
29.169599
 20
33.956493
 30
0.0
 10
28.833999
 20
34.160313
 30
0.0
 10
28.628830
 20
34.404145
 30
0.0
  0
SPLINE
  5
1c2
100
AcDbEntity
  8
Layer_1
 62
7
100
AcDbSpline
 70
8
 71
3
 72
8
 73
4
 74
0
 40
0
 40
0
 40
0
 40
0
 40
1
 40
1
 40
1
 40
1
 10
28.628830
 20
34.404145
 30
0.0
 10
28.274604
 20
34.825116
 30
0.0
 10
28.047797
 20
35.341382
 30
0.0
 10
28.165412
 20
35.458992
 30
0.0
  0
SPLINE
  5
1c3
100
AcDbEntity
  8
Layer_1
 62
7
100
AcDbSpline
 70
8
 71
3
 72
8
 73
4
 74
0
 40
0
 40
0
 40
0
 40
0
 40
1
 40
1
 40
1
 40
1
 10
28.165412
 20
35.458992
 30
0.0
 10
28.201672
 20
35.495262
 30
0.0
 10
28.629134
 20
35.390152
 30
0.0
 10
29.115365
 20
35.225468
 30
0.0
  0
SPLINE
  5
1c4
100
AcDbEntity
  8
Layer_1
 62
7
100
AcDbSpline
 70
8
 71
3
 72
8
 73
4
 74
0
 40
0
 40
0
 40
0
 40
0
 40
1
 40
1
 40
1
 40
1
 10
29.115365
 20
35.225468
 30
0.0
 10
30.749503
 20
34.672003
 30
0.0
 10
32.343299
 20
35.079864
 30
0.0
 10
34.013581
 20
36.478945
 30
0.0
  0
SPLINE
  5
1c5
100
AcDbEntity
  8
Layer_1
 62
7
100
AcDbSpline
 70
8
 71
3
 72
8
 73
4
 74
0
 40
0
 40
0
 40
0
 40
0
 40
1
 40
1
 40
1
 40
1
 10
34.013581
 20
36.478945
 30
0.0
 10
34.388468
 20
36.792965
 30
0.0
 10
34.743293
 20
37.000444
 30
0.0
 10
34.802082
 20
36.940017
 30
0.0
  0
SPLINE
  5
1c6
100
AcDbEntity
  8
Layer_1
 62
7
100
AcDbSpline
 70
8
 71
3
 72
8
 73
4
 74
0
 40
0
 40
0
 40
0
 40
0
 40
1
 40
1
 40
1
 40
1
 10
34.802082
 20
36.940017
 30
0.0
 10
34.860872
 20
36.879587
 30
0.0
 10
35.593154
 20
35.611691
 30
0.0
 10
36.429382
 20
34.122459
 30
0.0
  0
SPLINE
  5
1c7
100
AcDbEntity
  8
Layer_1
 62
7
100
AcDbSpline
 70
8
 71
3
 72
8
 73
4
 74
0
 40
0
 40
0
 40
0
 40
0
 40
1
 40
1
 40
1
 40
1
 10
36.429382
 20
34.122459
 30
0.0
 10
37.265603
 20
32.633231
 30
0.0
 10
38.269828
 20
30.863094
 30
0.0
 10
38.660995
 20
30.188828
 30
0.0
  0
SPLINE
  5
1c8
100
AcDbEntity
  8
Layer_1
 62
7
100
AcDbSpline
 70
8
 71
3
 72
8
 73
4
 74
0
 40
0
 40
0
 40
0
 40
0
 40
1
 40
1
 40
1
 40
1
 10
38.660995
 20
30.188828
 30
0.0
 10
39.052157
 20
29.514558
 30
0.0
 10
39.372202
 20
28.938962
 30
0.0
 10
39.372202
 20
28.909724
 30
0.0
  0
SPLINE
  5
1c9
100
AcDbEntity
  8
Layer_1
 62
7
100
AcDbSpline
 70
8
 71
3
 72
8
 73
4
 74
0
 40
0
 40
0
 40
0
 40
0
 40
1
 40
1
 40
1
 40
1
 10
39.372202
 20
28.909724
 30
0.0
 10
39.372202
 20
28.880494
 30
0.0
 10
40.090557
 20
27.605146
 30
0.0
 10
40.968543
 20
26.075640
 30
0.0
  0
SPLINE
  5
1ca
100
AcDbEntity
  8
Layer_1
 62
7
100
AcDbSpline
 70
8
 71
3
 72
8
 73
4
 74
0
 40
0
 40
0
 40
0
 40
0
 40
1
 40
1
 40
1
 40
1
 10
40.968543
 20
26.075640
 30
0.0
 10
41.846530
 20
24.546128
 30
0.0
 10
42.580734
 20
23.224420
 30
0.0
 10
42.600099
 20
23.138503
 30
0.0
  0
SPLINE
  5
1cb
100
AcDbEntity
  8
Layer_1
 62
7
100
AcDbSpline
 70
8
 71
3
 72
8
 73
4
 74
0
 40
0
 40
0
 40
0
 40
0
 40
1
 40
1
 40
1
 40
1
 10
42.600099
 20
23.138503
 30
0.0
 10
42.642709
 20
22.949519
 30
0.0
 10
40.394259
 20
21.770806
 30
0.0
 10
39.983863
 20
21.766985
 30
0.0
  0
SPLINE
  5
1cc
100
AcDbEntity
  8
Layer_1
 62
7
100
AcDbSpline
 70
8
 71
3
 72
8
 73
4
 74
0
 40
0
 40
0
 40
0
 40
0
 40
1
 40
1
 40
1
 40
1
 10
39.983863
 20
21.766985
 30
0.0
 10
39.823864
 20
21.765385
 30
0.0
 10
39.589542
 20
21.878544
 30
0.0
 10
39.463152
 20
22.018207
 30
0.0
  0
LWPOLYLINE
  5
1cd
100
AcDbEntity
  8
Layer_1
 62
7
100
AcDbPolyline
 90
3
 70
0
 10
31.186736
 20
31.830625
 30
0.0
 10
30.220692
 20
31.927645
 30
0.0
 10
30.137192
 20
32.573770
 30
0.0
  0
SPLINE
  5
1ce
100
AcDbEntity
  8
Layer_1
 62
7
100
AcDbSpline
 70
8
 71
3
 72
8
 73
4
 74
0
 40
0
 40
0
 40
0
 40
0
 40
1
 40
1
 40
1
 40
1
 10
2.095403
 20
22.483798
 30
0.0
 10
1.182275
 20
22.552368
 30
0.0
 10
0.419558
 20
22.624080
 30
0.0
 10
0.400471
 20
22.643168
 30
0.0
  0
SPLINE
  5
1cf
100
AcDbEntity
  8
Layer_1
 62
7
100
AcDbSpline
 70
8
 71
3
 72
8
 73
4
 74
0
 40
0
 40
0
 40
0
 40
0
 40
1
 40
1
 40
1
 40
1
 10
0.400471
 20
22.643168
 30
0.0
 10
0.310751
 20
22.732888
 30
0.0
 10
0.183079
 20
39.533487
 30
0.0
 10
0.268644
 20
39.989594
 30
0.0
  0
LWPOLYLINE
  5
1d0
100
AcDbEntity
  8
Layer_1
 62
7
100
AcDbPolyline
 90
1
 70
1
 10
39.463152
 20
22.018207
 30
0.0
  0
SPLINE
  5
1d1
100
AcDbEntity
  8
Layer_1
 62
7
100
AcDbSpline
 70
8
 71
3
 72
8
 73
4
 74
0
 40
0
 40
0
 40
0
 40
0
 40
1
 40
1
 40
1
 40
1
 10
3.686203
 20
37.802139
 30
0.0
 10
3.686203
 20
36.312912
 30
0.0
 10
3.719423
 20
35.094450
 30
0.0
 10
3.760013
 20
35.094450
 30
0.0
  0
SPLINE
  5
1d2
100
AcDbEntity
  8
Layer_1
 62
7
100
AcDbSpline
 70
8
 71
3
 72
8
 73
4
 74
0
 40
0
 40
0
 40
0
 40
0
 40
1
 40
1
 40
1
 40
1
 10
3.760013
 20
35.094450
 30
0.0
 10
3.800583
 20
35.094450
 30
0.0
 10
4.215092
 20
35.222892
 30
0.0
 10
4.681097
 20
35.379873
 30
0.0
  0
SPLINE
  5
1d3
100
AcDbEntity
  8
Layer_1
 62
7
100
AcDbSpline
 70
8
 71
3
 72
8
 73
4
 74
0
 40
0
 40
0
 40
0
 40
0
 40
1
 40
1
 40
1
 40
1
 10
4.681097
 20
35.379873
 30
0.0
 10
5.639222
 20
35.702647
 30
0.0
 10
7.198039
 20
35.759852
 30
0.0
 10
8.155539
 20
35.507381
 30
0.0
  0
SPLINE
  5
1d4
100
AcDbEntity
  8
Layer_1
 62
7
100
AcDbSpline
 70
8
 71
3
 72
8
 73
4
 74
0
 40
0
 40
0
 40
0
 40
0
 40
1
 40
1
 40
1
 40
1
 10
8.155539
 20
35.507381
 30
0.0
 10
8.861886
 20
35.321137
 30
0.0
 10
9.895999
 20
34.745955
 30
0.0
 10
10.253604
 20
34.340424
 30
0.0
  0
SPLINE
  5
1d5
100
AcDbEntity
  8
Layer_1
 62
7
100
AcDbSpline
 70
8
 71
3
 72
8
 73
4
 74
0
 40
0
 40
0
 40
0
 40
0
 40
1
 40
1
 40
1
 40
1
 10
10.253604
 20
34.340424
 30
0.0
 10
11.965278
 20
32.399351
 30
0.0
 10
12.084782
 20
26.233315
 30
0.0
 10
10.451872
 20
24.110442
 30
0.0
  0
SPLINE
  5
1d6
100
AcDbEntity
  8
Layer_1
 62
7
100
AcDbSpline
 70
8
 71
3
 72
8
 73
4
 74
0
 40
0
 40
0
 40
0
 40
0
 40
1
 40
1
 40
1
 40
1
 10
10.451872
 20
24.110442
 30
0.0
 10
9.238642
 20
22.533173
 30
0.0
 10
7.067130
 20
22.110475
 30
0.0
 10
2.095405
 20
22.483798
 30
0.0
  0
LWPOLYLINE
  5
1d7
100
AcDbEntity
  8
Layer_1
 62
7
100
AcDbPolyline
 90
5
 70
0
 10
0.268644
 20
39.989594
 30
0.0
 10
0.366244
 20
40.509833
 30
0.0
 10
2.026223
 20
40.509833
 30
0.0
 10
3.686203
 20
40.509833
 30
0.0
 10
3.686203
 20
37.802139
 30
0.0
  0
SPLINE
  5
1d8
100
AcDbEntity
  8
Layer_1
 62
7
100
AcDbSpline
 70
8
 71
3
 72
8
 73
4
 74
0
 40
0
 40
0
 40
0
 40
0
 40
1
 40
1
 40
1
 40
1
 10
6.507229
 20
25.575707
 30
0.0
 10
7.178713
 20
25.815188
 30
0.0
 10
7.529155
 20
26.133302
 30
0.0
 10
7.891752
 20
26.832517
 30
0.0
  0
SPLINE
  5
1d9
100
AcDbEntity
  8
Layer_1
 62
7
100
AcDbSpline
 70
8
 71
3
 72
8
 73
4
 74
0
 40
0
 40
0
 40
0
 40
0
 40
1
 40
1
 40
1
 40
1
 10
7.891752
 20
26.832517
 30
0.0
 10
8.129402
 20
27.290791
 30
0.0
 10
8.178435
 20
27.632338
 30
0.0
 10
8.172095
 20
28.785225
 30
0.0
  0
SPLINE
  5
1da
100
AcDbEntity
  8
Layer_1
 62
7
100
AcDbSpline
 70
8
 71
3
 72
8
 73
4
 74
0
 40
0
 40
0
 40
0
 40
0
 40
1
 40
1
 40
1
 40
1
 10
8.172095
 20
28.785225
 30
0.0
 10
8.153465
 20
32.174417
 30
0.0
 10
7.101608
 20
33.159302
 30
0.0
 10
4.276340
 20
32.432954
 30
0.0
  0
LWPOLYLINE
  5
1db
100
AcDbEntity
  8
Layer_1
 62
7
100
AcDbPolyline
 90
1
 70
1
 10
2.095405
 20
22.483798
 30
0.0
  0
SPLINE
  5
1dc
100
AcDbEntity
  8
Layer_1
 62
7
100
AcDbSpline
 70
8
 71
3
 72
8
 73
4
 74
0
 40
0
 40
0
 40
0
 40
0
 40
1
 40
1
 40
1
 40
1
 10
3.686202
 20
28.907490
 30
0.0
 10
3.686202
 20
25.811163
 30
0.0
 10
3.706202
 20
25.528526
 30
0.0
 10
3.929200
 20
25.470246
 30
0.0
  0
SPLINE
  5
1dd
100
AcDbEntity
  8
Layer_1
 62
7
100
AcDbSpline
 70
8
 71
3
 72
8
 73
4
 74
0
 40
0
 40
0
 40
0
 40
0
 40
1
 40
1
 40
1
 40
1
 10
3.929200
 20
25.470246
 30
0.0
 10
4.453842
 20
25.333145
 30
0.0
 10
6.005023
 20
25.396596
 30
0.0
 10
6.507229
 20
25.575707
 30
0.0
  0
LWPOLYLINE
  5
1de
100
AcDbEntity
  8
Layer_1
 62
7
100
AcDbPolyline
 90
3
 70
0
 10
4.276340
 20
32.432954
 30
0.0
 10
3.686202
 20
32.281237
 30
0.0
 10
3.686202
 20
28.907490
 30
0.0
  0
SPLINE
  5
1df
100
AcDbEntity
  8
Layer_1
 62
7
100
AcDbSpline
 70
8
 71
3
 72
8
 73
4
 74
0
 40
0
 40
0
 40
0
 40
0
 40
1
 40
1
 40
1
 40
1
 10
26.747355
 20
22.535125
 30
0.0
 10
24.912892
 20
22.932983
 30
0.0
 10
23.729073
 20
24.338210
 30
0.0
 10
23.326512
 20
26.595764
 30
0.0
  0
SPLINE
  5
1e0
100
AcDbEntity
  8
Layer_1
 62
7
100
AcDbSpline
 70
8
 71
3
 72
8
 73
4
 74
0
 40
0
 40
0
 40
0
 40
0
 40
1
 40
1
 40
1
 40
1
 10
23.326512
 20
26.595764
 30
0.0
 10
22.800605
 20
29.545014
 30
0.0
 10
23.374532
 20
32.611689
 30
0.0
 10
24.733958
 20
34.116424
 30
0.0
  0
SPLINE
  5
1e1
100
AcDbEntity
  8
Layer_1
 62
7
100
AcDbSpline
 70
8
 71
3
 72
8
 73
4
 74
0
 40
0
 40
0
 40
0
 40
0
 40
1
 40
1
 40
1
 40
1
 10
24.733958
 20
34.116424
 30
0.0
 10
25.229531
 20
34.664972
 30
0.0
 10
26.638074
 20
35.511018
 30
0.0
 10
27.055744
 20
35.511018
 30
0.0
  0
SPLINE
  5
1e2
100
AcDbEntity
  8
Layer_1
 62
7
100
AcDbSpline
 70
8
 71
3
 72
8
 73
4
 74
0
 40
0
 40
0
 40
0
 40
0
 40
1
 40
1
 40
1
 40
1
 10
27.055744
 20
35.511018
 30
0.0
 10
27.159420
 20
35.511018
 30
0.0
 10
27.393239
 20
35.192925
 30
0.0
 10
27.575332
 20
34.804146
 30
0.0
  0
SPLINE
  5
1e3
100
AcDbEntity
  8
Layer_1
 62
7
100
AcDbSpline
 70
8
 71
3
 72
8
 73
4
 74
0
 40
0
 40
0
 40
0
 40
0
 40
1
 40
1
 40
1
 40
1
 10
27.575332
 20
34.804146
 30
0.0
 10
27.932665
 20
34.041219
 30
0.0
 10
28.390898
 20
33.581737
 30
0.0
 10
29.078404
 20
33.296960
 30
0.0
  0
SPLINE
  5
1e4
100
AcDbEntity
  8
Layer_1
 62
7
100
AcDbSpline
 70
8
 71
3
 72
8
 73
4
 74
0
 40
0
 40
0
 40
0
 40
0
 40
1
 40
1
 40
1
 40
1
 10
29.078404
 20
33.296960
 30
0.0
 10
29.725658
 20
33.028860
 30
0.0
 10
29.607103
 20
32.872750
 30
0.0
 10
28.756244
 20
32.872750
 30
0.0
  0
SPLINE
  5
1e5
100
AcDbEntity
  8
Layer_1
 62
7
100
AcDbSpline
 70
8
 71
3
 72
8
 73
4
 74
0
 40
0
 40
0
 40
0
 40
0
 40
1
 40
1
 40
1
 40
1
 10
28.756244
 20
32.872750
 30
0.0
 10
28.339797
 20
32.872750
 30
0.0
 10
27.838383
 20
32.799540
 30
0.0
 10
27.641983
 20
32.710054
 30
0.0
  0
SPLINE
  5
1e6
100
AcDbEntity
  8
Layer_1
 62
7
100
AcDbSpline
 70
8
 71
3
 72
8
 73
4
 74
0
 40
0
 40
0
 40
0
 40
0
 40
1
 40
1
 40
1
 40
1
 10
27.641983
 20
32.710054
 30
0.0
 10
27.096244
 20
32.461399
 30
0.0
 10
26.706766
 20
31.718808
 30
0.0
 10
26.685386
 20
30.886171
 30
0.0
  0
LWPOLYLINE
  5
1e7
100
AcDbEntity
  8
Layer_1
 62
7
100
AcDbPolyline
 90
1
 70
1
 10
6.507229
 20
25.575707
 30
0.0
  0
SPLINE
  5
1e8
100
AcDbEntity
  8
Layer_1
 62
7
100
AcDbSpline
 70
8
 71
3
 72
8
 73
4
 74
0
 40
0
 40
0
 40
0
 40
0
 40
1
 40
1
 40
1
 40
1
 10
30.901963
 20
30.647479
 30
0.0
 10
30.901963
 20
31.176062
 30
0.0
 10
30.924633
 20
31.206517
 30
0.0
 10
31.318531
 20
31.206517
 30
0.0
  0
SPLINE
  5
1e9
100
AcDbEntity
  8
Layer_1
 62
7
100
AcDbSpline
 70
8
 71
3
 72
8
 73
4
 74
0
 40
0
 40
0
 40
0
 40
0
 40
1
 40
1
 40
1
 40
1
 10
31.318531
 20
31.206517
 30
0.0
 10
31.691561
 20
31.206517
 30
0.0
 10
31.737330
 20
31.159337
 30
0.0
 10
31.756438
 20
30.755238
 30
0.0
  0
SPLINE
  5
1ea
100
AcDbEntity
  8
Layer_1
 62
7
100
AcDbSpline
 70
8
 71
3
 72
8
 73
4
 74
0
 40
0
 40
0
 40
0
 40
0
 40
1
 40
1
 40
1
 40
1
 10
31.756438
 20
30.755238
 30
0.0
 10
31.768198
 20
30.507034
 30
0.0
 10
31.792438
 20
30.147744
 30
0.0
 10
31.810378
 20
29.956813
 30
0.0
  0
SPLINE
  5
1eb
100
AcDbEntity
  8
Layer_1
 62
7
100
AcDbSpline
 70
8
 71
3
 72
8
 73
4
 74
0
 40
0
 40
0
 40
0
 40
0
 40
1
 40
1
 40
1
 40
1
 10
31.810378
 20
29.956813
 30
0.0
 10
31.828328
 20
29.765887
 30
0.0
 10
31.849948
 20
29.477021
 30
0.0
 10
31.858448
 20
29.314892
 30
0.0
  0
SPLINE
  5
1ec
100
AcDbEntity
  8
Layer_1
 62
7
100
AcDbSpline
 70
8
 71
3
 72
8
 73
4
 74
0
 40
0
 40
0
 40
0
 40
0
 40
1
 40
1
 40
1
 40
1
 10
31.858448
 20
29.314892
 30
0.0
 10
31.871728
 20
29.061923
 30
0.0
 10
32.016746
 20
28.992978
 30
0.0
 10
32.880636
 20
28.828891
 30
0.0
  0
LWPOLYLINE
  5
1ed
100
AcDbEntity
  8
Layer_1
 62
7
100
AcDbPolyline
 90
5
 70
0
 10
26.685386
 20
30.886171
 30
0.0
 10
26.666856
 20
30.165061
 30
0.0
 10
28.784412
 20
30.126751
 30
0.0
 10
30.901963
 20
30.088441
 30
0.0
 10
30.901963
 20
30.647479
 30
0.0
  0
SPLINE
  5
1ee
100
AcDbEntity
  8
Layer_1
 62
7
100
AcDbSpline
 70
8
 71
3
 72
8
 73
4
 74
0
 40
0
 40
0
 40
0
 40
0
 40
1
 40
1
 40
1
 40
1
 10
30.350528
 20
27.596264
 30
0.0
 10
26.287432
 20
27.596264
 30
0.0
 10
26.426905
 20
27.635254
 30
0.0
 10
26.757032
 20
26.591967
 30
0.0
  0
SPLINE
  5
1ef
100
AcDbEntity
  8
Layer_1
 62
7
100
AcDbSpline
 70
8
 71
3
 72
8
 73
4
 74
0
 40
0
 40
0
 40
0
 40
0
 40
1
 40
1
 40
1
 40
1
 10
26.757032
 20
26.591967
 30
0.0
 10
26.910014
 20
26.108496
 30
0.0
 10
27.059559
 20
25.939680
 30
0.0
 10
27.569386
 20
25.674903
 30
0.0
  0
SPLINE
  5
1f0
100
AcDbEntity
  8
Layer_1
 62
7
100
AcDbSpline
 70
8
 71
3
 72
8
 73
4
 74
0
 40
0
 40
0
 40
0
 40
0
 40
1
 40
1
 40
1
 40
1
 10
27.569386
 20
25.674903
 30
0.0
 10
28.183896
 20
25.355761
 30
0.0
 10
28.241736
 20
25.351861
 30
0.0
 10
31.064264
 20
25.439374
 30
0.0
  0
LWPOLYLINE
  5
1f1
100
AcDbEntity
  8
Layer_1
 62
7
100
AcDbPolyline
 90
5
 70
0
 10
32.880636
 20
28.828891
 30
0.0
 10
33.887343
 20
28.637682
 30
0.0
 10
33.930433
 20
28.116976
 30
0.0
 10
33.973523
 20
27.596264
 30
0.0
 10
30.350528
 20
27.596264
 30
0.0
  0
SPLINE
  5
1f2
100
AcDbEntity
  8
Layer_1
 62
7
100
AcDbSpline
 70
8
 71
3
 72
8
 73
4
 74
0
 40
0
 40
0
 40
0
 40
0
 40
1
 40
1
 40
1
 40
1
 10
33.980218
 20
24.468615
 30
0.0
 10
34.053728
 20
22.773132
 30
0.0
 10
34.188022
 20
22.873681
 30
0.0
 10
31.387898
 20
22.527789
 30
0.0
  0
SPLINE
  5
1f3
100
AcDbEntity
  8
Layer_1
 62
7
100
AcDbSpline
 70
8
 71
3
 72
8
 73
4
 74
0
 40
0
 40
0
 40
0
 40
0
 40
1
 40
1
 40
1
 40
1
 10
31.387898
 20
22.527789
 30
0.0
 10
29.357281
 20
22.276951
 30
0.0
 10
27.927389
 20
22.279223
 30
0.0
 10
26.747275
 20
22.535189
 30
0.0
  0
LWPOLYLINE
  5
1f4
100
AcDbEntity
  8
Layer_1
 62
7
100
AcDbPolyline
 90
3
 70
0
 10
31.064264
 20
25.439374
 30
0.0
 10
33.934298
 20
25.528364
 30
0.0
 10
33.980218
 20
24.468615
 30
0.0
  0
SPLINE
  5
1f5
100
AcDbEntity
  8
Layer_1
 62
7
100
AcDbSpline
 70
8
 71
3
 72
8
 73
4
 74
0
 40
0
 40
0
 40
0
 40
0
 40
1
 40
1
 40
1
 40
1
 10
44.869926
 20
22.663488
 30
0.0
 10
43.592081
 20
23.188828
 30
0.0
 10
42.685336
 20
24.021907
 30
0.0
 10
42.488191
 20
24.851731
 30
0.0
  0
SPLINE
  5
1f6
100
AcDbEntity
  8
Layer_1
 62
7
100
AcDbSpline
 70
8
 71
3
 72
8
 73
4
 74
0
 40
0
 40
0
 40
0
 40
0
 40
1
 40
1
 40
1
 40
1
 10
42.488191
 20
24.851731
 30
0.0
 10
42.411881
 20
25.172936
 30
0.0
 10
42.453761
 20
25.252702
 30
0.0
 10
42.759638
 20
25.369005
 30
0.0
  0
SPLINE
  5
1f7
100
AcDbEntity
  8
Layer_1
 62
7
100
AcDbSpline
 70
8
 71
3
 72
8
 73
4
 74
0
 40
0
 40
0
 40
0
 40
0
 40
1
 40
1
 40
1
 40
1
 10
42.759638
 20
25.369005
 30
0.0
 10
43.114677
 20
25.503991
 30
0.0
 10
43.121306
 20
25.530972
 30
0.0
 10
43.121306
 20
26.841543
 30
0.0
  0
LWPOLYLINE
  5
1f8
100
AcDbEntity
  8
Layer_1
 62
7
100
AcDbPolyline
 90
1
 70
1
 10
26.747275
 20
22.535189
 30
0.0
  0
SPLINE
  5
1f9
100
AcDbEntity
  8
Layer_1
 62
7
100
AcDbSpline
 70
8
 71
3
 72
8
 73
4
 74
0
 40
0
 40
0
 40
0
 40
0
 40
1
 40
1
 40
1
 40
1
 10
40.229707
 20
28.959953
 30
0.0
 10
39.910817
 20
29.496724
 30
0.0
 10
39.649907
 20
29.998117
 30
0.0
 10
39.649907
 20
30.074162
 30
0.0
  0
SPLINE
  5
1fa
100
AcDbEntity
  8
Layer_1
 62
7
100
AcDbSpline
 70
8
 71
3
 72
8
 73
4
 74
0
 40
0
 40
0
 40
0
 40
0
 40
1
 40
1
 40
1
 40
1
 10
39.649907
 20
30.074162
 30
0.0
 10
39.649907
 20
30.238165
 30
0.0
 10
40.070742
 20
30.326910
 30
0.0
 10
41.385607
 20
30.440164
 30
0.0
  0
SPLINE
  5
1fb
100
AcDbEntity
  8
Layer_1
 62
7
100
AcDbSpline
 70
8
 71
3
 72
8
 73
4
 74
0
 40
0
 40
0
 40
0
 40
0
 40
1
 40
1
 40
1
 40
1
 10
41.385607
 20
30.440164
 30
0.0
 10
43.229238
 20
30.598961
 30
0.0
 10
43.161496
 20
30.556887
 30
0.0
 10
43.093223
 20
31.500727
 30
0.0
  0
SPLINE
  5
1fc
100
AcDbEntity
  8
Layer_1
 62
7
100
AcDbSpline
 70
8
 71
3
 72
8
 73
4
 74
0
 40
0
 40
0
 40
0
 40
0
 40
1
 40
1
 40
1
 40
1
 10
43.093223
 20
31.500727
 30
0.0
 10
43.060583
 20
31.952132
 30
0.0
 10
42.970822
 20
32.384502
 30
0.0
 10
42.893774
 20
32.461544
 30
0.0
  0
SPLINE
  5
1fd
100
AcDbEntity
  8
Layer_1
 62
7
100
AcDbSpline
 70
8
 71
3
 72
8
 73
4
 74
0
 40
0
 40
0
 40
0
 40
0
 40
1
 40
1
 40
1
 40
1
 10
42.893774
 20
32.461544
 30
0.0
 10
42.625922
 20
32.729397
 30
0.0
 10
41.104949
 20
32.878946
 30
0.0
 10
39.565245
 20
32.788831
 30
0.0
  0
LWPOLYLINE
  5
1fe
100
AcDbEntity
  8
Layer_1
 62
7
100
AcDbPolyline
 90
5
 70
0
 10
43.121306
 20
26.841543
 30
0.0
 10
43.121306
 20
28.176576
 30
0.0
 10
41.965406
 20
28.080296
 30
0.0
 10
40.809507
 20
27.984006
 30
0.0
 10
40.229707
 20
28.959953
 30
0.0
  0
SPLINE
  5
1ff
100
AcDbEntity
  8
Layer_1
 62
7
100
AcDbSpline
 70
8
 71
3
 72
8
 73
4
 74
0
 40
0
 40
0
 40
0
 40
0
 40
1
 40
1
 40
1
 40
1
 10
37.431550
 20
33.769264
 30
0.0
 10
37.106467
 20
34.358164
 30
0.0
 10
36.894627
 20
34.887004
 30
0.0
 10
36.960784
 20
34.944466
 30
0.0
  0
SPLINE
  5
200
100
AcDbEntity
  8
Layer_1
 62
7
100
AcDbSpline
 70
8
 71
3
 72
8
 73
4
 74
0
 40
0
 40
0
 40
0
 40
0
 40
1
 40
1
 40
1
 40
1
 10
36.960784
 20
34.944466
 30
0.0
 10
37.195007
 20
35.147914
 30
0.0
 10
39.046680
 20
35.503032
 30
0.0
 10
40.650484
 20
35.652094
 30
0.0
  0
SPLINE
  5
201
100
AcDbEntity
  8
Layer_1
 62
7
100
AcDbSpline
 70
8
 71
3
 72
8
 73
4
 74
0
 40
0
 40
0
 40
0
 40
0
 40
1
 40
1
 40
1
 40
1
 10
40.650484
 20
35.652094
 30
0.0
 10
43.736362
 20
35.938908
 30
0.0
 10
45.503471
 20
35.289565
 30
0.0
 10
46.275933
 20
33.584982
 30
0.0
  0
SPLINE
  5
202
100
AcDbEntity
  8
Layer_1
 62
7
100
AcDbSpline
 70
8
 71
3
 72
8
 73
4
 74
0
 40
0
 40
0
 40
0
 40
0
 40
1
 40
1
 40
1
 40
1
 10
46.275933
 20
33.584982
 30
0.0
 10
46.462697
 20
33.172849
 30
0.0
 10
46.518683
 20
32.388803
 30
0.0
 10
46.583219
 20
29.281665
 30
0.0
  0
LWPOLYLINE
  5
203
100
AcDbEntity
  8
Layer_1
 62
7
100
AcDbPolyline
 90
3
 70
0
 10
39.565245
 20
32.788831
 30
0.0
 10
38.022602
 20
32.698541
 30
0.0
 10
37.431550
 20
33.769264
 30
0.0
  0
SPLINE
  5
204
100
AcDbEntity
  8
Layer_1
 62
7
100
AcDbSpline
 70
8
 71
3
 72
8
 73
4
 74
0
 40
0
 40
0
 40
0
 40
0
 40
1
 40
1
 40
1
 40
1
 10
46.537367
 20
22.322792
 30
0.0
 10
45.964232
 20
22.324892
 30
0.0
 10
45.424792
 20
22.435181
 30
0.0
 10
44.869926
 20
22.663289
 30
0.0
  0
LWPOLYLINE
  5
205
100
AcDbEntity
  8
Layer_1
 62
7
100
AcDbPolyline
 90
7
 70
0
 10
46.583219
 20
29.281665
 30
0.0
 10
46.662129
 20
25.482297
 30
0.0
 10
47.108669
 20
25.109834
 30
0.0
 10
47.555209
 20
24.737366
 30
0.0
 10
47.469899
 20
23.528529
 30
0.0
 10
47.384589
 20
22.319692
 30
0.0
 10
46.537367
 20
22.322792
 30
0.0
  0
LWPOLYLINE
  5
206
100
AcDbEntity
  8
Layer_1
 62
7
100
AcDbPolyline
 90
2
 70
0
 10
44.869926
 20
22.663289
 30
0.0
 10
44.869926
 20
22.663488
 30
0.0
  0
SPLINE
  5
207
100
AcDbEntity
  8
Layer_1
 62
7
100
AcDbSpline
 70
8
 71
3
 72
8
 73
4
 74
0
 40
0
 40
0
 40
0
 40
0
 40
1
 40
1
 40
1
 40
1
 10
53.665322
 20
30.373342
 30
0.0
 10
54.535016
 20
30.373342
 30
0.0
 10
54.665190
 20
30.523386
 30
0.0
 10
55.941450
 20
32.996795
 30
0.0
  0
LWPOLYLINE
  5
208
100
AcDbEntity
  8
Layer_1
 62
7
100
AcDbPolyline
 90
7
 70
0
 10
49.925247
 20
31.553619
 30
0.0
 10
49.925247
 20
40.509833
 30
0.0
 10
51.591519
 20
40.509833
 30
0.0
 10
53.257791
 20
40.509833
 30
0.0
 10
53.257791
 20
35.441591
 30
0.0
 10
53.257791
 20
30.373342
 30
0.0
 10
53.665322
 20
30.373342
 30
0.0
  0
SPLINE
  5
209
100
AcDbEntity
  8
Layer_1
 62
7
100
AcDbSpline
 70
8
 71
3
 72
8
 73
4
 74
0
 40
0
 40
0
 40
0
 40
0
 40
1
 40
1
 40
1
 40
1
 10
59.030996
 20
35.372159
 30
0.0
 10
60.056129
 20
35.372159
 30
0.0
 10
60.894875
 20
35.331959
 30
0.0
 10
60.894875
 20
35.282829
 30
0.0
  0
SPLINE
  5
20a
100
AcDbEntity
  8
Layer_1
 62
7
100
AcDbSpline
 70
8
 71
3
 72
8
 73
4
 74
0
 40
0
 40
0
 40
0
 40
0
 40
1
 40
1
 40
1
 40
1
 10
60.894875
 20
35.282829
 30
0.0
 10
60.894875
 20
35.169922
 30
0.0
 10
58.792008
 20
31.266998
 30
0.0
 10
58.153493
 20
30.194822
 30
0.0
  0
LWPOLYLINE
  5
20b
100
AcDbEntity
  8
Layer_1
 62
7
100
AcDbPolyline
 90
3
 70
0
 10
55.941450
 20
32.996795
 30
0.0
 10
57.167123
 20
35.372159
 30
0.0
 10
59.030996
 20
35.372159
 30
0.0
  0
SPLINE
  5
20c
100
AcDbEntity
  8
Layer_1
 62
7
100
AcDbSpline
 70
8
 71
3
 72
8
 73
4
 74
0
 40
0
 40
0
 40
0
 40
0
 40
1
 40
1
 40
1
 40
1
 10
58.169053
 20
28.389695
 30
0.0
 10
58.440753
 20
27.838734
 30
0.0
 10
59.194133
 20
26.388180
 30
0.0
 10
59.843229
 20
25.166249
 30
0.0
  0
SPLINE
  5
20d
100
AcDbEntity
  8
Layer_1
 62
7
100
AcDbSpline
 70
8
 71
3
 72
8
 73
4
 74
0
 40
0
 40
0
 40
0
 40
0
 40
1
 40
1
 40
1
 40
1
 10
59.843229
 20
25.166249
 30
0.0
 10
60.492325
 20
23.944318
 30
0.0
 10
61.025726
 20
22.866447
 30
0.0
 10
61.028565
 20
22.770984
 30
0.0
  0
SPLINE
  5
20e
100
AcDbEntity
  8
Layer_1
 62
7
100
AcDbSpline
 70
8
 71
3
 72
8
 73
4
 74
0
 40
0
 40
0
 40
0
 40
0
 40
1
 40
1
 40
1
 40
1
 10
61.028565
 20
22.770984
 30
0.0
 10
61.032265
 20
22.640590
 30
0.0
 10
60.575465
 20
22.597413
 30
0.0
 10
59.191499
 20
22.597413
 30
0.0
  0
LWPOLYLINE
  5
20f
100
AcDbEntity
  8
Layer_1
 62
7
100
AcDbPolyline
 90
3
 70
0
 10
58.153493
 20
30.194822
 30
0.0
 10
57.675060
 20
29.391448
 30
0.0
 10
58.169053
 20
28.389695
 30
0.0
  0
SPLINE
  5
210
100
AcDbEntity
  8
Layer_1
 62
7
100
AcDbSpline
 70
8
 71
3
 72
8
 73
4
 74
0
 40
0
 40
0
 40
0
 40
0
 40
1
 40
1
 40
1
 40
1
 10
56.113272
 20
25.021517
 30
0.0
 10
55.433475
 20
26.354770
 30
0.0
 10
54.803478
 20
27.473933
 30
0.0
 10
54.713284
 20
27.508544
 30
0.0
  0
SPLINE
  5
211
100
AcDbEntity
  8
Layer_1
 62
7
100
AcDbSpline
 70
8
 71
3
 72
8
 73
4
 74
0
 40
0
 40
0
 40
0
 40
0
 40
1
 40
1
 40
1
 40
1
 10
54.713284
 20
27.508544
 30
0.0
 10
54.623084
 20
27.543124
 30
0.0
 10
54.258704
 20
27.509544
 30
0.0
 10
53.903538
 20
27.433744
 30
0.0
  0
LWPOLYLINE
  5
212
100
AcDbEntity
  8
Layer_1
 62
7
100
AcDbPolyline
 90
3
 70
0
 10
59.191499
 20
22.597413
 30
0.0
 10
57.349268
 20
22.597413
 30
0.0
 10
56.113272
 20
25.021517
 30
0.0
  0
LWPOLYLINE
  5
213
100
AcDbEntity
  8
Layer_1
 62
7
100
AcDbPolyline
 90
7
 70
0
 10
53.903538
 20
27.433744
 30
0.0
 10
53.257791
 20
27.296024
 30
0.0
 10
53.257791
 20
24.946717
 30
0.0
 10
53.257791
 20
22.597409
 30
0.0
 10
51.591519
 20
22.597409
 30
0.0
 10
49.925247
 20
22.597409
 30
0.0
 10
49.925247
 20
31.553619
 30
0.0
  0
LWPOLYLINE
  5
214
100
AcDbEntity
  8
Layer_1
 62
7
100
AcDbPolyline
 90
8
 70
1
 10
63.116569
 20
24.749677
 30
0.0
 10
63.116569
 20
26.771639
 30
0.0
 10
64.817552
 20
26.732649
 30
0.0
 10
66.518541
 20
26.693659
 30
0.0
 10
66.518541
 20
24.749673
 30
0.0
 10
66.518541
 20
22.805687
 30
0.0
 10
64.817552
 20
22.766697
 30
0.0
 10
63.116569
 20
22.727707
 30
0.0
  0
SPLINE
  5
215
100
AcDbEntity
  8
Layer_1
 62
7
100
AcDbSpline
 70
8
 71
3
 72
8
 73
4
 74
0
 40
0
 40
0
 40
0
 40
0
 40
1
 40
1
 40
1
 40
1
 10
17.571828
 20
34.751673
 30
0.0
 10
17.571828
 20
34.044046
 30
0.0
 10
17.642048
 20
34.009350
 30
0.0
 10
18.294723
 20
34.394446
 30
0.0
  0
SPLINE
  5
216
100
AcDbEntity
  8
Layer_1
 62
7
100
AcDbSpline
 70
8
 71
3
 72
8
 73
4
 74
0
 40
0
 40
0
 40
0
 40
0
 40
1
 40
1
 40
1
 40
1
 10
18.294723
 20
34.394446
 30
0.0
 10
18.952740
 20
34.782684
 30
0.0
 10
20.693703
 20
35.484917
 30
0.0
 10
21.262959
 20
35.591711
 30
0.0
  0
LWPOLYLINE
  5
217
100
AcDbEntity
  8
Layer_1
 62
7
100
AcDbPolyline
 90
5
 70
0
 10
14.272341
 20
29.922063
 30
0.0
 10
14.308711
 20
35.302731
 30
0.0
 10
15.940267
 20
35.341831
 30
0.0
 10
17.571828
 20
35.380931
 30
0.0
 10
17.571828
 20
34.751673
 30
0.0
  0
SPLINE
  5
218
100
AcDbEntity
  8
Layer_1
 62
7
100
AcDbSpline
 70
8
 71
3
 72
8
 73
4
 74
0
 40
0
 40
0
 40
0
 40
0
 40
1
 40
1
 40
1
 40
1
 10
19.932416
 20
31.843437
 30
0.0
 10
17.312931
 20
31.196430
 30
0.0
 10
17.571862
 20
31.640005
 30
0.0
 10
17.571862
 20
27.799581
 30
0.0
  0
LWPOLYLINE
  5
219
100
AcDbEntity
  8
Layer_1
 62
7
100
AcDbPolyline
 90
5
 70
0
 10
21.262959
 20
35.591711
 30
0.0
 10
21.746315
 20
35.682391
 30
0.0
 10
21.707215
 20
33.977273
 30
0.0
 10
21.668115
 20
32.272154
 30
0.0
 10
19.932416
 20
31.843437
 30
0.0
  0
SPLINE
  5
21a
100
AcDbEntity
  8
Layer_1
 62
7
100
AcDbSpline
 70
8
 71
3
 72
8
 73
4
 74
0
 40
0
 40
0
 40
0
 40
0
 40
1
 40
1
 40
1
 40
1
 10
29.214157
 20
35.578404
 30
0.0
 10
28.935005
 20
35.681072
 30
0.0
 10
28.556008
 20
35.863753
 30
0.0
 10
28.371947
 20
35.984360
 30
0.0
  0
SPLINE
  5
21b
100
AcDbEntity
  8
Layer_1
 62
7
100
AcDbSpline
 70
8
 71
3
 72
8
 73
4
 74
0
 40
0
 40
0
 40
0
 40
0
 40
1
 40
1
 40
1
 40
1
 10
28.371947
 20
35.984360
 30
0.0
 10
28.083343
 20
36.173460
 30
0.0
 10
25.070025
 20
40.482727
 30
0.0
 10
25.070025
 20
40.706354
 30
0.0
  0
SPLINE
  5
21c
100
AcDbEntity
  8
Layer_1
 62
7
100
AcDbSpline
 70
8
 71
3
 72
8
 73
4
 74
0
 40
0
 40
0
 40
0
 40
0
 40
1
 40
1
 40
1
 40
1
 10
25.070025
 20
40.706354
 30
0.0
 10
25.070025
 20
40.751014
 30
0.0
 10
25.314755
 20
40.787544
 30
0.0
 10
25.613865
 20
40.787544
 30
0.0
  0
SPLINE
  5
21d
100
AcDbEntity
  8
Layer_1
 62
7
100
AcDbSpline
 70
8
 71
3
 72
8
 73
4
 74
0
 40
0
 40
0
 40
0
 40
0
 40
1
 40
1
 40
1
 40
1
 10
25.613865
 20
40.787544
 30
0.0
 10
26.033792
 20
40.787544
 30
0.0
 10
26.506630
 20
40.993406
 30
0.0
 10
27.689090
 20
41.691046
 30
0.0
  0
SPLINE
  5
21e
100
AcDbEntity
  8
Layer_1
 62
7
100
AcDbSpline
 70
8
 71
3
 72
8
 73
4
 74
0
 40
0
 40
0
 40
0
 40
0
 40
1
 40
1
 40
1
 40
1
 10
27.689090
 20
41.691046
 30
0.0
 10
28.531353
 20
42.187973
 30
0.0
 10
29.270768
 20
42.672237
 30
0.0
 10
29.332234
 20
42.767180
 30
0.0
  0
SPLINE
  5
21f
100
AcDbEntity
  8
Layer_1
 62
7
100
AcDbSpline
 70
8
 71
3
 72
8
 73
4
 74
0
 40
0
 40
0
 40
0
 40
0
 40
1
 40
1
 40
1
 40
1
 10
29.332234
 20
42.767180
 30
0.0
 10
29.393704
 20
42.862130
 30
0.0
 10
29.506476
 20
43.189757
 30
0.0
 10
29.582847
 20
43.495239
 30
0.0
  0
SPLINE
  5
220
100
AcDbEntity
  8
Layer_1
 62
7
100
AcDbSpline
 70
8
 71
3
 72
8
 73
4
 74
0
 40
0
 40
0
 40
0
 40
0
 40
1
 40
1
 40
1
 40
1
 10
29.582847
 20
43.495239
 30
0.0
 10
29.705405
 20
43.985485
 30
0.0
 10
29.769511
 20
44.050661
 30
0.0
 10
30.129121
 20
44.050661
 30
0.0
  0
SPLINE
  5
221
100
AcDbEntity
  8
Layer_1
 62
7
100
AcDbSpline
 70
8
 71
3
 72
8
 73
4
 74
0
 40
0
 40
0
 40
0
 40
0
 40
1
 40
1
 40
1
 40
1
 10
30.129121
 20
44.050661
 30
0.0
 10
30.499018
 20
44.050661
 30
0.0
 10
30.621761
 20
43.909975
 30
0.0
 10
31.461714
 20
42.523248
 30
0.0
  0
SPLINE
  5
222
100
AcDbEntity
  8
Layer_1
 62
7
100
AcDbSpline
 70
8
 71
3
 72
8
 73
4
 74
0
 40
0
 40
0
 40
0
 40
0
 40
1
 40
1
 40
1
 40
1
 10
31.461714
 20
42.523248
 30
0.0
 10
33.396248
 20
39.329417
 30
0.0
 10
34.536204
 20
37.277442
 30
0.0
 10
34.422205
 20
37.194207
 30
0.0
  0
SPLINE
  5
223
100
AcDbEntity
  8
Layer_1
 62
7
100
AcDbSpline
 70
8
 71
3
 72
8
 73
4
 74
0
 40
0
 40
0
 40
0
 40
0
 40
1
 40
1
 40
1
 40
1
 10
34.422205
 20
37.194207
 30
0.0
 10
33.703781
 20
36.669643
 30
0.0
 10
32.237226
 20
35.792854
 30
0.0
 10
31.767017
 20
35.606793
 30
0.0
  0
SPLINE
  5
224
100
AcDbEntity
  8
Layer_1
 62
7
100
AcDbSpline
 70
8
 71
3
 72
8
 73
4
 74
0
 40
0
 40
0
 40
0
 40
0
 40
1
 40
1
 40
1
 40
1
 10
31.767017
 20
35.606793
 30
0.0
 10
31.066548
 20
35.329614
 30
0.0
 10
29.925101
 20
35.316924
 30
0.0
 10
29.214157
 20
35.578403
 30
0.0
  0
LWPOLYLINE
  5
225
100
AcDbEntity
  8
Layer_1
 62
7
100
AcDbPolyline
 90
5
 70
0
 10
17.571862
 20
27.799581
 30
0.0
 10
17.571862
 20
24.541350
 30
0.0
 10
15.903963
 20
24.541350
 30
0.0
 10
14.236064
 20
24.541350
 30
0.0
 10
14.272341
 20
29.922063
 30
0.0
  0
SPLINE
  5
226
100
AcDbEntity
  8
Layer_1
 62
7
100
AcDbSpline
 70
8
 71
3
 72
8
 73
4
 74
0
 40
0
 40
0
 40
0
 40
0
 40
1
 40
1
 40
1
 40
1
 10
32.246772
 20
36.218814
 30
0.0
 10
33.916036
 20
37.097949
 30
0.0
 10
34.126574
 20
37.274517
 30
0.0
 10
33.938954
 20
37.637936
 30
0.0
  0
SPLINE
  5
227
100
AcDbEntity
  8
Layer_1
 62
7
100
AcDbSpline
 70
8
 71
3
 72
8
 73
4
 74
0
 40
0
 40
0
 40
0
 40
0
 40
1
 40
1
 40
1
 40
1
 10
33.938954
 20
37.637936
 30
0.0
 10
33.284096
 20
38.906386
 30
0.0
 10
30.248253
 20
43.842378
 30
0.0
 10
30.122960
 20
43.842378
 30
0.0
  0
SPLINE
  5
228
100
AcDbEntity
  8
Layer_1
 62
7
100
AcDbSpline
 70
8
 71
3
 72
8
 73
4
 74
0
 40
0
 40
0
 40
0
 40
0
 40
1
 40
1
 40
1
 40
1
 10
30.122960
 20
43.842378
 30
0.0
 10
30.036340
 20
43.842378
 30
0.0
 10
29.927589
 20
43.605405
 30
0.0
 10
29.881275
 20
43.315773
 30
0.0
  0
SPLINE
  5
229
100
AcDbEntity
  8
Layer_1
 62
7
100
AcDbSpline
 70
8
 71
3
 72
8
 73
4
 74
0
 40
0
 40
0
 40
0
 40
0
 40
1
 40
1
 40
1
 40
1
 10
29.881275
 20
43.315773
 30
0.0
 10
29.829635
 20
42.992794
 30
0.0
 10
29.648269
 20
42.653530
 30
0.0
 10
29.412247
 20
42.438385
 30
0.0
  0
SPLINE
  5
22a
100
AcDbEntity
  8
Layer_1
 62
7
100
AcDbSpline
 70
8
 71
3
 72
8
 73
4
 74
0
 40
0
 40
0
 40
0
 40
0
 40
1
 40
1
 40
1
 40
1
 10
29.412247
 20
42.438385
 30
0.0
 10
28.844071
 20
41.920460
 30
0.0
 10
26.386763
 20
40.509833
 30
0.0
 10
26.052711
 20
40.509833
 30
0.0
  0
SPLINE
  5
22b
100
AcDbEntity
  8
Layer_1
 62
7
100
AcDbSpline
 70
8
 71
3
 72
8
 73
4
 74
0
 40
0
 40
0
 40
0
 40
0
 40
1
 40
1
 40
1
 40
1
 10
26.052711
 20
40.509833
 30
0.0
 10
25.894087
 20
40.509833
 30
0.0
 10
25.764307
 20
40.429293
 30
0.0
 10
25.764307
 20
40.330863
 30
0.0
  0
SPLINE
  5
22c
100
AcDbEntity
  8
Layer_1
 62
7
100
AcDbSpline
 70
8
 71
3
 72
8
 73
4
 74
0
 40
0
 40
0
 40
0
 40
0
 40
1
 40
1
 40
1
 40
1
 10
25.764307
 20
40.330863
 30
0.0
 10
25.764307
 20
40.014423
 30
0.0
 10
28.269598
 20
36.434747
 30
0.0
 10
28.655161
 20
36.200272
 30
0.0
  0
SPLINE
  5
22d
100
AcDbEntity
  8
Layer_1
 62
7
100
AcDbSpline
 70
8
 71
3
 72
8
 73
4
 74
0
 40
0
 40
0
 40
0
 40
0
 40
1
 40
1
 40
1
 40
1
 10
28.655161
 20
36.200272
 30
0.0
 10
29.864974
 20
35.464541
 30
0.0
 10
30.823996
 20
35.469490
 30
0.0
 10
32.246772
 20
36.218802
 30
0.0
  0
LWPOLYLINE
  5
22e
100
AcDbEntity
  8
Layer_1
 62
7
100
AcDbPolyline
 90
1
 70
1
 10
29.214157
 20
35.578403
 30
0.0
  0
SPLINE
  5
22f
100
AcDbEntity
  8
Layer_1
 62
7
100
AcDbSpline
 70
8
 71
3
 72
8
 73
4
 74
0
 40
0
 40
0
 40
0
 40
0
 40
1
 40
1
 40
1
 40
1
 10
30.658980
 20
36.019549
 30
0.0
 10
30.415311
 20
36.117869
 30
0.0
 10
30.442349
 20
36.829834
 30
0.0
 10
30.697820
 20
37.041847
 30
0.0
  0
SPLINE
  5
230
100
AcDbEntity
  8
Layer_1
 62
7
100
AcDbSpline
 70
8
 71
3
 72
8
 73
4
 74
0
 40
0
 40
0
 40
0
 40
0
 40
1
 40
1
 40
1
 40
1
 10
30.697820
 20
37.041847
 30
0.0
 10
31.011741
 20
37.302373
 30
0.0
 10
31.596274
 20
37.003957
 30
0.0
 10
31.596274
 20
36.583184
 30
0.0
  0
SPLINE
  5
231
100
AcDbEntity
  8
Layer_1
 62
7
100
AcDbSpline
 70
8
 71
3
 72
8
 73
4
 74
0
 40
0
 40
0
 40
0
 40
0
 40
1
 40
1
 40
1
 40
1
 10
31.596274
 20
36.583184
 30
0.0
 10
31.596274
 20
36.049321
 30
0.0
 10
31.190276
 20
35.805169
 30
0.0
 10
30.658995
 20
36.019549
 30
0.0
  0
LWPOLYLINE
  5
232
100
AcDbEntity
  8
Layer_1
 62
7
100
AcDbPolyline
 90
1
 70
1
 10
32.246772
 20
36.218802
 30
0.0
  0
SPLINE
  5
233
100
AcDbEntity
  8
Layer_1
 62
7
100
AcDbSpline
 70
8
 71
3
 72
8
 73
4
 74
0
 40
0
 40
0
 40
0
 40
0
 40
1
 40
1
 40
1
 40
1
 10
32.255825
 20
36.910697
 30
0.0
 10
32.007873
 20
37.055120
 30
0.0
 10
31.946145
 20
37.397380
 30
0.0
 10
32.097112
 20
37.790782
 30
0.0
  0
SPLINE
  5
234
100
AcDbEntity
  8
Layer_1
 62
7
100
AcDbSpline
 70
8
 71
3
 72
8
 73
4
 74
0
 40
0
 40
0
 40
0
 40
0
 40
1
 40
1
 40
1
 40
1
 10
32.097112
 20
37.790782
 30
0.0
 10
32.272834
 20
38.248705
 30
0.0
 10
33.262532
 20
37.902855
 30
0.0
 10
33.262532
 20
37.383530
 30
0.0
  0
SPLINE
  5
235
100
AcDbEntity
  8
Layer_1
 62
7
100
AcDbSpline
 70
8
 71
3
 72
8
 73
4
 74
0
 40
0
 40
0
 40
0
 40
0
 40
1
 40
1
 40
1
 40
1
 10
33.262532
 20
37.383530
 30
0.0
 10
33.262532
 20
37.211681
 30
0.0
 10
32.752290
 20
36.754556
 30
0.0
 10
32.572070
 20
36.764942
 30
0.0
  0
SPLINE
  5
236
100
AcDbEntity
  8
Layer_1
 62
7
100
AcDbSpline
 70
8
 71
3
 72
8
 73
4
 74
0
 40
0
 40
0
 40
0
 40
0
 40
1
 40
1
 40
1
 40
1
 10
32.572070
 20
36.764942
 30
0.0
 10
32.531770
 20
36.767042
 30
0.0
 10
32.389473
 20
36.832852
 30
0.0
 10
32.255825
 20
36.910697
 30
0.0
  0
LWPOLYLINE
  5
237
100
AcDbEntity
  8
Layer_1
 62
7
100
AcDbPolyline
 90
1
 70
1
 10
30.658995
 20
36.019549
 30
0.0
  0
SPLINE
  5
238
100
AcDbEntity
  8
Layer_1
 62
7
100
AcDbSpline
 70
8
 71
3
 72
8
 73
4
 74
0
 40
0
 40
0
 40
0
 40
0
 40
1
 40
1
 40
1
 40
1
 10
28.102415
 20
38.171175
 30
0.0
 10
27.715730
 20
38.309200
 30
0.0
 10
27.291720
 20
39.017730
 30
0.0
 10
27.291720
 20
39.525862
 30
0.0
  0
SPLINE
  5
239
100
AcDbEntity
  8
Layer_1
 62
7
100
AcDbSpline
 70
8
 71
3
 72
8
 73
4
 74
0
 40
0
 40
0
 40
0
 40
0
 40
1
 40
1
 40
1
 40
1
 10
27.291720
 20
39.525862
 30
0.0
 10
27.291720
 20
39.747211
 30
0.0
 10
27.476138
 20
39.900613
 30
0.0
 10
28.044324
 20
40.151892
 30
0.0
  0
SPLINE
  5
23a
100
AcDbEntity
  8
Layer_1
 62
7
100
AcDbSpline
 70
8
 71
3
 72
8
 73
4
 74
0
 40
0
 40
0
 40
0
 40
0
 40
1
 40
1
 40
1
 40
1
 10
28.044324
 20
40.151892
 30
0.0
 10
28.458257
 20
40.334951
 30
0.0
 10
29.035128
 20
40.646588
 30
0.0
 10
29.326262
 20
40.844421
 30
0.0
  0
SPLINE
  5
23b
100
AcDbEntity
  8
Layer_1
 62
7
100
AcDbSpline
 70
8
 71
3
 72
8
 73
4
 74
0
 40
0
 40
0
 40
0
 40
0
 40
1
 40
1
 40
1
 40
1
 10
29.326262
 20
40.844421
 30
0.0
 10
29.995221
 20
41.298990
 30
0.0
 10
30.535833
 20
41.305167
 30
0.0
 10
30.977718
 20
40.863261
 30
0.0
  0
SPLINE
  5
23c
100
AcDbEntity
  8
Layer_1
 62
7
100
AcDbSpline
 70
8
 71
3
 72
8
 73
4
 74
0
 40
0
 40
0
 40
0
 40
0
 40
1
 40
1
 40
1
 40
1
 10
30.977718
 20
40.863261
 30
0.0
 10
31.400993
 20
40.439985
 30
0.0
 10
31.411463
 20
39.973371
 30
0.0
 10
31.009368
 20
39.452403
 30
0.0
  0
SPLINE
  5
23d
100
AcDbEntity
  8
Layer_1
 62
7
100
AcDbSpline
 70
8
 71
3
 72
8
 73
4
 74
0
 40
0
 40
0
 40
0
 40
0
 40
1
 40
1
 40
1
 40
1
 10
31.009368
 20
39.452403
 30
0.0
 10
30.584010
 20
38.901274
 30
0.0
 10
30.365363
 20
38.728622
 30
0.0
 10
29.721689
 20
38.435599
 30
0.0
  0
SPLINE
  5
23e
100
AcDbEntity
  8
Layer_1
 62
7
100
AcDbSpline
 70
8
 71
3
 72
8
 73
4
 74
0
 40
0
 40
0
 40
0
 40
0
 40
1
 40
1
 40
1
 40
1
 10
29.721689
 20
38.435599
 30
0.0
 10
28.952596
 20
38.085488
 30
0.0
 10
28.533944
 20
38.017121
 30
0.0
 10
28.102403
 20
38.171153
 30
0.0
  0
LWPOLYLINE
  5
23f
100
AcDbEntity
  8
Layer_1
 62
7
100
AcDbPolyline
 90
1
 70
1
 10
32.255825
 20
36.910697
 30
0.0
  0
SPLINE
  5
240
100
AcDbEntity
  8
Layer_1
 62
7
100
AcDbSpline
 70
8
 71
3
 72
8
 73
4
 74
0
 40
0
 40
0
 40
0
 40
0
 40
1
 40
1
 40
1
 40
1
 10
29.582847
 20
38.690243
 30
0.0
 10
30.431937
 20
39.083363
 30
0.0
 10
30.931467
 20
39.684381
 30
0.0
 10
30.877301
 20
40.247691
 30
0.0
  0
SPLINE
  5
241
100
AcDbEntity
  8
Layer_1
 62
7
100
AcDbSpline
 70
8
 71
3
 72
8
 73
4
 74
0
 40
0
 40
0
 40
0
 40
0
 40
1
 40
1
 40
1
 40
1
 10
30.877301
 20
40.247691
 30
0.0
 10
30.843451
 20
40.599539
 30
0.0
 10
30.747049
 20
40.742970
 30
0.0
 10
30.482135
 20
40.835499
 30
0.0
  0
SPLINE
  5
242
100
AcDbEntity
  8
Layer_1
 62
7
100
AcDbSpline
 70
8
 71
3
 72
8
 73
4
 74
0
 40
0
 40
0
 40
0
 40
0
 40
1
 40
1
 40
1
 40
1
 10
30.482135
 20
40.835499
 30
0.0
 10
30.192996
 20
40.936494
 30
0.0
 10
29.920788
 20
40.839699
 30
0.0
 10
28.925396
 20
40.282580
 30
0.0
  0
SPLINE
  5
243
100
AcDbEntity
  8
Layer_1
 62
7
100
AcDbSpline
 70
8
 71
3
 72
8
 73
4
 74
0
 40
0
 40
0
 40
0
 40
0
 40
1
 40
1
 40
1
 40
1
 10
28.925396
 20
40.282580
 30
0.0
 10
27.934644
 20
39.727950
 30
0.0
 10
27.718107
 20
39.547185
 30
0.0
 10
27.713678
 20
39.271061
 30
0.0
  0
SPLINE
  5
244
100
AcDbEntity
  8
Layer_1
 62
7
100
AcDbSpline
 70
8
 71
3
 72
8
 73
4
 74
0
 40
0
 40
0
 40
0
 40
0
 40
1
 40
1
 40
1
 40
1
 10
27.713678
 20
39.271061
 30
0.0
 10
27.700768
 20
38.467115
 30
0.0
 10
28.538606
 20
38.206778
 30
0.0
 10
29.582847
 20
38.690243
 30
0.0
  0
LWPOLYLINE
  5
245
100
AcDbEntity
  8
Layer_1
 62
7
100
AcDbPolyline
 90
1
 70
1
 10
28.102403
 20
38.171153
 30
0.0
  0
SPLINE
  5
246
100
AcDbEntity
  8
Layer_1
 62
7
100
AcDbSpline
 70
8
 71
3
 72
8
 73
4
 74
0
 40
0
 40
0
 40
0
 40
0
 40
1
 40
1
 40
1
 40
1
 10
24.008481
 20
41.479221
 30
0.0
 10
22.035243
 20
41.897484
 30
0.0
 10
21.062051
 20
43.180120
 30
0.0
 10
21.049298
 20
45.379305
 30
0.0
  0
SPLINE
  5
247
100
AcDbEntity
  8
Layer_1
 62
7
100
AcDbSpline
 70
8
 71
3
 72
8
 73
4
 74
0
 40
0
 40
0
 40
0
 40
0
 40
1
 40
1
 40
1
 40
1
 10
21.049298
 20
45.379305
 30
0.0
 10
21.031668
 20
48.423571
 30
0.0
 10
22.226064
 20
49.286684
 30
0.0
 10
26.909868
 20
49.614281
 30
0.0
  0
LWPOLYLINE
  5
248
100
AcDbEntity
  8
Layer_1
 62
7
100
AcDbPolyline
 90
1
 70
1
 10
29.582847
 20
38.690243
 30
0.0
  0
SPLINE
  5
249
100
AcDbEntity
  8
Layer_1
 62
7
100
AcDbSpline
 70
8
 71
3
 72
8
 73
4
 74
0
 40
0
 40
0
 40
0
 40
0
 40
1
 40
1
 40
1
 40
1
 10
28.124856
 20
50.498411
 30
0.0
 10
28.124856
 20
51.874221
 30
0.0
 10
27.771585
 20
51.995390
 30
0.0
 10
24.389656
 20
51.779498
 30
0.0
  0
SPLINE
  5
24a
100
AcDbEntity
  8
Layer_1
 62
7
100
AcDbSpline
 70
8
 71
3
 72
8
 73
4
 74
0
 40
0
 40
0
 40
0
 40
0
 40
1
 40
1
 40
1
 40
1
 10
24.389656
 20
51.779498
 30
0.0
 10
23.213562
 20
51.704418
 30
0.0
 10
22.166933
 20
51.675371
 30
0.0
 10
22.063819
 20
51.714938
 30
0.0
  0
SPLINE
  5
24b
100
AcDbEntity
  8
Layer_1
 62
7
100
AcDbSpline
 70
8
 71
3
 72
8
 73
4
 74
0
 40
0
 40
0
 40
0
 40
0
 40
1
 40
1
 40
1
 40
1
 10
22.063819
 20
51.714938
 30
0.0
 10
21.927195
 20
51.767368
 30
0.0
 10
21.876341
 20
52.100359
 30
0.0
 10
21.876341
 20
52.942459
 30
0.0
  0
LWPOLYLINE
  5
24c
100
AcDbEntity
  8
Layer_1
 62
7
100
AcDbPolyline
 90
3
 70
0
 10
26.909868
 20
49.614281
 30
0.0
 10
28.124856
 20
49.699261
 30
0.0
 10
28.124856
 20
50.498411
 30
0.0
  0
SPLINE
  5
24d
100
AcDbEntity
  8
Layer_1
 62
7
100
AcDbSpline
 70
8
 71
3
 72
8
 73
4
 74
0
 40
0
 40
0
 40
0
 40
0
 40
1
 40
1
 40
1
 40
1
 10
22.605333
 20
54.247299
 30
0.0
 10
23.845008
 20
54.501134
 30
0.0
 10
26.215434
 20
54.806910
 30
0.0
 10
26.944584
 20
54.807046
 30
0.0
  0
SPLINE
  5
24e
100
AcDbEntity
  8
Layer_1
 62
7
100
AcDbSpline
 70
8
 71
3
 72
8
 73
4
 74
0
 40
0
 40
0
 40
0
 40
0
 40
1
 40
1
 40
1
 40
1
 10
26.944584
 20
54.807046
 30
0.0
 10
28.010201
 20
54.807251
 30
0.0
 10
29.427476
 20
54.456247
 30
0.0
 10
30.065273
 20
54.034174
 30
0.0
  0
SPLINE
  5
24f
100
AcDbEntity
  8
Layer_1
 62
7
100
AcDbSpline
 70
8
 71
3
 72
8
 73
4
 74
0
 40
0
 40
0
 40
0
 40
0
 40
1
 40
1
 40
1
 40
1
 10
30.065273
 20
54.034174
 30
0.0
 10
30.783150
 20
53.559111
 30
0.0
 10
31.252939
 20
52.764270
 30
0.0
 10
31.446689
 20
51.696953
 30
0.0
  0
SPLINE
  5
250
100
AcDbEntity
  8
Layer_1
 62
7
100
AcDbSpline
 70
8
 71
3
 72
8
 73
4
 74
0
 40
0
 40
0
 40
0
 40
0
 40
1
 40
1
 40
1
 40
1
 10
31.446689
 20
51.696953
 30
0.0
 10
31.528949
 20
51.243795
 30
0.0
 10
31.596260
 20
49.441178
 30
0.0
 10
31.596260
 20
47.691130
 30
0.0
  0
LWPOLYLINE
  5
251
100
AcDbEntity
  8
Layer_1
 62
7
100
AcDbPolyline
 90
3
 70
0
 10
21.876341
 20
52.942459
 30
0.0
 10
21.876341
 20
54.098033
 30
0.0
 10
22.605333
 20
54.247299
 30
0.0
  0
SPLINE
  5
252
100
AcDbEntity
  8
Layer_1
 62
7
100
AcDbSpline
 70
8
 71
3
 72
8
 73
4
 74
0
 40
0
 40
0
 40
0
 40
0
 40
1
 40
1
 40
1
 40
1
 10
32.012828
 20
44.120091
 30
0.0
 10
32.322051
 20
43.831230
 30
0.0
 10
32.426882
 20
43.611141
 30
0.0
 10
32.419634
 20
43.265963
 30
0.0
  0
SPLINE
  5
253
100
AcDbEntity
  8
Layer_1
 62
7
100
AcDbSpline
 70
8
 71
3
 72
8
 73
4
 74
0
 40
0
 40
0
 40
0
 40
0
 40
1
 40
1
 40
1
 40
1
 10
32.419634
 20
43.265963
 30
0.0
 10
32.398324
 20
42.250166
 30
0.0
 10
32.258203
 20
42.293295
 30
0.0
 10
31.387973
 20
43.583536
 30
0.0
  0
SPLINE
  5
254
100
AcDbEntity
  8
Layer_1
 62
7
100
AcDbSpline
 70
8
 71
3
 72
8
 73
4
 74
0
 40
0
 40
0
 40
0
 40
0
 40
1
 40
1
 40
1
 40
1
 10
31.387973
 20
43.583536
 30
0.0
 10
30.484113
 20
44.923644
 30
0.0
 10
30.202936
 20
45.101507
 30
0.0
 10
29.534601
 20
44.755899
 30
0.0
  0
SPLINE
  5
255
100
AcDbEntity
  8
Layer_1
 62
7
100
AcDbSpline
 70
8
 71
3
 72
8
 73
4
 74
0
 40
0
 40
0
 40
0
 40
0
 40
1
 40
1
 40
1
 40
1
 10
29.534601
 20
44.755899
 30
0.0
 10
29.211816
 20
44.588983
 30
0.0
 10
29.088145
 20
44.410542
 30
0.0
 10
29.021525
 20
44.015607
 30
0.0
  0
SPLINE
  5
256
100
AcDbEntity
  8
Layer_1
 62
7
100
AcDbSpline
 70
8
 71
3
 72
8
 73
4
 74
0
 40
0
 40
0
 40
0
 40
0
 40
1
 40
1
 40
1
 40
1
 10
29.021525
 20
44.015607
 30
0.0
 10
28.973245
 20
43.729407
 30
0.0
 10
28.907930
 20
43.401516
 30
0.0
 10
28.876379
 20
43.286955
 30
0.0
  0
SPLINE
  5
257
100
AcDbEntity
  8
Layer_1
 62
7
100
AcDbSpline
 70
8
 71
3
 72
8
 73
4
 74
0
 40
0
 40
0
 40
0
 40
0
 40
1
 40
1
 40
1
 40
1
 10
28.876379
 20
43.286955
 30
0.0
 10
28.844839
 20
43.172400
 30
0.0
 10
28.219049
 20
42.712881
 30
0.0
 10
27.485758
 20
42.265795
 30
0.0
  0
SPLINE
  5
258
100
AcDbEntity
  8
Layer_1
 62
7
100
AcDbSpline
 70
8
 71
3
 72
8
 73
4
 74
0
 40
0
 40
0
 40
0
 40
0
 40
1
 40
1
 40
1
 40
1
 10
27.485758
 20
42.265795
 30
0.0
 10
26.348799
 20
41.572600
 30
0.0
 10
26.037035
 20
41.445874
 30
0.0
 10
25.368264
 20
41.405070
 30
0.0
  0
SPLINE
  5
259
100
AcDbEntity
  8
Layer_1
 62
7
100
AcDbSpline
 70
8
 71
3
 72
8
 73
4
 74
0
 40
0
 40
0
 40
0
 40
0
 40
1
 40
1
 40
1
 40
1
 10
25.368264
 20
41.405070
 30
0.0
 10
24.936934
 20
41.378780
 30
0.0
 10
24.325031
 20
41.412070
 30
0.0
 10
24.008481
 20
41.479230
 30
0.0
  0
LWPOLYLINE
  5
25a
100
AcDbEntity
  8
Layer_1
 62
7
100
AcDbPolyline
 90
3
 70
0
 10
31.596260
 20
47.691130
 30
0.0
 10
31.596260
 20
44.509227
 30
0.0
 10
32.012828
 20
44.120091
 30
0.0
  0
SPLINE
  5
25b
100
AcDbEntity
  8
Layer_1
 62
7
100
AcDbSpline
 70
8
 71
3
 72
8
 73
4
 74
0
 40
0
 40
0
 40
0
 40
0
 40
1
 40
1
 40
1
 40
1
 10
26.794893
 20
44.264514
 30
0.0
 10
27.323529
 20
44.340924
 30
0.0
 10
27.839034
 20
44.472302
 30
0.0
 10
27.940453
 20
44.556476
 30
0.0
  0
SPLINE
  5
25c
100
AcDbEntity
  8
Layer_1
 62
7
100
AcDbSpline
 70
8
 71
3
 72
8
 73
4
 74
0
 40
0
 40
0
 40
0
 40
0
 40
1
 40
1
 40
1
 40
1
 10
27.940453
 20
44.556476
 30
0.0
 10
28.173401
 20
44.749800
 30
0.0
 10
28.203173
 20
47.125674
 30
0.0
 10
27.973623
 20
47.202196
 30
0.0
  0
SPLINE
  5
25d
100
AcDbEntity
  8
Layer_1
 62
7
100
AcDbSpline
 70
8
 71
3
 72
8
 73
4
 74
0
 40
0
 40
0
 40
0
 40
0
 40
1
 40
1
 40
1
 40
1
 10
27.973623
 20
47.202196
 30
0.0
 10
27.798510
 20
47.260566
 30
0.0
 10
25.286076
 20
46.956538
 30
0.0
 10
24.983245
 20
46.840329
 30
0.0
  0
SPLINE
  5
25e
100
AcDbEntity
  8
Layer_1
 62
7
100
AcDbSpline
 70
8
 71
3
 72
8
 73
4
 74
0
 40
0
 40
0
 40
0
 40
0
 40
1
 40
1
 40
1
 40
1
 10
24.983245
 20
46.840329
 30
0.0
 10
24.645991
 20
46.710911
 30
0.0
 10
24.346991
 20
45.812163
 30
0.0
 10
24.446081
 20
45.225677
 30
0.0
  0
SPLINE
  5
25f
100
AcDbEntity
  8
Layer_1
 62
7
100
AcDbSpline
 70
8
 71
3
 72
8
 73
4
 74
0
 40
0
 40
0
 40
0
 40
0
 40
1
 40
1
 40
1
 40
1
 10
24.446081
 20
45.225677
 30
0.0
 10
24.545751
 20
44.635717
 30
0.0
 10
24.833984
 20
44.314591
 30
0.0
 10
25.347757
 20
44.221086
 30
0.0
  0
SPLINE
  5
260
100
AcDbEntity
  8
Layer_1
 62
7
100
AcDbSpline
 70
8
 71
3
 72
8
 73
4
 74
0
 40
0
 40
0
 40
0
 40
0
 40
1
 40
1
 40
1
 40
1
 10
25.347757
 20
44.221086
 30
0.0
 10
25.538683
 20
44.186346
 30
0.0
 10
25.726140
 20
44.150636
 30
0.0
 10
25.764325
 20
44.141746
 30
0.0
  0
SPLINE
  5
261
100
AcDbEntity
  8
Layer_1
 62
7
100
AcDbSpline
 70
8
 71
3
 72
8
 73
4
 74
0
 40
0
 40
0
 40
0
 40
0
 40
1
 40
1
 40
1
 40
1
 10
25.764325
 20
44.141746
 30
0.0
 10
25.802535
 20
44.132846
 30
0.0
 10
26.266274
 20
44.188086
 30
0.0
 10
26.794910
 20
44.264510
 30
0.0
  0
LWPOLYLINE
  5
262
100
AcDbEntity
  8
Layer_1
 62
7
100
AcDbPolyline
 90
1
 70
1
 10
24.008481
 20
41.479230
 30
0.0
  0
SPLINE
  5
263
100
AcDbEntity
  8
Layer_1
 62
7
100
AcDbSpline
 70
8
 71
3
 72
8
 73
4
 74
0
 40
0
 40
0
 40
0
 40
0
 40
1
 40
1
 40
1
 40
1
 10
51.591519
 20
41.480328
 30
0.0
 10
49.339270
 20
41.765620
 30
0.0
 10
47.989364
 20
42.912351
 30
0.0
 10
47.499496
 20
44.956444
 30
0.0
  0
SPLINE
  5
264
100
AcDbEntity
  8
Layer_1
 62
7
100
AcDbSpline
 70
8
 71
3
 72
8
 73
4
 74
0
 40
0
 40
0
 40
0
 40
0
 40
1
 40
1
 40
1
 40
1
 10
47.499496
 20
44.956444
 30
0.0
 10
47.141901
 20
46.448606
 30
0.0
 10
47.076767
 20
48.714830
 30
0.0
 10
47.349935
 20
50.160320
 30
0.0
  0
SPLINE
  5
265
100
AcDbEntity
  8
Layer_1
 62
7
100
AcDbSpline
 70
8
 71
3
 72
8
 73
4
 74
0
 40
0
 40
0
 40
0
 40
0
 40
1
 40
1
 40
1
 40
1
 10
47.349935
 20
50.160320
 30
0.0
 10
47.875706
 20
52.942475
 30
0.0
 10
49.239603
 20
54.299697
 30
0.0
 10
51.869233
 20
54.657502
 30
0.0
  0
SPLINE
  5
266
100
AcDbEntity
  8
Layer_1
 62
7
100
AcDbSpline
 70
8
 71
3
 72
8
 73
4
 74
0
 40
0
 40
0
 40
0
 40
0
 40
1
 40
1
 40
1
 40
1
 10
51.869233
 20
54.657502
 30
0.0
 10
54.061039
 20
54.955730
 30
0.0
 10
55.945674
 20
54.393601
 30
0.0
 10
57.072447
 20
53.105528
 30
0.0
  0
SPLINE
  5
267
100
AcDbEntity
  8
Layer_1
 62
7
100
AcDbSpline
 70
8
 71
3
 72
8
 73
4
 74
0
 40
0
 40
0
 40
0
 40
0
 40
1
 40
1
 40
1
 40
1
 10
57.072447
 20
53.105528
 30
0.0
 10
58.022542
 20
52.019428
 30
0.0
 10
58.190245
 20
51.383684
 30
0.0
 10
58.171069
 20
48.940792
 30
0.0
  0
SPLINE
  5
268
100
AcDbEntity
  8
Layer_1
 62
7
100
AcDbSpline
 70
8
 71
3
 72
8
 73
4
 74
0
 40
0
 40
0
 40
0
 40
0
 40
1
 40
1
 40
1
 40
1
 10
58.171069
 20
48.940792
 30
0.0
 10
58.162169
 20
47.811821
 30
0.0
 10
58.115859
 20
46.849025
 30
0.0
 10
58.068075
 20
46.801246
 30
0.0
  0
SPLINE
  5
269
100
AcDbEntity
  8
Layer_1
 62
7
100
AcDbSpline
 70
8
 71
3
 72
8
 73
4
 74
0
 40
0
 40
0
 40
0
 40
0
 40
1
 40
1
 40
1
 40
1
 10
58.068075
 20
46.801246
 30
0.0
 10
58.020265
 20
46.753486
 30
0.0
 10
56.340442
 20
46.708646
 30
0.0
 10
54.335079
 20
46.701646
 30
0.0
  0
LWPOLYLINE
  5
26a
100
AcDbEntity
  8
Layer_1
 62
7
100
AcDbPolyline
 90
1
 70
1
 10
26.794910
 20
44.264510
 30
0.0
  0
SPLINE
  5
26b
100
AcDbEntity
  8
Layer_1
 62
7
100
AcDbSpline
 70
8
 71
3
 72
8
 73
4
 74
0
 40
0
 40
0
 40
0
 40
0
 40
1
 40
1
 40
1
 40
1
 10
50.645916
 20
46.316309
 30
0.0
 10
50.570266
 20
45.661441
 30
0.0
 10
50.983663
 20
45.100744
 30
0.0
 10
51.826713
 20
44.714783
 30
0.0
  0
SPLINE
  5
26c
100
AcDbEntity
  8
Layer_1
 62
7
100
AcDbSpline
 70
8
 71
3
 72
8
 73
4
 74
0
 40
0
 40
0
 40
0
 40
0
 40
1
 40
1
 40
1
 40
1
 10
51.826713
 20
44.714783
 30
0.0
 10
52.512251
 20
44.400931
 30
0.0
 10
52.768590
 20
44.363129
 30
0.0
 10
54.142674
 20
44.373242
 30
0.0
  0
SPLINE
  5
26d
100
AcDbEntity
  8
Layer_1
 62
7
100
AcDbSpline
 70
8
 71
3
 72
8
 73
4
 74
0
 40
0
 40
0
 40
0
 40
0
 40
1
 40
1
 40
1
 40
1
 10
54.142674
 20
44.373242
 30
0.0
 10
54.992483
 20
44.379442
 30
0.0
 10
56.145947
 20
44.450582
 30
0.0
 10
56.705930
 20
44.531194
 30
0.0
  0
SPLINE
  5
26e
100
AcDbEntity
  8
Layer_1
 62
7
100
AcDbSpline
 70
8
 71
3
 72
8
 73
4
 74
0
 40
0
 40
0
 40
0
 40
0
 40
1
 40
1
 40
1
 40
1
 10
56.705930
 20
44.531194
 30
0.0
 10
57.265913
 20
44.611814
 30
0.0
 10
57.781413
 20
44.642338
 30
0.0
 10
57.851491
 20
44.599034
 30
0.0
  0
SPLINE
  5
26f
100
AcDbEntity
  8
Layer_1
 62
7
100
AcDbSpline
 70
8
 71
3
 72
8
 73
4
 74
0
 40
0
 40
0
 40
0
 40
0
 40
1
 40
1
 40
1
 40
1
 10
57.851491
 20
44.599034
 30
0.0
 10
57.921571
 20
44.555734
 30
0.0
 10
57.978904
 20
43.967100
 30
0.0
 10
57.978904
 20
43.290987
 30
0.0
  0
LWPOLYLINE
  5
270
100
AcDbEntity
  8
Layer_1
 62
7
100
AcDbPolyline
 90
3
 70
0
 10
54.335079
 20
46.701646
 30
0.0
 10
50.688956
 20
46.688946
 30
0.0
 10
50.645916
 20
46.316309
 30
0.0
  0
SPLINE
  5
271
100
AcDbEntity
  8
Layer_1
 62
7
100
AcDbSpline
 70
8
 71
3
 72
8
 73
4
 74
0
 40
0
 40
0
 40
0
 40
0
 40
1
 40
1
 40
1
 40
1
 10
57.388766
 20
41.973002
 30
0.0
 10
57.064187
 20
41.924252
 30
0.0
 10
56.298746
 20
41.797206
 30
0.0
 10
55.687778
 20
41.690733
 30
0.0
  0
SPLINE
  5
272
100
AcDbEntity
  8
Layer_1
 62
7
100
AcDbSpline
 70
8
 71
3
 72
8
 73
4
 74
0
 40
0
 40
0
 40
0
 40
0
 40
1
 40
1
 40
1
 40
1
 10
55.687778
 20
41.690733
 30
0.0
 10
54.271882
 20
41.443983
 30
0.0
 10
52.569046
 20
41.356523
 30
0.0
 10
51.591524
 20
41.480352
 30
0.0
  0
LWPOLYLINE
  5
273
100
AcDbEntity
  8
Layer_1
 62
7
100
AcDbPolyline
 90
3
 70
0
 10
57.978904
 20
43.290987
 30
0.0
 10
57.978904
 20
42.061682
 30
0.0
 10
57.388766
 20
41.973002
 30
0.0
  0
SPLINE
  5
274
100
AcDbEntity
  8
Layer_1
 62
7
100
AcDbSpline
 70
8
 71
3
 72
8
 73
4
 74
0
 40
0
 40
0
 40
0
 40
0
 40
1
 40
1
 40
1
 40
1
 10
54.949139
 20
50.012287
 30
0.0
 10
54.860099
 20
51.387719
 30
0.0
 10
54.224775
 20
51.949602
 30
0.0
 10
52.747266
 20
51.959631
 30
0.0
  0
SPLINE
  5
275
100
AcDbEntity
  8
Layer_1
 62
7
100
AcDbSpline
 70
8
 71
3
 72
8
 73
4
 74
0
 40
0
 40
0
 40
0
 40
0
 40
1
 40
1
 40
1
 40
1
 10
52.747266
 20
51.959631
 30
0.0
 10
52.092156
 20
51.963831
 30
0.0
 10
51.797008
 20
51.897531
 30
0.0
 10
51.497562
 20
51.677866
 30
0.0
  0
SPLINE
  5
276
100
AcDbEntity
  8
Layer_1
 62
7
100
AcDbSpline
 70
8
 71
3
 72
8
 73
4
 74
0
 40
0
 40
0
 40
0
 40
0
 40
1
 40
1
 40
1
 40
1
 10
51.497562
 20
51.677866
 30
0.0
 10
50.967829
 20
51.289276
 30
0.0
 10
50.620006
 20
50.562776
 30
0.0
 10
50.619744
 20
49.844368
 30
0.0
  0
LWPOLYLINE
  5
277
100
AcDbEntity
  8
Layer_1
 62
7
100
AcDbPolyline
 90
1
 70
1
 10
51.591524
 20
41.480352
 30
0.0
  0
LWPOLYLINE
  5
278
100
AcDbEntity
  8
Layer_1
 62
7
100
AcDbPolyline
 90
5
 70
0
 10
50.619744
 20
49.844368
 30
0.0
 10
50.619529
 20
49.250708
 30
0.0
 10
52.806512
 20
49.288968
 30
0.0
 10
54.993490
 20
49.327228
 30
0.0
 10
54.949139
 20
50.012287
 30
0.0
  0
SPLINE
  5
279
100
AcDbEntity
  8
Layer_1
 62
7
100
AcDbSpline
 70
8
 71
3
 72
8
 73
4
 74
0
 40
0
 40
0
 40
0
 40
0
 40
1
 40
1
 40
1
 40
1
 10
0.384515
 20
47.869198
 30
0.0
 10
0.363315
 20
51.191330
 30
0.0
 10
0.380315
 20
54.050023
 30
0.0
 10
0.421885
 20
54.221862
 30
0.0
  0
SPLINE
  5
27a
100
AcDbEntity
  8
Layer_1
 62
7
100
AcDbSpline
 70
8
 71
3
 72
8
 73
4
 74
0
 40
0
 40
0
 40
0
 40
0
 40
1
 40
1
 40
1
 40
1
 10
0.421885
 20
54.221862
 30
0.0
 10
0.495135
 20
54.523308
 30
0.0
 10
0.553827
 20
54.534287
 30
0.0
 10
2.092004
 20
54.534287
 30
0.0
  0
SPLINE
  5
27b
100
AcDbEntity
  8
Layer_1
 62
7
100
AcDbSpline
 70
8
 71
3
 72
8
 73
4
 74
0
 40
0
 40
0
 40
0
 40
0
 40
1
 40
1
 40
1
 40
1
 10
2.092004
 20
54.534287
 30
0.0
 10
3.593632
 20
54.534287
 30
0.0
 10
3.686204
 20
54.518177
 30
0.0
 10
3.686204
 20
54.256573
 30
0.0
  0
SPLINE
  5
27c
100
AcDbEntity
  8
Layer_1
 62
7
100
AcDbSpline
 70
8
 71
3
 72
8
 73
4
 74
0
 40
0
 40
0
 40
0
 40
0
 40
1
 40
1
 40
1
 40
1
 10
3.686204
 20
54.256573
 30
0.0
 10
3.686204
 20
53.896196
 30
0.0
 10
3.877040
 20
53.906341
 30
0.0
 10
4.991973
 20
54.326003
 30
0.0
  0
SPLINE
  5
27d
100
AcDbEntity
  8
Layer_1
 62
7
100
AcDbSpline
 70
8
 71
3
 72
8
 73
4
 74
0
 40
0
 40
0
 40
0
 40
0
 40
1
 40
1
 40
1
 40
1
 10
4.991973
 20
54.326003
 30
0.0
 10
6.588760
 20
54.927037
 30
0.0
 10
8.456665
 20
54.762619
 30
0.0
 10
9.555769
 20
53.924287
 30
0.0
  0
LWPOLYLINE
  5
27e
100
AcDbEntity
  8
Layer_1
 62
7
100
AcDbPolyline
 90
3
 70
0
 10
1.533935
 20
41.750285
 30
0.0
 10
0.423085
 20
41.828965
 30
0.0
 10
0.384515
 20
47.869198
 30
0.0
  0
SPLINE
  5
27f
100
AcDbEntity
  8
Layer_1
 62
7
100
AcDbSpline
 70
8
 71
3
 72
8
 73
4
 74
0
 40
0
 40
0
 40
0
 40
0
 40
1
 40
1
 40
1
 40
1
 10
10.921488
 20
53.984787
 30
0.0
 10
13.383960
 20
55.069680
 30
0.0
 10
16.126392
 20
54.958425
 30
0.0
 10
17.378232
 20
53.722860
 30
0.0
  0
SPLINE
  5
280
100
AcDbEntity
  8
Layer_1
 62
7
100
AcDbSpline
 70
8
 71
3
 72
8
 73
4
 74
0
 40
0
 40
0
 40
0
 40
0
 40
1
 40
1
 40
1
 40
1
 10
17.378232
 20
53.722860
 30
0.0
 10
17.886631
 20
53.221068
 30
0.0
 10
18.392448
 20
52.080634
 30
0.0
 10
18.538933
 20
51.105905
 30
0.0
  0
SPLINE
  5
281
100
AcDbEntity
  8
Layer_1
 62
7
100
AcDbSpline
 70
8
 71
3
 72
8
 73
4
 74
0
 40
0
 40
0
 40
0
 40
0
 40
1
 40
1
 40
1
 40
1
 10
18.538933
 20
51.105905
 30
0.0
 10
18.705623
 20
49.996703
 30
0.0
 10
18.869464
 20
43.215558
 30
0.0
 10
18.748983
 20
42.412131
 30
0.0
  0
LWPOLYLINE
  5
282
100
AcDbEntity
  8
Layer_1
 62
7
100
AcDbPolyline
 90
3
 70
0
 10
9.555769
 20
53.924287
 30
0.0
 10
10.005521
 20
53.581245
 30
0.0
 10
10.921488
 20
53.984787
 30
0.0
  0
SPLINE
  5
283
100
AcDbEntity
  8
Layer_1
 62
7
100
AcDbSpline
 70
8
 71
3
 72
8
 73
4
 74
0
 40
0
 40
0
 40
0
 40
0
 40
1
 40
1
 40
1
 40
1
 10
15.350105
 20
45.640674
 30
0.0
 10
15.350105
 20
49.866749
 30
0.0
 10
15.246948
 20
50.762102
 30
0.0
 10
14.696633
 20
51.312417
 30
0.0
  0
SPLINE
  5
284
100
AcDbEntity
  8
Layer_1
 62
7
100
AcDbSpline
 70
8
 71
3
 72
8
 73
4
 74
0
 40
0
 40
0
 40
0
 40
0
 40
1
 40
1
 40
1
 40
1
 10
14.696633
 20
51.312417
 30
0.0
 10
14.371014
 20
51.638036
 30
0.0
 10
14.292592
 20
51.651728
 30
0.0
 10
13.150873
 20
51.582354
 30
0.0
  0
SPLINE
  5
285
100
AcDbEntity
  8
Layer_1
 62
7
100
AcDbSpline
 70
8
 71
3
 72
8
 73
4
 74
0
 40
0
 40
0
 40
0
 40
0
 40
1
 40
1
 40
1
 40
1
 10
13.150873
 20
51.582354
 30
0.0
 10
12.489365
 20
51.542154
 30
0.0
 10
11.770863
 20
51.439553
 30
0.0
 10
11.554201
 20
51.354350
 30
0.0
  0
LWPOLYLINE
  5
286
100
AcDbEntity
  8
Layer_1
 62
7
100
AcDbPolyline
 90
5
 70
0
 10
18.748983
 20
42.412131
 30
0.0
 10
18.651113
 20
41.759540
 30
0.0
 10
17.000612
 20
41.759540
 30
0.0
 10
15.350105
 20
41.759540
 30
0.0
 10
15.350105
 20
45.640674
 30
0.0
  0
SPLINE
  5
287
100
AcDbEntity
  8
Layer_1
 62
7
100
AcDbSpline
 70
8
 71
3
 72
8
 73
4
 74
0
 40
0
 40
0
 40
0
 40
0
 40
1
 40
1
 40
1
 40
1
 10
11.261131
 20
46.843780
 30
0.0
 10
11.316611
 20
44.448174
 30
0.0
 10
11.320851
 20
42.324194
 30
0.0
 10
11.270531
 20
42.123832
 30
0.0
  0
LWPOLYLINE
  5
288
100
AcDbEntity
  8
Layer_1
 62
7
100
AcDbPolyline
 90
3
 70
0
 10
11.554201
 20
51.354350
 30
0.0
 10
11.160268
 20
51.199431
 30
0.0
 10
11.261131
 20
46.843780
 30
0.0
  0
SPLINE
  5
289
100
AcDbEntity
  8
Layer_1
 62
7
100
AcDbSpline
 70
8
 71
3
 72
8
 73
4
 74
0
 40
0
 40
0
 40
0
 40
0
 40
1
 40
1
 40
1
 40
1
 10
7.851882
 20
45.640729
 30
0.0
 10
7.851882
 20
50.863445
 30
0.0
 10
7.690619
 20
51.479719
 30
0.0
 10
6.268105
 20
51.693038
 30
0.0
  0
SPLINE
  5
28a
100
AcDbEntity
  8
Layer_1
 62
7
100
AcDbSpline
 70
8
 71
3
 72
8
 73
4
 74
0
 40
0
 40
0
 40
0
 40
0
 40
1
 40
1
 40
1
 40
1
 10
6.268105
 20
51.693038
 30
0.0
 10
5.722885
 20
51.774798
 30
0.0
 10
4.050662
 20
51.474182
 30
0.0
 10
3.832524
 20
51.255189
 30
0.0
  0
SPLINE
  5
28b
100
AcDbEntity
  8
Layer_1
 62
7
100
AcDbSpline
 70
8
 71
3
 72
8
 73
4
 74
0
 40
0
 40
0
 40
0
 40
0
 40
1
 40
1
 40
1
 40
1
 10
3.832524
 20
51.255189
 30
0.0
 10
3.790224
 20
51.212729
 30
0.0
 10
3.777914
 20
49.132458
 30
0.0
 10
3.805184
 20
46.632352
 30
0.0
  0
SPLINE
  5
28c
100
AcDbEntity
  8
Layer_1
 62
7
100
AcDbSpline
 70
8
 71
3
 72
8
 73
4
 74
0
 40
0
 40
0
 40
0
 40
0
 40
1
 40
1
 40
1
 40
1
 10
3.805184
 20
46.632352
 30
0.0
 10
3.849954
 20
42.521614
 30
0.0
 10
3.832424
 20
42.064405
 30
0.0
 10
3.621694
 20
41.853688
 30
0.0
  0
SPLINE
  5
28d
100
AcDbEntity
  8
Layer_1
 62
7
100
AcDbSpline
 70
8
 71
3
 72
8
 73
4
 74
0
 40
0
 40
0
 40
0
 40
0
 40
1
 40
1
 40
1
 40
1
 10
3.621694
 20
41.853688
 30
0.0
 10
3.493541
 20
41.725535
 30
0.0
 10
3.221311
 20
41.632140
 30
0.0
 10
3.016751
 20
41.646142
 30
0.0
  0
SPLINE
  5
28e
100
AcDbEntity
  8
Layer_1
 62
7
100
AcDbSpline
 70
8
 71
3
 72
8
 73
4
 74
0
 40
0
 40
0
 40
0
 40
0
 40
1
 40
1
 40
1
 40
1
 10
3.016751
 20
41.646142
 30
0.0
 10
2.812185
 20
41.660152
 30
0.0
 10
2.144931
 20
41.707012
 30
0.0
 10
1.533963
 20
41.750285
 30
0.0
  0
LWPOLYLINE
  5
28f
100
AcDbEntity
  8
Layer_1
 62
7
100
AcDbPolyline
 90
5
 70
0
 10
11.270531
 20
42.123832
 30
0.0
 10
11.179101
 20
41.759540
 30
0.0
 10
9.515509
 20
41.759540
 30
0.0
 10
7.851882
 20
41.759540
 30
0.0
 10
7.851882
 20
45.640729
 30
0.0
  0
LWPOLYLINE
  5
290
100
AcDbEntity
  8
Layer_1
 62
7
100
AcDbPolyline
 90
1
 70
1
 10
1.533963
 20
41.750285
 30
0.0
  0
SPLINE
  5
291
100
AcDbEntity
  8
Layer_1
 62
7
100
AcDbSpline
 70
8
 71
3
 72
8
 73
4
 74
0
 40
0
 40
0
 40
0
 40
0
 40
1
 40
1
 40
1
 40
1
 10
38.853223
 20
49.483639
 30
0.0
 10
39.176842
 20
49.533029
 30
0.0
 10
39.509414
 20
49.626434
 30
0.0
 10
39.592271
 20
49.691264
 30
0.0
  0
SPLINE
  5
292
100
AcDbEntity
  8
Layer_1
 62
7
100
AcDbSpline
 70
8
 71
3
 72
8
 73
4
 74
0
 40
0
 40
0
 40
0
 40
0
 40
1
 40
1
 40
1
 40
1
 10
39.592271
 20
49.691264
 30
0.0
 10
39.675131
 20
49.756094
 30
0.0
 10
40.259421
 20
50.814195
 30
0.0
 10
40.890709
 20
52.042597
 30
0.0
  0
SPLINE
  5
293
100
AcDbEntity
  8
Layer_1
 62
7
100
AcDbSpline
 70
8
 71
3
 72
8
 73
4
 74
0
 40
0
 40
0
 40
0
 40
0
 40
1
 40
1
 40
1
 40
1
 10
40.890709
 20
52.042597
 30
0.0
 10
41.521993
 20
53.270999
 30
0.0
 10
42.113601
 20
54.304875
 30
0.0
 10
42.205395
 20
54.340100
 30
0.0
  0
SPLINE
  5
294
100
AcDbEntity
  8
Layer_1
 62
7
100
AcDbSpline
 70
8
 71
3
 72
8
 73
4
 74
0
 40
0
 40
0
 40
0
 40
0
 40
1
 40
1
 40
1
 40
1
 10
42.205395
 20
54.340100
 30
0.0
 10
42.297185
 20
54.375320
 30
0.0
 10
43.161878
 20
54.386550
 30
0.0
 10
44.126925
 20
54.365080
 30
0.0
  0
LWPOLYLINE
  5
295
100
AcDbEntity
  8
Layer_1
 62
7
100
AcDbPolyline
 90
7
 70
0
 10
35.067658
 20
50.646320
 30
0.0
 10
35.067658
 20
59.542198
 30
0.0
 10
36.629787
 20
59.502938
 30
0.0
 10
38.191917
 20
59.463678
 30
0.0
 10
38.228337
 20
54.428786
 30
0.0
 10
38.264817
 20
49.393889
 30
0.0
 10
38.853223
 20
49.483639
 30
0.0
  0
SPLINE
  5
296
100
AcDbEntity
  8
Layer_1
 62
7
100
AcDbSpline
 70
8
 71
3
 72
8
 73
4
 74
0
 40
0
 40
0
 40
0
 40
0
 40
1
 40
1
 40
1
 40
1
 10
44.293153
 20
51.451356
 30
0.0
 10
43.419528
 20
49.870287
 30
0.0
 10
42.704742
 20
48.510226
 30
0.0
 10
42.704742
 20
48.429001
 30
0.0
  0
SPLINE
  5
297
100
AcDbEntity
  8
Layer_1
 62
7
100
AcDbSpline
 70
8
 71
3
 72
8
 73
4
 74
0
 40
0
 40
0
 40
0
 40
0
 40
1
 40
1
 40
1
 40
1
 10
42.704742
 20
48.429001
 30
0.0
 10
42.704742
 20
48.347771
 30
0.0
 10
43.390653
 20
46.971063
 30
0.0
 10
44.228995
 20
45.369646
 30
0.0
  0
SPLINE
  5
298
100
AcDbEntity
  8
Layer_1
 62
7
100
AcDbSpline
 70
8
 71
3
 72
8
 73
4
 74
0
 40
0
 40
0
 40
0
 40
0
 40
1
 40
1
 40
1
 40
1
 10
44.228995
 20
45.369646
 30
0.0
 10
45.067332
 20
43.768230
 30
0.0
 10
45.793153
 20
42.298972
 30
0.0
 10
45.841929
 20
42.104624
 30
0.0
  0
LWPOLYLINE
  5
299
100
AcDbEntity
  8
Layer_1
 62
7
100
AcDbPolyline
 90
3
 70
0
 10
44.126925
 20
54.365080
 30
0.0
 10
45.881563
 20
54.326030
 30
0.0
 10
44.293153
 20
51.451356
 30
0.0
  0
SPLINE
  5
29a
100
AcDbEntity
  8
Layer_1
 62
7
100
AcDbSpline
 70
8
 71
3
 72
8
 73
4
 74
0
 40
0
 40
0
 40
0
 40
0
 40
1
 40
1
 40
1
 40
1
 10
41.035277
 20
44.189509
 30
0.0
 10
39.864373
 20
46.443825
 30
0.0
 10
39.789120
 20
46.552083
 30
0.0
 10
39.363195
 20
46.595002
 30
0.0
  0
SPLINE
  5
29b
100
AcDbEntity
  8
Layer_1
 62
7
100
AcDbSpline
 70
8
 71
3
 72
8
 73
4
 74
0
 40
0
 40
0
 40
0
 40
0
 40
1
 40
1
 40
1
 40
1
 10
39.363195
 20
46.595002
 30
0.0
 10
39.117899
 20
46.619722
 30
0.0
 10
38.771141
 20
46.603302
 30
0.0
 10
38.592622
 20
46.558472
 30
0.0
  0
SPLINE
  5
29c
100
AcDbEntity
  8
Layer_1
 62
7
100
AcDbSpline
 70
8
 71
3
 72
8
 73
4
 74
0
 40
0
 40
0
 40
0
 40
0
 40
1
 40
1
 40
1
 40
1
 10
38.592622
 20
46.558472
 30
0.0
 10
38.270567
 20
46.477642
 30
0.0
 10
38.267748
 20
46.458942
 30
0.0
 10
38.229983
 20
44.152974
 30
0.0
  0
LWPOLYLINE
  5
29d
100
AcDbEntity
  8
Layer_1
 62
7
100
AcDbPolyline
 90
5
 70
0
 10
45.841929
 20
42.104624
 30
0.0
 10
45.930609
 20
41.751275
 30
0.0
 10
44.095990
 20
41.790115
 30
0.0
 10
42.261364
 20
41.828955
 30
0.0
 10
41.035277
 20
44.189509
 30
0.0
  0
SPLINE
  5
29e
100
AcDbEntity
  8
Layer_1
 62
7
100
AcDbSpline
 70
8
 71
3
 72
8
 73
4
 74
0
 40
0
 40
0
 40
0
 40
0
 40
1
 40
1
 40
1
 40
1
 10
60.848587
 20
41.852109
 30
0.0
 10
60.797677
 20
41.903019
 30
0.0
 10
60.756017
 20
42.809058
 30
0.0
 10
60.756017
 20
43.865516
 30
0.0
  0
LWPOLYLINE
  5
29f
100
AcDbEntity
  8
Layer_1
 62
7
100
AcDbPolyline
 90
5
 70
0
 10
38.229983
 20
44.152974
 30
0.0
 10
38.191933
 20
41.828941
 30
0.0
 10
36.629803
 20
41.789681
 30
0.0
 10
35.067675
 20
41.750421
 30
0.0
 10
35.067658
 20
50.646320
 30
0.0
  0
SPLINE
  5
2a0
100
AcDbEntity
  8
Layer_1
 62
7
100
AcDbSpline
 70
8
 71
3
 72
8
 73
4
 74
0
 40
0
 40
0
 40
0
 40
0
 40
1
 40
1
 40
1
 40
1
 10
62.584288
 20
41.759537
 30
0.0
 10
61.680570
 20
41.759537
 30
0.0
 10
60.899506
 20
41.801207
 30
0.0
 10
60.848589
 20
41.852107
 30
0.0
  0
LWPOLYLINE
  5
2a1
100
AcDbEntity
  8
Layer_1
 62
7
100
AcDbPolyline
 90
7
 70
0
 10
60.756017
 20
43.865516
 30
0.0
 10
60.756017
 20
45.786358
 30
0.0
 10
62.491717
 20
45.786358
 30
0.0
 10
64.227421
 20
45.786358
 30
0.0
 10
64.227421
 20
43.772950
 30
0.0
 10
64.227421
 20
41.759537
 30
0.0
 10
62.584288
 20
41.759537
 30
0.0
  0
SPLINE
  5
2a2
100
AcDbEntity
  8
Layer_1
 62
7
100
AcDbSpline
 70
8
 71
3
 72
8
 73
4
 74
0
 40
0
 40
0
 40
0
 40
0
 40
1
 40
1
 40
1
 40
1
 10
19.654122
 20
50.577518
 30
0.0
 10
19.336974
 20
50.959658
 30
0.0
 10
19.231697
 20
52.933931
 30
0.0
 10
19.458976
 20
54.237234
 30
0.0
  0
SPLINE
  5
2a3
100
AcDbEntity
  8
Layer_1
 62
7
100
AcDbSpline
 70
8
 71
3
 72
8
 73
4
 74
0
 40
0
 40
0
 40
0
 40
0
 40
1
 40
1
 40
1
 40
1
 10
19.458976
 20
54.237234
 30
0.0
 10
19.768614
 20
56.012845
 30
0.0
 10
20.596911
 20
57.306016
 30
0.0
 10
22.040213
 20
58.267185
 30
0.0
  0
SPLINE
  5
2a4
100
AcDbEntity
  8
Layer_1
 62
7
100
AcDbSpline
 70
8
 71
3
 72
8
 73
4
 74
0
 40
0
 40
0
 40
0
 40
0
 40
1
 40
1
 40
1
 40
1
 10
22.040213
 20
58.267185
 30
0.0
 10
22.745972
 20
58.737185
 30
0.0
 10
22.981014
 20
58.789451
 30
0.0
 10
23.237126
 20
58.533339
 30
0.0
  0
SPLINE
  5
2a5
100
AcDbEntity
  8
Layer_1
 62
7
100
AcDbSpline
 70
8
 71
3
 72
8
 73
4
 74
0
 40
0
 40
0
 40
0
 40
0
 40
1
 40
1
 40
1
 40
1
 10
23.237126
 20
58.533339
 30
0.0
 10
23.589463
 20
58.181002
 30
0.0
 10
23.415451
 20
57.775719
 30
0.0
 10
22.674761
 20
57.223562
 30
0.0
  0
SPLINE
  5
2a6
100
AcDbEntity
  8
Layer_1
 62
7
100
AcDbSpline
 70
8
 71
3
 72
8
 73
4
 74
0
 40
0
 40
0
 40
0
 40
0
 40
1
 40
1
 40
1
 40
1
 10
22.674761
 20
57.223562
 30
0.0
 10
21.870069
 20
56.623697
 30
0.0
 10
21.151688
 20
55.552801
 30
0.0
 10
20.830546
 20
54.474369
 30
0.0
  0
SPLINE
  5
2a7
100
AcDbEntity
  8
Layer_1
 62
7
100
AcDbSpline
 70
8
 71
3
 72
8
 73
4
 74
0
 40
0
 40
0
 40
0
 40
0
 40
1
 40
1
 40
1
 40
1
 10
20.830546
 20
54.474369
 30
0.0
 10
20.704518
 20
54.051147
 30
0.0
 10
20.626637
 20
53.199926
 30
0.0
 10
20.626637
 20
52.245732
 30
0.0
  0
SPLINE
  5
2a8
100
AcDbEntity
  8
Layer_1
 62
7
100
AcDbSpline
 70
8
 71
3
 72
8
 73
4
 74
0
 40
0
 40
0
 40
0
 40
0
 40
1
 40
1
 40
1
 40
1
 10
20.626637
 20
52.245732
 30
0.0
 10
20.626637
 20
50.666085
 30
0.0
 10
20.536907
 20
50.368606
 30
0.0
 10
20.060440
 20
50.368606
 30
0.0
  0
SPLINE
  5
2a9
100
AcDbEntity
  8
Layer_1
 62
7
100
AcDbSpline
 70
8
 71
3
 72
8
 73
4
 74
0
 40
0
 40
0
 40
0
 40
0
 40
1
 40
1
 40
1
 40
1
 10
20.060440
 20
50.368606
 30
0.0
 10
19.932323
 20
50.368606
 30
0.0
 10
19.749480
 20
50.462616
 30
0.0
 10
19.654122
 20
50.577518
 30
0.0
  0
LWPOLYLINE
  5
2aa
100
AcDbEntity
  8
Layer_1
 62
7
100
AcDbPolyline
 90
1
 70
1
 10
60.848589
 20
41.852107
 30
0.0
  0
SPLINE
  5
2ab
100
AcDbEntity
  8
Layer_1
 62
7
100
AcDbSpline
 70
8
 71
3
 72
8
 73
4
 74
0
 40
0
 40
0
 40
0
 40
0
 40
1
 40
1
 40
1
 40
1
 10
32.994926
 20
50.564708
 30
0.0
 10
32.883571
 20
50.698881
 30
0.0
 10
32.860753
 20
51.082559
 30
0.0
 10
32.922676
 20
51.779696
 30
0.0
  0
SPLINE
  5
2ac
100
AcDbEntity
  8
Layer_1
 62
7
100
AcDbSpline
 70
8
 71
3
 72
8
 73
4
 74
0
 40
0
 40
0
 40
0
 40
0
 40
1
 40
1
 40
1
 40
1
 10
32.922676
 20
51.779696
 30
0.0
 10
33.086270
 20
53.621517
 30
0.0
 10
32.279516
 20
56.120553
 30
0.0
 10
31.297575
 20
56.813648
 30
0.0
  0
SPLINE
  5
2ad
100
AcDbEntity
  8
Layer_1
 62
7
100
AcDbSpline
 70
8
 71
3
 72
8
 73
4
 74
0
 40
0
 40
0
 40
0
 40
0
 40
1
 40
1
 40
1
 40
1
 10
31.297575
 20
56.813648
 30
0.0
 10
31.118185
 20
56.940273
 30
0.0
 10
30.753143
 20
57.184372
 30
0.0
 10
30.486371
 20
57.356092
 30
0.0
  0
SPLINE
  5
2ae
100
AcDbEntity
  8
Layer_1
 62
7
100
AcDbSpline
 70
8
 71
3
 72
8
 73
4
 74
0
 40
0
 40
0
 40
0
 40
0
 40
1
 40
1
 40
1
 40
1
 10
30.486371
 20
57.356092
 30
0.0
 10
29.917855
 20
57.722045
 30
0.0
 10
29.811234
 20
58.060876
 30
0.0
 10
30.147622
 20
58.432582
 30
0.0
  0
SPLINE
  5
2af
100
AcDbEntity
  8
Layer_1
 62
7
100
AcDbSpline
 70
8
 71
3
 72
8
 73
4
 74
0
 40
0
 40
0
 40
0
 40
0
 40
1
 40
1
 40
1
 40
1
 10
30.147622
 20
58.432582
 30
0.0
 10
30.487195
 20
58.807804
 30
0.0
 10
30.842450
 20
58.767112
 30
0.0
 10
31.628017
 20
58.263015
 30
0.0
  0
SPLINE
  5
2b0
100
AcDbEntity
  8
Layer_1
 62
7
100
AcDbSpline
 70
8
 71
3
 72
8
 73
4
 74
0
 40
0
 40
0
 40
0
 40
0
 40
1
 40
1
 40
1
 40
1
 10
31.628017
 20
58.263015
 30
0.0
 10
32.528019
 20
57.685485
 30
0.0
 10
33.154464
 20
56.838047
 30
0.0
 10
33.701610
 20
55.457922
 30
0.0
  0
SPLINE
  5
2b1
100
AcDbEntity
  8
Layer_1
 62
7
100
AcDbSpline
 70
8
 71
3
 72
8
 73
4
 74
0
 40
0
 40
0
 40
0
 40
0
 40
1
 40
1
 40
1
 40
1
 10
33.701610
 20
55.457922
 30
0.0
 10
34.117102
 20
54.409876
 30
0.0
 10
34.150900
 20
54.202524
 30
0.0
 10
34.157727
 20
52.659724
 30
0.0
  0
SPLINE
  5
2b2
100
AcDbEntity
  8
Layer_1
 62
7
100
AcDbSpline
 70
8
 71
3
 72
8
 73
4
 74
0
 40
0
 40
0
 40
0
 40
0
 40
1
 40
1
 40
1
 40
1
 10
34.157727
 20
52.659724
 30
0.0
 10
34.165827
 20
50.827328
 30
0.0
 10
34.030723
 20
50.368602
 30
0.0
 10
33.482932
 20
50.368602
 30
0.0
  0
SPLINE
  5
2b3
100
AcDbEntity
  8
Layer_1
 62
7
100
AcDbSpline
 70
8
 71
3
 72
8
 73
4
 74
0
 40
0
 40
0
 40
0
 40
0
 40
1
 40
1
 40
1
 40
1
 10
33.482932
 20
50.368602
 30
0.0
 10
33.304045
 20
50.368602
 30
0.0
 10
33.084444
 20
50.456852
 30
0.0
 10
32.994927
 20
50.564708
 30
0.0
  0
LWPOLYLINE
  5
2b4
100
AcDbEntity
  8
Layer_1
 62
7
100
AcDbPolyline
 90
1
 70
1
 10
19.654122
 20
50.577518
 30
0.0
  0
SPLINE
  5
2b5
100
AcDbEntity
  8
Layer_1
 62
7
100
AcDbSpline
 70
8
 71
3
 72
8
 73
4
 74
0
 40
0
 40
0
 40
0
 40
0
 40
1
 40
1
 40
1
 40
1
 10
24.970637
 20
56.369899
 30
0.0
 10
24.893407
 20
56.467689
 30
0.0
 10
24.787305
 20
56.828347
 30
0.0
 10
24.734840
 20
57.171361
 30
0.0
  0
SPLINE
  5
2b6
100
AcDbEntity
  8
Layer_1
 62
7
100
AcDbSpline
 70
8
 71
3
 72
8
 73
4
 74
0
 40
0
 40
0
 40
0
 40
0
 40
1
 40
1
 40
1
 40
1
 10
24.734840
 20
57.171361
 30
0.0
 10
24.603296
 20
58.031446
 30
0.0
 10
24.136656
 20
58.910470
 30
0.0
 10
23.512064
 20
59.474751
 30
0.0
  0
SPLINE
  5
2b7
100
AcDbEntity
  8
Layer_1
 62
7
100
AcDbSpline
 70
8
 71
3
 72
8
 73
4
 74
0
 40
0
 40
0
 40
0
 40
0
 40
1
 40
1
 40
1
 40
1
 10
23.512064
 20
59.474751
 30
0.0
 10
22.992659
 20
59.944003
 30
0.0
 10
22.970906
 20
59.949670
 30
0.0
 10
21.689178
 20
59.949670
 30
0.0
  0
SPLINE
  5
2b8
100
AcDbEntity
  8
Layer_1
 62
7
100
AcDbSpline
 70
8
 71
3
 72
8
 73
4
 74
0
 40
0
 40
0
 40
0
 40
0
 40
1
 40
1
 40
1
 40
1
 10
21.689178
 20
59.949670
 30
0.0
 10
20.568309
 20
59.949670
 30
0.0
 10
20.357797
 20
59.911920
 30
0.0
 10
20.140636
 20
59.671958
 30
0.0
  0
SPLINE
  5
2b9
100
AcDbEntity
  8
Layer_1
 62
7
100
AcDbSpline
 70
8
 71
3
 72
8
 73
4
 74
0
 40
0
 40
0
 40
0
 40
0
 40
1
 40
1
 40
1
 40
1
 10
20.140636
 20
59.671958
 30
0.0
 10
19.801299
 20
59.296992
 30
0.0
 10
19.453471
 20
59.322562
 30
0.0
 10
19.119592
 20
59.747018
 30
0.0
  0
SPLINE
  5
2ba
100
AcDbEntity
  8
Layer_1
 62
7
100
AcDbSpline
 70
8
 71
3
 72
8
 73
4
 74
0
 40
0
 40
0
 40
0
 40
0
 40
1
 40
1
 40
1
 40
1
 10
19.119592
 20
59.747018
 30
0.0
 10
18.636709
 20
60.360908
 30
0.0
 10
18.366804
 20
62.216544
 30
0.0
 10
18.710424
 20
62.560161
 30
0.0
  0
SPLINE
  5
2bb
100
AcDbEntity
  8
Layer_1
 62
7
100
AcDbSpline
 70
8
 71
3
 72
8
 73
4
 74
0
 40
0
 40
0
 40
0
 40
0
 40
1
 40
1
 40
1
 40
1
 10
18.710424
 20
62.560161
 30
0.0
 10
18.883936
 20
62.733676
 30
0.0
 10
20.025068
 20
62.789061
 30
0.0
 10
20.406993
 20
62.642501
 30
0.0
  0
SPLINE
  5
2bc
100
AcDbEntity
  8
Layer_1
 62
7
100
AcDbSpline
 70
8
 71
3
 72
8
 73
4
 74
0
 40
0
 40
0
 40
0
 40
0
 40
1
 40
1
 40
1
 40
1
 10
20.406993
 20
62.642501
 30
0.0
 10
20.557036
 20
62.584921
 30
0.0
 10
20.626637
 20
62.380771
 30
0.0
 10
20.626637
 20
61.998222
 30
0.0
  0
LWPOLYLINE
  5
2bd
100
AcDbEntity
  8
Layer_1
 62
7
100
AcDbPolyline
 90
1
 70
1
 10
32.994927
 20
50.564708
 30
0.0
  0
SPLINE
  5
2be
100
AcDbEntity
  8
Layer_1
 62
7
100
AcDbSpline
 70
8
 71
3
 72
8
 73
4
 74
0
 40
0
 40
0
 40
0
 40
0
 40
1
 40
1
 40
1
 40
1
 10
21.381602
 20
61.516148
 30
0.0
 10
21.796837
 20
61.559008
 30
0.0
 10
22.687251
 20
61.824185
 30
0.0
 10
23.360304
 20
62.105441
 30
0.0
  0
SPLINE
  5
2bf
100
AcDbEntity
  8
Layer_1
 62
7
100
AcDbSpline
 70
8
 71
3
 72
8
 73
4
 74
0
 40
0
 40
0
 40
0
 40
0
 40
1
 40
1
 40
1
 40
1
 10
23.360304
 20
62.105441
 30
0.0
 10
24.504212
 20
62.583460
 30
0.0
 10
24.701766
 20
62.621331
 30
0.0
 10
26.389157
 20
62.686063
 30
0.0
  0
SPLINE
  5
2c0
100
AcDbEntity
  8
Layer_1
 62
7
100
AcDbSpline
 70
8
 71
3
 72
8
 73
4
 74
0
 40
0
 40
0
 40
0
 40
0
 40
1
 40
1
 40
1
 40
1
 10
26.389157
 20
62.686063
 30
0.0
 10
27.881328
 20
62.743303
 30
0.0
 10
28.302620
 20
62.713843
 30
0.0
 10
28.819138
 20
62.516156
 30
0.0
  0
SPLINE
  5
2c1
100
AcDbEntity
  8
Layer_1
 62
7
100
AcDbSpline
 70
8
 71
3
 72
8
 73
4
 74
0
 40
0
 40
0
 40
0
 40
0
 40
1
 40
1
 40
1
 40
1
 10
28.819138
 20
62.516156
 30
0.0
 10
30.857364
 20
61.736048
 30
0.0
 10
32.262721
 20
61.297837
 30
0.0
 10
32.470551
 20
61.377591
 30
0.0
  0
SPLINE
  5
2c2
100
AcDbEntity
  8
Layer_1
 62
7
100
AcDbSpline
 70
8
 71
3
 72
8
 73
4
 74
0
 40
0
 40
0
 40
0
 40
0
 40
1
 40
1
 40
1
 40
1
 10
32.470551
 20
61.377591
 30
0.0
 10
32.645712
 20
61.444801
 30
0.0
 10
32.707104
 20
61.633319
 30
0.0
 10
32.707104
 20
62.103919
 30
0.0
  0
LWPOLYLINE
  5
2c3
100
AcDbEntity
  8
Layer_1
 62
7
100
AcDbPolyline
 90
3
 70
0
 10
20.626637
 20
61.998222
 30
0.0
 10
20.626637
 20
61.438228
 30
0.0
 10
21.381602
 20
61.516148
 30
0.0
  0
SPLINE
  5
2c4
100
AcDbEntity
  8
Layer_1
 62
7
100
AcDbSpline
 70
8
 71
3
 72
8
 73
4
 74
0
 40
0
 40
0
 40
0
 40
0
 40
1
 40
1
 40
1
 40
1
 10
34.623853
 20
62.000322
 30
0.0
 10
34.688183
 20
60.999147
 30
0.0
 10
34.424136
 20
59.782008
 30
0.0
 10
34.081078
 20
59.498385
 30
0.0
  0
SPLINE
  5
2c5
100
AcDbEntity
  8
Layer_1
 62
7
100
AcDbSpline
 70
8
 71
3
 72
8
 73
4
 74
0
 40
0
 40
0
 40
0
 40
0
 40
1
 40
1
 40
1
 40
1
 10
34.081078
 20
59.498385
 30
0.0
 10
33.690992
 20
59.175880
 30
0.0
 10
33.587652
 20
59.189891
 30
0.0
 10
33.189751
 20
59.619235
 30
0.0
  0
SPLINE
  5
2c6
100
AcDbEntity
  8
Layer_1
 62
7
100
AcDbSpline
 70
8
 71
3
 72
8
 73
4
 74
0
 40
0
 40
0
 40
0
 40
0
 40
1
 40
1
 40
1
 40
1
 10
33.189751
 20
59.619235
 30
0.0
 10
32.861976
 20
59.972909
 30
0.0
 10
32.814953
 20
59.981438
 30
0.0
 10
31.507871
 20
59.924271
 30
0.0
  0
LWPOLYLINE
  5
2c7
100
AcDbEntity
  8
Layer_1
 62
7
100
AcDbPolyline
 90
5
 70
0
 10
32.707104
 20
62.103919
 30
0.0
 10
32.707104
 20
62.739479
 30
0.0
 10
33.644383
 20
62.698419
 30
0.0
 10
34.581663
 20
62.657359
 30
0.0
 10
34.623853
 20
62.000322
 30
0.0
  0
SPLINE
  5
2c8
100
AcDbEntity
  8
Layer_1
 62
7
100
AcDbSpline
 70
8
 71
3
 72
8
 73
4
 74
0
 40
0
 40
0
 40
0
 40
0
 40
1
 40
1
 40
1
 40
1
 10
29.562893
 20
59.202408
 30
0.0
 10
29.217521
 20
58.820930
 30
0.0
 10
28.896232
 20
58.293365
 30
0.0
 10
28.806322
 20
57.960095
 30
0.0
  0
SPLINE
  5
2c9
100
AcDbEntity
  8
Layer_1
 62
7
100
AcDbSpline
 70
8
 71
3
 72
8
 73
4
 74
0
 40
0
 40
0
 40
0
 40
0
 40
1
 40
1
 40
1
 40
1
 10
28.806322
 20
57.960095
 30
0.0
 10
28.720372
 20
57.641501
 30
0.0
 10
28.578743
 20
57.130893
 30
0.0
 10
28.491583
 20
56.825407
 30
0.0
  0
LWPOLYLINE
  5
2ca
100
AcDbEntity
  8
Layer_1
 62
7
100
AcDbPolyline
 90
3
 70
0
 10
31.507871
 20
59.924271
 30
0.0
 10
30.163198
 20
59.865461
 30
0.0
 10
29.562893
 20
59.202408
 30
0.0
  0
SPLINE
  5
2cb
100
AcDbEntity
  8
Layer_1
 62
7
100
AcDbSpline
 70
8
 71
3
 72
8
 73
4
 74
0
 40
0
 40
0
 40
0
 40
0
 40
1
 40
1
 40
1
 40
1
 10
26.722065
 20
56.231045
 30
0.0
 10
25.539757
 20
56.202445
 30
0.0
 10
25.073652
 20
56.239445
 30
0.0
 10
24.970611
 20
56.369900
 30
0.0
  0
LWPOLYLINE
  5
2cc
100
AcDbEntity
  8
Layer_1
 62
7
100
AcDbPolyline
 90
3
 70
0
 10
28.491583
 20
56.825407
 30
0.0
 10
28.333111
 20
56.269985
 30
0.0
 10
26.722065
 20
56.231045
 30
0.0
  0
SPLINE
  5
2cd
100
AcDbEntity
  8
Layer_1
 62
7
100
AcDbSpline
 70
8
 71
3
 72
8
 73
4
 74
0
 40
0
 40
0
 40
0
 40
0
 40
1
 40
1
 40
1
 40
1
 10
27.464057
 20
57.524518
 30
0.0
 10
27.715068
 20
57.673701
 30
0.0
 10
28.815044
 20
60.619508
 30
0.0
 10
28.817668
 20
61.149584
 30
0.0
  0
SPLINE
  5
2ce
100
AcDbEntity
  8
Layer_1
 62
7
100
AcDbSpline
 70
8
 71
3
 72
8
 73
4
 74
0
 40
0
 40
0
 40
0
 40
0
 40
1
 40
1
 40
1
 40
1
 10
28.817668
 20
61.149584
 30
0.0
 10
28.820768
 20
61.799321
 30
0.0
 10
26.624655
 20
62.168069
 30
0.0
 10
25.241948
 20
61.749948
 30
0.0
  0
SPLINE
  5
2cf
100
AcDbEntity
  8
Layer_1
 62
7
100
AcDbSpline
 70
8
 71
3
 72
8
 73
4
 74
0
 40
0
 40
0
 40
0
 40
0
 40
1
 40
1
 40
1
 40
1
 10
25.241948
 20
61.749948
 30
0.0
 10
24.286689
 20
61.461084
 30
0.0
 10
24.272655
 20
61.385802
 30
0.0
 10
24.860841
 20
59.705043
 30
0.0
  0
SPLINE
  5
2d0
100
AcDbEntity
  8
Layer_1
 62
7
100
AcDbSpline
 70
8
 71
3
 72
8
 73
4
 74
0
 40
0
 40
0
 40
0
 40
0
 40
1
 40
1
 40
1
 40
1
 10
24.860841
 20
59.705043
 30
0.0
 10
25.147834
 20
58.884953
 30
0.0
 10
25.481466
 20
58.043028
 30
0.0
 10
25.602246
 20
57.834098
 30
0.0
  0
SPLINE
  5
2d1
100
AcDbEntity
  8
Layer_1
 62
7
100
AcDbSpline
 70
8
 71
3
 72
8
 73
4
 74
0
 40
0
 40
0
 40
0
 40
0
 40
1
 40
1
 40
1
 40
1
 10
25.602246
 20
57.834098
 30
0.0
 10
25.951250
 20
57.230367
 30
0.0
 10
26.746594
 20
57.098117
 30
0.0
 10
27.464057
 20
57.524518
 30
0.0
  0
LWPOLYLINE
  5
2d2
100
AcDbEntity
  8
Layer_1
 62
7
100
AcDbPolyline
 90
1
 70
1
 10
24.970611
 20
56.369900
 30
0.0
  0
SPLINE
  5
2d3
100
AcDbEntity
  8
Layer_1
 62
7
100
AcDbSpline
 70
8
 71
3
 72
8
 73
4
 74
0
 40
0
 40
0
 40
0
 40
0
 40
1
 40
1
 40
1
 40
1
 10
19.376124
 20
61.066195
 30
0.0
 10
19.296634
 20
61.626690
 30
0.0
 10
19.201809
 20
62.115061
 30
0.0
 10
19.165408
 20
62.151465
 30
0.0
  0
SPLINE
  5
2d4
100
AcDbEntity
  8
Layer_1
 62
7
100
AcDbSpline
 70
8
 71
3
 72
8
 73
4
 74
0
 40
0
 40
0
 40
0
 40
0
 40
1
 40
1
 40
1
 40
1
 10
19.165408
 20
62.151465
 30
0.0
 10
19.038278
 20
62.278594
 30
0.0
 10
19.102008
 20
60.986634
 30
0.0
 10
19.248968
 20
60.457360
 30
0.0
  0
SPLINE
  5
2d5
100
AcDbEntity
  8
Layer_1
 62
7
100
AcDbSpline
 70
8
 71
3
 72
8
 73
4
 74
0
 40
0
 40
0
 40
0
 40
0
 40
1
 40
1
 40
1
 40
1
 10
19.248968
 20
60.457360
 30
0.0
 10
19.475870
 20
59.640221
 30
0.0
 10
19.536910
 20
59.932501
 30
0.0
 10
19.376124
 20
61.066195
 30
0.0
  0
LWPOLYLINE
  5
2d6
100
AcDbEntity
  8
Layer_1
 62
7
100
AcDbPolyline
 90
1
 70
1
 10
27.464057
 20
57.524518
 30
0.0
  0
LWPOLYLINE
  5
2d7
100
AcDbEntity
  8
Layer_1
 62
7
100
AcDbPolyline
 90
1
 70
1
 10
19.376124
 20
61.066195
 30
0.0
  0
SPLINE
  5
2d8
100
AcDbEntity
  8
Layer_1
 62
7
100
AcDbSpline
 70
8
 71
3
 72
8
 73
4
 74
0
 40
0
 40
0
 40
0
 40
0
 40
1
 40
1
 40
1
 40
1
 10
34.221473
 20
61.477087
 30
0.0
 10
34.155803
 20
61.057047
 30
0.0
 10
34.073734
 20
60.525923
 30
0.0
 10
34.039102
 20
60.296810
 30
0.0
  0
LWPOLYLINE
  5
2d9
100
AcDbEntity
  8
Layer_1
 62
7
100
AcDbPolyline
 90
3
 70
0
 10
34.350883
 20
61.477087
 30
0.0
 10
34.340883
 20
62.240795
 30
0.0
 10
34.221473
 20
61.477087
 30
0.0
  0
SPLINE
  5
2da
100
AcDbEntity
  8
Layer_1
 62
7
100
AcDbSpline
 70
8
 71
3
 72
8
 73
4
 74
0
 40
0
 40
0
 40
0
 40
0
 40
1
 40
1
 40
1
 40
1
 10
34.168485
 20
60.296810
 30
0.0
 10
34.274271
 20
60.525923
 30
0.0
 10
34.356341
 20
61.057047
 30
0.0
 10
34.350857
 20
61.477087
 30
0.0
  0
LWPOLYLINE
  5
2db
100
AcDbEntity
  8
Layer_1
 62
7
100
AcDbPolyline
 90
3
 70
0
 10
34.039102
 20
60.296810
 30
0.0
 10
33.976142
 20
59.880242
 30
0.0
 10
34.168485
 20
60.296810
 30
0.0
  0
SPLINE
  5
2dc
100
AcDbEntity
  8
Layer_1
 62
7
100
AcDbSpline
 70
8
 71
3
 72
8
 73
4
 74
0
 40
0
 40
0
 40
0
 40
0
 40
1
 40
1
 40
1
 40
1
 10
15.662531
 20
63.513032
 30
0.0
 10
15.567071
 20
63.551552
 30
0.0
 10
15.489921
 20
63.749697
 30
0.0
 10
15.491086
 20
63.953352
 30
0.0
  0
SPLINE
  5
2dd
100
AcDbEntity
  8
Layer_1
 62
7
100
AcDbSpline
 70
8
 71
3
 72
8
 73
4
 74
0
 40
0
 40
0
 40
0
 40
0
 40
1
 40
1
 40
1
 40
1
 10
15.491086
 20
63.953352
 30
0.0
 10
15.495786
 20
64.747869
 30
0.0
 10
15.444116
 20
64.737022
 30
0.0
 10
19.406416
 20
64.777399
 30
0.0
  0
SPLINE
  5
2de
100
AcDbEntity
  8
Layer_1
 62
7
100
AcDbSpline
 70
8
 71
3
 72
8
 73
4
 74
0
 40
0
 40
0
 40
0
 40
0
 40
1
 40
1
 40
1
 40
1
 10
19.406416
 20
64.777399
 30
0.0
 10
23.323835
 20
64.817319
 30
0.0
 10
23.707031
 20
64.761589
 30
0.0
 10
23.796269
 20
64.138946
 30
0.0
  0
SPLINE
  5
2df
100
AcDbEntity
  8
Layer_1
 62
7
100
AcDbSpline
 70
8
 71
3
 72
8
 73
4
 74
0
 40
0
 40
0
 40
0
 40
0
 40
1
 40
1
 40
1
 40
1
 10
23.796269
 20
64.138946
 30
0.0
 10
23.896944
 20
63.436475
 30
0.0
 10
23.802169
 20
63.420232
 30
0.0
 10
19.672353
 20
63.432033
 30
0.0
  0
SPLINE
  5
2e0
100
AcDbEntity
  8
Layer_1
 62
7
100
AcDbSpline
 70
8
 71
3
 72
8
 73
4
 74
0
 40
0
 40
0
 40
0
 40
0
 40
1
 40
1
 40
1
 40
1
 10
19.672353
 20
63.432033
 30
0.0
 10
17.562417
 20
63.438033
 30
0.0
 10
15.757994
 20
63.474513
 30
0.0
 10
15.662531
 20
63.513033
 30
0.0
  0
LWPOLYLINE
  5
2e1
100
AcDbEntity
  8
Layer_1
 62
7
100
AcDbPolyline
 90
1
 70
1
 10
34.350857
 20
61.477087
 30
0.0
  0
SPLINE
  5
2e2
100
AcDbEntity
  8
Layer_1
 62
7
100
AcDbSpline
 70
8
 71
3
 72
8
 73
4
 74
0
 40
0
 40
0
 40
0
 40
0
 40
1
 40
1
 40
1
 40
1
 10
22.882937
 20
64.045923
 30
0.0
 10
22.837487
 20
64.227159
 30
0.0
 10
16.183243
 20
64.292532
 30
0.0
 10
16.183243
 20
64.111743
 30
0.0
  0
SPLINE
  5
2e3
100
AcDbEntity
  8
Layer_1
 62
7
100
AcDbSpline
 70
8
 71
3
 72
8
 73
4
 74
0
 40
0
 40
0
 40
0
 40
0
 40
1
 40
1
 40
1
 40
1
 10
16.183243
 20
64.111743
 30
0.0
 10
16.183243
 20
64.037973
 30
0.0
 10
17.330677
 20
63.963648
 30
0.0
 10
18.856221
 20
63.938594
 30
0.0
  0
SPLINE
  5
2e4
100
AcDbEntity
  8
Layer_1
 62
7
100
AcDbSpline
 70
8
 71
3
 72
8
 73
4
 74
0
 40
0
 40
0
 40
0
 40
0
 40
1
 40
1
 40
1
 40
1
 10
18.856221
 20
63.938594
 30
0.0
 10
22.564451
 20
63.877694
 30
0.0
 10
22.922728
 20
63.887244
 30
0.0
 10
22.882937
 20
64.045923
 30
0.0
  0
LWPOLYLINE
  5
2e5
100
AcDbEntity
  8
Layer_1
 62
7
100
AcDbPolyline
 90
1
 70
1
 10
15.662531
 20
63.513033
 30
0.0
  0
SPLINE
  5
2e6
100
AcDbEntity
  8
Layer_1
 62
7
100
AcDbSpline
 70
8
 71
3
 72
8
 73
4
 74
0
 40
0
 40
0
 40
0
 40
0
 40
1
 40
1
 40
1
 40
1
 10
29.756417
 20
63.571049
 30
0.0
 10
29.492506
 20
63.724764
 30
0.0
 10
29.439484
 20
64.199803
 30
0.0
 10
29.649177
 20
64.531919
 30
0.0
  0
SPLINE
  5
2e7
100
AcDbEntity
  8
Layer_1
 62
7
100
AcDbSpline
 70
8
 71
3
 72
8
 73
4
 74
0
 40
0
 40
0
 40
0
 40
0
 40
1
 40
1
 40
1
 40
1
 10
29.649177
 20
64.531919
 30
0.0
 10
29.852578
 20
64.854076
 30
0.0
 10
37.030017
 20
64.920511
 30
0.0
 10
37.512007
 20
64.604699
 30
0.0
  0
SPLINE
  5
2e8
100
AcDbEntity
  8
Layer_1
 62
7
100
AcDbSpline
 70
8
 71
3
 72
8
 73
4
 74
0
 40
0
 40
0
 40
0
 40
0
 40
1
 40
1
 40
1
 40
1
 10
37.512007
 20
64.604699
 30
0.0
 10
37.894743
 20
64.353923
 30
0.0
 10
37.942107
 20
63.954804
 30
0.0
 10
37.626573
 20
63.639274
 30
0.0
  0
SPLINE
  5
2e9
100
AcDbEntity
  8
Layer_1
 62
7
100
AcDbSpline
 70
8
 71
3
 72
8
 73
4
 74
0
 40
0
 40
0
 40
0
 40
0
 40
1
 40
1
 40
1
 40
1
 10
37.626573
 20
63.639274
 30
0.0
 10
37.438892
 20
63.451590
 30
0.0
 10
36.890250
 20
63.421662
 30
0.0
 10
33.703897
 20
63.425294
 30
0.0
  0
SPLINE
  5
2ea
100
AcDbEntity
  8
Layer_1
 62
7
100
AcDbSpline
 70
8
 71
3
 72
8
 73
4
 74
0
 40
0
 40
0
 40
0
 40
0
 40
1
 40
1
 40
1
 40
1
 10
33.703897
 20
63.425294
 30
0.0
 10
31.447040
 20
63.427894
 30
0.0
 10
29.904455
 20
63.484824
 30
0.0
 10
29.756417
 20
63.571050
 30
0.0
  0
LWPOLYLINE
  5
2eb
100
AcDbEntity
  8
Layer_1
 62
7
100
AcDbPolyline
 90
1
 70
1
 10
22.882937
 20
64.045923
 30
0.0
  0
SPLINE
  5
2ec
100
AcDbEntity
  8
Layer_1
 62
7
100
AcDbSpline
 70
8
 71
3
 72
8
 73
4
 74
0
 40
0
 40
0
 40
0
 40
0
 40
1
 40
1
 40
1
 40
1
 10
36.942211
 20
64.115351
 30
0.0
 10
36.888871
 20
64.201661
 30
0.0
 10
35.598498
 20
64.254207
 30
0.0
 10
33.532048
 20
64.254207
 30
0.0
  0
SPLINE
  5
2ed
100
AcDbEntity
  8
Layer_1
 62
7
100
AcDbSpline
 70
8
 71
3
 72
8
 73
4
 74
0
 40
0
 40
0
 40
0
 40
0
 40
1
 40
1
 40
1
 40
1
 10
33.532048
 20
64.254207
 30
0.0
 10
31.408388
 20
64.254207
 30
0.0
 10
30.207696
 20
64.204057
 30
0.0
 10
30.207696
 20
64.115351
 30
0.0
  0
SPLINE
  5
2ee
100
AcDbEntity
  8
Layer_1
 62
7
100
AcDbSpline
 70
8
 71
3
 72
8
 73
4
 74
0
 40
0
 40
0
 40
0
 40
0
 40
1
 40
1
 40
1
 40
1
 10
30.207696
 20
64.115351
 30
0.0
 10
30.207696
 20
64.026551
 30
0.0
 10
31.436990
 20
63.976495
 30
0.0
 10
33.617865
 20
63.976495
 30
0.0
  0
SPLINE
  5
2ef
100
AcDbEntity
  8
Layer_1
 62
7
100
AcDbSpline
 70
8
 71
3
 72
8
 73
4
 74
0
 40
0
 40
0
 40
0
 40
0
 40
1
 40
1
 40
1
 40
1
 10
33.617865
 20
63.976495
 30
0.0
 10
35.855949
 20
63.976495
 30
0.0
 10
36.998534
 20
64.024225
 30
0.0
 10
36.942211
 20
64.115351
 30
0.0
  0
LWPOLYLINE
  5
2f0
100
AcDbEntity
  8
Layer_1
 62
7
100
AcDbPolyline
 90
1
 70
1
 10
29.756417
 20
63.571050
 30
0.0
  0
SPLINE
  5
2f1
100
AcDbEntity
  8
Layer_1
 62
7
100
AcDbSpline
 70
8
 71
3
 72
8
 73
4
 74
0
 40
0
 40
0
 40
0
 40
0
 40
1
 40
1
 40
1
 40
1
 10
18.751312
 20
65.505153
 30
0.0
 10
18.526515
 20
65.868883
 30
0.0
 10
19.127165
 20
66.475902
 30
0.0
 10
19.711877
 20
66.475902
 30
0.0
  0
SPLINE
  5
2f2
100
AcDbEntity
  8
Layer_1
 62
7
100
AcDbSpline
 70
8
 71
3
 72
8
 73
4
 74
0
 40
0
 40
0
 40
0
 40
0
 40
1
 40
1
 40
1
 40
1
 10
19.711877
 20
66.475902
 30
0.0
 10
20.019736
 20
66.475902
 30
0.0
 10
20.626637
 20
65.916468
 30
0.0
 10
20.626637
 20
65.632689
 30
0.0
  0
SPLINE
  5
2f3
100
AcDbEntity
  8
Layer_1
 62
7
100
AcDbSpline
 70
8
 71
3
 72
8
 73
4
 74
0
 40
0
 40
0
 40
0
 40
0
 40
1
 40
1
 40
1
 40
1
 10
20.626637
 20
65.632689
 30
0.0
 10
20.626637
 20
65.396115
 30
0.0
 10
20.522840
 20
65.365055
 30
0.0
 10
19.732266
 20
65.365055
 30
0.0
  0
SPLINE
  5
2f4
100
AcDbEntity
  8
Layer_1
 62
7
100
AcDbSpline
 70
8
 71
3
 72
8
 73
4
 74
0
 40
0
 40
0
 40
0
 40
0
 40
1
 40
1
 40
1
 40
1
 10
19.732266
 20
65.365055
 30
0.0
 10
19.240361
 20
65.365055
 30
0.0
 10
18.798933
 20
65.428095
 30
0.0
 10
18.751312
 20
65.505153
 30
0.0
  0
LWPOLYLINE
  5
2f5
100
AcDbEntity
  8
Layer_1
 62
7
100
AcDbPolyline
 90
1
 70
1
 10
36.942211
 20
64.115351
 30
0.0
  0
SPLINE
  5
2f6
100
AcDbEntity
  8
Layer_1
 62
7
100
AcDbSpline
 70
8
 71
3
 72
8
 73
4
 74
0
 40
0
 40
0
 40
0
 40
0
 40
1
 40
1
 40
1
 40
1
 10
32.707104
 20
65.618562
 30
0.0
 10
32.707104
 20
65.975831
 30
0.0
 10
33.284248
 20
66.475902
 30
0.0
 10
33.696581
 20
66.475902
 30
0.0
  0
SPLINE
  5
2f7
100
AcDbEntity
  8
Layer_1
 62
7
100
AcDbSpline
 70
8
 71
3
 72
8
 73
4
 74
0
 40
0
 40
0
 40
0
 40
0
 40
1
 40
1
 40
1
 40
1
 10
33.696581
 20
66.475902
 30
0.0
 10
34.119358
 20
66.475902
 30
0.0
 10
34.651090
 20
66.008772
 30
0.0
 10
34.651090
 20
65.637358
 30
0.0
  0
SPLINE
  5
2f8
100
AcDbEntity
  8
Layer_1
 62
7
100
AcDbSpline
 70
8
 71
3
 72
8
 73
4
 74
0
 40
0
 40
0
 40
0
 40
0
 40
1
 40
1
 40
1
 40
1
 10
34.651090
 20
65.637358
 30
0.0
 10
34.651090
 20
65.392792
 30
0.0
 10
34.552090
 20
65.365055
 30
0.0
 10
33.679100
 20
65.365055
 30
0.0
  0
SPLINE
  5
2f9
100
AcDbEntity
  8
Layer_1
 62
7
100
AcDbSpline
 70
8
 71
3
 72
8
 73
4
 74
0
 40
0
 40
0
 40
0
 40
0
 40
1
 40
1
 40
1
 40
1
 10
33.679100
 20
65.365055
 30
0.0
 10
32.830613
 20
65.365055
 30
0.0
 10
32.707104
 20
65.397265
 30
0.0
 10
32.707104
 20
65.618562
 30
0.0
  0
LWPOLYLINE
  5
2fa
100
AcDbEntity
  8
Layer_1
 62
7
100
AcDbPolyline
 90
1
 70
1
 10
18.751312
 20
65.505153
 30
0.0
  0
LWPOLYLINE
  5
2fb
100
AcDbEntity
  8
Layer_1
 62
7
100
AcDbPolyline
 90
1
 70
1
 10
32.707104
 20
65.618562
 30
0.0
  0
ENDSEC
  0
SECTION
  2
OBJECTS
  0
DICTIONARY
  5
C
330
0
100
AcDbDictionary
  3
ACAD_GROUP
350
D
  3
ACAD_MLINESTYLE
350
17
  0
DICTIONARY
  5
D
330
C
100
AcDbDictionary
  0
DICTIONARY
  5
1A
330
C
100
AcDbDictionary
  0
DICTIONARY
  5
17
330
C
100
AcDbDictionary
  3
STANDARD
350
18
  0
DICTIONARY
  5
19
330
C
100
AcDbDictionary
  0
ENDSEC
  0
EOF
