<?xml version="1.0" encoding="UTF-8" standalone="no"?>
<!-- Created with Inkscape (http://www.inkscape.org/) -->

<svg
   width="75.000038mm"
   height="66.502159mm"
   viewBox="0 0 75.000039 66.50216"
   version="1.1"
   id="svg1"
   xml:space="preserve"
   inkscape:version="1.4 (1:1.4+202410161351+e7c3feb100)"
   sodipodi:docname="MakeBreakCreate_02.svg"
   xmlns:inkscape="http://www.inkscape.org/namespaces/inkscape"
   xmlns:sodipodi="http://sodipodi.sourceforge.net/DTD/sodipodi-0.dtd"
   xmlns="http://www.w3.org/2000/svg"
   xmlns:svg="http://www.w3.org/2000/svg"><sodipodi:namedview
     id="namedview1"
     pagecolor="#ffffff"
     bordercolor="#999999"
     borderopacity="1"
     inkscape:showpageshadow="2"
     inkscape:pageopacity="0"
     inkscape:pagecheckerboard="0"
     inkscape:deskcolor="#d1d1d1"
     inkscape:document-units="mm"
     inkscape:zoom="1.3254365"
     inkscape:cx="293.11098"
     inkscape:cy="274.24927"
     inkscape:window-width="1920"
     inkscape:window-height="1011"
     inkscape:window-x="0"
     inkscape:window-y="0"
     inkscape:window-maximized="1"
     inkscape:current-layer="layer1" /><defs
     id="defs1" /><g
     inkscape:label="Layer 1"
     inkscape:groupmode="layer"
     id="layer1"
     transform="translate(-12.966165,-10.589717)"><path
       style="fill:none;fill-opacity:1;stroke:#000000;stroke-width:0.052481;stroke-dasharray:none;stroke-opacity:1"
       d="m 26.096648,76.92442 c -1.845211,-0.350689 -4.688674,-2.007299 -4.560846,-2.657156 0.116424,-0.591849 0.89552,-0.593245 1.597417,-0.0026 1.236117,1.039733 2.984632,1.608538 4.954758,1.611823 1.887286,0.0031 3.508225,-0.52575 4.923764,-1.606596 0.684914,-0.522968 1.006276,-0.584596 1.33488,-0.255987 0.321746,0.32174 0.275363,0.465969 -0.329402,1.024288 -0.665727,0.614595 -2.27956,1.435692 -3.409791,1.734854 -1.20425,0.318759 -3.266665,0.388087 -4.51078,0.151639 z m 1.039382,-2.160623 c -0.976877,-0.106337 -2.59347,-0.754587 -3.312523,-1.328326 -0.516502,-0.412117 -0.642808,-0.836263 -0.339389,-1.139682 0.273615,-0.273615 0.628727,-0.192952 1.325754,0.301146 1.974493,1.399663 4.374513,1.417544 6.437861,0.04797 0.827825,-0.549476 1.079634,-0.614821 1.34534,-0.34912 0.488803,0.488808 0.0052,1.101713 -1.430217,1.812301 -1.299556,0.643365 -2.437659,0.828691 -4.026826,0.655708 z M 56.752709,72.11793 c -0.436033,-0.06393 -1.042772,-0.243763 -1.348316,-0.399637 -0.695987,-0.355066 -0.87224,-0.353638 -1.816294,0.01475 -1.090771,0.425605 -3.632838,0.531312 -4.530735,0.188407 -1.459959,-0.557569 -2.154745,-1.752876 -2.179511,-3.749653 -0.02545,-2.051121 0.73126,-3.29343 2.240263,-3.677948 0.867847,-0.221144 3.402661,-0.554567 4.226985,-0.556005 l 0.659566,-10e-4 v -0.748327 c 0,-0.531496 -0.07724,-0.843307 -0.266578,-1.076134 -0.264682,-0.325487 -0.287081,-0.327807 -3.158975,-0.327807 h -2.892397 l -0.04015,-1.133007 -0.04015,-1.133007 0.456695,-0.142292 c 1.179448,-0.367477 2.287852,-0.495363 4.344663,-0.501283 1.541709,-0.0042 2.386627,0.05185 2.760559,0.183941 0.766968,0.270896 1.527654,1.013282 1.904783,1.858956 0.306494,0.687276 0.328699,0.934776 0.398456,4.441279 l 0.07387,3.713446 0.381857,0.353712 c 0.354687,0.328546 0.381852,0.432002 0.381852,1.454054 0,0.945766 -0.03773,1.120538 -0.268582,1.244084 -0.147719,0.07906 -0.319557,0.136125 -0.381852,0.126809 -0.0623,-0.0093 -0.470025,-0.06923 -0.906059,-0.133154 z M 52.97246,69.342829 c 0.453157,-0.08144 0.902028,-0.2496 0.99749,-0.373681 0.106952,-0.139011 0.173571,-0.670119 0.173571,-1.383703 0,-0.958545 -0.04036,-1.173586 -0.234333,-1.248015 -0.128888,-0.04944 -0.862956,-0.02015 -1.631262,0.0651 -1.235335,0.137096 -1.433099,0.197087 -1.70965,0.518597 -0.346023,0.402272 -0.43693,1.522815 -0.16479,2.031309 0.284531,0.531648 1.09643,0.655026 2.568974,0.39039 z m 11.058466,2.77518 C 63.100627,71.992905 62.316298,71.479331 61.855987,70.693863 61.39947,69.914877 61.233667,68.323275 61.22876,64.672911 l -0.0037,-2.66572 -0.728993,-0.04198 -0.728993,-0.04199 -0.03947,-1.415854 -0.03946,-1.415848 0.733768,-0.04214 0.733769,-0.04214 0.03873,-1.753862 0.03873,-1.753863 0.429903,-0.08598 c 0.546926,-0.109387 2.310828,-0.108389 2.72102,0.0016 0.301393,0.08077 0.31243,0.141022 0.31243,1.706037 0,1.076647 0.05604,1.678347 0.166627,1.78893 0.108027,0.108032 0.669595,0.166627 1.59684,0.166627 h 1.430217 v 1.453441 1.453441 l -1.562128,0.03925 -1.562129,0.03926 -0.121126,2.17982 c -0.132058,2.376445 -0.03238,4.108812 0.259377,4.508129 0.153118,0.209562 0.421181,0.263355 1.50833,0.302684 l 1.322117,0.04781 0.08812,0.715872 c 0.04844,0.393734 0.06784,1.027731 0.04309,1.408884 l -0.04503,0.693012 -0.694282,0.09108 c -1.299435,0.170463 -2.359142,0.207636 -3.095629,0.108593 z m 9.728825,0.0037 c -2.099372,-0.276596 -3.502672,-1.551166 -3.991685,-3.625509 -0.28431,-1.206019 -0.28071,-4.408846 0.0063,-5.671061 0.395172,-1.737426 1.55082,-3.098584 3.147832,-3.707621 0.876045,-0.334089 3.68305,-0.33326 4.642166,0.0016 1.492293,0.520654 2.483827,1.815434 2.891888,3.776329 0.221821,1.065942 0.218594,1.643317 -0.01884,3.36502 l -0.08106,0.587902 -3.698967,0.03695 -3.698972,0.03695 0.01553,0.517158 c 0.02209,0.735826 0.599186,1.444645 1.342081,1.648402 0.404781,0.111024 1.35254,0.132919 3.060283,0.0707 1.360649,-0.04959 2.547869,-0.104374 2.638268,-0.121777 0.116733,-0.02246 0.16436,0.330048 0.16436,1.216578 v 1.248224 l -1.11085,0.233058 c -0.610968,0.128179 -1.610732,0.271825 -2.221694,0.319215 -0.610969,0.04739 -1.360791,0.107744 -1.666273,0.134121 -0.305486,0.0264 -0.944689,-0.0031 -1.420456,-0.06602 z m 3.541272,-8.393351 c 0.04529,-0.662337 -0.296539,-1.391812 -0.838374,-1.78913 -0.298775,-0.219088 -0.598352,-0.281456 -1.351869,-0.281456 -0.753522,0 -1.0531,0.06237 -1.351869,0.281456 -0.522039,0.382801 -0.869353,1.112639 -0.869615,1.827373 l -2.16e-4,0.59366 2.186984,-0.03826 2.186983,-0.03826 z m -60.926335,8.280044 c -1.53127,-0.507444 -2.4637,-1.468744 -3.000035,-3.092926 -0.356141,-1.078501 -0.383074,-1.321687 -0.38223,-3.451377 10e-4,-2.15369 0.02467,-2.360984 0.397161,-3.455785 0.324899,-0.954924 0.524957,-1.296481 1.110923,-1.896664 0.855588,-0.876344 1.611571,-1.152441 3.471026,-1.267668 1.16776,-0.07236 4.028831,0.22772 4.408536,0.462394 0.15484,0.0957 0.02204,2.552902 -0.146102,2.703612 -0.05322,0.04771 -0.596635,0.0275 -1.207603,-0.04487 -2.158114,-0.255677 -3.677109,0.02619 -4.166515,0.773097 -0.372321,0.568233 -0.559196,2.411518 -0.380146,3.7497 0.18563,1.387409 0.436594,1.942008 1.04729,2.314371 0.391109,0.238468 0.707407,0.271112 2.631524,0.271568 l 2.186983,5.2e-4 v 1.295284 1.295283 l -0.728998,0.177549 c -0.859151,0.209247 -4.740353,0.332105 -5.241814,0.165929 z m 20.960391,-0.05886 c -2.379998,-0.677593 -3.310465,-2.439926 -3.320799,-6.28966 -0.0082,-3.051881 0.695248,-4.912417 2.261029,-5.980217 0.810023,-0.55241 1.365498,-0.721073 2.742443,-0.832721 3.038067,-0.24633 5.170885,1.003862 5.819052,3.410961 0.171434,0.636663 0.215529,3.629482 0.06246,4.239364 l -0.08807,0.350909 -3.699906,0.03695 -3.699906,0.03695 -0.04424,0.384796 c -0.05306,0.46167 0.38698,1.22169 0.914514,1.579537 0.344076,0.233393 0.660673,0.254784 3.399531,0.229678 l 3.020114,-0.02771 v 1.165052 c 0,0.640782 -0.05143,1.19685 -0.11432,1.235712 -0.760812,0.470204 -6.040186,0.805358 -7.25191,0.460369 z m 4.409182,-8.370753 c -0.141468,-1.370694 -0.758613,-1.936077 -2.105082,-1.92852 -1.454815,0.0081 -2.115835,0.568968 -2.254526,1.912729 l -0.08156,0.790253 h 2.260551 2.260546 z m -16.527257,8.297216 c -0.21438,-0.04125 -0.233242,-0.560596 -0.233242,-6.42209 v -6.377194 h 1.666273 1.666272 l 0.01737,0.416568 c 0.02383,0.572096 0.03941,0.65849 0.136251,0.755318 0.04629,0.04629 0.608664,-0.165872 1.249704,-0.471495 0.641035,-0.305618 1.509191,-0.642331 1.929234,-0.748248 l 0.763703,-0.192574 0.03931,1.601369 c 0.02162,0.880752 -0.0096,1.64634 -0.06943,1.701303 -0.05981,0.05497 -0.819779,0.267858 -1.688818,0.47309 -0.869038,0.205232 -1.72821,0.429473 -1.909269,0.498313 l -0.329203,0.125162 v 4.307977 4.307972 l -0.381852,0.01375 c -1.229105,0.04419 -2.654878,0.04959 -2.856305,0.01081 z m 58.044161,-0.112933 c -0.05321,-0.05321 -0.09674,-0.959925 -0.09674,-2.014935 0,-2.257817 -0.159207,-2.097026 2.013413,-2.033508 l 1.388558,0.04057 v 2.013413 2.013413 l -1.604245,0.03889 c -0.882337,0.02136 -1.647778,-0.0047 -1.700988,-0.05786 z m 0.828969,-6.94697 c -0.05091,-0.05091 -0.09249,-0.316476 -0.09239,-0.590138 9.5e-5,-0.273662 -0.07051,-1.003432 -0.156902,-1.621716 -0.13907,-0.995244 -0.123163,-1.289799 0.138733,-2.568835 0.279651,-1.365729 0.295815,-1.841218 0.295757,-8.699913 l -5.2e-5,-7.255227 h -0.704962 c -0.5998,0 -0.767766,-0.0628 -1.125959,-0.420997 -0.35611,-0.35611 -0.406712,-0.489869 -0.328295,-0.867847 0.05101,-0.245769 0.08226,-0.571823 0.06951,-0.724569 -0.111984,-1.340669 -0.108778,-16.239572 0.0037,-16.847627 0.07933,-0.429143 0.299252,-0.966916 0.506584,-1.238746 0.551397,-0.722916 1.134188,-0.907922 2.651073,-0.841581 1.381017,0.0604 1.734067,0.212391 2.321812,0.999554 0.282547,0.378414 0.285974,0.495373 0.262096,8.947629 -0.01333,4.710312 -0.04933,8.995361 -0.08001,9.522323 -0.07051,1.21017 -0.327235,1.471861 -1.443915,1.471861 h -0.753649 l 0.07919,8.088363 c 0.04356,4.4486 0.091,8.900669 0.105419,9.893489 0.01443,0.99282 -0.02168,2.039448 -0.08016,2.325837 l -0.106384,0.520712 h -0.73431 c -0.403852,0 -0.775932,-0.04167 -0.826844,-0.09257 z m -0.3227,-24.361396 c 0.186097,-0.08479 0.407735,-0.306431 0.492529,-0.492529 0.105628,-0.231835 0.154168,-2.289799 0.154168,-6.536683 0,-6.172853 -10e-4,-6.199645 -0.301918,-6.5197 -0.323944,-0.344821 -0.67276,-0.40402 -1.083959,-0.183956 -0.478023,0.255834 -0.558109,1.304604 -0.558109,7.308893 v 5.766367 l 0.405888,0.405888 c 0.463512,0.463513 0.440699,0.457073 0.891401,0.25172 z m 3.242502,-0.180896 0.389598,-0.335065 v -6.384788 c 0,-6.083745 -0.01249,-6.398569 -0.26452,-6.677159 -0.328248,-0.362822 -0.832328,-0.375806 -1.177795,-0.03033 -0.229793,0.229794 -0.273866,0.575817 -0.35813,2.811833 -0.05285,1.402387 -0.07553,4.289252 -0.05038,6.415263 l 0.04571,3.865468 0.389598,0.334923 c 0.482663,0.414936 0.543315,0.414926 1.025931,-1.36e-4 z M 23.957197,58.023924 c -0.179789,-0.468524 -0.06173,-0.721466 0.537595,-1.151874 2.385482,-1.713122 5.537481,-1.769701 7.973298,-0.143126 0.891804,0.595523 1.080007,1.009572 0.629016,1.383861 -0.184355,0.153003 -0.414789,0.08051 -1.492701,-0.469584 -0.701078,-0.357784 -1.61101,-0.719688 -2.022067,-0.804235 -1.319084,-0.271306 -2.96608,0.09521 -4.179903,0.930173 -0.739946,0.508993 -1.309181,0.609347 -1.445238,0.254785 z m -1.736785,-1.759058 c -0.165463,-0.445128 -0.07557,-0.589089 0.728835,-1.167225 0.876627,-0.630045 2.399867,-1.337583 3.423074,-1.590012 0.990463,-0.244346 3.467966,-0.241869 4.443394,0.0042 1.757925,0.44391 4.16568,1.841375 4.16568,2.417768 0,0.742958 -0.666115,0.847422 -1.423385,0.223218 -0.654543,-0.539531 -2.316081,-1.303823 -3.26984,-1.504095 -2.259638,-0.474492 -4.787108,0.113537 -6.817645,1.586149 -0.600288,0.435351 -1.094964,0.447122 -1.250113,0.02976 z m 30.208932,-1.191209 c -0.165242,-0.182586 -0.229804,-0.512823 -0.229804,-1.175391 0,-1.100862 -0.121719,-1.208942 -1.361504,-1.208942 h -0.824337 l -0.09692,-1.11108 c -0.112955,-1.294906 -0.20592,-1.388328 -1.381505,-1.388328 -0.75675,0 -0.767509,-0.0058 -0.842074,-0.451284 -0.04156,-0.248204 -0.09123,-0.76351 -0.11043,-1.14513 l -0.0349,-0.693847 -0.845758,-0.150667 c -1.284026,-0.228744 -1.257969,-0.205154 -1.338811,-1.212238 -0.03973,-0.495054 -0.110966,-0.962733 -0.158283,-1.039298 -0.04734,-0.07656 -0.520753,-0.182859 -1.052082,-0.236217 l -0.966044,-0.09702 -0.0835,-0.646125 c -0.154746,-1.197402 -0.173429,-1.233739 -0.683529,-1.329433 -0.284064,-0.05329 -0.619664,-0.25711 -0.824833,-0.500942 -0.354226,-0.420971 -0.581033,-0.937237 -0.463418,-1.054847 0.03626,-0.03627 0.463722,0.06884 0.949953,0.233524 1.634138,0.553465 3.227934,0.145604 4.898216,-1.253477 0.374887,-0.31402 0.729712,-0.521499 0.788501,-0.461072 0.05879,0.06043 0.791072,1.328326 1.6273,2.817558 0.836221,1.489228 1.840447,3.259365 2.231614,3.933631 0.391162,0.67427 0.711207,1.249866 0.711207,1.279104 0,0.02923 0.718355,1.304578 1.596341,2.834084 0.877987,1.529512 1.612191,2.85122 1.631556,2.937137 0.04261,0.188984 -2.20584,1.367697 -2.616236,1.371518 -0.159999,0.0016 -0.394321,-0.111559 -0.520711,-0.251222 z M 15.061603,54.608062 c -0.913128,-0.06857 -1.675845,-0.140282 -1.694932,-0.15937 -0.08972,-0.08972 -0.217392,-16.89032 -0.131827,-17.346427 l 0.0976,-0.520239 h 1.659979 1.65998 v 2.707694 c 0,1.489228 0.03322,2.70769 0.07381,2.70769 0.04057,0 0.455079,-0.128442 0.921084,-0.285423 0.958125,-0.322774 2.516942,-0.379979 3.474442,-0.127508 0.706347,0.186244 1.74046,0.761426 2.098065,1.166957 1.711674,1.941073 1.831178,8.107109 0.198268,10.229982 -1.21323,1.577269 -3.384742,1.999967 -8.356467,1.626644 z m 4.411826,-3.091909 c 0.671484,-0.239481 1.021926,-0.557595 1.384523,-1.25681 0.23765,-0.458274 0.286683,-0.799821 0.280343,-1.952708 -0.01863,-3.389192 -1.070487,-4.374077 -3.895755,-3.647729 l -0.590138,0.151717 v 3.373747 c 0,3.096327 0.02,3.378964 0.242998,3.437244 0.524642,0.137101 2.075823,0.07365 2.578029,-0.105461 z m 20.240126,3.040582 c -1.834463,-0.397858 -3.018282,-1.803085 -3.420843,-4.060639 -0.525907,-2.94925 0.04802,-6.015925 1.407446,-7.52066 0.495573,-0.548548 1.904116,-1.394594 2.321786,-1.394594 0.103676,0 0.337495,0.318093 0.519588,0.706872 0.357333,0.762927 0.815566,1.222409 1.503072,1.507186 0.647254,0.2681 0.528699,0.42421 -0.32216,0.42421 -0.416447,0 -0.917861,0.07321 -1.114261,0.162696 -0.545739,0.248655 -0.935217,0.991246 -0.956597,1.823883 l -0.01853,0.72111 2.117556,0.03831 2.117551,0.03831 v -0.559038 c 0,-0.528583 0.02267,-0.559038 0.416568,-0.559038 0.37303,0 0.418799,0.04718 0.437907,0.451279 0.01176,0.248204 0.036,0.607494 0.05394,0.798425 0.01795,0.190926 0.03957,0.479792 0.04807,0.641921 0.01328,0.252969 0.158298,0.321914 1.022188,0.486001 l 1.006707,0.191209 0.04309,0.520706 0.04309,0.520712 h -3.622995 c -4.063096,0 -3.923623,-0.03899 -3.593496,1.004297 0.152982,0.483471 0.302527,0.652287 0.812354,0.917064 0.61451,0.319142 0.67235,0.323042 3.494878,0.235529 l 2.870034,-0.08899 0.04592,1.059749 c 0.07351,1.695483 0.207804,1.594934 -2.59232,1.940826 -2.030617,0.250838 -3.460509,0.248566 -4.640623,-0.0074 z m 18.122572,-0.128363 c -1.277845,-0.52534 -2.18459,-1.358419 -2.381735,-2.188243 -0.07631,-0.321205 -0.03443,-0.400971 0.271447,-0.517274 0.355039,-0.134986 0.361668,-0.161967 0.361668,-1.472538 v -1.335033 l -1.1559,0.09628 -1.155899,0.09629 -0.5798,-0.975947 c -0.31889,-0.536771 -0.5798,-1.038164 -0.5798,-1.114209 0,-0.164003 0.420835,-0.252748 1.7357,-0.366002 1.843631,-0.158797 1.775889,-0.116723 1.707616,-1.060563 -0.03264,-0.451405 -0.122401,-0.883775 -0.199449,-0.960817 -0.267852,-0.267853 -1.788825,-0.417402 -3.328529,-0.327287 l -1.542643,0.09029 -0.591053,-1.070723 c -0.325083,-0.5889 -0.536923,-1.11774 -0.470766,-1.175202 0.234223,-0.203448 2.085897,-0.558566 3.689701,-0.707628 3.085878,-0.286814 4.852987,0.362529 5.625449,2.067112 0.186764,0.412133 0.24275,1.196179 0.307286,4.303317 l 0.07891,3.799368 0.44654,0.372463 0.44654,0.372468 -0.08531,1.208837 -0.08531,1.208837 -0.847222,-0.0031 c -0.573135,-0.0021 -1.112575,-0.112389 -1.667441,-0.340497 z m 5.055321,-8.890131 v -8.956215 h 1.666272 1.666272 v 5.068243 5.068249 h 0.407531 c 0.869694,0 0.999868,-0.150044 2.276128,-2.623453 l 1.225673,-2.375364 h 1.863873 c 1.025133,0 1.863879,0.0402 1.863879,0.08933 0,0.112907 -2.102867,4.015831 -2.741382,5.088007 l -0.478433,0.803374 0.493993,1.001753 c 0.2717,0.550961 1.02508,2.001515 1.674176,3.223446 0.649096,1.221931 1.182497,2.299802 1.185336,2.395265 0.0037,0.130394 -0.4531,0.173571 -1.837066,0.173571 h -1.842231 l -1.235996,-2.424104 c -0.679797,-1.333253 -1.309794,-2.452416 -1.399988,-2.487027 -0.0902,-0.03458 -0.45458,-0.001 -0.809746,0.0748 l -0.645747,0.13772 v 2.349307 2.349308 H 64.55772 62.891448 Z m 13.191322,6.803942 v -2.021962 l 1.700983,0.03899 1.700989,0.03899 v 1.943986 1.943986 l -1.700989,0.03899 -1.700983,0.03899 z m -48.844229,-5.172386 0.03637,-5.380668 1.631556,-0.0391 1.631561,-0.0391 v 0.629258 c 0,0.707627 0.07022,0.742323 0.722895,0.357227 0.658017,-0.388238 2.39898,-1.090471 2.968236,-1.197265 l 0.483356,-0.09068 -0.0391,1.705118 -0.0391,1.705119 -1.735699,0.428717 c -2.619485,0.647007 -2.360554,0.203432 -2.360554,4.043856 v 3.258231 h -1.667899 -1.667899 z m 14.941816,-5.656341 c -0.279152,-0.102668 -0.658149,-0.285349 -0.84221,-0.405956 -0.288604,-0.1891 -3.301922,-4.498368 -3.301922,-4.721995 0,-0.04466 0.24473,-0.08119 0.54384,-0.08119 0.419927,0 0.892765,-0.205862 2.075225,-0.903502 0.842263,-0.496927 1.581678,-0.981191 1.643144,-1.076134 0.06147,-0.09495 0.174242,-0.422577 0.250613,-0.728059 0.122558,-0.490246 0.186664,-0.555422 0.546274,-0.555422 0.369897,0 0.49264,0.140686 1.332593,1.527413 1.934534,3.193831 3.07449,5.245807 2.960491,5.329042 -0.718424,0.524564 -2.184979,1.401353 -2.655188,1.587414 -0.700469,0.277179 -1.841916,0.289869 -2.55286,0.02839 z m 3.032615,-0.64041 c 1.669264,-0.879135 1.879802,-1.055703 1.692182,-1.419123 -0.654858,-1.26845 -3.690701,-6.204442 -3.815994,-6.204442 -0.08662,0 -0.195371,0.236973 -0.241685,0.526605 -0.05164,0.322979 -0.233006,0.662243 -0.469028,0.877388 -0.568176,0.517925 -3.025484,1.928552 -3.359536,1.928552 -0.158624,0 -0.288404,0.08054 -0.288404,0.17897 0,0.31644 2.505291,3.896117 2.890854,4.130592 1.209813,0.735731 2.168835,0.730782 3.591611,-0.01853 z m -1.587792,0.199265 c -0.243669,-0.09832 -0.216631,-0.810285 0.03884,-1.022298 0.313921,-0.260526 0.898454,0.03789 0.898454,0.458663 0,0.533863 -0.405998,0.778015 -0.937279,0.563635 z m 1.596845,-0.891148 c -0.247952,-0.144423 -0.30968,-0.486683 -0.158713,-0.880086 0.175722,-0.457923 1.16542,-0.112073 1.16542,0.407253 0,0.171849 -0.510242,0.628974 -0.690462,0.618588 -0.0403,-0.0021 -0.182597,-0.06791 -0.316245,-0.145755 z m -4.15341,-1.260479 C 40.68193,38.782659 40.25792,38.074129 40.25792,37.565997 c 0,-0.221349 0.184418,-0.374751 0.752604,-0.62603 0.413933,-0.183059 0.990804,-0.494696 1.281938,-0.692529 0.668959,-0.454569 1.209571,-0.460746 1.651456,-0.01884 0.423275,0.423276 0.433745,0.88989 0.03165,1.410858 -0.425358,0.551129 -0.644005,0.723781 -1.287679,1.016804 -0.769093,0.350111 -1.187745,0.418478 -1.619286,0.264446 z m 1.480432,-0.519068 c 0.84909,-0.39312 1.34862,-0.994138 1.294454,-1.557448 -0.03385,-0.351848 -0.130252,-0.495279 -0.395166,-0.587808 -0.289139,-0.100995 -0.561347,-0.0042 -1.556739,0.552919 -0.990752,0.55463 -1.207289,0.735395 -1.211718,1.011519 -0.01291,0.803946 0.824928,1.064283 1.869169,0.580818 z m -5.574366,-2.788978 c -1.973238,-0.418263 -2.94643,-1.700899 -2.959183,-3.900084 -0.01763,-3.044266 1.176766,-3.907379 5.86057,-4.234976 l 1.214988,-0.08498 v -0.79915 c 0,-1.37581 -0.353271,-1.496979 -3.7352,-1.281087 -1.176094,0.07508 -2.222723,0.104127 -2.325837,0.06456 C 34.893395,25.324491 34.842541,24.9915 34.842541,24.1494 v -1.155574 l 0.728992,-0.149266 c 1.239675,-0.253835 3.610101,-0.559611 4.339251,-0.559747 1.065617,-2.05e-4 2.482892,0.350799 3.120689,0.772872 0.717877,0.475063 1.187666,1.269904 1.381416,2.337221 0.08226,0.453158 0.149571,2.255775 0.149571,4.005823 v 3.181903 l 0.416568,0.389136 c 0.309223,0.288861 0.414054,0.50895 0.406806,0.854128 -0.02131,1.015797 -0.161431,0.972668 -1.031661,-0.317573 -0.90386,-1.340108 -1.185037,-1.517971 -1.853372,-1.172363 -0.322785,0.166916 -0.446456,0.345357 -0.513076,0.740292 -0.04828,0.2862 -0.113595,0.614091 -0.145146,0.728652 -0.03154,0.114555 -0.65733,0.574074 -1.390621,1.02116 -1.136959,0.693195 -1.448723,0.819921 -2.117494,0.860725 -0.43133,0.02629 -1.043233,-0.007 -1.359783,-0.07416 z m 2.786412,-2.785293 c 0.528636,-0.07641 1.044141,-0.207788 1.14556,-0.291962 0.232948,-0.193324 0.26272,-2.569198 0.03317,-2.64572 -0.175113,-0.05837 -2.687547,0.245658 -2.990378,0.361867 -0.337254,0.129418 -0.636254,1.028166 -0.537164,1.614652 0.09967,0.58996 0.387903,0.911086 0.901676,1.004591 0.190926,0.03474 0.378383,0.07045 0.416568,0.07934 0.03821,0.0089 0.501949,-0.04634 1.030585,-0.122764 z m 24.796627,2.784186 c -2.252249,-0.285292 -3.602155,-1.432023 -4.092023,-3.476116 -0.357595,-1.492162 -0.422729,-3.758386 -0.149561,-5.203876 0.525771,-2.782155 1.889668,-4.139377 4.519298,-4.497182 2.191806,-0.298228 4.076441,0.263901 5.203214,1.551974 0.950095,1.0861 1.117798,1.721844 1.098622,4.164736 -0.0089,1.128971 -0.05521,2.091767 -0.102994,2.139546 -0.04781,0.04776 -1.727633,0.0926 -3.732996,0.0996 l -3.646123,0.0127 -0.04304,0.372637 c -0.07565,0.654868 0.337747,1.215565 1.180797,1.601526 0.685538,0.313852 0.941877,0.351654 2.315961,0.341541 0.849809,-0.0062 2.003273,-0.07734 2.563256,-0.157952 0.559983,-0.08062 1.075483,-0.111144 1.145561,-0.06784 0.07008,0.0433 0.127413,0.631934 0.127413,1.308047 v 1.229305 l -0.590138,0.08868 c -0.324579,0.04875 -1.09002,0.175796 -1.700988,0.282269 -1.415896,0.24675 -3.118732,0.33421 -4.096254,0.210381 z m 3.35762,-8.531959 c -0.08904,-1.375432 -0.724364,-1.937315 -2.201873,-1.947344 -0.65511,-0.0042 -0.950258,0.0621 -1.249704,0.281765 -0.529733,0.38859 -0.877556,1.11509 -0.877818,1.833498 l -2.15e-4,0.59366 2.186983,-0.03826 2.186978,-0.03826 z m -53.415205,8.262002 -1.11085,-0.07868 -0.03857,-6.040233 c -0.0212,-3.322132 -0.0042,-6.180825 0.03737,-6.352664 0.07325,-0.301446 0.131942,-0.312425 1.670119,-0.312425 1.501628,0 1.5942,0.01611 1.5942,0.277714 0,0.360377 0.190836,0.350232 1.305769,-0.06943 1.596787,-0.601034 3.464692,-0.436616 4.563796,0.401716 l 0.449752,0.343042 0.915967,-0.403542 c 2.462472,-1.084893 5.204904,-0.973638 6.456744,0.261927 0.508399,0.501792 1.014216,1.642226 1.160701,2.616955 0.16669,1.109202 0.330531,7.890347 0.21005,8.693774 l -0.09787,0.652591 h -1.650501 -1.650507 v -3.881134 c 0,-4.226075 -0.103157,-5.121428 -0.653472,-5.671743 -0.325619,-0.325619 -0.404041,-0.339311 -1.54576,-0.269937 -0.661508,0.0402 -1.38001,0.142801 -1.596672,0.228004 l -0.393933,0.154919 0.100863,4.355651 c 0.05548,2.395606 0.05972,4.519586 0.0094,4.719948 l -0.09143,0.364292 H 22.481709 20.818082 V 31.45113 c 0,-5.222716 -0.161263,-5.83899 -1.583777,-6.052309 -0.54522,-0.08176 -2.217443,0.218856 -2.435581,0.437849 -0.0423,0.04246 -0.05461,2.122731 -0.02734,4.622837 0.04477,4.110738 0.02724,4.567947 -0.18349,4.778664 -0.128153,0.128153 -0.400383,0.221548 -0.604943,0.207546 -0.204566,-0.01401 -0.87182,-0.06087 -1.482788,-0.104143 z m 33.533723,-8.896035 v -8.895878 l 1.562129,0.03926 1.562131,0.03926 0.03642,5.034892 0.03648,5.034897 0.588406,-0.08975 c 0.323619,-0.04939 0.656191,-0.142795 0.739048,-0.207625 0.08286,-0.06483 0.66715,-1.122931 1.298438,-2.351333 0.631284,-1.228402 1.222892,-2.262278 1.314686,-2.297503 0.09179,-0.03522 0.956483,-0.04645 1.92153,-0.02498 l 1.754638,0.03905 -1.58841,2.874674 c -0.873625,1.581069 -1.588411,2.94113 -1.588411,3.022355 0,0.08123 0.685911,1.457938 1.524253,3.059355 0.838337,1.601416 1.564158,3.070674 1.612934,3.265022 l 0.08868,0.353349 -1.834619,-0.03884 -1.834626,-0.03884 -1.226087,-2.360554 c -1.170904,-2.254316 -1.246157,-2.362574 -1.672082,-2.405493 -0.245296,-0.02472 -0.592054,-0.0083 -0.770573,0.03653 -0.322055,0.08083 -0.324874,0.09953 -0.362639,2.405498 l -0.03805,2.324033 -1.562131,0.03926 -1.562128,0.03926 z m 25.78093,8.794211 c -0.05091,-0.05091 -0.09257,-0.956949 -0.09257,-2.013407 v -1.920842 h 1.7357 1.735704 v 2.013408 2.013413 h -1.643133 c -0.903718,0 -1.684782,-0.04167 -1.735699,-0.09257 z M 32.620322,26.514341 c -0.317148,-0.38214 -0.422425,-2.356413 -0.195146,-3.659716 0.309638,-1.775611 1.137935,-3.068782 2.581237,-4.029951 0.705759,-0.47 0.940801,-0.522266 1.196913,-0.266154 0.352337,0.352337 0.178325,0.75762 -0.562365,1.309777 -0.804692,0.599865 -1.523073,1.670761 -1.844215,2.749193 -0.126028,0.423222 -0.203909,1.274443 -0.203909,2.228637 0,1.579647 -0.08973,1.877126 -0.566197,1.877126 -0.128117,0 -0.31096,-0.09401 -0.406318,-0.208912 z m 13.340804,0.01281 c -0.111355,-0.134173 -0.134173,-0.517851 -0.07225,-1.214988 0.163594,-1.841821 -0.64316,-4.340857 -1.625101,-5.033952 -0.17939,-0.126625 -0.544432,-0.370724 -0.811204,-0.542444 -0.568516,-0.365953 -0.675137,-0.704784 -0.338749,-1.07649 0.339573,-0.375222 0.694828,-0.33453 1.480395,0.169567 0.900002,0.57753 1.526447,1.424968 2.073593,2.805093 0.415492,1.048046 0.44929,1.255398 0.456117,2.798198 0.0081,1.832396 -0.127004,2.291122 -0.674795,2.291122 -0.178887,0 -0.398488,-0.08825 -0.488005,-0.196106 z M 37.936837,20.72196 c -0.07723,-0.09779 -0.183332,-0.458448 -0.235797,-0.801462 -0.131544,-0.860085 -0.598184,-1.739109 -1.222776,-2.30339 -0.519405,-0.469252 -0.541158,-0.474919 -1.822886,-0.474919 -1.120869,0 -1.331381,0.03775 -1.548542,0.277712 -0.339337,0.374966 -0.687165,0.349396 -1.021044,-0.07506 -0.482883,-0.61389 -0.752788,-2.469526 -0.409168,-2.813143 0.173512,-0.173515 1.314644,-0.2289 1.696569,-0.08234 0.150043,0.05758 0.219644,0.26173 0.219644,0.644279 v 0.559994 l 0.754965,-0.07792 c 0.415235,-0.04286 1.305649,-0.308037 1.978702,-0.589293 1.143908,-0.478019 1.341462,-0.51589 3.028853,-0.580622 1.492171,-0.05724 1.913463,-0.02778 2.429981,0.169907 2.038226,0.780108 3.443583,1.218319 3.651413,1.138565 0.175161,-0.06721 0.236553,-0.255728 0.236553,-0.726328 v -0.63556 l 0.937279,0.04106 0.93728,0.04106 0.04219,0.657037 c 0.06433,1.001175 -0.199717,2.218314 -0.542775,2.501937 -0.390086,0.322505 -0.493426,0.308494 -0.891327,-0.12085 -0.327775,-0.353674 -0.374798,-0.362203 -1.68188,-0.305036 l -1.344673,0.05881 -0.600305,0.663053 c -0.345372,0.381478 -0.666661,0.909043 -0.756571,1.242313 -0.08595,0.318594 -0.227579,0.829202 -0.314739,1.134688 l -0.158472,0.555422 -1.611046,0.03894 c -1.182308,0.0286 -1.648413,-0.0084 -1.751454,-0.138855 z m 2.49342,-1.154619 c 0.251011,-0.149183 1.350987,-3.09499 1.353611,-3.625066 0.0031,-0.649737 -2.193013,-1.018485 -3.57572,-0.600364 -0.955259,0.288864 -0.969293,0.364146 -0.381107,2.044905 0.286993,0.82009 0.620625,1.662015 0.741405,1.870945 0.349004,0.603731 1.144348,0.735981 1.861811,0.30958 z m -8.087933,-3.541677 c -0.07949,-0.560495 -0.174315,-1.048866 -0.210716,-1.08527 -0.12713,-0.127129 -0.0634,1.164831 0.08356,1.694105 0.226902,0.817139 0.287942,0.524859 0.127156,-0.608835 z m 14.974759,-0.410892 -0.01,-0.763708 -0.11941,0.763708 c -0.06567,0.42004 -0.147739,0.951164 -0.182371,1.180277 l -0.06296,0.416568 0.192343,-0.416568 c 0.105786,-0.229113 0.187856,-0.760237 0.182372,-1.180277 z M 28.628731,13.578827 c -0.09546,-0.03852 -0.17261,-0.236665 -0.171445,-0.44032 0.0047,-0.794517 -0.04697,-0.78367 3.91533,-0.824047 3.917419,-0.03992 4.300615,0.01581 4.389853,0.638453 0.100675,0.702471 0.0059,0.718714 -4.123916,0.706913 -2.109936,-0.006 -3.914359,-0.04248 -4.009822,-0.081 z m 7.220406,-0.532891 c -0.04545,-0.181236 -6.699694,-0.246609 -6.699694,-0.06582 0,0.07377 1.147434,0.148095 2.672978,0.173149 3.70823,0.0609 4.066507,0.05135 4.026716,-0.107329 z m 6.87348,0.474874 c -0.263911,-0.153715 -0.316933,-0.628754 -0.10724,-0.96087 0.203401,-0.322157 7.38084,-0.388592 7.862831,-0.07278 0.382736,0.250776 0.4301,0.649895 0.114566,0.965425 -0.187682,0.187684 -0.736324,0.217612 -3.922677,0.21398 -2.256857,-0.0026 -3.799442,-0.05953 -3.94748,-0.145756 z m 7.185794,-0.544302 c -0.05334,-0.08631 -1.343713,-0.138856 -3.410163,-0.138856 -2.12366,0 -3.324352,0.05015 -3.324352,0.138856 0,0.0888 1.229294,0.138856 3.410169,0.138856 2.238084,0 3.380669,-0.04773 3.324346,-0.138856 z M 31.717512,11.586706 c -0.224797,-0.36373 0.375853,-0.970749 0.960565,-0.970749 0.307859,0 0.91476,0.559434 0.91476,0.843213 0,0.236574 -0.103797,0.267634 -0.894371,0.267634 -0.491905,0 -0.933333,-0.06304 -0.980954,-0.140098 z m 13.955792,-0.113409 c 0,-0.357269 0.577144,-0.85734 0.989477,-0.85734 0.422777,0 0.954509,0.46713 0.954509,0.838544 0,0.244566 -0.099,0.272303 -0.97199,0.272303 -0.848487,0 -0.971996,-0.03221 -0.971996,-0.253507 z"
       id="path1" /></g></svg>
