ISO-10303-21;

HEADER;
FILE_DESCRIPTION((' '),'2;1');
FILE_NAME( 'Led bulb.stp',
           '2025-09-10T20:25:09',
           (' '),
           ('---                        ---'),
           '                      V2025.1  Dec 16 2024',
           '        2025 (c)',
           ' ');
FILE_SCHEMA(('AP242_MANAGED_MODEL_BASED_3D_ENGINEERING_MIM_LF { 1 0 10303 442 1 1 4 }'));
ENDSEC;

DATA;
#1=APPLICATION_CONTEXT('Managed model based 3d engineering');
#2=APPLICATION_PROTOCOL_DEFINITION('international standard','ap242_managed_model_based_3d_engineering',2013,#1);
#3=(LENGTH_UNIT()NAMED_UNIT(*)SI_UNIT(.MILLI.,.METRE.));
#4=(NAMED_UNIT(*)PLANE_ANGLE_UNIT()SI_UNIT($,.RADIAN.));
#5=( GEOMETRIC_REPRESENTATION_CONTEXT(3)
       GLOBAL_UNCERTAINTY_ASSIGNED_CONTEXT((#6)) GLOBAL_UNIT_ASSIGNED_CONTEXT
  ((#3,#4)) REPRESENTATION_CONTEXT('Context #1',
  '3D Context with UNIT and UNCERTAINTY') );
#6=UNCERTAINTY_MEASURE_WITH_UNIT(LENGTH_MEASURE(0.005),#3,'distance_accuracy_value','Confusion accuracy');
#7=PRODUCT_CONTEXT('',#1,'mechanical');
#8=PRODUCT('Led bulb','','',(#7));
#9=PRODUCT_DEFINITION_FORMATION('','',#8);
#10=PRODUCT_DEFINITION_CONTEXT('part definition',#1,'design');
#11=PRODUCT_DEFINITION('design','',#9,#10);
#12=PRODUCT_DEFINITION_SHAPE('','',#11);
#13=PRODUCT_CATEGORY('part',$);
#14=PRODUCT_RELATED_PRODUCT_CATEGORY('part',$,(#8));
#15=PRODUCT_CATEGORY_RELATIONSHIP('','',#13,#14);
#16=CARTESIAN_POINT('',(0.0,30.0,-14.5));
#17=VERTEX_POINT('',#16);
#18=CARTESIAN_POINT('',(0.0,30.0,0.0));
#19=DIRECTION('',(-0.0,-1.0,-0.0));
#20=DIRECTION('',(0.0,0.0,-1.0));
#21=AXIS2_PLACEMENT_3D('',#18,#19,#20);
#22=CIRCLE('',#21,14.5);
#23=EDGE_CURVE('no 144',#17,#17,#22,.T.);
#24=ORIENTED_EDGE('',*,*,#23,.F.);
#25=EDGE_LOOP('',(#24));
#26=FACE_OUTER_BOUND('',#25,.T.);
#27=CARTESIAN_POINT('',(0.0,30.0,-15.0));
#28=VERTEX_POINT('',#27);
#29=CARTESIAN_POINT('',(0.0,30.0,0.0));
#30=DIRECTION('',(-0.0,-1.0,-0.0));
#31=DIRECTION('',(0.0,0.0,-1.0));
#32=AXIS2_PLACEMENT_3D('',#29,#30,#31);
#33=CIRCLE('',#32,15.0);
#34=EDGE_CURVE('no 57',#28,#28,#33,.T.);
#35=ORIENTED_EDGE('',*,*,#34,.T.);
#36=EDGE_LOOP('',(#35));
#37=FACE_BOUND('',#36,.T.);
#38=CARTESIAN_POINT('',(0.0,30.0,0.0));
#39=DIRECTION('',(-0.0,-1.0,-0.0));
#40=DIRECTION('',(0.0,0.0,-1.0));
#41=AXIS2_PLACEMENT_3D('',#38,#39,#40);
#42=PLANE('',#41);
#43=ADVANCED_FACE('no 64',(#26,#37),#42,.T.);
#44=CARTESIAN_POINT('',(0.0,60.0,-24.5114891803));
#45=VERTEX_POINT('',#44);
#46=CARTESIAN_POINT('',(0.0,60.0,0.0));
#47=DIRECTION('',(-0.0,-1.0,-0.0));
#48=DIRECTION('',(0.0,0.0,-1.0));
#49=AXIS2_PLACEMENT_3D('',#46,#47,#48);
#50=CIRCLE('',#49,24.5114891803);
#51=EDGE_CURVE('no 51',#45,#45,#50,.T.);
#52=ORIENTED_EDGE('',*,*,#51,.T.);
#53=EDGE_LOOP('',(#52));
#54=FACE_OUTER_BOUND('',#53,.T.);
#55=ORIENTED_EDGE('',*,*,#34,.F.);
#56=EDGE_LOOP('',(#55));
#57=FACE_BOUND('',#56,.T.);
#58=CARTESIAN_POINT('',(15.0,30.0,0.0));
#59=CARTESIAN_POINT('',(19.4,34.3,0.0));
#60=CARTESIAN_POINT('',(16.4,51.5,0.0));
#61=CARTESIAN_POINT('',(24.5114891803,60.0,0.0));
#62=B_SPLINE_CURVE_WITH_KNOTS('',3,(#58,#59,#60,#61),.UNSPECIFIED.,.F.,.U.,
 (4,4),(0.0,1.0),.UNSPECIFIED.);
#63=CARTESIAN_POINT('',(0.0,30.0,0.0));
#64=DIRECTION('',(-0.0,-1.0,-0.0));
#65=AXIS1_PLACEMENT('',#63,#64);
#66=SURFACE_OF_REVOLUTION('',#62,#65);
#67=ADVANCED_FACE('no 60',(#54,#57),#66,.F.);
#68=CARTESIAN_POINT('',(0.0,60.0,-24.3));
#69=VERTEX_POINT('',#68);
#70=CARTESIAN_POINT('',(0.0,60.0,0.0));
#71=DIRECTION('',(0.0,1.0,0.0));
#72=DIRECTION('',(0.0,0.0,-1.0));
#73=AXIS2_PLACEMENT_3D('',#70,#71,#72);
#74=CIRCLE('',#73,24.3);
#75=EDGE_CURVE('no 100',#69,#69,#74,.T.);
#76=ORIENTED_EDGE('',*,*,#75,.F.);
#77=EDGE_LOOP('',(#76));
#78=FACE_OUTER_BOUND('',#77,.T.);
#79=ORIENTED_EDGE('',*,*,#51,.F.);
#80=EDGE_LOOP('',(#79));
#81=FACE_BOUND('',#80,.T.);
#82=CARTESIAN_POINT('',(0.0,60.0,0.0));
#83=DIRECTION('',(0.0,1.0,0.0));
#84=DIRECTION('',(0.0,-0.0,1.0));
#85=AXIS2_PLACEMENT_3D('',#82,#83,#84);
#86=PLANE('',#85);
#87=ADVANCED_FACE('no 54',(#78,#81),#86,.T.);
#88=CARTESIAN_POINT('',(0.0,118.0,0.0));
#89=VERTEX_POINT('',#88);
#90=VERTEX_LOOP('',#89);
#91=FACE_BOUND('',#90,.T.);
#92=ORIENTED_EDGE('',*,*,#75,.T.);
#93=EDGE_LOOP('',(#92));
#94=FACE_BOUND('',#93,.T.);
#95=CARTESIAN_POINT('',(24.3,60.0,0.0));
#96=CARTESIAN_POINT('',(40.0,80.0,0.0));
#97=CARTESIAN_POINT('',(32.9620865457,118.0,0.0));
#98=CARTESIAN_POINT('',(0.0,118.0,0.0));
#99=B_SPLINE_CURVE_WITH_KNOTS('',3,(#95,#96,#97,#98),.UNSPECIFIED.,.F.,.U.,
 (4,4),(0.0,1.0),.UNSPECIFIED.);
#100=CARTESIAN_POINT('',(0.0,60.0,0.0));
#101=DIRECTION('',(-0.0,-1.0,-0.0));
#102=AXIS1_PLACEMENT('',#100,#101);
#103=SURFACE_OF_REVOLUTION('',#99,#102);
#104=ADVANCED_FACE('no 112',(#91,#94),#103,.F.);
#105=CARTESIAN_POINT('',(0.0,2.0,-6.492425982));
#106=VERTEX_POINT('',#105);
#107=CARTESIAN_POINT('',(0.0,2.0,0.0));
#108=DIRECTION('',(-0.0,-1.0,-0.0));
#109=DIRECTION('',(0.0,0.0,-1.0));
#110=AXIS2_PLACEMENT_3D('',#107,#108,#109);
#111=CIRCLE('',#110,6.492425982);
#112=EDGE_CURVE('no 139',#106,#106,#111,.T.);
#113=ORIENTED_EDGE('',*,*,#112,.T.);
#114=EDGE_LOOP('',(#113));
#115=FACE_OUTER_BOUND('',#114,.T.);
#116=CARTESIAN_POINT('',(0.0,2.0,0.0));
#117=DIRECTION('',(-0.0,-1.0,-0.0));
#118=DIRECTION('',(0.0,0.0,-1.0));
#119=AXIS2_PLACEMENT_3D('',#116,#117,#118);
#120=PLANE('',#119);
#121=ADVANCED_FACE('no 145',(#115),#120,.T.);
#122=CARTESIAN_POINT('',(0.0,4.3,-9.0));
#123=VERTEX_POINT('',#122);
#124=CARTESIAN_POINT('',(0.0,4.3,0.0));
#125=DIRECTION('',(-0.0,-1.0,-0.0));
#126=DIRECTION('',(0.0,0.0,-1.0));
#127=AXIS2_PLACEMENT_3D('',#124,#125,#126);
#128=CIRCLE('',#127,9.0);
#129=EDGE_CURVE('no 140',#123,#123,#128,.T.);
#130=ORIENTED_EDGE('',*,*,#129,.T.);
#131=EDGE_LOOP('',(#130));
#132=FACE_OUTER_BOUND('',#131,.T.);
#133=ORIENTED_EDGE('',*,*,#112,.F.);
#134=EDGE_LOOP('',(#133));
#135=FACE_BOUND('',#134,.T.);
#136=CARTESIAN_POINT('',(0.0,4.5169407512,0.0));
#137=DIRECTION('',(-0.0,-1.0,-0.0));
#138=DIRECTION('',(0.0,0.0,-1.0));
#139=AXIS2_PLACEMENT_3D('',#136,#137,#138);
#140=TOROIDAL_SURFACE('',#139,6.492425982,2.5169407512);
#141=ADVANCED_FACE('no 148',(#132,#135),#140,.T.);
#142=CARTESIAN_POINT('',(11.968917721,7.3,0.8631387996));
#143=VERTEX_POINT('',#142);
#144=CARTESIAN_POINT('',(11.968917721,7.3,-0.8631387996));
#145=VERTEX_POINT('',#144);
#146=CARTESIAN_POINT('',(11.9689033795,7.3002,0.8633375536));
#147=CARTESIAN_POINT('',(11.9757868762,7.2042393908,0.7679969326));
#148=CARTESIAN_POINT('',(11.9781143675,7.1231945105,0.6546934618));
#149=CARTESIAN_POINT('',(11.9795823384,7.004663684,0.4111670059));
#150=CARTESIAN_POINT('',(11.9788735548,6.9654908855,0.2775976328));
#151=CARTESIAN_POINT('',(11.978342909,6.9335762512,0.0078652825));
#152=CARTESIAN_POINT('',(11.9785628499,6.9406807703,-0.1320306555));
#153=CARTESIAN_POINT('',(11.9792352781,6.9999703391,-0.3980481935));
#154=CARTESIAN_POINT('',(11.9796221968,7.0530239305,-0.5278432066));
#155=CARTESIAN_POINT('',(11.9762427907,7.1746142533,-0.7231019828));
#156=CARTESIAN_POINT('',(11.97366618,7.2338033334,-0.7973698667));
#157=CARTESIAN_POINT('',(11.9689033795,7.3002,-0.8633375536));
#158=B_SPLINE_CURVE_WITH_KNOTS('',3,(#146,#147,#148,#149,#150,#151,#152,#153,#154,#155,
    #156,#157),.UNSPECIFIED.,.F.,.U.,
 (4,2,2,2,2,4),(0.0,0.2125954177,0.4251161605,0.6389196629,0.8529018606,1.0),.UNSPECIFIED.);
#159=EDGE_CURVE('no 228',#143,#145,#158,.T.);
#160=ORIENTED_EDGE('',*,*,#159,.F.);
#161=CARTESIAN_POINT('',(0.0,7.3,0.0));
#162=DIRECTION('',(-0.0,-1.0,-0.0));
#163=DIRECTION('',(0.0,0.0,-1.0));
#164=AXIS2_PLACEMENT_3D('',#161,#162,#163);
#165=CIRCLE('',#164,12.0);
#166=EDGE_CURVE('no 208',#143,#145,#165,.T.);
#167=ORIENTED_EDGE('',*,*,#166,.T.);
#168=EDGE_LOOP('',(#160,#167));
#169=FACE_OUTER_BOUND('',#168,.T.);
#170=ORIENTED_EDGE('',*,*,#129,.F.);
#171=EDGE_LOOP('',(#170));
#172=FACE_BOUND('',#171,.T.);
#173=CARTESIAN_POINT('',(0.0,7.3,0.0));
#174=DIRECTION('',(-0.0,-1.0,-0.0));
#175=DIRECTION('',(0.0,0.0,-1.0));
#176=AXIS2_PLACEMENT_3D('',#173,#174,#175);
#177=TOROIDAL_SURFACE('',#176,9.0,3.0);
#178=ADVANCED_FACE('no 152',(#169,#172),#177,.T.);
#179=CARTESIAN_POINT('',(0.0,19.2081304406,-12.0));
#180=VERTEX_POINT('',#179);
#181=CARTESIAN_POINT('',(0.0,19.2081304406,0.0));
#182=DIRECTION('',(-0.0,-1.0,-0.0));
#183=DIRECTION('',(0.0,0.0,-1.0));
#184=AXIS2_PLACEMENT_3D('',#181,#182,#183);
#185=CIRCLE('',#184,12.0);
#186=EDGE_CURVE('no 375',#180,#180,#185,.T.);
#187=ORIENTED_EDGE('',*,*,#186,.T.);
#188=EDGE_LOOP('',(#187));
#189=FACE_OUTER_BOUND('',#188,.T.);
#190=CARTESIAN_POINT('',(-11.9733551379,7.6918924358,-0.7992288426));
#191=VERTEX_POINT('',#190);
#192=CARTESIAN_POINT('',(-11.9733551379,7.6918924358,-0.7992288426));
#193=CARTESIAN_POINT('',(-11.9684846004,7.7811011985,-0.8721950214));
#194=CARTESIAN_POINT('',(-11.9639110435,7.8841304695,-0.9308029856));
#195=CARTESIAN_POINT('',(-11.9575207584,8.100883823,-1.0095837153));
#196=CARTESIAN_POINT('',(-11.955642553,8.2176040287,-1.0308311733));
#197=CARTESIAN_POINT('',(-11.9554143797,8.4480495244,-1.0334741236));
#198=CARTESIAN_POINT('',(-11.9570534904,8.5649496992,-1.0150015588));
#199=CARTESIAN_POINT('',(-11.9630593831,8.7830804385,-0.9415771187));
#200=CARTESIAN_POINT('',(-11.967484821,8.8873049336,-0.8856142769));
#201=CARTESIAN_POINT('',(-11.9771131594,9.0693117034,-0.7441794614));
#202=CARTESIAN_POINT('',(-11.9824141473,9.1495075789,-0.6566470218));
#203=CARTESIAN_POINT('',(-11.9914812346,9.2748481285,-0.4624330668));
#204=CARTESIAN_POINT('',(-11.9953344641,9.3216601684,-0.3530218966));
#205=CARTESIAN_POINT('',(-11.9998400937,9.3755297286,-0.1282244414));
#206=CARTESIAN_POINT('',(-12.0005455706,9.3834343919,-0.0097493304));
#207=CARTESIAN_POINT('',(-11.9985370984,9.3599555552,0.2195853734));
#208=CARTESIAN_POINT('',(-11.9958144773,9.3283745904,0.3336181931));
#209=CARTESIAN_POINT('',(-11.9882036084,9.2307081123,0.5420966475));
#210=CARTESIAN_POINT('',(-11.98323766,9.1632434038,0.6393867583));
#211=CARTESIAN_POINT('',(-11.9733006546,9.0019283712,0.8043140651));
#212=CARTESIAN_POINT('',(-11.9682309721,8.9057508485,0.8741207669));
#213=CARTESIAN_POINT('',(-11.9603054796,8.6984455592,0.9765934959));
#214=CARTESIAN_POINT('',(-11.9573733503,8.584433913,1.0106531815));
#215=CARTESIAN_POINT('',(-11.9549788361,8.3551121912,1.0385937321));
#216=CARTESIAN_POINT('',(-11.9554811495,8.2366447002,1.0329974982));
#217=CARTESIAN_POINT('',(-11.9596383296,8.0116614666,0.9836978937));
#218=CARTESIAN_POINT('',(-11.9633253721,7.9020264246,0.9394138413));
#219=CARTESIAN_POINT('',(-11.9721895281,7.7060362895,0.8187461275));
#220=CARTESIAN_POINT('',(-11.9774565383,7.6170278143,0.7406411385));
#221=CARTESIAN_POINT('',(-11.9871882241,7.471541551,0.5615882915));
#222=CARTESIAN_POINT('',(-11.9917469091,7.4131546782,0.4580927977));
#223=CARTESIAN_POINT('',(-11.9980813733,7.335002677,0.2405766419));
#224=CARTESIAN_POINT('',(-11.9999206073,7.3141489591,0.1235505022));
#225=CARTESIAN_POINT('',(-12.0000739092,7.312368438,-0.1073242215));
#226=CARTESIAN_POINT('',(-11.9983987536,7.3313144906,-0.2243581219));
#227=CARTESIAN_POINT('',(-11.9923344999,7.4057093604,-0.4425136487));
#228=CARTESIAN_POINT('',(-11.9878864405,7.462167735,-0.5466408424));
#229=CARTESIAN_POINT('',(-11.9799037242,7.5798728861,-0.6967450158));
#230=CARTESIAN_POINT('',(-11.9765489905,7.633393831,-0.7513813047));
#231=CARTESIAN_POINT('',(-11.9733551379,7.6918924358,-0.7992288426));
#232=B_SPLINE_CURVE_WITH_KNOTS('',3,(#192,#193,#194,#195,#196,#197,#198,#199,#200,#201,
    #202,#203,#204,#205,#206,#207,#208,#209,#210,#211,
    #212,#213,#214,#215,#216,#217,#218,#219,#220,#221,
    #222,#223,#224,#225,#226,#227,#228,#229,#230,#231),.UNSPECIFIED.,.T.,.U.,
 (4,2,2,2,2,2,2,2,2,2,2,2,2,2,2,2,2,2,2,4),
 (0.0,0.053589025,0.1071833867,0.1606544578,0.2141440201,0.2678315223,0.3216112233,0.3752430816,0.428714479,0.4822558563,0.5359915033,0.5897506007,0.643321386,0.6967686759,0.7503255599,0.8040442719,0.8577421551,0.9113052318,0.9648590217,1.0),.UNSPECIFIED.);
#233=EDGE_CURVE('no 226',#191,#191,#232,.T.);
#234=ORIENTED_EDGE('',*,*,#233,.T.);
#235=EDGE_LOOP('',(#234));
#236=FACE_BOUND('',#235,.T.);
#237=ORIENTED_EDGE('',*,*,#166,.F.);
#238=CARTESIAN_POINT('',(11.9689320592,7.2998,0.8629399535));
#239=CARTESIAN_POINT('',(11.9620008403,7.3964711508,0.959075597));
#240=CARTESIAN_POINT('',(11.9550061813,7.511062688,1.0398607554));
#241=CARTESIAN_POINT('',(11.9441989526,7.7572658485,1.1574089073));
#242=CARTESIAN_POINT('',(11.9402818,7.8922950437,1.1957798102));
#243=CARTESIAN_POINT('',(11.9373023213,8.1632964465,1.2251655696));
#244=CARTESIAN_POINT('',(11.9381955766,8.3030015188,1.2167359328));
#245=CARTESIAN_POINT('',(11.9443112185,8.5676558378,1.1551555468));
#246=CARTESIAN_POINT('',(11.9495795353,8.6962784711,1.1012930151));
#247=CARTESIAN_POINT('',(11.962076594,8.9256928263,0.9560599432));
#248=CARTESIAN_POINT('',(11.9694334095,9.0295701234,0.8625912814));
#249=CARTESIAN_POINT('',(11.9829095488,9.1986330177,0.6491186561));
#250=CARTESIAN_POINT('',(11.9891586505,9.2660229409,0.5260618841));
#251=CARTESIAN_POINT('',(11.9976942345,9.3549314622,0.2682231515));
#252=CARTESIAN_POINT('',(12.0000713303,9.3777455737,0.1298885336));
#253=CARTESIAN_POINT('',(11.9999255226,9.376309076,-0.1421917657));
#254=CARTESIAN_POINT('',(11.9974222521,9.3522367759,-0.2796945202));
#255=CARTESIAN_POINT('',(11.9887315869,9.2614245157,-0.5354275661));
#256=CARTESIAN_POINT('',(11.9824595241,9.1934538487,-0.6571745336));
#257=CARTESIAN_POINT('',(11.9689677823,9.0232292524,-0.8689742713));
#258=CARTESIAN_POINT('',(11.9616100203,8.9184863124,-0.9618213807));
#259=CARTESIAN_POINT('',(11.9491569705,8.6870634067,-1.1058395992));
#260=CARTESIAN_POINT('',(11.9439437429,8.5571273446,-1.1589196527));
#261=CARTESIAN_POINT('',(11.9380540201,8.291028936,-1.2180916763));
#262=CARTESIAN_POINT('',(11.9373059315,8.1512148431,-1.2251473156));
#263=CARTESIAN_POINT('',(11.9405434984,7.8812977254,-1.1931799176));
#264=CARTESIAN_POINT('',(11.944544856,7.7474637003,-1.1538648802));
#265=CARTESIAN_POINT('',(11.9553285263,7.5057474333,-1.036124475));
#266=CARTESIAN_POINT('',(11.9621604202,7.3942454566,-0.956862232));
#267=CARTESIAN_POINT('',(11.9689320592,7.2998,-0.8629399535));
#268=B_SPLINE_CURVE_WITH_KNOTS('',3,(#238,#239,#240,#241,#242,#243,#244,#245,#246,#247,
    #248,#249,#250,#251,#252,#253,#254,#255,#256,#257,
    #258,#259,#260,#261,#262,#263,#264,#265,#266,#267),.UNSPECIFIED.,.F.,.U.,
 (4,2,2,2,2,2,2,2,2,2,2,2,2,2,4),
 (0.0,0.0717211324,0.1434506353,0.2149443381,0.2862465967,0.3577483353,0.4294893337,0.5011104613,0.5724382326,0.6437616922,0.7153753473,0.7871185172,0.8586276708,0.9299301287,1.0),.UNSPECIFIED.);
#269=EDGE_CURVE('no 216',#143,#145,#268,.T.);
#270=ORIENTED_EDGE('',*,*,#269,.T.);
#271=EDGE_LOOP('',(#237,#270));
#272=FACE_BOUND('',#271,.T.);
#273=CARTESIAN_POINT('',(0.0,0.0,0.0));
#274=DIRECTION('',(-0.0,-1.0,-0.0));
#275=DIRECTION('',(0.0,0.0,-1.0));
#276=AXIS2_PLACEMENT_3D('',#273,#274,#275);
#277=CYLINDRICAL_SURFACE('',#276,12.0);
#278=ADVANCED_FACE('no 156',(#189,#236,#272),#277,.T.);
#279=CARTESIAN_POINT('',(0.0,22.0124615279,-14.233760674));
#280=VERTEX_POINT('',#279);
#281=CARTESIAN_POINT('',(0.0,22.0124615279,0.0));
#282=DIRECTION('',(-0.0,-1.0,-0.0));
#283=DIRECTION('',(0.0,0.0,-1.0));
#284=AXIS2_PLACEMENT_3D('',#281,#282,#283);
#285=CIRCLE('',#284,14.233760674);
#286=EDGE_CURVE('no 363',#280,#280,#285,.T.);
#287=ORIENTED_EDGE('',*,*,#286,.T.);
#288=EDGE_LOOP('',(#287));
#289=FACE_OUTER_BOUND('',#288,.T.);
#290=CARTESIAN_POINT('',(0.0,19.8875384721,12.266239326));
#291=VERTEX_POINT('',#290);
#292=CARTESIAN_POINT('',(0.0,19.8875384721,0.0));
#293=DIRECTION('',(0.0,1.0,0.0));
#294=DIRECTION('',(0.0,-0.0,1.0));
#295=AXIS2_PLACEMENT_3D('',#292,#293,#294);
#296=CIRCLE('',#295,12.266239326);
#297=EDGE_CURVE('no 357',#291,#291,#296,.T.);
#298=ORIENTED_EDGE('',*,*,#297,.T.);
#299=EDGE_LOOP('',(#298));
#300=FACE_BOUND('',#299,.T.);
#301=CARTESIAN_POINT('',(0.0,22.3,0.0));
#302=DIRECTION('',(0.0,1.0,0.0));
#303=DIRECTION('',(0.0,-0.0,1.0));
#304=AXIS2_PLACEMENT_3D('',#301,#302,#303);
#305=CONICAL_SURFACE('',#304,14.5,0.7469555734);
#306=ADVANCED_FACE('no 160',(#289,#300),#305,.T.);
#307=CARTESIAN_POINT('',(0.0,22.6918695594,14.5));
#308=VERTEX_POINT('',#307);
#309=CARTESIAN_POINT('',(0.0,22.6918695594,0.0));
#310=DIRECTION('',(0.0,1.0,0.0));
#311=DIRECTION('',(0.0,-0.0,1.0));
#312=AXIS2_PLACEMENT_3D('',#309,#310,#311);
#313=CIRCLE('',#312,14.5);
#314=EDGE_CURVE('no 369',#308,#308,#313,.T.);
#315=ORIENTED_EDGE('',*,*,#314,.T.);
#316=EDGE_LOOP('',(#315));
#317=FACE_OUTER_BOUND('',#316,.T.);
#318=ORIENTED_EDGE('',*,*,#23,.T.);
#319=EDGE_LOOP('',(#318));
#320=FACE_BOUND('',#319,.T.);
#321=CARTESIAN_POINT('',(0.0,0.0,0.0));
#322=DIRECTION('',(-0.0,-1.0,-0.0));
#323=DIRECTION('',(0.0,0.0,-1.0));
#324=AXIS2_PLACEMENT_3D('',#321,#322,#323);
#325=CYLINDRICAL_SURFACE('',#324,14.5);
#326=ADVANCED_FACE('no 164',(#317,#320),#325,.T.);
#327=CARTESIAN_POINT('',(-14.5,9.177042827,0.0));
#328=VERTEX_POINT('',#327);
#329=CARTESIAN_POINT('',(-14.5063028046,8.3646414497,0.0));
#330=DIRECTION('',(-0.9999699062,0.0077580062,-0.0));
#331=DIRECTION('',(0.0077580062,0.9999699062,0.0));
#332=AXIS2_PLACEMENT_3D('',#329,#330,#331);
#333=CIRCLE('',#332,0.8124258263);
#334=EDGE_CURVE('no 303',#328,#328,#333,.T.);
#335=ORIENTED_EDGE('',*,*,#334,.T.);
#336=EDGE_LOOP('',(#335));
#337=FACE_OUTER_BOUND('',#336,.T.);
#338=CARTESIAN_POINT('',(-14.5,8.364592551,0.0));
#339=VERTEX_POINT('',#338);
#340=VERTEX_LOOP('',#339);
#341=FACE_BOUND('',#340,.T.);
#342=CARTESIAN_POINT('',(-14.5,8.364592551,0.0));
#343=DIRECTION('',(-0.9999699062,0.0077580062,-0.0));
#344=DIRECTION('',(-0.0077580062,-0.9999699062,0.0));
#345=AXIS2_PLACEMENT_3D('',#342,#343,#344);
#346=CONICAL_SURFACE('',#345,0.0,1.5630382428);
#347=ADVANCED_FACE('no 251',(#337,#341),#346,.F.);
#348=CARTESIAN_POINT('',(-14.3157327929,7.3491610379,0.0));
#349=VERTEX_POINT('',#348);
#350=CARTESIAN_POINT('',(-14.3078663965,8.3631019325,0.0));
#351=DIRECTION('',(0.9999699062,-0.0077580062,0.0));
#352=DIRECTION('',(-0.0077580062,-0.9999699062,0.0));
#353=AXIS2_PLACEMENT_3D('',#350,#351,#352);
#354=CIRCLE('',#353,1.0139714088);
#355=EDGE_CURVE('no 309',#349,#349,#354,.T.);
#356=ORIENTED_EDGE('',*,*,#355,.T.);
#357=EDGE_LOOP('',(#356));
#358=FACE_OUTER_BOUND('',#357,.T.);
#359=ORIENTED_EDGE('',*,*,#233,.F.);
#360=EDGE_LOOP('',(#359));
#361=FACE_BOUND('',#360,.T.);
#362=CARTESIAN_POINT('',(-14.5078543591,8.364653487,0.0));
#363=DIRECTION('',(0.9999699062,-0.0077580062,0.0));
#364=DIRECTION('',(0.0077580062,0.9999699062,0.0));
#365=AXIS2_PLACEMENT_3D('',#362,#363,#364);
#366=CONICAL_SURFACE('',#365,1.0124198076,0.007758084);
#367=ADVANCED_FACE('no 239',(#358,#361),#366,.T.);
#368=CARTESIAN_POINT('',(14.5,9.177042827,0.0));
#369=VERTEX_POINT('',#368);
#370=CARTESIAN_POINT('',(14.4919517823,8.1396660408,0.0));
#371=DIRECTION('',(0.9999699062,-0.0077580062,0.0));
#372=DIRECTION('',(0.0077580062,0.9999699062,0.0));
#373=AXIS2_PLACEMENT_3D('',#370,#371,#372);
#374=CIRCLE('',#373,1.0374080058);
#375=EDGE_CURVE('no 297',#369,#369,#374,.T.);
#376=ORIENTED_EDGE('',*,*,#375,.T.);
#377=EDGE_LOOP('',(#376));
#378=FACE_OUTER_BOUND('',#377,.T.);
#379=CARTESIAN_POINT('',(14.5,8.1396036008,0.0));
#380=VERTEX_POINT('',#379);
#381=VERTEX_LOOP('',#380);
#382=FACE_BOUND('',#381,.T.);
#383=CARTESIAN_POINT('',(14.4904002277,8.1396780781,0.0));
#384=DIRECTION('',(-0.9999699062,0.0077580062,-0.0));
#385=DIRECTION('',(-0.0077580062,-0.9999699062,0.0));
#386=AXIS2_PLACEMENT_3D('',#383,#384,#385);
#387=CONICAL_SURFACE('',#386,1.237401987,1.5630382428);
#388=ADVANCED_FACE('no 243',(#378,#382),#387,.T.);
#389=CARTESIAN_POINT('',(14.2808245301,6.9054164383,0.0));
#390=VERTEX_POINT('',#389);
#391=CARTESIAN_POINT('',(14.2904122651,8.1412296327,0.0));
#392=DIRECTION('',(-0.9999699062,0.0077580062,-0.0));
#393=DIRECTION('',(-0.0077580062,-0.9999699062,0.0));
#394=AXIS2_PLACEMENT_3D('',#391,#392,#393);
#395=CIRCLE('',#394,1.2358503858);
#396=EDGE_CURVE('no 291',#390,#390,#395,.T.);
#397=ORIENTED_EDGE('',*,*,#396,.T.);
#398=EDGE_LOOP('',(#397));
#399=FACE_OUTER_BOUND('',#398,.T.);
#400=ORIENTED_EDGE('',*,*,#269,.F.);
#401=ORIENTED_EDGE('',*,*,#159,.T.);
#402=EDGE_LOOP('',(#400,#401));
#403=FACE_BOUND('',#402,.T.);
#404=CARTESIAN_POINT('',(-14.5078543591,8.364653487,0.0));
#405=DIRECTION('',(0.9999699062,-0.0077580062,0.0));
#406=DIRECTION('',(0.0077580062,0.9999699062,0.0));
#407=AXIS2_PLACEMENT_3D('',#404,#405,#406);
#408=CONICAL_SURFACE('',#407,1.0124198076,0.007758084);
#409=ADVANCED_FACE('no 247',(#399,#403),#408,.T.);
#410=ORIENTED_EDGE('',*,*,#375,.F.);
#411=EDGE_LOOP('',(#410));
#412=FACE_OUTER_BOUND('',#411,.T.);
#413=ORIENTED_EDGE('',*,*,#396,.F.);
#414=EDGE_LOOP('',(#413));
#415=FACE_BOUND('',#414,.T.);
#416=CARTESIAN_POINT('',(14.2919638196,8.1412175953,0.0));
#417=DIRECTION('',(0.9999699062,-0.0077580062,0.0));
#418=DIRECTION('',(0.0077580062,0.9999699062,0.0));
#419=AXIS2_PLACEMENT_3D('',#416,#417,#418);
#420=TOROIDAL_SURFACE('',#419,1.0358564045,0.2);
#421=ADVANCED_FACE('no 322',(#412,#415),#420,.T.);
#422=ORIENTED_EDGE('',*,*,#355,.F.);
#423=EDGE_LOOP('',(#422));
#424=FACE_OUTER_BOUND('',#423,.T.);
#425=ORIENTED_EDGE('',*,*,#334,.F.);
#426=EDGE_LOOP('',(#425));
#427=FACE_BOUND('',#426,.T.);
#428=CARTESIAN_POINT('',(-14.3063148419,8.3630898951,0.0));
#429=DIRECTION('',(0.9999699062,-0.0077580062,0.0));
#430=DIRECTION('',(0.0077580062,0.9999699062,0.0));
#431=AXIS2_PLACEMENT_3D('',#428,#429,#430);
#432=TOROIDAL_SURFACE('',#431,0.8139774276,0.2);
#433=ADVANCED_FACE('no 335',(#424,#427),#432,.T.);
#434=ORIENTED_EDGE('',*,*,#314,.F.);
#435=EDGE_LOOP('',(#434));
#436=FACE_OUTER_BOUND('',#435,.T.);
#437=ORIENTED_EDGE('',*,*,#286,.F.);
#438=EDGE_LOOP('',(#437));
#439=FACE_BOUND('',#438,.T.);
#440=CARTESIAN_POINT('',(0.0,22.6918695594,0.0));
#441=DIRECTION('',(0.0,1.0,0.0));
#442=DIRECTION('',(0.0,-0.0,1.0));
#443=AXIS2_PLACEMENT_3D('',#440,#441,#442);
#444=TOROIDAL_SURFACE('',#443,13.5,1.0);
#445=ADVANCED_FACE('no 388',(#436,#439),#444,.T.);
#446=ORIENTED_EDGE('',*,*,#297,.F.);
#447=EDGE_LOOP('',(#446));
#448=FACE_OUTER_BOUND('',#447,.T.);
#449=ORIENTED_EDGE('',*,*,#186,.F.);
#450=EDGE_LOOP('',(#449));
#451=FACE_BOUND('',#450,.T.);
#452=CARTESIAN_POINT('',(0.0,19.2081304406,0.0));
#453=DIRECTION('',(-0.0,-1.0,-0.0));
#454=DIRECTION('',(0.0,0.0,-1.0));
#455=AXIS2_PLACEMENT_3D('',#452,#453,#454);
#456=TOROIDAL_SURFACE('',#455,13.0,1.0);
#457=ADVANCED_FACE('no 401',(#448,#451),#456,.F.);
#458=CLOSED_SHELL('Fillet2',(
    #43,#67,#87,#104,#121,#141,#178,#278,#306,#326,
    #347,#367,#388,#409,#421,#433,#445,#457));
#459=MANIFOLD_SOLID_BREP('Fillet2',#458);
#460=COLOUR_RGB('',0.79608,0.82353,0.93725);
#461=FILL_AREA_STYLE_COLOUR('',#460);
#462=FILL_AREA_STYLE('',(#461));
#463=SURFACE_STYLE_FILL_AREA(#462);
#464=SURFACE_SIDE_STYLE('',(#463));
#465=SURFACE_STYLE_USAGE(.BOTH.,#464);
#466=PRESENTATION_STYLE_ASSIGNMENT((#465));
#467=STYLED_ITEM('',(#466),#459);
#468=CARTESIAN_POINT('',(0.,0.,0.));
#469=DIRECTION('',(0.,0.,1.));
#470=DIRECTION('',(1.,0.,0.));
#471=AXIS2_PLACEMENT_3D('Reference Axes',#468,#469,#470);
#472=SHAPE_REPRESENTATION('',(#471,#459),#5);
#473=SHAPE_DEFINITION_REPRESENTATION(#12,#472);
#475=CARTESIAN_POINT('',(15.0,32.7261623414,-0.0));
#476=CARTESIAN_POINT('',(15.0,30.0,0.0));
#477=POLYLINE('',(#475,#476));
#478=CARTESIAN_POINT('',(0.0,32.7261623414,-0.0));
#479=CARTESIAN_POINT('',(0.0,30.0,0.0));
#480=POLYLINE('',(#478,#479));
#481=CARTESIAN_POINT('',(15.0,32.2261623414,-0.0));
#482=CARTESIAN_POINT('',(21.35,32.2261623414,-0.0));
#483=CARTESIAN_POINT('',(3.9024035592,32.2261623414,-0.0));
#484=CARTESIAN_POINT('',(9.3034912547,32.2261623414,-0.0));
#485=POLYLINE('',(#481,#482,#483,#484));
#486=CARTESIAN_POINT('',(15.0,32.2261623414,-0.0));
#487=CARTESIAN_POINT('',(18.302,31.7181623414,-0.0));
#488=POLYLINE('',(#486,#487));
#489=CARTESIAN_POINT('',(15.0,32.2261623414,-0.0));
#490=CARTESIAN_POINT('',(18.302,32.7341623414,-0.0));
#491=POLYLINE('',(#489,#490));
#492=CARTESIAN_POINT('',(15.1100666667,32.2092290081,-0.0));
#493=CARTESIAN_POINT('',(15.1100666667,32.2430956748,-0.0));
#494=POLYLINE('',(#492,#493));
#495=CARTESIAN_POINT('',(15.2201333333,32.1922956748,-0.0));
#496=CARTESIAN_POINT('',(15.2201333333,32.2600290081,-0.0));
#497=POLYLINE('',(#495,#496));
#498=CARTESIAN_POINT('',(15.3302,32.1753623414,-0.0));
#499=CARTESIAN_POINT('',(15.3302,32.2769623414,-0.0));
#500=POLYLINE('',(#498,#499));
#501=CARTESIAN_POINT('',(15.4402666667,32.1584290081,-0.0));
#502=CARTESIAN_POINT('',(15.4402666667,32.2938956748,-0.0));
#503=POLYLINE('',(#501,#502));
#504=CARTESIAN_POINT('',(15.5503333333,32.1414956748,-0.0));
#505=CARTESIAN_POINT('',(15.5503333333,32.3108290081,-0.0));
#506=POLYLINE('',(#504,#505));
#507=CARTESIAN_POINT('',(15.6604,32.1245623414,-0.0));
#508=CARTESIAN_POINT('',(15.6604,32.3277623414,-0.0));
#509=POLYLINE('',(#507,#508));
#510=CARTESIAN_POINT('',(15.7704666667,32.1076290081,-0.0));
#511=CARTESIAN_POINT('',(15.7704666667,32.3446956748,-0.0));
#512=POLYLINE('',(#510,#511));
#513=CARTESIAN_POINT('',(15.8805333333,32.0906956748,-0.0));
#514=CARTESIAN_POINT('',(15.8805333333,32.3616290081,-0.0));
#515=POLYLINE('',(#513,#514));
#516=CARTESIAN_POINT('',(15.9906,32.0737623414,-0.0));
#517=CARTESIAN_POINT('',(15.9906,32.3785623414,-0.0));
#518=POLYLINE('',(#516,#517));
#519=CARTESIAN_POINT('',(16.1006666667,32.0568290081,-0.0));
#520=CARTESIAN_POINT('',(16.1006666667,32.3954956748,-0.0));
#521=POLYLINE('',(#519,#520));
#522=CARTESIAN_POINT('',(16.2107333333,32.0398956748,-0.0));
#523=CARTESIAN_POINT('',(16.2107333333,32.4124290081,-0.0));
#524=POLYLINE('',(#522,#523));
#525=CARTESIAN_POINT('',(16.3208,32.0229623414,-0.0));
#526=CARTESIAN_POINT('',(16.3208,32.4293623414,-0.0));
#527=POLYLINE('',(#525,#526));
#528=CARTESIAN_POINT('',(16.4308666667,32.0060290081,-0.0));
#529=CARTESIAN_POINT('',(16.4308666667,32.4462956748,-0.0));
#530=POLYLINE('',(#528,#529));
#531=CARTESIAN_POINT('',(16.5409333333,31.9890956748,-0.0));
#532=CARTESIAN_POINT('',(16.5409333333,32.4632290081,-0.0));
#533=POLYLINE('',(#531,#532));
#534=CARTESIAN_POINT('',(16.651,31.9721623414,-0.0));
#535=CARTESIAN_POINT('',(16.651,32.4801623414,-0.0));
#536=POLYLINE('',(#534,#535));
#537=CARTESIAN_POINT('',(16.7610666667,31.9552290081,-0.0));
#538=CARTESIAN_POINT('',(16.7610666667,32.4970956748,-0.0));
#539=POLYLINE('',(#537,#538));
#540=CARTESIAN_POINT('',(16.8711333333,31.9382956748,-0.0));
#541=CARTESIAN_POINT('',(16.8711333333,32.5140290081,-0.0));
#542=POLYLINE('',(#540,#541));
#543=CARTESIAN_POINT('',(16.9812,31.9213623414,-0.0));
#544=CARTESIAN_POINT('',(16.9812,32.5309623414,-0.0));
#545=POLYLINE('',(#543,#544));
#546=CARTESIAN_POINT('',(17.0912666667,31.9044290081,-0.0));
#547=CARTESIAN_POINT('',(17.0912666667,32.5478956748,-0.0));
#548=POLYLINE('',(#546,#547));
#549=CARTESIAN_POINT('',(17.2013333333,31.8874956748,-0.0));
#550=CARTESIAN_POINT('',(17.2013333333,32.5648290081,-0.0));
#551=POLYLINE('',(#549,#550));
#552=CARTESIAN_POINT('',(17.3114,31.8705623414,-0.0));
#553=CARTESIAN_POINT('',(17.3114,32.5817623414,-0.0));
#554=POLYLINE('',(#552,#553));
#555=CARTESIAN_POINT('',(17.4214666667,31.8536290081,-0.0));
#556=CARTESIAN_POINT('',(17.4214666667,32.5986956748,-0.0));
#557=POLYLINE('',(#555,#556));
#558=CARTESIAN_POINT('',(17.5315333333,31.8366956748,-0.0));
#559=CARTESIAN_POINT('',(17.5315333333,32.6156290081,-0.0));
#560=POLYLINE('',(#558,#559));
#561=CARTESIAN_POINT('',(17.6416,31.8197623414,-0.0));
#562=CARTESIAN_POINT('',(17.6416,32.6325623414,-0.0));
#563=POLYLINE('',(#561,#562));
#564=CARTESIAN_POINT('',(17.7516666667,31.8028290081,-0.0));
#565=CARTESIAN_POINT('',(17.7516666667,32.6494956748,-0.0));
#566=POLYLINE('',(#564,#565));
#567=CARTESIAN_POINT('',(17.8617333333,31.7858956748,-0.0));
#568=CARTESIAN_POINT('',(17.8617333333,32.6664290081,-0.0));
#569=POLYLINE('',(#567,#568));
#570=CARTESIAN_POINT('',(17.9718,31.7689623414,-0.0));
#571=CARTESIAN_POINT('',(17.9718,32.6833623414,-0.0));
#572=POLYLINE('',(#570,#571));
#573=CARTESIAN_POINT('',(18.0818666667,31.7520290081,-0.0));
#574=CARTESIAN_POINT('',(18.0818666667,32.7002956748,-0.0));
#575=POLYLINE('',(#573,#574));
#576=CARTESIAN_POINT('',(18.1919333333,31.7350956748,-0.0));
#577=CARTESIAN_POINT('',(18.1919333333,32.7172290081,-0.0));
#578=POLYLINE('',(#576,#577));
#579=CARTESIAN_POINT('',(18.302,31.7181623414,-0.0));
#580=CARTESIAN_POINT('',(18.302,32.7341623414,-0.0));
#581=POLYLINE('',(#579,#580));
#582=CARTESIAN_POINT('',(0.0,32.2261623414,-0.0));
#583=CARTESIAN_POINT('',(-6.35,32.2261623414,-0.0));
#584=CARTESIAN_POINT('',(15.0,32.2261623414,-0.0));
#585=POLYLINE('',(#582,#583,#584));
#586=CARTESIAN_POINT('',(0.0,32.2261623414,-0.0));
#587=CARTESIAN_POINT('',(-3.302,32.7341623414,-0.0));
#588=POLYLINE('',(#586,#587));
#589=CARTESIAN_POINT('',(0.0,32.2261623414,-0.0));
#590=CARTESIAN_POINT('',(-3.302,31.7181623414,-0.0));
#591=POLYLINE('',(#589,#590));
#592=CARTESIAN_POINT('',(-0.1100666667,32.2430956748,-0.0));
#593=CARTESIAN_POINT('',(-0.1100666667,32.2092290081,-0.0));
#594=POLYLINE('',(#592,#593));
#595=CARTESIAN_POINT('',(-0.2201333333,32.2600290081,-0.0));
#596=CARTESIAN_POINT('',(-0.2201333333,32.1922956748,-0.0));
#597=POLYLINE('',(#595,#596));
#598=CARTESIAN_POINT('',(-0.3302,32.2769623414,-0.0));
#599=CARTESIAN_POINT('',(-0.3302,32.1753623414,-0.0));
#600=POLYLINE('',(#598,#599));
#601=CARTESIAN_POINT('',(-0.4402666667,32.2938956748,-0.0));
#602=CARTESIAN_POINT('',(-0.4402666667,32.1584290081,-0.0));
#603=POLYLINE('',(#601,#602));
#604=CARTESIAN_POINT('',(-0.5503333333,32.3108290081,-0.0));
#605=CARTESIAN_POINT('',(-0.5503333333,32.1414956748,-0.0));
#606=POLYLINE('',(#604,#605));
#607=CARTESIAN_POINT('',(-0.6604,32.3277623414,-0.0));
#608=CARTESIAN_POINT('',(-0.6604,32.1245623414,-0.0));
#609=POLYLINE('',(#607,#608));
#610=CARTESIAN_POINT('',(-0.7704666667,32.3446956748,-0.0));
#611=CARTESIAN_POINT('',(-0.7704666667,32.1076290081,-0.0));
#612=POLYLINE('',(#610,#611));
#613=CARTESIAN_POINT('',(-0.8805333333,32.3616290081,-0.0));
#614=CARTESIAN_POINT('',(-0.8805333333,32.0906956748,-0.0));
#615=POLYLINE('',(#613,#614));
#616=CARTESIAN_POINT('',(-0.9906,32.3785623414,-0.0));
#617=CARTESIAN_POINT('',(-0.9906,32.0737623414,-0.0));
#618=POLYLINE('',(#616,#617));
#619=CARTESIAN_POINT('',(-1.1006666667,32.3954956748,-0.0));
#620=CARTESIAN_POINT('',(-1.1006666667,32.0568290081,-0.0));
#621=POLYLINE('',(#619,#620));
#622=CARTESIAN_POINT('',(-1.2107333333,32.4124290081,-0.0));
#623=CARTESIAN_POINT('',(-1.2107333333,32.0398956748,-0.0));
#624=POLYLINE('',(#622,#623));
#625=CARTESIAN_POINT('',(-1.3208,32.4293623414,-0.0));
#626=CARTESIAN_POINT('',(-1.3208,32.0229623414,-0.0));
#627=POLYLINE('',(#625,#626));
#628=CARTESIAN_POINT('',(-1.4308666667,32.4462956748,-0.0));
#629=CARTESIAN_POINT('',(-1.4308666667,32.0060290081,-0.0));
#630=POLYLINE('',(#628,#629));
#631=CARTESIAN_POINT('',(-1.5409333333,32.4632290081,-0.0));
#632=CARTESIAN_POINT('',(-1.5409333333,31.9890956748,-0.0));
#633=POLYLINE('',(#631,#632));
#634=CARTESIAN_POINT('',(-1.651,32.4801623414,-0.0));
#635=CARTESIAN_POINT('',(-1.651,31.9721623414,-0.0));
#636=POLYLINE('',(#634,#635));
#637=CARTESIAN_POINT('',(-1.7610666667,32.4970956748,-0.0));
#638=CARTESIAN_POINT('',(-1.7610666667,31.9552290081,-0.0));
#639=POLYLINE('',(#637,#638));
#640=CARTESIAN_POINT('',(-1.8711333333,32.5140290081,-0.0));
#641=CARTESIAN_POINT('',(-1.8711333333,31.9382956748,-0.0));
#642=POLYLINE('',(#640,#641));
#643=CARTESIAN_POINT('',(-1.9812,32.5309623414,-0.0));
#644=CARTESIAN_POINT('',(-1.9812,31.9213623414,-0.0));
#645=POLYLINE('',(#643,#644));
#646=CARTESIAN_POINT('',(-2.0912666667,32.5478956748,-0.0));
#647=CARTESIAN_POINT('',(-2.0912666667,31.9044290081,-0.0));
#648=POLYLINE('',(#646,#647));
#649=CARTESIAN_POINT('',(-2.2013333333,32.5648290081,-0.0));
#650=CARTESIAN_POINT('',(-2.2013333333,31.8874956748,-0.0));
#651=POLYLINE('',(#649,#650));
#652=CARTESIAN_POINT('',(-2.3114,32.5817623414,-0.0));
#653=CARTESIAN_POINT('',(-2.3114,31.8705623414,-0.0));
#654=POLYLINE('',(#652,#653));
#655=CARTESIAN_POINT('',(-2.4214666667,32.5986956748,-0.0));
#656=CARTESIAN_POINT('',(-2.4214666667,31.8536290081,-0.0));
#657=POLYLINE('',(#655,#656));
#658=CARTESIAN_POINT('',(-2.5315333333,32.6156290081,-0.0));
#659=CARTESIAN_POINT('',(-2.5315333333,31.8366956748,-0.0));
#660=POLYLINE('',(#658,#659));
#661=CARTESIAN_POINT('',(-2.6416,32.6325623414,-0.0));
#662=CARTESIAN_POINT('',(-2.6416,31.8197623414,-0.0));
#663=POLYLINE('',(#661,#662));
#664=CARTESIAN_POINT('',(-2.7516666667,32.6494956748,-0.0));
#665=CARTESIAN_POINT('',(-2.7516666667,31.8028290081,-0.0));
#666=POLYLINE('',(#664,#665));
#667=CARTESIAN_POINT('',(-2.8617333333,32.6664290081,-0.0));
#668=CARTESIAN_POINT('',(-2.8617333333,31.7858956748,-0.0));
#669=POLYLINE('',(#667,#668));
#670=CARTESIAN_POINT('',(-2.9718,32.6833623414,-0.0));
#671=CARTESIAN_POINT('',(-2.9718,31.7689623414,-0.0));
#672=POLYLINE('',(#670,#671));
#673=CARTESIAN_POINT('',(-3.0818666667,32.7002956748,-0.0));
#674=CARTESIAN_POINT('',(-3.0818666667,31.7520290081,-0.0));
#675=POLYLINE('',(#673,#674));
#676=CARTESIAN_POINT('',(-3.1919333333,32.7172290081,-0.0));
#677=CARTESIAN_POINT('',(-3.1919333333,31.7350956748,-0.0));
#678=POLYLINE('',(#676,#677));
#679=CARTESIAN_POINT('',(-3.302,32.7341623414,-0.0));
#680=CARTESIAN_POINT('',(-3.302,31.7181623414,-0.0));
#681=POLYLINE('',(#679,#680));
#682=CARTESIAN_POINT('',(4.0886479625,37.1844956748,-0.0));
#683=CARTESIAN_POINT('',(4.4611367691,37.4761623414,-0.0));
#684=CARTESIAN_POINT('',(4.4611367691,33.9761623414,-0.0));
#685=POLYLINE('',(#682,#683,#684));
#686=CARTESIAN_POINT('',(3.9024035592,33.9761623414,-0.0));
#687=CARTESIAN_POINT('',(5.019869979,33.9761623414,-0.0));
#688=POLYLINE('',(#686,#687));
#689=CARTESIAN_POINT('',(5.7182864913,34.4136623414,-0.0));
#690=CARTESIAN_POINT('',(6.602947407,33.9761623414,-0.0));
#691=CARTESIAN_POINT('',(8.4188303391,33.9761623414,-0.0));
#692=CARTESIAN_POINT('',(9.3034912547,34.4136623414,-0.0));
#693=CARTESIAN_POINT('',(9.3034912547,35.7261623414,-0.0));
#694=CARTESIAN_POINT('',(8.4188303391,36.1636623414,-0.0));
#695=CARTESIAN_POINT('',(6.602947407,36.1636623414,-0.0));
#696=CARTESIAN_POINT('',(5.7182864913,35.7261623414,-0.0));
#697=CARTESIAN_POINT('',(5.7182864913,37.4761623414,-0.0));
#698=CARTESIAN_POINT('',(9.3034912547,37.4761623414,-0.0));
#699=POLYLINE('',(#689,#690,#691,#692,#693,#694,#695,#696,#697,#698));
#700=GEOMETRIC_CURVE_SET('linear dimension',(
    #477,#480,#485,#488,#491,#494,#497,#500,#503,#506,
    #509,#512,#515,#518,#521,#524,#527,#530,#533,#536,
    #539,#542,#545,#548,#551,#554,#557,#560,#563,#566,
    #569,#572,#575,#578,#581,#585,#588,#591,#594,#597,
    #600,#603,#606,#609,#612,#615,#618,#621,#624,#627,
    #630,#633,#636,#639,#642,#645,#648,#651,#654,#657,
    #660,#663,#666,#669,#672,#675,#678,#681,#685,#688,
    #699));
#701=DRAUGHTING_PRE_DEFINED_COLOUR('black');
#702=DRAUGHTING_PRE_DEFINED_CURVE_FONT('continuous');
#703=LENGTH_MEASURE_WITH_UNIT(POSITIVE_LENGTH_MEASURE(0.1),#3);
#704=CURVE_STYLE('',#702,#703,#701);
#705=PRESENTATION_STYLE_ASSIGNMENT((#704));
#706= (ANNOTATION_CURVE_OCCURRENCE() ANNOTATION_OCCURRENCE()
    GEOMETRIC_REPRESENTATION_ITEM() REPRESENTATION_ITEM('RD1')
    STYLED_ITEM((#705),#700));
#707=DRAUGHTING_CALLOUT('RD1',(#706));
#708=CARTESIAN_POINT('',(0.0,0.0,0.0));
#709=DIRECTION('',(0.0,0.0,-1.0));
#710=DIRECTION('',(1.0,0.0,0.0));
#711=AXIS2_PLACEMENT_3D('',#708,#709,#710);
#712=PRESENTATION_STYLE_ASSIGNMENT((NULL_STYLE(.NULL.)));
#713=PLANE('',#711);
#714=ANNOTATION_PLANE('',(#712),#713,(#707));
#715=DRAUGHTING_MODEL_ITEM_ASSOCIATION('','',#12,#474,#707);
#716=CARTESIAN_POINT('',(0.0,60.0,116.4383928618));
#717=DIRECTION('',(0.0,0.0,-1.0));
#718=DIRECTION('',(-1.0,0.0,0.0));
#719=AXIS2_PLACEMENT_3D('View Reference',#716,#717,#718);
#720=CARTESIAN_POINT('',(0.0,0.0,0.0));
#721=CARTESIAN_POINT('',(-109.4431298185,-174.0,116.4383928618));
#722=DIRECTION('',(0.0,0.0,1.0));
#723=DIRECTION('',(1.0,0.0,0.0));
#724=AXIS2_PLACEMENT_3D('View placement',#721,#722,#723);
#725=PLANAR_BOX('',218.8862596,348.0,#724);
#726=VIEW_VOLUME(.PARALLEL.,#720,116.4383929,0.,.F.,0.,.F.,.F.,#725);
#727=CAMERA_MODEL_D3('*Front',#719,#726);
#728=CARTESIAN_POINT('',(0.,0.,0.));
#729=DIRECTION('',(0.,0.,1.));
#730=DIRECTION('',(1.,0.,0.));
#731=AXIS2_PLACEMENT_3D('',#728,#729,#730);
#732=REPRESENTATION_MAP(#731,#472);
#733=MAPPED_ITEM('',#732,#731);
#734=DRAUGHTING_MODEL('*Front',(#727,#733,#707),#5);
#735=MECHANICAL_DESIGN_AND_DRAUGHTING_RELATIONSHIP('','',#734,#474);
#736=CARTESIAN_POINT('',(-50.2148246144,88.8417083064,-51.6948768009));
#737=DIRECTION('',(0.6468848897,-0.3715489487,0.6659514383));
#738=DIRECTION('',(0.715650079,-0.0058676908,-0.6984343452));
#739=AXIS2_PLACEMENT_3D('View Reference',#736,#737,#738);
#740=CARTESIAN_POINT('',(0.0,0.0,0.0));
#741=CARTESIAN_POINT('',(-39.036185363,-62.0623356114,77.6255952412));
#742=DIRECTION('',(0.0,0.0,1.0));
#743=DIRECTION('',(1.0,0.0,0.0));
#744=AXIS2_PLACEMENT_3D('View placement',#741,#742,#743);
#745=PLANAR_BOX('',78.0723707,124.1246712,#744);
#746=VIEW_VOLUME(.PARALLEL.,#740,77.6255952,0.,.F.,0.,.F.,.F.,#745);
#747=CAMERA_MODEL_D3('*Document Default Camera',#739,#746);
#748=CARTESIAN_POINT('',(0.,0.,0.));
#749=DIRECTION('',(0.,0.,1.));
#750=DIRECTION('',(1.,0.,0.));
#751=AXIS2_PLACEMENT_3D('',#748,#749,#750);
#752=REPRESENTATION_MAP(#751,#472);
#753=MAPPED_ITEM('',#752,#751);
#754=DRAUGHTING_MODEL('*Document Default Camera',(#747,#753,#707),#5);
#755=MECHANICAL_DESIGN_AND_DRAUGHTING_RELATIONSHIP('','',#754,#474);
#756=CARTESIAN_POINT('',(0.,0.,0.));
#757=DIRECTION('',(0.,0.,1.));
#758=DIRECTION('',(1.,0.,0.));
#759=AXIS2_PLACEMENT_3D('',#756,#757,#758);
#760=REPRESENTATION_MAP(#759,#472);
#761=MAPPED_ITEM('',#760,#759);
#474=DRAUGHTING_MODEL('',(#467,#761,#714),#5);
ENDSEC;
END-ISO-10303-21;
