<?xml version="1.0" encoding="UTF-8" standalone="no"?>
<svg
   xmlns:dc="http://purl.org/dc/elements/1.1/"
   xmlns:cc="http://creativecommons.org/ns#"
   xmlns:rdf="http://www.w3.org/1999/02/22-rdf-syntax-ns#"
   xmlns:svg="http://www.w3.org/2000/svg"
   xmlns="http://www.w3.org/2000/svg"
   xmlns:sodipodi="http://sodipodi.sourceforge.net/DTD/sodipodi-0.dtd"
   xmlns:inkscape="http://www.inkscape.org/namespaces/inkscape"
   version="1.1"
   width="50mm"
   height="119.67485mm"
   viewBox="0 0 50 119.67485"
   id="svg2"
   inkscape:version="0.91 r"
   sodipodi:docname="chair_back_a.svg">
  <metadata
     id="metadata147">
    <rdf:RDF>
      <cc:Work
         rdf:about="">
        <dc:format>image/svg+xml</dc:format>
        <dc:type
           rdf:resource="http://purl.org/dc/dcmitype/StillImage" />
        <dc:title></dc:title>
      </cc:Work>
    </rdf:RDF>
  </metadata>
  <sodipodi:namedview
     pagecolor="#ffffff"
     bordercolor="#666666"
     borderopacity="1"
     objecttolerance="10"
     gridtolerance="10"
     guidetolerance="10"
     inkscape:pageopacity="0"
     inkscape:pageshadow="2"
     inkscape:window-width="1920"
     inkscape:window-height="1050"
     id="namedview145"
     showgrid="false"
     fit-margin-top="0"
     fit-margin-left="0"
     fit-margin-right="0"
     fit-margin-bottom="0"
     inkscape:zoom="3.5883013"
     inkscape:cx="71.162425"
     inkscape:cy="213.97566"
     inkscape:window-x="0"
     inkscape:window-y="30"
     inkscape:window-maximized="1"
     inkscape:current-layer="svg2" />
  <!-- Working space 0 0 297 210 -->
  <defs
     id="defs4">
    <radialGradient
       id="radialGradient3661"
       gradientUnits="userSpaceOnUse"
       cy="29.149"
       cx="282.64999"
       gradientTransform="matrix(0.14777,0.23089,-0.2468,0.15795,-26.318,-62.617)"
       r="19.570999">
      <stop
         stop-color="#71b2f8"
         offset="0"
         id="stop7" />
      <stop
         stop-color="#002795"
         offset="1"
         id="stop9" />
    </radialGradient>
    <radialGradient
       id="radialGradient3817"
       gradientUnits="userSpaceOnUse"
       cy="33.900002"
       cx="270.57999"
       gradientTransform="matrix(0.26631,0.065024,-0.17931,0.73438,-60.668,-36.938)"
       r="19.570999">
      <stop
         stop-color="#ff6d0f"
         offset="0"
         id="stop12" />
      <stop
         stop-color="#ff1000"
         offset="1"
         id="stop14" />
    </radialGradient>
  </defs>
  <!-- Set display:none to hide FreeCAD Logo -->
  <g
     id="Ortho_1_0"
     transform="matrix(0,-0.99535502,0.99535502,0,25,59.837426)">
    <g
       transform="scale(1,-1)"
       id="g59"
       style="fill:none;stroke:#000000;stroke-width:0.23333301;stroke-linecap:butt;stroke-linejoin:miter">
      <path
         id="path61"
         d="m 0,-25 60,0"
         inkscape:connector-curvature="0" />
      <path
         id="path63"
         d="m 60,-25 0,50"
         inkscape:connector-curvature="0" />
      <path
         id="path65"
         d="M 60,25 0,25"
         inkscape:connector-curvature="0" />
      <path
         id="path67"
         d="m 0,25 -10,0"
         inkscape:connector-curvature="0" />
      <path
         id="path69"
         d="m -10,25 0,-1"
         inkscape:connector-curvature="0" />
      <path
         id="path71"
         d="m -10,24 -10,0"
         inkscape:connector-curvature="0" />
      <path
         id="path73"
         d="m -20,24 0,1"
         inkscape:connector-curvature="0" />
      <path
         id="path75"
         d="m -20,25 -10,0"
         inkscape:connector-curvature="0" />
      <path
         id="path77"
         d="m -30,25 0,-1"
         inkscape:connector-curvature="0" />
      <path
         id="path79"
         d="m -30,24 -10,0"
         inkscape:connector-curvature="0" />
      <path
         id="path81"
         d="m -40,24 0,1"
         inkscape:connector-curvature="0" />
      <path
         id="path83"
         d="m -40,25 -10,0"
         inkscape:connector-curvature="0" />
      <path
         id="path85"
         d="m -50,25 0,-1"
         inkscape:connector-curvature="0" />
      <path
         id="path87"
         d="m -50,24 -10,0"
         inkscape:connector-curvature="0" />
      <path
         id="path89"
         d="m -60,24 0,-4"
         inkscape:connector-curvature="0" />
      <path
         id="path91"
         d="m -60,20 30,0"
         inkscape:connector-curvature="0" />
      <path
         id="path93"
         d="m -30,20 0,-40"
         inkscape:connector-curvature="0" />
      <path
         id="path95"
         d="m -30,-20 -30,0"
         inkscape:connector-curvature="0" />
      <path
         id="path97"
         d="m -60,-20 0,-4"
         inkscape:connector-curvature="0" />
      <path
         id="path99"
         d="m -60,-24 10,0"
         inkscape:connector-curvature="0" />
      <path
         id="path101"
         d="m -50,-24 0,-1"
         inkscape:connector-curvature="0" />
      <path
         id="path103"
         d="m -50,-25 10,0"
         inkscape:connector-curvature="0" />
      <path
         id="path105"
         d="m -40,-25 0,1"
         inkscape:connector-curvature="0" />
      <path
         id="path107"
         d="m -40,-24 10,0"
         inkscape:connector-curvature="0" />
      <path
         id="path109"
         d="m -30,-24 0,-1"
         inkscape:connector-curvature="0" />
      <path
         id="path111"
         d="m -30,-25 10,0"
         inkscape:connector-curvature="0" />
      <path
         id="path113"
         d="m -20,-25 0,1"
         inkscape:connector-curvature="0" />
      <path
         id="path115"
         d="m -20,-24 10,0"
         inkscape:connector-curvature="0" />
      <path
         id="path117"
         d="m -10,-24 0,-1"
         inkscape:connector-curvature="0" />
      <path
         id="path119"
         d="m -10,-25 10,0"
         inkscape:connector-curvature="0" />
      <path
         id="path121"
         d="m 56,-20 0,40"
         inkscape:connector-curvature="0" />
      <path
         id="path123"
         d="M 56,20 34,20"
         inkscape:connector-curvature="0" />
      <path
         id="path125"
         d="m 34,20 0,-40"
         inkscape:connector-curvature="0" />
      <path
         id="path127"
         d="m 34,-20 22,0"
         inkscape:connector-curvature="0" />
      <path
         id="35"
         d="M 8,-20 8,20"
         inkscape:connector-curvature="0" />
      <path
         id="36"
         d="m 8,20 22,0"
         inkscape:connector-curvature="0" />
      <path
         id="37"
         d="m 30,20 0,-40"
         inkscape:connector-curvature="0" />
      <path
         id="38"
         d="M 30,-20 8,-20"
         inkscape:connector-curvature="0" />
      <path
         id="39"
         d="m -4,-20 0,40"
         inkscape:connector-curvature="0" />
      <path
         id="40"
         d="m -4,20 -22,0"
         inkscape:connector-curvature="0" />
      <path
         id="41"
         d="m -26,20 0,-40"
         inkscape:connector-curvature="0" />
      <path
         id="42"
         d="m -26,-20 22,0"
         inkscape:connector-curvature="0" />
      <path
         id="43"
         d="M 1,5 1,15"
         inkscape:connector-curvature="0" />
      <path
         id="44"
         d="M 1,15 0,15"
         inkscape:connector-curvature="0" />
      <path
         id="45"
         d="M 0,15 0,5"
         inkscape:connector-curvature="0" />
      <path
         id="46"
         d="M 0,5 1,5"
         inkscape:connector-curvature="0" />
      <path
         id="47"
         d="M 1,-15 1,-5"
         inkscape:connector-curvature="0" />
      <path
         id="48"
         d="M 1,-5 0,-5"
         inkscape:connector-curvature="0" />
      <path
         id="49"
         d="M 0,-5 0,-15"
         inkscape:connector-curvature="0" />
      <path
         id="50"
         d="m 0,-15 1,0"
         inkscape:connector-curvature="0" />
    </g>
  </g>
</svg>
