<?xml version="1.0" encoding="UTF-8" standalone="no"?>
<svg
   xmlns:dc="http://purl.org/dc/elements/1.1/"
   xmlns:cc="http://creativecommons.org/ns#"
   xmlns:rdf="http://www.w3.org/1999/02/22-rdf-syntax-ns#"
   xmlns:svg="http://www.w3.org/2000/svg"
   xmlns="http://www.w3.org/2000/svg"
   xmlns:sodipodi="http://sodipodi.sourceforge.net/DTD/sodipodi-0.dtd"
   xmlns:inkscape="http://www.inkscape.org/namespaces/inkscape"
   version="1.1"
   width="50mm"
   height="60.961636mm"
   viewBox="0 0 50 60.961636"
   id="svg2"
   inkscape:version="0.91 r"
   sodipodi:docname="chair_side.svg">
  <metadata
     id="metadata66">
    <rdf:RDF>
      <cc:Work
         rdf:about="">
        <dc:format>image/svg+xml</dc:format>
        <dc:type
           rdf:resource="http://purl.org/dc/dcmitype/StillImage" />
        <dc:title></dc:title>
      </cc:Work>
    </rdf:RDF>
  </metadata>
  <sodipodi:namedview
     pagecolor="#ffffff"
     bordercolor="#666666"
     borderopacity="1"
     objecttolerance="10"
     gridtolerance="10"
     guidetolerance="10"
     inkscape:pageopacity="0"
     inkscape:pageshadow="2"
     inkscape:window-width="1920"
     inkscape:window-height="1050"
     id="namedview64"
     showgrid="false"
     fit-margin-top="0"
     fit-margin-left="0"
     fit-margin-right="0"
     fit-margin-bottom="0"
     inkscape:zoom="3.5883013"
     inkscape:cx="81.735384"
     inkscape:cy="100.97158"
     inkscape:window-x="0"
     inkscape:window-y="30"
     inkscape:window-maximized="1"
     inkscape:current-layer="svg2" />
  <!-- Working space 0 0 297 210 -->
  <defs
     id="defs4">
    <radialGradient
       id="radialGradient3661"
       gradientUnits="userSpaceOnUse"
       cy="29.149"
       cx="282.64999"
       gradientTransform="matrix(0.14777,0.23089,-0.2468,0.15795,-26.318,-62.617)"
       r="19.570999">
      <stop
         stop-color="#71b2f8"
         offset="0"
         id="stop7" />
      <stop
         stop-color="#002795"
         offset="1"
         id="stop9" />
    </radialGradient>
    <radialGradient
       id="radialGradient3817"
       gradientUnits="userSpaceOnUse"
       cy="33.900002"
       cx="270.57999"
       gradientTransform="matrix(0.26631,0.065024,-0.17931,0.73438,-60.668,-36.938)"
       r="19.570999">
      <stop
         stop-color="#ff6d0f"
         offset="0"
         id="stop12" />
      <stop
         stop-color="#ff1000"
         offset="1"
         id="stop14" />
    </radialGradient>
  </defs>
  <!-- Set display:none to hide FreeCAD Logo -->
  <g
     id="Ortho_0_0"
     transform="matrix(0,-0.99651221,0.99651221,0,25,1.083707)">
    <g
       transform="scale(1,-1)"
       id="g22"
       style="fill:none;stroke:#000000;stroke-width:0.175;stroke-linecap:butt;stroke-linejoin:miter">
      <path
         id="1"
         d="M -10,24 0,24"
         inkscape:connector-curvature="0" />
      <path
         id="2"
         d="M 0,24 0,15"
         inkscape:connector-curvature="0" />
      <path
         id="3"
         d="m 0,15 1,0"
         inkscape:connector-curvature="0" />
      <path
         id="4"
         d="M 1,15 1,4.99998"
         inkscape:connector-curvature="0" />
      <path
         id="5"
         d="m 1,4.99998 -1,0"
         inkscape:connector-curvature="0" />
      <path
         id="6"
         d="m 0,4.99998 0,-10"
         inkscape:connector-curvature="0" />
      <path
         id="7"
         d="m 0,-5.00002 1,0"
         inkscape:connector-curvature="0" />
      <path
         id="8"
         d="M 1,-5.00002 1,-15"
         inkscape:connector-curvature="0" />
      <path
         id="9"
         d="m 1,-15 -1,0"
         inkscape:connector-curvature="0" />
      <path
         id="10"
         d="m 0,-15 0,-9"
         inkscape:connector-curvature="0" />
      <path
         id="11"
         d="m 0,-24 -10,0"
         inkscape:connector-curvature="0" />
      <path
         id="12"
         d="m -10,-24 0,-1"
         inkscape:connector-curvature="0" />
      <path
         id="13"
         d="m -10,-25 -10,0"
         inkscape:connector-curvature="0" />
      <path
         id="14"
         d="m -20,-25 0,1"
         inkscape:connector-curvature="0" />
      <path
         id="15"
         d="m -20,-24 -10,0"
         inkscape:connector-curvature="0" />
      <path
         id="16"
         d="m -30,-24 0,-1"
         inkscape:connector-curvature="0" />
      <path
         id="17"
         d="m -30,-25 -10,0"
         inkscape:connector-curvature="0" />
      <path
         id="18"
         d="m -40,-25 0,1"
         inkscape:connector-curvature="0" />
      <path
         id="19"
         d="m -40,-24 -10,0"
         inkscape:connector-curvature="0" />
      <path
         id="20"
         d="m -50,-24 0,-1"
         inkscape:connector-curvature="0" />
      <path
         id="21"
         d="m -50,-25 -10,0"
         inkscape:connector-curvature="0" />
      <path
         id="22"
         d="m -60,-25 0,4"
         inkscape:connector-curvature="0" />
      <path
         id="23"
         d="m -60,-21 30,0"
         inkscape:connector-curvature="0" />
      <path
         id="24"
         d="m -30,-21 0,42"
         inkscape:connector-curvature="0" />
      <path
         id="25"
         d="m -30,21 -30,0"
         inkscape:connector-curvature="0" />
      <path
         id="26"
         d="m -60,21 0,4"
         inkscape:connector-curvature="0" />
      <path
         id="27"
         d="m -60,25 10,0"
         inkscape:connector-curvature="0" />
      <path
         id="28"
         d="m -50,25 0,-1"
         inkscape:connector-curvature="0" />
      <path
         id="29"
         d="m -50,24 10,0"
         inkscape:connector-curvature="0" />
      <path
         id="30"
         d="m -40,24 0,1"
         inkscape:connector-curvature="0" />
      <path
         id="31"
         d="m -40,25 10,0"
         inkscape:connector-curvature="0" />
      <path
         id="32"
         d="m -30,25 0,-1"
         inkscape:connector-curvature="0" />
      <path
         id="33"
         d="m -30,24 10,0"
         inkscape:connector-curvature="0" />
      <path
         id="34"
         d="m -20,24 0,1"
         inkscape:connector-curvature="0" />
      <path
         id="35"
         d="m -20,25 10,0"
         inkscape:connector-curvature="0" />
      <path
         id="36"
         d="m -10,25 0,-1"
         inkscape:connector-curvature="0" />
      <path
         id="37"
         d="m -4,21 0,-42"
         inkscape:connector-curvature="0" />
      <path
         id="38"
         d="m -4,-21 -22,0"
         inkscape:connector-curvature="0" />
      <path
         id="39"
         d="m -26,-21 0,42"
         inkscape:connector-curvature="0" />
      <path
         id="40"
         d="m -26,21 22,0"
         inkscape:connector-curvature="0" />
    </g>
  </g>
</svg>
