<?xml version="1.0" encoding="UTF-8" standalone="no"?>
<svg
   xmlns:dc="http://purl.org/dc/elements/1.1/"
   xmlns:cc="http://creativecommons.org/ns#"
   xmlns:rdf="http://www.w3.org/1999/02/22-rdf-syntax-ns#"
   xmlns:svg="http://www.w3.org/2000/svg"
   xmlns="http://www.w3.org/2000/svg"
   xmlns:sodipodi="http://sodipodi.sourceforge.net/DTD/sodipodi-0.dtd"
   xmlns:inkscape="http://www.inkscape.org/namespaces/inkscape"
   version="1.1"
   width="75.349998mm"
   height="180.34999mm"
   viewBox="0 0 75.349998 180.34999"
   id="svg2"
   inkscape:version="0.91 r"
   sodipodi:docname="chair_back_b.svg">
  <metadata
     id="metadata153">
    <rdf:RDF>
      <cc:Work
         rdf:about="">
        <dc:format>image/svg+xml</dc:format>
        <dc:type
           rdf:resource="http://purl.org/dc/dcmitype/StillImage" />
        <dc:title></dc:title>
      </cc:Work>
    </rdf:RDF>
  </metadata>
  <sodipodi:namedview
     pagecolor="#ffffff"
     bordercolor="#666666"
     borderopacity="1"
     objecttolerance="10"
     gridtolerance="10"
     guidetolerance="10"
     inkscape:pageopacity="0"
     inkscape:pageshadow="2"
     inkscape:window-width="1920"
     inkscape:window-height="1050"
     id="namedview151"
     showgrid="false"
     fit-margin-top="0"
     fit-margin-left="0"
     fit-margin-right="0"
     fit-margin-bottom="0"
     inkscape:zoom="0.89707532"
     inkscape:cx="240.65637"
     inkscape:cy="327.93986"
     inkscape:window-x="0"
     inkscape:window-y="30"
     inkscape:window-maximized="1"
     inkscape:current-layer="svg2" />
  <!-- Working space 0 0 297 210 -->
  <defs
     id="defs4">
    <radialGradient
       id="radialGradient3661"
       gradientUnits="userSpaceOnUse"
       cy="29.149"
       cx="282.64999"
       gradientTransform="matrix(0.14777,0.23089,-0.2468,0.15795,-26.318,-62.617)"
       r="19.570999">
      <stop
         stop-color="#71b2f8"
         offset="0"
         id="stop7" />
      <stop
         stop-color="#002795"
         offset="1"
         id="stop9" />
    </radialGradient>
    <radialGradient
       id="radialGradient3817"
       gradientUnits="userSpaceOnUse"
       cy="33.900002"
       cx="270.57999"
       gradientTransform="matrix(0.26631,0.065024,-0.17931,0.73438,-60.668,-36.938)"
       r="19.570999">
      <stop
         stop-color="#ff6d0f"
         offset="0"
         id="stop12" />
      <stop
         stop-color="#ff1000"
         offset="1"
         id="stop14" />
    </radialGradient>
  </defs>
  <!-- Set display:none to hide FreeCAD Logo -->
  <g
     style="fill:none;stroke:#000000;stroke-width:0.23333301;stroke-linecap:butt;stroke-linejoin:miter"
     id="g60"
     transform="matrix(0,-1.5,-1.5,0,37.675,89.263)">
    <path
       inkscape:connector-curvature="0"
       d="M -0.607968,-25 59.392,-25"
       id="path62" />
    <path
       inkscape:connector-curvature="0"
       d="m 59.392,-25 0,5"
       id="path64" />
    <path
       inkscape:connector-curvature="0"
       d="M 59.392,-20 49,-20"
       id="path66" />
    <path
       inkscape:connector-curvature="0"
       d="m 49,-20 0,40"
       id="path68" />
    <path
       inkscape:connector-curvature="0"
       d="m 49,20 10.392,0"
       id="path70" />
    <path
       inkscape:connector-curvature="0"
       d="m 59.392,20 0,5"
       id="path72" />
    <path
       inkscape:connector-curvature="0"
       d="M 59.392,25 -0.607968,25"
       id="path74" />
    <path
       inkscape:connector-curvature="0"
       d="M -0.607968,25 -10.608,25"
       id="path76" />
    <path
       inkscape:connector-curvature="0"
       d="m -10.608,25 0,-1"
       id="path78" />
    <path
       inkscape:connector-curvature="0"
       d="m -10.608,24 -10,0"
       id="path80" />
    <path
       inkscape:connector-curvature="0"
       d="m -20.608,24 0,1"
       id="path82" />
    <path
       inkscape:connector-curvature="0"
       d="m -20.608,25 -10,0"
       id="path84" />
    <path
       inkscape:connector-curvature="0"
       d="m -30.608,25 0,-1"
       id="path86" />
    <path
       inkscape:connector-curvature="0"
       d="m -30.608,24 -10,0"
       id="path88" />
    <path
       inkscape:connector-curvature="0"
       d="m -40.608,24 0,1"
       id="path90" />
    <path
       inkscape:connector-curvature="0"
       d="m -40.608,25 -10,0"
       id="path92" />
    <path
       inkscape:connector-curvature="0"
       d="m -50.608,25 0,-1"
       id="path94" />
    <path
       inkscape:connector-curvature="0"
       d="m -50.608,24 -10,0"
       id="path96" />
    <path
       inkscape:connector-curvature="0"
       d="m -60.608,24 0,-4"
       id="path98" />
    <path
       inkscape:connector-curvature="0"
       d="m -60.608,20 30,0"
       id="path100" />
    <path
       inkscape:connector-curvature="0"
       d="m -30.608,20 0,-40"
       id="path102" />
    <path
       inkscape:connector-curvature="0"
       d="m -30.608,-20 -30,0"
       id="path104" />
    <path
       inkscape:connector-curvature="0"
       d="m -60.608,-20 0,-4"
       id="path106" />
    <path
       inkscape:connector-curvature="0"
       d="m -60.608,-24 10,0"
       id="path108" />
    <path
       inkscape:connector-curvature="0"
       d="m -50.608,-24 0,-1"
       id="path110" />
    <path
       inkscape:connector-curvature="0"
       d="m -50.608,-25 10,0"
       id="path112" />
    <path
       inkscape:connector-curvature="0"
       d="m -40.608,-25 0,1"
       id="path114" />
    <path
       inkscape:connector-curvature="0"
       d="m -40.608,-24 10,0"
       id="path116" />
    <path
       inkscape:connector-curvature="0"
       d="m -30.608,-24 0,-1"
       id="path118" />
    <path
       inkscape:connector-curvature="0"
       d="m -30.608,-25 10,0"
       id="path120" />
    <path
       inkscape:connector-curvature="0"
       d="m -20.608,-25 0,1"
       id="path122" />
    <path
       inkscape:connector-curvature="0"
       d="m -20.608,-24 10,0"
       id="path124" />
    <path
       inkscape:connector-curvature="0"
       d="m -10.608,-24 0,-1"
       id="path126" />
    <path
       inkscape:connector-curvature="0"
       d="m -10.608,-25 10.000032,0"
       id="path128" />
    <path
       inkscape:connector-curvature="0"
       d="M 8,-20 8,20"
       id="path130" />
    <path
       inkscape:connector-curvature="0"
       d="m 8,20 22,0"
       id="36" />
    <path
       inkscape:connector-curvature="0"
       d="m 30,20 0,-40"
       id="37" />
    <path
       inkscape:connector-curvature="0"
       d="M 30,-20 8,-20"
       id="38" />
    <path
       inkscape:connector-curvature="0"
       d="m -4.60797,-20 0,40"
       id="39" />
    <path
       inkscape:connector-curvature="0"
       d="M -4.60797,20 -26.608,20"
       id="40" />
    <path
       inkscape:connector-curvature="0"
       d="m -26.608,20 0,-40"
       id="41" />
    <path
       inkscape:connector-curvature="0"
       d="m -26.608,-20 22.00003,0"
       id="42" />
    <path
       inkscape:connector-curvature="0"
       d="m 45,-20 0,40"
       id="43" />
    <path
       inkscape:connector-curvature="0"
       d="M 45,20 34,20"
       id="44" />
    <path
       inkscape:connector-curvature="0"
       d="m 34,20 0,-40"
       id="45" />
    <path
       inkscape:connector-curvature="0"
       d="m 34,-20 11,0"
       id="46" />
    <path
       inkscape:connector-curvature="0"
       d="M 1,5 1,15"
       id="47" />
    <path
       inkscape:connector-curvature="0"
       d="M 1,15 0,15"
       id="48" />
    <path
       inkscape:connector-curvature="0"
       d="M 0,15 0,5"
       id="49" />
    <path
       inkscape:connector-curvature="0"
       d="M 0,5 1,5"
       id="50" />
    <path
       inkscape:connector-curvature="0"
       d="M 1,-15 1,-5"
       id="51" />
    <path
       inkscape:connector-curvature="0"
       d="M 1,-5 0,-5"
       id="52" />
    <path
       inkscape:connector-curvature="0"
       d="M 0,-5 0,-15"
       id="53" />
    <path
       inkscape:connector-curvature="0"
       d="m 0,-15 1,0"
       id="54" />
  </g>
</svg>
