G04 EAGLE Gerber RS-274X export*
G75*
%MOMM*%
%FSLAX34Y34*%
%LPD*%
%INBottom Copper*%
%IPPOS*%
%AMOC8*
5,1,8,0,0,1.08239X$1,22.5*%
G01*
%ADD10R,1.208000X1.208000*%
%ADD11C,1.208000*%
%ADD12C,5.842000*%
%ADD13C,2.250000*%
%ADD14C,0.756400*%
%ADD15C,0.406400*%

G36*
X271476Y134171D02*
X271476Y134171D01*
X271578Y134171D01*
X271676Y134191D01*
X271775Y134201D01*
X271872Y134231D01*
X271972Y134251D01*
X272064Y134289D01*
X272160Y134319D01*
X272250Y134367D01*
X272344Y134407D01*
X272426Y134463D01*
X272514Y134511D01*
X272592Y134576D01*
X272677Y134633D01*
X272747Y134704D01*
X272823Y134768D01*
X272887Y134848D01*
X272958Y134921D01*
X273013Y135004D01*
X273075Y135082D01*
X273122Y135173D01*
X273178Y135258D01*
X273215Y135351D01*
X273261Y135439D01*
X273289Y135537D01*
X273327Y135632D01*
X273345Y135730D01*
X273372Y135826D01*
X273381Y135928D01*
X273399Y136028D01*
X273397Y136128D01*
X273405Y136228D01*
X273393Y136329D01*
X273391Y136431D01*
X273370Y136528D01*
X273358Y136627D01*
X273327Y136724D01*
X273305Y136824D01*
X273264Y136915D01*
X273233Y137010D01*
X273183Y137099D01*
X273142Y137192D01*
X273085Y137274D01*
X273036Y137361D01*
X272969Y137438D01*
X272910Y137521D01*
X272837Y137590D01*
X272772Y137665D01*
X272692Y137728D01*
X272618Y137798D01*
X272533Y137851D01*
X272454Y137912D01*
X272363Y137958D01*
X272276Y138012D01*
X272183Y138047D01*
X272094Y138092D01*
X271995Y138118D01*
X271900Y138154D01*
X271781Y138176D01*
X271705Y138196D01*
X271639Y138202D01*
X271573Y138213D01*
X270136Y138355D01*
X267076Y138964D01*
X264090Y139869D01*
X261209Y141063D01*
X258457Y142534D01*
X255864Y144267D01*
X253452Y146246D01*
X251246Y148452D01*
X249267Y150864D01*
X247534Y153457D01*
X246063Y156209D01*
X244869Y159090D01*
X243964Y162076D01*
X243355Y165136D01*
X243296Y165737D01*
X272768Y165737D01*
X272786Y165739D01*
X272803Y165737D01*
X272986Y165758D01*
X273168Y165777D01*
X273186Y165782D01*
X273203Y165784D01*
X273378Y165841D01*
X273553Y165895D01*
X273569Y165903D01*
X273586Y165909D01*
X273746Y165999D01*
X273907Y166087D01*
X273921Y166098D01*
X273937Y166107D01*
X274076Y166227D01*
X274217Y166344D01*
X274228Y166358D01*
X274241Y166370D01*
X274354Y166515D01*
X274469Y166658D01*
X274477Y166674D01*
X274488Y166688D01*
X274570Y166853D01*
X274655Y167015D01*
X274659Y167032D01*
X274667Y167049D01*
X274715Y167227D01*
X274766Y167402D01*
X274767Y167420D01*
X274772Y167437D01*
X274799Y167768D01*
X274799Y169801D01*
X274801Y169801D01*
X274801Y167768D01*
X274803Y167750D01*
X274801Y167732D01*
X274823Y167550D01*
X274841Y167367D01*
X274846Y167350D01*
X274848Y167333D01*
X274905Y167158D01*
X274959Y166982D01*
X274967Y166967D01*
X274973Y166950D01*
X275063Y166790D01*
X275151Y166628D01*
X275162Y166615D01*
X275171Y166599D01*
X275291Y166460D01*
X275408Y166319D01*
X275422Y166308D01*
X275434Y166295D01*
X275579Y166182D01*
X275722Y166067D01*
X275738Y166059D01*
X275752Y166048D01*
X275917Y165966D01*
X276080Y165881D01*
X276097Y165876D01*
X276113Y165868D01*
X276291Y165821D01*
X276466Y165770D01*
X276484Y165768D01*
X276501Y165764D01*
X276832Y165737D01*
X306304Y165737D01*
X306245Y165136D01*
X305636Y162076D01*
X304731Y159090D01*
X303537Y156209D01*
X302066Y153457D01*
X300333Y150864D01*
X298354Y148452D01*
X296148Y146246D01*
X293736Y144267D01*
X291143Y142534D01*
X288391Y141063D01*
X285510Y139869D01*
X282524Y138964D01*
X279464Y138355D01*
X278027Y138213D01*
X277927Y138193D01*
X277825Y138183D01*
X277730Y138154D01*
X277632Y138134D01*
X277538Y138095D01*
X277440Y138065D01*
X277353Y138018D01*
X277260Y137979D01*
X277176Y137922D01*
X277086Y137873D01*
X277010Y137810D01*
X276927Y137754D01*
X276855Y137681D01*
X276777Y137616D01*
X276714Y137538D01*
X276644Y137467D01*
X276588Y137381D01*
X276525Y137302D01*
X276479Y137213D01*
X276424Y137130D01*
X276386Y137035D01*
X276339Y136945D01*
X276311Y136849D01*
X276274Y136756D01*
X276256Y136656D01*
X276228Y136558D01*
X276220Y136458D01*
X276201Y136360D01*
X276203Y136258D01*
X276195Y136156D01*
X276206Y136057D01*
X276208Y135958D01*
X276230Y135858D01*
X276242Y135757D01*
X276273Y135662D01*
X276294Y135564D01*
X276335Y135471D01*
X276367Y135374D01*
X276416Y135287D01*
X276456Y135196D01*
X276514Y135112D01*
X276564Y135023D01*
X276630Y134948D01*
X276687Y134866D01*
X276761Y134796D01*
X276828Y134718D01*
X276906Y134657D01*
X276979Y134589D01*
X277065Y134534D01*
X277146Y134472D01*
X277235Y134427D01*
X277320Y134374D01*
X277415Y134338D01*
X277506Y134292D01*
X277603Y134267D01*
X277696Y134231D01*
X277797Y134214D01*
X277895Y134188D01*
X278016Y134178D01*
X278093Y134165D01*
X278159Y134166D01*
X278226Y134161D01*
X497734Y134161D01*
X497773Y134165D01*
X497823Y134163D01*
X499739Y134246D01*
X499824Y134258D01*
X499977Y134271D01*
X502484Y134679D01*
X502542Y134695D01*
X502602Y134702D01*
X502794Y134762D01*
X502873Y134783D01*
X502892Y134792D01*
X502918Y134801D01*
X507799Y136773D01*
X507919Y136835D01*
X508043Y136890D01*
X508106Y136934D01*
X508156Y136960D01*
X508217Y137009D01*
X508317Y137077D01*
X512408Y140390D01*
X512504Y140486D01*
X512606Y140574D01*
X512654Y140634D01*
X512694Y140674D01*
X512738Y140739D01*
X512814Y140833D01*
X515757Y145198D01*
X515821Y145316D01*
X515893Y145431D01*
X515922Y145502D01*
X515948Y145552D01*
X515957Y145582D01*
X515965Y145596D01*
X515980Y145650D01*
X516016Y145740D01*
X517555Y150774D01*
X517567Y150833D01*
X517587Y150889D01*
X517618Y151088D01*
X517634Y151169D01*
X517634Y151190D01*
X517638Y151217D01*
X517834Y153849D01*
X517832Y153912D01*
X517839Y154000D01*
X517839Y154137D01*
X517839Y156425D01*
X517839Y393734D01*
X517835Y393773D01*
X517837Y393823D01*
X517754Y395739D01*
X517742Y395824D01*
X517729Y395977D01*
X517321Y398484D01*
X517305Y398542D01*
X517298Y398602D01*
X517238Y398794D01*
X517217Y398873D01*
X517208Y398892D01*
X517199Y398918D01*
X515227Y403799D01*
X515165Y403919D01*
X515110Y404043D01*
X515066Y404106D01*
X515040Y404156D01*
X514991Y404217D01*
X514923Y404317D01*
X511610Y408408D01*
X511514Y408504D01*
X511426Y408606D01*
X511366Y408654D01*
X511326Y408694D01*
X511261Y408738D01*
X511167Y408814D01*
X506802Y411757D01*
X506684Y411821D01*
X506569Y411893D01*
X506498Y411922D01*
X506448Y411948D01*
X506373Y411971D01*
X506260Y412016D01*
X501226Y413555D01*
X501167Y413567D01*
X501111Y413587D01*
X500912Y413618D01*
X500831Y413634D01*
X500810Y413634D01*
X500783Y413638D01*
X498151Y413834D01*
X498088Y413832D01*
X498000Y413839D01*
X497808Y413839D01*
X495575Y413839D01*
X258266Y413839D01*
X258227Y413835D01*
X258177Y413837D01*
X256261Y413754D01*
X256176Y413742D01*
X256023Y413729D01*
X253516Y413321D01*
X253458Y413305D01*
X253398Y413298D01*
X253206Y413238D01*
X253127Y413217D01*
X253108Y413208D01*
X253082Y413199D01*
X248201Y411227D01*
X248081Y411165D01*
X247957Y411110D01*
X247894Y411066D01*
X247844Y411040D01*
X247783Y410991D01*
X247683Y410923D01*
X243592Y407610D01*
X243496Y407514D01*
X243394Y407426D01*
X243346Y407366D01*
X243306Y407326D01*
X243262Y407261D01*
X243186Y407167D01*
X240243Y402802D01*
X240235Y402789D01*
X240225Y402777D01*
X240170Y402670D01*
X240107Y402569D01*
X240078Y402497D01*
X240052Y402448D01*
X240047Y402433D01*
X240040Y402419D01*
X240021Y402353D01*
X239984Y402260D01*
X238445Y397226D01*
X238433Y397167D01*
X238413Y397111D01*
X238382Y396912D01*
X238366Y396831D01*
X238366Y396810D01*
X238362Y396783D01*
X238166Y394151D01*
X238168Y394088D01*
X238161Y394000D01*
X238161Y391575D01*
X238161Y154000D01*
X238166Y153944D01*
X238165Y153867D01*
X238317Y151543D01*
X238323Y151510D01*
X238323Y151476D01*
X238382Y151150D01*
X239586Y146659D01*
X239621Y146566D01*
X239647Y146469D01*
X239700Y146357D01*
X239728Y146283D01*
X239757Y146236D01*
X239788Y146170D01*
X242113Y142144D01*
X242171Y142062D01*
X242221Y141976D01*
X242301Y141881D01*
X242348Y141817D01*
X242388Y141779D01*
X242436Y141723D01*
X245723Y138436D01*
X245800Y138372D01*
X245871Y138302D01*
X245973Y138231D01*
X246034Y138181D01*
X246083Y138155D01*
X246144Y138113D01*
X250170Y135788D01*
X250261Y135747D01*
X250347Y135697D01*
X250464Y135656D01*
X250536Y135623D01*
X250590Y135610D01*
X250659Y135586D01*
X255150Y134382D01*
X255183Y134377D01*
X255214Y134366D01*
X255543Y134317D01*
X257867Y134165D01*
X257924Y134167D01*
X258000Y134161D01*
X271374Y134161D01*
X271476Y134171D01*
G37*
%LPC*%
G36*
X273388Y254483D02*
X273388Y254483D01*
X272495Y255376D01*
X272495Y256460D01*
X272493Y256478D01*
X272495Y256496D01*
X272474Y256678D01*
X272455Y256861D01*
X272450Y256878D01*
X272448Y256895D01*
X272391Y257070D01*
X272337Y257246D01*
X272329Y257261D01*
X272323Y257278D01*
X272233Y257438D01*
X272145Y257600D01*
X272134Y257613D01*
X272125Y257629D01*
X272005Y257768D01*
X271888Y257909D01*
X271874Y257920D01*
X271862Y257934D01*
X271717Y258046D01*
X271574Y258161D01*
X271558Y258169D01*
X271544Y258180D01*
X271379Y258262D01*
X271217Y258347D01*
X271200Y258352D01*
X271184Y258360D01*
X271005Y258407D01*
X270830Y258458D01*
X270812Y258460D01*
X270795Y258464D01*
X270464Y258491D01*
X267479Y258491D01*
X257443Y268527D01*
X257443Y338473D01*
X267887Y348917D01*
X270464Y348917D01*
X270482Y348919D01*
X270500Y348917D01*
X270682Y348938D01*
X270865Y348957D01*
X270882Y348962D01*
X270899Y348964D01*
X271074Y349021D01*
X271250Y349075D01*
X271265Y349083D01*
X271282Y349089D01*
X271442Y349179D01*
X271604Y349267D01*
X271617Y349278D01*
X271633Y349287D01*
X271772Y349407D01*
X271913Y349524D01*
X271924Y349538D01*
X271938Y349550D01*
X272050Y349695D01*
X272165Y349838D01*
X272173Y349854D01*
X272184Y349868D01*
X272266Y350033D01*
X272351Y350195D01*
X272356Y350212D01*
X272364Y350228D01*
X272411Y350407D01*
X272462Y350582D01*
X272464Y350600D01*
X272468Y350617D01*
X272495Y350948D01*
X272495Y352032D01*
X273388Y352925D01*
X286732Y352925D01*
X287625Y352032D01*
X287625Y338688D01*
X286732Y337795D01*
X273388Y337795D01*
X272482Y338702D01*
X272474Y338771D01*
X272455Y338962D01*
X272453Y338971D01*
X272452Y338979D01*
X272394Y339162D01*
X272337Y339347D01*
X272333Y339355D01*
X272330Y339363D01*
X272237Y339532D01*
X272145Y339701D01*
X272140Y339708D01*
X272135Y339716D01*
X272011Y339863D01*
X271888Y340010D01*
X271881Y340016D01*
X271875Y340023D01*
X271724Y340142D01*
X271574Y340263D01*
X271566Y340267D01*
X271559Y340272D01*
X271386Y340360D01*
X271217Y340448D01*
X271208Y340451D01*
X271200Y340455D01*
X271014Y340507D01*
X270830Y340559D01*
X270821Y340560D01*
X270812Y340563D01*
X270619Y340577D01*
X270428Y340592D01*
X270420Y340591D01*
X270411Y340592D01*
X270218Y340568D01*
X270029Y340545D01*
X270020Y340543D01*
X270011Y340542D01*
X269828Y340480D01*
X269646Y340421D01*
X269638Y340416D01*
X269630Y340413D01*
X269463Y340317D01*
X269295Y340223D01*
X269288Y340217D01*
X269281Y340212D01*
X269028Y339998D01*
X265152Y336122D01*
X265135Y336101D01*
X265114Y336083D01*
X265008Y335946D01*
X264897Y335810D01*
X264884Y335786D01*
X264868Y335765D01*
X264790Y335609D01*
X264708Y335454D01*
X264700Y335429D01*
X264688Y335405D01*
X264643Y335236D01*
X264593Y335069D01*
X264591Y335042D01*
X264584Y335016D01*
X264557Y334685D01*
X264557Y272315D01*
X264559Y272288D01*
X264557Y272261D01*
X264579Y272087D01*
X264597Y271914D01*
X264604Y271889D01*
X264608Y271862D01*
X264663Y271696D01*
X264715Y271529D01*
X264728Y271505D01*
X264736Y271480D01*
X264823Y271329D01*
X264907Y271175D01*
X264924Y271155D01*
X264937Y271131D01*
X265152Y270878D01*
X269028Y267002D01*
X269035Y266997D01*
X269040Y266990D01*
X269190Y266869D01*
X269339Y266747D01*
X269347Y266743D01*
X269354Y266737D01*
X269524Y266649D01*
X269695Y266559D01*
X269704Y266556D01*
X269711Y266552D01*
X269896Y266499D01*
X270081Y266444D01*
X270090Y266443D01*
X270098Y266441D01*
X270289Y266425D01*
X270482Y266407D01*
X270491Y266408D01*
X270500Y266408D01*
X270689Y266430D01*
X270882Y266451D01*
X270891Y266454D01*
X270899Y266455D01*
X271081Y266514D01*
X271266Y266572D01*
X271274Y266577D01*
X271282Y266579D01*
X271451Y266674D01*
X271618Y266767D01*
X271625Y266773D01*
X271633Y266777D01*
X271779Y266903D01*
X271925Y267028D01*
X271931Y267035D01*
X271938Y267040D01*
X272055Y267192D01*
X272175Y267344D01*
X272179Y267352D01*
X272184Y267359D01*
X272269Y267530D01*
X272357Y267702D01*
X272360Y267711D01*
X272364Y267719D01*
X272414Y267905D01*
X272465Y268090D01*
X272466Y268099D01*
X272468Y268108D01*
X272495Y268439D01*
X272495Y268720D01*
X273388Y269613D01*
X286732Y269613D01*
X287625Y268720D01*
X287625Y255376D01*
X286732Y254483D01*
X273388Y254483D01*
G37*
%LPD*%
%LPC*%
G36*
X397470Y189003D02*
X397470Y189003D01*
X395520Y189811D01*
X394027Y191304D01*
X393219Y193254D01*
X393219Y195366D01*
X394027Y197316D01*
X395520Y198809D01*
X397470Y199617D01*
X399582Y199617D01*
X401532Y198809D01*
X401879Y198462D01*
X401900Y198445D01*
X401917Y198424D01*
X402055Y198317D01*
X402191Y198207D01*
X402214Y198194D01*
X402235Y198178D01*
X402392Y198100D01*
X402546Y198018D01*
X402572Y198010D01*
X402596Y197998D01*
X402765Y197953D01*
X402932Y197903D01*
X402959Y197901D01*
X402985Y197894D01*
X403316Y197867D01*
X403831Y197867D01*
X403858Y197869D01*
X403885Y197867D01*
X404059Y197889D01*
X404232Y197907D01*
X404257Y197914D01*
X404284Y197918D01*
X404450Y197973D01*
X404617Y198025D01*
X404640Y198038D01*
X404666Y198046D01*
X404817Y198133D01*
X404971Y198217D01*
X404991Y198234D01*
X405015Y198247D01*
X405268Y198462D01*
X406848Y200042D01*
X406865Y200063D01*
X406886Y200081D01*
X406992Y200218D01*
X407103Y200354D01*
X407116Y200377D01*
X407132Y200399D01*
X407210Y200556D01*
X407292Y200710D01*
X407300Y200735D01*
X407312Y200759D01*
X407357Y200929D01*
X407407Y201095D01*
X407409Y201122D01*
X407416Y201148D01*
X407443Y201479D01*
X407443Y279210D01*
X407441Y279237D01*
X407443Y279264D01*
X407421Y279438D01*
X407403Y279611D01*
X407396Y279637D01*
X407392Y279663D01*
X407337Y279829D01*
X407285Y279996D01*
X407272Y280020D01*
X407264Y280045D01*
X407177Y280197D01*
X407093Y280350D01*
X407076Y280371D01*
X407063Y280394D01*
X406848Y280647D01*
X406501Y280994D01*
X405693Y282944D01*
X405693Y285056D01*
X406501Y287006D01*
X407994Y288499D01*
X408464Y288694D01*
X408465Y288694D01*
X409944Y289307D01*
X412056Y289307D01*
X414006Y288499D01*
X415499Y287006D01*
X416307Y285056D01*
X416307Y282944D01*
X415499Y280994D01*
X415152Y280647D01*
X415135Y280626D01*
X415114Y280609D01*
X415007Y280471D01*
X414897Y280335D01*
X414884Y280312D01*
X414868Y280291D01*
X414790Y280134D01*
X414708Y279980D01*
X414700Y279954D01*
X414688Y279930D01*
X414643Y279761D01*
X414593Y279594D01*
X414591Y279567D01*
X414584Y279541D01*
X414557Y279210D01*
X414557Y197691D01*
X407619Y190753D01*
X403316Y190753D01*
X403289Y190751D01*
X403262Y190753D01*
X403088Y190731D01*
X402915Y190713D01*
X402889Y190706D01*
X402863Y190702D01*
X402697Y190647D01*
X402530Y190595D01*
X402506Y190582D01*
X402481Y190574D01*
X402329Y190487D01*
X402176Y190403D01*
X402155Y190386D01*
X402132Y190373D01*
X401879Y190158D01*
X401532Y189811D01*
X399582Y189003D01*
X397470Y189003D01*
G37*
%LPD*%
%LPC*%
G36*
X485063Y379863D02*
X485063Y379863D01*
X485063Y407304D01*
X485664Y407245D01*
X488724Y406636D01*
X491710Y405731D01*
X494591Y404537D01*
X497343Y403066D01*
X499936Y401333D01*
X502348Y399354D01*
X504554Y397148D01*
X506533Y394736D01*
X508266Y392143D01*
X509737Y389391D01*
X510931Y386510D01*
X511836Y383524D01*
X512445Y380464D01*
X512504Y379863D01*
X485063Y379863D01*
G37*
%LPD*%
%LPC*%
G36*
X278863Y173863D02*
X278863Y173863D01*
X278863Y201304D01*
X279464Y201245D01*
X282524Y200636D01*
X285510Y199731D01*
X288391Y198537D01*
X291143Y197066D01*
X293736Y195333D01*
X296148Y193354D01*
X298354Y191148D01*
X300333Y188736D01*
X302066Y186143D01*
X303537Y183391D01*
X304731Y180510D01*
X305636Y177524D01*
X306245Y174464D01*
X306304Y173863D01*
X278863Y173863D01*
G37*
%LPD*%
%LPC*%
G36*
X449496Y379863D02*
X449496Y379863D01*
X449555Y380464D01*
X450164Y383524D01*
X451069Y386510D01*
X452263Y389391D01*
X453734Y392143D01*
X455467Y394736D01*
X457446Y397148D01*
X459652Y399354D01*
X462064Y401333D01*
X464657Y403066D01*
X467409Y404537D01*
X470290Y405731D01*
X473276Y406636D01*
X476336Y407245D01*
X476937Y407304D01*
X476937Y379863D01*
X449496Y379863D01*
G37*
%LPD*%
%LPC*%
G36*
X485063Y371737D02*
X485063Y371737D01*
X512504Y371737D01*
X512445Y371136D01*
X511836Y368076D01*
X510931Y365090D01*
X509737Y362209D01*
X508266Y359457D01*
X506533Y356864D01*
X504554Y354452D01*
X502348Y352246D01*
X499936Y350267D01*
X497343Y348534D01*
X494591Y347063D01*
X491710Y345869D01*
X488724Y344964D01*
X485664Y344355D01*
X485063Y344296D01*
X485063Y371737D01*
G37*
%LPD*%
%LPC*%
G36*
X243296Y173863D02*
X243296Y173863D01*
X243355Y174464D01*
X243964Y177524D01*
X244869Y180510D01*
X246063Y183391D01*
X247534Y186143D01*
X249267Y188736D01*
X251246Y191148D01*
X253452Y193354D01*
X255864Y195333D01*
X258457Y197066D01*
X261209Y198537D01*
X264090Y199731D01*
X267076Y200636D01*
X270136Y201245D01*
X270737Y201304D01*
X270737Y173863D01*
X243296Y173863D01*
G37*
%LPD*%
%LPC*%
G36*
X476336Y344355D02*
X476336Y344355D01*
X473276Y344964D01*
X470290Y345869D01*
X467409Y347063D01*
X464657Y348534D01*
X462064Y350267D01*
X459652Y352246D01*
X457446Y354452D01*
X455467Y356864D01*
X453734Y359457D01*
X452263Y362209D01*
X451069Y365090D01*
X450164Y368076D01*
X449555Y371136D01*
X449496Y371737D01*
X476937Y371737D01*
X476937Y344296D01*
X476336Y344355D01*
G37*
%LPD*%
%LPC*%
G36*
X425647Y374535D02*
X425647Y374535D01*
X420952Y376480D01*
X417358Y380074D01*
X415413Y384769D01*
X415413Y389851D01*
X417358Y394546D01*
X420952Y398140D01*
X425647Y400085D01*
X430729Y400085D01*
X435424Y398140D01*
X439018Y394546D01*
X440963Y389851D01*
X440963Y384769D01*
X439018Y380074D01*
X435424Y376480D01*
X433593Y375721D01*
X430729Y374535D01*
X425647Y374535D01*
G37*
%LPD*%
%LPC*%
G36*
X305647Y347035D02*
X305647Y347035D01*
X300952Y348980D01*
X297358Y352574D01*
X295413Y357269D01*
X295413Y362351D01*
X297358Y367046D01*
X300952Y370640D01*
X304175Y371975D01*
X305647Y372585D01*
X310729Y372585D01*
X315424Y370640D01*
X319018Y367046D01*
X320963Y362351D01*
X320963Y357269D01*
X319018Y352574D01*
X315424Y348980D01*
X310729Y347035D01*
X305647Y347035D01*
G37*
%LPD*%
%LPC*%
G36*
X425647Y319535D02*
X425647Y319535D01*
X420952Y321480D01*
X417358Y325074D01*
X415413Y329769D01*
X415413Y334851D01*
X417358Y339546D01*
X420952Y343140D01*
X425647Y345085D01*
X430729Y345085D01*
X435424Y343140D01*
X439018Y339546D01*
X440963Y334851D01*
X440963Y329769D01*
X439018Y325074D01*
X435424Y321480D01*
X433970Y320878D01*
X430729Y319535D01*
X425647Y319535D01*
G37*
%LPD*%
%LPC*%
G36*
X363866Y172076D02*
X363866Y172076D01*
X362663Y172689D01*
X361570Y173483D01*
X360615Y174438D01*
X359821Y175531D01*
X359208Y176734D01*
X358791Y178019D01*
X358762Y178198D01*
X358752Y178238D01*
X358747Y178281D01*
X358701Y178433D01*
X358660Y178587D01*
X358642Y178625D01*
X358629Y178665D01*
X358553Y178806D01*
X358483Y178949D01*
X358458Y178982D01*
X358437Y179019D01*
X358336Y179142D01*
X358239Y179268D01*
X358207Y179296D01*
X358180Y179329D01*
X358056Y179428D01*
X357936Y179534D01*
X357899Y179555D01*
X357866Y179581D01*
X357725Y179654D01*
X357586Y179734D01*
X357546Y179747D01*
X357509Y179767D01*
X357356Y179811D01*
X357204Y179861D01*
X357162Y179866D01*
X357122Y179878D01*
X356963Y179891D01*
X356805Y179911D01*
X356763Y179907D01*
X356720Y179911D01*
X356562Y179892D01*
X356403Y179880D01*
X356362Y179869D01*
X356321Y179864D01*
X356169Y179815D01*
X356016Y179771D01*
X355978Y179752D01*
X355938Y179739D01*
X355799Y179661D01*
X355657Y179588D01*
X355624Y179562D01*
X355587Y179541D01*
X355467Y179437D01*
X355342Y179338D01*
X355314Y179306D01*
X355282Y179278D01*
X355185Y179152D01*
X355082Y179030D01*
X355062Y178993D01*
X355036Y178960D01*
X354965Y178817D01*
X354888Y178678D01*
X354875Y178637D01*
X354856Y178599D01*
X354815Y178445D01*
X354767Y178294D01*
X354763Y178252D01*
X354752Y178211D01*
X354729Y177936D01*
X354725Y177893D01*
X354725Y177886D01*
X354725Y177880D01*
X354725Y173356D01*
X353832Y172463D01*
X340488Y172463D01*
X339595Y173356D01*
X339595Y186700D01*
X340488Y187593D01*
X353832Y187593D01*
X354725Y186700D01*
X354725Y182176D01*
X354729Y182134D01*
X354726Y182092D01*
X354749Y181934D01*
X354765Y181775D01*
X354777Y181735D01*
X354783Y181693D01*
X354836Y181543D01*
X354883Y181391D01*
X354903Y181353D01*
X354917Y181313D01*
X354999Y181177D01*
X355075Y181037D01*
X355102Y181004D01*
X355123Y180968D01*
X355230Y180850D01*
X355332Y180727D01*
X355365Y180701D01*
X355394Y180669D01*
X355522Y180575D01*
X355646Y180475D01*
X355684Y180455D01*
X355718Y180430D01*
X355862Y180363D01*
X356003Y180289D01*
X356044Y180278D01*
X356082Y180260D01*
X356237Y180222D01*
X356390Y180178D01*
X356432Y180175D01*
X356473Y180165D01*
X356633Y180158D01*
X356792Y180145D01*
X356833Y180150D01*
X356876Y180148D01*
X357033Y180173D01*
X357191Y180192D01*
X357232Y180205D01*
X357273Y180212D01*
X357423Y180267D01*
X357574Y180317D01*
X357611Y180338D01*
X357651Y180352D01*
X357786Y180436D01*
X357925Y180515D01*
X357957Y180542D01*
X357993Y180565D01*
X358109Y180674D01*
X358229Y180778D01*
X358255Y180811D01*
X358286Y180840D01*
X358379Y180970D01*
X358476Y181096D01*
X358495Y181134D01*
X358520Y181168D01*
X358585Y181314D01*
X358656Y181457D01*
X358667Y181497D01*
X358684Y181536D01*
X358749Y181803D01*
X358760Y181845D01*
X358761Y181852D01*
X358762Y181858D01*
X358791Y182037D01*
X359208Y183322D01*
X359821Y184525D01*
X360615Y185618D01*
X361570Y186573D01*
X362663Y187367D01*
X363866Y187980D01*
X365129Y188390D01*
X365129Y180028D01*
X365129Y171666D01*
X363866Y172076D01*
G37*
%LPD*%
%LPC*%
G36*
X278555Y234483D02*
X278555Y234483D01*
X275775Y235635D01*
X273647Y237763D01*
X272495Y240543D01*
X272495Y243553D01*
X273647Y246333D01*
X275775Y248461D01*
X278555Y249613D01*
X281565Y249613D01*
X284345Y248461D01*
X286473Y246333D01*
X287625Y243553D01*
X287625Y240543D01*
X286473Y237763D01*
X284345Y235635D01*
X281565Y234483D01*
X278555Y234483D01*
G37*
%LPD*%
%LPC*%
G36*
X278555Y317795D02*
X278555Y317795D01*
X275775Y318947D01*
X273647Y321075D01*
X272495Y323855D01*
X272495Y326865D01*
X273647Y329645D01*
X275775Y331773D01*
X278555Y332925D01*
X281565Y332925D01*
X284345Y331773D01*
X286473Y329645D01*
X287625Y326865D01*
X287625Y323855D01*
X286473Y321075D01*
X284345Y318947D01*
X284103Y318846D01*
X284102Y318846D01*
X281565Y317795D01*
X278555Y317795D01*
G37*
%LPD*%
%LPC*%
G36*
X369191Y182059D02*
X369191Y182059D01*
X369191Y188390D01*
X370454Y187980D01*
X371657Y187367D01*
X372750Y186573D01*
X373705Y185618D01*
X374499Y184525D01*
X375112Y183322D01*
X375522Y182059D01*
X369191Y182059D01*
G37*
%LPD*%
%LPC*%
G36*
X369191Y177997D02*
X369191Y177997D01*
X375522Y177997D01*
X375112Y176734D01*
X374499Y175531D01*
X373705Y174438D01*
X372750Y173483D01*
X371657Y172689D01*
X370454Y172076D01*
X369191Y171666D01*
X369191Y177997D01*
G37*
%LPD*%
%LPC*%
G36*
X480999Y375799D02*
X480999Y375799D01*
X480999Y375801D01*
X481001Y375801D01*
X481001Y375799D01*
X480999Y375799D01*
G37*
%LPD*%
D10*
X280060Y262048D03*
D11*
X280060Y242048D03*
D12*
X274800Y169800D03*
X481000Y375800D03*
D10*
X280060Y345360D03*
D11*
X280060Y325360D03*
D10*
X347160Y180028D03*
D11*
X367160Y180028D03*
D13*
X428188Y332310D03*
X428188Y387310D03*
X308188Y359810D03*
D14*
X411000Y284000D03*
D15*
X411000Y199164D01*
X406146Y194310D01*
X398526Y194310D01*
D14*
X398526Y194310D03*
D15*
X280060Y345360D02*
X269360Y345360D01*
X261000Y337000D01*
X261000Y270000D01*
X268952Y262048D01*
X280060Y262048D01*
M02*
