G04 EAGLE Gerber RS-274X export*
G75*
%MOMM*%
%FSLAX34Y34*%
%LPD*%
%INTop Copper*%
%IPPOS*%
%AMOC8*
5,1,8,0,0,1.08239X$1,22.5*%
G01*
%ADD10R,1.208000X1.208000*%
%ADD11C,1.208000*%
%ADD12R,1.500000X1.300000*%
%ADD13R,1.300000X1.500000*%
%ADD14R,1.200000X1.200000*%
%ADD15C,0.438600*%
%ADD16C,5.842000*%
%ADD17R,0.800000X0.800000*%
%ADD18R,0.800000X0.900000*%
%ADD19R,1.803000X1.600000*%
%ADD20C,2.540000*%
%ADD21C,0.304800*%
%ADD22C,2.250000*%
%ADD23C,0.295000*%
%ADD24C,0.300000*%
%ADD25C,0.406400*%
%ADD26C,0.756400*%

G36*
X271476Y134171D02*
X271476Y134171D01*
X271578Y134171D01*
X271676Y134191D01*
X271775Y134201D01*
X271872Y134231D01*
X271972Y134251D01*
X272064Y134289D01*
X272160Y134319D01*
X272250Y134367D01*
X272343Y134407D01*
X272426Y134463D01*
X272514Y134511D01*
X272592Y134576D01*
X272677Y134633D01*
X272746Y134704D01*
X272823Y134768D01*
X272887Y134848D01*
X272958Y134921D01*
X273013Y135004D01*
X273075Y135082D01*
X273122Y135173D01*
X273178Y135258D01*
X273215Y135351D01*
X273261Y135439D01*
X273289Y135537D01*
X273327Y135632D01*
X273345Y135730D01*
X273372Y135826D01*
X273381Y135928D01*
X273399Y136028D01*
X273397Y136128D01*
X273405Y136228D01*
X273393Y136329D01*
X273391Y136431D01*
X273370Y136528D01*
X273358Y136627D01*
X273327Y136724D01*
X273305Y136824D01*
X273264Y136915D01*
X273233Y137010D01*
X273183Y137099D01*
X273142Y137192D01*
X273085Y137274D01*
X273035Y137361D01*
X272969Y137438D01*
X272910Y137521D01*
X272838Y137590D01*
X272772Y137665D01*
X272692Y137728D01*
X272618Y137798D01*
X272533Y137851D01*
X272454Y137912D01*
X272363Y137958D01*
X272276Y138012D01*
X272183Y138047D01*
X272094Y138092D01*
X271995Y138118D01*
X271900Y138154D01*
X271781Y138176D01*
X271705Y138196D01*
X271639Y138202D01*
X271573Y138213D01*
X270136Y138355D01*
X267076Y138964D01*
X264090Y139869D01*
X261209Y141063D01*
X258457Y142534D01*
X255864Y144267D01*
X253452Y146246D01*
X251246Y148452D01*
X249267Y150864D01*
X247534Y153457D01*
X246063Y156209D01*
X244869Y159090D01*
X243964Y162076D01*
X243355Y165136D01*
X243296Y165737D01*
X272768Y165737D01*
X272786Y165739D01*
X272803Y165737D01*
X272986Y165758D01*
X273168Y165777D01*
X273186Y165782D01*
X273203Y165784D01*
X273378Y165841D01*
X273553Y165895D01*
X273569Y165903D01*
X273586Y165909D01*
X273746Y165999D01*
X273907Y166087D01*
X273921Y166098D01*
X273937Y166107D01*
X274076Y166227D01*
X274217Y166344D01*
X274228Y166358D01*
X274241Y166370D01*
X274354Y166515D01*
X274469Y166658D01*
X274477Y166674D01*
X274488Y166688D01*
X274570Y166853D01*
X274655Y167015D01*
X274659Y167032D01*
X274667Y167049D01*
X274715Y167226D01*
X274766Y167402D01*
X274767Y167420D01*
X274772Y167437D01*
X274799Y167768D01*
X274799Y169801D01*
X274801Y169801D01*
X274801Y167768D01*
X274803Y167750D01*
X274801Y167732D01*
X274823Y167550D01*
X274841Y167367D01*
X274846Y167350D01*
X274848Y167333D01*
X274905Y167158D01*
X274959Y166982D01*
X274967Y166967D01*
X274973Y166950D01*
X275063Y166790D01*
X275151Y166628D01*
X275162Y166615D01*
X275171Y166599D01*
X275291Y166460D01*
X275408Y166319D01*
X275422Y166308D01*
X275434Y166295D01*
X275579Y166182D01*
X275722Y166067D01*
X275738Y166059D01*
X275752Y166048D01*
X275917Y165966D01*
X276080Y165881D01*
X276097Y165876D01*
X276113Y165868D01*
X276291Y165821D01*
X276466Y165770D01*
X276484Y165768D01*
X276501Y165764D01*
X276832Y165737D01*
X306304Y165737D01*
X306245Y165136D01*
X305636Y162076D01*
X304731Y159090D01*
X303537Y156209D01*
X302066Y153457D01*
X300333Y150864D01*
X298354Y148452D01*
X296148Y146246D01*
X293736Y144267D01*
X291143Y142534D01*
X288391Y141063D01*
X285510Y139869D01*
X282524Y138964D01*
X279464Y138355D01*
X278027Y138213D01*
X277927Y138193D01*
X277825Y138183D01*
X277730Y138154D01*
X277632Y138134D01*
X277538Y138095D01*
X277440Y138065D01*
X277352Y138018D01*
X277260Y137979D01*
X277176Y137922D01*
X277086Y137873D01*
X277010Y137810D01*
X276927Y137754D01*
X276855Y137681D01*
X276777Y137616D01*
X276714Y137538D01*
X276644Y137467D01*
X276589Y137381D01*
X276525Y137302D01*
X276479Y137213D01*
X276424Y137130D01*
X276386Y137035D01*
X276339Y136945D01*
X276312Y136849D01*
X276274Y136756D01*
X276256Y136656D01*
X276228Y136558D01*
X276220Y136458D01*
X276202Y136360D01*
X276203Y136258D01*
X276195Y136156D01*
X276206Y136057D01*
X276208Y135958D01*
X276230Y135858D01*
X276242Y135757D01*
X276273Y135662D01*
X276294Y135564D01*
X276335Y135471D01*
X276367Y135374D01*
X276416Y135287D01*
X276456Y135196D01*
X276514Y135112D01*
X276565Y135023D01*
X276630Y134948D01*
X276687Y134866D01*
X276761Y134796D01*
X276828Y134718D01*
X276907Y134657D01*
X276979Y134589D01*
X277065Y134534D01*
X277146Y134472D01*
X277235Y134427D01*
X277320Y134374D01*
X277415Y134338D01*
X277506Y134292D01*
X277603Y134266D01*
X277696Y134231D01*
X277797Y134214D01*
X277895Y134188D01*
X278016Y134178D01*
X278093Y134165D01*
X278159Y134166D01*
X278226Y134161D01*
X497734Y134161D01*
X497773Y134165D01*
X497823Y134163D01*
X499739Y134246D01*
X499824Y134258D01*
X499977Y134271D01*
X502484Y134679D01*
X502542Y134695D01*
X502602Y134702D01*
X502794Y134762D01*
X502873Y134783D01*
X502892Y134792D01*
X502918Y134801D01*
X507799Y136773D01*
X507919Y136835D01*
X508043Y136890D01*
X508106Y136934D01*
X508156Y136960D01*
X508217Y137009D01*
X508317Y137077D01*
X512408Y140390D01*
X512504Y140486D01*
X512606Y140574D01*
X512654Y140634D01*
X512694Y140674D01*
X512738Y140739D01*
X512814Y140833D01*
X515757Y145198D01*
X515821Y145316D01*
X515893Y145431D01*
X515922Y145502D01*
X515948Y145552D01*
X515957Y145582D01*
X515965Y145596D01*
X515980Y145650D01*
X516016Y145740D01*
X517555Y150774D01*
X517567Y150833D01*
X517587Y150889D01*
X517618Y151088D01*
X517634Y151169D01*
X517634Y151190D01*
X517638Y151217D01*
X517834Y153849D01*
X517832Y153912D01*
X517839Y154000D01*
X517839Y154137D01*
X517839Y156425D01*
X517839Y393734D01*
X517835Y393773D01*
X517837Y393823D01*
X517754Y395739D01*
X517742Y395824D01*
X517729Y395977D01*
X517321Y398484D01*
X517305Y398542D01*
X517298Y398602D01*
X517238Y398794D01*
X517217Y398873D01*
X517208Y398892D01*
X517199Y398918D01*
X515227Y403799D01*
X515165Y403919D01*
X515110Y404043D01*
X515066Y404106D01*
X515040Y404156D01*
X514991Y404217D01*
X514923Y404317D01*
X511610Y408408D01*
X511514Y408504D01*
X511426Y408606D01*
X511366Y408654D01*
X511326Y408694D01*
X511261Y408738D01*
X511167Y408814D01*
X506802Y411757D01*
X506684Y411821D01*
X506569Y411893D01*
X506498Y411922D01*
X506448Y411948D01*
X506373Y411971D01*
X506260Y412016D01*
X501226Y413555D01*
X501167Y413567D01*
X501111Y413587D01*
X500912Y413618D01*
X500831Y413634D01*
X500810Y413634D01*
X500783Y413638D01*
X498151Y413834D01*
X498088Y413832D01*
X498000Y413839D01*
X497808Y413839D01*
X495575Y413839D01*
X258266Y413839D01*
X258227Y413835D01*
X258177Y413837D01*
X256261Y413754D01*
X256176Y413742D01*
X256023Y413729D01*
X253516Y413321D01*
X253458Y413305D01*
X253398Y413298D01*
X253206Y413238D01*
X253127Y413217D01*
X253108Y413208D01*
X253082Y413199D01*
X248201Y411227D01*
X248081Y411165D01*
X247957Y411110D01*
X247894Y411066D01*
X247844Y411040D01*
X247783Y410991D01*
X247683Y410923D01*
X243592Y407610D01*
X243496Y407514D01*
X243394Y407426D01*
X243346Y407366D01*
X243306Y407326D01*
X243262Y407261D01*
X243186Y407167D01*
X240243Y402802D01*
X240235Y402789D01*
X240225Y402777D01*
X240170Y402670D01*
X240107Y402569D01*
X240078Y402497D01*
X240052Y402448D01*
X240047Y402433D01*
X240040Y402419D01*
X240021Y402353D01*
X239984Y402260D01*
X238445Y397226D01*
X238433Y397167D01*
X238413Y397111D01*
X238382Y396912D01*
X238366Y396831D01*
X238366Y396810D01*
X238362Y396783D01*
X238166Y394151D01*
X238168Y394088D01*
X238161Y394000D01*
X238161Y391575D01*
X238161Y154000D01*
X238166Y153944D01*
X238165Y153867D01*
X238317Y151543D01*
X238323Y151510D01*
X238323Y151476D01*
X238382Y151150D01*
X239586Y146659D01*
X239621Y146566D01*
X239647Y146469D01*
X239700Y146357D01*
X239728Y146283D01*
X239757Y146236D01*
X239788Y146170D01*
X242113Y142144D01*
X242171Y142062D01*
X242221Y141976D01*
X242301Y141881D01*
X242348Y141817D01*
X242388Y141779D01*
X242436Y141723D01*
X245723Y138436D01*
X245800Y138372D01*
X245871Y138302D01*
X245973Y138231D01*
X246034Y138181D01*
X246083Y138155D01*
X246144Y138113D01*
X250170Y135788D01*
X250261Y135747D01*
X250347Y135697D01*
X250464Y135656D01*
X250536Y135623D01*
X250590Y135610D01*
X250659Y135586D01*
X255150Y134382D01*
X255183Y134377D01*
X255214Y134366D01*
X255543Y134317D01*
X257867Y134165D01*
X257924Y134167D01*
X258000Y134161D01*
X271374Y134161D01*
X271476Y134171D01*
G37*
%LPC*%
G36*
X492582Y147208D02*
X492582Y147208D01*
X492570Y147221D01*
X492561Y147237D01*
X492441Y147376D01*
X492324Y147517D01*
X492310Y147528D01*
X492298Y147542D01*
X492153Y147654D01*
X492010Y147769D01*
X491994Y147777D01*
X491980Y147788D01*
X491815Y147870D01*
X491653Y147955D01*
X491636Y147960D01*
X491620Y147968D01*
X491442Y148015D01*
X491266Y148066D01*
X491248Y148068D01*
X491231Y148072D01*
X490900Y148099D01*
X490882Y148098D01*
X490865Y148099D01*
X490864Y148099D01*
X490682Y148078D01*
X490499Y148059D01*
X490482Y148054D01*
X490464Y148052D01*
X490290Y147995D01*
X490114Y147941D01*
X490099Y147933D01*
X490082Y147927D01*
X489921Y147837D01*
X489760Y147749D01*
X489747Y147738D01*
X489731Y147729D01*
X489592Y147609D01*
X489451Y147492D01*
X489440Y147478D01*
X489426Y147466D01*
X489314Y147321D01*
X489199Y147178D01*
X489190Y147162D01*
X489180Y147148D01*
X489135Y147059D01*
X486565Y147059D01*
X485919Y147232D01*
X485307Y147586D01*
X485226Y147649D01*
X485091Y147759D01*
X485067Y147772D01*
X485046Y147788D01*
X484890Y147866D01*
X484736Y147948D01*
X484710Y147956D01*
X484686Y147968D01*
X484516Y148013D01*
X484350Y148063D01*
X484323Y148065D01*
X484297Y148072D01*
X483966Y148099D01*
X477397Y148099D01*
X477370Y148097D01*
X477342Y148099D01*
X477170Y148077D01*
X477156Y148075D01*
X466696Y148075D01*
X466403Y148099D01*
X463423Y148099D01*
X463129Y148393D01*
X463129Y168999D01*
X463127Y169026D01*
X463129Y169053D01*
X463107Y169227D01*
X463089Y169400D01*
X463082Y169425D01*
X463078Y169452D01*
X463023Y169618D01*
X462971Y169785D01*
X462958Y169808D01*
X462950Y169834D01*
X462863Y169985D01*
X462779Y170139D01*
X462762Y170159D01*
X462749Y170183D01*
X462534Y170436D01*
X461022Y171948D01*
X461001Y171965D01*
X460983Y171986D01*
X460846Y172093D01*
X460710Y172203D01*
X460687Y172216D01*
X460665Y172232D01*
X460508Y172310D01*
X460354Y172392D01*
X460329Y172400D01*
X460305Y172412D01*
X460135Y172457D01*
X459969Y172507D01*
X459942Y172509D01*
X459916Y172516D01*
X459585Y172543D01*
X457632Y172543D01*
X457614Y172541D01*
X457596Y172543D01*
X457414Y172522D01*
X457231Y172503D01*
X457214Y172498D01*
X457197Y172496D01*
X457022Y172439D01*
X456846Y172385D01*
X456831Y172377D01*
X456814Y172371D01*
X456654Y172281D01*
X456492Y172193D01*
X456479Y172182D01*
X456463Y172173D01*
X456324Y172053D01*
X456183Y171936D01*
X456172Y171922D01*
X456158Y171910D01*
X456046Y171765D01*
X455931Y171622D01*
X455923Y171606D01*
X455912Y171592D01*
X455830Y171427D01*
X455745Y171265D01*
X455740Y171248D01*
X455732Y171232D01*
X455685Y171053D01*
X455634Y170878D01*
X455632Y170860D01*
X455628Y170843D01*
X455601Y170512D01*
X455601Y150393D01*
X455282Y150074D01*
X455133Y150059D01*
X455108Y150052D01*
X455081Y150048D01*
X454915Y149993D01*
X454748Y149941D01*
X454725Y149928D01*
X454699Y149920D01*
X454548Y149833D01*
X454394Y149749D01*
X454374Y149732D01*
X454350Y149719D01*
X454195Y149587D01*
X453581Y149232D01*
X452935Y149059D01*
X450362Y149059D01*
X450282Y149208D01*
X450270Y149221D01*
X450261Y149237D01*
X450141Y149376D01*
X450024Y149517D01*
X450010Y149528D01*
X449998Y149542D01*
X449853Y149654D01*
X449710Y149769D01*
X449694Y149777D01*
X449680Y149788D01*
X449515Y149870D01*
X449353Y149955D01*
X449336Y149960D01*
X449320Y149968D01*
X449142Y150015D01*
X448966Y150066D01*
X448948Y150068D01*
X448931Y150072D01*
X448600Y150099D01*
X448582Y150098D01*
X448565Y150099D01*
X448564Y150099D01*
X448382Y150078D01*
X448199Y150059D01*
X448182Y150054D01*
X448164Y150052D01*
X447990Y149995D01*
X447814Y149941D01*
X447799Y149933D01*
X447782Y149927D01*
X447621Y149837D01*
X447460Y149749D01*
X447447Y149738D01*
X447431Y149729D01*
X447292Y149609D01*
X447151Y149492D01*
X447140Y149478D01*
X447126Y149466D01*
X447014Y149321D01*
X446899Y149178D01*
X446890Y149162D01*
X446880Y149148D01*
X446835Y149059D01*
X444265Y149059D01*
X443619Y149232D01*
X443007Y149586D01*
X442926Y149649D01*
X442791Y149759D01*
X442767Y149772D01*
X442746Y149788D01*
X442589Y149866D01*
X442435Y149948D01*
X442410Y149956D01*
X442386Y149968D01*
X442216Y150013D01*
X442049Y150063D01*
X442023Y150065D01*
X441997Y150072D01*
X441666Y150099D01*
X435097Y150099D01*
X435070Y150097D01*
X435044Y150099D01*
X434870Y150077D01*
X434856Y150075D01*
X424396Y150075D01*
X424103Y150099D01*
X422893Y150099D01*
X422599Y150393D01*
X422599Y152529D01*
X422597Y152556D01*
X422599Y152583D01*
X422577Y152757D01*
X422559Y152930D01*
X422552Y152955D01*
X422548Y152982D01*
X422493Y153148D01*
X422441Y153315D01*
X422428Y153338D01*
X422420Y153364D01*
X422333Y153515D01*
X422249Y153669D01*
X422232Y153689D01*
X422219Y153713D01*
X422004Y153966D01*
X412443Y163527D01*
X412443Y188473D01*
X424968Y200998D01*
X424984Y201007D01*
X424997Y201018D01*
X425013Y201027D01*
X425152Y201147D01*
X425293Y201264D01*
X425304Y201278D01*
X425318Y201290D01*
X425430Y201435D01*
X425545Y201578D01*
X425553Y201594D01*
X425564Y201608D01*
X425646Y201773D01*
X425731Y201935D01*
X425736Y201952D01*
X425744Y201968D01*
X425791Y202147D01*
X425842Y202322D01*
X425844Y202340D01*
X425848Y202357D01*
X425875Y202688D01*
X425875Y204232D01*
X426807Y205164D01*
X426819Y205178D01*
X426832Y205189D01*
X426946Y205333D01*
X427062Y205475D01*
X427071Y205491D01*
X427082Y205505D01*
X427165Y205669D01*
X427251Y205831D01*
X427256Y205848D01*
X427264Y205864D01*
X427314Y206041D01*
X427366Y206217D01*
X427367Y206235D01*
X427372Y206252D01*
X427386Y206435D01*
X427402Y206618D01*
X427400Y206636D01*
X427402Y206653D01*
X427379Y206835D01*
X427359Y207018D01*
X427353Y207035D01*
X427351Y207053D01*
X427293Y207226D01*
X427237Y207402D01*
X427229Y207418D01*
X427223Y207434D01*
X427131Y207594D01*
X427043Y207754D01*
X427031Y207768D01*
X427022Y207783D01*
X426807Y208036D01*
X425873Y208971D01*
X425859Y208982D01*
X425848Y208995D01*
X425704Y209109D01*
X425562Y209226D01*
X425546Y209234D01*
X425532Y209245D01*
X425367Y209329D01*
X425206Y209414D01*
X425189Y209419D01*
X425173Y209427D01*
X424995Y209477D01*
X424820Y209529D01*
X424802Y209531D01*
X424785Y209535D01*
X424602Y209549D01*
X424419Y209565D01*
X424401Y209563D01*
X424384Y209565D01*
X424202Y209542D01*
X424019Y209522D01*
X424002Y209517D01*
X423984Y209514D01*
X423811Y209456D01*
X423635Y209401D01*
X423619Y209392D01*
X423602Y209386D01*
X423443Y209294D01*
X423283Y209206D01*
X423269Y209194D01*
X423254Y209185D01*
X423001Y208971D01*
X419873Y205843D01*
X419256Y205843D01*
X419230Y205841D01*
X419203Y205843D01*
X419029Y205821D01*
X418856Y205803D01*
X418830Y205796D01*
X418804Y205792D01*
X418638Y205736D01*
X418471Y205685D01*
X418447Y205672D01*
X418422Y205664D01*
X418270Y205577D01*
X418117Y205493D01*
X418096Y205476D01*
X418073Y205463D01*
X417820Y205248D01*
X415347Y202775D01*
X408053Y202775D01*
X405580Y205248D01*
X405559Y205265D01*
X405542Y205286D01*
X405404Y205393D01*
X405268Y205503D01*
X405245Y205516D01*
X405224Y205532D01*
X405067Y205610D01*
X404913Y205692D01*
X404887Y205700D01*
X404863Y205712D01*
X404694Y205757D01*
X404527Y205807D01*
X404500Y205809D01*
X404474Y205816D01*
X404144Y205843D01*
X403127Y205843D01*
X397492Y211478D01*
X397485Y211483D01*
X397480Y211490D01*
X397330Y211611D01*
X397181Y211733D01*
X397173Y211737D01*
X397166Y211743D01*
X396996Y211831D01*
X396825Y211921D01*
X396816Y211924D01*
X396809Y211928D01*
X396624Y211981D01*
X396439Y212036D01*
X396430Y212037D01*
X396422Y212039D01*
X396230Y212055D01*
X396038Y212073D01*
X396029Y212072D01*
X396020Y212072D01*
X395831Y212050D01*
X395638Y212029D01*
X395629Y212026D01*
X395621Y212025D01*
X395439Y211966D01*
X395254Y211908D01*
X395246Y211903D01*
X395238Y211901D01*
X395069Y211806D01*
X394902Y211713D01*
X394895Y211707D01*
X394887Y211703D01*
X394741Y211577D01*
X394595Y211452D01*
X394589Y211445D01*
X394582Y211440D01*
X394465Y211288D01*
X394345Y211136D01*
X394341Y211128D01*
X394336Y211121D01*
X394250Y210949D01*
X394163Y210778D01*
X394160Y210769D01*
X394156Y210761D01*
X394106Y210574D01*
X394055Y210390D01*
X394054Y210381D01*
X394052Y210372D01*
X394025Y210041D01*
X394025Y207568D01*
X393597Y207141D01*
X393586Y207127D01*
X393573Y207116D01*
X393459Y206972D01*
X393342Y206830D01*
X393334Y206814D01*
X393323Y206800D01*
X393240Y206636D01*
X393154Y206474D01*
X393149Y206457D01*
X393141Y206441D01*
X393091Y206264D01*
X393039Y206088D01*
X393037Y206070D01*
X393033Y206053D01*
X393019Y205870D01*
X393003Y205687D01*
X393005Y205669D01*
X393003Y205652D01*
X393026Y205469D01*
X393046Y205287D01*
X393051Y205270D01*
X393054Y205252D01*
X393112Y205078D01*
X393167Y204903D01*
X393176Y204887D01*
X393182Y204870D01*
X393273Y204712D01*
X393362Y204551D01*
X393374Y204537D01*
X393383Y204522D01*
X393597Y204269D01*
X397654Y200212D01*
X397675Y200195D01*
X397693Y200174D01*
X397830Y200067D01*
X397966Y199957D01*
X397989Y199944D01*
X398011Y199928D01*
X398168Y199850D01*
X398322Y199768D01*
X398347Y199760D01*
X398371Y199748D01*
X398541Y199703D01*
X398707Y199653D01*
X398734Y199651D01*
X398760Y199644D01*
X399091Y199617D01*
X399582Y199617D01*
X401532Y198809D01*
X403025Y197316D01*
X403833Y195366D01*
X403833Y193254D01*
X403025Y191304D01*
X401532Y189811D01*
X399582Y189003D01*
X397470Y189003D01*
X395520Y189811D01*
X394027Y191304D01*
X393219Y193254D01*
X393219Y193745D01*
X393217Y193772D01*
X393219Y193799D01*
X393197Y193973D01*
X393179Y194146D01*
X393172Y194171D01*
X393168Y194198D01*
X393113Y194364D01*
X393061Y194531D01*
X393048Y194554D01*
X393040Y194580D01*
X392953Y194731D01*
X392869Y194885D01*
X392852Y194905D01*
X392839Y194929D01*
X392624Y195182D01*
X386627Y201179D01*
X386613Y201190D01*
X386602Y201204D01*
X386458Y201318D01*
X386316Y201434D01*
X386300Y201442D01*
X386286Y201453D01*
X386122Y201537D01*
X385960Y201622D01*
X385943Y201627D01*
X385927Y201636D01*
X385750Y201685D01*
X385574Y201737D01*
X385556Y201739D01*
X385539Y201744D01*
X385356Y201757D01*
X385173Y201774D01*
X385155Y201772D01*
X385138Y201773D01*
X384956Y201750D01*
X384773Y201730D01*
X384756Y201725D01*
X384738Y201723D01*
X384564Y201664D01*
X384389Y201609D01*
X384373Y201600D01*
X384357Y201594D01*
X384197Y201502D01*
X384037Y201414D01*
X384023Y201402D01*
X384008Y201393D01*
X383755Y201179D01*
X376377Y193801D01*
X356645Y193801D01*
X356618Y193799D01*
X356591Y193801D01*
X356417Y193779D01*
X356244Y193761D01*
X356219Y193754D01*
X356192Y193750D01*
X356026Y193694D01*
X355859Y193643D01*
X355836Y193631D01*
X355810Y193622D01*
X355659Y193535D01*
X355505Y193451D01*
X355485Y193434D01*
X355461Y193421D01*
X355208Y193206D01*
X353062Y191060D01*
X353057Y191053D01*
X353050Y191048D01*
X352929Y190898D01*
X352807Y190749D01*
X352803Y190741D01*
X352797Y190734D01*
X352709Y190564D01*
X352619Y190393D01*
X352616Y190384D01*
X352612Y190377D01*
X352559Y190192D01*
X352504Y190007D01*
X352503Y189998D01*
X352501Y189990D01*
X352485Y189799D01*
X352467Y189606D01*
X352468Y189597D01*
X352468Y189588D01*
X352490Y189399D01*
X352511Y189206D01*
X352514Y189197D01*
X352515Y189189D01*
X352575Y189004D01*
X352632Y188822D01*
X352637Y188814D01*
X352639Y188806D01*
X352734Y188638D01*
X352827Y188470D01*
X352833Y188463D01*
X352837Y188455D01*
X352963Y188310D01*
X353088Y188163D01*
X353095Y188157D01*
X353100Y188150D01*
X353252Y188033D01*
X353404Y187913D01*
X353412Y187909D01*
X353419Y187904D01*
X353591Y187818D01*
X353622Y187802D01*
X354725Y186700D01*
X354725Y182176D01*
X354729Y182134D01*
X354726Y182092D01*
X354749Y181934D01*
X354765Y181775D01*
X354777Y181735D01*
X354783Y181693D01*
X354836Y181543D01*
X354883Y181390D01*
X354903Y181353D01*
X354917Y181313D01*
X354999Y181177D01*
X355075Y181036D01*
X355102Y181004D01*
X355123Y180968D01*
X355231Y180849D01*
X355332Y180727D01*
X355365Y180701D01*
X355394Y180669D01*
X355522Y180575D01*
X355646Y180475D01*
X355684Y180455D01*
X355718Y180430D01*
X355862Y180363D01*
X356003Y180289D01*
X356044Y180278D01*
X356082Y180260D01*
X356237Y180222D01*
X356390Y180178D01*
X356432Y180174D01*
X356474Y180164D01*
X356633Y180158D01*
X356792Y180145D01*
X356833Y180150D01*
X356876Y180148D01*
X357033Y180173D01*
X357191Y180192D01*
X357232Y180205D01*
X357273Y180212D01*
X357423Y180267D01*
X357574Y180317D01*
X357611Y180338D01*
X357651Y180352D01*
X357786Y180436D01*
X357925Y180515D01*
X357957Y180542D01*
X357993Y180565D01*
X358109Y180674D01*
X358229Y180778D01*
X358255Y180811D01*
X358286Y180840D01*
X358379Y180970D01*
X358476Y181096D01*
X358495Y181134D01*
X358520Y181168D01*
X358584Y181313D01*
X358656Y181457D01*
X358667Y181497D01*
X358684Y181536D01*
X358749Y181803D01*
X358760Y181845D01*
X358761Y181852D01*
X358762Y181858D01*
X358791Y182038D01*
X359208Y183322D01*
X359821Y184525D01*
X360615Y185618D01*
X361570Y186573D01*
X362663Y187367D01*
X363866Y187980D01*
X365129Y188390D01*
X365129Y180028D01*
X365129Y171666D01*
X363866Y172076D01*
X362663Y172689D01*
X361570Y173483D01*
X360615Y174438D01*
X359821Y175531D01*
X359208Y176734D01*
X358791Y178018D01*
X358762Y178198D01*
X358752Y178239D01*
X358747Y178281D01*
X358701Y178433D01*
X358660Y178587D01*
X358642Y178625D01*
X358629Y178666D01*
X358553Y178806D01*
X358483Y178949D01*
X358458Y178982D01*
X358437Y179020D01*
X358336Y179142D01*
X358239Y179268D01*
X358207Y179296D01*
X358180Y179329D01*
X358056Y179429D01*
X357936Y179534D01*
X357899Y179555D01*
X357866Y179581D01*
X357724Y179655D01*
X357586Y179734D01*
X357546Y179747D01*
X357509Y179767D01*
X357356Y179811D01*
X357204Y179861D01*
X357162Y179866D01*
X357122Y179878D01*
X356963Y179891D01*
X356805Y179911D01*
X356763Y179907D01*
X356720Y179911D01*
X356562Y179892D01*
X356403Y179880D01*
X356363Y179869D01*
X356321Y179864D01*
X356169Y179815D01*
X356016Y179772D01*
X355978Y179752D01*
X355938Y179739D01*
X355799Y179661D01*
X355657Y179588D01*
X355624Y179562D01*
X355587Y179541D01*
X355467Y179437D01*
X355342Y179338D01*
X355314Y179306D01*
X355282Y179278D01*
X355185Y179152D01*
X355082Y179031D01*
X355062Y178993D01*
X355036Y178960D01*
X354965Y178817D01*
X354888Y178678D01*
X354875Y178637D01*
X354856Y178599D01*
X354815Y178445D01*
X354767Y178294D01*
X354763Y178252D01*
X354752Y178211D01*
X354729Y177937D01*
X354725Y177893D01*
X354725Y177887D01*
X354725Y177880D01*
X354725Y173356D01*
X353832Y172463D01*
X340488Y172463D01*
X339595Y173356D01*
X339595Y186700D01*
X340488Y187593D01*
X341572Y187593D01*
X341590Y187595D01*
X341608Y187593D01*
X341790Y187614D01*
X341973Y187633D01*
X341990Y187638D01*
X342007Y187640D01*
X342182Y187697D01*
X342358Y187751D01*
X342373Y187759D01*
X342390Y187765D01*
X342550Y187855D01*
X342712Y187943D01*
X342725Y187954D01*
X342741Y187963D01*
X342880Y188083D01*
X343021Y188200D01*
X343032Y188214D01*
X343046Y188226D01*
X343158Y188371D01*
X343273Y188514D01*
X343281Y188530D01*
X343292Y188544D01*
X343374Y188709D01*
X343459Y188871D01*
X343464Y188888D01*
X343472Y188904D01*
X343519Y189083D01*
X343570Y189258D01*
X343572Y189276D01*
X343576Y189293D01*
X343603Y189624D01*
X343603Y191661D01*
X352857Y200915D01*
X372589Y200915D01*
X372616Y200917D01*
X372643Y200915D01*
X372816Y200937D01*
X372990Y200955D01*
X373016Y200962D01*
X373042Y200966D01*
X373208Y201021D01*
X373375Y201073D01*
X373398Y201086D01*
X373424Y201094D01*
X373576Y201181D01*
X373729Y201265D01*
X373749Y201282D01*
X373773Y201295D01*
X374026Y201510D01*
X374708Y202192D01*
X374713Y202199D01*
X374720Y202204D01*
X374840Y202353D01*
X374963Y202503D01*
X374967Y202511D01*
X374973Y202518D01*
X375060Y202687D01*
X375151Y202859D01*
X375154Y202868D01*
X375158Y202875D01*
X375211Y203059D01*
X375266Y203245D01*
X375267Y203254D01*
X375269Y203262D01*
X375285Y203453D01*
X375303Y203646D01*
X375302Y203655D01*
X375302Y203664D01*
X375280Y203853D01*
X375259Y204046D01*
X375256Y204055D01*
X375255Y204063D01*
X375196Y204246D01*
X375138Y204430D01*
X375133Y204438D01*
X375131Y204446D01*
X375036Y204615D01*
X374943Y204782D01*
X374937Y204789D01*
X374933Y204797D01*
X374807Y204942D01*
X374682Y205089D01*
X374675Y205095D01*
X374670Y205102D01*
X374518Y205219D01*
X374366Y205339D01*
X374359Y205343D01*
X374351Y205348D01*
X374178Y205435D01*
X374008Y205521D01*
X373999Y205524D01*
X373991Y205528D01*
X373803Y205578D01*
X373620Y205629D01*
X373611Y205630D01*
X373602Y205632D01*
X373271Y205659D01*
X370249Y205659D01*
X370249Y214482D01*
X370247Y214500D01*
X370249Y214517D01*
X370228Y214699D01*
X370209Y214882D01*
X370204Y214899D01*
X370202Y214917D01*
X370145Y215092D01*
X370091Y215267D01*
X370083Y215283D01*
X370077Y215300D01*
X369987Y215460D01*
X369899Y215621D01*
X369888Y215635D01*
X369879Y215651D01*
X369834Y215703D01*
X369919Y215808D01*
X369927Y215824D01*
X369938Y215838D01*
X370020Y216003D01*
X370105Y216166D01*
X370110Y216183D01*
X370118Y216199D01*
X370165Y216377D01*
X370216Y216552D01*
X370218Y216570D01*
X370222Y216587D01*
X370249Y216918D01*
X370249Y225741D01*
X373835Y225741D01*
X374481Y225568D01*
X375060Y225233D01*
X375611Y224682D01*
X375678Y224589D01*
X375738Y224533D01*
X375791Y224470D01*
X375885Y224396D01*
X375972Y224315D01*
X376043Y224272D01*
X376107Y224220D01*
X376214Y224166D01*
X376315Y224104D01*
X376393Y224075D01*
X376466Y224038D01*
X376581Y224006D01*
X376693Y223965D01*
X376775Y223952D01*
X376854Y223930D01*
X376973Y223921D01*
X377091Y223903D01*
X377173Y223907D01*
X377256Y223901D01*
X377374Y223916D01*
X377493Y223921D01*
X377573Y223941D01*
X377655Y223951D01*
X377768Y223989D01*
X377884Y224018D01*
X377959Y224053D01*
X378037Y224079D01*
X378140Y224139D01*
X378248Y224190D01*
X378314Y224239D01*
X378386Y224280D01*
X378502Y224379D01*
X378571Y224430D01*
X378598Y224461D01*
X378639Y224495D01*
X378868Y224725D01*
X380412Y224725D01*
X380430Y224727D01*
X380448Y224725D01*
X380630Y224746D01*
X380813Y224765D01*
X380830Y224770D01*
X380847Y224772D01*
X381022Y224829D01*
X381198Y224883D01*
X381213Y224891D01*
X381230Y224897D01*
X381390Y224987D01*
X381552Y225075D01*
X381565Y225086D01*
X381581Y225095D01*
X381720Y225215D01*
X381861Y225332D01*
X381872Y225346D01*
X381886Y225358D01*
X381998Y225503D01*
X382113Y225646D01*
X382121Y225662D01*
X382132Y225676D01*
X382214Y225841D01*
X382299Y226003D01*
X382304Y226020D01*
X382312Y226036D01*
X382359Y226215D01*
X382410Y226390D01*
X382412Y226408D01*
X382416Y226425D01*
X382443Y226756D01*
X382443Y227453D01*
X384798Y229808D01*
X384815Y229829D01*
X384836Y229847D01*
X384943Y229984D01*
X385053Y230120D01*
X385066Y230143D01*
X385082Y230165D01*
X385160Y230322D01*
X385242Y230476D01*
X385250Y230501D01*
X385262Y230525D01*
X385307Y230695D01*
X385357Y230861D01*
X385359Y230888D01*
X385366Y230914D01*
X385393Y231245D01*
X385393Y232394D01*
X385391Y232412D01*
X385393Y232430D01*
X385372Y232612D01*
X385353Y232795D01*
X385348Y232812D01*
X385346Y232829D01*
X385289Y233004D01*
X385235Y233180D01*
X385227Y233195D01*
X385221Y233212D01*
X385131Y233372D01*
X385043Y233534D01*
X385032Y233547D01*
X385023Y233563D01*
X384903Y233702D01*
X384786Y233843D01*
X384772Y233854D01*
X384760Y233868D01*
X384615Y233980D01*
X384472Y234095D01*
X384456Y234103D01*
X384442Y234114D01*
X384277Y234196D01*
X384115Y234281D01*
X384098Y234286D01*
X384082Y234294D01*
X383903Y234341D01*
X383728Y234392D01*
X383710Y234394D01*
X383693Y234398D01*
X383362Y234425D01*
X383132Y234425D01*
X381375Y236182D01*
X381375Y238091D01*
X381374Y238100D01*
X381375Y238109D01*
X381354Y238301D01*
X381335Y238492D01*
X381333Y238501D01*
X381332Y238509D01*
X381274Y238690D01*
X381217Y238877D01*
X381213Y238885D01*
X381210Y238893D01*
X381117Y239062D01*
X381025Y239231D01*
X381020Y239238D01*
X381015Y239246D01*
X380891Y239393D01*
X380768Y239540D01*
X380761Y239546D01*
X380755Y239553D01*
X380604Y239672D01*
X380454Y239793D01*
X380446Y239797D01*
X380439Y239802D01*
X380266Y239890D01*
X380097Y239978D01*
X380088Y239981D01*
X380080Y239985D01*
X379894Y240037D01*
X379710Y240089D01*
X379701Y240090D01*
X379692Y240093D01*
X379499Y240107D01*
X379308Y240122D01*
X379300Y240121D01*
X379291Y240122D01*
X379098Y240098D01*
X378909Y240075D01*
X378900Y240073D01*
X378891Y240072D01*
X378708Y240010D01*
X378526Y239951D01*
X378518Y239946D01*
X378510Y239943D01*
X378343Y239847D01*
X378175Y239753D01*
X378168Y239747D01*
X378161Y239742D01*
X377908Y239528D01*
X373723Y235343D01*
X371427Y235343D01*
X371400Y235341D01*
X371374Y235343D01*
X371200Y235321D01*
X371026Y235303D01*
X371001Y235296D01*
X370974Y235292D01*
X370809Y235237D01*
X370641Y235185D01*
X370618Y235172D01*
X370592Y235164D01*
X370441Y235077D01*
X370287Y234993D01*
X370267Y234976D01*
X370244Y234963D01*
X369991Y234748D01*
X369668Y234425D01*
X358020Y234425D01*
X357933Y234493D01*
X357798Y234603D01*
X357774Y234616D01*
X357753Y234632D01*
X357596Y234710D01*
X357442Y234792D01*
X357417Y234800D01*
X357393Y234812D01*
X357223Y234857D01*
X357056Y234907D01*
X357030Y234909D01*
X357004Y234916D01*
X356673Y234943D01*
X354156Y234943D01*
X354138Y234941D01*
X354120Y234943D01*
X353938Y234922D01*
X353755Y234903D01*
X353738Y234898D01*
X353721Y234896D01*
X353546Y234839D01*
X353370Y234785D01*
X353355Y234777D01*
X353338Y234771D01*
X353178Y234681D01*
X353016Y234593D01*
X353003Y234582D01*
X352987Y234573D01*
X352848Y234453D01*
X352707Y234336D01*
X352696Y234322D01*
X352682Y234310D01*
X352570Y234165D01*
X352455Y234022D01*
X352447Y234006D01*
X352436Y233992D01*
X352354Y233827D01*
X352269Y233665D01*
X352264Y233648D01*
X352256Y233632D01*
X352209Y233453D01*
X352158Y233278D01*
X352156Y233260D01*
X352152Y233243D01*
X352125Y232912D01*
X352125Y231368D01*
X351895Y231139D01*
X351843Y231075D01*
X351783Y231018D01*
X351715Y230919D01*
X351640Y230827D01*
X351601Y230754D01*
X351554Y230686D01*
X351507Y230577D01*
X351451Y230472D01*
X351428Y230392D01*
X351395Y230317D01*
X351370Y230200D01*
X351336Y230086D01*
X351329Y230003D01*
X351312Y229923D01*
X351311Y229803D01*
X351300Y229685D01*
X351309Y229602D01*
X351308Y229520D01*
X351331Y229403D01*
X351343Y229284D01*
X351368Y229206D01*
X351384Y229125D01*
X351429Y229014D01*
X351465Y228901D01*
X351505Y228828D01*
X351536Y228752D01*
X351602Y228653D01*
X351660Y228548D01*
X351713Y228485D01*
X351759Y228417D01*
X351843Y228332D01*
X351920Y228241D01*
X351985Y228190D01*
X352043Y228132D01*
X352102Y228091D01*
X352633Y227560D01*
X352968Y226981D01*
X353141Y226335D01*
X353141Y222749D01*
X344318Y222749D01*
X344300Y222747D01*
X344283Y222749D01*
X344100Y222728D01*
X343918Y222709D01*
X343901Y222704D01*
X343883Y222702D01*
X343708Y222645D01*
X343533Y222591D01*
X343517Y222583D01*
X343500Y222577D01*
X343340Y222487D01*
X343179Y222399D01*
X343165Y222388D01*
X343149Y222379D01*
X343097Y222334D01*
X342992Y222419D01*
X342976Y222427D01*
X342962Y222438D01*
X342797Y222520D01*
X342634Y222605D01*
X342617Y222610D01*
X342601Y222618D01*
X342423Y222665D01*
X342248Y222716D01*
X342230Y222718D01*
X342213Y222722D01*
X341882Y222749D01*
X333059Y222749D01*
X333059Y226335D01*
X333232Y226981D01*
X333567Y227560D01*
X334117Y228111D01*
X334211Y228178D01*
X334267Y228238D01*
X334330Y228291D01*
X334404Y228385D01*
X334485Y228472D01*
X334528Y228543D01*
X334580Y228607D01*
X334634Y228714D01*
X334696Y228815D01*
X334725Y228893D01*
X334762Y228966D01*
X334794Y229081D01*
X334835Y229193D01*
X334848Y229275D01*
X334870Y229354D01*
X334879Y229473D01*
X334897Y229591D01*
X334893Y229673D01*
X334899Y229756D01*
X334884Y229874D01*
X334879Y229993D01*
X334859Y230073D01*
X334849Y230155D01*
X334811Y230268D01*
X334782Y230384D01*
X334747Y230459D01*
X334721Y230537D01*
X334661Y230640D01*
X334610Y230748D01*
X334561Y230814D01*
X334520Y230886D01*
X334421Y231002D01*
X334370Y231071D01*
X334339Y231098D01*
X334305Y231139D01*
X334075Y231368D01*
X334075Y232912D01*
X334073Y232930D01*
X334075Y232948D01*
X334054Y233130D01*
X334035Y233313D01*
X334030Y233330D01*
X334028Y233347D01*
X333971Y233522D01*
X333917Y233698D01*
X333909Y233713D01*
X333903Y233730D01*
X333813Y233890D01*
X333725Y234052D01*
X333714Y234065D01*
X333705Y234081D01*
X333585Y234220D01*
X333468Y234361D01*
X333454Y234372D01*
X333442Y234386D01*
X333297Y234498D01*
X333154Y234613D01*
X333138Y234621D01*
X333124Y234632D01*
X332959Y234714D01*
X332797Y234799D01*
X332780Y234804D01*
X332764Y234812D01*
X332585Y234859D01*
X332410Y234910D01*
X332392Y234912D01*
X332375Y234916D01*
X332044Y234943D01*
X323027Y234943D01*
X312243Y245727D01*
X312243Y261744D01*
X312241Y261762D01*
X312243Y261780D01*
X312222Y261962D01*
X312203Y262145D01*
X312198Y262162D01*
X312196Y262179D01*
X312139Y262354D01*
X312085Y262530D01*
X312077Y262545D01*
X312071Y262562D01*
X311981Y262722D01*
X311893Y262884D01*
X311882Y262897D01*
X311873Y262913D01*
X311753Y263052D01*
X311636Y263193D01*
X311622Y263204D01*
X311610Y263218D01*
X311465Y263330D01*
X311322Y263445D01*
X311306Y263453D01*
X311292Y263464D01*
X311127Y263546D01*
X310965Y263631D01*
X310948Y263636D01*
X310932Y263644D01*
X310753Y263691D01*
X310578Y263742D01*
X310560Y263744D01*
X310543Y263748D01*
X310212Y263775D01*
X307668Y263775D01*
X306775Y264668D01*
X306775Y264841D01*
X306774Y264850D01*
X306775Y264859D01*
X306754Y265053D01*
X306735Y265242D01*
X306733Y265250D01*
X306732Y265259D01*
X306674Y265443D01*
X306617Y265627D01*
X306613Y265635D01*
X306610Y265643D01*
X306518Y265811D01*
X306425Y265981D01*
X306420Y265988D01*
X306415Y265996D01*
X306291Y266143D01*
X306168Y266290D01*
X306161Y266296D01*
X306155Y266303D01*
X306003Y266422D01*
X305854Y266543D01*
X305846Y266547D01*
X305839Y266552D01*
X305666Y266640D01*
X305497Y266728D01*
X305488Y266731D01*
X305480Y266735D01*
X305294Y266787D01*
X305110Y266839D01*
X305101Y266840D01*
X305092Y266843D01*
X304899Y266857D01*
X304708Y266872D01*
X304700Y266871D01*
X304691Y266872D01*
X304498Y266848D01*
X304309Y266825D01*
X304300Y266823D01*
X304291Y266822D01*
X304108Y266760D01*
X303926Y266701D01*
X303918Y266696D01*
X303910Y266693D01*
X303743Y266597D01*
X303575Y266503D01*
X303568Y266497D01*
X303561Y266492D01*
X303308Y266278D01*
X295521Y258491D01*
X289656Y258491D01*
X289638Y258489D01*
X289620Y258491D01*
X289438Y258470D01*
X289255Y258451D01*
X289238Y258446D01*
X289221Y258444D01*
X289046Y258387D01*
X288870Y258333D01*
X288855Y258325D01*
X288838Y258319D01*
X288678Y258229D01*
X288516Y258141D01*
X288503Y258130D01*
X288487Y258121D01*
X288348Y258001D01*
X288207Y257884D01*
X288196Y257870D01*
X288182Y257858D01*
X288070Y257713D01*
X287955Y257570D01*
X287947Y257554D01*
X287936Y257540D01*
X287854Y257375D01*
X287769Y257213D01*
X287764Y257196D01*
X287756Y257180D01*
X287709Y257001D01*
X287658Y256826D01*
X287656Y256808D01*
X287652Y256791D01*
X287625Y256460D01*
X287625Y255376D01*
X286732Y254483D01*
X273388Y254483D01*
X272495Y255376D01*
X272495Y268720D01*
X273388Y269613D01*
X286732Y269613D01*
X287625Y268720D01*
X287625Y267636D01*
X287627Y267618D01*
X287625Y267600D01*
X287646Y267418D01*
X287665Y267235D01*
X287670Y267218D01*
X287672Y267201D01*
X287729Y267026D01*
X287783Y266850D01*
X287791Y266835D01*
X287797Y266818D01*
X287887Y266658D01*
X287975Y266496D01*
X287986Y266483D01*
X287995Y266467D01*
X288115Y266328D01*
X288232Y266187D01*
X288246Y266176D01*
X288258Y266162D01*
X288403Y266050D01*
X288546Y265935D01*
X288562Y265927D01*
X288576Y265916D01*
X288741Y265834D01*
X288903Y265749D01*
X288920Y265744D01*
X288936Y265736D01*
X289115Y265689D01*
X289290Y265638D01*
X289308Y265636D01*
X289325Y265632D01*
X289656Y265605D01*
X291733Y265605D01*
X291760Y265607D01*
X291787Y265605D01*
X291961Y265627D01*
X292134Y265645D01*
X292159Y265652D01*
X292186Y265656D01*
X292352Y265711D01*
X292519Y265763D01*
X292542Y265776D01*
X292568Y265784D01*
X292719Y265871D01*
X292873Y265955D01*
X292893Y265972D01*
X292917Y265985D01*
X293170Y266200D01*
X302327Y275357D01*
X304744Y275357D01*
X304762Y275359D01*
X304780Y275357D01*
X304962Y275378D01*
X305145Y275397D01*
X305162Y275402D01*
X305179Y275404D01*
X305354Y275461D01*
X305530Y275515D01*
X305545Y275523D01*
X305562Y275529D01*
X305722Y275619D01*
X305884Y275707D01*
X305897Y275718D01*
X305913Y275727D01*
X306052Y275847D01*
X306193Y275964D01*
X306204Y275978D01*
X306218Y275990D01*
X306330Y276135D01*
X306445Y276278D01*
X306453Y276294D01*
X306464Y276308D01*
X306546Y276473D01*
X306631Y276635D01*
X306636Y276652D01*
X306644Y276668D01*
X306691Y276847D01*
X306742Y277022D01*
X306744Y277040D01*
X306748Y277057D01*
X306775Y277388D01*
X306775Y278932D01*
X307707Y279864D01*
X307719Y279878D01*
X307732Y279889D01*
X307846Y280033D01*
X307962Y280175D01*
X307971Y280191D01*
X307982Y280205D01*
X308065Y280369D01*
X308151Y280531D01*
X308156Y280548D01*
X308164Y280564D01*
X308214Y280741D01*
X308266Y280917D01*
X308267Y280935D01*
X308272Y280952D01*
X308286Y281135D01*
X308302Y281318D01*
X308300Y281336D01*
X308302Y281353D01*
X308279Y281535D01*
X308259Y281718D01*
X308253Y281735D01*
X308251Y281753D01*
X308193Y281927D01*
X308137Y282102D01*
X308129Y282118D01*
X308123Y282134D01*
X308031Y282293D01*
X307943Y282454D01*
X307931Y282468D01*
X307922Y282483D01*
X307707Y282736D01*
X306775Y283668D01*
X306775Y297932D01*
X307668Y298825D01*
X309241Y298825D01*
X309250Y298826D01*
X309259Y298825D01*
X309451Y298846D01*
X309642Y298865D01*
X309651Y298867D01*
X309659Y298868D01*
X309842Y298926D01*
X310027Y298983D01*
X310035Y298987D01*
X310043Y298990D01*
X310212Y299083D01*
X310381Y299175D01*
X310388Y299180D01*
X310396Y299185D01*
X310543Y299310D01*
X310690Y299432D01*
X310696Y299439D01*
X310703Y299445D01*
X310823Y299597D01*
X310943Y299746D01*
X310947Y299754D01*
X310952Y299761D01*
X311040Y299933D01*
X311128Y300103D01*
X311131Y300112D01*
X311135Y300120D01*
X311186Y300306D01*
X311239Y300490D01*
X311240Y300499D01*
X311243Y300508D01*
X311257Y300700D01*
X311272Y300892D01*
X311271Y300900D01*
X311272Y300909D01*
X311248Y301102D01*
X311225Y301291D01*
X311223Y301300D01*
X311222Y301309D01*
X311160Y301492D01*
X311101Y301674D01*
X311096Y301682D01*
X311093Y301690D01*
X310998Y301856D01*
X310903Y302025D01*
X310897Y302032D01*
X310892Y302039D01*
X310678Y302292D01*
X309443Y303527D01*
X309443Y305944D01*
X309441Y305962D01*
X309443Y305980D01*
X309422Y306162D01*
X309403Y306345D01*
X309398Y306362D01*
X309396Y306379D01*
X309339Y306554D01*
X309285Y306730D01*
X309277Y306745D01*
X309271Y306762D01*
X309181Y306922D01*
X309093Y307084D01*
X309082Y307097D01*
X309073Y307113D01*
X308953Y307252D01*
X308836Y307393D01*
X308822Y307404D01*
X308810Y307418D01*
X308665Y307530D01*
X308522Y307645D01*
X308506Y307653D01*
X308492Y307664D01*
X308327Y307746D01*
X308165Y307831D01*
X308148Y307836D01*
X308132Y307844D01*
X307953Y307891D01*
X307778Y307942D01*
X307760Y307944D01*
X307743Y307948D01*
X307412Y307975D01*
X307397Y307975D01*
X305625Y309747D01*
X305625Y313691D01*
X305624Y313700D01*
X305625Y313709D01*
X305605Y313898D01*
X305585Y314092D01*
X305583Y314101D01*
X305582Y314109D01*
X305524Y314291D01*
X305467Y314477D01*
X305463Y314485D01*
X305460Y314493D01*
X305367Y314662D01*
X305275Y314831D01*
X305270Y314838D01*
X305265Y314846D01*
X305141Y314993D01*
X305018Y315140D01*
X305011Y315146D01*
X305005Y315153D01*
X304854Y315272D01*
X304704Y315393D01*
X304696Y315397D01*
X304689Y315402D01*
X304516Y315490D01*
X304347Y315578D01*
X304338Y315581D01*
X304330Y315585D01*
X304144Y315637D01*
X303960Y315689D01*
X303951Y315690D01*
X303942Y315693D01*
X303749Y315707D01*
X303558Y315722D01*
X303550Y315721D01*
X303541Y315722D01*
X303348Y315698D01*
X303159Y315675D01*
X303150Y315673D01*
X303141Y315672D01*
X302958Y315610D01*
X302776Y315551D01*
X302768Y315546D01*
X302760Y315543D01*
X302593Y315447D01*
X302425Y315353D01*
X302418Y315347D01*
X302411Y315342D01*
X302158Y315128D01*
X297473Y310443D01*
X289315Y310443D01*
X289288Y310441D01*
X289261Y310443D01*
X289087Y310421D01*
X288914Y310403D01*
X288889Y310396D01*
X288862Y310392D01*
X288696Y310337D01*
X288529Y310285D01*
X288506Y310272D01*
X288480Y310264D01*
X288329Y310177D01*
X288175Y310093D01*
X288155Y310076D01*
X288131Y310063D01*
X287878Y309848D01*
X260152Y282122D01*
X260135Y282101D01*
X260114Y282083D01*
X260007Y281946D01*
X259897Y281810D01*
X259884Y281787D01*
X259868Y281765D01*
X259790Y281608D01*
X259708Y281454D01*
X259700Y281429D01*
X259688Y281405D01*
X259643Y281235D01*
X259593Y281069D01*
X259591Y281042D01*
X259584Y281016D01*
X259557Y280685D01*
X259557Y249315D01*
X259559Y249288D01*
X259557Y249261D01*
X259579Y249087D01*
X259597Y248914D01*
X259604Y248889D01*
X259608Y248862D01*
X259663Y248696D01*
X259715Y248529D01*
X259728Y248506D01*
X259736Y248480D01*
X259823Y248329D01*
X259907Y248175D01*
X259924Y248155D01*
X259937Y248131D01*
X260152Y247878D01*
X261830Y246200D01*
X261851Y246183D01*
X261869Y246162D01*
X262006Y246055D01*
X262142Y245945D01*
X262165Y245932D01*
X262187Y245916D01*
X262344Y245838D01*
X262498Y245756D01*
X262523Y245748D01*
X262547Y245736D01*
X262717Y245691D01*
X262883Y245641D01*
X262910Y245639D01*
X262936Y245632D01*
X263267Y245605D01*
X272077Y245605D01*
X272104Y245607D01*
X272131Y245605D01*
X272305Y245627D01*
X272478Y245645D01*
X272503Y245652D01*
X272530Y245656D01*
X272696Y245712D01*
X272863Y245763D01*
X272886Y245776D01*
X272912Y245784D01*
X273063Y245871D01*
X273217Y245955D01*
X273237Y245972D01*
X273261Y245985D01*
X273514Y246200D01*
X275775Y248461D01*
X278555Y249613D01*
X281565Y249613D01*
X284345Y248461D01*
X286473Y246333D01*
X287625Y243553D01*
X287625Y240543D01*
X286473Y237763D01*
X284345Y235635D01*
X281565Y234483D01*
X278555Y234483D01*
X275775Y235635D01*
X273514Y237896D01*
X273493Y237913D01*
X273475Y237934D01*
X273337Y238041D01*
X273202Y238151D01*
X273178Y238164D01*
X273157Y238180D01*
X273001Y238258D01*
X272846Y238340D01*
X272821Y238348D01*
X272797Y238360D01*
X272628Y238405D01*
X272460Y238455D01*
X272434Y238457D01*
X272408Y238464D01*
X272077Y238491D01*
X259479Y238491D01*
X252443Y245527D01*
X252443Y284473D01*
X282298Y314328D01*
X282303Y314335D01*
X282310Y314340D01*
X282431Y314490D01*
X282553Y314639D01*
X282557Y314647D01*
X282563Y314654D01*
X282651Y314825D01*
X282741Y314995D01*
X282744Y315003D01*
X282748Y315011D01*
X282801Y315197D01*
X282856Y315381D01*
X282857Y315390D01*
X282859Y315398D01*
X282875Y315590D01*
X282893Y315782D01*
X282892Y315791D01*
X282892Y315800D01*
X282870Y315989D01*
X282849Y316182D01*
X282846Y316191D01*
X282845Y316199D01*
X282786Y316381D01*
X282728Y316566D01*
X282723Y316574D01*
X282721Y316582D01*
X282626Y316751D01*
X282533Y316918D01*
X282527Y316925D01*
X282523Y316933D01*
X282397Y317079D01*
X282272Y317225D01*
X282265Y317231D01*
X282260Y317238D01*
X282108Y317355D01*
X281956Y317475D01*
X281948Y317479D01*
X281941Y317484D01*
X281769Y317570D01*
X281598Y317657D01*
X281589Y317660D01*
X281581Y317664D01*
X281394Y317714D01*
X281210Y317765D01*
X281201Y317766D01*
X281192Y317768D01*
X280861Y317795D01*
X278555Y317795D01*
X275775Y318947D01*
X273647Y321075D01*
X272495Y323855D01*
X272495Y326865D01*
X273647Y329645D01*
X275775Y331773D01*
X278555Y332925D01*
X281565Y332925D01*
X284345Y331773D01*
X286606Y329512D01*
X286627Y329495D01*
X286645Y329474D01*
X286783Y329367D01*
X286918Y329257D01*
X286942Y329244D01*
X286963Y329228D01*
X287120Y329150D01*
X287274Y329068D01*
X287299Y329060D01*
X287323Y329048D01*
X287493Y329003D01*
X287660Y328953D01*
X287686Y328951D01*
X287712Y328944D01*
X288043Y328917D01*
X289045Y328917D01*
X289072Y328919D01*
X289099Y328917D01*
X289273Y328939D01*
X289446Y328957D01*
X289471Y328964D01*
X289498Y328968D01*
X289664Y329023D01*
X289831Y329075D01*
X289854Y329088D01*
X289880Y329096D01*
X290031Y329183D01*
X290185Y329267D01*
X290205Y329284D01*
X290229Y329297D01*
X290482Y329512D01*
X294848Y333878D01*
X294865Y333899D01*
X294886Y333917D01*
X294993Y334054D01*
X295103Y334190D01*
X295116Y334213D01*
X295132Y334235D01*
X295210Y334392D01*
X295292Y334546D01*
X295300Y334571D01*
X295312Y334595D01*
X295357Y334765D01*
X295407Y334931D01*
X295409Y334958D01*
X295416Y334984D01*
X295443Y335315D01*
X295443Y352095D01*
X295978Y352630D01*
X295992Y352647D01*
X296009Y352661D01*
X296119Y352803D01*
X296233Y352941D01*
X296243Y352961D01*
X296257Y352978D01*
X296338Y353139D01*
X296421Y353297D01*
X296428Y353318D01*
X296438Y353338D01*
X296485Y353510D01*
X296536Y353683D01*
X296538Y353705D01*
X296544Y353727D01*
X296556Y353905D01*
X296573Y354084D01*
X296570Y354106D01*
X296572Y354128D01*
X296548Y354306D01*
X296529Y354484D01*
X296522Y354505D01*
X296520Y354527D01*
X296418Y354843D01*
X295413Y357269D01*
X295413Y362351D01*
X297358Y367046D01*
X300952Y370640D01*
X304175Y371975D01*
X305647Y372585D01*
X310729Y372585D01*
X315424Y370640D01*
X319018Y367046D01*
X320963Y362351D01*
X320963Y357269D01*
X319018Y352574D01*
X315424Y348980D01*
X310729Y347035D01*
X305647Y347035D01*
X305365Y347152D01*
X305352Y347156D01*
X305341Y347162D01*
X305160Y347214D01*
X304980Y347268D01*
X304967Y347270D01*
X304954Y347273D01*
X304765Y347289D01*
X304579Y347307D01*
X304566Y347305D01*
X304552Y347306D01*
X304366Y347284D01*
X304179Y347265D01*
X304166Y347261D01*
X304153Y347259D01*
X303975Y347201D01*
X303794Y347145D01*
X303783Y347139D01*
X303770Y347134D01*
X303606Y347042D01*
X303441Y346952D01*
X303431Y346943D01*
X303419Y346937D01*
X303277Y346814D01*
X303133Y346693D01*
X303125Y346682D01*
X303114Y346673D01*
X303000Y346526D01*
X302882Y346378D01*
X302876Y346366D01*
X302868Y346355D01*
X302784Y346188D01*
X302698Y346020D01*
X302694Y346007D01*
X302688Y345995D01*
X302639Y345812D01*
X302588Y345632D01*
X302587Y345619D01*
X302584Y345606D01*
X302557Y345275D01*
X302557Y336088D01*
X302558Y336079D01*
X302557Y336070D01*
X302578Y335879D01*
X302597Y335688D01*
X302599Y335679D01*
X302600Y335670D01*
X302658Y335486D01*
X302715Y335303D01*
X302719Y335295D01*
X302722Y335286D01*
X302815Y335118D01*
X302907Y334949D01*
X302912Y334942D01*
X302917Y334934D01*
X303042Y334786D01*
X303164Y334639D01*
X303171Y334634D01*
X303177Y334627D01*
X303329Y334507D01*
X303478Y334387D01*
X303486Y334383D01*
X303493Y334377D01*
X303665Y334290D01*
X303835Y334202D01*
X303844Y334199D01*
X303852Y334195D01*
X304038Y334143D01*
X304222Y334090D01*
X304231Y334089D01*
X304240Y334087D01*
X304432Y334073D01*
X304624Y334057D01*
X304632Y334058D01*
X304641Y334058D01*
X304834Y334082D01*
X305023Y334104D01*
X305032Y334107D01*
X305041Y334108D01*
X305224Y334169D01*
X305406Y334229D01*
X305414Y334233D01*
X305422Y334236D01*
X305588Y334332D01*
X305757Y334427D01*
X305764Y334433D01*
X305771Y334437D01*
X306024Y334652D01*
X307397Y336025D01*
X319103Y336025D01*
X320875Y334253D01*
X320875Y328674D01*
X320798Y328527D01*
X320708Y328357D01*
X320706Y328349D01*
X320702Y328341D01*
X320648Y328155D01*
X320593Y327971D01*
X320593Y327962D01*
X320590Y327954D01*
X320574Y327762D01*
X320557Y327570D01*
X320558Y327561D01*
X320557Y327552D01*
X320580Y327362D01*
X320600Y327170D01*
X320603Y327162D01*
X320604Y327153D01*
X320664Y326970D01*
X320722Y326786D01*
X320726Y326778D01*
X320729Y326770D01*
X320823Y326603D01*
X320917Y326434D01*
X320923Y326427D01*
X320927Y326419D01*
X321052Y326274D01*
X321177Y326127D01*
X321184Y326121D01*
X321190Y326114D01*
X321341Y325997D01*
X321493Y325877D01*
X321501Y325873D01*
X321508Y325868D01*
X321680Y325782D01*
X321852Y325695D01*
X321861Y325692D01*
X321869Y325688D01*
X322056Y325638D01*
X322240Y325587D01*
X322249Y325586D01*
X322257Y325584D01*
X322588Y325557D01*
X323473Y325557D01*
X329588Y319442D01*
X329597Y319359D01*
X329601Y319346D01*
X329602Y319333D01*
X329659Y319154D01*
X329715Y318974D01*
X329721Y318962D01*
X329725Y318950D01*
X329817Y318785D01*
X329907Y318620D01*
X329915Y318610D01*
X329922Y318598D01*
X330044Y318455D01*
X330164Y318311D01*
X330175Y318302D01*
X330183Y318292D01*
X330332Y318176D01*
X330478Y318058D01*
X330490Y318052D01*
X330500Y318044D01*
X330669Y317959D01*
X330835Y317873D01*
X330848Y317869D01*
X330860Y317863D01*
X331042Y317814D01*
X331222Y317762D01*
X331236Y317760D01*
X331249Y317757D01*
X331437Y317744D01*
X331624Y317729D01*
X331637Y317730D01*
X331650Y317729D01*
X331838Y317754D01*
X332023Y317776D01*
X332036Y317780D01*
X332049Y317781D01*
X332365Y317883D01*
X332371Y317885D01*
X333152Y318041D01*
X336119Y318041D01*
X336119Y312500D01*
X336119Y306959D01*
X333152Y306959D01*
X332371Y307115D01*
X332365Y307117D01*
X332352Y307121D01*
X332341Y307127D01*
X332160Y307179D01*
X331980Y307234D01*
X331967Y307235D01*
X331954Y307238D01*
X331766Y307254D01*
X331579Y307272D01*
X331566Y307270D01*
X331552Y307271D01*
X331365Y307249D01*
X331179Y307230D01*
X331166Y307226D01*
X331153Y307224D01*
X330973Y307166D01*
X330794Y307110D01*
X330783Y307104D01*
X330770Y307100D01*
X330605Y307007D01*
X330441Y306917D01*
X330431Y306908D01*
X330419Y306902D01*
X330277Y306779D01*
X330133Y306658D01*
X330125Y306647D01*
X330114Y306639D01*
X329999Y306490D01*
X329882Y306343D01*
X329876Y306331D01*
X329868Y306320D01*
X329784Y306152D01*
X329698Y305985D01*
X329694Y305972D01*
X329688Y305960D01*
X329639Y305777D01*
X329588Y305597D01*
X329587Y305584D01*
X329584Y305571D01*
X329557Y305240D01*
X329557Y303315D01*
X329559Y303288D01*
X329557Y303261D01*
X329579Y303087D01*
X329597Y302914D01*
X329604Y302889D01*
X329608Y302862D01*
X329663Y302696D01*
X329715Y302529D01*
X329728Y302506D01*
X329736Y302480D01*
X329823Y302329D01*
X329907Y302175D01*
X329924Y302155D01*
X329937Y302131D01*
X330152Y301878D01*
X332610Y299420D01*
X332631Y299403D01*
X332649Y299382D01*
X332786Y299275D01*
X332922Y299165D01*
X332945Y299152D01*
X332967Y299136D01*
X333124Y299058D01*
X333278Y298976D01*
X333303Y298968D01*
X333327Y298956D01*
X333497Y298911D01*
X333663Y298861D01*
X333690Y298859D01*
X333716Y298852D01*
X334047Y298825D01*
X345432Y298825D01*
X346325Y297932D01*
X346325Y283668D01*
X345393Y282736D01*
X345381Y282723D01*
X345368Y282711D01*
X345253Y282566D01*
X345138Y282425D01*
X345129Y282409D01*
X345118Y282395D01*
X345035Y282231D01*
X344949Y282069D01*
X344944Y282052D01*
X344936Y282036D01*
X344886Y281859D01*
X344834Y281683D01*
X344833Y281665D01*
X344828Y281648D01*
X344814Y281465D01*
X344798Y281282D01*
X344800Y281264D01*
X344798Y281247D01*
X344821Y281065D01*
X344841Y280882D01*
X344847Y280865D01*
X344849Y280847D01*
X344907Y280674D01*
X344963Y280498D01*
X344971Y280482D01*
X344977Y280466D01*
X345068Y280307D01*
X345157Y280146D01*
X345169Y280132D01*
X345178Y280117D01*
X345393Y279864D01*
X346325Y278932D01*
X346325Y264668D01*
X345432Y263775D01*
X329168Y263775D01*
X327986Y264957D01*
X327972Y264969D01*
X327961Y264982D01*
X327817Y265096D01*
X327675Y265212D01*
X327659Y265221D01*
X327645Y265232D01*
X327481Y265315D01*
X327319Y265401D01*
X327302Y265406D01*
X327286Y265414D01*
X327109Y265464D01*
X326933Y265516D01*
X326915Y265517D01*
X326898Y265522D01*
X326715Y265536D01*
X326532Y265552D01*
X326514Y265550D01*
X326497Y265552D01*
X326315Y265529D01*
X326132Y265509D01*
X326115Y265503D01*
X326097Y265501D01*
X325923Y265443D01*
X325748Y265387D01*
X325732Y265379D01*
X325716Y265373D01*
X325557Y265281D01*
X325396Y265193D01*
X325382Y265181D01*
X325367Y265172D01*
X325114Y264957D01*
X323932Y263775D01*
X321388Y263775D01*
X321370Y263773D01*
X321352Y263775D01*
X321170Y263754D01*
X320987Y263735D01*
X320970Y263730D01*
X320953Y263728D01*
X320778Y263671D01*
X320602Y263617D01*
X320587Y263609D01*
X320570Y263603D01*
X320410Y263513D01*
X320248Y263425D01*
X320235Y263414D01*
X320219Y263405D01*
X320080Y263285D01*
X319939Y263168D01*
X319928Y263154D01*
X319914Y263142D01*
X319802Y262997D01*
X319687Y262854D01*
X319679Y262838D01*
X319668Y262824D01*
X319586Y262659D01*
X319501Y262497D01*
X319496Y262480D01*
X319488Y262464D01*
X319441Y262285D01*
X319390Y262110D01*
X319388Y262092D01*
X319384Y262075D01*
X319357Y261744D01*
X319357Y249515D01*
X319359Y249488D01*
X319357Y249461D01*
X319379Y249287D01*
X319397Y249114D01*
X319404Y249089D01*
X319408Y249062D01*
X319463Y248896D01*
X319515Y248729D01*
X319528Y248706D01*
X319536Y248680D01*
X319623Y248529D01*
X319707Y248375D01*
X319724Y248355D01*
X319737Y248331D01*
X319952Y248078D01*
X325378Y242652D01*
X325399Y242635D01*
X325417Y242614D01*
X325554Y242507D01*
X325690Y242397D01*
X325713Y242384D01*
X325735Y242368D01*
X325892Y242290D01*
X326046Y242208D01*
X326071Y242200D01*
X326095Y242188D01*
X326265Y242143D01*
X326431Y242093D01*
X326458Y242091D01*
X326484Y242084D01*
X326815Y242057D01*
X332044Y242057D01*
X332062Y242059D01*
X332080Y242057D01*
X332262Y242078D01*
X332445Y242097D01*
X332462Y242102D01*
X332479Y242104D01*
X332654Y242161D01*
X332830Y242215D01*
X332845Y242223D01*
X332862Y242229D01*
X333022Y242319D01*
X333184Y242407D01*
X333197Y242418D01*
X333213Y242427D01*
X333352Y242547D01*
X333493Y242664D01*
X333504Y242678D01*
X333518Y242690D01*
X333630Y242835D01*
X333745Y242978D01*
X333753Y242994D01*
X333764Y243008D01*
X333846Y243173D01*
X333931Y243335D01*
X333936Y243352D01*
X333944Y243368D01*
X333991Y243546D01*
X334042Y243722D01*
X334044Y243740D01*
X334048Y243757D01*
X334075Y244088D01*
X334075Y245632D01*
X334968Y246525D01*
X351232Y246525D01*
X351792Y245965D01*
X351799Y245959D01*
X351804Y245952D01*
X351954Y245832D01*
X352103Y245710D01*
X352111Y245705D01*
X352118Y245700D01*
X352288Y245611D01*
X352459Y245521D01*
X352468Y245518D01*
X352475Y245514D01*
X352660Y245461D01*
X352845Y245406D01*
X352854Y245405D01*
X352862Y245403D01*
X353053Y245387D01*
X353246Y245370D01*
X353255Y245371D01*
X353264Y245370D01*
X353453Y245392D01*
X353646Y245413D01*
X353655Y245416D01*
X353663Y245417D01*
X353845Y245476D01*
X354030Y245535D01*
X354038Y245539D01*
X354046Y245542D01*
X354213Y245636D01*
X354382Y245729D01*
X354389Y245735D01*
X354397Y245740D01*
X354542Y245865D01*
X354689Y245990D01*
X354695Y245997D01*
X354702Y246003D01*
X354818Y246153D01*
X354939Y246306D01*
X354943Y246314D01*
X354948Y246321D01*
X354972Y246369D01*
X363850Y246369D01*
X363867Y246370D01*
X363885Y246369D01*
X364068Y246390D01*
X364250Y246408D01*
X364267Y246414D01*
X364285Y246416D01*
X364460Y246473D01*
X364635Y246527D01*
X364651Y246535D01*
X364668Y246541D01*
X364828Y246631D01*
X364989Y246718D01*
X365003Y246730D01*
X365018Y246739D01*
X365158Y246859D01*
X365298Y246976D01*
X365310Y246990D01*
X365323Y247002D01*
X365436Y247147D01*
X365551Y247290D01*
X365559Y247306D01*
X365570Y247320D01*
X365652Y247485D01*
X365736Y247647D01*
X365741Y247664D01*
X365749Y247680D01*
X365797Y247858D01*
X365848Y248034D01*
X365849Y248052D01*
X365854Y248069D01*
X365881Y248400D01*
X365879Y248418D01*
X365881Y248435D01*
X365881Y248436D01*
X365859Y248618D01*
X365841Y248801D01*
X365836Y248818D01*
X365834Y248836D01*
X365777Y249010D01*
X365723Y249186D01*
X365714Y249201D01*
X365709Y249218D01*
X365618Y249379D01*
X365531Y249540D01*
X365520Y249553D01*
X365511Y249569D01*
X365391Y249708D01*
X365273Y249849D01*
X365259Y249860D01*
X365248Y249874D01*
X365103Y249986D01*
X364960Y250101D01*
X364944Y250110D01*
X364930Y250120D01*
X364765Y250202D01*
X364602Y250287D01*
X364585Y250292D01*
X364569Y250300D01*
X364391Y250348D01*
X364215Y250398D01*
X364198Y250400D01*
X364180Y250404D01*
X363850Y250431D01*
X355291Y250431D01*
X355414Y251046D01*
X355716Y251777D01*
X356158Y252438D01*
X356164Y252446D01*
X356178Y252458D01*
X356292Y252602D01*
X356408Y252743D01*
X356416Y252759D01*
X356428Y252773D01*
X356511Y252937D01*
X356597Y253099D01*
X356602Y253116D01*
X356610Y253132D01*
X356659Y253309D01*
X356711Y253485D01*
X356713Y253503D01*
X356718Y253520D01*
X356731Y253703D01*
X356748Y253886D01*
X356746Y253904D01*
X356747Y253922D01*
X356724Y254104D01*
X356705Y254286D01*
X356699Y254303D01*
X356697Y254321D01*
X356638Y254495D01*
X356583Y254670D01*
X356574Y254686D01*
X356569Y254703D01*
X356477Y254862D01*
X356388Y255022D01*
X356377Y255036D01*
X356368Y255052D01*
X356275Y255161D01*
X356275Y260618D01*
X358032Y262375D01*
X361012Y262375D01*
X361030Y262377D01*
X361048Y262375D01*
X361230Y262396D01*
X361413Y262415D01*
X361430Y262420D01*
X361447Y262422D01*
X361622Y262479D01*
X361798Y262533D01*
X361813Y262541D01*
X361830Y262547D01*
X361990Y262637D01*
X362152Y262725D01*
X362165Y262736D01*
X362181Y262745D01*
X362320Y262865D01*
X362461Y262982D01*
X362472Y262996D01*
X362486Y263008D01*
X362598Y263153D01*
X362713Y263296D01*
X362721Y263312D01*
X362732Y263326D01*
X362814Y263491D01*
X362899Y263653D01*
X362904Y263670D01*
X362912Y263686D01*
X362959Y263865D01*
X363010Y264040D01*
X363012Y264058D01*
X363016Y264075D01*
X363043Y264406D01*
X363043Y268144D01*
X363041Y268162D01*
X363043Y268180D01*
X363022Y268362D01*
X363003Y268545D01*
X362998Y268562D01*
X362996Y268579D01*
X362939Y268754D01*
X362885Y268930D01*
X362877Y268945D01*
X362871Y268962D01*
X362781Y269122D01*
X362693Y269284D01*
X362682Y269297D01*
X362673Y269313D01*
X362553Y269452D01*
X362436Y269593D01*
X362422Y269604D01*
X362410Y269618D01*
X362265Y269730D01*
X362122Y269845D01*
X362106Y269853D01*
X362092Y269864D01*
X361927Y269946D01*
X361765Y270031D01*
X361748Y270036D01*
X361732Y270044D01*
X361553Y270091D01*
X361378Y270142D01*
X361360Y270144D01*
X361343Y270148D01*
X361012Y270175D01*
X358468Y270175D01*
X357575Y271068D01*
X357575Y285332D01*
X358507Y286264D01*
X358519Y286277D01*
X358532Y286289D01*
X358647Y286434D01*
X358762Y286575D01*
X358771Y286591D01*
X358782Y286605D01*
X358865Y286769D01*
X358951Y286931D01*
X358956Y286948D01*
X358964Y286964D01*
X359014Y287141D01*
X359066Y287317D01*
X359067Y287335D01*
X359072Y287352D01*
X359086Y287535D01*
X359102Y287718D01*
X359100Y287736D01*
X359102Y287753D01*
X359079Y287935D01*
X359059Y288118D01*
X359053Y288135D01*
X359051Y288153D01*
X358993Y288326D01*
X358937Y288502D01*
X358929Y288518D01*
X358923Y288534D01*
X358832Y288693D01*
X358743Y288854D01*
X358731Y288868D01*
X358722Y288883D01*
X358507Y289136D01*
X357575Y290068D01*
X357575Y304332D01*
X358468Y305225D01*
X360912Y305225D01*
X360930Y305227D01*
X360948Y305225D01*
X361130Y305246D01*
X361313Y305265D01*
X361330Y305270D01*
X361347Y305272D01*
X361522Y305329D01*
X361698Y305383D01*
X361713Y305391D01*
X361730Y305397D01*
X361890Y305487D01*
X362052Y305575D01*
X362065Y305586D01*
X362081Y305595D01*
X362220Y305715D01*
X362361Y305832D01*
X362372Y305846D01*
X362386Y305858D01*
X362498Y306003D01*
X362613Y306146D01*
X362621Y306162D01*
X362632Y306176D01*
X362714Y306341D01*
X362799Y306503D01*
X362804Y306520D01*
X362812Y306536D01*
X362859Y306715D01*
X362910Y306890D01*
X362912Y306908D01*
X362916Y306925D01*
X362943Y307256D01*
X362943Y315044D01*
X362941Y315062D01*
X362943Y315080D01*
X362922Y315262D01*
X362903Y315445D01*
X362898Y315462D01*
X362896Y315479D01*
X362839Y315654D01*
X362785Y315830D01*
X362777Y315845D01*
X362771Y315862D01*
X362681Y316022D01*
X362593Y316184D01*
X362582Y316197D01*
X362573Y316213D01*
X362453Y316352D01*
X362336Y316493D01*
X362322Y316504D01*
X362310Y316518D01*
X362165Y316630D01*
X362022Y316745D01*
X362006Y316753D01*
X361992Y316764D01*
X361827Y316846D01*
X361665Y316931D01*
X361648Y316936D01*
X361632Y316944D01*
X361453Y316991D01*
X361278Y317042D01*
X361260Y317044D01*
X361243Y317048D01*
X360912Y317075D01*
X359868Y317075D01*
X358975Y317968D01*
X358975Y331232D01*
X359868Y332125D01*
X373132Y332125D01*
X374025Y331232D01*
X374025Y317968D01*
X373132Y317075D01*
X372088Y317075D01*
X372070Y317073D01*
X372052Y317075D01*
X371870Y317054D01*
X371687Y317035D01*
X371670Y317030D01*
X371653Y317028D01*
X371478Y316971D01*
X371302Y316917D01*
X371287Y316909D01*
X371270Y316903D01*
X371110Y316813D01*
X370948Y316725D01*
X370935Y316714D01*
X370919Y316705D01*
X370780Y316585D01*
X370639Y316468D01*
X370628Y316454D01*
X370614Y316442D01*
X370502Y316297D01*
X370387Y316154D01*
X370379Y316138D01*
X370368Y316124D01*
X370286Y315959D01*
X370201Y315797D01*
X370196Y315780D01*
X370188Y315764D01*
X370141Y315585D01*
X370090Y315410D01*
X370088Y315392D01*
X370084Y315375D01*
X370057Y315044D01*
X370057Y307256D01*
X370059Y307238D01*
X370057Y307220D01*
X370078Y307038D01*
X370097Y306855D01*
X370102Y306838D01*
X370104Y306821D01*
X370161Y306646D01*
X370215Y306470D01*
X370223Y306455D01*
X370229Y306438D01*
X370319Y306278D01*
X370407Y306116D01*
X370418Y306103D01*
X370427Y306087D01*
X370547Y305948D01*
X370664Y305807D01*
X370678Y305796D01*
X370690Y305782D01*
X370835Y305670D01*
X370978Y305555D01*
X370994Y305547D01*
X371008Y305536D01*
X371173Y305454D01*
X371335Y305369D01*
X371352Y305364D01*
X371368Y305356D01*
X371547Y305309D01*
X371722Y305258D01*
X371740Y305256D01*
X371757Y305252D01*
X372088Y305225D01*
X374732Y305225D01*
X375542Y304415D01*
X375605Y304363D01*
X375662Y304303D01*
X375761Y304235D01*
X375853Y304160D01*
X375926Y304121D01*
X375993Y304074D01*
X376103Y304027D01*
X376209Y303971D01*
X376287Y303948D01*
X376363Y303915D01*
X376480Y303890D01*
X376595Y303856D01*
X376677Y303849D01*
X376757Y303832D01*
X376877Y303831D01*
X376996Y303820D01*
X377078Y303829D01*
X377160Y303828D01*
X377277Y303850D01*
X377396Y303863D01*
X377474Y303888D01*
X377555Y303903D01*
X377666Y303949D01*
X377780Y303985D01*
X377852Y304024D01*
X377928Y304055D01*
X378028Y304122D01*
X378132Y304179D01*
X378195Y304233D01*
X378263Y304278D01*
X378348Y304363D01*
X378439Y304440D01*
X378490Y304504D01*
X378548Y304562D01*
X378635Y304688D01*
X378689Y304756D01*
X378707Y304792D01*
X378737Y304835D01*
X378867Y305060D01*
X379340Y305533D01*
X379919Y305868D01*
X380565Y306041D01*
X385151Y306041D01*
X385151Y298218D01*
X385152Y298200D01*
X385151Y298183D01*
X385172Y298000D01*
X385191Y297818D01*
X385196Y297801D01*
X385198Y297783D01*
X385255Y297608D01*
X385309Y297433D01*
X385317Y297417D01*
X385323Y297400D01*
X385413Y297240D01*
X385500Y297079D01*
X385512Y297065D01*
X385521Y297049D01*
X385641Y296910D01*
X385758Y296769D01*
X385772Y296758D01*
X385784Y296745D01*
X385929Y296632D01*
X386072Y296517D01*
X386088Y296509D01*
X386102Y296498D01*
X386267Y296416D01*
X386429Y296332D01*
X386446Y296327D01*
X386462Y296319D01*
X386641Y296271D01*
X386816Y296220D01*
X386834Y296219D01*
X386851Y296214D01*
X387182Y296187D01*
X387587Y296187D01*
X387587Y295782D01*
X387589Y295764D01*
X387587Y295746D01*
X387609Y295564D01*
X387627Y295381D01*
X387632Y295364D01*
X387634Y295347D01*
X387691Y295172D01*
X387745Y294996D01*
X387753Y294981D01*
X387759Y294964D01*
X387849Y294804D01*
X387937Y294642D01*
X387948Y294629D01*
X387957Y294613D01*
X388077Y294474D01*
X388195Y294333D01*
X388208Y294322D01*
X388220Y294308D01*
X388365Y294196D01*
X388508Y294081D01*
X388524Y294073D01*
X388538Y294062D01*
X388703Y293980D01*
X388866Y293895D01*
X388883Y293890D01*
X388899Y293882D01*
X389077Y293834D01*
X389252Y293784D01*
X389270Y293782D01*
X389287Y293778D01*
X389618Y293751D01*
X398441Y293751D01*
X398441Y290165D01*
X398268Y289519D01*
X397933Y288940D01*
X397382Y288389D01*
X397289Y288322D01*
X397233Y288262D01*
X397170Y288209D01*
X397096Y288115D01*
X397015Y288027D01*
X396972Y287957D01*
X396920Y287893D01*
X396866Y287786D01*
X396804Y287684D01*
X396775Y287607D01*
X396738Y287534D01*
X396706Y287418D01*
X396665Y287307D01*
X396652Y287225D01*
X396630Y287146D01*
X396621Y287027D01*
X396603Y286909D01*
X396607Y286826D01*
X396601Y286744D01*
X396616Y286626D01*
X396621Y286506D01*
X396641Y286427D01*
X396651Y286345D01*
X396689Y286232D01*
X396718Y286116D01*
X396753Y286041D01*
X396779Y285963D01*
X396839Y285860D01*
X396890Y285752D01*
X396939Y285686D01*
X396980Y285614D01*
X397079Y285498D01*
X397131Y285429D01*
X397161Y285402D01*
X397195Y285361D01*
X397425Y285132D01*
X397425Y270868D01*
X396532Y269975D01*
X393988Y269975D01*
X393970Y269973D01*
X393952Y269975D01*
X393770Y269954D01*
X393587Y269935D01*
X393570Y269930D01*
X393553Y269928D01*
X393378Y269871D01*
X393202Y269817D01*
X393187Y269809D01*
X393170Y269803D01*
X393010Y269713D01*
X392848Y269625D01*
X392835Y269614D01*
X392819Y269605D01*
X392680Y269485D01*
X392539Y269368D01*
X392528Y269354D01*
X392514Y269342D01*
X392402Y269197D01*
X392287Y269054D01*
X392279Y269038D01*
X392268Y269024D01*
X392186Y268859D01*
X392101Y268697D01*
X392096Y268680D01*
X392088Y268664D01*
X392041Y268485D01*
X391990Y268310D01*
X391988Y268292D01*
X391984Y268275D01*
X391957Y267944D01*
X391957Y264406D01*
X391959Y264388D01*
X391957Y264370D01*
X391978Y264188D01*
X391997Y264005D01*
X392002Y263988D01*
X392004Y263971D01*
X392061Y263795D01*
X392115Y263620D01*
X392123Y263605D01*
X392129Y263588D01*
X392219Y263428D01*
X392307Y263266D01*
X392318Y263253D01*
X392327Y263237D01*
X392447Y263098D01*
X392564Y262957D01*
X392578Y262946D01*
X392590Y262932D01*
X392735Y262820D01*
X392878Y262705D01*
X392894Y262697D01*
X392908Y262686D01*
X393073Y262604D01*
X393235Y262519D01*
X393252Y262514D01*
X393268Y262506D01*
X393447Y262459D01*
X393622Y262408D01*
X393640Y262406D01*
X393657Y262402D01*
X393988Y262375D01*
X394768Y262375D01*
X396525Y260618D01*
X396525Y255182D01*
X396017Y254674D01*
X396011Y254667D01*
X396004Y254662D01*
X395884Y254513D01*
X395761Y254363D01*
X395757Y254355D01*
X395752Y254348D01*
X395664Y254178D01*
X395573Y254007D01*
X395570Y253998D01*
X395566Y253991D01*
X395513Y253806D01*
X395458Y253621D01*
X395457Y253612D01*
X395455Y253604D01*
X395439Y253413D01*
X395422Y253220D01*
X395423Y253211D01*
X395422Y253202D01*
X395444Y253013D01*
X395465Y252820D01*
X395468Y252811D01*
X395469Y252803D01*
X395528Y252620D01*
X395587Y252436D01*
X395591Y252428D01*
X395594Y252420D01*
X395688Y252253D01*
X395781Y252084D01*
X395787Y252077D01*
X395792Y252069D01*
X395917Y251924D01*
X396042Y251777D01*
X396049Y251771D01*
X396055Y251764D01*
X396206Y251647D01*
X396358Y251527D01*
X396366Y251523D01*
X396373Y251518D01*
X396545Y251432D01*
X396717Y251345D01*
X396725Y251342D01*
X396733Y251338D01*
X396919Y251289D01*
X397105Y251237D01*
X397114Y251236D01*
X397122Y251234D01*
X397453Y251207D01*
X401523Y251207D01*
X404143Y248587D01*
X404157Y248576D01*
X404168Y248562D01*
X404313Y248448D01*
X404454Y248332D01*
X404470Y248324D01*
X404484Y248313D01*
X404648Y248229D01*
X404810Y248143D01*
X404827Y248138D01*
X404843Y248130D01*
X405020Y248081D01*
X405196Y248029D01*
X405214Y248027D01*
X405231Y248022D01*
X405414Y248009D01*
X405597Y247992D01*
X405615Y247994D01*
X405633Y247993D01*
X405815Y248016D01*
X405997Y248036D01*
X406014Y248041D01*
X406032Y248043D01*
X406206Y248102D01*
X406381Y248157D01*
X406397Y248166D01*
X406414Y248172D01*
X406572Y248263D01*
X406733Y248352D01*
X406747Y248364D01*
X406762Y248372D01*
X407015Y248587D01*
X408053Y249625D01*
X415347Y249625D01*
X417820Y247152D01*
X417841Y247135D01*
X417858Y247114D01*
X417996Y247007D01*
X418132Y246897D01*
X418155Y246884D01*
X418176Y246868D01*
X418333Y246790D01*
X418487Y246708D01*
X418513Y246700D01*
X418537Y246688D01*
X418706Y246643D01*
X418873Y246593D01*
X418900Y246591D01*
X418926Y246584D01*
X419256Y246557D01*
X450473Y246557D01*
X456557Y240473D01*
X456557Y226156D01*
X456559Y226138D01*
X456557Y226120D01*
X456578Y225938D01*
X456597Y225755D01*
X456602Y225738D01*
X456604Y225721D01*
X456661Y225546D01*
X456715Y225370D01*
X456723Y225355D01*
X456729Y225338D01*
X456819Y225178D01*
X456907Y225016D01*
X456918Y225003D01*
X456927Y224987D01*
X457047Y224848D01*
X457164Y224707D01*
X457178Y224696D01*
X457190Y224682D01*
X457335Y224570D01*
X457478Y224455D01*
X457494Y224447D01*
X457508Y224436D01*
X457673Y224354D01*
X457835Y224269D01*
X457852Y224264D01*
X457868Y224256D01*
X458047Y224209D01*
X458222Y224158D01*
X458240Y224156D01*
X458257Y224152D01*
X458588Y224125D01*
X462262Y224125D01*
X462404Y224009D01*
X462412Y224004D01*
X462419Y223999D01*
X462588Y223911D01*
X462760Y223820D01*
X462769Y223817D01*
X462776Y223813D01*
X462961Y223760D01*
X463146Y223705D01*
X463155Y223704D01*
X463163Y223702D01*
X463356Y223686D01*
X463547Y223669D01*
X463556Y223670D01*
X463565Y223669D01*
X463754Y223691D01*
X463947Y223712D01*
X463956Y223715D01*
X463964Y223716D01*
X464148Y223776D01*
X464331Y223834D01*
X464339Y223838D01*
X464347Y223841D01*
X464516Y223936D01*
X464683Y224028D01*
X464690Y224034D01*
X464698Y224039D01*
X464843Y224164D01*
X464990Y224289D01*
X464996Y224296D01*
X465003Y224302D01*
X465120Y224453D01*
X465240Y224605D01*
X465244Y224613D01*
X465249Y224620D01*
X465335Y224792D01*
X465422Y224964D01*
X465425Y224972D01*
X465429Y224980D01*
X465479Y225168D01*
X465530Y225352D01*
X465531Y225360D01*
X465533Y225369D01*
X465560Y225700D01*
X465560Y234452D01*
X466453Y235345D01*
X470512Y235345D01*
X470530Y235347D01*
X470548Y235345D01*
X470730Y235366D01*
X470913Y235385D01*
X470930Y235390D01*
X470947Y235392D01*
X471122Y235449D01*
X471298Y235503D01*
X471313Y235511D01*
X471330Y235517D01*
X471490Y235607D01*
X471652Y235695D01*
X471665Y235706D01*
X471681Y235715D01*
X471820Y235835D01*
X471961Y235952D01*
X471972Y235966D01*
X471986Y235978D01*
X472098Y236123D01*
X472213Y236266D01*
X472221Y236282D01*
X472232Y236296D01*
X472314Y236461D01*
X472399Y236623D01*
X472404Y236640D01*
X472412Y236656D01*
X472459Y236833D01*
X472510Y237010D01*
X472512Y237028D01*
X472516Y237045D01*
X472543Y237376D01*
X472543Y295585D01*
X472541Y295612D01*
X472543Y295639D01*
X472521Y295813D01*
X472503Y295986D01*
X472496Y296011D01*
X472492Y296038D01*
X472437Y296204D01*
X472385Y296371D01*
X472372Y296394D01*
X472364Y296420D01*
X472277Y296571D01*
X472193Y296725D01*
X472176Y296745D01*
X472163Y296769D01*
X471948Y297022D01*
X442596Y326374D01*
X442586Y326382D01*
X442577Y326392D01*
X442431Y326509D01*
X442285Y326629D01*
X442273Y326635D01*
X442263Y326643D01*
X442095Y326730D01*
X441929Y326817D01*
X441916Y326821D01*
X441904Y326827D01*
X441724Y326878D01*
X441543Y326932D01*
X441530Y326933D01*
X441517Y326937D01*
X441331Y326951D01*
X441142Y326969D01*
X441129Y326967D01*
X441116Y326968D01*
X440931Y326946D01*
X440742Y326925D01*
X440729Y326921D01*
X440716Y326919D01*
X440539Y326861D01*
X440358Y326804D01*
X440346Y326797D01*
X440334Y326793D01*
X440171Y326700D01*
X440006Y326609D01*
X439996Y326600D01*
X439984Y326594D01*
X439841Y326469D01*
X439699Y326348D01*
X439691Y326338D01*
X439680Y326329D01*
X439566Y326180D01*
X439449Y326032D01*
X439443Y326020D01*
X439435Y326010D01*
X439283Y325715D01*
X439018Y325074D01*
X435424Y321480D01*
X433970Y320878D01*
X430729Y319535D01*
X425647Y319535D01*
X420952Y321480D01*
X417358Y325074D01*
X415413Y329769D01*
X415413Y334851D01*
X417358Y339546D01*
X420952Y343140D01*
X425647Y345085D01*
X430729Y345085D01*
X435424Y343140D01*
X439018Y339546D01*
X440023Y337121D01*
X440033Y337101D01*
X440040Y337080D01*
X440128Y336924D01*
X440213Y336766D01*
X440227Y336749D01*
X440238Y336729D01*
X440355Y336594D01*
X440469Y336455D01*
X440487Y336441D01*
X440501Y336424D01*
X440643Y336315D01*
X440782Y336202D01*
X440802Y336191D01*
X440819Y336178D01*
X440980Y336098D01*
X441138Y336015D01*
X441160Y336008D01*
X441180Y335998D01*
X441354Y335952D01*
X441525Y335902D01*
X441547Y335900D01*
X441569Y335894D01*
X441899Y335867D01*
X443163Y335867D01*
X479657Y299373D01*
X479657Y237376D01*
X479659Y237358D01*
X479657Y237340D01*
X479678Y237158D01*
X479697Y236975D01*
X479702Y236958D01*
X479704Y236941D01*
X479761Y236766D01*
X479815Y236590D01*
X479823Y236575D01*
X479829Y236558D01*
X479919Y236398D01*
X480007Y236236D01*
X480018Y236223D01*
X480027Y236207D01*
X480147Y236068D01*
X480264Y235927D01*
X480278Y235916D01*
X480290Y235902D01*
X480435Y235790D01*
X480578Y235675D01*
X480594Y235667D01*
X480608Y235656D01*
X480773Y235574D01*
X480935Y235489D01*
X480952Y235484D01*
X480968Y235476D01*
X481147Y235429D01*
X481322Y235378D01*
X481340Y235376D01*
X481357Y235372D01*
X481688Y235345D01*
X485747Y235345D01*
X487164Y233928D01*
X487177Y233916D01*
X487189Y233903D01*
X487333Y233789D01*
X487475Y233673D01*
X487491Y233664D01*
X487505Y233653D01*
X487669Y233570D01*
X487831Y233484D01*
X487848Y233479D01*
X487864Y233471D01*
X488041Y233421D01*
X488217Y233369D01*
X488235Y233368D01*
X488252Y233363D01*
X488435Y233349D01*
X488618Y233333D01*
X488636Y233335D01*
X488653Y233333D01*
X488835Y233356D01*
X489018Y233376D01*
X489035Y233382D01*
X489053Y233384D01*
X489226Y233442D01*
X489402Y233498D01*
X489418Y233506D01*
X489434Y233512D01*
X489593Y233603D01*
X489754Y233692D01*
X489768Y233704D01*
X489783Y233713D01*
X490036Y233928D01*
X491453Y235345D01*
X495512Y235345D01*
X495530Y235347D01*
X495548Y235345D01*
X495730Y235366D01*
X495913Y235385D01*
X495930Y235390D01*
X495947Y235392D01*
X496122Y235449D01*
X496298Y235503D01*
X496313Y235511D01*
X496330Y235517D01*
X496490Y235607D01*
X496652Y235695D01*
X496665Y235706D01*
X496681Y235715D01*
X496820Y235835D01*
X496961Y235952D01*
X496972Y235966D01*
X496986Y235978D01*
X497098Y236123D01*
X497213Y236266D01*
X497221Y236282D01*
X497232Y236296D01*
X497314Y236461D01*
X497399Y236623D01*
X497404Y236640D01*
X497412Y236656D01*
X497459Y236833D01*
X497510Y237010D01*
X497512Y237028D01*
X497516Y237045D01*
X497543Y237376D01*
X497543Y286585D01*
X497541Y286612D01*
X497543Y286639D01*
X497521Y286813D01*
X497503Y286986D01*
X497496Y287011D01*
X497492Y287038D01*
X497437Y287204D01*
X497385Y287371D01*
X497372Y287394D01*
X497364Y287420D01*
X497277Y287571D01*
X497193Y287725D01*
X497176Y287745D01*
X497163Y287769D01*
X496948Y288022D01*
X423443Y361527D01*
X423443Y374091D01*
X423441Y374113D01*
X423443Y374135D01*
X423421Y374313D01*
X423403Y374491D01*
X423397Y374513D01*
X423394Y374535D01*
X423338Y374705D01*
X423285Y374876D01*
X423275Y374896D01*
X423268Y374917D01*
X423179Y375073D01*
X423093Y375230D01*
X423079Y375248D01*
X423068Y375267D01*
X422951Y375402D01*
X422836Y375540D01*
X422818Y375554D01*
X422804Y375570D01*
X422662Y375680D01*
X422522Y375792D01*
X422502Y375802D01*
X422484Y375816D01*
X422189Y375967D01*
X420952Y376480D01*
X417358Y380074D01*
X415413Y384769D01*
X415413Y389851D01*
X417358Y394546D01*
X420952Y398140D01*
X425647Y400085D01*
X430729Y400085D01*
X435424Y398140D01*
X439018Y394546D01*
X440963Y389851D01*
X440963Y384769D01*
X439018Y380074D01*
X435424Y376480D01*
X433593Y375721D01*
X431811Y374983D01*
X431791Y374973D01*
X431770Y374966D01*
X431613Y374877D01*
X431456Y374793D01*
X431439Y374779D01*
X431419Y374768D01*
X431283Y374651D01*
X431145Y374537D01*
X431131Y374519D01*
X431114Y374505D01*
X431005Y374363D01*
X430892Y374224D01*
X430881Y374204D01*
X430868Y374187D01*
X430788Y374026D01*
X430705Y373868D01*
X430698Y373846D01*
X430688Y373826D01*
X430642Y373652D01*
X430592Y373481D01*
X430590Y373459D01*
X430584Y373437D01*
X430557Y373107D01*
X430557Y365315D01*
X430559Y365288D01*
X430557Y365261D01*
X430579Y365087D01*
X430597Y364914D01*
X430604Y364889D01*
X430608Y364862D01*
X430663Y364696D01*
X430715Y364529D01*
X430728Y364506D01*
X430736Y364480D01*
X430823Y364329D01*
X430907Y364175D01*
X430924Y364155D01*
X430937Y364131D01*
X431152Y363878D01*
X504657Y290373D01*
X504657Y237376D01*
X504659Y237358D01*
X504657Y237340D01*
X504678Y237158D01*
X504697Y236975D01*
X504702Y236958D01*
X504704Y236941D01*
X504761Y236766D01*
X504815Y236590D01*
X504823Y236575D01*
X504829Y236558D01*
X504919Y236398D01*
X505007Y236236D01*
X505018Y236223D01*
X505027Y236207D01*
X505147Y236068D01*
X505264Y235927D01*
X505278Y235916D01*
X505290Y235902D01*
X505435Y235790D01*
X505578Y235675D01*
X505594Y235667D01*
X505608Y235656D01*
X505773Y235574D01*
X505935Y235489D01*
X505952Y235484D01*
X505968Y235476D01*
X506147Y235429D01*
X506322Y235378D01*
X506340Y235376D01*
X506357Y235372D01*
X506688Y235345D01*
X510747Y235345D01*
X511640Y234452D01*
X511640Y217188D01*
X510747Y216295D01*
X491453Y216295D01*
X490036Y217712D01*
X490022Y217724D01*
X490011Y217737D01*
X489867Y217851D01*
X489725Y217967D01*
X489709Y217976D01*
X489695Y217987D01*
X489531Y218070D01*
X489369Y218156D01*
X489352Y218161D01*
X489336Y218169D01*
X489159Y218219D01*
X488983Y218271D01*
X488965Y218272D01*
X488948Y218277D01*
X488765Y218291D01*
X488582Y218307D01*
X488564Y218305D01*
X488547Y218307D01*
X488365Y218284D01*
X488182Y218264D01*
X488165Y218258D01*
X488147Y218256D01*
X487973Y218198D01*
X487798Y218142D01*
X487782Y218134D01*
X487766Y218128D01*
X487607Y218036D01*
X487446Y217948D01*
X487432Y217936D01*
X487417Y217927D01*
X487164Y217712D01*
X485747Y216295D01*
X466423Y216295D01*
X466281Y216411D01*
X466273Y216416D01*
X466266Y216421D01*
X466097Y216509D01*
X465925Y216600D01*
X465916Y216603D01*
X465909Y216607D01*
X465724Y216660D01*
X465539Y216715D01*
X465530Y216716D01*
X465522Y216718D01*
X465329Y216734D01*
X465138Y216751D01*
X465129Y216750D01*
X465120Y216751D01*
X464931Y216729D01*
X464738Y216708D01*
X464729Y216705D01*
X464721Y216704D01*
X464537Y216644D01*
X464354Y216586D01*
X464346Y216582D01*
X464338Y216579D01*
X464169Y216484D01*
X464002Y216392D01*
X463995Y216386D01*
X463987Y216381D01*
X463842Y216256D01*
X463695Y216131D01*
X463689Y216124D01*
X463682Y216118D01*
X463565Y215967D01*
X463445Y215815D01*
X463441Y215807D01*
X463436Y215800D01*
X463350Y215628D01*
X463263Y215456D01*
X463260Y215448D01*
X463256Y215440D01*
X463206Y215252D01*
X463155Y215068D01*
X463154Y215060D01*
X463152Y215051D01*
X463125Y214720D01*
X463125Y208480D01*
X463126Y208471D01*
X463125Y208462D01*
X463146Y208270D01*
X463165Y208079D01*
X463167Y208071D01*
X463168Y208062D01*
X463227Y207877D01*
X463283Y207694D01*
X463287Y207687D01*
X463290Y207678D01*
X463383Y207509D01*
X463475Y207340D01*
X463480Y207333D01*
X463485Y207326D01*
X463610Y207178D01*
X463732Y207031D01*
X463739Y207026D01*
X463745Y207019D01*
X463896Y206899D01*
X464046Y206779D01*
X464054Y206775D01*
X464061Y206769D01*
X464234Y206681D01*
X464403Y206593D01*
X464412Y206591D01*
X464420Y206587D01*
X464606Y206535D01*
X464790Y206482D01*
X464799Y206481D01*
X464808Y206479D01*
X465000Y206465D01*
X465192Y206449D01*
X465200Y206450D01*
X465209Y206449D01*
X465401Y206474D01*
X465591Y206496D01*
X465600Y206499D01*
X465609Y206500D01*
X465790Y206561D01*
X465974Y206621D01*
X465982Y206625D01*
X465990Y206628D01*
X466156Y206724D01*
X466325Y206819D01*
X466332Y206824D01*
X466339Y206829D01*
X466429Y206905D01*
X485747Y206905D01*
X487164Y205488D01*
X487177Y205476D01*
X487189Y205463D01*
X487333Y205349D01*
X487475Y205233D01*
X487491Y205224D01*
X487505Y205213D01*
X487669Y205130D01*
X487831Y205044D01*
X487848Y205039D01*
X487864Y205031D01*
X488041Y204981D01*
X488217Y204929D01*
X488235Y204928D01*
X488252Y204923D01*
X488435Y204909D01*
X488618Y204893D01*
X488636Y204895D01*
X488653Y204893D01*
X488835Y204916D01*
X489018Y204936D01*
X489035Y204942D01*
X489053Y204944D01*
X489226Y205002D01*
X489402Y205058D01*
X489418Y205066D01*
X489434Y205072D01*
X489593Y205163D01*
X489754Y205252D01*
X489768Y205264D01*
X489783Y205273D01*
X490036Y205488D01*
X491453Y206905D01*
X510747Y206905D01*
X511640Y206012D01*
X511640Y188748D01*
X510747Y187855D01*
X491453Y187855D01*
X490036Y189272D01*
X490022Y189284D01*
X490011Y189297D01*
X489867Y189411D01*
X489725Y189527D01*
X489709Y189536D01*
X489695Y189547D01*
X489531Y189630D01*
X489369Y189716D01*
X489352Y189721D01*
X489336Y189729D01*
X489159Y189779D01*
X488983Y189831D01*
X488965Y189832D01*
X488948Y189837D01*
X488765Y189851D01*
X488582Y189867D01*
X488564Y189865D01*
X488547Y189867D01*
X488365Y189844D01*
X488182Y189824D01*
X488165Y189818D01*
X488147Y189816D01*
X487973Y189758D01*
X487798Y189702D01*
X487782Y189694D01*
X487766Y189688D01*
X487607Y189596D01*
X487446Y189508D01*
X487432Y189496D01*
X487417Y189487D01*
X487164Y189272D01*
X485747Y187855D01*
X481688Y187855D01*
X481670Y187853D01*
X481652Y187855D01*
X481470Y187834D01*
X481287Y187815D01*
X481270Y187810D01*
X481253Y187808D01*
X481078Y187751D01*
X480902Y187697D01*
X480887Y187689D01*
X480870Y187683D01*
X480710Y187593D01*
X480548Y187505D01*
X480535Y187494D01*
X480519Y187485D01*
X480380Y187365D01*
X480239Y187248D01*
X480228Y187234D01*
X480214Y187222D01*
X480102Y187077D01*
X479987Y186934D01*
X479979Y186918D01*
X479968Y186904D01*
X479886Y186739D01*
X479801Y186577D01*
X479796Y186560D01*
X479788Y186544D01*
X479740Y186364D01*
X479690Y186190D01*
X479688Y186172D01*
X479684Y186155D01*
X479657Y185824D01*
X479657Y185215D01*
X479659Y185188D01*
X479657Y185161D01*
X479679Y184987D01*
X479697Y184814D01*
X479704Y184789D01*
X479708Y184762D01*
X479763Y184596D01*
X479815Y184429D01*
X479828Y184406D01*
X479836Y184380D01*
X479923Y184229D01*
X480007Y184075D01*
X480024Y184055D01*
X480037Y184031D01*
X480252Y183778D01*
X480310Y183720D01*
X480331Y183703D01*
X480349Y183682D01*
X480486Y183575D01*
X480622Y183465D01*
X480645Y183452D01*
X480667Y183436D01*
X480824Y183358D01*
X480978Y183276D01*
X481003Y183268D01*
X481027Y183256D01*
X481197Y183211D01*
X481363Y183161D01*
X481390Y183159D01*
X481416Y183152D01*
X481747Y183125D01*
X486604Y183125D01*
X486897Y183101D01*
X499377Y183101D01*
X499671Y182807D01*
X499671Y148393D01*
X499377Y148099D01*
X497834Y148099D01*
X497807Y148097D01*
X497780Y148099D01*
X497607Y148077D01*
X497433Y148059D01*
X497407Y148051D01*
X497381Y148048D01*
X497215Y147992D01*
X497048Y147941D01*
X497025Y147928D01*
X496999Y147920D01*
X496848Y147833D01*
X496694Y147749D01*
X496674Y147732D01*
X496650Y147719D01*
X496495Y147587D01*
X495881Y147232D01*
X495235Y147059D01*
X492662Y147059D01*
X492582Y147208D01*
G37*
%LPD*%
%LPC*%
G36*
X376209Y342437D02*
X376209Y342437D01*
X374423Y344223D01*
X374423Y356401D01*
X376042Y358020D01*
X376048Y358027D01*
X376055Y358032D01*
X376175Y358182D01*
X376297Y358331D01*
X376301Y358339D01*
X376307Y358346D01*
X376395Y358516D01*
X376486Y358687D01*
X376488Y358696D01*
X376493Y358703D01*
X376546Y358888D01*
X376601Y359073D01*
X376601Y359082D01*
X376604Y359090D01*
X376620Y359281D01*
X376637Y359474D01*
X376636Y359483D01*
X376637Y359492D01*
X376615Y359681D01*
X376594Y359874D01*
X376591Y359883D01*
X376590Y359891D01*
X376531Y360073D01*
X376472Y360258D01*
X376468Y360266D01*
X376465Y360274D01*
X376370Y360442D01*
X376277Y360610D01*
X376272Y360617D01*
X376267Y360625D01*
X376141Y360771D01*
X376017Y360917D01*
X376010Y360923D01*
X376004Y360930D01*
X375853Y361047D01*
X375701Y361167D01*
X375693Y361171D01*
X375686Y361176D01*
X375514Y361262D01*
X375342Y361349D01*
X375333Y361352D01*
X375325Y361356D01*
X375139Y361406D01*
X374954Y361457D01*
X374945Y361458D01*
X374937Y361460D01*
X374652Y361484D01*
X369414Y363653D01*
X365413Y367654D01*
X363244Y372889D01*
X363226Y373055D01*
X363207Y373246D01*
X363205Y373255D01*
X363204Y373264D01*
X363146Y373446D01*
X363089Y373631D01*
X363085Y373639D01*
X363082Y373648D01*
X362989Y373816D01*
X362897Y373985D01*
X362892Y373992D01*
X362887Y374000D01*
X362762Y374148D01*
X362640Y374295D01*
X362633Y374300D01*
X362627Y374307D01*
X362475Y374427D01*
X362326Y374547D01*
X362318Y374551D01*
X362311Y374557D01*
X362139Y374644D01*
X361969Y374733D01*
X361960Y374735D01*
X361952Y374739D01*
X361766Y374791D01*
X361582Y374844D01*
X361573Y374845D01*
X361564Y374847D01*
X361372Y374861D01*
X361180Y374877D01*
X361172Y374876D01*
X361163Y374876D01*
X360970Y374852D01*
X360781Y374830D01*
X360772Y374827D01*
X360763Y374826D01*
X360580Y374765D01*
X360398Y374705D01*
X360390Y374701D01*
X360382Y374698D01*
X360216Y374602D01*
X360047Y374507D01*
X360040Y374501D01*
X360033Y374497D01*
X359780Y374282D01*
X358161Y372663D01*
X345983Y372663D01*
X344197Y374449D01*
X344197Y376975D01*
X345983Y378761D01*
X358161Y378761D01*
X359780Y377142D01*
X359787Y377136D01*
X359792Y377129D01*
X359942Y377009D01*
X360091Y376887D01*
X360099Y376883D01*
X360106Y376877D01*
X360277Y376788D01*
X360447Y376698D01*
X360456Y376696D01*
X360463Y376691D01*
X360648Y376638D01*
X360833Y376583D01*
X360842Y376583D01*
X360850Y376580D01*
X361041Y376564D01*
X361234Y376547D01*
X361243Y376548D01*
X361252Y376547D01*
X361441Y376569D01*
X361634Y376590D01*
X361643Y376593D01*
X361651Y376594D01*
X361833Y376653D01*
X362018Y376712D01*
X362026Y376716D01*
X362034Y376719D01*
X362203Y376814D01*
X362370Y376907D01*
X362377Y376912D01*
X362385Y376917D01*
X362531Y377043D01*
X362677Y377167D01*
X362683Y377174D01*
X362690Y377180D01*
X362807Y377331D01*
X362927Y377483D01*
X362931Y377491D01*
X362936Y377498D01*
X363022Y377670D01*
X363109Y377842D01*
X363112Y377851D01*
X363116Y377859D01*
X363165Y378042D01*
X363217Y378230D01*
X363218Y378239D01*
X363220Y378247D01*
X363244Y378532D01*
X365413Y383770D01*
X369414Y387771D01*
X374649Y389940D01*
X374815Y389958D01*
X375006Y389977D01*
X375015Y389979D01*
X375024Y389980D01*
X375206Y390038D01*
X375391Y390095D01*
X375399Y390099D01*
X375408Y390102D01*
X375576Y390195D01*
X375745Y390287D01*
X375752Y390292D01*
X375760Y390297D01*
X375908Y390422D01*
X376055Y390544D01*
X376060Y390551D01*
X376067Y390557D01*
X376187Y390709D01*
X376307Y390858D01*
X376311Y390866D01*
X376317Y390873D01*
X376404Y391045D01*
X376493Y391215D01*
X376495Y391224D01*
X376499Y391232D01*
X376551Y391418D01*
X376604Y391602D01*
X376605Y391611D01*
X376607Y391620D01*
X376621Y391812D01*
X376637Y392004D01*
X376636Y392012D01*
X376636Y392021D01*
X376612Y392214D01*
X376590Y392403D01*
X376587Y392412D01*
X376586Y392421D01*
X376525Y392603D01*
X376465Y392786D01*
X376461Y392794D01*
X376458Y392802D01*
X376362Y392968D01*
X376267Y393137D01*
X376261Y393144D01*
X376257Y393151D01*
X376042Y393404D01*
X374423Y395023D01*
X374423Y407201D01*
X376209Y408987D01*
X378735Y408987D01*
X380521Y407201D01*
X380521Y395023D01*
X378902Y393404D01*
X378896Y393397D01*
X378889Y393392D01*
X378769Y393242D01*
X378647Y393093D01*
X378643Y393085D01*
X378637Y393078D01*
X378549Y392908D01*
X378458Y392737D01*
X378456Y392728D01*
X378451Y392721D01*
X378398Y392535D01*
X378343Y392351D01*
X378343Y392342D01*
X378340Y392334D01*
X378324Y392143D01*
X378307Y391950D01*
X378308Y391941D01*
X378307Y391932D01*
X378329Y391743D01*
X378350Y391550D01*
X378353Y391541D01*
X378354Y391533D01*
X378413Y391351D01*
X378472Y391166D01*
X378476Y391158D01*
X378479Y391150D01*
X378574Y390981D01*
X378667Y390814D01*
X378672Y390807D01*
X378677Y390799D01*
X378803Y390653D01*
X378927Y390507D01*
X378934Y390501D01*
X378940Y390494D01*
X379091Y390377D01*
X379243Y390257D01*
X379251Y390253D01*
X379258Y390248D01*
X379430Y390162D01*
X379602Y390075D01*
X379611Y390072D01*
X379619Y390068D01*
X379805Y390018D01*
X379990Y389967D01*
X379999Y389966D01*
X380007Y389964D01*
X380292Y389940D01*
X385530Y387771D01*
X389531Y383770D01*
X391700Y378535D01*
X391718Y378369D01*
X391737Y378178D01*
X391739Y378169D01*
X391740Y378160D01*
X391798Y377978D01*
X391855Y377793D01*
X391859Y377785D01*
X391862Y377776D01*
X391955Y377608D01*
X392047Y377439D01*
X392052Y377432D01*
X392057Y377424D01*
X392182Y377276D01*
X392304Y377129D01*
X392311Y377124D01*
X392317Y377117D01*
X392469Y376997D01*
X392618Y376877D01*
X392626Y376873D01*
X392633Y376867D01*
X392805Y376780D01*
X392975Y376691D01*
X392984Y376689D01*
X392992Y376685D01*
X393178Y376633D01*
X393362Y376580D01*
X393371Y376579D01*
X393380Y376577D01*
X393572Y376563D01*
X393764Y376547D01*
X393772Y376548D01*
X393781Y376548D01*
X393974Y376572D01*
X394163Y376594D01*
X394172Y376597D01*
X394181Y376598D01*
X394364Y376659D01*
X394546Y376719D01*
X394554Y376723D01*
X394562Y376726D01*
X394728Y376822D01*
X394897Y376917D01*
X394904Y376923D01*
X394911Y376927D01*
X395164Y377142D01*
X396783Y378761D01*
X408961Y378761D01*
X410747Y376975D01*
X410747Y374449D01*
X408961Y372663D01*
X396783Y372663D01*
X395164Y374282D01*
X395157Y374288D01*
X395152Y374295D01*
X395002Y374415D01*
X394853Y374537D01*
X394845Y374541D01*
X394838Y374547D01*
X394668Y374635D01*
X394497Y374726D01*
X394488Y374728D01*
X394481Y374733D01*
X394296Y374786D01*
X394111Y374841D01*
X394102Y374841D01*
X394094Y374844D01*
X393903Y374860D01*
X393710Y374877D01*
X393701Y374876D01*
X393692Y374877D01*
X393503Y374855D01*
X393310Y374834D01*
X393301Y374831D01*
X393293Y374830D01*
X393111Y374771D01*
X392926Y374712D01*
X392918Y374708D01*
X392910Y374705D01*
X392741Y374610D01*
X392574Y374517D01*
X392567Y374512D01*
X392559Y374507D01*
X392413Y374381D01*
X392267Y374257D01*
X392261Y374250D01*
X392254Y374244D01*
X392137Y374093D01*
X392017Y373941D01*
X392013Y373933D01*
X392008Y373926D01*
X391922Y373754D01*
X391835Y373582D01*
X391832Y373573D01*
X391828Y373565D01*
X391778Y373379D01*
X391727Y373194D01*
X391726Y373185D01*
X391724Y373177D01*
X391700Y372892D01*
X389531Y367654D01*
X385530Y363653D01*
X385243Y363534D01*
X380295Y361484D01*
X380129Y361466D01*
X379938Y361447D01*
X379929Y361445D01*
X379920Y361444D01*
X379738Y361386D01*
X379553Y361329D01*
X379545Y361325D01*
X379536Y361322D01*
X379368Y361229D01*
X379199Y361137D01*
X379192Y361132D01*
X379184Y361127D01*
X379036Y361002D01*
X378889Y360880D01*
X378884Y360873D01*
X378877Y360867D01*
X378757Y360715D01*
X378637Y360566D01*
X378633Y360558D01*
X378627Y360551D01*
X378540Y360379D01*
X378451Y360209D01*
X378449Y360200D01*
X378445Y360192D01*
X378393Y360006D01*
X378340Y359822D01*
X378339Y359813D01*
X378337Y359804D01*
X378323Y359612D01*
X378307Y359420D01*
X378308Y359412D01*
X378308Y359403D01*
X378332Y359209D01*
X378354Y359021D01*
X378357Y359012D01*
X378358Y359003D01*
X378419Y358820D01*
X378479Y358638D01*
X378483Y358630D01*
X378486Y358622D01*
X378582Y358456D01*
X378677Y358287D01*
X378683Y358280D01*
X378687Y358273D01*
X378902Y358020D01*
X380521Y356401D01*
X380521Y344223D01*
X378735Y342437D01*
X376209Y342437D01*
G37*
%LPD*%
%LPC*%
G36*
X409944Y278693D02*
X409944Y278693D01*
X407994Y279501D01*
X406501Y280994D01*
X405693Y282944D01*
X405693Y285056D01*
X406501Y287006D01*
X406848Y287353D01*
X406865Y287374D01*
X406886Y287391D01*
X406992Y287529D01*
X407103Y287665D01*
X407116Y287688D01*
X407132Y287709D01*
X407210Y287866D01*
X407292Y288020D01*
X407300Y288046D01*
X407312Y288070D01*
X407357Y288239D01*
X407407Y288406D01*
X407409Y288433D01*
X407416Y288459D01*
X407443Y288789D01*
X407443Y311685D01*
X407441Y311712D01*
X407443Y311739D01*
X407421Y311913D01*
X407403Y312086D01*
X407396Y312112D01*
X407392Y312138D01*
X407336Y312304D01*
X407285Y312471D01*
X407272Y312495D01*
X407264Y312520D01*
X407177Y312671D01*
X407093Y312825D01*
X407076Y312845D01*
X407063Y312869D01*
X406848Y313122D01*
X399522Y320448D01*
X399504Y320462D01*
X399491Y320478D01*
X399488Y320480D01*
X399483Y320486D01*
X399346Y320593D01*
X399210Y320703D01*
X399187Y320716D01*
X399165Y320732D01*
X399008Y320810D01*
X398854Y320892D01*
X398829Y320900D01*
X398805Y320912D01*
X398635Y320957D01*
X398469Y321007D01*
X398442Y321009D01*
X398416Y321016D01*
X398085Y321043D01*
X397056Y321043D01*
X397038Y321041D01*
X397020Y321043D01*
X396838Y321022D01*
X396655Y321003D01*
X396638Y320998D01*
X396621Y320996D01*
X396446Y320939D01*
X396270Y320885D01*
X396255Y320877D01*
X396238Y320871D01*
X396078Y320781D01*
X395916Y320693D01*
X395903Y320682D01*
X395887Y320673D01*
X395748Y320553D01*
X395607Y320436D01*
X395596Y320422D01*
X395582Y320410D01*
X395470Y320265D01*
X395355Y320122D01*
X395347Y320106D01*
X395336Y320092D01*
X395253Y319926D01*
X395169Y319765D01*
X395164Y319748D01*
X395156Y319732D01*
X395108Y319552D01*
X395058Y319378D01*
X395056Y319360D01*
X395052Y319343D01*
X395025Y319012D01*
X395025Y317968D01*
X394132Y317075D01*
X380868Y317075D01*
X379975Y317968D01*
X379975Y331232D01*
X380868Y332125D01*
X394132Y332125D01*
X395025Y331232D01*
X395025Y330188D01*
X395027Y330170D01*
X395025Y330152D01*
X395046Y329970D01*
X395065Y329787D01*
X395070Y329770D01*
X395072Y329753D01*
X395129Y329578D01*
X395183Y329402D01*
X395191Y329387D01*
X395197Y329370D01*
X395287Y329210D01*
X395375Y329048D01*
X395386Y329035D01*
X395395Y329019D01*
X395515Y328880D01*
X395632Y328739D01*
X395646Y328728D01*
X395658Y328714D01*
X395803Y328602D01*
X395946Y328487D01*
X395962Y328479D01*
X395976Y328468D01*
X396141Y328386D01*
X396303Y328301D01*
X396320Y328296D01*
X396336Y328288D01*
X396515Y328241D01*
X396690Y328190D01*
X396708Y328188D01*
X396725Y328184D01*
X397056Y328157D01*
X401873Y328157D01*
X411878Y318152D01*
X414557Y315473D01*
X414557Y288789D01*
X414559Y288763D01*
X414557Y288736D01*
X414579Y288562D01*
X414597Y288389D01*
X414605Y288363D01*
X414608Y288337D01*
X414663Y288171D01*
X414715Y288004D01*
X414728Y287980D01*
X414736Y287955D01*
X414823Y287803D01*
X414907Y287650D01*
X414924Y287629D01*
X414937Y287606D01*
X415152Y287353D01*
X415499Y287006D01*
X416307Y285056D01*
X416307Y282944D01*
X415499Y280994D01*
X414006Y279501D01*
X412056Y278693D01*
X409944Y278693D01*
G37*
%LPD*%
G36*
X482346Y149103D02*
X482346Y149103D01*
X482364Y149101D01*
X482546Y149122D01*
X482729Y149141D01*
X482746Y149146D01*
X482763Y149148D01*
X482938Y149205D01*
X483114Y149259D01*
X483129Y149267D01*
X483146Y149273D01*
X483306Y149363D01*
X483468Y149451D01*
X483481Y149462D01*
X483497Y149471D01*
X483636Y149591D01*
X483777Y149708D01*
X483788Y149722D01*
X483802Y149734D01*
X483914Y149879D01*
X484029Y150022D01*
X484037Y150038D01*
X484048Y150052D01*
X484130Y150217D01*
X484215Y150379D01*
X484220Y150396D01*
X484228Y150412D01*
X484275Y150591D01*
X484326Y150766D01*
X484328Y150784D01*
X484332Y150801D01*
X484359Y151132D01*
X484359Y151569D01*
X490900Y151569D01*
X490917Y151570D01*
X490935Y151569D01*
X491118Y151590D01*
X491300Y151608D01*
X491317Y151614D01*
X491335Y151616D01*
X491510Y151673D01*
X491685Y151727D01*
X491701Y151735D01*
X491718Y151741D01*
X491878Y151831D01*
X492039Y151918D01*
X492053Y151930D01*
X492068Y151939D01*
X492208Y152059D01*
X492348Y152176D01*
X492349Y152176D01*
X492349Y152177D01*
X492360Y152190D01*
X492373Y152202D01*
X492374Y152202D01*
X492486Y152347D01*
X492601Y152490D01*
X492610Y152506D01*
X492620Y152520D01*
X492702Y152685D01*
X492787Y152848D01*
X492792Y152865D01*
X492800Y152881D01*
X492848Y153059D01*
X492898Y153235D01*
X492900Y153252D01*
X492904Y153270D01*
X492931Y153600D01*
X492931Y160141D01*
X495234Y160141D01*
X496112Y159906D01*
X496193Y159892D01*
X496272Y159869D01*
X496392Y159860D01*
X496510Y159840D01*
X496592Y159843D01*
X496674Y159837D01*
X496792Y159851D01*
X496912Y159855D01*
X496992Y159874D01*
X497073Y159884D01*
X497187Y159921D01*
X497304Y159948D01*
X497378Y159983D01*
X497456Y160008D01*
X497560Y160067D01*
X497669Y160117D01*
X497735Y160166D01*
X497807Y160206D01*
X497897Y160284D01*
X497994Y160355D01*
X498049Y160416D01*
X498112Y160469D01*
X498185Y160564D01*
X498266Y160652D01*
X498308Y160723D01*
X498358Y160788D01*
X498412Y160895D01*
X498473Y160997D01*
X498501Y161075D01*
X498538Y161148D01*
X498569Y161264D01*
X498609Y161376D01*
X498621Y161457D01*
X498642Y161537D01*
X498655Y161689D01*
X498667Y161775D01*
X498665Y161815D01*
X498669Y161868D01*
X498669Y180068D01*
X498667Y180086D01*
X498669Y180104D01*
X498648Y180286D01*
X498629Y180469D01*
X498624Y180486D01*
X498622Y180503D01*
X498565Y180678D01*
X498511Y180854D01*
X498503Y180869D01*
X498497Y180886D01*
X498407Y181046D01*
X498319Y181208D01*
X498308Y181221D01*
X498299Y181237D01*
X498179Y181376D01*
X498062Y181517D01*
X498048Y181528D01*
X498036Y181542D01*
X497891Y181654D01*
X497748Y181769D01*
X497732Y181777D01*
X497718Y181788D01*
X497553Y181870D01*
X497391Y181955D01*
X497374Y181960D01*
X497358Y181968D01*
X497179Y182015D01*
X497004Y182066D01*
X496986Y182068D01*
X496969Y182072D01*
X496638Y182099D01*
X488956Y182099D01*
X488938Y182097D01*
X488920Y182099D01*
X488738Y182078D01*
X488555Y182059D01*
X488538Y182054D01*
X488521Y182052D01*
X488346Y181995D01*
X488170Y181941D01*
X488155Y181933D01*
X488138Y181927D01*
X487978Y181837D01*
X487816Y181749D01*
X487803Y181738D01*
X487787Y181729D01*
X487648Y181609D01*
X487507Y181492D01*
X487496Y181478D01*
X487482Y181466D01*
X487370Y181321D01*
X487255Y181178D01*
X487247Y181162D01*
X487236Y181148D01*
X487154Y180983D01*
X487069Y180821D01*
X487064Y180804D01*
X487056Y180788D01*
X487009Y180609D01*
X486958Y180434D01*
X486956Y180416D01*
X486952Y180399D01*
X486925Y180068D01*
X486925Y172968D01*
X486032Y172075D01*
X476768Y172075D01*
X475875Y172968D01*
X475875Y177253D01*
X475873Y177280D01*
X475875Y177307D01*
X475853Y177481D01*
X475835Y177654D01*
X475828Y177679D01*
X475824Y177706D01*
X475769Y177872D01*
X475717Y178039D01*
X475704Y178062D01*
X475696Y178088D01*
X475609Y178239D01*
X475525Y178393D01*
X475508Y178413D01*
X475495Y178437D01*
X475280Y178690D01*
X472466Y181504D01*
X472445Y181521D01*
X472427Y181542D01*
X472290Y181649D01*
X472154Y181759D01*
X472131Y181772D01*
X472109Y181788D01*
X471952Y181866D01*
X471798Y181948D01*
X471773Y181956D01*
X471749Y181968D01*
X471579Y182013D01*
X471413Y182063D01*
X471386Y182065D01*
X471360Y182072D01*
X471029Y182099D01*
X466162Y182099D01*
X466144Y182097D01*
X466126Y182099D01*
X465944Y182078D01*
X465761Y182059D01*
X465744Y182054D01*
X465727Y182052D01*
X465552Y181995D01*
X465376Y181941D01*
X465361Y181933D01*
X465344Y181927D01*
X465184Y181837D01*
X465022Y181749D01*
X465009Y181738D01*
X464993Y181729D01*
X464854Y181609D01*
X464713Y181492D01*
X464702Y181478D01*
X464688Y181466D01*
X464576Y181321D01*
X464461Y181178D01*
X464453Y181162D01*
X464442Y181148D01*
X464360Y180983D01*
X464275Y180821D01*
X464270Y180804D01*
X464262Y180788D01*
X464215Y180609D01*
X464164Y180434D01*
X464162Y180416D01*
X464158Y180399D01*
X464131Y180068D01*
X464131Y179741D01*
X464133Y179714D01*
X464131Y179687D01*
X464153Y179513D01*
X464171Y179340D01*
X464178Y179315D01*
X464182Y179288D01*
X464237Y179122D01*
X464289Y178955D01*
X464302Y178932D01*
X464310Y178906D01*
X464397Y178755D01*
X464481Y178601D01*
X464498Y178581D01*
X464511Y178557D01*
X464726Y178304D01*
X475457Y167573D01*
X475457Y161041D01*
X475459Y161014D01*
X475457Y160988D01*
X475479Y160814D01*
X475497Y160640D01*
X475504Y160615D01*
X475508Y160588D01*
X475564Y160422D01*
X475615Y160255D01*
X475628Y160232D01*
X475636Y160206D01*
X475723Y160055D01*
X475807Y159901D01*
X475824Y159881D01*
X475837Y159858D01*
X476052Y159605D01*
X477425Y158232D01*
X477425Y151132D01*
X477427Y151114D01*
X477425Y151096D01*
X477446Y150914D01*
X477465Y150731D01*
X477470Y150714D01*
X477472Y150697D01*
X477529Y150522D01*
X477583Y150346D01*
X477591Y150331D01*
X477597Y150314D01*
X477687Y150154D01*
X477775Y149992D01*
X477786Y149979D01*
X477795Y149963D01*
X477915Y149824D01*
X478032Y149683D01*
X478046Y149672D01*
X478058Y149658D01*
X478203Y149546D01*
X478346Y149431D01*
X478362Y149423D01*
X478376Y149412D01*
X478541Y149330D01*
X478703Y149245D01*
X478720Y149240D01*
X478736Y149232D01*
X478915Y149185D01*
X479090Y149134D01*
X479108Y149132D01*
X479125Y149128D01*
X479456Y149101D01*
X482328Y149101D01*
X482346Y149103D01*
G37*
%LPC*%
G36*
X485063Y379863D02*
X485063Y379863D01*
X485063Y407304D01*
X485664Y407245D01*
X488724Y406636D01*
X491710Y405731D01*
X494591Y404537D01*
X497343Y403066D01*
X499936Y401333D01*
X502348Y399354D01*
X504554Y397148D01*
X506533Y394736D01*
X508266Y392143D01*
X509737Y389391D01*
X510931Y386510D01*
X511836Y383524D01*
X512445Y380464D01*
X512504Y379863D01*
X485063Y379863D01*
G37*
%LPD*%
%LPC*%
G36*
X278863Y173863D02*
X278863Y173863D01*
X278863Y201304D01*
X279464Y201245D01*
X282524Y200636D01*
X285510Y199731D01*
X288391Y198537D01*
X291143Y197066D01*
X293736Y195333D01*
X296148Y193354D01*
X298354Y191148D01*
X300333Y188736D01*
X302066Y186143D01*
X303537Y183391D01*
X304731Y180510D01*
X305636Y177524D01*
X306245Y174464D01*
X306304Y173863D01*
X278863Y173863D01*
G37*
%LPD*%
%LPC*%
G36*
X449496Y379863D02*
X449496Y379863D01*
X449555Y380464D01*
X450164Y383524D01*
X451069Y386510D01*
X452263Y389391D01*
X453734Y392143D01*
X455467Y394736D01*
X457446Y397148D01*
X459652Y399354D01*
X462064Y401333D01*
X464657Y403066D01*
X467409Y404537D01*
X470290Y405731D01*
X473276Y406636D01*
X476336Y407245D01*
X476937Y407304D01*
X476937Y379863D01*
X449496Y379863D01*
G37*
%LPD*%
%LPC*%
G36*
X485063Y371737D02*
X485063Y371737D01*
X512504Y371737D01*
X512445Y371136D01*
X511836Y368076D01*
X510931Y365090D01*
X509737Y362209D01*
X508266Y359457D01*
X506533Y356864D01*
X504554Y354452D01*
X502348Y352246D01*
X499936Y350267D01*
X497343Y348534D01*
X494591Y347063D01*
X491710Y345869D01*
X488724Y344964D01*
X485664Y344355D01*
X485063Y344296D01*
X485063Y371737D01*
G37*
%LPD*%
%LPC*%
G36*
X243296Y173863D02*
X243296Y173863D01*
X243355Y174464D01*
X243964Y177524D01*
X244869Y180510D01*
X246063Y183391D01*
X247534Y186143D01*
X249267Y188736D01*
X251246Y191148D01*
X253452Y193354D01*
X255864Y195333D01*
X258457Y197066D01*
X261209Y198537D01*
X264090Y199731D01*
X267076Y200636D01*
X270136Y201245D01*
X270737Y201304D01*
X270737Y173863D01*
X243296Y173863D01*
G37*
%LPD*%
%LPC*%
G36*
X476336Y344355D02*
X476336Y344355D01*
X473276Y344964D01*
X470290Y345869D01*
X467409Y347063D01*
X464657Y348534D01*
X462064Y350267D01*
X459652Y352246D01*
X457446Y354452D01*
X455467Y356864D01*
X453734Y359457D01*
X452263Y362209D01*
X451069Y365090D01*
X450164Y368076D01*
X449555Y371136D01*
X449496Y371737D01*
X476937Y371737D01*
X476937Y344296D01*
X476336Y344355D01*
G37*
%LPD*%
G36*
X440046Y151103D02*
X440046Y151103D01*
X440064Y151101D01*
X440246Y151122D01*
X440429Y151141D01*
X440446Y151146D01*
X440463Y151148D01*
X440638Y151205D01*
X440814Y151259D01*
X440829Y151267D01*
X440846Y151273D01*
X441006Y151363D01*
X441168Y151451D01*
X441181Y151462D01*
X441197Y151471D01*
X441336Y151591D01*
X441477Y151708D01*
X441488Y151722D01*
X441502Y151734D01*
X441614Y151879D01*
X441729Y152022D01*
X441737Y152038D01*
X441748Y152052D01*
X441830Y152217D01*
X441915Y152379D01*
X441920Y152396D01*
X441928Y152412D01*
X441975Y152591D01*
X442026Y152766D01*
X442028Y152784D01*
X442032Y152801D01*
X442059Y153132D01*
X442059Y154069D01*
X448600Y154069D01*
X448617Y154070D01*
X448635Y154069D01*
X448818Y154090D01*
X449000Y154108D01*
X449017Y154114D01*
X449035Y154116D01*
X449210Y154173D01*
X449385Y154227D01*
X449401Y154235D01*
X449418Y154241D01*
X449578Y154331D01*
X449739Y154418D01*
X449753Y154430D01*
X449768Y154439D01*
X449908Y154559D01*
X450048Y154676D01*
X450049Y154676D01*
X450049Y154677D01*
X450060Y154690D01*
X450073Y154702D01*
X450074Y154702D01*
X450186Y154847D01*
X450301Y154990D01*
X450310Y155006D01*
X450320Y155020D01*
X450402Y155185D01*
X450487Y155348D01*
X450492Y155365D01*
X450500Y155381D01*
X450548Y155559D01*
X450598Y155735D01*
X450600Y155752D01*
X450604Y155770D01*
X450631Y156100D01*
X450631Y163141D01*
X452568Y163141D01*
X452586Y163143D01*
X452604Y163141D01*
X452786Y163162D01*
X452969Y163181D01*
X452986Y163186D01*
X453003Y163188D01*
X453178Y163245D01*
X453354Y163299D01*
X453369Y163307D01*
X453386Y163313D01*
X453546Y163403D01*
X453708Y163491D01*
X453721Y163502D01*
X453737Y163511D01*
X453876Y163631D01*
X454017Y163748D01*
X454028Y163762D01*
X454042Y163774D01*
X454154Y163919D01*
X454269Y164062D01*
X454277Y164078D01*
X454288Y164092D01*
X454370Y164257D01*
X454455Y164419D01*
X454460Y164436D01*
X454468Y164452D01*
X454515Y164631D01*
X454566Y164806D01*
X454568Y164824D01*
X454572Y164841D01*
X454599Y165172D01*
X454599Y170512D01*
X454597Y170530D01*
X454599Y170548D01*
X454578Y170729D01*
X454559Y170913D01*
X454554Y170930D01*
X454552Y170947D01*
X454495Y171122D01*
X454441Y171298D01*
X454433Y171313D01*
X454427Y171330D01*
X454337Y171490D01*
X454249Y171652D01*
X454238Y171665D01*
X454229Y171681D01*
X454109Y171820D01*
X453992Y171961D01*
X453978Y171972D01*
X453966Y171986D01*
X453821Y172098D01*
X453678Y172213D01*
X453662Y172221D01*
X453648Y172232D01*
X453483Y172314D01*
X453321Y172399D01*
X453304Y172404D01*
X453288Y172412D01*
X453109Y172459D01*
X452934Y172510D01*
X452916Y172512D01*
X452899Y172516D01*
X452568Y172543D01*
X446656Y172543D01*
X446638Y172541D01*
X446620Y172543D01*
X446438Y172522D01*
X446255Y172503D01*
X446238Y172498D01*
X446221Y172496D01*
X446046Y172439D01*
X445870Y172385D01*
X445855Y172377D01*
X445838Y172371D01*
X445678Y172281D01*
X445516Y172193D01*
X445503Y172182D01*
X445487Y172173D01*
X445348Y172053D01*
X445207Y171936D01*
X445196Y171922D01*
X445182Y171910D01*
X445070Y171765D01*
X444955Y171622D01*
X444947Y171606D01*
X444936Y171592D01*
X444854Y171427D01*
X444769Y171265D01*
X444764Y171248D01*
X444756Y171232D01*
X444709Y171053D01*
X444708Y171052D01*
X443732Y170075D01*
X434468Y170075D01*
X433575Y170968D01*
X433575Y179068D01*
X433573Y179086D01*
X433575Y179104D01*
X433554Y179286D01*
X433535Y179469D01*
X433530Y179486D01*
X433528Y179503D01*
X433471Y179678D01*
X433417Y179854D01*
X433409Y179869D01*
X433403Y179886D01*
X433313Y180046D01*
X433225Y180208D01*
X433214Y180221D01*
X433205Y180237D01*
X433085Y180376D01*
X432968Y180517D01*
X432954Y180528D01*
X432942Y180542D01*
X432797Y180654D01*
X432654Y180769D01*
X432638Y180777D01*
X432624Y180788D01*
X432459Y180870D01*
X432297Y180955D01*
X432280Y180960D01*
X432264Y180968D01*
X432085Y181015D01*
X431910Y181066D01*
X431892Y181068D01*
X431875Y181072D01*
X431544Y181099D01*
X425632Y181099D01*
X425614Y181097D01*
X425596Y181099D01*
X425414Y181078D01*
X425231Y181059D01*
X425214Y181054D01*
X425197Y181052D01*
X425022Y180995D01*
X424846Y180941D01*
X424831Y180933D01*
X424814Y180927D01*
X424654Y180837D01*
X424492Y180749D01*
X424479Y180738D01*
X424463Y180729D01*
X424324Y180609D01*
X424183Y180492D01*
X424172Y180478D01*
X424158Y180466D01*
X424046Y180321D01*
X423931Y180178D01*
X423923Y180162D01*
X423912Y180148D01*
X423830Y179983D01*
X423745Y179821D01*
X423740Y179804D01*
X423732Y179788D01*
X423685Y179609D01*
X423634Y179434D01*
X423632Y179416D01*
X423628Y179399D01*
X423601Y179068D01*
X423601Y164156D01*
X423603Y164138D01*
X423601Y164120D01*
X423622Y163938D01*
X423641Y163755D01*
X423646Y163738D01*
X423648Y163721D01*
X423705Y163546D01*
X423759Y163370D01*
X423767Y163355D01*
X423773Y163338D01*
X423863Y163178D01*
X423951Y163016D01*
X423962Y163003D01*
X423971Y162987D01*
X424091Y162848D01*
X424208Y162707D01*
X424222Y162696D01*
X424234Y162682D01*
X424379Y162570D01*
X424522Y162455D01*
X424538Y162447D01*
X424552Y162436D01*
X424717Y162354D01*
X424879Y162269D01*
X424896Y162264D01*
X424912Y162256D01*
X425091Y162209D01*
X425266Y162158D01*
X425284Y162156D01*
X425301Y162152D01*
X425632Y162125D01*
X434232Y162125D01*
X435125Y161232D01*
X435125Y153132D01*
X435127Y153114D01*
X435125Y153096D01*
X435146Y152914D01*
X435165Y152731D01*
X435170Y152714D01*
X435172Y152697D01*
X435229Y152522D01*
X435283Y152346D01*
X435291Y152331D01*
X435297Y152314D01*
X435387Y152153D01*
X435475Y151992D01*
X435486Y151979D01*
X435495Y151963D01*
X435615Y151824D01*
X435732Y151683D01*
X435746Y151672D01*
X435758Y151658D01*
X435903Y151546D01*
X436046Y151431D01*
X436062Y151423D01*
X436076Y151412D01*
X436241Y151330D01*
X436403Y151245D01*
X436420Y151240D01*
X436436Y151232D01*
X436615Y151185D01*
X436790Y151134D01*
X436808Y151132D01*
X436825Y151128D01*
X437156Y151101D01*
X440028Y151101D01*
X440046Y151103D01*
G37*
%LPC*%
G36*
X273388Y337795D02*
X273388Y337795D01*
X272495Y338688D01*
X272495Y352032D01*
X273388Y352925D01*
X286732Y352925D01*
X287625Y352032D01*
X287625Y338688D01*
X286732Y337795D01*
X273388Y337795D01*
G37*
%LPD*%
%LPC*%
G36*
X393117Y387031D02*
X393117Y387031D01*
X391331Y388817D01*
X391331Y391342D01*
X399942Y399953D01*
X402467Y399953D01*
X404253Y398167D01*
X404253Y395642D01*
X395642Y387031D01*
X393117Y387031D01*
G37*
%LPD*%
%LPC*%
G36*
X359302Y387031D02*
X359302Y387031D01*
X350691Y395642D01*
X350691Y398167D01*
X352477Y399953D01*
X355002Y399953D01*
X363613Y391342D01*
X363613Y388817D01*
X361827Y387031D01*
X359302Y387031D01*
G37*
%LPD*%
%LPC*%
G36*
X399942Y351471D02*
X399942Y351471D01*
X391331Y360082D01*
X391331Y362607D01*
X393117Y364393D01*
X395642Y364393D01*
X404253Y355782D01*
X404253Y353257D01*
X402467Y351471D01*
X399942Y351471D01*
G37*
%LPD*%
%LPC*%
G36*
X352477Y351471D02*
X352477Y351471D01*
X350691Y353257D01*
X350691Y355782D01*
X359302Y364393D01*
X361827Y364393D01*
X363613Y362607D01*
X363613Y360082D01*
X355002Y351471D01*
X352477Y351471D01*
G37*
%LPD*%
%LPC*%
G36*
X391649Y300249D02*
X391649Y300249D01*
X391649Y306041D01*
X396235Y306041D01*
X396881Y305868D01*
X397460Y305533D01*
X397933Y305060D01*
X398268Y304481D01*
X398441Y303835D01*
X398441Y300249D01*
X391649Y300249D01*
G37*
%LPD*%
%LPC*%
G36*
X357959Y218949D02*
X357959Y218949D01*
X357959Y223535D01*
X358132Y224181D01*
X358467Y224760D01*
X358940Y225233D01*
X359519Y225568D01*
X360165Y225741D01*
X363751Y225741D01*
X363751Y218949D01*
X357959Y218949D01*
G37*
%LPD*%
%LPC*%
G36*
X346349Y210459D02*
X346349Y210459D01*
X346349Y216251D01*
X353141Y216251D01*
X353141Y212665D01*
X352968Y212019D01*
X352633Y211440D01*
X352160Y210967D01*
X351581Y210632D01*
X350935Y210459D01*
X346349Y210459D01*
G37*
%LPD*%
%LPC*%
G36*
X335265Y210459D02*
X335265Y210459D01*
X334619Y210632D01*
X334040Y210967D01*
X333567Y211440D01*
X333232Y212019D01*
X333059Y212665D01*
X333059Y216251D01*
X339851Y216251D01*
X339851Y210459D01*
X335265Y210459D01*
G37*
%LPD*%
%LPC*%
G36*
X360165Y205659D02*
X360165Y205659D01*
X359519Y205832D01*
X358940Y206167D01*
X358467Y206640D01*
X358132Y207219D01*
X357959Y207865D01*
X357959Y212451D01*
X363751Y212451D01*
X363751Y205659D01*
X360165Y205659D01*
G37*
%LPD*%
%LPC*%
G36*
X369191Y182059D02*
X369191Y182059D01*
X369191Y188390D01*
X370454Y187980D01*
X371657Y187367D01*
X372750Y186573D01*
X373705Y185618D01*
X374499Y184525D01*
X375112Y183322D01*
X375522Y182059D01*
X369191Y182059D01*
G37*
%LPD*%
%LPC*%
G36*
X369191Y177997D02*
X369191Y177997D01*
X375522Y177997D01*
X375112Y176734D01*
X374499Y175531D01*
X373705Y174438D01*
X372750Y173483D01*
X371657Y172689D01*
X370454Y172076D01*
X369191Y171666D01*
X369191Y177997D01*
G37*
%LPD*%
%LPC*%
G36*
X442059Y158131D02*
X442059Y158131D01*
X442059Y160935D01*
X442232Y161581D01*
X442567Y162160D01*
X443040Y162633D01*
X443619Y162968D01*
X444265Y163141D01*
X446569Y163141D01*
X446569Y158131D01*
X442059Y158131D01*
G37*
%LPD*%
%LPC*%
G36*
X340181Y333531D02*
X340181Y333531D01*
X340181Y337041D01*
X343148Y337041D01*
X343929Y336885D01*
X344664Y336581D01*
X345326Y336139D01*
X345889Y335576D01*
X346331Y334914D01*
X346635Y334179D01*
X346764Y333531D01*
X340181Y333531D01*
G37*
%LPD*%
%LPC*%
G36*
X340181Y314531D02*
X340181Y314531D01*
X340181Y318041D01*
X343148Y318041D01*
X343929Y317885D01*
X344664Y317581D01*
X345326Y317139D01*
X345889Y316576D01*
X346331Y315914D01*
X346635Y315179D01*
X346764Y314531D01*
X340181Y314531D01*
G37*
%LPD*%
%LPC*%
G36*
X329536Y333531D02*
X329536Y333531D01*
X329665Y334179D01*
X329969Y334914D01*
X330411Y335576D01*
X330974Y336139D01*
X331636Y336581D01*
X332371Y336885D01*
X333152Y337041D01*
X336119Y337041D01*
X336119Y333531D01*
X329536Y333531D01*
G37*
%LPD*%
%LPC*%
G36*
X340181Y325959D02*
X340181Y325959D01*
X340181Y329469D01*
X346764Y329469D01*
X346635Y328821D01*
X346331Y328086D01*
X345889Y327424D01*
X345326Y326861D01*
X344664Y326419D01*
X343929Y326115D01*
X343148Y325959D01*
X340181Y325959D01*
G37*
%LPD*%
%LPC*%
G36*
X340181Y306959D02*
X340181Y306959D01*
X340181Y310469D01*
X346764Y310469D01*
X346635Y309821D01*
X346331Y309086D01*
X345889Y308424D01*
X345326Y307861D01*
X344664Y307419D01*
X343929Y307115D01*
X343148Y306959D01*
X340181Y306959D01*
G37*
%LPD*%
%LPC*%
G36*
X333152Y325959D02*
X333152Y325959D01*
X332371Y326115D01*
X331636Y326419D01*
X330974Y326861D01*
X330411Y327424D01*
X329969Y328086D01*
X329665Y328821D01*
X329536Y329469D01*
X336119Y329469D01*
X336119Y325959D01*
X333152Y325959D01*
G37*
%LPD*%
%LPC*%
G36*
X484359Y155631D02*
X484359Y155631D01*
X484359Y157935D01*
X484532Y158581D01*
X484867Y159160D01*
X485340Y159633D01*
X485919Y159968D01*
X486565Y160141D01*
X488869Y160141D01*
X488869Y155631D01*
X484359Y155631D01*
G37*
%LPD*%
%LPC*%
G36*
X480999Y375799D02*
X480999Y375799D01*
X480999Y375801D01*
X481001Y375801D01*
X481001Y375799D01*
X480999Y375799D01*
G37*
%LPD*%
D10*
X280060Y262048D03*
D11*
X280060Y242048D03*
D12*
X343100Y238500D03*
X343100Y219500D03*
D13*
X386000Y215700D03*
X367000Y215700D03*
D12*
X337300Y290800D03*
X337300Y271800D03*
D14*
X366500Y324600D03*
X387500Y324600D03*
D15*
X413807Y245907D02*
X413807Y240093D01*
X409593Y240093D01*
X409593Y245907D01*
X413807Y245907D01*
X413807Y244260D02*
X409593Y244260D01*
X409593Y212307D02*
X409593Y206493D01*
X409593Y212307D02*
X413807Y212307D01*
X413807Y206493D01*
X409593Y206493D01*
X409593Y210660D02*
X413807Y210660D01*
D16*
X274800Y169800D03*
X481000Y375800D03*
D10*
X280060Y345360D03*
D11*
X280060Y325360D03*
D17*
X471900Y153600D03*
X490900Y153600D03*
X481400Y177600D03*
D18*
X429600Y156100D03*
X448600Y156100D03*
X439100Y176100D03*
D12*
X454100Y197100D03*
X454100Y216100D03*
X434900Y216100D03*
X434900Y197100D03*
D19*
X476100Y225820D03*
X476100Y197380D03*
X501100Y225820D03*
X501100Y197380D03*
D12*
X388400Y278000D03*
X388400Y297000D03*
X366600Y297200D03*
X366600Y278200D03*
X315800Y290800D03*
X315800Y271800D03*
D10*
X347160Y180028D03*
D11*
X367160Y180028D03*
D20*
X377472Y375712D03*
D21*
X377472Y396286D02*
X377472Y405938D01*
X377472Y355138D02*
X377472Y345486D01*
X398046Y375712D02*
X407698Y375712D01*
X356898Y375712D02*
X347246Y375712D01*
X394380Y390080D02*
X401204Y396904D01*
X394380Y361344D02*
X401204Y354520D01*
X360564Y361344D02*
X353740Y354520D01*
X360564Y390080D02*
X353740Y396904D01*
D22*
X428188Y332310D03*
X428188Y387310D03*
X308188Y359810D03*
D23*
X359275Y256425D02*
X368425Y256425D01*
X359275Y256425D02*
X359275Y259375D01*
X368425Y259375D01*
X368425Y256425D01*
X368425Y259227D02*
X359275Y259227D01*
X359275Y246925D02*
X368425Y246925D01*
X359275Y246925D02*
X359275Y249875D01*
X368425Y249875D01*
X368425Y246925D01*
X368425Y249727D02*
X359275Y249727D01*
X359275Y237425D02*
X368425Y237425D01*
X359275Y237425D02*
X359275Y240375D01*
X368425Y240375D01*
X368425Y237425D01*
X368425Y240227D02*
X359275Y240227D01*
X384375Y237425D02*
X393525Y237425D01*
X384375Y237425D02*
X384375Y240375D01*
X393525Y240375D01*
X393525Y237425D01*
X393525Y240227D02*
X384375Y240227D01*
X384375Y256425D02*
X393525Y256425D01*
X384375Y256425D02*
X384375Y259375D01*
X393525Y259375D01*
X393525Y256425D01*
X393525Y259227D02*
X384375Y259227D01*
D24*
X317850Y330000D02*
X308650Y330000D01*
X308650Y333000D01*
X317850Y333000D01*
X317850Y330000D01*
X317850Y332850D02*
X308650Y332850D01*
X308650Y320500D02*
X317850Y320500D01*
X308650Y320500D02*
X308650Y323500D01*
X317850Y323500D01*
X317850Y320500D01*
X317850Y323350D02*
X308650Y323350D01*
X308650Y311000D02*
X317850Y311000D01*
X308650Y311000D02*
X308650Y314000D01*
X317850Y314000D01*
X317850Y311000D01*
X317850Y313850D02*
X308650Y313850D01*
X333550Y311000D02*
X342750Y311000D01*
X333550Y311000D02*
X333550Y314000D01*
X342750Y314000D01*
X342750Y311000D01*
X342750Y313850D02*
X333550Y313850D01*
X333550Y330000D02*
X342750Y330000D01*
X333550Y330000D02*
X333550Y333000D01*
X342750Y333000D01*
X342750Y330000D01*
X342750Y332850D02*
X333550Y332850D01*
D25*
X424900Y156100D02*
X429600Y156100D01*
X424900Y156100D02*
X416000Y165000D01*
X416000Y187000D01*
X426100Y197100D02*
X434900Y197100D01*
X426100Y197100D02*
X416000Y187000D01*
X439100Y176100D02*
X448100Y176100D01*
X454100Y182100D02*
X454100Y197100D01*
X454100Y182100D02*
X448100Y176100D01*
X471900Y166100D02*
X471900Y153600D01*
X461900Y176100D02*
X448100Y176100D01*
X461900Y176100D02*
X471900Y166100D01*
X481400Y177600D02*
X476100Y182900D01*
X476100Y197380D01*
X501100Y197380D01*
X476100Y225820D02*
X476100Y297900D01*
X441690Y332310D02*
X428188Y332310D01*
X441690Y332310D02*
X476100Y297900D01*
X448600Y156100D02*
X449580Y155120D01*
X449580Y144018D01*
X451104Y142494D01*
X490728Y142494D01*
X490900Y142666D01*
X490900Y153600D01*
X291360Y325360D02*
X280060Y325360D01*
X299000Y350622D02*
X308188Y359810D01*
X299000Y333000D02*
X291360Y325360D01*
X299000Y333000D02*
X299000Y350622D01*
X404600Y209400D02*
X411700Y209400D01*
X398300Y215700D02*
X389382Y215700D01*
X386000Y215700D01*
X398300Y215700D02*
X404600Y209400D01*
X411700Y209400D02*
X418400Y209400D01*
X425100Y216100D02*
X434900Y216100D01*
X425100Y216100D02*
X418400Y209400D01*
X411000Y284000D02*
X411000Y314000D01*
X400400Y324600D02*
X387500Y324600D01*
X400400Y324600D02*
X411000Y314000D01*
X347160Y190188D02*
X347160Y180028D01*
X354330Y197358D02*
X374904Y197358D01*
X386000Y208454D01*
X386000Y215700D01*
X354330Y197358D02*
X347160Y190188D01*
X386000Y215700D02*
X386000Y225980D01*
X388950Y228930D02*
X388950Y238900D01*
X388950Y228930D02*
X386000Y225980D01*
D26*
X411000Y284000D03*
X398526Y194310D03*
D25*
X389382Y203454D01*
X389382Y215700D01*
X363850Y257900D02*
X366600Y260650D01*
X366600Y278200D01*
X366500Y297300D02*
X366500Y324600D01*
X366500Y297300D02*
X366600Y297200D01*
X388400Y278000D02*
X388400Y258450D01*
X388950Y257900D01*
X363850Y238900D02*
X363450Y238500D01*
X343100Y238500D01*
X453000Y217200D02*
X454100Y216100D01*
X453000Y217200D02*
X453000Y239000D01*
X449000Y243000D01*
X411700Y243000D01*
X294048Y262048D02*
X280060Y262048D01*
X303800Y271800D02*
X315800Y271800D01*
X303800Y271800D02*
X294048Y262048D01*
X324500Y238500D02*
X343100Y238500D01*
X315800Y247200D02*
X315800Y271800D01*
X315800Y247200D02*
X324500Y238500D01*
X363850Y238900D02*
X372250Y238900D01*
X404700Y243000D02*
X411700Y243000D01*
X381000Y247650D02*
X372250Y238900D01*
X381000Y247650D02*
X400050Y247650D01*
X404700Y243000D01*
X315800Y290800D02*
X315800Y302200D01*
X313000Y305000D01*
X313000Y312250D01*
X313250Y312500D01*
X315800Y290800D02*
X317802Y288798D01*
X323850Y288798D01*
X326136Y286512D01*
X326136Y280416D01*
X334752Y271800D01*
X337300Y271800D01*
X501100Y288900D02*
X501100Y225820D01*
X427000Y386122D02*
X428188Y387310D01*
X427000Y363000D02*
X501100Y288900D01*
X427000Y363000D02*
X427000Y386122D01*
X280060Y242048D02*
X260952Y242048D01*
X256000Y247000D01*
X256000Y283000D01*
X304000Y322000D02*
X313250Y322000D01*
X287000Y314000D02*
X256000Y283000D01*
X287000Y314000D02*
X296000Y314000D01*
X304000Y322000D01*
X313250Y322000D02*
X322000Y322000D01*
X326000Y318000D02*
X326000Y301000D01*
X336200Y290800D01*
X337300Y290800D01*
X326000Y318000D02*
X322000Y322000D01*
M02*
