G04 EAGLE Gerber RS-274X export*
G75*
%MOMM*%
%FSLAX34Y34*%
%LPD*%
%INSilkscreen Bottom*%
%IPPOS*%
%AMOC8*
5,1,8,0,0,1.08239X$1,22.5*%
G01*
%ADD10R,1.066800X0.076200*%
%ADD11R,0.685800X0.076200*%
%ADD12R,1.600200X0.076200*%
%ADD13R,2.590800X0.076200*%
%ADD14R,2.514600X0.076200*%
%ADD15R,2.438400X0.076200*%
%ADD16R,2.362200X0.076200*%
%ADD17R,2.286000X0.076200*%
%ADD18R,0.076200X0.076200*%
%ADD19R,2.133600X0.076200*%
%ADD20R,0.152400X0.076200*%
%ADD21R,2.057400X0.076200*%
%ADD22R,0.381000X0.076200*%
%ADD23R,1.905000X0.076200*%
%ADD24R,0.533400X0.076200*%
%ADD25R,1.828800X0.076200*%
%ADD26R,1.676400X0.076200*%
%ADD27R,0.762000X0.076200*%
%ADD28R,0.609600X0.076200*%
%ADD29R,1.752600X0.076200*%
%ADD30R,0.914400X0.076200*%
%ADD31R,0.228600X0.076200*%
%ADD32R,1.143000X0.076200*%
%ADD33R,0.304800X0.076200*%
%ADD34R,1.295400X0.076200*%
%ADD35R,1.447800X0.076200*%
%ADD36R,1.371600X0.076200*%
%ADD37R,0.457200X0.076200*%
%ADD38R,1.524000X0.076200*%
%ADD39R,1.219200X0.076200*%
%ADD40R,2.209800X0.076200*%
%ADD41R,0.990600X0.076200*%
%ADD42R,0.838200X0.076200*%
%ADD43R,3.352800X0.076200*%
%ADD44R,3.276600X0.076200*%
%ADD45R,3.124200X0.076200*%
%ADD46R,2.895600X0.076200*%
%ADD47R,2.743200X0.076200*%
%ADD48R,2.667000X0.076200*%
%ADD49R,3.200400X0.076200*%
%ADD50R,4.114800X0.076200*%
%ADD51R,4.038600X0.076200*%
%ADD52R,3.962400X0.076200*%
%ADD53R,3.886200X0.076200*%
%ADD54R,3.810000X0.076200*%
%ADD55R,3.733800X0.076200*%
%ADD56R,3.657600X0.076200*%
%ADD57R,3.581400X0.076200*%
%ADD58R,3.429000X0.076200*%
%ADD59R,2.971800X0.076200*%
%ADD60R,2.819400X0.076200*%
%ADD61C,0.152400*%
%ADD62R,0.007619X0.007619*%
%ADD63R,0.030481X0.007619*%
%ADD64R,0.045719X0.007619*%
%ADD65R,0.060956X0.007619*%
%ADD66R,0.076200X0.007619*%
%ADD67R,0.091438X0.007619*%
%ADD68R,0.099063X0.007619*%
%ADD69R,0.114300X0.007619*%
%ADD70R,0.137156X0.007619*%
%ADD71R,0.152400X0.007619*%
%ADD72R,0.167637X0.007619*%
%ADD73R,0.182881X0.007619*%
%ADD74R,0.022863X0.007619*%
%ADD75R,0.038100X0.007619*%
%ADD76R,0.182875X0.007619*%
%ADD77R,0.053338X0.007619*%
%ADD78R,0.106681X0.007619*%
%ADD79R,0.121919X0.007619*%
%ADD80R,0.190500X0.007619*%
%ADD81R,0.175256X0.007619*%
%ADD82R,0.175263X0.007619*%
%ADD83R,0.320038X0.007619*%
%ADD84R,0.137162X0.007619*%
%ADD85R,0.198119X0.007619*%
%ADD86R,0.259081X0.007619*%
%ADD87R,0.289563X0.007619*%
%ADD88R,0.335281X0.007619*%
%ADD89R,0.365762X0.007619*%
%ADD90R,0.396238X0.007619*%
%ADD91R,0.426719X0.007619*%
%ADD92R,0.441963X0.007619*%
%ADD93R,0.472438X0.007619*%
%ADD94R,0.487681X0.007619*%
%ADD95R,0.518162X0.007619*%
%ADD96R,0.533400X0.007619*%
%ADD97R,0.548638X0.007619*%
%ADD98R,0.563881X0.007619*%
%ADD99R,0.579119X0.007619*%
%ADD100R,0.594363X0.007619*%
%ADD101R,0.236219X0.007619*%
%ADD102R,0.220981X0.007619*%
%ADD103R,0.213356X0.007619*%
%ADD104R,0.205738X0.007619*%
%ADD105R,0.160019X0.007619*%
%ADD106R,0.060963X0.007619*%
%ADD107R,0.144775X0.007619*%
%ADD108R,0.144781X0.007619*%
%ADD109R,0.213363X0.007619*%
%ADD110R,0.228600X0.007619*%
%ADD111R,0.243838X0.007619*%
%ADD112R,1.485900X0.007619*%
%ADD113R,1.478281X0.007619*%
%ADD114R,0.274319X0.007619*%
%ADD115R,1.470656X0.007619*%
%ADD116R,0.304800X0.007619*%
%ADD117R,0.129537X0.007619*%
%ADD118R,1.478275X0.007619*%
%ADD119R,0.068575X0.007619*%
%ADD120R,0.312419X0.007619*%
%ADD121R,0.068581X0.007619*%
%ADD122R,0.365756X0.007619*%
%ADD123R,0.373381X0.007619*%
%ADD124R,0.388619X0.007619*%
%ADD125R,0.220975X0.007619*%
%ADD126R,0.403856X0.007619*%
%ADD127R,0.411475X0.007619*%
%ADD128R,0.251456X0.007619*%
%ADD129R,0.434338X0.007619*%
%ADD130R,0.297181X0.007619*%
%ADD131R,0.480063X0.007619*%
%ADD132R,0.777238X0.007619*%
%ADD133R,0.762000X0.007619*%
%ADD134R,0.746756X0.007619*%
%ADD135R,0.731519X0.007619*%
%ADD136R,0.502919X0.007619*%
%ADD137R,0.457200X0.007619*%
%ADD138R,0.411481X0.007619*%
%ADD139R,0.373375X0.007619*%
%ADD140R,0.358137X0.007619*%
%ADD141R,0.335275X0.007619*%
%ADD142R,0.251463X0.007619*%
%ADD143R,0.259075X0.007619*%
%ADD144R,0.266700X0.007619*%
%ADD145R,0.342900X0.007619*%
%ADD146R,0.327663X0.007619*%
%ADD147R,0.289556X0.007619*%
%ADD148R,0.297175X0.007619*%
%ADD149R,0.327656X0.007619*%
%ADD150R,0.350519X0.007619*%
%ADD151R,0.975356X0.007619*%
%ADD152R,0.990600X0.007619*%
%ADD153R,0.998219X0.007619*%
%ADD154R,1.005837X0.007619*%
%ADD155R,1.013456X0.007619*%
%ADD156R,1.021081X0.007619*%
%ADD157R,1.028700X0.007619*%
%ADD158R,1.036319X0.007619*%
%ADD159R,1.043937X0.007619*%
%ADD160R,1.051556X0.007619*%
%ADD161R,1.059181X0.007619*%
%ADD162R,1.066800X0.007619*%
%ADD163R,1.074419X0.007619*%
%ADD164R,1.082037X0.007619*%
%ADD165R,1.089656X0.007619*%
%ADD166R,1.097281X0.007619*%
%ADD167R,1.104900X0.007619*%
%ADD168R,1.112519X0.007619*%
%ADD169R,1.120138X0.007619*%
%ADD170R,1.127756X0.007619*%
%ADD171R,0.937256X0.007619*%
%ADD172R,0.685800X0.007619*%
%ADD173R,0.678181X0.007619*%
%ADD174R,0.670563X0.007619*%
%ADD175R,0.662938X0.007619*%
%ADD176R,0.655319X0.007619*%
%ADD177R,0.647700X0.007619*%
%ADD178R,0.640081X0.007619*%
%ADD179R,0.632463X0.007619*%
%ADD180R,0.624838X0.007619*%
%ADD181R,0.617219X0.007619*%
%ADD182R,0.083819X0.007619*%
%ADD183R,2.926075X0.007619*%
%ADD184R,2.941319X0.007619*%
%ADD185R,2.948937X0.007619*%
%ADD186R,2.971800X0.007619*%
%ADD187R,2.994656X0.007619*%
%ADD188R,3.002281X0.007619*%
%ADD189R,3.017519X0.007619*%
%ADD190R,3.025138X0.007619*%
%ADD191R,3.040381X0.007619*%
%ADD192R,3.048000X0.007619*%
%ADD193R,3.055619X0.007619*%
%ADD194R,3.063238X0.007619*%
%ADD195R,3.070856X0.007619*%
%ADD196R,3.078481X0.007619*%
%ADD197R,3.086100X0.007619*%
%ADD198R,3.093719X0.007619*%
%ADD199R,3.101338X0.007619*%
%ADD200R,0.419100X0.007619*%
%ADD201R,0.441956X0.007619*%
%ADD202R,0.449581X0.007619*%
%ADD203R,0.449575X0.007619*%
%ADD204R,0.464819X0.007619*%
%ADD205R,0.480056X0.007619*%
%ADD206R,0.099056X0.007619*%
%ADD207R,0.106675X0.007619*%
%ADD208R,0.281938X0.007619*%
%ADD209R,0.784863X0.007619*%
%ADD210R,0.015238X0.007619*%
%ADD211R,0.022856X0.007619*%
%ADD212C,0.203200*%
%ADD213C,0.254000*%
%ADD214C,0.127000*%


D10*
X371475Y224028D03*
D11*
X386334Y224790D03*
D12*
X371856Y224790D03*
D13*
X374523Y225552D03*
D14*
X372618Y226314D03*
D15*
X370713Y227076D03*
D16*
X369570Y227838D03*
D17*
X367665Y228600D03*
D18*
X384810Y229362D03*
D19*
X366141Y229362D03*
D20*
X384429Y230124D03*
D21*
X364998Y230124D03*
D22*
X384048Y230886D03*
D23*
X363474Y230886D03*
D24*
X383286Y231648D03*
D25*
X361569Y231648D03*
D11*
X382524Y232410D03*
D26*
X360045Y232410D03*
D27*
X382143Y233172D03*
D26*
X359283Y233172D03*
D27*
X381381Y233934D03*
D23*
X360426Y233934D03*
D28*
X382143Y234696D03*
D25*
X359283Y234696D03*
D20*
X392811Y235458D03*
D27*
X381381Y235458D03*
D29*
X358140Y235458D03*
D20*
X392049Y236220D03*
D30*
X380619Y236220D03*
D29*
X357378Y236220D03*
D31*
X390906Y236982D03*
D10*
X379857Y236982D03*
D26*
X356235Y236982D03*
D20*
X400431Y237744D03*
D31*
X390144Y237744D03*
D32*
X378714Y237744D03*
D12*
X355092Y237744D03*
D33*
X398907Y238506D03*
D31*
X389382Y238506D03*
D34*
X377952Y238506D03*
D35*
X354330Y238506D03*
D33*
X397383Y239268D03*
X388239Y239268D03*
D35*
X377190Y239268D03*
D36*
X353187Y239268D03*
D37*
X395859Y240030D03*
D20*
X388239Y240030D03*
D38*
X376047Y240030D03*
D36*
X352425Y240030D03*
D24*
X394716Y240792D03*
D18*
X388620Y240792D03*
D26*
X375285Y240792D03*
D39*
X351663Y240792D03*
D11*
X393192Y241554D03*
D12*
X374904Y241554D03*
D39*
X350901Y241554D03*
D28*
X392049Y242316D03*
D18*
X385572Y242316D03*
D38*
X375285Y242316D03*
D36*
X351663Y242316D03*
D37*
X392049Y243078D03*
D20*
X385953Y243078D03*
D26*
X373761Y243078D03*
D36*
X350901Y243078D03*
D22*
X391668Y243840D03*
D33*
X385953Y243840D03*
D25*
X372237Y243840D03*
D34*
X349758Y243840D03*
D31*
X391668Y244602D03*
D37*
X385953Y244602D03*
D23*
X371094Y244602D03*
D39*
X349377Y244602D03*
D18*
X391668Y245364D03*
D37*
X385953Y245364D03*
D21*
X369570Y245364D03*
D32*
X348234Y245364D03*
D28*
X385953Y246126D03*
D40*
X368046Y246126D03*
D10*
X347853Y246126D03*
D22*
X396240Y246888D03*
D11*
X385572Y246888D03*
D17*
X366903Y246888D03*
D41*
X346710Y246888D03*
D37*
X394335Y247650D03*
D42*
X385572Y247650D03*
D16*
X364998Y247650D03*
D30*
X346329Y247650D03*
D33*
X393573Y248412D03*
D30*
X385191Y248412D03*
D14*
X363474Y248412D03*
D42*
X345186Y248412D03*
D18*
X393192Y249174D03*
D10*
X384429Y249174D03*
D43*
X357759Y249174D03*
D39*
X384429Y249936D03*
D44*
X356616Y249936D03*
D20*
X393573Y250698D03*
D36*
X383667Y250698D03*
D45*
X355854Y250698D03*
D35*
X400050Y251460D03*
X383286Y251460D03*
D46*
X354711Y251460D03*
D32*
X398526Y252222D03*
D12*
X382524Y252222D03*
D47*
X353187Y252222D03*
D27*
X397383Y252984D03*
D25*
X381381Y252984D03*
D16*
X350520Y252984D03*
D37*
X395859Y253746D03*
D21*
X381000Y253746D03*
D12*
X347472Y253746D03*
D20*
X394335Y254508D03*
D16*
X379476Y254508D03*
D48*
X377952Y255270D03*
D49*
X375285Y256032D03*
D50*
X370713Y256794D03*
D33*
X395097Y257556D03*
D50*
X370713Y257556D03*
D37*
X344805Y257556D03*
D11*
X397002Y258318D03*
D51*
X370332Y258318D03*
D42*
X343662Y258318D03*
D11*
X396240Y259080D03*
D51*
X370332Y259080D03*
D41*
X342900Y259080D03*
D51*
X370332Y259842D03*
D18*
X393192Y260604D03*
D51*
X370332Y260604D03*
D18*
X347472Y260604D03*
D31*
X393954Y261366D03*
D52*
X370713Y261366D03*
D31*
X346710Y261366D03*
D22*
X394716Y262128D03*
D53*
X370332Y262128D03*
D37*
X346329Y262128D03*
D28*
X395097Y262890D03*
D53*
X370332Y262890D03*
D28*
X345567Y262890D03*
D42*
X396240Y263652D03*
D54*
X370713Y263652D03*
D27*
X344805Y263652D03*
D41*
X397002Y264414D03*
D55*
X370332Y264414D03*
D41*
X344424Y264414D03*
D11*
X400050Y265176D03*
D56*
X370713Y265176D03*
D27*
X341757Y265176D03*
D22*
X403098Y265938D03*
D57*
X370332Y265938D03*
D37*
X338709Y265938D03*
D20*
X391287Y266700D03*
D58*
X370332Y266700D03*
D20*
X349377Y266700D03*
X335661Y266700D03*
D33*
X391287Y267462D03*
D43*
X370713Y267462D03*
D33*
X349377Y267462D03*
D22*
X391668Y268224D03*
D44*
X370332Y268224D03*
D22*
X348996Y268224D03*
D33*
X393573Y268986D03*
D45*
X370332Y268986D03*
D31*
X347472Y268986D03*
X394716Y269748D03*
D20*
X389001Y269748D03*
D59*
X370332Y269748D03*
D20*
X351663Y269748D03*
D31*
X345948Y269748D03*
D18*
X396240Y270510D03*
D33*
X389001Y270510D03*
D60*
X370332Y270510D03*
D33*
X351663Y270510D03*
D20*
X344805Y270510D03*
D22*
X389382Y271272D03*
D48*
X370332Y271272D03*
D22*
X352044Y271272D03*
D24*
X389382Y272034D03*
D14*
X370332Y272034D03*
D24*
X352044Y272034D03*
X389382Y272796D03*
D17*
X370713Y272796D03*
D24*
X351282Y272796D03*
D37*
X390525Y273558D03*
D21*
X370332Y273558D03*
D18*
X355854Y273558D03*
D24*
X350520Y273558D03*
D37*
X391287Y274320D03*
D20*
X384429Y274320D03*
D29*
X370332Y274320D03*
D20*
X356235Y274320D03*
D37*
X349377Y274320D03*
D22*
X392430Y275082D03*
D33*
X384429Y275082D03*
D34*
X370332Y275082D03*
D33*
X356235Y275082D03*
D22*
X348996Y275082D03*
D33*
X393573Y275844D03*
X385191Y275844D03*
D18*
X381762Y275844D03*
D27*
X370713Y275844D03*
D20*
X359283Y275844D03*
D31*
X355854Y275844D03*
D33*
X347853Y275844D03*
X394335Y276606D03*
D31*
X385572Y276606D03*
X381000Y276606D03*
D33*
X360045Y276606D03*
D31*
X355092Y276606D03*
D33*
X347091Y276606D03*
D20*
X395097Y277368D03*
X385953Y277368D03*
D37*
X380619Y277368D03*
X360807Y277368D03*
D20*
X354711Y277368D03*
D31*
X345948Y277368D03*
D20*
X395859Y278130D03*
X386715Y278130D03*
D37*
X380619Y278130D03*
D18*
X375666Y278130D03*
D31*
X364998Y278130D03*
D22*
X360426Y278130D03*
D20*
X353949Y278130D03*
D31*
X345186Y278130D03*
D20*
X387477Y278892D03*
D22*
X381000Y278892D03*
D31*
X375666Y278892D03*
D22*
X370332Y278892D03*
D33*
X365379Y278892D03*
D22*
X359664Y278892D03*
D18*
X353568Y278892D03*
D20*
X344043Y278892D03*
D18*
X387858Y279654D03*
D33*
X381381Y279654D03*
D31*
X375666Y279654D03*
D22*
X370332Y279654D03*
D31*
X364998Y279654D03*
D22*
X359664Y279654D03*
D18*
X343662Y279654D03*
D22*
X381762Y280416D03*
D31*
X375666Y280416D03*
D22*
X370332Y280416D03*
D31*
X364998Y280416D03*
D33*
X359283Y280416D03*
X382143Y281178D03*
D20*
X376047Y281178D03*
D22*
X370332Y281178D03*
D31*
X364998Y281178D03*
D33*
X358521Y281178D03*
D31*
X382524Y281940D03*
D20*
X376047Y281940D03*
D22*
X370332Y281940D03*
D20*
X364617Y281940D03*
D33*
X358521Y281940D03*
X382905Y282702D03*
D20*
X376047Y282702D03*
D22*
X370332Y282702D03*
D20*
X364617Y282702D03*
D31*
X358140Y282702D03*
X383286Y283464D03*
D18*
X376428Y283464D03*
D31*
X370332Y283464D03*
D20*
X364617Y283464D03*
D31*
X358140Y283464D03*
D20*
X383667Y284226D03*
D18*
X376428Y284226D03*
D31*
X370332Y284226D03*
D18*
X364236Y284226D03*
D31*
X357378Y284226D03*
D20*
X383667Y284988D03*
D18*
X376428Y284988D03*
D31*
X370332Y284988D03*
D18*
X364236Y284988D03*
D20*
X356997Y284988D03*
X384429Y285750D03*
D31*
X370332Y285750D03*
D18*
X364236Y285750D03*
D20*
X356997Y285750D03*
X384429Y286512D03*
D31*
X370332Y286512D03*
D18*
X356616Y286512D03*
X384810Y287274D03*
D31*
X370332Y287274D03*
D18*
X355854Y287274D03*
D20*
X370713Y288036D03*
D18*
X355854Y288036D03*
X370332Y288798D03*
X370332Y289560D03*
X370332Y290322D03*
X370332Y291084D03*
X370332Y291846D03*
D61*
X419862Y215082D02*
X419862Y212146D01*
X419862Y215082D02*
X419860Y215167D01*
X419854Y215251D01*
X419844Y215335D01*
X419831Y215419D01*
X419813Y215502D01*
X419792Y215584D01*
X419767Y215665D01*
X419738Y215745D01*
X419706Y215823D01*
X419670Y215899D01*
X419630Y215974D01*
X419587Y216047D01*
X419541Y216118D01*
X419492Y216187D01*
X419439Y216254D01*
X419383Y216318D01*
X419325Y216379D01*
X419264Y216437D01*
X419200Y216493D01*
X419133Y216546D01*
X419064Y216595D01*
X418993Y216641D01*
X418920Y216684D01*
X418845Y216724D01*
X418769Y216760D01*
X418691Y216792D01*
X418611Y216821D01*
X418530Y216846D01*
X418448Y216867D01*
X418365Y216885D01*
X418281Y216898D01*
X418197Y216908D01*
X418113Y216914D01*
X418028Y216916D01*
X417943Y216914D01*
X417859Y216908D01*
X417775Y216898D01*
X417691Y216885D01*
X417608Y216867D01*
X417526Y216846D01*
X417445Y216821D01*
X417365Y216792D01*
X417287Y216760D01*
X417211Y216724D01*
X417136Y216684D01*
X417063Y216641D01*
X416992Y216595D01*
X416923Y216546D01*
X416856Y216493D01*
X416792Y216437D01*
X416731Y216379D01*
X416673Y216318D01*
X416617Y216254D01*
X416564Y216187D01*
X416515Y216118D01*
X416469Y216047D01*
X416426Y215974D01*
X416386Y215899D01*
X416350Y215823D01*
X416318Y215745D01*
X416289Y215665D01*
X416264Y215584D01*
X416243Y215502D01*
X416225Y215419D01*
X416212Y215335D01*
X416202Y215251D01*
X416196Y215167D01*
X416194Y215082D01*
X416193Y215082D02*
X416193Y212146D01*
X416194Y212146D02*
X416196Y212061D01*
X416202Y211977D01*
X416212Y211893D01*
X416225Y211809D01*
X416243Y211726D01*
X416264Y211644D01*
X416289Y211563D01*
X416318Y211483D01*
X416350Y211405D01*
X416386Y211329D01*
X416426Y211254D01*
X416469Y211181D01*
X416515Y211110D01*
X416564Y211041D01*
X416617Y210974D01*
X416673Y210910D01*
X416731Y210849D01*
X416792Y210791D01*
X416856Y210735D01*
X416923Y210682D01*
X416992Y210633D01*
X417063Y210587D01*
X417136Y210544D01*
X417211Y210504D01*
X417287Y210468D01*
X417365Y210436D01*
X417445Y210407D01*
X417526Y210382D01*
X417608Y210361D01*
X417691Y210343D01*
X417775Y210330D01*
X417859Y210320D01*
X417943Y210314D01*
X418028Y210312D01*
X418113Y210314D01*
X418197Y210320D01*
X418281Y210330D01*
X418365Y210343D01*
X418448Y210361D01*
X418530Y210382D01*
X418611Y210407D01*
X418691Y210436D01*
X418769Y210468D01*
X418845Y210504D01*
X418920Y210544D01*
X418993Y210587D01*
X419064Y210633D01*
X419133Y210682D01*
X419200Y210735D01*
X419264Y210791D01*
X419325Y210849D01*
X419383Y210910D01*
X419439Y210974D01*
X419492Y211041D01*
X419541Y211110D01*
X419587Y211181D01*
X419630Y211254D01*
X419670Y211329D01*
X419706Y211405D01*
X419738Y211483D01*
X419767Y211563D01*
X419792Y211644D01*
X419813Y211726D01*
X419831Y211809D01*
X419844Y211893D01*
X419854Y211977D01*
X419860Y212061D01*
X419862Y212146D01*
X412361Y214715D02*
X412361Y208111D01*
X412361Y214715D02*
X410526Y214715D01*
X410462Y214713D01*
X410398Y214708D01*
X410335Y214698D01*
X410272Y214685D01*
X410210Y214669D01*
X410149Y214649D01*
X410090Y214625D01*
X410032Y214598D01*
X409976Y214567D01*
X409921Y214534D01*
X409869Y214497D01*
X409818Y214457D01*
X409770Y214415D01*
X409725Y214370D01*
X409683Y214322D01*
X409643Y214271D01*
X409606Y214219D01*
X409573Y214165D01*
X409542Y214108D01*
X409515Y214050D01*
X409491Y213991D01*
X409471Y213930D01*
X409455Y213868D01*
X409442Y213805D01*
X409432Y213742D01*
X409427Y213678D01*
X409425Y213614D01*
X409426Y213614D02*
X409426Y211413D01*
X409425Y211413D02*
X409427Y211349D01*
X409432Y211285D01*
X409442Y211222D01*
X409455Y211159D01*
X409471Y211097D01*
X409491Y211036D01*
X409515Y210977D01*
X409542Y210919D01*
X409573Y210863D01*
X409606Y210808D01*
X409643Y210756D01*
X409683Y210705D01*
X409725Y210657D01*
X409770Y210612D01*
X409818Y210570D01*
X409869Y210530D01*
X409921Y210493D01*
X409976Y210460D01*
X410032Y210429D01*
X410090Y210402D01*
X410149Y210378D01*
X410210Y210358D01*
X410272Y210342D01*
X410335Y210329D01*
X410398Y210319D01*
X410462Y210314D01*
X410526Y210312D01*
X412361Y210312D01*
X404983Y210312D02*
X403149Y210312D01*
X404983Y210312D02*
X405047Y210314D01*
X405111Y210319D01*
X405174Y210329D01*
X405237Y210342D01*
X405299Y210358D01*
X405360Y210378D01*
X405419Y210402D01*
X405477Y210429D01*
X405534Y210460D01*
X405588Y210493D01*
X405640Y210530D01*
X405691Y210570D01*
X405739Y210612D01*
X405784Y210657D01*
X405826Y210705D01*
X405866Y210756D01*
X405903Y210808D01*
X405937Y210863D01*
X405967Y210919D01*
X405994Y210977D01*
X406018Y211036D01*
X406038Y211097D01*
X406054Y211159D01*
X406067Y211222D01*
X406077Y211285D01*
X406082Y211349D01*
X406084Y211413D01*
X406084Y213247D01*
X406082Y213323D01*
X406076Y213398D01*
X406067Y213473D01*
X406053Y213547D01*
X406036Y213621D01*
X406014Y213693D01*
X405990Y213765D01*
X405961Y213835D01*
X405929Y213903D01*
X405894Y213970D01*
X405855Y214035D01*
X405812Y214098D01*
X405767Y214158D01*
X405719Y214216D01*
X405667Y214272D01*
X405613Y214324D01*
X405556Y214374D01*
X405497Y214421D01*
X405436Y214465D01*
X405372Y214506D01*
X405306Y214543D01*
X405238Y214577D01*
X405169Y214607D01*
X405098Y214634D01*
X405026Y214657D01*
X404953Y214676D01*
X404879Y214691D01*
X404804Y214703D01*
X404729Y214711D01*
X404654Y214715D01*
X404578Y214715D01*
X404503Y214711D01*
X404428Y214703D01*
X404353Y214691D01*
X404279Y214676D01*
X404206Y214657D01*
X404134Y214634D01*
X404063Y214607D01*
X403994Y214577D01*
X403926Y214543D01*
X403860Y214506D01*
X403796Y214465D01*
X403735Y214421D01*
X403676Y214374D01*
X403619Y214324D01*
X403565Y214272D01*
X403513Y214216D01*
X403465Y214158D01*
X403420Y214098D01*
X403377Y214035D01*
X403338Y213970D01*
X403303Y213903D01*
X403271Y213835D01*
X403242Y213765D01*
X403218Y213693D01*
X403196Y213621D01*
X403179Y213547D01*
X403165Y213473D01*
X403156Y213398D01*
X403150Y213323D01*
X403148Y213247D01*
X403149Y213247D02*
X403149Y212513D01*
X406084Y212513D01*
X399500Y210312D02*
X399500Y214715D01*
X397666Y214715D01*
X397602Y214713D01*
X397538Y214708D01*
X397475Y214698D01*
X397412Y214685D01*
X397350Y214669D01*
X397289Y214649D01*
X397230Y214625D01*
X397172Y214598D01*
X397116Y214567D01*
X397061Y214534D01*
X397009Y214497D01*
X396958Y214457D01*
X396910Y214415D01*
X396865Y214370D01*
X396823Y214322D01*
X396783Y214271D01*
X396746Y214219D01*
X396713Y214165D01*
X396682Y214108D01*
X396655Y214050D01*
X396631Y213991D01*
X396611Y213930D01*
X396595Y213868D01*
X396582Y213805D01*
X396572Y213742D01*
X396567Y213678D01*
X396565Y213614D01*
X396565Y210312D01*
X386082Y213981D02*
X384982Y213981D01*
X384982Y210312D01*
X387183Y210312D01*
X387257Y210314D01*
X387332Y210320D01*
X387405Y210329D01*
X387479Y210342D01*
X387551Y210359D01*
X387622Y210379D01*
X387693Y210403D01*
X387762Y210431D01*
X387830Y210462D01*
X387895Y210496D01*
X387960Y210534D01*
X388022Y210575D01*
X388082Y210619D01*
X388139Y210666D01*
X388194Y210716D01*
X388247Y210769D01*
X388297Y210824D01*
X388344Y210881D01*
X388388Y210941D01*
X388429Y211003D01*
X388467Y211068D01*
X388501Y211134D01*
X388532Y211201D01*
X388560Y211270D01*
X388584Y211341D01*
X388604Y211412D01*
X388621Y211485D01*
X388634Y211558D01*
X388643Y211632D01*
X388649Y211706D01*
X388651Y211780D01*
X388651Y215448D01*
X388649Y215522D01*
X388643Y215597D01*
X388634Y215670D01*
X388621Y215743D01*
X388604Y215816D01*
X388584Y215887D01*
X388560Y215958D01*
X388532Y216027D01*
X388501Y216094D01*
X388467Y216160D01*
X388429Y216225D01*
X388388Y216287D01*
X388344Y216347D01*
X388297Y216404D01*
X388247Y216459D01*
X388194Y216512D01*
X388139Y216562D01*
X388082Y216609D01*
X388022Y216653D01*
X387960Y216694D01*
X387895Y216732D01*
X387830Y216766D01*
X387762Y216797D01*
X387693Y216825D01*
X387623Y216849D01*
X387551Y216869D01*
X387479Y216886D01*
X387405Y216899D01*
X387332Y216908D01*
X387257Y216914D01*
X387183Y216916D01*
X384982Y216916D01*
X380897Y214715D02*
X380897Y210312D01*
X380897Y214715D02*
X378696Y214715D01*
X378696Y213981D01*
X374991Y210312D02*
X373157Y210312D01*
X374991Y210312D02*
X375055Y210314D01*
X375119Y210319D01*
X375182Y210329D01*
X375245Y210342D01*
X375307Y210358D01*
X375368Y210378D01*
X375427Y210402D01*
X375485Y210429D01*
X375542Y210460D01*
X375596Y210493D01*
X375648Y210530D01*
X375699Y210570D01*
X375747Y210612D01*
X375792Y210657D01*
X375834Y210705D01*
X375874Y210756D01*
X375911Y210808D01*
X375945Y210863D01*
X375975Y210919D01*
X376002Y210977D01*
X376026Y211036D01*
X376046Y211097D01*
X376062Y211159D01*
X376075Y211222D01*
X376085Y211285D01*
X376090Y211349D01*
X376092Y211413D01*
X376092Y213247D01*
X376090Y213323D01*
X376084Y213398D01*
X376075Y213473D01*
X376061Y213547D01*
X376044Y213621D01*
X376022Y213693D01*
X375998Y213765D01*
X375969Y213835D01*
X375937Y213903D01*
X375902Y213970D01*
X375863Y214035D01*
X375820Y214098D01*
X375775Y214158D01*
X375727Y214216D01*
X375675Y214272D01*
X375621Y214324D01*
X375564Y214374D01*
X375505Y214421D01*
X375444Y214465D01*
X375380Y214506D01*
X375314Y214543D01*
X375246Y214577D01*
X375177Y214607D01*
X375106Y214634D01*
X375034Y214657D01*
X374961Y214676D01*
X374887Y214691D01*
X374812Y214703D01*
X374737Y214711D01*
X374662Y214715D01*
X374586Y214715D01*
X374511Y214711D01*
X374436Y214703D01*
X374361Y214691D01*
X374287Y214676D01*
X374214Y214657D01*
X374142Y214634D01*
X374071Y214607D01*
X374002Y214577D01*
X373934Y214543D01*
X373868Y214506D01*
X373804Y214465D01*
X373743Y214421D01*
X373684Y214374D01*
X373627Y214324D01*
X373573Y214272D01*
X373521Y214216D01*
X373473Y214158D01*
X373428Y214098D01*
X373385Y214035D01*
X373346Y213970D01*
X373311Y213903D01*
X373279Y213835D01*
X373250Y213765D01*
X373226Y213693D01*
X373204Y213621D01*
X373187Y213547D01*
X373173Y213473D01*
X373164Y213398D01*
X373158Y213323D01*
X373156Y213247D01*
X373157Y213247D02*
X373157Y212513D01*
X376092Y212513D01*
X368651Y210312D02*
X366817Y210312D01*
X368651Y210312D02*
X368715Y210314D01*
X368779Y210319D01*
X368842Y210329D01*
X368905Y210342D01*
X368967Y210358D01*
X369028Y210378D01*
X369087Y210402D01*
X369145Y210429D01*
X369202Y210460D01*
X369256Y210493D01*
X369308Y210530D01*
X369359Y210570D01*
X369407Y210612D01*
X369452Y210657D01*
X369494Y210705D01*
X369534Y210756D01*
X369571Y210808D01*
X369605Y210863D01*
X369635Y210919D01*
X369662Y210977D01*
X369686Y211036D01*
X369706Y211097D01*
X369722Y211159D01*
X369735Y211222D01*
X369745Y211285D01*
X369750Y211349D01*
X369752Y211413D01*
X369752Y213247D01*
X369750Y213323D01*
X369744Y213398D01*
X369735Y213473D01*
X369721Y213547D01*
X369704Y213621D01*
X369682Y213693D01*
X369658Y213765D01*
X369629Y213835D01*
X369597Y213903D01*
X369562Y213970D01*
X369523Y214035D01*
X369480Y214098D01*
X369435Y214158D01*
X369387Y214216D01*
X369335Y214272D01*
X369281Y214324D01*
X369224Y214374D01*
X369165Y214421D01*
X369104Y214465D01*
X369040Y214506D01*
X368974Y214543D01*
X368906Y214577D01*
X368837Y214607D01*
X368766Y214634D01*
X368694Y214657D01*
X368621Y214676D01*
X368547Y214691D01*
X368472Y214703D01*
X368397Y214711D01*
X368322Y214715D01*
X368246Y214715D01*
X368171Y214711D01*
X368096Y214703D01*
X368021Y214691D01*
X367947Y214676D01*
X367874Y214657D01*
X367802Y214634D01*
X367731Y214607D01*
X367662Y214577D01*
X367594Y214543D01*
X367528Y214506D01*
X367464Y214465D01*
X367403Y214421D01*
X367344Y214374D01*
X367287Y214324D01*
X367233Y214272D01*
X367181Y214216D01*
X367133Y214158D01*
X367088Y214098D01*
X367045Y214035D01*
X367006Y213970D01*
X366971Y213903D01*
X366939Y213835D01*
X366910Y213765D01*
X366886Y213693D01*
X366864Y213621D01*
X366847Y213547D01*
X366833Y213473D01*
X366824Y213398D01*
X366818Y213323D01*
X366816Y213247D01*
X366817Y213247D02*
X366817Y212513D01*
X369752Y212513D01*
X363168Y210312D02*
X363168Y214715D01*
X361334Y214715D01*
X361270Y214713D01*
X361206Y214708D01*
X361143Y214698D01*
X361080Y214685D01*
X361018Y214669D01*
X360957Y214649D01*
X360898Y214625D01*
X360840Y214598D01*
X360784Y214567D01*
X360729Y214534D01*
X360677Y214497D01*
X360626Y214457D01*
X360578Y214415D01*
X360533Y214370D01*
X360491Y214322D01*
X360451Y214271D01*
X360414Y214219D01*
X360381Y214165D01*
X360350Y214108D01*
X360323Y214050D01*
X360299Y213991D01*
X360279Y213930D01*
X360263Y213868D01*
X360250Y213805D01*
X360240Y213742D01*
X360235Y213678D01*
X360233Y213614D01*
X360233Y210312D01*
X352294Y210312D02*
X349359Y210312D01*
X352294Y210312D02*
X352294Y216916D01*
X349359Y216916D01*
X350093Y213981D02*
X352294Y213981D01*
X346100Y214715D02*
X346100Y210312D01*
X346100Y214715D02*
X344265Y214715D01*
X344201Y214713D01*
X344137Y214708D01*
X344074Y214698D01*
X344011Y214685D01*
X343949Y214669D01*
X343888Y214649D01*
X343829Y214625D01*
X343771Y214598D01*
X343715Y214567D01*
X343660Y214534D01*
X343608Y214497D01*
X343557Y214457D01*
X343509Y214415D01*
X343464Y214370D01*
X343422Y214322D01*
X343382Y214271D01*
X343345Y214219D01*
X343312Y214165D01*
X343281Y214108D01*
X343254Y214050D01*
X343230Y213991D01*
X343210Y213930D01*
X343194Y213868D01*
X343181Y213805D01*
X343171Y213742D01*
X343166Y213678D01*
X343164Y213614D01*
X343164Y210312D01*
X338415Y210312D02*
X336581Y210312D01*
X338415Y210312D02*
X338479Y210314D01*
X338543Y210319D01*
X338606Y210329D01*
X338669Y210342D01*
X338731Y210358D01*
X338792Y210378D01*
X338851Y210402D01*
X338909Y210429D01*
X338966Y210460D01*
X339020Y210493D01*
X339072Y210530D01*
X339123Y210570D01*
X339171Y210612D01*
X339216Y210657D01*
X339258Y210705D01*
X339298Y210756D01*
X339335Y210808D01*
X339369Y210863D01*
X339399Y210919D01*
X339426Y210977D01*
X339450Y211036D01*
X339470Y211097D01*
X339486Y211159D01*
X339499Y211222D01*
X339509Y211285D01*
X339514Y211349D01*
X339516Y211413D01*
X339516Y213247D01*
X339514Y213323D01*
X339508Y213398D01*
X339499Y213473D01*
X339485Y213547D01*
X339468Y213621D01*
X339446Y213693D01*
X339422Y213765D01*
X339393Y213835D01*
X339361Y213903D01*
X339326Y213970D01*
X339287Y214035D01*
X339244Y214098D01*
X339199Y214158D01*
X339151Y214216D01*
X339099Y214272D01*
X339045Y214324D01*
X338988Y214374D01*
X338929Y214421D01*
X338868Y214465D01*
X338804Y214506D01*
X338738Y214543D01*
X338670Y214577D01*
X338601Y214607D01*
X338530Y214634D01*
X338458Y214657D01*
X338385Y214676D01*
X338311Y214691D01*
X338236Y214703D01*
X338161Y214711D01*
X338086Y214715D01*
X338010Y214715D01*
X337935Y214711D01*
X337860Y214703D01*
X337785Y214691D01*
X337711Y214676D01*
X337638Y214657D01*
X337566Y214634D01*
X337495Y214607D01*
X337426Y214577D01*
X337358Y214543D01*
X337292Y214506D01*
X337228Y214465D01*
X337167Y214421D01*
X337108Y214374D01*
X337051Y214324D01*
X336997Y214272D01*
X336945Y214216D01*
X336897Y214158D01*
X336852Y214098D01*
X336809Y214035D01*
X336770Y213970D01*
X336735Y213903D01*
X336703Y213835D01*
X336674Y213765D01*
X336650Y213693D01*
X336628Y213621D01*
X336611Y213547D01*
X336597Y213473D01*
X336588Y213398D01*
X336582Y213323D01*
X336580Y213247D01*
X336581Y213247D02*
X336581Y212513D01*
X339516Y212513D01*
X332861Y210312D02*
X332861Y214715D01*
X330660Y214715D01*
X330660Y213981D01*
X327018Y210312D02*
X325183Y210312D01*
X327018Y210312D02*
X327082Y210314D01*
X327146Y210319D01*
X327209Y210329D01*
X327272Y210342D01*
X327334Y210358D01*
X327395Y210378D01*
X327454Y210402D01*
X327512Y210429D01*
X327569Y210460D01*
X327623Y210493D01*
X327675Y210530D01*
X327726Y210570D01*
X327774Y210612D01*
X327819Y210657D01*
X327861Y210705D01*
X327901Y210756D01*
X327938Y210808D01*
X327972Y210863D01*
X328002Y210919D01*
X328029Y210977D01*
X328053Y211036D01*
X328073Y211097D01*
X328089Y211159D01*
X328102Y211222D01*
X328112Y211285D01*
X328117Y211349D01*
X328119Y211413D01*
X328119Y213614D01*
X328117Y213678D01*
X328112Y213742D01*
X328102Y213805D01*
X328089Y213868D01*
X328073Y213930D01*
X328053Y213991D01*
X328029Y214050D01*
X328002Y214108D01*
X327971Y214165D01*
X327938Y214219D01*
X327901Y214271D01*
X327861Y214322D01*
X327819Y214370D01*
X327774Y214415D01*
X327726Y214457D01*
X327675Y214497D01*
X327623Y214534D01*
X327569Y214567D01*
X327512Y214598D01*
X327454Y214625D01*
X327395Y214649D01*
X327334Y214669D01*
X327272Y214685D01*
X327209Y214698D01*
X327146Y214708D01*
X327082Y214713D01*
X327018Y214715D01*
X325183Y214715D01*
X325183Y209211D01*
X325185Y209147D01*
X325190Y209083D01*
X325200Y209020D01*
X325213Y208957D01*
X325229Y208895D01*
X325249Y208834D01*
X325273Y208775D01*
X325300Y208717D01*
X325331Y208661D01*
X325364Y208606D01*
X325401Y208554D01*
X325441Y208503D01*
X325483Y208455D01*
X325528Y208410D01*
X325576Y208368D01*
X325627Y208328D01*
X325679Y208291D01*
X325734Y208258D01*
X325790Y208227D01*
X325848Y208200D01*
X325907Y208176D01*
X325968Y208156D01*
X326030Y208140D01*
X326093Y208127D01*
X326156Y208117D01*
X326220Y208112D01*
X326284Y208110D01*
X326284Y208111D02*
X327752Y208111D01*
X321716Y208111D02*
X320982Y208111D01*
X318781Y214715D01*
X321716Y214715D02*
X320248Y210312D01*
X464058Y149945D02*
X462957Y145542D01*
X461857Y148477D01*
X460756Y145542D01*
X459655Y149945D01*
X456255Y149945D02*
X455155Y145542D01*
X454054Y148477D01*
X452953Y145542D01*
X451853Y149945D01*
X448452Y149945D02*
X447352Y145542D01*
X446251Y148477D01*
X445150Y145542D01*
X444050Y149945D01*
X441070Y145909D02*
X441070Y145542D01*
X441070Y145909D02*
X440703Y145909D01*
X440703Y145542D01*
X441070Y145542D01*
X437721Y147010D02*
X437721Y148477D01*
X437722Y148477D02*
X437720Y148553D01*
X437714Y148628D01*
X437705Y148703D01*
X437691Y148777D01*
X437674Y148851D01*
X437652Y148923D01*
X437628Y148995D01*
X437599Y149065D01*
X437567Y149133D01*
X437532Y149200D01*
X437493Y149265D01*
X437450Y149328D01*
X437405Y149388D01*
X437357Y149446D01*
X437305Y149502D01*
X437251Y149554D01*
X437194Y149604D01*
X437135Y149651D01*
X437074Y149695D01*
X437010Y149736D01*
X436944Y149773D01*
X436876Y149807D01*
X436807Y149837D01*
X436736Y149864D01*
X436664Y149887D01*
X436591Y149906D01*
X436517Y149921D01*
X436442Y149933D01*
X436367Y149941D01*
X436292Y149945D01*
X436216Y149945D01*
X436141Y149941D01*
X436066Y149933D01*
X435991Y149921D01*
X435917Y149906D01*
X435844Y149887D01*
X435772Y149864D01*
X435701Y149837D01*
X435632Y149807D01*
X435564Y149773D01*
X435498Y149736D01*
X435434Y149695D01*
X435373Y149651D01*
X435314Y149604D01*
X435257Y149554D01*
X435203Y149502D01*
X435151Y149446D01*
X435103Y149388D01*
X435058Y149328D01*
X435015Y149265D01*
X434976Y149200D01*
X434941Y149133D01*
X434909Y149065D01*
X434880Y148995D01*
X434856Y148923D01*
X434834Y148851D01*
X434817Y148777D01*
X434803Y148703D01*
X434794Y148628D01*
X434788Y148553D01*
X434786Y148477D01*
X434786Y147010D01*
X434788Y146934D01*
X434794Y146859D01*
X434803Y146784D01*
X434817Y146710D01*
X434834Y146636D01*
X434856Y146564D01*
X434880Y146492D01*
X434909Y146422D01*
X434941Y146354D01*
X434976Y146287D01*
X435015Y146222D01*
X435058Y146159D01*
X435103Y146099D01*
X435151Y146041D01*
X435203Y145985D01*
X435257Y145933D01*
X435314Y145883D01*
X435373Y145836D01*
X435434Y145792D01*
X435498Y145751D01*
X435564Y145714D01*
X435632Y145680D01*
X435701Y145650D01*
X435772Y145623D01*
X435844Y145600D01*
X435917Y145581D01*
X435991Y145566D01*
X436066Y145554D01*
X436141Y145546D01*
X436216Y145542D01*
X436292Y145542D01*
X436367Y145546D01*
X436442Y145554D01*
X436517Y145566D01*
X436591Y145581D01*
X436664Y145600D01*
X436736Y145623D01*
X436807Y145650D01*
X436876Y145680D01*
X436944Y145714D01*
X437010Y145751D01*
X437074Y145792D01*
X437135Y145836D01*
X437194Y145883D01*
X437251Y145933D01*
X437305Y145985D01*
X437357Y146041D01*
X437405Y146099D01*
X437450Y146159D01*
X437493Y146222D01*
X437532Y146287D01*
X437567Y146354D01*
X437599Y146422D01*
X437628Y146492D01*
X437652Y146564D01*
X437674Y146636D01*
X437691Y146710D01*
X437705Y146784D01*
X437714Y146859D01*
X437720Y146934D01*
X437722Y147010D01*
X431074Y149945D02*
X431074Y143341D01*
X431074Y149945D02*
X429240Y149945D01*
X429176Y149943D01*
X429112Y149938D01*
X429049Y149928D01*
X428986Y149915D01*
X428924Y149899D01*
X428863Y149879D01*
X428804Y149855D01*
X428746Y149828D01*
X428690Y149797D01*
X428635Y149764D01*
X428583Y149727D01*
X428532Y149687D01*
X428484Y149645D01*
X428439Y149600D01*
X428397Y149552D01*
X428357Y149501D01*
X428320Y149449D01*
X428287Y149395D01*
X428256Y149338D01*
X428229Y149280D01*
X428205Y149221D01*
X428185Y149160D01*
X428169Y149098D01*
X428156Y149035D01*
X428146Y148972D01*
X428141Y148908D01*
X428139Y148844D01*
X428139Y146643D01*
X428141Y146579D01*
X428146Y146515D01*
X428156Y146452D01*
X428169Y146389D01*
X428185Y146327D01*
X428205Y146266D01*
X428229Y146207D01*
X428256Y146149D01*
X428287Y146093D01*
X428320Y146038D01*
X428357Y145986D01*
X428397Y145935D01*
X428439Y145887D01*
X428484Y145842D01*
X428532Y145800D01*
X428583Y145760D01*
X428635Y145723D01*
X428690Y145690D01*
X428746Y145659D01*
X428804Y145632D01*
X428863Y145608D01*
X428924Y145588D01*
X428986Y145572D01*
X429049Y145559D01*
X429112Y145549D01*
X429176Y145544D01*
X429240Y145542D01*
X431074Y145542D01*
X423697Y145542D02*
X421863Y145542D01*
X423697Y145542D02*
X423761Y145544D01*
X423825Y145549D01*
X423888Y145559D01*
X423951Y145572D01*
X424013Y145588D01*
X424074Y145608D01*
X424133Y145632D01*
X424191Y145659D01*
X424248Y145690D01*
X424302Y145723D01*
X424354Y145760D01*
X424405Y145800D01*
X424453Y145842D01*
X424498Y145887D01*
X424540Y145935D01*
X424580Y145986D01*
X424617Y146038D01*
X424651Y146093D01*
X424681Y146149D01*
X424708Y146207D01*
X424732Y146266D01*
X424752Y146327D01*
X424768Y146389D01*
X424781Y146452D01*
X424791Y146515D01*
X424796Y146579D01*
X424798Y146643D01*
X424798Y148477D01*
X424796Y148553D01*
X424790Y148628D01*
X424781Y148703D01*
X424767Y148777D01*
X424750Y148851D01*
X424728Y148923D01*
X424704Y148995D01*
X424675Y149065D01*
X424643Y149133D01*
X424608Y149200D01*
X424569Y149265D01*
X424526Y149328D01*
X424481Y149388D01*
X424433Y149446D01*
X424381Y149502D01*
X424327Y149554D01*
X424270Y149604D01*
X424211Y149651D01*
X424150Y149695D01*
X424086Y149736D01*
X424020Y149773D01*
X423952Y149807D01*
X423883Y149837D01*
X423812Y149864D01*
X423740Y149887D01*
X423667Y149906D01*
X423593Y149921D01*
X423518Y149933D01*
X423443Y149941D01*
X423368Y149945D01*
X423292Y149945D01*
X423217Y149941D01*
X423142Y149933D01*
X423067Y149921D01*
X422993Y149906D01*
X422920Y149887D01*
X422848Y149864D01*
X422777Y149837D01*
X422708Y149807D01*
X422640Y149773D01*
X422574Y149736D01*
X422510Y149695D01*
X422449Y149651D01*
X422390Y149604D01*
X422333Y149554D01*
X422279Y149502D01*
X422227Y149446D01*
X422179Y149388D01*
X422134Y149328D01*
X422091Y149265D01*
X422052Y149200D01*
X422017Y149133D01*
X421985Y149065D01*
X421956Y148995D01*
X421932Y148923D01*
X421910Y148851D01*
X421893Y148777D01*
X421879Y148703D01*
X421870Y148628D01*
X421864Y148553D01*
X421862Y148477D01*
X421863Y148477D02*
X421863Y147743D01*
X424798Y147743D01*
X418214Y145542D02*
X418214Y149945D01*
X416380Y149945D01*
X416316Y149943D01*
X416252Y149938D01*
X416189Y149928D01*
X416126Y149915D01*
X416064Y149899D01*
X416003Y149879D01*
X415944Y149855D01*
X415886Y149828D01*
X415830Y149797D01*
X415775Y149764D01*
X415723Y149727D01*
X415672Y149687D01*
X415624Y149645D01*
X415579Y149600D01*
X415537Y149552D01*
X415497Y149501D01*
X415460Y149449D01*
X415427Y149395D01*
X415396Y149338D01*
X415369Y149280D01*
X415345Y149221D01*
X415325Y149160D01*
X415309Y149098D01*
X415296Y149035D01*
X415286Y148972D01*
X415281Y148908D01*
X415279Y148844D01*
X415279Y145542D01*
X410593Y145542D02*
X408758Y145542D01*
X410593Y145542D02*
X410657Y145544D01*
X410721Y145549D01*
X410784Y145559D01*
X410847Y145572D01*
X410909Y145588D01*
X410970Y145608D01*
X411029Y145632D01*
X411087Y145659D01*
X411144Y145690D01*
X411198Y145723D01*
X411250Y145760D01*
X411301Y145800D01*
X411349Y145842D01*
X411394Y145887D01*
X411436Y145935D01*
X411476Y145986D01*
X411513Y146038D01*
X411547Y146093D01*
X411577Y146149D01*
X411604Y146207D01*
X411628Y146266D01*
X411648Y146327D01*
X411664Y146389D01*
X411677Y146452D01*
X411687Y146515D01*
X411692Y146579D01*
X411694Y146643D01*
X411693Y146643D02*
X411693Y148844D01*
X411694Y148844D02*
X411692Y148908D01*
X411687Y148972D01*
X411677Y149035D01*
X411664Y149098D01*
X411648Y149160D01*
X411628Y149221D01*
X411604Y149280D01*
X411577Y149338D01*
X411546Y149395D01*
X411513Y149449D01*
X411476Y149501D01*
X411436Y149552D01*
X411394Y149600D01*
X411349Y149645D01*
X411301Y149687D01*
X411250Y149727D01*
X411198Y149764D01*
X411144Y149797D01*
X411087Y149828D01*
X411029Y149855D01*
X410970Y149879D01*
X410909Y149899D01*
X410847Y149915D01*
X410784Y149928D01*
X410721Y149938D01*
X410657Y149943D01*
X410593Y149945D01*
X408758Y149945D01*
X408758Y144441D01*
X408760Y144377D01*
X408765Y144313D01*
X408775Y144250D01*
X408788Y144187D01*
X408804Y144125D01*
X408824Y144064D01*
X408848Y144005D01*
X408875Y143947D01*
X408906Y143891D01*
X408939Y143836D01*
X408976Y143784D01*
X409016Y143733D01*
X409058Y143685D01*
X409103Y143640D01*
X409151Y143598D01*
X409202Y143558D01*
X409254Y143521D01*
X409309Y143488D01*
X409365Y143457D01*
X409423Y143430D01*
X409482Y143406D01*
X409543Y143386D01*
X409605Y143370D01*
X409668Y143357D01*
X409731Y143347D01*
X409795Y143342D01*
X409859Y143340D01*
X409859Y143341D02*
X411326Y143341D01*
X404732Y145542D02*
X404732Y149945D01*
X402530Y149945D01*
X402530Y149211D01*
X398825Y145542D02*
X396991Y145542D01*
X398825Y145542D02*
X398889Y145544D01*
X398953Y145549D01*
X399016Y145559D01*
X399079Y145572D01*
X399141Y145588D01*
X399202Y145608D01*
X399261Y145632D01*
X399319Y145659D01*
X399376Y145690D01*
X399430Y145723D01*
X399482Y145760D01*
X399533Y145800D01*
X399581Y145842D01*
X399626Y145887D01*
X399668Y145935D01*
X399708Y145986D01*
X399745Y146038D01*
X399779Y146093D01*
X399809Y146149D01*
X399836Y146207D01*
X399860Y146266D01*
X399880Y146327D01*
X399896Y146389D01*
X399909Y146452D01*
X399919Y146515D01*
X399924Y146579D01*
X399926Y146643D01*
X399926Y148477D01*
X399927Y148477D02*
X399925Y148553D01*
X399919Y148628D01*
X399910Y148703D01*
X399896Y148777D01*
X399879Y148851D01*
X399857Y148923D01*
X399833Y148995D01*
X399804Y149065D01*
X399772Y149133D01*
X399737Y149200D01*
X399698Y149265D01*
X399655Y149328D01*
X399610Y149388D01*
X399562Y149446D01*
X399510Y149502D01*
X399456Y149554D01*
X399399Y149604D01*
X399340Y149651D01*
X399279Y149695D01*
X399215Y149736D01*
X399149Y149773D01*
X399081Y149807D01*
X399012Y149837D01*
X398941Y149864D01*
X398869Y149887D01*
X398796Y149906D01*
X398722Y149921D01*
X398647Y149933D01*
X398572Y149941D01*
X398497Y149945D01*
X398421Y149945D01*
X398346Y149941D01*
X398271Y149933D01*
X398196Y149921D01*
X398122Y149906D01*
X398049Y149887D01*
X397977Y149864D01*
X397906Y149837D01*
X397837Y149807D01*
X397769Y149773D01*
X397703Y149736D01*
X397639Y149695D01*
X397578Y149651D01*
X397519Y149604D01*
X397462Y149554D01*
X397408Y149502D01*
X397356Y149446D01*
X397308Y149388D01*
X397263Y149328D01*
X397220Y149265D01*
X397181Y149200D01*
X397146Y149133D01*
X397114Y149065D01*
X397085Y148995D01*
X397061Y148923D01*
X397039Y148851D01*
X397022Y148777D01*
X397008Y148703D01*
X396999Y148628D01*
X396993Y148553D01*
X396991Y148477D01*
X396991Y147743D01*
X399926Y147743D01*
X392486Y145542D02*
X390651Y145542D01*
X392486Y145542D02*
X392550Y145544D01*
X392614Y145549D01*
X392677Y145559D01*
X392740Y145572D01*
X392802Y145588D01*
X392863Y145608D01*
X392922Y145632D01*
X392980Y145659D01*
X393037Y145690D01*
X393091Y145723D01*
X393143Y145760D01*
X393194Y145800D01*
X393242Y145842D01*
X393287Y145887D01*
X393329Y145935D01*
X393369Y145986D01*
X393406Y146038D01*
X393440Y146093D01*
X393470Y146149D01*
X393497Y146207D01*
X393521Y146266D01*
X393541Y146327D01*
X393557Y146389D01*
X393570Y146452D01*
X393580Y146515D01*
X393585Y146579D01*
X393587Y146643D01*
X393586Y146643D02*
X393586Y148477D01*
X393587Y148477D02*
X393585Y148553D01*
X393579Y148628D01*
X393570Y148703D01*
X393556Y148777D01*
X393539Y148851D01*
X393517Y148923D01*
X393493Y148995D01*
X393464Y149065D01*
X393432Y149133D01*
X393397Y149200D01*
X393358Y149265D01*
X393315Y149328D01*
X393270Y149388D01*
X393222Y149446D01*
X393170Y149502D01*
X393116Y149554D01*
X393059Y149604D01*
X393000Y149651D01*
X392939Y149695D01*
X392875Y149736D01*
X392809Y149773D01*
X392741Y149807D01*
X392672Y149837D01*
X392601Y149864D01*
X392529Y149887D01*
X392456Y149906D01*
X392382Y149921D01*
X392307Y149933D01*
X392232Y149941D01*
X392157Y149945D01*
X392081Y149945D01*
X392006Y149941D01*
X391931Y149933D01*
X391856Y149921D01*
X391782Y149906D01*
X391709Y149887D01*
X391637Y149864D01*
X391566Y149837D01*
X391497Y149807D01*
X391429Y149773D01*
X391363Y149736D01*
X391299Y149695D01*
X391238Y149651D01*
X391179Y149604D01*
X391122Y149554D01*
X391068Y149502D01*
X391016Y149446D01*
X390968Y149388D01*
X390923Y149328D01*
X390880Y149265D01*
X390841Y149200D01*
X390806Y149133D01*
X390774Y149065D01*
X390745Y148995D01*
X390721Y148923D01*
X390699Y148851D01*
X390682Y148777D01*
X390668Y148703D01*
X390659Y148628D01*
X390653Y148553D01*
X390651Y148477D01*
X390651Y147743D01*
X393586Y147743D01*
X387003Y145542D02*
X387003Y149945D01*
X385168Y149945D01*
X385104Y149943D01*
X385040Y149938D01*
X384977Y149928D01*
X384914Y149915D01*
X384852Y149899D01*
X384791Y149879D01*
X384732Y149855D01*
X384674Y149828D01*
X384618Y149797D01*
X384563Y149764D01*
X384511Y149727D01*
X384460Y149687D01*
X384412Y149645D01*
X384367Y149600D01*
X384325Y149552D01*
X384285Y149501D01*
X384248Y149449D01*
X384215Y149395D01*
X384184Y149338D01*
X384157Y149280D01*
X384133Y149221D01*
X384113Y149160D01*
X384097Y149098D01*
X384084Y149035D01*
X384074Y148972D01*
X384069Y148908D01*
X384067Y148844D01*
X384067Y145542D01*
X379318Y145542D02*
X377484Y145542D01*
X379318Y145542D02*
X379382Y145544D01*
X379446Y145549D01*
X379509Y145559D01*
X379572Y145572D01*
X379634Y145588D01*
X379695Y145608D01*
X379754Y145632D01*
X379812Y145659D01*
X379869Y145690D01*
X379923Y145723D01*
X379975Y145760D01*
X380026Y145800D01*
X380074Y145842D01*
X380119Y145887D01*
X380161Y145935D01*
X380201Y145986D01*
X380238Y146038D01*
X380272Y146093D01*
X380302Y146149D01*
X380329Y146207D01*
X380353Y146266D01*
X380373Y146327D01*
X380389Y146389D01*
X380402Y146452D01*
X380412Y146515D01*
X380417Y146579D01*
X380419Y146643D01*
X380419Y148477D01*
X380417Y148553D01*
X380411Y148628D01*
X380402Y148703D01*
X380388Y148777D01*
X380371Y148851D01*
X380349Y148923D01*
X380325Y148995D01*
X380296Y149065D01*
X380264Y149133D01*
X380229Y149200D01*
X380190Y149265D01*
X380147Y149328D01*
X380102Y149388D01*
X380054Y149446D01*
X380002Y149502D01*
X379948Y149554D01*
X379891Y149604D01*
X379832Y149651D01*
X379771Y149695D01*
X379707Y149736D01*
X379641Y149773D01*
X379573Y149807D01*
X379504Y149837D01*
X379433Y149864D01*
X379361Y149887D01*
X379288Y149906D01*
X379214Y149921D01*
X379139Y149933D01*
X379064Y149941D01*
X378989Y149945D01*
X378913Y149945D01*
X378838Y149941D01*
X378763Y149933D01*
X378688Y149921D01*
X378614Y149906D01*
X378541Y149887D01*
X378469Y149864D01*
X378398Y149837D01*
X378329Y149807D01*
X378261Y149773D01*
X378195Y149736D01*
X378131Y149695D01*
X378070Y149651D01*
X378011Y149604D01*
X377954Y149554D01*
X377900Y149502D01*
X377848Y149446D01*
X377800Y149388D01*
X377755Y149328D01*
X377712Y149265D01*
X377673Y149200D01*
X377638Y149133D01*
X377606Y149065D01*
X377577Y148995D01*
X377553Y148923D01*
X377531Y148851D01*
X377514Y148777D01*
X377500Y148703D01*
X377491Y148628D01*
X377485Y148553D01*
X377483Y148477D01*
X377484Y148477D02*
X377484Y147743D01*
X380419Y147743D01*
X373835Y145542D02*
X373835Y149945D01*
X372001Y149945D01*
X371937Y149943D01*
X371873Y149938D01*
X371810Y149928D01*
X371747Y149915D01*
X371685Y149899D01*
X371624Y149879D01*
X371565Y149855D01*
X371507Y149828D01*
X371451Y149797D01*
X371396Y149764D01*
X371344Y149727D01*
X371293Y149687D01*
X371245Y149645D01*
X371200Y149600D01*
X371158Y149552D01*
X371118Y149501D01*
X371081Y149449D01*
X371048Y149395D01*
X371017Y149338D01*
X370990Y149280D01*
X370966Y149221D01*
X370946Y149160D01*
X370930Y149098D01*
X370917Y149035D01*
X370907Y148972D01*
X370902Y148908D01*
X370900Y148844D01*
X370900Y145542D01*
X366151Y145542D02*
X364317Y145542D01*
X366151Y145542D02*
X366215Y145544D01*
X366279Y145549D01*
X366342Y145559D01*
X366405Y145572D01*
X366467Y145588D01*
X366528Y145608D01*
X366587Y145632D01*
X366645Y145659D01*
X366702Y145690D01*
X366756Y145723D01*
X366808Y145760D01*
X366859Y145800D01*
X366907Y145842D01*
X366952Y145887D01*
X366994Y145935D01*
X367034Y145986D01*
X367071Y146038D01*
X367105Y146093D01*
X367135Y146149D01*
X367162Y146207D01*
X367186Y146266D01*
X367206Y146327D01*
X367222Y146389D01*
X367235Y146452D01*
X367245Y146515D01*
X367250Y146579D01*
X367252Y146643D01*
X367252Y148477D01*
X367250Y148553D01*
X367244Y148628D01*
X367235Y148703D01*
X367221Y148777D01*
X367204Y148851D01*
X367182Y148923D01*
X367158Y148995D01*
X367129Y149065D01*
X367097Y149133D01*
X367062Y149200D01*
X367023Y149265D01*
X366980Y149328D01*
X366935Y149388D01*
X366887Y149446D01*
X366835Y149502D01*
X366781Y149554D01*
X366724Y149604D01*
X366665Y149651D01*
X366604Y149695D01*
X366540Y149736D01*
X366474Y149773D01*
X366406Y149807D01*
X366337Y149837D01*
X366266Y149864D01*
X366194Y149887D01*
X366121Y149906D01*
X366047Y149921D01*
X365972Y149933D01*
X365897Y149941D01*
X365822Y149945D01*
X365746Y149945D01*
X365671Y149941D01*
X365596Y149933D01*
X365521Y149921D01*
X365447Y149906D01*
X365374Y149887D01*
X365302Y149864D01*
X365231Y149837D01*
X365162Y149807D01*
X365094Y149773D01*
X365028Y149736D01*
X364964Y149695D01*
X364903Y149651D01*
X364844Y149604D01*
X364787Y149554D01*
X364733Y149502D01*
X364681Y149446D01*
X364633Y149388D01*
X364588Y149328D01*
X364545Y149265D01*
X364506Y149200D01*
X364471Y149133D01*
X364439Y149065D01*
X364410Y148995D01*
X364386Y148923D01*
X364364Y148851D01*
X364347Y148777D01*
X364333Y148703D01*
X364324Y148628D01*
X364318Y148553D01*
X364316Y148477D01*
X364317Y148477D02*
X364317Y147743D01*
X367252Y147743D01*
X360597Y145542D02*
X360597Y149945D01*
X358396Y149945D01*
X358396Y149211D01*
X354754Y145542D02*
X352919Y145542D01*
X354754Y145542D02*
X354818Y145544D01*
X354882Y145549D01*
X354945Y145559D01*
X355008Y145572D01*
X355070Y145588D01*
X355131Y145608D01*
X355190Y145632D01*
X355248Y145659D01*
X355305Y145690D01*
X355359Y145723D01*
X355411Y145760D01*
X355462Y145800D01*
X355510Y145842D01*
X355555Y145887D01*
X355597Y145935D01*
X355637Y145986D01*
X355674Y146038D01*
X355708Y146093D01*
X355738Y146149D01*
X355765Y146207D01*
X355789Y146266D01*
X355809Y146327D01*
X355825Y146389D01*
X355838Y146452D01*
X355848Y146515D01*
X355853Y146579D01*
X355855Y146643D01*
X355854Y146643D02*
X355854Y148844D01*
X355855Y148844D02*
X355853Y148908D01*
X355848Y148972D01*
X355838Y149035D01*
X355825Y149098D01*
X355809Y149160D01*
X355789Y149221D01*
X355765Y149280D01*
X355738Y149338D01*
X355707Y149395D01*
X355674Y149449D01*
X355637Y149501D01*
X355597Y149552D01*
X355555Y149600D01*
X355510Y149645D01*
X355462Y149687D01*
X355411Y149727D01*
X355359Y149764D01*
X355305Y149797D01*
X355248Y149828D01*
X355190Y149855D01*
X355131Y149879D01*
X355070Y149899D01*
X355008Y149915D01*
X354945Y149928D01*
X354882Y149938D01*
X354818Y149943D01*
X354754Y149945D01*
X352919Y149945D01*
X352919Y144441D01*
X352921Y144377D01*
X352926Y144313D01*
X352936Y144250D01*
X352949Y144187D01*
X352965Y144125D01*
X352985Y144064D01*
X353009Y144005D01*
X353036Y143947D01*
X353067Y143891D01*
X353100Y143836D01*
X353137Y143784D01*
X353177Y143733D01*
X353219Y143685D01*
X353264Y143640D01*
X353312Y143598D01*
X353363Y143558D01*
X353415Y143521D01*
X353470Y143488D01*
X353526Y143457D01*
X353584Y143430D01*
X353643Y143406D01*
X353704Y143386D01*
X353766Y143370D01*
X353829Y143357D01*
X353892Y143347D01*
X353956Y143342D01*
X354020Y143340D01*
X354020Y143341D02*
X355487Y143341D01*
X349451Y143341D02*
X348718Y143341D01*
X346516Y149945D01*
X349451Y149945D02*
X347984Y145542D01*
X343778Y145542D02*
X343778Y145909D01*
X343411Y145909D01*
X343411Y145542D01*
X343778Y145542D01*
X339314Y145542D02*
X337847Y145542D01*
X339314Y145542D02*
X339378Y145544D01*
X339442Y145549D01*
X339505Y145559D01*
X339568Y145572D01*
X339630Y145588D01*
X339691Y145608D01*
X339750Y145632D01*
X339808Y145659D01*
X339865Y145690D01*
X339919Y145723D01*
X339971Y145760D01*
X340022Y145800D01*
X340070Y145842D01*
X340115Y145887D01*
X340157Y145935D01*
X340197Y145986D01*
X340234Y146038D01*
X340268Y146093D01*
X340298Y146149D01*
X340325Y146207D01*
X340349Y146266D01*
X340369Y146327D01*
X340385Y146389D01*
X340398Y146452D01*
X340408Y146515D01*
X340413Y146579D01*
X340415Y146643D01*
X340415Y148844D01*
X340413Y148908D01*
X340408Y148972D01*
X340398Y149035D01*
X340385Y149098D01*
X340369Y149160D01*
X340349Y149221D01*
X340325Y149280D01*
X340298Y149338D01*
X340267Y149395D01*
X340234Y149449D01*
X340197Y149501D01*
X340157Y149552D01*
X340115Y149600D01*
X340070Y149645D01*
X340022Y149687D01*
X339971Y149727D01*
X339919Y149764D01*
X339865Y149797D01*
X339808Y149828D01*
X339750Y149855D01*
X339691Y149879D01*
X339630Y149899D01*
X339568Y149915D01*
X339505Y149928D01*
X339442Y149938D01*
X339378Y149943D01*
X339314Y149945D01*
X337847Y149945D01*
X334821Y148477D02*
X334821Y147010D01*
X334821Y148477D02*
X334819Y148553D01*
X334813Y148628D01*
X334804Y148703D01*
X334790Y148777D01*
X334773Y148851D01*
X334751Y148923D01*
X334727Y148995D01*
X334698Y149065D01*
X334666Y149133D01*
X334631Y149200D01*
X334592Y149265D01*
X334549Y149328D01*
X334504Y149388D01*
X334456Y149446D01*
X334404Y149502D01*
X334350Y149554D01*
X334293Y149604D01*
X334234Y149651D01*
X334173Y149695D01*
X334109Y149736D01*
X334043Y149773D01*
X333975Y149807D01*
X333906Y149837D01*
X333835Y149864D01*
X333763Y149887D01*
X333690Y149906D01*
X333616Y149921D01*
X333541Y149933D01*
X333466Y149941D01*
X333391Y149945D01*
X333315Y149945D01*
X333240Y149941D01*
X333165Y149933D01*
X333090Y149921D01*
X333016Y149906D01*
X332943Y149887D01*
X332871Y149864D01*
X332800Y149837D01*
X332731Y149807D01*
X332663Y149773D01*
X332597Y149736D01*
X332533Y149695D01*
X332472Y149651D01*
X332413Y149604D01*
X332356Y149554D01*
X332302Y149502D01*
X332250Y149446D01*
X332202Y149388D01*
X332157Y149328D01*
X332114Y149265D01*
X332075Y149200D01*
X332040Y149133D01*
X332008Y149065D01*
X331979Y148995D01*
X331955Y148923D01*
X331933Y148851D01*
X331916Y148777D01*
X331902Y148703D01*
X331893Y148628D01*
X331887Y148553D01*
X331885Y148477D01*
X331886Y148477D02*
X331886Y147010D01*
X331885Y147010D02*
X331887Y146934D01*
X331893Y146859D01*
X331902Y146784D01*
X331916Y146710D01*
X331933Y146636D01*
X331955Y146564D01*
X331979Y146492D01*
X332008Y146422D01*
X332040Y146354D01*
X332075Y146287D01*
X332114Y146222D01*
X332157Y146159D01*
X332202Y146099D01*
X332250Y146041D01*
X332302Y145985D01*
X332356Y145933D01*
X332413Y145883D01*
X332472Y145836D01*
X332533Y145792D01*
X332597Y145751D01*
X332663Y145714D01*
X332731Y145680D01*
X332800Y145650D01*
X332871Y145623D01*
X332943Y145600D01*
X333016Y145581D01*
X333090Y145566D01*
X333165Y145554D01*
X333240Y145546D01*
X333315Y145542D01*
X333391Y145542D01*
X333466Y145546D01*
X333541Y145554D01*
X333616Y145566D01*
X333690Y145581D01*
X333763Y145600D01*
X333835Y145623D01*
X333906Y145650D01*
X333975Y145680D01*
X334043Y145714D01*
X334109Y145751D01*
X334173Y145792D01*
X334234Y145836D01*
X334293Y145883D01*
X334350Y145933D01*
X334404Y145985D01*
X334456Y146041D01*
X334504Y146099D01*
X334549Y146159D01*
X334592Y146222D01*
X334631Y146287D01*
X334666Y146354D01*
X334698Y146422D01*
X334727Y146492D01*
X334751Y146564D01*
X334773Y146636D01*
X334790Y146710D01*
X334804Y146784D01*
X334813Y146859D01*
X334819Y146934D01*
X334821Y147010D01*
X327996Y145542D02*
X327996Y149945D01*
X324694Y149945D01*
X324630Y149943D01*
X324566Y149938D01*
X324503Y149928D01*
X324440Y149915D01*
X324378Y149899D01*
X324317Y149879D01*
X324258Y149855D01*
X324200Y149828D01*
X324144Y149797D01*
X324089Y149764D01*
X324037Y149727D01*
X323986Y149687D01*
X323938Y149645D01*
X323893Y149600D01*
X323851Y149552D01*
X323811Y149501D01*
X323774Y149449D01*
X323741Y149395D01*
X323710Y149338D01*
X323683Y149280D01*
X323659Y149221D01*
X323639Y149160D01*
X323623Y149098D01*
X323610Y149035D01*
X323600Y148972D01*
X323595Y148908D01*
X323593Y148844D01*
X323593Y145542D01*
X325794Y145542D02*
X325794Y149945D01*
D62*
X292227Y355778D03*
D63*
X292265Y355854D03*
D64*
X292265Y355930D03*
D65*
X292265Y356006D03*
D66*
X292265Y356083D03*
D67*
X292265Y356159D03*
D68*
X292303Y356235D03*
D69*
X292303Y356311D03*
D70*
X292341Y356387D03*
D71*
X292341Y356464D03*
D72*
X292341Y356540D03*
D62*
X244297Y356540D03*
D73*
X292341Y356616D03*
D74*
X244297Y356616D03*
D73*
X292265Y356692D03*
D75*
X244297Y356692D03*
D76*
X292189Y356768D03*
D77*
X244297Y356768D03*
D73*
X292113Y356845D03*
D65*
X244259Y356845D03*
D76*
X292037Y356921D03*
D66*
X244259Y356921D03*
D73*
X291960Y356997D03*
D67*
X244259Y356997D03*
D73*
X291884Y357073D03*
D78*
X244259Y357073D03*
D76*
X291808Y357149D03*
D79*
X244259Y357149D03*
D73*
X291732Y357226D03*
D70*
X244259Y357226D03*
D76*
X291656Y357302D03*
D71*
X244259Y357302D03*
D73*
X291579Y357378D03*
D72*
X244259Y357378D03*
D73*
X291503Y357454D03*
X244259Y357454D03*
D76*
X291427Y357530D03*
D73*
X244335Y357530D03*
X291351Y357607D03*
D76*
X244412Y357607D03*
D80*
X291313Y357683D03*
D73*
X244488Y357683D03*
D80*
X291236Y357759D03*
D76*
X244564Y357759D03*
D80*
X291160Y357835D03*
D73*
X244640Y357835D03*
D80*
X291084Y357911D03*
D73*
X244716Y357911D03*
D80*
X291008Y357988D03*
D81*
X244754Y357988D03*
D80*
X290932Y358064D03*
D76*
X244793Y358064D03*
D80*
X290855Y358140D03*
D73*
X244869Y358140D03*
D80*
X290779Y358216D03*
D76*
X244945Y358216D03*
D73*
X290741Y358292D03*
X245021Y358292D03*
D76*
X290665Y358369D03*
D73*
X245097Y358369D03*
X290589Y358445D03*
D76*
X245174Y358445D03*
X290513Y358521D03*
D73*
X245250Y358521D03*
X290436Y358597D03*
D76*
X245326Y358597D03*
D73*
X290360Y358673D03*
X245402Y358673D03*
D76*
X290284Y358750D03*
D73*
X245478Y358750D03*
X290208Y358826D03*
D76*
X245555Y358826D03*
X290132Y358902D03*
D73*
X245631Y358902D03*
X290055Y358978D03*
D76*
X245707Y358978D03*
D73*
X289979Y359054D03*
X245783Y359054D03*
D76*
X289903Y359131D03*
D82*
X245821Y359131D03*
D73*
X289827Y359207D03*
X245859Y359207D03*
D76*
X289751Y359283D03*
X245936Y359283D03*
D73*
X289674Y359359D03*
X246012Y359359D03*
X289598Y359435D03*
D76*
X246088Y359435D03*
X289522Y359512D03*
D73*
X246164Y359512D03*
X289446Y359588D03*
X246240Y359588D03*
D76*
X289370Y359664D03*
X246317Y359664D03*
D80*
X289331Y359740D03*
D73*
X246393Y359740D03*
D80*
X289255Y359816D03*
D76*
X246469Y359816D03*
D80*
X289179Y359893D03*
D73*
X246545Y359893D03*
D80*
X289103Y359969D03*
D73*
X246621Y359969D03*
D80*
X289027Y360045D03*
D76*
X246698Y360045D03*
D80*
X288950Y360121D03*
D73*
X246774Y360121D03*
D80*
X288874Y360197D03*
D76*
X246850Y360197D03*
D80*
X288798Y360274D03*
D81*
X246888Y360274D03*
D76*
X288760Y360350D03*
D73*
X246926Y360350D03*
X288684Y360426D03*
X247002Y360426D03*
D76*
X288608Y360502D03*
X247079Y360502D03*
D73*
X288531Y360578D03*
X247155Y360578D03*
X288455Y360655D03*
D76*
X247231Y360655D03*
X288379Y360731D03*
D83*
X274053Y360731D03*
D73*
X247307Y360731D03*
X288303Y360807D03*
D83*
X274053Y360807D03*
D73*
X247383Y360807D03*
D76*
X288227Y360883D03*
D83*
X274053Y360883D03*
D76*
X247460Y360883D03*
D73*
X288150Y360959D03*
D83*
X274053Y360959D03*
D73*
X247536Y360959D03*
X288074Y361036D03*
D83*
X274053Y361036D03*
D76*
X247612Y361036D03*
X287998Y361112D03*
D83*
X274053Y361112D03*
D73*
X247688Y361112D03*
X287922Y361188D03*
D83*
X274053Y361188D03*
D84*
X258585Y361188D03*
D73*
X247764Y361188D03*
D76*
X287846Y361264D03*
D83*
X274053Y361264D03*
D85*
X258585Y361264D03*
D76*
X247841Y361264D03*
D73*
X287769Y361340D03*
D83*
X274053Y361340D03*
D86*
X258585Y361340D03*
D73*
X247917Y361340D03*
X287693Y361417D03*
D83*
X274053Y361417D03*
D87*
X258585Y361417D03*
D81*
X247955Y361417D03*
D76*
X287617Y361493D03*
D83*
X274053Y361493D03*
D88*
X258585Y361493D03*
D76*
X247993Y361493D03*
D73*
X287541Y361569D03*
D83*
X274053Y361569D03*
D89*
X258585Y361569D03*
D73*
X248069Y361569D03*
D76*
X287465Y361645D03*
D83*
X274053Y361645D03*
D90*
X258585Y361645D03*
D73*
X248145Y361645D03*
D80*
X287426Y361721D03*
D83*
X274053Y361721D03*
D91*
X258585Y361721D03*
D76*
X248222Y361721D03*
D80*
X287350Y361798D03*
D83*
X274053Y361798D03*
D92*
X258585Y361798D03*
D73*
X248298Y361798D03*
D80*
X287274Y361874D03*
D83*
X274053Y361874D03*
D93*
X258585Y361874D03*
D76*
X248374Y361874D03*
D80*
X287198Y361950D03*
D83*
X274053Y361950D03*
D94*
X258585Y361950D03*
D73*
X248450Y361950D03*
D80*
X287122Y362026D03*
D83*
X274053Y362026D03*
D95*
X258585Y362026D03*
D73*
X248526Y362026D03*
D80*
X287045Y362102D03*
D83*
X274053Y362102D03*
D96*
X258585Y362102D03*
D76*
X248603Y362102D03*
D80*
X286969Y362179D03*
D83*
X274053Y362179D03*
D97*
X258585Y362179D03*
D73*
X248679Y362179D03*
D80*
X286893Y362255D03*
D83*
X274053Y362255D03*
D98*
X258585Y362255D03*
D76*
X248755Y362255D03*
D80*
X286817Y362331D03*
D83*
X274053Y362331D03*
D99*
X258585Y362331D03*
D73*
X248831Y362331D03*
D80*
X286741Y362407D03*
D83*
X274053Y362407D03*
D100*
X258585Y362407D03*
D73*
X248907Y362407D03*
D76*
X286703Y362483D03*
D83*
X274053Y362483D03*
D86*
X260337Y362483D03*
X256832Y362483D03*
D76*
X248984Y362483D03*
D73*
X286626Y362560D03*
D83*
X274053Y362560D03*
D101*
X260528Y362560D03*
X256642Y362560D03*
D81*
X249022Y362560D03*
D73*
X286550Y362636D03*
D83*
X274053Y362636D03*
D102*
X260680Y362636D03*
X256489Y362636D03*
D73*
X249060Y362636D03*
D76*
X286474Y362712D03*
D83*
X274053Y362712D03*
D103*
X260795Y362712D03*
X256375Y362712D03*
D76*
X249136Y362712D03*
D73*
X286398Y362788D03*
D83*
X274053Y362788D03*
D104*
X260909Y362788D03*
X256261Y362788D03*
D73*
X249212Y362788D03*
D76*
X286322Y362864D03*
D83*
X274053Y362864D03*
D85*
X261023Y362864D03*
X256146Y362864D03*
D73*
X249288Y362864D03*
X286245Y362941D03*
D83*
X274053Y362941D03*
D80*
X261137Y362941D03*
X256032Y362941D03*
D76*
X249365Y362941D03*
D73*
X286169Y363017D03*
D83*
X274053Y363017D03*
D76*
X261176Y363017D03*
X255994Y363017D03*
D73*
X249441Y363017D03*
D76*
X286093Y363093D03*
D83*
X274053Y363093D03*
D73*
X261252Y363093D03*
D81*
X255880Y363093D03*
D76*
X249517Y363093D03*
D73*
X286017Y363169D03*
D83*
X274053Y363169D03*
D81*
X261366Y363169D03*
X255803Y363169D03*
D73*
X249593Y363169D03*
D76*
X285941Y363245D03*
D83*
X274053Y363245D03*
D72*
X261404Y363245D03*
X255765Y363245D03*
D73*
X249669Y363245D03*
X285864Y363322D03*
D83*
X274053Y363322D03*
D72*
X261480Y363322D03*
X255689Y363322D03*
D76*
X249746Y363322D03*
D73*
X285788Y363398D03*
D83*
X274053Y363398D03*
D72*
X261557Y363398D03*
X255613Y363398D03*
D73*
X249822Y363398D03*
D76*
X285712Y363474D03*
D83*
X274053Y363474D03*
D105*
X261595Y363474D03*
X255575Y363474D03*
D76*
X249898Y363474D03*
D73*
X285636Y363550D03*
D83*
X274053Y363550D03*
D105*
X261671Y363550D03*
X255499Y363550D03*
D73*
X249974Y363550D03*
D76*
X285560Y363626D03*
D83*
X274053Y363626D03*
D71*
X261709Y363626D03*
X255461Y363626D03*
D73*
X250050Y363626D03*
X285483Y363703D03*
D83*
X274053Y363703D03*
D105*
X261747Y363703D03*
D71*
X255384Y363703D03*
D73*
X250050Y363703D03*
D80*
X285445Y363779D03*
D83*
X274053Y363779D03*
D71*
X261785Y363779D03*
X255384Y363779D03*
D76*
X250127Y363779D03*
D80*
X285369Y363855D03*
D83*
X274053Y363855D03*
D71*
X261861Y363855D03*
D106*
X258585Y363855D03*
D71*
X255308Y363855D03*
D73*
X250203Y363855D03*
D80*
X285293Y363931D03*
D83*
X274053Y363931D03*
D107*
X261899Y363931D03*
D69*
X258547Y363931D03*
D107*
X255270Y363931D03*
D76*
X250279Y363931D03*
D80*
X285217Y364007D03*
D83*
X274053Y364007D03*
D107*
X261899Y364007D03*
D71*
X258585Y364007D03*
D107*
X255270Y364007D03*
D73*
X250355Y364007D03*
D80*
X285140Y364084D03*
D83*
X274053Y364084D03*
D108*
X261976Y364084D03*
D73*
X258585Y364084D03*
D108*
X255194Y364084D03*
D73*
X250431Y364084D03*
D80*
X285064Y364160D03*
D83*
X274053Y364160D03*
D108*
X261976Y364160D03*
D85*
X258585Y364160D03*
D108*
X255194Y364160D03*
D76*
X250508Y364160D03*
D80*
X284988Y364236D03*
D83*
X274053Y364236D03*
D108*
X262052Y364236D03*
D109*
X258585Y364236D03*
D108*
X255118Y364236D03*
D73*
X250584Y364236D03*
D80*
X284912Y364312D03*
D83*
X274053Y364312D03*
D108*
X262052Y364312D03*
D110*
X258585Y364312D03*
D108*
X255118Y364312D03*
D76*
X250660Y364312D03*
D80*
X284836Y364388D03*
D88*
X274053Y364388D03*
D107*
X262128Y364388D03*
D111*
X258585Y364388D03*
D70*
X255080Y364388D03*
D73*
X250736Y364388D03*
D80*
X284759Y364465D03*
D112*
X268834Y364465D03*
D86*
X258585Y364465D03*
D70*
X255080Y364465D03*
D73*
X250812Y364465D03*
X284721Y364541D03*
D113*
X268872Y364541D03*
D114*
X258585Y364541D03*
D70*
X255003Y364541D03*
D76*
X250889Y364541D03*
D73*
X284645Y364617D03*
D113*
X268872Y364617D03*
D87*
X258585Y364617D03*
D70*
X255003Y364617D03*
D73*
X250965Y364617D03*
D76*
X284569Y364693D03*
D113*
X268872Y364693D03*
D87*
X258585Y364693D03*
D70*
X255003Y364693D03*
D76*
X251041Y364693D03*
D73*
X284493Y364769D03*
D115*
X268910Y364769D03*
D116*
X258585Y364769D03*
D117*
X254965Y364769D03*
D73*
X251117Y364769D03*
D76*
X284417Y364846D03*
D115*
X268910Y364846D03*
D116*
X258585Y364846D03*
D70*
X254927Y364846D03*
D73*
X251117Y364846D03*
X284340Y364922D03*
D118*
X268948Y364922D03*
D83*
X258585Y364922D03*
D70*
X254927Y364922D03*
D73*
X251193Y364922D03*
X284264Y364998D03*
D118*
X268948Y364998D03*
D83*
X258585Y364998D03*
D70*
X254927Y364998D03*
D76*
X251270Y364998D03*
X284188Y365074D03*
D118*
X268948Y365074D03*
D83*
X258585Y365074D03*
D117*
X254889Y365074D03*
D73*
X251346Y365074D03*
X284112Y365150D03*
D66*
X275958Y365150D03*
D117*
X262280Y365150D03*
D88*
X258585Y365150D03*
D117*
X254889Y365150D03*
D76*
X251422Y365150D03*
X284036Y365227D03*
D66*
X275958Y365227D03*
D117*
X262280Y365227D03*
D88*
X258585Y365227D03*
D117*
X254889Y365227D03*
D73*
X251498Y365227D03*
X283959Y365303D03*
D66*
X275958Y365303D03*
D117*
X262280Y365303D03*
D88*
X258585Y365303D03*
D117*
X254889Y365303D03*
D73*
X251574Y365303D03*
X283883Y365379D03*
D66*
X275958Y365379D03*
D117*
X262280Y365379D03*
D88*
X258585Y365379D03*
D117*
X254889Y365379D03*
D76*
X251651Y365379D03*
X283807Y365455D03*
D66*
X275958Y365455D03*
D117*
X262280Y365455D03*
D88*
X258585Y365455D03*
D117*
X254889Y365455D03*
D73*
X251727Y365455D03*
X283731Y365531D03*
D66*
X275958Y365531D03*
D117*
X262280Y365531D03*
D88*
X258585Y365531D03*
D117*
X254889Y365531D03*
D76*
X251803Y365531D03*
X283655Y365608D03*
D119*
X275996Y365608D03*
D117*
X262280Y365608D03*
D88*
X258585Y365608D03*
D117*
X254889Y365608D03*
D73*
X251879Y365608D03*
X283578Y365684D03*
D119*
X275996Y365684D03*
D117*
X262280Y365684D03*
D88*
X258585Y365684D03*
D117*
X254889Y365684D03*
D73*
X251955Y365684D03*
X283502Y365760D03*
D66*
X276035Y365760D03*
D117*
X262280Y365760D03*
D88*
X258585Y365760D03*
D117*
X254889Y365760D03*
D76*
X252032Y365760D03*
D80*
X283464Y365836D03*
D66*
X276035Y365836D03*
D117*
X262280Y365836D03*
D88*
X258585Y365836D03*
D117*
X254889Y365836D03*
D73*
X252108Y365836D03*
D80*
X283388Y365912D03*
D66*
X276035Y365912D03*
D117*
X262280Y365912D03*
D83*
X258585Y365912D03*
D117*
X254889Y365912D03*
D76*
X252184Y365912D03*
D80*
X283312Y365989D03*
D66*
X276035Y365989D03*
D70*
X262242Y365989D03*
D83*
X258585Y365989D03*
D70*
X254927Y365989D03*
D76*
X252184Y365989D03*
D80*
X283235Y366065D03*
D66*
X276035Y366065D03*
D70*
X262242Y366065D03*
D83*
X258585Y366065D03*
D70*
X254927Y366065D03*
D73*
X252260Y366065D03*
D80*
X283159Y366141D03*
D66*
X276035Y366141D03*
D70*
X262242Y366141D03*
D120*
X258547Y366141D03*
D70*
X254927Y366141D03*
D73*
X252336Y366141D03*
D80*
X283083Y366217D03*
D66*
X276035Y366217D03*
D117*
X262204Y366217D03*
D116*
X258585Y366217D03*
D117*
X254965Y366217D03*
D76*
X252413Y366217D03*
D80*
X283007Y366293D03*
D66*
X276035Y366293D03*
D70*
X262166Y366293D03*
D116*
X258585Y366293D03*
D117*
X254965Y366293D03*
D73*
X252489Y366293D03*
D80*
X282931Y366370D03*
D66*
X276035Y366370D03*
D70*
X262166Y366370D03*
D87*
X258585Y366370D03*
D70*
X255003Y366370D03*
D76*
X252565Y366370D03*
D80*
X282854Y366446D03*
D66*
X276035Y366446D03*
D70*
X262166Y366446D03*
D114*
X258585Y366446D03*
D70*
X255003Y366446D03*
D73*
X252641Y366446D03*
D80*
X282778Y366522D03*
D121*
X276073Y366522D03*
D107*
X262128Y366522D03*
D114*
X258585Y366522D03*
D107*
X255041Y366522D03*
D73*
X252717Y366522D03*
X282740Y366598D03*
D121*
X276073Y366598D03*
D70*
X262090Y366598D03*
D86*
X258585Y366598D03*
D70*
X255080Y366598D03*
D76*
X252794Y366598D03*
X282664Y366674D03*
D66*
X276111Y366674D03*
D70*
X262090Y366674D03*
D111*
X258585Y366674D03*
D70*
X255080Y366674D03*
D73*
X252870Y366674D03*
X282588Y366751D03*
D66*
X276111Y366751D03*
D108*
X262052Y366751D03*
D110*
X258585Y366751D03*
D108*
X255118Y366751D03*
D76*
X252946Y366751D03*
X282512Y366827D03*
D66*
X276111Y366827D03*
D84*
X262014Y366827D03*
D109*
X258585Y366827D03*
D84*
X255156Y366827D03*
D73*
X253022Y366827D03*
X282435Y366903D03*
D66*
X276111Y366903D03*
D108*
X261976Y366903D03*
D73*
X258585Y366903D03*
D108*
X255194Y366903D03*
D73*
X253098Y366903D03*
X282359Y366979D03*
D66*
X276111Y366979D03*
D108*
X261976Y366979D03*
D72*
X258585Y366979D03*
D108*
X255194Y366979D03*
D76*
X253175Y366979D03*
X282283Y367055D03*
D66*
X276111Y367055D03*
D107*
X261899Y367055D03*
D84*
X258585Y367055D03*
D107*
X255270Y367055D03*
D81*
X253213Y367055D03*
D73*
X282207Y367132D03*
D66*
X276111Y367132D03*
D71*
X261861Y367132D03*
D67*
X258585Y367132D03*
D71*
X255308Y367132D03*
D73*
X253251Y367132D03*
D76*
X282131Y367208D03*
D66*
X276111Y367208D03*
D108*
X261823Y367208D03*
X255346Y367208D03*
D76*
X253327Y367208D03*
D73*
X282054Y367284D03*
D66*
X276111Y367284D03*
D71*
X261785Y367284D03*
X255384Y367284D03*
D73*
X253403Y367284D03*
X281978Y367360D03*
D66*
X276111Y367360D03*
D71*
X261709Y367360D03*
X255461Y367360D03*
D73*
X253479Y367360D03*
D76*
X281902Y367436D03*
D121*
X276149Y367436D03*
D105*
X261671Y367436D03*
X255499Y367436D03*
D76*
X253556Y367436D03*
D73*
X281826Y367513D03*
D66*
X276187Y367513D03*
D105*
X261595Y367513D03*
X255575Y367513D03*
D73*
X253632Y367513D03*
D76*
X281750Y367589D03*
D66*
X276187Y367589D03*
D72*
X261557Y367589D03*
D105*
X255575Y367589D03*
D76*
X253708Y367589D03*
D73*
X281673Y367665D03*
D66*
X276187Y367665D03*
D105*
X261518Y367665D03*
X255651Y367665D03*
D73*
X253784Y367665D03*
X281597Y367741D03*
D66*
X276187Y367741D03*
D82*
X261442Y367741D03*
X255727Y367741D03*
D73*
X253860Y367741D03*
D76*
X281521Y367817D03*
D66*
X276187Y367817D03*
D81*
X261366Y367817D03*
X255803Y367817D03*
D76*
X253937Y367817D03*
D80*
X281483Y367894D03*
D66*
X276187Y367894D03*
D81*
X261290Y367894D03*
X255880Y367894D03*
D73*
X254013Y367894D03*
D80*
X281407Y367970D03*
D66*
X276187Y367970D03*
D73*
X261252Y367970D03*
D122*
X255003Y367970D03*
D80*
X281330Y368046D03*
D66*
X276187Y368046D03*
D80*
X261137Y368046D03*
D122*
X255080Y368046D03*
D80*
X281254Y368122D03*
D66*
X276187Y368122D03*
D80*
X261061Y368122D03*
D123*
X255194Y368122D03*
D80*
X281178Y368198D03*
D66*
X276187Y368198D03*
D85*
X260947Y368198D03*
D124*
X255270Y368198D03*
D80*
X281102Y368275D03*
D119*
X276225Y368275D03*
D109*
X260871Y368275D03*
D90*
X255384Y368275D03*
D80*
X281026Y368351D03*
D119*
X276225Y368351D03*
D125*
X260756Y368351D03*
D126*
X255499Y368351D03*
D80*
X280949Y368427D03*
D66*
X276263Y368427D03*
D110*
X260642Y368427D03*
D127*
X255613Y368427D03*
D80*
X280873Y368503D03*
D66*
X276263Y368503D03*
D128*
X260452Y368503D03*
D129*
X255803Y368503D03*
D80*
X280797Y368579D03*
D66*
X276263Y368579D03*
D130*
X260147Y368579D03*
D131*
X256108Y368579D03*
D80*
X280721Y368656D03*
D66*
X276263Y368656D03*
D132*
X257670Y368656D03*
D73*
X280683Y368732D03*
D66*
X276263Y368732D03*
D133*
X257670Y368732D03*
D76*
X280607Y368808D03*
D66*
X276263Y368808D03*
D134*
X257670Y368808D03*
D73*
X280530Y368884D03*
D66*
X276263Y368884D03*
D135*
X257670Y368884D03*
D73*
X280454Y368960D03*
D66*
X276263Y368960D03*
D95*
X258585Y368960D03*
D73*
X255003Y368960D03*
D76*
X280378Y369037D03*
D66*
X276263Y369037D03*
D136*
X258585Y369037D03*
D76*
X255080Y369037D03*
D73*
X280302Y369113D03*
D66*
X276263Y369113D03*
D94*
X258585Y369113D03*
D73*
X255156Y369113D03*
D76*
X280226Y369189D03*
D121*
X276301Y369189D03*
D137*
X258585Y369189D03*
D76*
X255232Y369189D03*
D73*
X280149Y369265D03*
D121*
X276301Y369265D03*
D129*
X258547Y369265D03*
D73*
X255308Y369265D03*
X280073Y369341D03*
D66*
X276339Y369341D03*
D138*
X258585Y369341D03*
D73*
X255308Y369341D03*
D76*
X279997Y369418D03*
D66*
X276339Y369418D03*
D124*
X258547Y369418D03*
D73*
X255384Y369418D03*
X279921Y369494D03*
D66*
X276339Y369494D03*
D139*
X258470Y369494D03*
D76*
X255461Y369494D03*
X279845Y369570D03*
D66*
X276339Y369570D03*
D140*
X258394Y369570D03*
D73*
X255537Y369570D03*
X279768Y369646D03*
D66*
X276339Y369646D03*
D141*
X258280Y369646D03*
D76*
X255613Y369646D03*
D73*
X279692Y369722D03*
D66*
X276339Y369722D03*
D110*
X258585Y369722D03*
D86*
X256070Y369722D03*
D76*
X279616Y369799D03*
D66*
X276339Y369799D03*
D73*
X258585Y369799D03*
D111*
X256070Y369799D03*
D73*
X279540Y369875D03*
D66*
X276339Y369875D03*
D67*
X258585Y369875D03*
D101*
X256108Y369875D03*
D80*
X279502Y369951D03*
D66*
X276339Y369951D03*
D110*
X256146Y369951D03*
D80*
X279425Y370027D03*
D66*
X276339Y370027D03*
D125*
X256184Y370027D03*
D80*
X279349Y370103D03*
D119*
X276377Y370103D03*
D103*
X256223Y370103D03*
D80*
X279273Y370180D03*
D66*
X276416Y370180D03*
D104*
X256261Y370180D03*
D80*
X279197Y370256D03*
D66*
X276416Y370256D03*
D85*
X256299Y370256D03*
D80*
X279121Y370332D03*
D66*
X276416Y370332D03*
D80*
X256337Y370332D03*
X279044Y370408D03*
D66*
X276416Y370408D03*
D76*
X256375Y370408D03*
D80*
X278968Y370484D03*
D66*
X276416Y370484D03*
D76*
X256375Y370484D03*
D80*
X278892Y370561D03*
D66*
X276416Y370561D03*
D73*
X256451Y370561D03*
D80*
X278816Y370637D03*
D66*
X276416Y370637D03*
D73*
X256527Y370637D03*
D80*
X278740Y370713D03*
D66*
X276416Y370713D03*
D76*
X256604Y370713D03*
X278702Y370789D03*
D66*
X276416Y370789D03*
D73*
X256680Y370789D03*
X278625Y370865D03*
D66*
X276416Y370865D03*
D76*
X256756Y370865D03*
D73*
X278549Y370942D03*
D121*
X276454Y370942D03*
D73*
X256832Y370942D03*
D76*
X278473Y371018D03*
D121*
X276454Y371018D03*
D73*
X256908Y371018D03*
X278397Y371094D03*
D66*
X276492Y371094D03*
D76*
X256985Y371094D03*
X278321Y371170D03*
D66*
X276492Y371170D03*
D73*
X257061Y371170D03*
X278244Y371246D03*
D66*
X276492Y371246D03*
D76*
X257137Y371246D03*
D73*
X278168Y371323D03*
D66*
X276492Y371323D03*
D73*
X257213Y371323D03*
D76*
X278092Y371399D03*
D66*
X276492Y371399D03*
D73*
X257289Y371399D03*
X278016Y371475D03*
D66*
X276492Y371475D03*
D80*
X257327Y371475D03*
D76*
X277940Y371551D03*
D66*
X276492Y371551D03*
D80*
X257404Y371551D03*
D73*
X277863Y371627D03*
D66*
X276492Y371627D03*
D80*
X257404Y371627D03*
D86*
X277406Y371704D03*
D104*
X257404Y371704D03*
D128*
X277368Y371780D03*
D109*
X257442Y371780D03*
D101*
X277368Y371856D03*
D102*
X257480Y371856D03*
D101*
X277368Y371932D03*
D110*
X257518Y371932D03*
X277330Y372008D03*
D101*
X257556Y372008D03*
D102*
X277292Y372085D03*
D111*
X257594Y372085D03*
D109*
X277254Y372161D03*
D142*
X257632Y372161D03*
D104*
X277216Y372237D03*
D86*
X257670Y372237D03*
D85*
X277178Y372313D03*
D76*
X258128Y372313D03*
D66*
X256756Y372313D03*
D80*
X277139Y372389D03*
D73*
X258204Y372389D03*
D66*
X256756Y372389D03*
D80*
X277063Y372466D03*
D76*
X258280Y372466D03*
D121*
X256718Y372466D03*
D80*
X276987Y372542D03*
D73*
X258356Y372542D03*
D66*
X256680Y372542D03*
D80*
X276911Y372618D03*
D73*
X258432Y372618D03*
D66*
X256680Y372618D03*
D80*
X276835Y372694D03*
D76*
X258509Y372694D03*
D66*
X256680Y372694D03*
D80*
X276758Y372770D03*
D76*
X258509Y372770D03*
D66*
X256680Y372770D03*
D73*
X276720Y372847D03*
X258585Y372847D03*
D66*
X256680Y372847D03*
D73*
X276644Y372923D03*
D76*
X258661Y372923D03*
D66*
X256680Y372923D03*
D76*
X276568Y372999D03*
D73*
X258737Y372999D03*
D66*
X256680Y372999D03*
D73*
X276492Y373075D03*
X258813Y373075D03*
D66*
X256680Y373075D03*
D76*
X276416Y373151D03*
X258890Y373151D03*
D66*
X256680Y373151D03*
D73*
X276339Y373228D03*
X258966Y373228D03*
D66*
X256680Y373228D03*
D73*
X276263Y373304D03*
D76*
X259042Y373304D03*
D121*
X256642Y373304D03*
D76*
X276187Y373380D03*
D73*
X259118Y373380D03*
D121*
X256642Y373380D03*
D73*
X276111Y373456D03*
X259194Y373456D03*
D66*
X256604Y373456D03*
D80*
X276073Y373532D03*
D76*
X259271Y373532D03*
D66*
X256604Y373532D03*
D85*
X276035Y373609D03*
D73*
X259347Y373609D03*
D66*
X256604Y373609D03*
D104*
X275996Y373685D03*
D76*
X259423Y373685D03*
D66*
X256604Y373685D03*
D125*
X275996Y373761D03*
D73*
X259499Y373761D03*
D66*
X256604Y373761D03*
D110*
X275958Y373837D03*
D80*
X259537Y373837D03*
D66*
X256604Y373837D03*
D101*
X275920Y373913D03*
D73*
X259575Y373913D03*
D66*
X256604Y373913D03*
D111*
X275882Y373990D03*
D76*
X259652Y373990D03*
D66*
X256604Y373990D03*
D128*
X275844Y374066D03*
D73*
X259728Y374066D03*
D66*
X256604Y374066D03*
D143*
X275806Y374142D03*
D76*
X259804Y374142D03*
D66*
X256604Y374142D03*
D144*
X275768Y374218D03*
D73*
X259880Y374218D03*
D119*
X256565Y374218D03*
D66*
X276720Y374294D03*
D80*
X275311Y374294D03*
D73*
X259956Y374294D03*
D119*
X256565Y374294D03*
D66*
X276720Y374371D03*
D80*
X275234Y374371D03*
D76*
X260033Y374371D03*
D66*
X256527Y374371D03*
X276720Y374447D03*
D80*
X275158Y374447D03*
D73*
X260109Y374447D03*
D66*
X256527Y374447D03*
D119*
X276758Y374523D03*
D80*
X275082Y374523D03*
D76*
X260185Y374523D03*
D66*
X256527Y374523D03*
D119*
X276758Y374599D03*
D80*
X275006Y374599D03*
D73*
X260261Y374599D03*
D66*
X256527Y374599D03*
X276797Y374675D03*
D80*
X274930Y374675D03*
D73*
X260337Y374675D03*
D66*
X256527Y374675D03*
X276797Y374752D03*
D80*
X274853Y374752D03*
D76*
X260414Y374752D03*
D66*
X256527Y374752D03*
X276797Y374828D03*
D80*
X274777Y374828D03*
D73*
X260490Y374828D03*
D66*
X256527Y374828D03*
X276797Y374904D03*
D80*
X274701Y374904D03*
D76*
X260566Y374904D03*
D66*
X256527Y374904D03*
X276797Y374980D03*
D76*
X274663Y374980D03*
D80*
X260604Y374980D03*
D66*
X256527Y374980D03*
X276797Y375056D03*
D73*
X274587Y375056D03*
X260642Y375056D03*
D121*
X256489Y375056D03*
D66*
X276797Y375133D03*
D76*
X274511Y375133D03*
D73*
X260718Y375133D03*
D121*
X256489Y375133D03*
D66*
X276797Y375209D03*
D73*
X274434Y375209D03*
D76*
X260795Y375209D03*
D66*
X256451Y375209D03*
X276797Y375285D03*
D73*
X274358Y375285D03*
X260871Y375285D03*
D66*
X256451Y375285D03*
D121*
X276835Y375361D03*
D76*
X274282Y375361D03*
X260947Y375361D03*
D66*
X256451Y375361D03*
D121*
X276835Y375437D03*
D73*
X274206Y375437D03*
X261023Y375437D03*
D66*
X256451Y375437D03*
X276873Y375514D03*
D76*
X274130Y375514D03*
D73*
X261099Y375514D03*
D66*
X256451Y375514D03*
X276873Y375590D03*
D73*
X274053Y375590D03*
D76*
X261176Y375590D03*
D66*
X256451Y375590D03*
X276873Y375666D03*
D73*
X273977Y375666D03*
X261252Y375666D03*
D66*
X256451Y375666D03*
X276873Y375742D03*
D76*
X273901Y375742D03*
X261328Y375742D03*
D66*
X256451Y375742D03*
X276873Y375818D03*
D73*
X273825Y375818D03*
X261404Y375818D03*
D66*
X256451Y375818D03*
X276873Y375895D03*
D76*
X273749Y375895D03*
D73*
X261480Y375895D03*
D66*
X256451Y375895D03*
X276873Y375971D03*
D73*
X273672Y375971D03*
D76*
X261557Y375971D03*
D119*
X256413Y375971D03*
D66*
X276873Y376047D03*
D80*
X273634Y376047D03*
D73*
X261633Y376047D03*
D119*
X256413Y376047D03*
D66*
X276873Y376123D03*
D80*
X273558Y376123D03*
X261671Y376123D03*
D66*
X256375Y376123D03*
X276873Y376199D03*
D80*
X273482Y376199D03*
D76*
X261709Y376199D03*
D66*
X256375Y376199D03*
D121*
X276911Y376276D03*
D80*
X273406Y376276D03*
D73*
X261785Y376276D03*
D66*
X256375Y376276D03*
D121*
X276911Y376352D03*
D80*
X273329Y376352D03*
D73*
X261861Y376352D03*
D66*
X256375Y376352D03*
X276949Y376428D03*
D80*
X273253Y376428D03*
D76*
X261938Y376428D03*
D66*
X256375Y376428D03*
X276949Y376504D03*
D80*
X273177Y376504D03*
D73*
X262014Y376504D03*
D66*
X256375Y376504D03*
X276949Y376580D03*
D80*
X273101Y376580D03*
D76*
X262090Y376580D03*
D66*
X256375Y376580D03*
X276949Y376657D03*
D80*
X273025Y376657D03*
D73*
X262166Y376657D03*
D66*
X256375Y376657D03*
X276949Y376733D03*
D80*
X272948Y376733D03*
D73*
X262242Y376733D03*
D66*
X256375Y376733D03*
X276949Y376809D03*
D80*
X272872Y376809D03*
D76*
X262319Y376809D03*
D121*
X256337Y376809D03*
D66*
X276949Y376885D03*
D80*
X272796Y376885D03*
D73*
X262395Y376885D03*
D121*
X256337Y376885D03*
D66*
X276949Y376961D03*
D80*
X272720Y376961D03*
D76*
X262471Y376961D03*
D66*
X256299Y376961D03*
X276949Y377038D03*
D73*
X272682Y377038D03*
X262547Y377038D03*
D66*
X256299Y377038D03*
X276949Y377114D03*
D76*
X272606Y377114D03*
D73*
X262623Y377114D03*
D66*
X256299Y377114D03*
D119*
X276987Y377190D03*
D73*
X272529Y377190D03*
D76*
X262700Y377190D03*
D66*
X256299Y377190D03*
X277025Y377266D03*
D73*
X272453Y377266D03*
D80*
X262738Y377266D03*
D66*
X256299Y377266D03*
X277025Y377342D03*
D76*
X272377Y377342D03*
D73*
X262776Y377342D03*
D66*
X256299Y377342D03*
X277025Y377419D03*
D73*
X272301Y377419D03*
D76*
X262852Y377419D03*
D66*
X256299Y377419D03*
X277025Y377495D03*
D76*
X272225Y377495D03*
D73*
X262928Y377495D03*
D66*
X256299Y377495D03*
X277025Y377571D03*
D73*
X272148Y377571D03*
X263004Y377571D03*
D66*
X256299Y377571D03*
X277025Y377647D03*
D73*
X272072Y377647D03*
D76*
X263081Y377647D03*
D66*
X256299Y377647D03*
X277025Y377723D03*
D76*
X271996Y377723D03*
D73*
X263157Y377723D03*
D121*
X256261Y377723D03*
D66*
X277025Y377800D03*
D73*
X271920Y377800D03*
D76*
X263233Y377800D03*
D66*
X256223Y377800D03*
X277025Y377876D03*
D76*
X271844Y377876D03*
D73*
X263309Y377876D03*
D66*
X256223Y377876D03*
X277025Y377952D03*
D73*
X271767Y377952D03*
X263385Y377952D03*
D66*
X256223Y377952D03*
D121*
X277063Y378028D03*
D73*
X271691Y378028D03*
D76*
X263462Y378028D03*
D66*
X256223Y378028D03*
D121*
X277063Y378104D03*
D80*
X271653Y378104D03*
D73*
X263538Y378104D03*
D66*
X256223Y378104D03*
X277101Y378181D03*
D80*
X271577Y378181D03*
D76*
X263614Y378181D03*
D66*
X256223Y378181D03*
X277101Y378257D03*
D80*
X271501Y378257D03*
D73*
X263690Y378257D03*
D66*
X256223Y378257D03*
X277101Y378333D03*
D80*
X271424Y378333D03*
D73*
X263766Y378333D03*
D66*
X256223Y378333D03*
X277101Y378409D03*
D80*
X271348Y378409D03*
X263804Y378409D03*
D66*
X256223Y378409D03*
X277101Y378485D03*
D80*
X271272Y378485D03*
D76*
X263843Y378485D03*
D66*
X256223Y378485D03*
X277101Y378562D03*
D80*
X271196Y378562D03*
D73*
X263919Y378562D03*
D119*
X256184Y378562D03*
D66*
X277101Y378638D03*
D80*
X271120Y378638D03*
D76*
X263995Y378638D03*
D119*
X256184Y378638D03*
D66*
X277101Y378714D03*
D80*
X271043Y378714D03*
D73*
X264071Y378714D03*
D66*
X256146Y378714D03*
X277101Y378790D03*
D80*
X270967Y378790D03*
D73*
X264147Y378790D03*
D66*
X256146Y378790D03*
X277101Y378866D03*
D80*
X270891Y378866D03*
D76*
X264224Y378866D03*
D66*
X256146Y378866D03*
D119*
X277139Y378943D03*
D80*
X270815Y378943D03*
D73*
X264300Y378943D03*
D66*
X256146Y378943D03*
D119*
X277139Y379019D03*
D80*
X270739Y379019D03*
D76*
X264376Y379019D03*
D66*
X256146Y379019D03*
X277178Y379095D03*
D76*
X270701Y379095D03*
D73*
X264452Y379095D03*
D66*
X256146Y379095D03*
X277178Y379171D03*
D73*
X270624Y379171D03*
X264528Y379171D03*
D66*
X256146Y379171D03*
X277178Y379247D03*
D73*
X270548Y379247D03*
D76*
X264605Y379247D03*
D66*
X256146Y379247D03*
X277178Y379324D03*
D76*
X270472Y379324D03*
D73*
X264681Y379324D03*
D66*
X256146Y379324D03*
X277178Y379400D03*
D73*
X270396Y379400D03*
D76*
X264757Y379400D03*
D66*
X256146Y379400D03*
X277178Y379476D03*
D76*
X270320Y379476D03*
D80*
X264795Y379476D03*
D121*
X256108Y379476D03*
D66*
X277178Y379552D03*
D73*
X270243Y379552D03*
X264833Y379552D03*
D121*
X256108Y379552D03*
D66*
X277178Y379628D03*
D73*
X270167Y379628D03*
X264909Y379628D03*
D66*
X256070Y379628D03*
X277178Y379705D03*
D76*
X270091Y379705D03*
X264986Y379705D03*
D66*
X256070Y379705D03*
D121*
X277216Y379781D03*
D73*
X270015Y379781D03*
X265062Y379781D03*
D66*
X256070Y379781D03*
D121*
X277216Y379857D03*
D76*
X269939Y379857D03*
X265138Y379857D03*
D66*
X256070Y379857D03*
X277254Y379933D03*
D73*
X269862Y379933D03*
X265214Y379933D03*
D66*
X256070Y379933D03*
X277254Y380009D03*
D73*
X269786Y380009D03*
X265290Y380009D03*
D66*
X256070Y380009D03*
X277254Y380086D03*
D76*
X269710Y380086D03*
X265367Y380086D03*
D66*
X256070Y380086D03*
X277254Y380162D03*
D80*
X269672Y380162D03*
D73*
X265443Y380162D03*
D66*
X256070Y380162D03*
X277254Y380238D03*
D80*
X269596Y380238D03*
D76*
X265519Y380238D03*
D66*
X256070Y380238D03*
X277254Y380314D03*
D80*
X269519Y380314D03*
D73*
X265595Y380314D03*
D119*
X256032Y380314D03*
D66*
X277254Y380390D03*
D80*
X269443Y380390D03*
D73*
X265671Y380390D03*
D119*
X256032Y380390D03*
D66*
X277254Y380467D03*
D80*
X269367Y380467D03*
D76*
X265748Y380467D03*
D66*
X255994Y380467D03*
X277254Y380543D03*
D80*
X269291Y380543D03*
D73*
X265824Y380543D03*
D66*
X255994Y380543D03*
X277254Y380619D03*
D80*
X269215Y380619D03*
X265862Y380619D03*
D66*
X255994Y380619D03*
D121*
X277292Y380695D03*
D80*
X269138Y380695D03*
D76*
X265900Y380695D03*
D66*
X255994Y380695D03*
D121*
X277292Y380771D03*
D80*
X269062Y380771D03*
D73*
X265976Y380771D03*
D66*
X255994Y380771D03*
X277330Y380848D03*
D80*
X268986Y380848D03*
D73*
X266052Y380848D03*
D66*
X255994Y380848D03*
X277330Y380924D03*
D80*
X268910Y380924D03*
D76*
X266129Y380924D03*
D66*
X255994Y380924D03*
X277330Y381000D03*
D80*
X268834Y381000D03*
D73*
X266205Y381000D03*
D66*
X255994Y381000D03*
X277330Y381076D03*
D80*
X268757Y381076D03*
D76*
X266281Y381076D03*
D66*
X255994Y381076D03*
X277330Y381152D03*
D80*
X268681Y381152D03*
D73*
X266357Y381152D03*
D66*
X255994Y381152D03*
X277330Y381229D03*
D73*
X268643Y381229D03*
X266433Y381229D03*
D121*
X255956Y381229D03*
D66*
X277330Y381305D03*
D76*
X268567Y381305D03*
X266510Y381305D03*
D121*
X255956Y381305D03*
D66*
X277330Y381381D03*
D73*
X268491Y381381D03*
X266586Y381381D03*
D66*
X255918Y381381D03*
X277330Y381457D03*
D140*
X267538Y381457D03*
D66*
X255918Y381457D03*
X277330Y381533D03*
D145*
X267538Y381533D03*
D66*
X255918Y381533D03*
D119*
X277368Y381610D03*
D146*
X267538Y381610D03*
D66*
X255918Y381610D03*
D119*
X277368Y381686D03*
D120*
X267538Y381686D03*
D66*
X255918Y381686D03*
X277406Y381762D03*
D116*
X267500Y381762D03*
D66*
X255918Y381762D03*
X277406Y381838D03*
D147*
X267500Y381838D03*
D66*
X255918Y381838D03*
X277406Y381914D03*
D114*
X267500Y381914D03*
D66*
X255918Y381914D03*
X277406Y381991D03*
D86*
X267500Y381991D03*
D66*
X255918Y381991D03*
X277406Y382067D03*
D111*
X267500Y382067D03*
D121*
X255880Y382067D03*
D66*
X277406Y382143D03*
D101*
X267538Y382143D03*
D121*
X255880Y382143D03*
D66*
X277406Y382219D03*
D102*
X267538Y382219D03*
D66*
X255842Y382219D03*
X277406Y382295D03*
D104*
X267538Y382295D03*
D66*
X255842Y382295D03*
X277406Y382372D03*
D80*
X267538Y382372D03*
D66*
X255842Y382372D03*
D121*
X277444Y382448D03*
D85*
X267500Y382448D03*
D66*
X255842Y382448D03*
D121*
X277444Y382524D03*
D103*
X267500Y382524D03*
D66*
X255842Y382524D03*
X277482Y382600D03*
D110*
X267500Y382600D03*
D66*
X255842Y382600D03*
X277482Y382676D03*
D111*
X267500Y382676D03*
D66*
X255842Y382676D03*
X277482Y382753D03*
D86*
X267500Y382753D03*
D66*
X255842Y382753D03*
X277482Y382829D03*
D114*
X267500Y382829D03*
D66*
X255842Y382829D03*
X277482Y382905D03*
D147*
X267500Y382905D03*
D66*
X255842Y382905D03*
X277482Y382981D03*
D148*
X267462Y382981D03*
D119*
X255803Y382981D03*
D66*
X277482Y383057D03*
D120*
X267462Y383057D03*
D119*
X255803Y383057D03*
D66*
X277482Y383134D03*
D149*
X267462Y383134D03*
D66*
X255765Y383134D03*
X277482Y383210D03*
D145*
X267462Y383210D03*
D66*
X255765Y383210D03*
X277482Y383286D03*
D150*
X267500Y383286D03*
D66*
X255765Y383286D03*
D119*
X277520Y383362D03*
D122*
X267500Y383362D03*
D66*
X255765Y383362D03*
D119*
X277520Y383438D03*
D73*
X268491Y383438D03*
D76*
X266510Y383438D03*
D66*
X255765Y383438D03*
X277559Y383515D03*
D76*
X268567Y383515D03*
D73*
X266433Y383515D03*
D66*
X255765Y383515D03*
X277559Y383591D03*
D73*
X268643Y383591D03*
X266357Y383591D03*
D66*
X255765Y383591D03*
X277559Y383667D03*
D73*
X268719Y383667D03*
D76*
X266281Y383667D03*
D66*
X255765Y383667D03*
X277559Y383743D03*
D76*
X268796Y383743D03*
D73*
X266205Y383743D03*
D66*
X255765Y383743D03*
X277559Y383819D03*
D73*
X268872Y383819D03*
D76*
X266129Y383819D03*
D121*
X255727Y383819D03*
D66*
X277559Y383896D03*
D76*
X268948Y383896D03*
D73*
X266052Y383896D03*
D121*
X255727Y383896D03*
D66*
X277559Y383972D03*
D80*
X268986Y383972D03*
D73*
X265976Y383972D03*
D66*
X255689Y383972D03*
X277559Y384048D03*
D80*
X269062Y384048D03*
D76*
X265900Y384048D03*
D66*
X255689Y384048D03*
X277559Y384124D03*
D73*
X269100Y384124D03*
X265824Y384124D03*
D66*
X255689Y384124D03*
X277559Y384200D03*
D76*
X269177Y384200D03*
D80*
X265786Y384200D03*
D66*
X255689Y384200D03*
D121*
X277597Y384277D03*
D73*
X269253Y384277D03*
D80*
X265709Y384277D03*
D66*
X255689Y384277D03*
D121*
X277597Y384353D03*
D76*
X269329Y384353D03*
D80*
X265633Y384353D03*
D66*
X255689Y384353D03*
X277635Y384429D03*
D73*
X269405Y384429D03*
D80*
X265557Y384429D03*
D66*
X255689Y384429D03*
X277635Y384505D03*
D73*
X269481Y384505D03*
D80*
X265481Y384505D03*
D66*
X255689Y384505D03*
X277635Y384581D03*
D76*
X269558Y384581D03*
D80*
X265405Y384581D03*
D66*
X255689Y384581D03*
X277635Y384658D03*
D73*
X269634Y384658D03*
D80*
X265328Y384658D03*
D66*
X255689Y384658D03*
X277635Y384734D03*
D76*
X269710Y384734D03*
D80*
X265252Y384734D03*
D119*
X255651Y384734D03*
D66*
X277635Y384810D03*
D73*
X269786Y384810D03*
D80*
X265176Y384810D03*
D119*
X255651Y384810D03*
D66*
X277635Y384886D03*
D73*
X269862Y384886D03*
D80*
X265100Y384886D03*
D66*
X255613Y384886D03*
X277635Y384962D03*
D76*
X269939Y384962D03*
D80*
X265024Y384962D03*
D66*
X255613Y384962D03*
X277635Y385039D03*
D73*
X270015Y385039D03*
D80*
X264947Y385039D03*
D66*
X255613Y385039D03*
D121*
X277673Y385115D03*
D80*
X270053Y385115D03*
X264871Y385115D03*
D66*
X255613Y385115D03*
D121*
X277673Y385191D03*
D80*
X270129Y385191D03*
X264795Y385191D03*
D66*
X255613Y385191D03*
X277711Y385267D03*
D73*
X270167Y385267D03*
D80*
X264719Y385267D03*
D66*
X255613Y385267D03*
X277711Y385343D03*
D73*
X270243Y385343D03*
X264681Y385343D03*
D66*
X255613Y385343D03*
X277711Y385420D03*
D76*
X270320Y385420D03*
X264605Y385420D03*
D66*
X255613Y385420D03*
X277711Y385496D03*
D73*
X270396Y385496D03*
X264528Y385496D03*
D66*
X255613Y385496D03*
X277711Y385572D03*
D76*
X270472Y385572D03*
D73*
X264452Y385572D03*
D121*
X255575Y385572D03*
D66*
X277711Y385648D03*
D73*
X270548Y385648D03*
D76*
X264376Y385648D03*
D121*
X255575Y385648D03*
D66*
X277711Y385724D03*
D73*
X270624Y385724D03*
X264300Y385724D03*
D66*
X255537Y385724D03*
X277711Y385801D03*
D76*
X270701Y385801D03*
X264224Y385801D03*
D66*
X255537Y385801D03*
X277711Y385877D03*
D73*
X270777Y385877D03*
X264147Y385877D03*
D66*
X255537Y385877D03*
X277711Y385953D03*
D76*
X270853Y385953D03*
D73*
X264071Y385953D03*
D66*
X255537Y385953D03*
D119*
X277749Y386029D03*
D73*
X270929Y386029D03*
D76*
X263995Y386029D03*
D66*
X255537Y386029D03*
D119*
X277749Y386105D03*
D73*
X271005Y386105D03*
X263919Y386105D03*
D66*
X255537Y386105D03*
X277787Y386182D03*
D76*
X271082Y386182D03*
X263843Y386182D03*
D66*
X255537Y386182D03*
X277787Y386258D03*
D80*
X271120Y386258D03*
X263804Y386258D03*
D66*
X255537Y386258D03*
X277787Y386334D03*
D80*
X271196Y386334D03*
X263728Y386334D03*
D66*
X255537Y386334D03*
X277787Y386410D03*
D76*
X271234Y386410D03*
D80*
X263652Y386410D03*
D66*
X255537Y386410D03*
X277787Y386486D03*
D73*
X271310Y386486D03*
D80*
X263576Y386486D03*
D121*
X255499Y386486D03*
D66*
X277787Y386563D03*
D73*
X271386Y386563D03*
D80*
X263500Y386563D03*
D121*
X255499Y386563D03*
D66*
X277787Y386639D03*
D76*
X271463Y386639D03*
D80*
X263423Y386639D03*
D66*
X255461Y386639D03*
X277787Y386715D03*
D73*
X271539Y386715D03*
D80*
X263347Y386715D03*
D66*
X255461Y386715D03*
X277787Y386791D03*
D76*
X271615Y386791D03*
D80*
X263271Y386791D03*
D66*
X255461Y386791D03*
D121*
X277825Y386867D03*
D73*
X271691Y386867D03*
D80*
X263195Y386867D03*
D66*
X255461Y386867D03*
D121*
X277825Y386944D03*
D73*
X271767Y386944D03*
D80*
X263119Y386944D03*
D66*
X255461Y386944D03*
X277863Y387020D03*
D76*
X271844Y387020D03*
D80*
X263042Y387020D03*
D66*
X255461Y387020D03*
X277863Y387096D03*
D73*
X271920Y387096D03*
D80*
X262966Y387096D03*
D66*
X255461Y387096D03*
X277863Y387172D03*
D76*
X271996Y387172D03*
D80*
X262890Y387172D03*
D66*
X255461Y387172D03*
X277863Y387248D03*
D73*
X272072Y387248D03*
D80*
X262814Y387248D03*
D66*
X255461Y387248D03*
X277863Y387325D03*
D73*
X272148Y387325D03*
D80*
X262738Y387325D03*
D119*
X255422Y387325D03*
D66*
X277863Y387401D03*
D80*
X272186Y387401D03*
X262661Y387401D03*
D119*
X255422Y387401D03*
D66*
X277863Y387477D03*
D80*
X272263Y387477D03*
D73*
X262623Y387477D03*
D66*
X255384Y387477D03*
X277863Y387553D03*
D73*
X272301Y387553D03*
X262547Y387553D03*
D66*
X255384Y387553D03*
X277863Y387629D03*
D76*
X272377Y387629D03*
X262471Y387629D03*
D66*
X255384Y387629D03*
X277863Y387706D03*
D73*
X272453Y387706D03*
X262395Y387706D03*
D66*
X255384Y387706D03*
D119*
X277901Y387782D03*
D73*
X272529Y387782D03*
D76*
X262319Y387782D03*
D66*
X255384Y387782D03*
D119*
X277901Y387858D03*
D76*
X272606Y387858D03*
D73*
X262242Y387858D03*
D66*
X255384Y387858D03*
X277940Y387934D03*
D73*
X272682Y387934D03*
X262166Y387934D03*
D66*
X255384Y387934D03*
X277940Y388010D03*
D76*
X272758Y388010D03*
X262090Y388010D03*
D66*
X255384Y388010D03*
X277940Y388087D03*
D73*
X272834Y388087D03*
X262014Y388087D03*
D66*
X255384Y388087D03*
X277940Y388163D03*
D73*
X272910Y388163D03*
D76*
X261938Y388163D03*
D66*
X255384Y388163D03*
X277940Y388239D03*
D76*
X272987Y388239D03*
D73*
X261861Y388239D03*
D121*
X255346Y388239D03*
D66*
X277940Y388315D03*
D73*
X273063Y388315D03*
D80*
X261823Y388315D03*
D121*
X255346Y388315D03*
D66*
X277940Y388391D03*
D76*
X273139Y388391D03*
D80*
X261747Y388391D03*
D66*
X255308Y388391D03*
X277940Y388468D03*
D73*
X273215Y388468D03*
D80*
X261671Y388468D03*
D66*
X255308Y388468D03*
X277940Y388544D03*
D80*
X273253Y388544D03*
X261595Y388544D03*
D66*
X255308Y388544D03*
X277940Y388620D03*
D80*
X273329Y388620D03*
X261518Y388620D03*
D66*
X255308Y388620D03*
D121*
X277978Y388696D03*
D76*
X273368Y388696D03*
D80*
X261442Y388696D03*
D66*
X255308Y388696D03*
D121*
X277978Y388772D03*
D73*
X273444Y388772D03*
D80*
X261366Y388772D03*
D66*
X255308Y388772D03*
X278016Y388849D03*
D76*
X273520Y388849D03*
D80*
X261290Y388849D03*
D66*
X255308Y388849D03*
X278016Y388925D03*
D73*
X273596Y388925D03*
D80*
X261214Y388925D03*
D66*
X255308Y388925D03*
X278016Y389001D03*
D73*
X273672Y389001D03*
D80*
X261137Y389001D03*
D66*
X255308Y389001D03*
X278016Y389077D03*
D76*
X273749Y389077D03*
D80*
X261061Y389077D03*
D119*
X255270Y389077D03*
D66*
X278016Y389153D03*
D73*
X273825Y389153D03*
D80*
X260985Y389153D03*
D119*
X255270Y389153D03*
D66*
X278016Y389230D03*
D76*
X273901Y389230D03*
D151*
X264833Y389230D03*
D66*
X255232Y389230D03*
X278016Y389306D03*
D73*
X273977Y389306D03*
D152*
X264833Y389306D03*
D66*
X255232Y389306D03*
X278016Y389382D03*
D73*
X274053Y389382D03*
D153*
X264795Y389382D03*
D66*
X255232Y389382D03*
X278016Y389458D03*
D76*
X274130Y389458D03*
D154*
X264757Y389458D03*
D66*
X255232Y389458D03*
D121*
X278054Y389534D03*
D73*
X274206Y389534D03*
D154*
X264757Y389534D03*
D66*
X255232Y389534D03*
D121*
X278054Y389611D03*
D80*
X274244Y389611D03*
D155*
X264719Y389611D03*
D66*
X255232Y389611D03*
X278092Y389687D03*
D80*
X274320Y389687D03*
D156*
X264681Y389687D03*
D66*
X255232Y389687D03*
X278092Y389763D03*
D80*
X274396Y389763D03*
D157*
X264643Y389763D03*
D66*
X255232Y389763D03*
X278092Y389839D03*
D73*
X274434Y389839D03*
D158*
X264605Y389839D03*
D66*
X255232Y389839D03*
X278092Y389915D03*
D76*
X274511Y389915D03*
D159*
X264566Y389915D03*
D66*
X255232Y389915D03*
X278092Y389992D03*
D73*
X274587Y389992D03*
D160*
X264528Y389992D03*
D121*
X255194Y389992D03*
D66*
X278092Y390068D03*
D76*
X274663Y390068D03*
D161*
X264490Y390068D03*
D121*
X255194Y390068D03*
D66*
X278092Y390144D03*
D73*
X274739Y390144D03*
D162*
X264452Y390144D03*
D66*
X255156Y390144D03*
X278092Y390220D03*
D73*
X274815Y390220D03*
D163*
X264414Y390220D03*
D66*
X255156Y390220D03*
X278092Y390296D03*
D76*
X274892Y390296D03*
D164*
X264376Y390296D03*
D66*
X255156Y390296D03*
X278092Y390373D03*
D73*
X274968Y390373D03*
D165*
X264338Y390373D03*
D66*
X255156Y390373D03*
D119*
X278130Y390449D03*
D76*
X275044Y390449D03*
D166*
X264300Y390449D03*
D66*
X255156Y390449D03*
D119*
X278130Y390525D03*
D73*
X275120Y390525D03*
D167*
X264262Y390525D03*
D66*
X255156Y390525D03*
X278168Y390601D03*
D73*
X275196Y390601D03*
D168*
X264224Y390601D03*
D66*
X255156Y390601D03*
X278168Y390677D03*
D76*
X275273Y390677D03*
D169*
X264185Y390677D03*
D66*
X255156Y390677D03*
X278168Y390754D03*
D80*
X275311Y390754D03*
D170*
X264147Y390754D03*
D66*
X255156Y390754D03*
X278168Y390830D03*
D80*
X275387Y390830D03*
D171*
X265100Y390830D03*
D80*
X259385Y390830D03*
D121*
X255118Y390830D03*
D66*
X278168Y390906D03*
D80*
X275463Y390906D03*
D171*
X265100Y390906D03*
D80*
X259309Y390906D03*
D121*
X255118Y390906D03*
D66*
X278168Y390982D03*
D73*
X275501Y390982D03*
D171*
X265100Y390982D03*
D80*
X259232Y390982D03*
D66*
X255080Y390982D03*
X278168Y391058D03*
D73*
X275577Y391058D03*
D171*
X265100Y391058D03*
D80*
X259156Y391058D03*
D66*
X255080Y391058D03*
X278168Y391135D03*
D76*
X275654Y391135D03*
D171*
X265100Y391135D03*
D80*
X259080Y391135D03*
D66*
X255080Y391135D03*
X278168Y391211D03*
D73*
X275730Y391211D03*
D171*
X265100Y391211D03*
D80*
X259004Y391211D03*
D66*
X255080Y391211D03*
X278168Y391287D03*
D76*
X275806Y391287D03*
D171*
X265100Y391287D03*
D80*
X258928Y391287D03*
D66*
X255080Y391287D03*
D121*
X278206Y391363D03*
D73*
X275882Y391363D03*
D171*
X265100Y391363D03*
D80*
X258851Y391363D03*
D66*
X255080Y391363D03*
D121*
X278206Y391439D03*
D73*
X275958Y391439D03*
D171*
X265100Y391439D03*
D80*
X258775Y391439D03*
D66*
X255080Y391439D03*
X278244Y391516D03*
D76*
X276035Y391516D03*
D171*
X265100Y391516D03*
D80*
X258699Y391516D03*
D66*
X255080Y391516D03*
X278244Y391592D03*
D73*
X276111Y391592D03*
D171*
X265100Y391592D03*
D76*
X258661Y391592D03*
D66*
X255080Y391592D03*
X278244Y391668D03*
D76*
X276187Y391668D03*
D171*
X265100Y391668D03*
D73*
X258585Y391668D03*
D66*
X255080Y391668D03*
X278244Y391744D03*
D73*
X276263Y391744D03*
D171*
X265100Y391744D03*
D76*
X258509Y391744D03*
D119*
X255041Y391744D03*
D66*
X278244Y391820D03*
D73*
X276339Y391820D03*
D171*
X265100Y391820D03*
D73*
X258432Y391820D03*
D119*
X255041Y391820D03*
D66*
X278244Y391897D03*
D80*
X276377Y391897D03*
D171*
X265100Y391897D03*
D73*
X258356Y391897D03*
D66*
X255003Y391897D03*
X278244Y391973D03*
D80*
X276454Y391973D03*
D171*
X265100Y391973D03*
D76*
X258280Y391973D03*
D66*
X255003Y391973D03*
X278244Y392049D03*
D80*
X276530Y392049D03*
D171*
X265100Y392049D03*
D73*
X258204Y392049D03*
D66*
X255003Y392049D03*
X278244Y392125D03*
D76*
X276568Y392125D03*
D171*
X265100Y392125D03*
D76*
X258128Y392125D03*
D66*
X255003Y392125D03*
D119*
X278282Y392201D03*
D73*
X276644Y392201D03*
D171*
X265100Y392201D03*
D73*
X258051Y392201D03*
D66*
X255003Y392201D03*
D119*
X278282Y392278D03*
D73*
X276720Y392278D03*
D171*
X265100Y392278D03*
D73*
X257975Y392278D03*
D66*
X255003Y392278D03*
X278321Y392354D03*
D76*
X276797Y392354D03*
D171*
X265100Y392354D03*
D80*
X257937Y392354D03*
D66*
X255003Y392354D03*
X278321Y392430D03*
D73*
X276873Y392430D03*
D171*
X265100Y392430D03*
D80*
X257861Y392430D03*
D66*
X255003Y392430D03*
X278321Y392506D03*
D76*
X276949Y392506D03*
D171*
X265100Y392506D03*
D80*
X257785Y392506D03*
D66*
X255003Y392506D03*
D86*
X277406Y392582D03*
D171*
X265100Y392582D03*
D80*
X257708Y392582D03*
D121*
X254965Y392582D03*
D142*
X277444Y392659D03*
D80*
X257632Y392659D03*
D121*
X254965Y392659D03*
D111*
X277482Y392735D03*
D80*
X257556Y392735D03*
D66*
X254927Y392735D03*
D101*
X277520Y392811D03*
D80*
X257480Y392811D03*
D66*
X254927Y392811D03*
D110*
X277559Y392887D03*
D80*
X257404Y392887D03*
D66*
X254927Y392887D03*
D102*
X277597Y392963D03*
D80*
X257327Y392963D03*
D66*
X254927Y392963D03*
D102*
X277597Y393040D03*
D80*
X257251Y393040D03*
D66*
X254927Y393040D03*
D109*
X277635Y393116D03*
D80*
X257175Y393116D03*
D66*
X254927Y393116D03*
D104*
X277673Y393192D03*
D80*
X257099Y393192D03*
D66*
X254927Y393192D03*
D104*
X277749Y393268D03*
D80*
X257023Y393268D03*
D66*
X254927Y393268D03*
D85*
X277787Y393344D03*
D172*
X254470Y393344D03*
D80*
X277825Y393421D03*
D173*
X254432Y393421D03*
D73*
X277863Y393497D03*
D174*
X254394Y393497D03*
D76*
X277940Y393573D03*
D175*
X254356Y393573D03*
D73*
X278016Y393649D03*
D176*
X254318Y393649D03*
D76*
X278092Y393725D03*
D177*
X254279Y393725D03*
D73*
X278168Y393802D03*
D178*
X254241Y393802D03*
D73*
X278244Y393878D03*
D179*
X254203Y393878D03*
D76*
X278321Y393954D03*
D180*
X254165Y393954D03*
D73*
X278397Y394030D03*
D181*
X254127Y394030D03*
D80*
X278435Y394106D03*
D76*
X256223Y394106D03*
D121*
X251384Y394106D03*
D80*
X278511Y394183D03*
D73*
X256146Y394183D03*
D121*
X251384Y394183D03*
D80*
X278587Y394259D03*
D73*
X256070Y394259D03*
D121*
X251384Y394259D03*
D73*
X278625Y394335D03*
D76*
X255994Y394335D03*
D121*
X251384Y394335D03*
D76*
X278702Y394411D03*
D80*
X255956Y394411D03*
D121*
X251384Y394411D03*
D73*
X278778Y394487D03*
D80*
X255880Y394487D03*
D121*
X251384Y394487D03*
D76*
X278854Y394564D03*
D80*
X255803Y394564D03*
D121*
X251384Y394564D03*
D73*
X278930Y394640D03*
D80*
X255727Y394640D03*
D121*
X251384Y394640D03*
D73*
X279006Y394716D03*
D80*
X255651Y394716D03*
D121*
X251384Y394716D03*
D80*
X279044Y394792D03*
X255575Y394792D03*
D121*
X251384Y394792D03*
D80*
X279121Y394868D03*
X255499Y394868D03*
D121*
X251384Y394868D03*
D85*
X279159Y394945D03*
D80*
X255422Y394945D03*
D121*
X251384Y394945D03*
D104*
X279197Y395021D03*
D80*
X255346Y395021D03*
D121*
X251384Y395021D03*
D103*
X279235Y395097D03*
D80*
X255270Y395097D03*
D121*
X251384Y395097D03*
D125*
X279273Y395173D03*
D85*
X255232Y395173D03*
D121*
X251384Y395173D03*
D110*
X279311Y395249D03*
D104*
X255194Y395249D03*
D121*
X251384Y395249D03*
D101*
X279349Y395326D03*
D109*
X255156Y395326D03*
D121*
X251384Y395326D03*
D111*
X279387Y395402D03*
D102*
X255118Y395402D03*
D121*
X251384Y395402D03*
D111*
X279387Y395478D03*
D110*
X255080Y395478D03*
D121*
X251384Y395478D03*
D128*
X279425Y395554D03*
D101*
X255041Y395554D03*
D121*
X251384Y395554D03*
D143*
X279464Y395630D03*
D111*
X255003Y395630D03*
D121*
X251384Y395630D03*
D73*
X279921Y395707D03*
D66*
X278549Y395707D03*
D142*
X254965Y395707D03*
D121*
X251384Y395707D03*
D76*
X279997Y395783D03*
D121*
X278587Y395783D03*
D142*
X254965Y395783D03*
D121*
X251384Y395783D03*
D73*
X280073Y395859D03*
D121*
X278587Y395859D03*
D86*
X254927Y395859D03*
D121*
X251384Y395859D03*
D73*
X280149Y395935D03*
D66*
X278625Y395935D03*
X255842Y395935D03*
D76*
X254470Y395935D03*
D121*
X251384Y395935D03*
D76*
X280226Y396011D03*
D66*
X278625Y396011D03*
X255842Y396011D03*
D73*
X254394Y396011D03*
D121*
X251384Y396011D03*
D73*
X280302Y396088D03*
D66*
X278625Y396088D03*
X255842Y396088D03*
D76*
X254318Y396088D03*
D121*
X251384Y396088D03*
D76*
X280378Y396164D03*
D66*
X278625Y396164D03*
X255842Y396164D03*
D73*
X254241Y396164D03*
D121*
X251384Y396164D03*
D73*
X280454Y396240D03*
D66*
X278625Y396240D03*
X255842Y396240D03*
D73*
X254165Y396240D03*
D121*
X251384Y396240D03*
D73*
X280530Y396316D03*
D66*
X278625Y396316D03*
X255842Y396316D03*
D76*
X254089Y396316D03*
D121*
X251384Y396316D03*
D80*
X280568Y396392D03*
D66*
X278625Y396392D03*
X255842Y396392D03*
D73*
X254013Y396392D03*
D121*
X251384Y396392D03*
D80*
X280645Y396469D03*
D66*
X278625Y396469D03*
X255842Y396469D03*
D80*
X253975Y396469D03*
D121*
X251384Y396469D03*
D80*
X280721Y396545D03*
D66*
X278625Y396545D03*
X255842Y396545D03*
D80*
X253898Y396545D03*
D121*
X251384Y396545D03*
D76*
X280759Y396621D03*
D119*
X278663Y396621D03*
D66*
X255842Y396621D03*
D80*
X253822Y396621D03*
D121*
X251384Y396621D03*
D73*
X280835Y396697D03*
D119*
X278663Y396697D03*
D66*
X255842Y396697D03*
D80*
X253746Y396697D03*
D121*
X251384Y396697D03*
D73*
X280911Y396773D03*
D66*
X278702Y396773D03*
X255842Y396773D03*
D80*
X253670Y396773D03*
D121*
X251384Y396773D03*
D76*
X280988Y396850D03*
D66*
X278702Y396850D03*
X255842Y396850D03*
D80*
X253594Y396850D03*
D121*
X251384Y396850D03*
D73*
X281064Y396926D03*
D66*
X278702Y396926D03*
X255842Y396926D03*
D80*
X253517Y396926D03*
D121*
X251384Y396926D03*
D76*
X281140Y397002D03*
D66*
X278702Y397002D03*
X255842Y397002D03*
D80*
X253441Y397002D03*
D121*
X251384Y397002D03*
D73*
X281216Y397078D03*
D66*
X278702Y397078D03*
X255842Y397078D03*
D80*
X253365Y397078D03*
D121*
X251384Y397078D03*
D73*
X281292Y397154D03*
D66*
X278702Y397154D03*
X255842Y397154D03*
D80*
X253289Y397154D03*
D121*
X251384Y397154D03*
D76*
X281369Y397231D03*
D66*
X278702Y397231D03*
X255842Y397231D03*
D80*
X253213Y397231D03*
D121*
X251384Y397231D03*
D73*
X281445Y397307D03*
D66*
X278702Y397307D03*
X255842Y397307D03*
D80*
X253136Y397307D03*
D121*
X251384Y397307D03*
D76*
X281521Y397383D03*
D66*
X278702Y397383D03*
X255842Y397383D03*
D80*
X253060Y397383D03*
D121*
X251384Y397383D03*
D73*
X281597Y397459D03*
D66*
X278702Y397459D03*
X255842Y397459D03*
D80*
X252984Y397459D03*
D121*
X251384Y397459D03*
D80*
X281635Y397535D03*
D121*
X278740Y397535D03*
D66*
X255842Y397535D03*
D80*
X252908Y397535D03*
D121*
X251384Y397535D03*
D80*
X281711Y397612D03*
D121*
X278740Y397612D03*
D66*
X255842Y397612D03*
D80*
X252832Y397612D03*
D121*
X251384Y397612D03*
D80*
X281788Y397688D03*
D66*
X278778Y397688D03*
X255842Y397688D03*
D76*
X252794Y397688D03*
D121*
X251384Y397688D03*
D73*
X281826Y397764D03*
D66*
X278778Y397764D03*
X255842Y397764D03*
D144*
X252374Y397764D03*
D76*
X281902Y397840D03*
D66*
X278778Y397840D03*
D95*
X253632Y397840D03*
D73*
X281978Y397916D03*
D66*
X278778Y397916D03*
D95*
X253632Y397916D03*
D73*
X282054Y397993D03*
D66*
X278778Y397993D03*
D95*
X253632Y397993D03*
D76*
X282131Y398069D03*
D66*
X278778Y398069D03*
D95*
X253632Y398069D03*
D73*
X282207Y398145D03*
D66*
X278778Y398145D03*
D95*
X253632Y398145D03*
D76*
X282283Y398221D03*
D66*
X278778Y398221D03*
D95*
X253632Y398221D03*
D73*
X282359Y398297D03*
D66*
X278778Y398297D03*
D95*
X253632Y398297D03*
D73*
X282435Y398374D03*
D66*
X278778Y398374D03*
D95*
X253632Y398374D03*
D76*
X282512Y398450D03*
D121*
X278816Y398450D03*
D95*
X253632Y398450D03*
D73*
X282588Y398526D03*
D121*
X278816Y398526D03*
D182*
X254508Y398526D03*
D80*
X251993Y398526D03*
D76*
X282664Y398602D03*
D66*
X278854Y398602D03*
X254470Y398602D03*
D80*
X251917Y398602D03*
X282702Y398678D03*
D66*
X278854Y398678D03*
X254470Y398678D03*
D80*
X251841Y398678D03*
X282778Y398755D03*
D66*
X278854Y398755D03*
X254470Y398755D03*
D80*
X251765Y398755D03*
X282854Y398831D03*
D66*
X278854Y398831D03*
X254470Y398831D03*
D80*
X251689Y398831D03*
D76*
X282893Y398907D03*
D66*
X278854Y398907D03*
X254470Y398907D03*
D80*
X251612Y398907D03*
D73*
X282969Y398983D03*
D66*
X278854Y398983D03*
X254470Y398983D03*
D80*
X251536Y398983D03*
D76*
X283045Y399059D03*
D66*
X278854Y399059D03*
X254470Y399059D03*
D80*
X251460Y399059D03*
D73*
X283121Y399136D03*
D66*
X278854Y399136D03*
D121*
X254432Y399136D03*
D80*
X251384Y399136D03*
D73*
X283197Y399212D03*
D66*
X278854Y399212D03*
X254394Y399212D03*
D80*
X251308Y399212D03*
D76*
X283274Y399288D03*
D119*
X278892Y399288D03*
D66*
X254394Y399288D03*
D80*
X251231Y399288D03*
D73*
X283350Y399364D03*
D119*
X278892Y399364D03*
D66*
X254394Y399364D03*
D80*
X251155Y399364D03*
D76*
X283426Y399440D03*
D66*
X278930Y399440D03*
X254394Y399440D03*
D80*
X251079Y399440D03*
D73*
X283502Y399517D03*
D66*
X278930Y399517D03*
X254394Y399517D03*
D80*
X251003Y399517D03*
D73*
X283578Y399593D03*
D66*
X278930Y399593D03*
X254394Y399593D03*
D80*
X250927Y399593D03*
D76*
X283655Y399669D03*
D66*
X278930Y399669D03*
X254394Y399669D03*
D80*
X250850Y399669D03*
X283693Y399745D03*
D66*
X278930Y399745D03*
X254394Y399745D03*
D80*
X250774Y399745D03*
X283769Y399821D03*
D66*
X278930Y399821D03*
X254394Y399821D03*
D80*
X250698Y399821D03*
X283845Y399898D03*
D183*
X267272Y399898D03*
D76*
X250660Y399898D03*
D80*
X283921Y399974D03*
D184*
X267272Y399974D03*
D73*
X250584Y399974D03*
X283959Y400050D03*
D184*
X267272Y400050D03*
D76*
X250508Y400050D03*
X284036Y400126D03*
D184*
X267272Y400126D03*
D73*
X250431Y400126D03*
X284112Y400202D03*
D184*
X267272Y400202D03*
D73*
X250355Y400202D03*
D76*
X284188Y400279D03*
D184*
X267272Y400279D03*
D76*
X250279Y400279D03*
D73*
X284264Y400355D03*
D184*
X267272Y400355D03*
D73*
X250203Y400355D03*
X284340Y400431D03*
D184*
X267272Y400431D03*
D76*
X250127Y400431D03*
X284417Y400507D03*
D184*
X267272Y400507D03*
D73*
X250050Y400507D03*
X284493Y400583D03*
D184*
X267272Y400583D03*
D80*
X250012Y400583D03*
D76*
X284569Y400660D03*
D185*
X267233Y400660D03*
D80*
X249936Y400660D03*
D73*
X284645Y400736D03*
D186*
X267119Y400736D03*
D80*
X249860Y400736D03*
D73*
X284721Y400812D03*
D187*
X267005Y400812D03*
D80*
X249784Y400812D03*
X284759Y400888D03*
D188*
X266967Y400888D03*
D80*
X249707Y400888D03*
X284836Y400964D03*
D189*
X266891Y400964D03*
D80*
X249631Y400964D03*
X284912Y401041D03*
D190*
X266852Y401041D03*
D80*
X249555Y401041D03*
X284988Y401117D03*
D191*
X266776Y401117D03*
D80*
X249479Y401117D03*
D73*
X285026Y401193D03*
D192*
X266738Y401193D03*
D80*
X249403Y401193D03*
D73*
X285102Y401269D03*
D193*
X266700Y401269D03*
D80*
X249326Y401269D03*
D76*
X285179Y401345D03*
D194*
X266662Y401345D03*
D80*
X249250Y401345D03*
D73*
X285255Y401422D03*
D195*
X266624Y401422D03*
D80*
X249174Y401422D03*
D76*
X285331Y401498D03*
D195*
X266624Y401498D03*
D80*
X249098Y401498D03*
D73*
X285407Y401574D03*
D196*
X266586Y401574D03*
D80*
X249022Y401574D03*
D73*
X285483Y401650D03*
D197*
X266548Y401650D03*
D80*
X248945Y401650D03*
D76*
X285560Y401726D03*
D197*
X266548Y401726D03*
D80*
X248869Y401726D03*
D73*
X285636Y401803D03*
D198*
X266510Y401803D03*
D80*
X248793Y401803D03*
D76*
X285712Y401879D03*
D198*
X266510Y401879D03*
D80*
X248717Y401879D03*
D73*
X285788Y401955D03*
D199*
X266471Y401955D03*
D80*
X248641Y401955D03*
X285826Y402031D03*
D199*
X266471Y402031D03*
D76*
X248603Y402031D03*
D80*
X285902Y402107D03*
D66*
X278778Y402107D03*
D86*
X275501Y402107D03*
D126*
X252908Y402107D03*
D73*
X248526Y402107D03*
D80*
X285979Y402184D03*
D182*
X278740Y402184D03*
D86*
X275501Y402184D03*
D127*
X252946Y402184D03*
D73*
X248450Y402184D03*
D80*
X286055Y402260D03*
D66*
X278702Y402260D03*
D86*
X275501Y402260D03*
D127*
X252946Y402260D03*
D76*
X248374Y402260D03*
X286093Y402336D03*
D182*
X278663Y402336D03*
D86*
X275501Y402336D03*
D200*
X252984Y402336D03*
D73*
X248298Y402336D03*
X286169Y402412D03*
D182*
X278663Y402412D03*
D86*
X275501Y402412D03*
D200*
X252984Y402412D03*
D76*
X248222Y402412D03*
D73*
X286245Y402488D03*
D182*
X278587Y402488D03*
D86*
X275501Y402488D03*
D129*
X252984Y402488D03*
D73*
X248145Y402488D03*
D76*
X286322Y402565D03*
D182*
X278587Y402565D03*
D86*
X275501Y402565D03*
D129*
X252984Y402565D03*
D80*
X248107Y402565D03*
D73*
X286398Y402641D03*
D182*
X278511Y402641D03*
D86*
X275501Y402641D03*
D201*
X253022Y402641D03*
D80*
X248031Y402641D03*
D76*
X286474Y402717D03*
D67*
X278473Y402717D03*
D86*
X275501Y402717D03*
D201*
X253022Y402717D03*
D80*
X247955Y402717D03*
D73*
X286550Y402793D03*
D182*
X278435Y402793D03*
D86*
X275501Y402793D03*
D202*
X253060Y402793D03*
D80*
X247879Y402793D03*
D73*
X286626Y402869D03*
D67*
X278397Y402869D03*
D86*
X275501Y402869D03*
D137*
X253098Y402869D03*
D80*
X247802Y402869D03*
D76*
X286703Y402946D03*
D67*
X278321Y402946D03*
D86*
X275501Y402946D03*
D203*
X253136Y402946D03*
D80*
X247726Y402946D03*
D73*
X286779Y403022D03*
D182*
X278282Y403022D03*
D86*
X275501Y403022D03*
D137*
X253175Y403022D03*
D80*
X247650Y403022D03*
D76*
X286855Y403098D03*
D67*
X278244Y403098D03*
D86*
X275501Y403098D03*
D204*
X253213Y403098D03*
D80*
X247574Y403098D03*
X286893Y403174D03*
D67*
X278168Y403174D03*
D86*
X275501Y403174D03*
D93*
X253251Y403174D03*
D80*
X247498Y403174D03*
X286969Y403250D03*
D67*
X278092Y403250D03*
D86*
X275501Y403250D03*
D204*
X253289Y403250D03*
D80*
X247421Y403250D03*
X287045Y403327D03*
D67*
X278092Y403327D03*
D86*
X275501Y403327D03*
D93*
X253327Y403327D03*
D80*
X247345Y403327D03*
X287122Y403403D03*
D67*
X278016Y403403D03*
D86*
X275501Y403403D03*
D205*
X253365Y403403D03*
D80*
X247269Y403403D03*
D73*
X287160Y403479D03*
D67*
X277940Y403479D03*
D86*
X275501Y403479D03*
D68*
X255346Y403479D03*
D123*
X252908Y403479D03*
D80*
X247193Y403479D03*
D76*
X287236Y403555D03*
D206*
X277901Y403555D03*
D86*
X275501Y403555D03*
D206*
X255422Y403555D03*
D89*
X252870Y403555D03*
D80*
X247117Y403555D03*
D73*
X287312Y403631D03*
D68*
X277825Y403631D03*
D86*
X275501Y403631D03*
D206*
X255499Y403631D03*
D140*
X252908Y403631D03*
D80*
X247040Y403631D03*
D73*
X287388Y403708D03*
D206*
X277749Y403708D03*
D86*
X275501Y403708D03*
D67*
X255537Y403708D03*
D150*
X252870Y403708D03*
D80*
X246964Y403708D03*
D76*
X287465Y403784D03*
D206*
X277673Y403784D03*
D86*
X275501Y403784D03*
D206*
X255575Y403784D03*
D88*
X252870Y403784D03*
D80*
X246888Y403784D03*
D73*
X287541Y403860D03*
D78*
X277635Y403860D03*
D86*
X275501Y403860D03*
D206*
X255651Y403860D03*
D149*
X252908Y403860D03*
D80*
X246812Y403860D03*
D76*
X287617Y403936D03*
D207*
X277559Y403936D03*
D86*
X275501Y403936D03*
D68*
X255727Y403936D03*
D120*
X252908Y403936D03*
D80*
X246736Y403936D03*
D73*
X287693Y404012D03*
D78*
X277482Y404012D03*
D86*
X275501Y404012D03*
D206*
X255803Y404012D03*
D116*
X252870Y404012D03*
D80*
X246659Y404012D03*
D73*
X287769Y404089D03*
D78*
X277406Y404089D03*
D86*
X275501Y404089D03*
D206*
X255880Y404089D03*
D87*
X252870Y404089D03*
D73*
X246621Y404089D03*
D76*
X287846Y404165D03*
D122*
X276035Y404165D03*
D206*
X255956Y404165D03*
D114*
X252870Y404165D03*
D73*
X246545Y404165D03*
D80*
X287884Y404241D03*
D140*
X275996Y404241D03*
D206*
X256032Y404241D03*
D128*
X252908Y404241D03*
D76*
X246469Y404241D03*
D80*
X287960Y404317D03*
D150*
X275958Y404317D03*
D69*
X256108Y404317D03*
D101*
X252908Y404317D03*
D73*
X246393Y404317D03*
D80*
X288036Y404393D03*
D145*
X275920Y404393D03*
D69*
X256184Y404393D03*
D109*
X252870Y404393D03*
D76*
X246317Y404393D03*
D80*
X288112Y404470D03*
D88*
X275882Y404470D03*
D69*
X256261Y404470D03*
D73*
X252870Y404470D03*
X246240Y404470D03*
D80*
X288188Y404546D03*
D149*
X275844Y404546D03*
D69*
X256337Y404546D03*
D71*
X252870Y404546D03*
D73*
X246164Y404546D03*
D76*
X288227Y404622D03*
D83*
X275806Y404622D03*
D69*
X256413Y404622D03*
X252908Y404622D03*
D80*
X246126Y404622D03*
D73*
X288303Y404698D03*
D120*
X275768Y404698D03*
D79*
X256527Y404698D03*
D64*
X252870Y404698D03*
D80*
X246050Y404698D03*
D76*
X288379Y404774D03*
D116*
X275730Y404774D03*
D79*
X256680Y404774D03*
D80*
X245974Y404774D03*
D73*
X288455Y404851D03*
D130*
X275692Y404851D03*
D117*
X256794Y404851D03*
D80*
X245897Y404851D03*
D73*
X288531Y404927D03*
D147*
X275654Y404927D03*
D133*
X265900Y404927D03*
D70*
X256908Y404927D03*
D80*
X245821Y404927D03*
D76*
X288608Y405003D03*
D208*
X275615Y405003D03*
D133*
X265900Y405003D03*
D108*
X257023Y405003D03*
D80*
X245745Y405003D03*
D73*
X288684Y405079D03*
D114*
X275577Y405079D03*
D133*
X265900Y405079D03*
D71*
X257137Y405079D03*
D80*
X245669Y405079D03*
D76*
X288760Y405155D03*
D86*
X275501Y405155D03*
D133*
X265900Y405155D03*
D72*
X257289Y405155D03*
D80*
X245593Y405155D03*
D73*
X288836Y405232D03*
D86*
X275501Y405232D03*
D133*
X265900Y405232D03*
D81*
X257480Y405232D03*
D80*
X245516Y405232D03*
D73*
X288912Y405308D03*
D86*
X275501Y405308D03*
D133*
X265900Y405308D03*
D80*
X257632Y405308D03*
X245440Y405308D03*
X288950Y405384D03*
D86*
X275501Y405384D03*
D133*
X265900Y405384D03*
D104*
X257861Y405384D03*
D80*
X245364Y405384D03*
X289027Y405460D03*
D144*
X275463Y405460D03*
D133*
X265900Y405460D03*
D125*
X258089Y405460D03*
D80*
X245288Y405460D03*
X289103Y405536D03*
D130*
X275311Y405536D03*
D133*
X265900Y405536D03*
D101*
X258318Y405536D03*
D80*
X245212Y405536D03*
X289179Y405613D03*
D88*
X275120Y405613D03*
D133*
X265900Y405613D03*
D86*
X258585Y405613D03*
D80*
X245135Y405613D03*
D73*
X289217Y405689D03*
D123*
X274930Y405689D03*
D66*
X269329Y405689D03*
X262471Y405689D03*
D208*
X258851Y405689D03*
D80*
X245059Y405689D03*
D73*
X289293Y405765D03*
D200*
X274701Y405765D03*
D66*
X269329Y405765D03*
X262471Y405765D03*
D120*
X259156Y405765D03*
D80*
X244983Y405765D03*
D76*
X289370Y405841D03*
D93*
X274434Y405841D03*
D66*
X269329Y405841D03*
X262471Y405841D03*
D145*
X259537Y405841D03*
D80*
X244907Y405841D03*
D73*
X289446Y405917D03*
D96*
X274130Y405917D03*
D66*
X269329Y405917D03*
X262471Y405917D03*
D123*
X259918Y405917D03*
D80*
X244831Y405917D03*
D76*
X289522Y405994D03*
D100*
X273825Y405994D03*
D66*
X269329Y405994D03*
D137*
X260566Y405994D03*
D80*
X244754Y405994D03*
D73*
X289598Y406070D03*
D172*
X273368Y406070D03*
D66*
X269329Y406070D03*
D91*
X260718Y406070D03*
D80*
X244678Y406070D03*
D73*
X289674Y406146D03*
D209*
X272872Y406146D03*
D126*
X260833Y406146D03*
D73*
X244640Y406146D03*
D76*
X289751Y406222D03*
D86*
X275501Y406222D03*
D95*
X271539Y406222D03*
D139*
X260985Y406222D03*
D76*
X244564Y406222D03*
D73*
X289827Y406298D03*
D86*
X275501Y406298D03*
D94*
X271386Y406298D03*
D141*
X261176Y406298D03*
D73*
X244488Y406298D03*
D76*
X289903Y406375D03*
D86*
X275501Y406375D03*
D202*
X271196Y406375D03*
D148*
X261366Y406375D03*
D76*
X244412Y406375D03*
D73*
X289979Y406451D03*
D86*
X275501Y406451D03*
D138*
X271005Y406451D03*
D143*
X261557Y406451D03*
D73*
X244335Y406451D03*
D80*
X290017Y406527D03*
D86*
X275501Y406527D03*
D89*
X270777Y406527D03*
D103*
X261785Y406527D03*
D73*
X244259Y406527D03*
D80*
X290093Y406603D03*
D86*
X275501Y406603D03*
D120*
X270510Y406603D03*
D105*
X262052Y406603D03*
D76*
X244183Y406603D03*
D80*
X290170Y406679D03*
D86*
X275501Y406679D03*
D111*
X270167Y406679D03*
D206*
X262357Y406679D03*
D80*
X244145Y406679D03*
X290246Y406756D03*
D86*
X275501Y406756D03*
D82*
X269824Y406756D03*
D66*
X262471Y406756D03*
D80*
X244069Y406756D03*
D76*
X290284Y406832D03*
D86*
X275501Y406832D03*
D182*
X269367Y406832D03*
D66*
X262471Y406832D03*
D80*
X243992Y406832D03*
D73*
X290360Y406908D03*
D86*
X275501Y406908D03*
D66*
X269329Y406908D03*
X262471Y406908D03*
D80*
X243916Y406908D03*
D73*
X290436Y406984D03*
D86*
X275501Y406984D03*
D66*
X269329Y406984D03*
X262471Y406984D03*
D80*
X243840Y406984D03*
D76*
X290513Y407060D03*
D128*
X275463Y407060D03*
D66*
X269329Y407060D03*
X262471Y407060D03*
D80*
X243764Y407060D03*
D73*
X290589Y407137D03*
D66*
X269329Y407137D03*
X262471Y407137D03*
D80*
X243688Y407137D03*
D76*
X290665Y407213D03*
D66*
X269329Y407213D03*
X262471Y407213D03*
D80*
X243611Y407213D03*
D73*
X290741Y407289D03*
D133*
X265900Y407289D03*
D80*
X243535Y407289D03*
D73*
X290817Y407365D03*
D133*
X265900Y407365D03*
D80*
X243459Y407365D03*
D76*
X290894Y407441D03*
D133*
X265900Y407441D03*
D80*
X243383Y407441D03*
D73*
X290970Y407518D03*
D133*
X265900Y407518D03*
D80*
X243307Y407518D03*
D76*
X291046Y407594D03*
D133*
X265900Y407594D03*
D80*
X243230Y407594D03*
X291084Y407670D03*
D133*
X265900Y407670D03*
D80*
X243154Y407670D03*
X291160Y407746D03*
D133*
X265900Y407746D03*
D80*
X243078Y407746D03*
X291236Y407822D03*
D133*
X265900Y407822D03*
D80*
X243002Y407822D03*
X291313Y407899D03*
D133*
X265900Y407899D03*
D80*
X242926Y407899D03*
D73*
X291351Y407975D03*
D133*
X265900Y407975D03*
D80*
X242849Y407975D03*
D76*
X291427Y408051D03*
D73*
X242811Y408051D03*
X291503Y408127D03*
D82*
X242773Y408127D03*
D73*
X291579Y408203D03*
D72*
X242735Y408203D03*
D76*
X291656Y408280D03*
D105*
X242697Y408280D03*
D73*
X291732Y408356D03*
D71*
X242659Y408356D03*
D76*
X291808Y408432D03*
D108*
X242621Y408432D03*
D73*
X291884Y408508D03*
D84*
X242583Y408508D03*
D73*
X291960Y408584D03*
D117*
X242545Y408584D03*
D81*
X291998Y408661D03*
D79*
X242507Y408661D03*
D72*
X292037Y408737D03*
D79*
X242507Y408737D03*
D72*
X292037Y408813D03*
D69*
X242468Y408813D03*
D105*
X292075Y408889D03*
D78*
X242430Y408889D03*
D71*
X292113Y408965D03*
D68*
X242392Y408965D03*
D108*
X292151Y409042D03*
D67*
X242354Y409042D03*
D70*
X292189Y409118D03*
D182*
X242316Y409118D03*
D117*
X292227Y409194D03*
D66*
X242278Y409194D03*
D79*
X292265Y409270D03*
D121*
X242240Y409270D03*
D69*
X292303Y409346D03*
D106*
X242202Y409346D03*
D78*
X292341Y409423D03*
D77*
X242164Y409423D03*
D206*
X292379Y409499D03*
D64*
X242126Y409499D03*
D67*
X292418Y409575D03*
D75*
X242087Y409575D03*
D182*
X292456Y409651D03*
D63*
X242049Y409651D03*
D66*
X292494Y409727D03*
D74*
X242011Y409727D03*
D121*
X292532Y409804D03*
D210*
X241973Y409804D03*
D121*
X292532Y409880D03*
D62*
X241935Y409880D03*
D65*
X292570Y409956D03*
D77*
X292608Y410032D03*
D64*
X292646Y410108D03*
D75*
X292684Y410185D03*
D63*
X292722Y410261D03*
D211*
X292760Y410337D03*
D210*
X292799Y410413D03*
D62*
X292837Y410489D03*
D212*
X260505Y237295D02*
X260422Y237293D01*
X260338Y237287D01*
X260255Y237278D01*
X260173Y237264D01*
X260092Y237247D01*
X260011Y237226D01*
X259931Y237201D01*
X259853Y237173D01*
X259776Y237141D01*
X259700Y237106D01*
X259626Y237067D01*
X259554Y237024D01*
X259484Y236979D01*
X259417Y236930D01*
X259351Y236878D01*
X259288Y236824D01*
X259228Y236766D01*
X259170Y236706D01*
X259116Y236643D01*
X259064Y236577D01*
X259015Y236510D01*
X258970Y236440D01*
X258927Y236368D01*
X258888Y236294D01*
X258853Y236219D01*
X258821Y236141D01*
X258793Y236063D01*
X258768Y235983D01*
X258747Y235903D01*
X258730Y235821D01*
X258716Y235739D01*
X258707Y235656D01*
X258701Y235572D01*
X258699Y235489D01*
X258701Y235369D01*
X258707Y235248D01*
X258716Y235128D01*
X258729Y235008D01*
X258746Y234889D01*
X258767Y234770D01*
X258792Y234652D01*
X258820Y234535D01*
X258852Y234419D01*
X258888Y234304D01*
X258927Y234190D01*
X258970Y234077D01*
X259016Y233966D01*
X259066Y233857D01*
X259119Y233748D01*
X259176Y233642D01*
X259236Y233538D01*
X259299Y233435D01*
X259366Y233335D01*
X259435Y233236D01*
X259508Y233140D01*
X259583Y233046D01*
X259662Y232955D01*
X259744Y232866D01*
X259828Y232780D01*
X265021Y233006D02*
X265104Y233008D01*
X265188Y233014D01*
X265271Y233023D01*
X265353Y233037D01*
X265434Y233054D01*
X265515Y233075D01*
X265595Y233100D01*
X265673Y233128D01*
X265750Y233160D01*
X265826Y233195D01*
X265900Y233234D01*
X265972Y233277D01*
X266042Y233322D01*
X266109Y233371D01*
X266175Y233423D01*
X266238Y233477D01*
X266298Y233535D01*
X266356Y233595D01*
X266410Y233658D01*
X266462Y233724D01*
X266511Y233791D01*
X266556Y233861D01*
X266599Y233933D01*
X266638Y234007D01*
X266673Y234083D01*
X266705Y234160D01*
X266733Y234238D01*
X266758Y234318D01*
X266779Y234399D01*
X266796Y234480D01*
X266810Y234562D01*
X266819Y234645D01*
X266825Y234729D01*
X266827Y234812D01*
X266825Y234927D01*
X266819Y235041D01*
X266810Y235156D01*
X266796Y235269D01*
X266779Y235383D01*
X266757Y235496D01*
X266732Y235607D01*
X266703Y235719D01*
X266671Y235829D01*
X266635Y235937D01*
X266595Y236045D01*
X266551Y236151D01*
X266504Y236256D01*
X266453Y236358D01*
X266399Y236460D01*
X266342Y236559D01*
X266281Y236656D01*
X266217Y236751D01*
X266150Y236844D01*
X263441Y233909D02*
X263485Y233839D01*
X263531Y233770D01*
X263581Y233704D01*
X263634Y233640D01*
X263689Y233579D01*
X263748Y233520D01*
X263809Y233464D01*
X263872Y233411D01*
X263938Y233360D01*
X264005Y233313D01*
X264075Y233269D01*
X264147Y233228D01*
X264221Y233190D01*
X264296Y233155D01*
X264373Y233124D01*
X264451Y233097D01*
X264530Y233073D01*
X264611Y233053D01*
X264692Y233036D01*
X264773Y233023D01*
X264856Y233013D01*
X264938Y233008D01*
X265021Y233006D01*
X262085Y236392D02*
X262041Y236462D01*
X261995Y236531D01*
X261945Y236597D01*
X261892Y236661D01*
X261837Y236722D01*
X261778Y236781D01*
X261717Y236837D01*
X261654Y236890D01*
X261588Y236941D01*
X261521Y236988D01*
X261451Y237032D01*
X261379Y237073D01*
X261305Y237111D01*
X261230Y237146D01*
X261153Y237177D01*
X261075Y237204D01*
X260996Y237228D01*
X260915Y237248D01*
X260834Y237265D01*
X260753Y237278D01*
X260670Y237288D01*
X260588Y237293D01*
X260505Y237295D01*
X262086Y236392D02*
X263440Y233908D01*
X264569Y241619D02*
X260957Y241619D01*
X264569Y241619D02*
X264662Y241621D01*
X264755Y241627D01*
X264848Y241636D01*
X264941Y241650D01*
X265032Y241667D01*
X265123Y241688D01*
X265213Y241713D01*
X265302Y241741D01*
X265390Y241773D01*
X265476Y241809D01*
X265561Y241848D01*
X265644Y241891D01*
X265725Y241937D01*
X265804Y241987D01*
X265881Y242039D01*
X265956Y242095D01*
X266028Y242154D01*
X266098Y242216D01*
X266166Y242280D01*
X266230Y242348D01*
X266292Y242418D01*
X266351Y242490D01*
X266407Y242565D01*
X266459Y242642D01*
X266509Y242721D01*
X266555Y242802D01*
X266598Y242885D01*
X266637Y242970D01*
X266673Y243056D01*
X266705Y243144D01*
X266733Y243233D01*
X266758Y243323D01*
X266779Y243414D01*
X266796Y243505D01*
X266810Y243598D01*
X266819Y243691D01*
X266825Y243784D01*
X266827Y243877D01*
X266825Y243970D01*
X266819Y244063D01*
X266810Y244156D01*
X266796Y244249D01*
X266779Y244340D01*
X266758Y244431D01*
X266733Y244521D01*
X266705Y244610D01*
X266673Y244698D01*
X266637Y244784D01*
X266598Y244869D01*
X266555Y244952D01*
X266509Y245033D01*
X266459Y245112D01*
X266407Y245189D01*
X266351Y245264D01*
X266292Y245336D01*
X266230Y245406D01*
X266166Y245474D01*
X266098Y245538D01*
X266028Y245600D01*
X265956Y245659D01*
X265881Y245715D01*
X265804Y245767D01*
X265725Y245817D01*
X265644Y245863D01*
X265561Y245906D01*
X265476Y245945D01*
X265390Y245981D01*
X265302Y246013D01*
X265213Y246041D01*
X265123Y246066D01*
X265032Y246087D01*
X264941Y246104D01*
X264848Y246118D01*
X264755Y246127D01*
X264662Y246133D01*
X264569Y246135D01*
X264569Y246134D02*
X260957Y246134D01*
X260957Y246135D02*
X260864Y246133D01*
X260771Y246127D01*
X260678Y246118D01*
X260585Y246104D01*
X260494Y246087D01*
X260403Y246066D01*
X260313Y246041D01*
X260224Y246013D01*
X260136Y245981D01*
X260050Y245945D01*
X259965Y245906D01*
X259882Y245863D01*
X259801Y245817D01*
X259722Y245767D01*
X259645Y245715D01*
X259570Y245659D01*
X259498Y245600D01*
X259428Y245538D01*
X259360Y245474D01*
X259296Y245406D01*
X259234Y245336D01*
X259175Y245264D01*
X259119Y245189D01*
X259067Y245112D01*
X259017Y245033D01*
X258971Y244952D01*
X258928Y244869D01*
X258889Y244784D01*
X258853Y244698D01*
X258821Y244610D01*
X258793Y244521D01*
X258768Y244431D01*
X258747Y244340D01*
X258730Y244249D01*
X258716Y244156D01*
X258707Y244063D01*
X258701Y243970D01*
X258699Y243877D01*
X258701Y243784D01*
X258707Y243691D01*
X258716Y243598D01*
X258730Y243505D01*
X258747Y243414D01*
X258768Y243323D01*
X258793Y243233D01*
X258821Y243144D01*
X258853Y243056D01*
X258889Y242970D01*
X258928Y242885D01*
X258971Y242802D01*
X259017Y242721D01*
X259067Y242642D01*
X259119Y242565D01*
X259175Y242490D01*
X259234Y242418D01*
X259296Y242348D01*
X259360Y242280D01*
X259428Y242216D01*
X259498Y242154D01*
X259570Y242095D01*
X259645Y242039D01*
X259722Y241987D01*
X259801Y241937D01*
X259882Y241891D01*
X259965Y241848D01*
X260050Y241809D01*
X260136Y241773D01*
X260224Y241741D01*
X260313Y241713D01*
X260403Y241688D01*
X260494Y241667D01*
X260585Y241650D01*
X260678Y241636D01*
X260771Y241627D01*
X260864Y241621D01*
X260957Y241619D01*
X258699Y251099D02*
X266827Y251099D01*
X258699Y251099D02*
X258699Y254712D01*
X258699Y258236D02*
X266827Y260945D01*
X258699Y263655D01*
X260731Y262977D02*
X260731Y258913D01*
X258699Y268239D02*
X266827Y268239D01*
X266827Y270497D01*
X266825Y270590D01*
X266819Y270683D01*
X266810Y270776D01*
X266796Y270869D01*
X266779Y270960D01*
X266758Y271051D01*
X266733Y271141D01*
X266705Y271230D01*
X266673Y271318D01*
X266637Y271404D01*
X266598Y271489D01*
X266555Y271572D01*
X266509Y271653D01*
X266459Y271732D01*
X266407Y271809D01*
X266351Y271884D01*
X266292Y271956D01*
X266230Y272026D01*
X266166Y272094D01*
X266098Y272158D01*
X266028Y272220D01*
X265956Y272279D01*
X265881Y272335D01*
X265804Y272387D01*
X265725Y272437D01*
X265644Y272483D01*
X265561Y272526D01*
X265476Y272565D01*
X265390Y272601D01*
X265302Y272633D01*
X265213Y272661D01*
X265123Y272686D01*
X265032Y272707D01*
X264941Y272724D01*
X264848Y272738D01*
X264755Y272747D01*
X264662Y272753D01*
X264569Y272755D01*
X264476Y272753D01*
X264383Y272747D01*
X264290Y272738D01*
X264197Y272724D01*
X264106Y272707D01*
X264015Y272686D01*
X263925Y272661D01*
X263836Y272633D01*
X263748Y272601D01*
X263662Y272565D01*
X263577Y272526D01*
X263494Y272483D01*
X263413Y272437D01*
X263334Y272387D01*
X263257Y272335D01*
X263182Y272279D01*
X263110Y272220D01*
X263040Y272158D01*
X262972Y272094D01*
X262908Y272026D01*
X262846Y271956D01*
X262787Y271884D01*
X262731Y271809D01*
X262679Y271732D01*
X262629Y271653D01*
X262583Y271572D01*
X262540Y271489D01*
X262501Y271404D01*
X262465Y271318D01*
X262433Y271230D01*
X262405Y271141D01*
X262380Y271051D01*
X262359Y270960D01*
X262342Y270869D01*
X262328Y270776D01*
X262319Y270683D01*
X262313Y270590D01*
X262311Y270497D01*
X262311Y268239D01*
X262311Y270949D02*
X258699Y272755D01*
X263215Y282699D02*
X263215Y284957D01*
X263213Y285050D01*
X263207Y285143D01*
X263198Y285236D01*
X263184Y285329D01*
X263167Y285420D01*
X263146Y285511D01*
X263121Y285601D01*
X263093Y285690D01*
X263061Y285778D01*
X263025Y285864D01*
X262986Y285949D01*
X262943Y286032D01*
X262897Y286113D01*
X262847Y286192D01*
X262795Y286269D01*
X262739Y286344D01*
X262680Y286416D01*
X262618Y286486D01*
X262554Y286554D01*
X262486Y286618D01*
X262416Y286680D01*
X262344Y286739D01*
X262269Y286795D01*
X262192Y286847D01*
X262113Y286897D01*
X262032Y286943D01*
X261949Y286986D01*
X261864Y287025D01*
X261778Y287061D01*
X261690Y287093D01*
X261601Y287121D01*
X261511Y287146D01*
X261420Y287167D01*
X261329Y287184D01*
X261236Y287198D01*
X261143Y287207D01*
X261050Y287213D01*
X260957Y287215D01*
X260864Y287213D01*
X260771Y287207D01*
X260678Y287198D01*
X260585Y287184D01*
X260494Y287167D01*
X260403Y287146D01*
X260313Y287121D01*
X260224Y287093D01*
X260136Y287061D01*
X260050Y287025D01*
X259965Y286986D01*
X259882Y286943D01*
X259801Y286897D01*
X259722Y286847D01*
X259645Y286795D01*
X259570Y286739D01*
X259498Y286680D01*
X259428Y286618D01*
X259360Y286554D01*
X259296Y286486D01*
X259234Y286416D01*
X259175Y286344D01*
X259119Y286269D01*
X259067Y286192D01*
X259017Y286113D01*
X258971Y286032D01*
X258928Y285949D01*
X258889Y285864D01*
X258853Y285778D01*
X258821Y285690D01*
X258793Y285601D01*
X258768Y285511D01*
X258747Y285420D01*
X258730Y285329D01*
X258716Y285236D01*
X258707Y285143D01*
X258701Y285050D01*
X258699Y284957D01*
X258699Y282699D01*
X266827Y282699D01*
X266827Y284957D01*
X266825Y285040D01*
X266819Y285124D01*
X266810Y285207D01*
X266796Y285289D01*
X266779Y285370D01*
X266758Y285451D01*
X266733Y285531D01*
X266705Y285609D01*
X266673Y285686D01*
X266638Y285762D01*
X266599Y285836D01*
X266556Y285908D01*
X266511Y285978D01*
X266462Y286045D01*
X266410Y286111D01*
X266356Y286174D01*
X266298Y286234D01*
X266238Y286292D01*
X266175Y286346D01*
X266109Y286398D01*
X266042Y286447D01*
X265972Y286492D01*
X265900Y286535D01*
X265826Y286574D01*
X265750Y286609D01*
X265673Y286641D01*
X265595Y286669D01*
X265515Y286694D01*
X265434Y286715D01*
X265353Y286732D01*
X265271Y286746D01*
X265188Y286755D01*
X265104Y286761D01*
X265021Y286763D01*
X264938Y286761D01*
X264854Y286755D01*
X264771Y286746D01*
X264689Y286732D01*
X264608Y286715D01*
X264527Y286694D01*
X264447Y286669D01*
X264369Y286641D01*
X264292Y286609D01*
X264216Y286574D01*
X264142Y286535D01*
X264070Y286492D01*
X264000Y286447D01*
X263933Y286398D01*
X263867Y286346D01*
X263804Y286292D01*
X263744Y286234D01*
X263686Y286174D01*
X263632Y286111D01*
X263580Y286045D01*
X263531Y285978D01*
X263486Y285908D01*
X263443Y285836D01*
X263404Y285762D01*
X263369Y285686D01*
X263337Y285609D01*
X263309Y285531D01*
X263284Y285451D01*
X263263Y285370D01*
X263246Y285289D01*
X263232Y285207D01*
X263223Y285124D01*
X263217Y285040D01*
X263215Y284957D01*
X264569Y291301D02*
X260957Y291301D01*
X264569Y291301D02*
X264662Y291303D01*
X264755Y291309D01*
X264848Y291318D01*
X264941Y291332D01*
X265032Y291349D01*
X265123Y291370D01*
X265213Y291395D01*
X265302Y291423D01*
X265390Y291455D01*
X265476Y291491D01*
X265561Y291530D01*
X265644Y291573D01*
X265725Y291619D01*
X265804Y291669D01*
X265881Y291721D01*
X265956Y291777D01*
X266028Y291836D01*
X266098Y291898D01*
X266166Y291962D01*
X266230Y292030D01*
X266292Y292100D01*
X266351Y292172D01*
X266407Y292247D01*
X266459Y292324D01*
X266509Y292403D01*
X266555Y292484D01*
X266598Y292567D01*
X266637Y292652D01*
X266673Y292738D01*
X266705Y292826D01*
X266733Y292915D01*
X266758Y293005D01*
X266779Y293096D01*
X266796Y293187D01*
X266810Y293280D01*
X266819Y293373D01*
X266825Y293466D01*
X266827Y293559D01*
X266825Y293652D01*
X266819Y293745D01*
X266810Y293838D01*
X266796Y293931D01*
X266779Y294022D01*
X266758Y294113D01*
X266733Y294203D01*
X266705Y294292D01*
X266673Y294380D01*
X266637Y294466D01*
X266598Y294551D01*
X266555Y294634D01*
X266509Y294715D01*
X266459Y294794D01*
X266407Y294871D01*
X266351Y294946D01*
X266292Y295018D01*
X266230Y295088D01*
X266166Y295156D01*
X266098Y295220D01*
X266028Y295282D01*
X265956Y295341D01*
X265881Y295397D01*
X265804Y295449D01*
X265725Y295499D01*
X265644Y295545D01*
X265561Y295588D01*
X265476Y295627D01*
X265390Y295663D01*
X265302Y295695D01*
X265213Y295723D01*
X265123Y295748D01*
X265032Y295769D01*
X264941Y295786D01*
X264848Y295800D01*
X264755Y295809D01*
X264662Y295815D01*
X264569Y295817D01*
X264569Y295816D02*
X260957Y295816D01*
X260957Y295817D02*
X260864Y295815D01*
X260771Y295809D01*
X260678Y295800D01*
X260585Y295786D01*
X260494Y295769D01*
X260403Y295748D01*
X260313Y295723D01*
X260224Y295695D01*
X260136Y295663D01*
X260050Y295627D01*
X259965Y295588D01*
X259882Y295545D01*
X259801Y295499D01*
X259722Y295449D01*
X259645Y295397D01*
X259570Y295341D01*
X259498Y295282D01*
X259428Y295220D01*
X259360Y295156D01*
X259296Y295088D01*
X259234Y295018D01*
X259175Y294946D01*
X259119Y294871D01*
X259067Y294794D01*
X259017Y294715D01*
X258971Y294634D01*
X258928Y294551D01*
X258889Y294466D01*
X258853Y294380D01*
X258821Y294292D01*
X258793Y294203D01*
X258768Y294113D01*
X258747Y294022D01*
X258730Y293931D01*
X258716Y293838D01*
X258707Y293745D01*
X258701Y293652D01*
X258699Y293559D01*
X258701Y293466D01*
X258707Y293373D01*
X258716Y293280D01*
X258730Y293187D01*
X258747Y293096D01*
X258768Y293005D01*
X258793Y292915D01*
X258821Y292826D01*
X258853Y292738D01*
X258889Y292652D01*
X258928Y292567D01*
X258971Y292484D01*
X259017Y292403D01*
X259067Y292324D01*
X259119Y292247D01*
X259175Y292172D01*
X259234Y292100D01*
X259296Y292030D01*
X259360Y291962D01*
X259428Y291898D01*
X259498Y291836D01*
X259570Y291777D01*
X259645Y291721D01*
X259722Y291669D01*
X259801Y291619D01*
X259882Y291573D01*
X259965Y291530D01*
X260050Y291491D01*
X260136Y291455D01*
X260224Y291423D01*
X260313Y291395D01*
X260403Y291370D01*
X260494Y291349D01*
X260585Y291332D01*
X260678Y291318D01*
X260771Y291309D01*
X260864Y291303D01*
X260957Y291301D01*
X258699Y302093D02*
X266827Y302093D01*
X266827Y299835D02*
X266827Y304351D01*
X266827Y310018D02*
X258699Y310018D01*
X266827Y307760D02*
X266827Y312276D01*
X266827Y316631D02*
X258699Y316631D01*
X258699Y320243D01*
X258699Y324556D02*
X258699Y328168D01*
X258699Y324556D02*
X266827Y324556D01*
X266827Y328168D01*
X263215Y327265D02*
X263215Y324556D01*
D213*
X249428Y260062D02*
X239268Y260062D01*
X239268Y264578D01*
X239268Y268983D02*
X249428Y272370D01*
X239268Y275757D01*
X241808Y274910D02*
X241808Y269830D01*
X239268Y281556D02*
X249428Y281556D01*
X243784Y284943D01*
X249428Y288330D01*
X239268Y288330D01*
X239268Y295371D02*
X249428Y295371D01*
X249428Y298193D01*
X249426Y298299D01*
X249420Y298404D01*
X249410Y298509D01*
X249396Y298614D01*
X249379Y298718D01*
X249357Y298821D01*
X249332Y298923D01*
X249303Y299025D01*
X249270Y299125D01*
X249233Y299224D01*
X249193Y299321D01*
X249149Y299417D01*
X249101Y299512D01*
X249050Y299604D01*
X248995Y299694D01*
X248938Y299783D01*
X248877Y299869D01*
X248812Y299952D01*
X248745Y300034D01*
X248675Y300112D01*
X248601Y300188D01*
X248525Y300262D01*
X248447Y300332D01*
X248365Y300399D01*
X248282Y300464D01*
X248196Y300525D01*
X248107Y300582D01*
X248017Y300637D01*
X247925Y300688D01*
X247830Y300736D01*
X247734Y300780D01*
X247637Y300820D01*
X247538Y300857D01*
X247438Y300890D01*
X247336Y300919D01*
X247234Y300944D01*
X247131Y300966D01*
X247027Y300983D01*
X246922Y300997D01*
X246817Y301007D01*
X246712Y301013D01*
X246606Y301015D01*
X246500Y301013D01*
X246395Y301007D01*
X246290Y300997D01*
X246185Y300983D01*
X246081Y300966D01*
X245978Y300944D01*
X245876Y300919D01*
X245774Y300890D01*
X245674Y300857D01*
X245575Y300820D01*
X245478Y300780D01*
X245382Y300736D01*
X245287Y300688D01*
X245195Y300637D01*
X245105Y300582D01*
X245016Y300525D01*
X244930Y300464D01*
X244847Y300399D01*
X244765Y300332D01*
X244687Y300262D01*
X244611Y300188D01*
X244537Y300112D01*
X244467Y300034D01*
X244400Y299952D01*
X244335Y299869D01*
X244274Y299783D01*
X244217Y299694D01*
X244162Y299604D01*
X244111Y299512D01*
X244063Y299417D01*
X244019Y299321D01*
X243979Y299224D01*
X243942Y299125D01*
X243909Y299025D01*
X243880Y298923D01*
X243855Y298821D01*
X243833Y298718D01*
X243816Y298614D01*
X243802Y298509D01*
X243792Y298404D01*
X243786Y298299D01*
X243784Y298193D01*
X243784Y295371D01*
D214*
X348188Y359810D02*
X348194Y360301D01*
X348212Y360791D01*
X348242Y361281D01*
X348284Y361770D01*
X348338Y362258D01*
X348404Y362745D01*
X348482Y363229D01*
X348572Y363712D01*
X348674Y364192D01*
X348787Y364670D01*
X348912Y365144D01*
X349049Y365616D01*
X349197Y366084D01*
X349357Y366548D01*
X349528Y367008D01*
X349710Y367464D01*
X349904Y367915D01*
X350108Y368361D01*
X350324Y368802D01*
X350550Y369238D01*
X350786Y369668D01*
X351033Y370092D01*
X351291Y370510D01*
X351559Y370921D01*
X351836Y371326D01*
X352124Y371724D01*
X352421Y372115D01*
X352728Y372498D01*
X353044Y372873D01*
X353369Y373241D01*
X353703Y373601D01*
X354046Y373952D01*
X354397Y374295D01*
X354757Y374629D01*
X355125Y374954D01*
X355500Y375270D01*
X355883Y375577D01*
X356274Y375874D01*
X356672Y376162D01*
X357077Y376439D01*
X357488Y376707D01*
X357906Y376965D01*
X358330Y377212D01*
X358760Y377448D01*
X359196Y377674D01*
X359637Y377890D01*
X360083Y378094D01*
X360534Y378288D01*
X360990Y378470D01*
X361450Y378641D01*
X361914Y378801D01*
X362382Y378949D01*
X362854Y379086D01*
X363328Y379211D01*
X363806Y379324D01*
X364286Y379426D01*
X364769Y379516D01*
X365253Y379594D01*
X365740Y379660D01*
X366228Y379714D01*
X366717Y379756D01*
X367207Y379786D01*
X367697Y379804D01*
X368188Y379810D01*
X368679Y379804D01*
X369169Y379786D01*
X369659Y379756D01*
X370148Y379714D01*
X370636Y379660D01*
X371123Y379594D01*
X371607Y379516D01*
X372090Y379426D01*
X372570Y379324D01*
X373048Y379211D01*
X373522Y379086D01*
X373994Y378949D01*
X374462Y378801D01*
X374926Y378641D01*
X375386Y378470D01*
X375842Y378288D01*
X376293Y378094D01*
X376739Y377890D01*
X377180Y377674D01*
X377616Y377448D01*
X378046Y377212D01*
X378470Y376965D01*
X378888Y376707D01*
X379299Y376439D01*
X379704Y376162D01*
X380102Y375874D01*
X380493Y375577D01*
X380876Y375270D01*
X381251Y374954D01*
X381619Y374629D01*
X381979Y374295D01*
X382330Y373952D01*
X382673Y373601D01*
X383007Y373241D01*
X383332Y372873D01*
X383648Y372498D01*
X383955Y372115D01*
X384252Y371724D01*
X384540Y371326D01*
X384817Y370921D01*
X385085Y370510D01*
X385343Y370092D01*
X385590Y369668D01*
X385826Y369238D01*
X386052Y368802D01*
X386268Y368361D01*
X386472Y367915D01*
X386666Y367464D01*
X386848Y367008D01*
X387019Y366548D01*
X387179Y366084D01*
X387327Y365616D01*
X387464Y365144D01*
X387589Y364670D01*
X387702Y364192D01*
X387804Y363712D01*
X387894Y363229D01*
X387972Y362745D01*
X388038Y362258D01*
X388092Y361770D01*
X388134Y361281D01*
X388164Y360791D01*
X388182Y360301D01*
X388188Y359810D01*
X388182Y359319D01*
X388164Y358829D01*
X388134Y358339D01*
X388092Y357850D01*
X388038Y357362D01*
X387972Y356875D01*
X387894Y356391D01*
X387804Y355908D01*
X387702Y355428D01*
X387589Y354950D01*
X387464Y354476D01*
X387327Y354004D01*
X387179Y353536D01*
X387019Y353072D01*
X386848Y352612D01*
X386666Y352156D01*
X386472Y351705D01*
X386268Y351259D01*
X386052Y350818D01*
X385826Y350382D01*
X385590Y349952D01*
X385343Y349528D01*
X385085Y349110D01*
X384817Y348699D01*
X384540Y348294D01*
X384252Y347896D01*
X383955Y347505D01*
X383648Y347122D01*
X383332Y346747D01*
X383007Y346379D01*
X382673Y346019D01*
X382330Y345668D01*
X381979Y345325D01*
X381619Y344991D01*
X381251Y344666D01*
X380876Y344350D01*
X380493Y344043D01*
X380102Y343746D01*
X379704Y343458D01*
X379299Y343181D01*
X378888Y342913D01*
X378470Y342655D01*
X378046Y342408D01*
X377616Y342172D01*
X377180Y341946D01*
X376739Y341730D01*
X376293Y341526D01*
X375842Y341332D01*
X375386Y341150D01*
X374926Y340979D01*
X374462Y340819D01*
X373994Y340671D01*
X373522Y340534D01*
X373048Y340409D01*
X372570Y340296D01*
X372090Y340194D01*
X371607Y340104D01*
X371123Y340026D01*
X370636Y339960D01*
X370148Y339906D01*
X369659Y339864D01*
X369169Y339834D01*
X368679Y339816D01*
X368188Y339810D01*
X367697Y339816D01*
X367207Y339834D01*
X366717Y339864D01*
X366228Y339906D01*
X365740Y339960D01*
X365253Y340026D01*
X364769Y340104D01*
X364286Y340194D01*
X363806Y340296D01*
X363328Y340409D01*
X362854Y340534D01*
X362382Y340671D01*
X361914Y340819D01*
X361450Y340979D01*
X360990Y341150D01*
X360534Y341332D01*
X360083Y341526D01*
X359637Y341730D01*
X359196Y341946D01*
X358760Y342172D01*
X358330Y342408D01*
X357906Y342655D01*
X357488Y342913D01*
X357077Y343181D01*
X356672Y343458D01*
X356274Y343746D01*
X355883Y344043D01*
X355500Y344350D01*
X355125Y344666D01*
X354757Y344991D01*
X354397Y345325D01*
X354046Y345668D01*
X353703Y346019D01*
X353369Y346379D01*
X353044Y346747D01*
X352728Y347122D01*
X352421Y347505D01*
X352124Y347896D01*
X351836Y348294D01*
X351559Y348699D01*
X351291Y349110D01*
X351033Y349528D01*
X350786Y349952D01*
X350550Y350382D01*
X350324Y350818D01*
X350108Y351259D01*
X349904Y351705D01*
X349710Y352156D01*
X349528Y352612D01*
X349357Y353072D01*
X349197Y353536D01*
X349049Y354004D01*
X348912Y354476D01*
X348787Y354950D01*
X348674Y355428D01*
X348572Y355908D01*
X348482Y356391D01*
X348404Y356875D01*
X348338Y357362D01*
X348284Y357850D01*
X348242Y358339D01*
X348212Y358829D01*
X348194Y359319D01*
X348188Y359810D01*
X308188Y312510D02*
X308192Y312203D01*
X308203Y311896D01*
X308221Y311590D01*
X308247Y311284D01*
X308281Y310979D01*
X308321Y310675D01*
X308369Y310372D01*
X308425Y310070D01*
X308487Y309770D01*
X308557Y309471D01*
X308634Y309174D01*
X308718Y308878D01*
X308810Y308585D01*
X308908Y308295D01*
X309013Y308007D01*
X309126Y307721D01*
X309245Y307438D01*
X309371Y307158D01*
X309503Y306881D01*
X309643Y306608D01*
X309789Y306338D01*
X309941Y306072D01*
X310100Y305809D01*
X310265Y305550D01*
X310436Y305296D01*
X310613Y305045D01*
X310797Y304799D01*
X310986Y304557D01*
X311181Y304321D01*
X311382Y304088D01*
X311588Y303861D01*
X311800Y303639D01*
X312017Y303422D01*
X312239Y303210D01*
X312466Y303004D01*
X312699Y302803D01*
X312935Y302608D01*
X313177Y302419D01*
X313423Y302235D01*
X313674Y302058D01*
X313928Y301887D01*
X314187Y301722D01*
X314450Y301563D01*
X314716Y301411D01*
X314986Y301265D01*
X315259Y301125D01*
X315536Y300993D01*
X315816Y300867D01*
X316099Y300748D01*
X316385Y300635D01*
X316673Y300530D01*
X316963Y300432D01*
X317256Y300340D01*
X317552Y300256D01*
X317849Y300179D01*
X318148Y300109D01*
X318448Y300047D01*
X318750Y299991D01*
X319053Y299943D01*
X319357Y299903D01*
X319662Y299869D01*
X319968Y299843D01*
X320274Y299825D01*
X320581Y299814D01*
X320888Y299810D01*
X409788Y299810D01*
X410165Y299746D01*
X410543Y299690D01*
X410922Y299644D01*
X411302Y299608D01*
X411683Y299580D01*
X412065Y299561D01*
X412447Y299552D01*
X412829Y299552D01*
X413211Y299561D01*
X413592Y299580D01*
X413973Y299607D01*
X414353Y299644D01*
X414733Y299690D01*
X415111Y299746D01*
X415487Y299810D01*
X415862Y299883D01*
X416235Y299966D01*
X416606Y300057D01*
X416975Y300157D01*
X417341Y300267D01*
X417704Y300385D01*
X418065Y300512D01*
X418422Y300647D01*
X418776Y300791D01*
X419126Y300944D01*
X419472Y301105D01*
X419815Y301274D01*
X420153Y301451D01*
X420487Y301637D01*
X420816Y301831D01*
X421141Y302032D01*
X421460Y302242D01*
X421775Y302459D01*
X422084Y302683D01*
X422387Y302915D01*
X422685Y303154D01*
X422977Y303401D01*
X423263Y303654D01*
X423543Y303914D01*
X423816Y304181D01*
X424083Y304454D01*
X424343Y304734D01*
X424597Y305020D01*
X424843Y305312D01*
X425082Y305610D01*
X425314Y305914D01*
X425539Y306223D01*
X425756Y306537D01*
X425965Y306857D01*
X426167Y307181D01*
X426361Y307510D01*
X426546Y307844D01*
X426724Y308183D01*
X426893Y308525D01*
X427054Y308871D01*
X427207Y309222D01*
X427351Y309576D01*
X427486Y309933D01*
X427613Y310293D01*
X427731Y310656D01*
X427840Y311023D01*
X427941Y311391D01*
X428032Y311762D01*
X428115Y312135D01*
X428188Y312510D01*
X428188Y419810D01*
X320888Y419810D01*
X320513Y419737D01*
X320140Y419654D01*
X319769Y419563D01*
X319401Y419462D01*
X319034Y419353D01*
X318671Y419235D01*
X318311Y419108D01*
X317954Y418973D01*
X317600Y418829D01*
X317249Y418676D01*
X316903Y418515D01*
X316561Y418346D01*
X316222Y418168D01*
X315888Y417983D01*
X315559Y417789D01*
X315235Y417587D01*
X314915Y417378D01*
X314601Y417161D01*
X314292Y416936D01*
X313988Y416704D01*
X313690Y416465D01*
X313398Y416219D01*
X313112Y415965D01*
X312832Y415705D01*
X312559Y415438D01*
X312292Y415165D01*
X312032Y414885D01*
X311779Y414599D01*
X311532Y414307D01*
X311293Y414009D01*
X311061Y413706D01*
X310837Y413397D01*
X310620Y413082D01*
X310410Y412763D01*
X310209Y412438D01*
X310015Y412109D01*
X309829Y411775D01*
X309652Y411437D01*
X309483Y411094D01*
X309322Y410748D01*
X309169Y410398D01*
X309025Y410044D01*
X308890Y409687D01*
X308763Y409326D01*
X308645Y408963D01*
X308535Y408597D01*
X308435Y408228D01*
X308344Y407857D01*
X308261Y407484D01*
X308188Y407109D01*
X308124Y406733D01*
X308068Y406355D01*
X308022Y405975D01*
X307985Y405595D01*
X307958Y405214D01*
X307939Y404833D01*
X307930Y404451D01*
X307930Y404069D01*
X307939Y403687D01*
X307958Y403305D01*
X307986Y402924D01*
X308022Y402544D01*
X308068Y402165D01*
X308124Y401787D01*
X308188Y401410D01*
X308188Y312510D01*
M02*
