G04 EAGLE Gerber RS-274X export*
G75*
%MOMM*%
%FSLAX34Y34*%
%LPD*%
%INSoldermask Top*%
%IPPOS*%
%AMOC8*
5,1,8,0,0,1.08239X$1,22.5*%
G01*
%ADD10R,1.411200X1.411200*%
%ADD11C,1.411200*%
%ADD12R,1.703200X1.503200*%
%ADD13R,1.503200X1.703200*%
%ADD14R,1.403200X1.403200*%
%ADD15C,6.045200*%
%ADD16R,1.003200X1.003200*%
%ADD17R,1.003200X1.103200*%
%ADD18R,2.006200X1.803200*%
%ADD19C,2.743200*%
%ADD20C,0.508000*%
%ADD21C,2.453200*%
%ADD22C,0.499716*%
%ADD23C,0.506016*%
%ADD24C,0.959600*%

G36*
X414144Y237878D02*
X414144Y237878D01*
X414151Y237883D01*
X414156Y237879D01*
X414492Y237960D01*
X414495Y237965D01*
X414499Y237963D01*
X414818Y238095D01*
X414821Y238100D01*
X414825Y238098D01*
X415119Y238278D01*
X415121Y238283D01*
X415125Y238283D01*
X415388Y238507D01*
X415389Y238512D01*
X415394Y238512D01*
X415618Y238775D01*
X415618Y238781D01*
X415622Y238781D01*
X415802Y239075D01*
X415801Y239081D01*
X415806Y239082D01*
X415938Y239401D01*
X415936Y239407D01*
X415940Y239408D01*
X416021Y239744D01*
X416019Y239750D01*
X416022Y239752D01*
X416049Y240096D01*
X416048Y240099D01*
X416049Y240100D01*
X416049Y245900D01*
X416047Y245902D01*
X416049Y245904D01*
X416022Y246248D01*
X416018Y246252D01*
X416021Y246256D01*
X415940Y246592D01*
X415935Y246595D01*
X415938Y246599D01*
X415806Y246918D01*
X415800Y246921D01*
X415802Y246925D01*
X415622Y247219D01*
X415617Y247221D01*
X415618Y247225D01*
X415394Y247488D01*
X415388Y247489D01*
X415388Y247494D01*
X415125Y247718D01*
X415119Y247718D01*
X415119Y247722D01*
X414825Y247902D01*
X414819Y247901D01*
X414818Y247906D01*
X414499Y248038D01*
X414493Y248036D01*
X414492Y248040D01*
X414156Y248121D01*
X414150Y248119D01*
X414148Y248122D01*
X413804Y248149D01*
X413801Y248147D01*
X413800Y248149D01*
X409256Y248122D01*
X409249Y248117D01*
X409244Y248121D01*
X408908Y248040D01*
X408905Y248035D01*
X408901Y248038D01*
X408582Y247906D01*
X408579Y247900D01*
X408575Y247902D01*
X408281Y247722D01*
X408279Y247717D01*
X408275Y247718D01*
X408012Y247494D01*
X408011Y247488D01*
X408007Y247488D01*
X407783Y247225D01*
X407782Y247219D01*
X407778Y247219D01*
X407598Y246925D01*
X407599Y246919D01*
X407595Y246918D01*
X407463Y246599D01*
X407464Y246593D01*
X407460Y246592D01*
X407379Y246256D01*
X407381Y246250D01*
X407378Y246248D01*
X407351Y245904D01*
X407353Y245901D01*
X407351Y245900D01*
X407351Y240100D01*
X407353Y240098D01*
X407351Y240096D01*
X407378Y239752D01*
X407382Y239748D01*
X407379Y239744D01*
X407460Y239408D01*
X407465Y239405D01*
X407463Y239401D01*
X407595Y239082D01*
X407600Y239079D01*
X407598Y239075D01*
X407778Y238781D01*
X407783Y238779D01*
X407783Y238775D01*
X408007Y238512D01*
X408012Y238511D01*
X408012Y238507D01*
X408275Y238283D01*
X408281Y238282D01*
X408281Y238278D01*
X408575Y238098D01*
X408581Y238099D01*
X408582Y238095D01*
X408901Y237963D01*
X408907Y237964D01*
X408908Y237960D01*
X409244Y237879D01*
X409250Y237881D01*
X409252Y237878D01*
X409596Y237851D01*
X409599Y237853D01*
X409600Y237851D01*
X414144Y237878D01*
G37*
G36*
X414144Y204278D02*
X414144Y204278D01*
X414151Y204283D01*
X414156Y204279D01*
X414492Y204360D01*
X414495Y204365D01*
X414499Y204363D01*
X414818Y204495D01*
X414821Y204500D01*
X414825Y204498D01*
X415119Y204678D01*
X415121Y204683D01*
X415125Y204683D01*
X415388Y204907D01*
X415389Y204912D01*
X415394Y204912D01*
X415618Y205175D01*
X415618Y205181D01*
X415622Y205181D01*
X415802Y205475D01*
X415801Y205481D01*
X415806Y205482D01*
X415938Y205801D01*
X415936Y205807D01*
X415940Y205808D01*
X416021Y206144D01*
X416019Y206150D01*
X416022Y206152D01*
X416049Y206496D01*
X416048Y206499D01*
X416049Y206500D01*
X416049Y212300D01*
X416047Y212302D01*
X416049Y212304D01*
X416022Y212648D01*
X416018Y212652D01*
X416021Y212656D01*
X415940Y212992D01*
X415935Y212995D01*
X415938Y212999D01*
X415806Y213318D01*
X415800Y213321D01*
X415802Y213325D01*
X415622Y213619D01*
X415617Y213621D01*
X415618Y213625D01*
X415394Y213888D01*
X415388Y213889D01*
X415388Y213894D01*
X415125Y214118D01*
X415119Y214118D01*
X415119Y214122D01*
X414825Y214302D01*
X414819Y214301D01*
X414818Y214306D01*
X414499Y214438D01*
X414493Y214436D01*
X414492Y214440D01*
X414156Y214521D01*
X414150Y214519D01*
X414148Y214522D01*
X413804Y214549D01*
X413801Y214547D01*
X413800Y214549D01*
X409256Y214522D01*
X409249Y214517D01*
X409244Y214521D01*
X408908Y214440D01*
X408905Y214435D01*
X408901Y214438D01*
X408582Y214306D01*
X408579Y214300D01*
X408575Y214302D01*
X408281Y214122D01*
X408279Y214117D01*
X408275Y214118D01*
X408012Y213894D01*
X408011Y213888D01*
X408007Y213888D01*
X407783Y213625D01*
X407782Y213619D01*
X407778Y213619D01*
X407598Y213325D01*
X407599Y213319D01*
X407595Y213318D01*
X407463Y212999D01*
X407464Y212993D01*
X407460Y212992D01*
X407379Y212656D01*
X407381Y212650D01*
X407378Y212648D01*
X407351Y212304D01*
X407353Y212301D01*
X407351Y212300D01*
X407351Y206500D01*
X407353Y206498D01*
X407351Y206496D01*
X407378Y206152D01*
X407382Y206148D01*
X407379Y206144D01*
X407460Y205808D01*
X407465Y205805D01*
X407463Y205801D01*
X407595Y205482D01*
X407600Y205479D01*
X407598Y205475D01*
X407778Y205181D01*
X407783Y205179D01*
X407783Y205175D01*
X408007Y204912D01*
X408012Y204911D01*
X408012Y204907D01*
X408275Y204683D01*
X408281Y204682D01*
X408281Y204678D01*
X408575Y204498D01*
X408581Y204499D01*
X408582Y204495D01*
X408901Y204363D01*
X408907Y204364D01*
X408908Y204360D01*
X409244Y204279D01*
X409250Y204281D01*
X409252Y204278D01*
X409596Y204251D01*
X409599Y204253D01*
X409600Y204251D01*
X414144Y204278D01*
G37*
D10*
X280060Y262048D03*
D11*
X280060Y242048D03*
D12*
X343100Y238500D03*
X343100Y219500D03*
D13*
X386000Y215700D03*
X367000Y215700D03*
D12*
X337300Y290800D03*
X337300Y271800D03*
D14*
X366500Y324600D03*
X387500Y324600D03*
D15*
X274800Y169800D03*
X481000Y375800D03*
D10*
X280060Y345360D03*
D11*
X280060Y325360D03*
D16*
X471900Y153600D03*
X490900Y153600D03*
X481400Y177600D03*
D17*
X429600Y156100D03*
X448600Y156100D03*
X439100Y176100D03*
D12*
X454100Y197100D03*
X454100Y216100D03*
X434900Y216100D03*
X434900Y197100D03*
D18*
X476100Y225820D03*
X476100Y197380D03*
X501100Y225820D03*
X501100Y197380D03*
D12*
X388400Y278000D03*
X388400Y297000D03*
X366600Y297200D03*
X366600Y278200D03*
X315800Y290800D03*
X315800Y271800D03*
D10*
X347160Y180028D03*
D11*
X367160Y180028D03*
D19*
X377472Y375712D03*
D20*
X377472Y396286D02*
X377472Y405938D01*
X377472Y355138D02*
X377472Y345486D01*
X398046Y375712D02*
X407698Y375712D01*
X356898Y375712D02*
X347246Y375712D01*
X394380Y390080D02*
X401204Y396904D01*
X394380Y361344D02*
X401204Y354520D01*
X360564Y361344D02*
X353740Y354520D01*
X360564Y390080D02*
X353740Y396904D01*
D21*
X428188Y332310D03*
X428188Y387310D03*
X308188Y359810D03*
D22*
X359282Y256432D02*
X368418Y256432D01*
X359282Y256432D02*
X359282Y259368D01*
X368418Y259368D01*
X368418Y256432D01*
X368418Y246932D02*
X359282Y246932D01*
X359282Y249868D01*
X368418Y249868D01*
X368418Y246932D01*
X368418Y237432D02*
X359282Y237432D01*
X359282Y240368D01*
X368418Y240368D01*
X368418Y237432D01*
X384382Y237432D02*
X393518Y237432D01*
X384382Y237432D02*
X384382Y240368D01*
X393518Y240368D01*
X393518Y237432D01*
X393518Y256432D02*
X384382Y256432D01*
X384382Y259368D01*
X393518Y259368D01*
X393518Y256432D01*
D23*
X317836Y330014D02*
X308664Y330014D01*
X308664Y332986D01*
X317836Y332986D01*
X317836Y330014D01*
X317836Y320514D02*
X308664Y320514D01*
X308664Y323486D01*
X317836Y323486D01*
X317836Y320514D01*
X317836Y311014D02*
X308664Y311014D01*
X308664Y313986D01*
X317836Y313986D01*
X317836Y311014D01*
X333564Y311014D02*
X342736Y311014D01*
X333564Y311014D02*
X333564Y313986D01*
X342736Y313986D01*
X342736Y311014D01*
X342736Y330014D02*
X333564Y330014D01*
X333564Y332986D01*
X342736Y332986D01*
X342736Y330014D01*
D24*
X411000Y284000D03*
X398526Y194310D03*
M02*
