999
FreeCAD v1.0 39319 (Git)
  0
SECTION
  2
HEADER
  9
$ACADVER
  1
AC1014
  9
$ACADMAINTVER
 70
     9
  9
$DWGCODEPAGE
  3
ANSI_1252
  9
$TEXTSTYLE
  7
STANDARD
  9
$DIMSTYLE
  2
STANDARD
  9
$DIMTXSTY
  7
STANDARD
  9
$CMLSTYLE
  2
STANDARD
  9
$LUNITS
 70
2
  9
$INSUNITS
 70
4
  9
$PEXTMAX
 10
50
 20
50
 30
50
  9
$PEXTMIN
 10
0
 20
0
 30
0
  9
$HANDSEED
  5
FFFF
  0
ENDSEC
  0
SECTION
  2
CLASSES
  0
CLASS
  1
ACDBDICTIONARYWDFLT
  2
AcDbDictionaryWithDefault
  3
ObjectDBX Classes
 90
        0
280
     0
281
     0
  0
CLASS
  1
XRECORD
  2
AcDbXrecord
  3
ObjectDBX Classes
 90
        0
280
     0
281
     0
  0
CLASS
  1
LWPOLYLINE
  2
AcDbPolyline
  3
ObjectDBX Classes
 90
        0
280
     0
281
     1
  0
ENDSEC
  0
SECTION
  2
TABLES
  0
TABLE
  2
VPORT
  5
20
330
0
100
AcDbSymbolTable
 70
     1
  0
VPORT
  5
21
330
20
100
AcDbSymbolTableRecord
100
AcDbViewportTableRecord
  2
*ACTIVE
 70
     0
  0
ENDTAB
  0
TABLE
  2
LTYPE
  5
22
330
0
100
AcDbSymbolTable
 70
     1
  0
LTYPE
  5
23
330
21
100
AcDbSymbolTableRecord
100
AcDbLinetypeTableRecord
  2
BYBLOCK
 70
     0
  3

 72
    65
 73
     0
 40
0.0
  0
LTYPE
  5
24
330
21
100
AcDbSymbolTableRecord
100
AcDbLinetypeTableRecord
  2
BYLAYER
 70
     0
  3

 72
    65
 73
     0
 40
0.0
  0
LTYPE
  5
25
330
21
100
AcDbSymbolTableRecord
100
AcDbLinetypeTableRecord
  2
CONTINUOUS
 70
     0
  3
Solid line
 72
    65
 73
     0
 40
0.0
  0
ENDTAB
  0
TABLE
  2
LAYER
  5
CAB
330
0
100
AcDbSymbolTable
 70
9
  0
LAYER
  5
CAC
330
CAB
100
AcDbSymbolTableRecord
100
AcDbLayerTableRecord
  2
0
 70
   0
 62
   7
  6
CONTINUOUS
  0
LAYER
  5
CAD
330
CAB
100
AcDbSymbolTableRecord
100
AcDbLayerTableRecord
  2
none
 70
    0
 62
    7
  6
CONTINUOUS
  0
LAYER
  5
CAE
330
CAB
100
AcDbSymbolTableRecord
100
AcDbLayerTableRecord
  2
Shape2DView
 70
    0
 62
    7
  6
CONTINUOUS
  0
LAYER
  5
CAF
330
CAB
100
AcDbSymbolTableRecord
100
AcDbLayerTableRecord
  2
Shape2DView001
 70
    0
 62
    7
  6
CONTINUOUS
  0
LAYER
  5
CB0
330
CAB
100
AcDbSymbolTableRecord
100
AcDbLayerTableRecord
  2
Shape2DView002
 70
    0
 62
    7
  6
CONTINUOUS
  0
LAYER
  5
CB1
330
CAB
100
AcDbSymbolTableRecord
100
AcDbLayerTableRecord
  2
Shape2DView003
 70
    0
 62
    7
  6
CONTINUOUS
  0
LAYER
  5
CB2
330
CAB
100
AcDbSymbolTableRecord
100
AcDbLayerTableRecord
  2
Shape2DView004
 70
    0
 62
    7
  6
CONTINUOUS
  0
LAYER
  5
CB3
330
CAB
100
AcDbSymbolTableRecord
100
AcDbLayerTableRecord
  2
Shape2DView005
 70
    0
 62
    7
  6
CONTINUOUS
  0
LAYER
  5
CB4
330
CAB
100
AcDbSymbolTableRecord
100
AcDbLayerTableRecord
  2
Shape2DView006
 70
    0
 62
    7
  6
CONTINUOUS
  0
ENDTAB
  0
TABLE
  2
STYLE
  5
70
330
0
100
AcDbSymbolTable
 70
     2
  0
STYLE
  5
71
330
70
100
AcDbSymbolTableRecord
100
AcDbTextStyleTableRecord
  2
STANDARD
 70
     0
 40
0.0
 41
1.0
 50
0.0
 71
     0
 42
2.5
  3
arial.ttf
  4

  0
STYLE
  5
72
330
70
100
AcDbSymbolTableRecord
100
AcDbTextStyleTableRecord
  2
ANNOTATIVE
 70
     0
 40
0.0
 41
1.0
 50
0.0
 71
     0
 42
2.5
  3
arial.ttf
  4

  0
ENDTAB
  0
TABLE
  2
VIEW
  5
73
330
0
100
AcDbSymbolTable
 70
     0
  0
ENDTAB
  0
TABLE
  2
UCS
  5
74
330
0
100
AcDbSymbolTable
 70
     0
  0
ENDTAB
  0
TABLE
  2
APPID
  5
75
330
0
100
AcDbSymbolTable
 70
     2
  0
APPID
  5
76
330
75
100
AcDbSymbolTableRecord
100
AcDbRegAppTableRecord
  2
ACAD
 70
     0
  0
APPID
  5
77
330
75
100
AcDbSymbolTableRecord
100
AcDbRegAppTableRecord
  2
ACADANNOTATIVE
 70
     0
  0
ENDTAB
  0
TABLE
  2
DIMSTYLE
  5
78
330
0
100
AcDbSymbolTable
 70
     2
  0
DIMSTYLE
105
79
330
78
100
AcDbSymbolTableRecord
100
AcDbDimStyleTableRecord
  2
STANDARD
 70
     0
  3

  4

  5

  6

  7

 40
0.0
 41
2.5
 42
0.625
 43
3.75
 44
1.25
 45
0.0
 46
0.0
 47
0.0
 48
0.0
140
2.5
141
2.5
142
0.0
143
0.03937007874016
144
1.0
145
0.0
146
1.0
147
0.625
 71
     0
 72
     0
 73
     0
 74
     0
 75
     0
 76
     0
 77
     1
 78
     8
170
     0
171
     3
172
     1
173
     0
174
     0
175
     0
176
     0
177
     0
178
     0
270
     2
271
     2
272
     2
273
     2
274
     3
340
71
275
     0
280
     0
281
     0
282
     0
283
     0
284
     8
285
     0
286
     0
287
     3
288
     0
  0
ENDTAB
  0
TABLE
  2
BLOCK_RECORD
  5
A01
330
0
100
AcDbSymbolTable
  70
5
  0
BLOCK_RECORD
  5
A02
330
A01
100
AcDbSymbolTableRecord
100
AcDbBlockTableRecord
  2
*MODEL_SPACE
  0
BLOCK_RECORD
  5
A03
330
A01
100
AcDbSymbolTableRecord
100
AcDbBlockTableRecord
  2
*PAPER_SPACE
  0
ENDTAB
  0
ENDSEC
  0
SECTION
  2
BLOCKS
  0
BLOCK
  5
A04
330
A02
100
AcDbEntity
  8
0
100
AcDbBlockBegin
  2
*MODEL_SPACE
 70
   0
 10
0
 20
0
 30
0
  3
*MODEL_SPACE
  1
 
  0
ENDBLK
  5
A05
330
A02
100
AcDbEntity
  8
0
100
AcDbBlockEnd
  0
BLOCK
  5
A06
330
A03
100
AcDbEntity
 67
1
  8
0
100
AcDbBlockBegin
  2
*PAPER_SPACE
 70
   0
 10
0
 20
0
 30
0
  3
*PAPER_SPACE
  1
 
  0
ENDBLK
  5
A07
330
A03
100
AcDbEntity
 67
    1
  8
0
100
AcDbBlockEnd
  0
ENDSEC
  0
SECTION
  2
ENTITIES
  0
LINE
  5
A08
330
A02
100
AcDbEntity
  8
Shape2DView
100
AcDbLine
 10
210.000000000
 20
29.005000000
 30
0.000000000
 11
207.793135002
 21
29.005000000
 31
0.000000000
  0
LINE
  5
A09
330
A02
100
AcDbEntity
  8
Shape2DView
100
AcDbLine
 10
210.000000000
 20
29.005000000
 30
0.000000000
 11
210.000000000
 21
2.400000000
 31
0.000000000
  0
LINE
  5
A0A
330
A02
100
AcDbEntity
  8
Shape2DView
100
AcDbLine
 10
210.000000000
 20
2.400000000
 30
0.000000000
 11
193.990000000
 21
2.400000000
 31
0.000000000
  0
ARC
  5
A0B
330
A02
100
AcDbEntity
  8
Shape2DView
100
AcDbCircle
 10
193.830000000
 20
2.400000000
 30
0.000000000
 40
0.160000000
100
AcDbArc
 50
0.000000000
 51
180.000000000
  0
ARC
  5
A0C
330
A02
100
AcDbEntity
  8
Shape2DView
100
AcDbCircle
 10
193.830000000
 20
2.400000000
 30
0.000000000
 40
0.160000000
100
AcDbArc
 50
180.000000000
 51
-90.000000000
  0
LINE
  5
A0D
330
A02
100
AcDbEntity
  8
Shape2DView
100
AcDbLine
 10
193.830000000
 20
2.240000000
 30
0.000000000
 11
193.830000000
 21
0.000000000
 31
0.000000000
  0
LINE
  5
A0E
330
A02
100
AcDbEntity
  8
Shape2DView
100
AcDbLine
 10
173.670000000
 20
0.000000000
 30
0.000000000
 11
193.830000000
 21
0.000000000
 31
0.000000000
  0
LINE
  5
A0F
330
A02
100
AcDbEntity
  8
Shape2DView
100
AcDbLine
 10
173.670000000
 20
2.240000000
 30
0.000000000
 11
173.670000000
 21
0.000000000
 31
0.000000000
  0
ARC
  5
A10
330
A02
100
AcDbEntity
  8
Shape2DView
100
AcDbCircle
 10
173.670000000
 20
2.400000000
 30
0.000000000
 40
0.160000000
100
AcDbArc
 50
-90.000000000
 51
0.000000000
  0
ARC
  5
A11
330
A02
100
AcDbEntity
  8
Shape2DView
100
AcDbCircle
 10
173.670000000
 20
2.400000000
 30
0.000000000
 40
0.160000000
100
AcDbArc
 50
0.000000000
 51
180.000000000
  0
LINE
  5
A12
330
A02
100
AcDbEntity
  8
Shape2DView
100
AcDbLine
 10
173.510000000
 20
2.400000000
 30
0.000000000
 11
141.490000000
 21
2.400000000
 31
0.000000000
  0
ARC
  5
A13
330
A02
100
AcDbEntity
  8
Shape2DView
100
AcDbCircle
 10
141.330000000
 20
2.400000000
 30
0.000000000
 40
0.160000000
100
AcDbArc
 50
0.000000000
 51
180.000000000
  0
ARC
  5
A14
330
A02
100
AcDbEntity
  8
Shape2DView
100
AcDbCircle
 10
141.330000000
 20
2.400000000
 30
0.000000000
 40
0.160000000
100
AcDbArc
 50
180.000000000
 51
-90.000000000
  0
LINE
  5
A15
330
A02
100
AcDbEntity
  8
Shape2DView
100
AcDbLine
 10
141.330000000
 20
2.240000000
 30
0.000000000
 11
141.330000000
 21
0.000000000
 31
0.000000000
  0
LINE
  5
A16
330
A02
100
AcDbEntity
  8
Shape2DView
100
AcDbLine
 10
121.170000000
 20
0.000000000
 30
0.000000000
 11
141.330000000
 21
0.000000000
 31
0.000000000
  0
LINE
  5
A17
330
A02
100
AcDbEntity
  8
Shape2DView
100
AcDbLine
 10
121.170000000
 20
2.240000000
 30
0.000000000
 11
121.170000000
 21
0.000000000
 31
0.000000000
  0
ARC
  5
A18
330
A02
100
AcDbEntity
  8
Shape2DView
100
AcDbCircle
 10
121.170000000
 20
2.400000000
 30
0.000000000
 40
0.160000000
100
AcDbArc
 50
-90.000000000
 51
0.000000000
  0
ARC
  5
A19
330
A02
100
AcDbEntity
  8
Shape2DView
100
AcDbCircle
 10
121.170000000
 20
2.400000000
 30
0.000000000
 40
0.160000000
100
AcDbArc
 50
0.000000000
 51
180.000000000
  0
LINE
  5
A1A
330
A02
100
AcDbEntity
  8
Shape2DView
100
AcDbLine
 10
121.010000000
 20
2.400000000
 30
0.000000000
 11
88.990000000
 21
2.400000000
 31
0.000000000
  0
ARC
  5
A1B
330
A02
100
AcDbEntity
  8
Shape2DView
100
AcDbCircle
 10
88.830000000
 20
2.400000000
 30
0.000000000
 40
0.160000000
100
AcDbArc
 50
0.000000000
 51
180.000000000
  0
ARC
  5
A1C
330
A02
100
AcDbEntity
  8
Shape2DView
100
AcDbCircle
 10
88.830000000
 20
2.400000000
 30
0.000000000
 40
0.160000000
100
AcDbArc
 50
180.000000000
 51
-90.000000000
  0
LINE
  5
A1D
330
A02
100
AcDbEntity
  8
Shape2DView
100
AcDbLine
 10
88.830000000
 20
2.240000000
 30
0.000000000
 11
88.830000000
 21
0.000000000
 31
0.000000000
  0
LINE
  5
A1E
330
A02
100
AcDbEntity
  8
Shape2DView
100
AcDbLine
 10
68.670000000
 20
0.000000000
 30
0.000000000
 11
88.830000000
 21
0.000000000
 31
0.000000000
  0
LINE
  5
A1F
330
A02
100
AcDbEntity
  8
Shape2DView
100
AcDbLine
 10
68.670000000
 20
2.240000000
 30
0.000000000
 11
68.670000000
 21
0.000000000
 31
0.000000000
  0
ARC
  5
A20
330
A02
100
AcDbEntity
  8
Shape2DView
100
AcDbCircle
 10
68.670000000
 20
2.400000000
 30
0.000000000
 40
0.160000000
100
AcDbArc
 50
-90.000000000
 51
0.000000000
  0
ARC
  5
A21
330
A02
100
AcDbEntity
  8
Shape2DView
100
AcDbCircle
 10
68.670000000
 20
2.400000000
 30
0.000000000
 40
0.160000000
100
AcDbArc
 50
0.000000000
 51
180.000000000
  0
LINE
  5
A22
330
A02
100
AcDbEntity
  8
Shape2DView
100
AcDbLine
 10
68.510000000
 20
2.400000000
 30
0.000000000
 11
36.490000000
 21
2.400000000
 31
0.000000000
  0
ARC
  5
A23
330
A02
100
AcDbEntity
  8
Shape2DView
100
AcDbCircle
 10
36.330000000
 20
2.400000000
 30
0.000000000
 40
0.160000000
100
AcDbArc
 50
0.000000000
 51
180.000000000
  0
ARC
  5
A24
330
A02
100
AcDbEntity
  8
Shape2DView
100
AcDbCircle
 10
36.330000000
 20
2.400000000
 30
0.000000000
 40
0.160000000
100
AcDbArc
 50
180.000000000
 51
-90.000000000
  0
LINE
  5
A25
330
A02
100
AcDbEntity
  8
Shape2DView
100
AcDbLine
 10
36.330000000
 20
2.240000000
 30
0.000000000
 11
36.330000000
 21
0.000000000
 31
0.000000000
  0
LINE
  5
A26
330
A02
100
AcDbEntity
  8
Shape2DView
100
AcDbLine
 10
16.170000000
 20
0.000000000
 30
0.000000000
 11
36.330000000
 21
0.000000000
 31
0.000000000
  0
LINE
  5
A27
330
A02
100
AcDbEntity
  8
Shape2DView
100
AcDbLine
 10
16.170000000
 20
2.240000000
 30
0.000000000
 11
16.170000000
 21
0.000000000
 31
0.000000000
  0
ARC
  5
A28
330
A02
100
AcDbEntity
  8
Shape2DView
100
AcDbCircle
 10
16.170000000
 20
2.400000000
 30
0.000000000
 40
0.160000000
100
AcDbArc
 50
-90.000000000
 51
0.000000000
  0
ARC
  5
A29
330
A02
100
AcDbEntity
  8
Shape2DView
100
AcDbCircle
 10
16.170000000
 20
2.400000000
 30
0.000000000
 40
0.160000000
100
AcDbArc
 50
0.000000000
 51
180.000000000
  0
LINE
  5
A2A
330
A02
100
AcDbEntity
  8
Shape2DView
100
AcDbLine
 10
16.010000000
 20
2.400000000
 30
0.000000000
 11
0.000000000
 21
2.400000000
 31
0.000000000
  0
LINE
  5
A2B
330
A02
100
AcDbEntity
  8
Shape2DView
100
AcDbLine
 10
0.000000000
 20
2.400000000
 30
0.000000000
 11
0.000000000
 21
29.005000000
 31
0.000000000
  0
LINE
  5
A2C
330
A02
100
AcDbEntity
  8
Shape2DView
100
AcDbLine
 10
2.206864998
 20
29.005000000
 30
0.000000000
 11
0.000000000
 21
29.005000000
 31
0.000000000
  0
ARC
  5
A2D
330
A02
100
AcDbEntity
  8
Shape2DView
100
AcDbCircle
 10
2.354666667
 20
29.090333333
 30
0.000000000
 40
0.170666667
100
AcDbArc
 50
-150.000000000
 51
60.000000000
  0
LINE
  5
A2E
330
A02
100
AcDbEntity
  8
Shape2DView
100
AcDbLine
 10
2.440000000
 20
29.238135002
 30
0.000000000
 11
2.440000000
 21
48.611864998
 31
0.000000000
  0
ARC
  5
A2F
330
A02
100
AcDbEntity
  8
Shape2DView
100
AcDbCircle
 10
2.354666667
 20
48.759666667
 30
0.000000000
 40
0.170666667
100
AcDbArc
 50
-60.000000000
 51
150.000000000
  0
LINE
  5
A30
330
A02
100
AcDbEntity
  8
Shape2DView
100
AcDbLine
 10
2.206864998
 20
48.845000000
 30
0.000000000
 11
0.000000000
 21
48.845000000
 31
0.000000000
  0
LINE
  5
A31
330
A02
100
AcDbEntity
  8
Shape2DView
100
AcDbLine
 10
0.000000000
 20
48.845000000
 30
0.000000000
 11
0.000000000
 21
102.055000000
 31
0.000000000
  0
LINE
  5
A32
330
A02
100
AcDbEntity
  8
Shape2DView
100
AcDbLine
 10
2.206864998
 20
102.055000000
 30
0.000000000
 11
0.000000000
 21
102.055000000
 31
0.000000000
  0
ARC
  5
A33
330
A02
100
AcDbEntity
  8
Shape2DView
100
AcDbCircle
 10
2.354666667
 20
102.140333333
 30
0.000000000
 40
0.170666667
100
AcDbArc
 50
-150.000000000
 51
60.000000000
  0
LINE
  5
A34
330
A02
100
AcDbEntity
  8
Shape2DView
100
AcDbLine
 10
2.440000000
 20
102.288135002
 30
0.000000000
 11
2.440000000
 21
121.661864998
 31
0.000000000
  0
ARC
  5
A35
330
A02
100
AcDbEntity
  8
Shape2DView
100
AcDbCircle
 10
2.354666667
 20
121.809666667
 30
0.000000000
 40
0.170666667
100
AcDbArc
 50
-60.000000000
 51
150.000000000
  0
LINE
  5
A36
330
A02
100
AcDbEntity
  8
Shape2DView
100
AcDbLine
 10
2.206864998
 20
121.895000000
 30
0.000000000
 11
0.000000000
 21
121.895000000
 31
0.000000000
  0
LINE
  5
A37
330
A02
100
AcDbEntity
  8
Shape2DView
100
AcDbLine
 10
0.000000000
 20
121.895000000
 30
0.000000000
 11
0.000000000
 21
175.105000000
 31
0.000000000
  0
LINE
  5
A38
330
A02
100
AcDbEntity
  8
Shape2DView
100
AcDbLine
 10
2.206864998
 20
175.105000000
 30
0.000000000
 11
0.000000000
 21
175.105000000
 31
0.000000000
  0
ARC
  5
A39
330
A02
100
AcDbEntity
  8
Shape2DView
100
AcDbCircle
 10
2.354666667
 20
175.190333333
 30
0.000000000
 40
0.170666667
100
AcDbArc
 50
-150.000000000
 51
60.000000000
  0
LINE
  5
A3A
330
A02
100
AcDbEntity
  8
Shape2DView
100
AcDbLine
 10
2.440000000
 20
175.338135002
 30
0.000000000
 11
2.440000000
 21
194.711864998
 31
0.000000000
  0
ARC
  5
A3B
330
A02
100
AcDbEntity
  8
Shape2DView
100
AcDbCircle
 10
2.354666667
 20
194.859666667
 30
0.000000000
 40
0.170666667
100
AcDbArc
 50
-60.000000000
 51
150.000000000
  0
LINE
  5
A3C
330
A02
100
AcDbEntity
  8
Shape2DView
100
AcDbLine
 10
2.206864998
 20
194.945000000
 30
0.000000000
 11
0.000000000
 21
194.945000000
 31
0.000000000
  0
LINE
  5
A3D
330
A02
100
AcDbEntity
  8
Shape2DView
100
AcDbLine
 10
0.000000000
 20
194.945000000
 30
0.000000000
 11
0.000000000
 21
248.155000000
 31
0.000000000
  0
LINE
  5
A3E
330
A02
100
AcDbEntity
  8
Shape2DView
100
AcDbLine
 10
2.206864998
 20
248.155000000
 30
0.000000000
 11
0.000000000
 21
248.155000000
 31
0.000000000
  0
ARC
  5
A3F
330
A02
100
AcDbEntity
  8
Shape2DView
100
AcDbCircle
 10
2.354666667
 20
248.240333333
 30
0.000000000
 40
0.170666667
100
AcDbArc
 50
-150.000000000
 51
60.000000000
  0
LINE
  5
A40
330
A02
100
AcDbEntity
  8
Shape2DView
100
AcDbLine
 10
2.440000000
 20
248.388135002
 30
0.000000000
 11
2.440000000
 21
267.761864998
 31
0.000000000
  0
ARC
  5
A41
330
A02
100
AcDbEntity
  8
Shape2DView
100
AcDbCircle
 10
2.354666667
 20
267.909666667
 30
0.000000000
 40
0.170666667
100
AcDbArc
 50
-60.000000000
 51
150.000000000
  0
LINE
  5
A42
330
A02
100
AcDbEntity
  8
Shape2DView
100
AcDbLine
 10
2.206864998
 20
267.995000000
 30
0.000000000
 11
0.000000000
 21
267.995000000
 31
0.000000000
  0
LINE
  5
A43
330
A02
100
AcDbEntity
  8
Shape2DView
100
AcDbLine
 10
0.000000000
 20
294.600000000
 30
0.000000000
 11
16.010000000
 21
294.600000000
 31
0.000000000
  0
ARC
  5
A44
330
A02
100
AcDbEntity
  8
Shape2DView
100
AcDbCircle
 10
16.170000000
 20
294.600000000
 30
0.000000000
 40
0.160000000
100
AcDbArc
 50
180.000000000
 51
0.000000000
  0
ARC
  5
A45
330
A02
100
AcDbEntity
  8
Shape2DView
100
AcDbCircle
 10
16.170000000
 20
294.600000000
 30
0.000000000
 40
0.160000000
100
AcDbArc
 50
0.000000000
 51
90.000000000
  0
LINE
  5
A46
330
A02
100
AcDbEntity
  8
Shape2DView
100
AcDbLine
 10
0.000000000
 20
267.995000000
 30
0.000000000
 11
0.000000000
 21
294.600000000
 31
0.000000000
  0
LINE
  5
A47
330
A02
100
AcDbEntity
  8
Shape2DView
100
AcDbLine
 10
16.170000000
 20
294.760000000
 30
0.000000000
 11
16.170000000
 21
297.000000000
 31
0.000000000
  0
LINE
  5
A48
330
A02
100
AcDbEntity
  8
Shape2DView
100
AcDbLine
 10
36.330000000
 20
297.000000000
 30
0.000000000
 11
16.170000000
 21
297.000000000
 31
0.000000000
  0
LINE
  5
A49
330
A02
100
AcDbEntity
  8
Shape2DView
100
AcDbLine
 10
36.330000000
 20
294.760000000
 30
0.000000000
 11
36.330000000
 21
297.000000000
 31
0.000000000
  0
ARC
  5
A4A
330
A02
100
AcDbEntity
  8
Shape2DView
100
AcDbCircle
 10
36.330000000
 20
294.600000000
 30
0.000000000
 40
0.160000000
100
AcDbArc
 50
90.000000000
 51
180.000000000
  0
ARC
  5
A4B
330
A02
100
AcDbEntity
  8
Shape2DView
100
AcDbCircle
 10
36.330000000
 20
294.600000000
 30
0.000000000
 40
0.160000000
100
AcDbArc
 50
180.000000000
 51
0.000000000
  0
LINE
  5
A4C
330
A02
100
AcDbEntity
  8
Shape2DView
100
AcDbLine
 10
36.490000000
 20
294.600000000
 30
0.000000000
 11
68.510000000
 21
294.600000000
 31
0.000000000
  0
ARC
  5
A4D
330
A02
100
AcDbEntity
  8
Shape2DView
100
AcDbCircle
 10
68.670000000
 20
294.600000000
 30
0.000000000
 40
0.160000000
100
AcDbArc
 50
180.000000000
 51
0.000000000
  0
ARC
  5
A4E
330
A02
100
AcDbEntity
  8
Shape2DView
100
AcDbCircle
 10
68.670000000
 20
294.600000000
 30
0.000000000
 40
0.160000000
100
AcDbArc
 50
0.000000000
 51
90.000000000
  0
LINE
  5
A4F
330
A02
100
AcDbEntity
  8
Shape2DView
100
AcDbLine
 10
68.670000000
 20
294.760000000
 30
0.000000000
 11
68.670000000
 21
297.000000000
 31
0.000000000
  0
LINE
  5
A50
330
A02
100
AcDbEntity
  8
Shape2DView
100
AcDbLine
 10
88.830000000
 20
297.000000000
 30
0.000000000
 11
68.670000000
 21
297.000000000
 31
0.000000000
  0
LINE
  5
A51
330
A02
100
AcDbEntity
  8
Shape2DView
100
AcDbLine
 10
88.830000000
 20
294.760000000
 30
0.000000000
 11
88.830000000
 21
297.000000000
 31
0.000000000
  0
ARC
  5
A52
330
A02
100
AcDbEntity
  8
Shape2DView
100
AcDbCircle
 10
88.830000000
 20
294.600000000
 30
0.000000000
 40
0.160000000
100
AcDbArc
 50
90.000000000
 51
180.000000000
  0
ARC
  5
A53
330
A02
100
AcDbEntity
  8
Shape2DView
100
AcDbCircle
 10
88.830000000
 20
294.600000000
 30
0.000000000
 40
0.160000000
100
AcDbArc
 50
180.000000000
 51
0.000000000
  0
LINE
  5
A54
330
A02
100
AcDbEntity
  8
Shape2DView
100
AcDbLine
 10
88.990000000
 20
294.600000000
 30
0.000000000
 11
121.010000000
 21
294.600000000
 31
0.000000000
  0
ARC
  5
A55
330
A02
100
AcDbEntity
  8
Shape2DView
100
AcDbCircle
 10
121.170000000
 20
294.600000000
 30
0.000000000
 40
0.160000000
100
AcDbArc
 50
180.000000000
 51
0.000000000
  0
ARC
  5
A56
330
A02
100
AcDbEntity
  8
Shape2DView
100
AcDbCircle
 10
121.170000000
 20
294.600000000
 30
0.000000000
 40
0.160000000
100
AcDbArc
 50
0.000000000
 51
90.000000000
  0
LINE
  5
A57
330
A02
100
AcDbEntity
  8
Shape2DView
100
AcDbLine
 10
121.170000000
 20
294.760000000
 30
0.000000000
 11
121.170000000
 21
297.000000000
 31
0.000000000
  0
LINE
  5
A58
330
A02
100
AcDbEntity
  8
Shape2DView
100
AcDbLine
 10
141.330000000
 20
297.000000000
 30
0.000000000
 11
121.170000000
 21
297.000000000
 31
0.000000000
  0
LINE
  5
A59
330
A02
100
AcDbEntity
  8
Shape2DView
100
AcDbLine
 10
141.330000000
 20
294.760000000
 30
0.000000000
 11
141.330000000
 21
297.000000000
 31
0.000000000
  0
ARC
  5
A5A
330
A02
100
AcDbEntity
  8
Shape2DView
100
AcDbCircle
 10
141.330000000
 20
294.600000000
 30
0.000000000
 40
0.160000000
100
AcDbArc
 50
90.000000000
 51
180.000000000
  0
ARC
  5
A5B
330
A02
100
AcDbEntity
  8
Shape2DView
100
AcDbCircle
 10
141.330000000
 20
294.600000000
 30
0.000000000
 40
0.160000000
100
AcDbArc
 50
180.000000000
 51
0.000000000
  0
LINE
  5
A5C
330
A02
100
AcDbEntity
  8
Shape2DView
100
AcDbLine
 10
141.490000000
 20
294.600000000
 30
0.000000000
 11
173.510000000
 21
294.600000000
 31
0.000000000
  0
ARC
  5
A5D
330
A02
100
AcDbEntity
  8
Shape2DView
100
AcDbCircle
 10
173.670000000
 20
294.600000000
 30
0.000000000
 40
0.160000000
100
AcDbArc
 50
180.000000000
 51
0.000000000
  0
ARC
  5
A5E
330
A02
100
AcDbEntity
  8
Shape2DView
100
AcDbCircle
 10
173.670000000
 20
294.600000000
 30
0.000000000
 40
0.160000000
100
AcDbArc
 50
0.000000000
 51
90.000000000
  0
LINE
  5
A5F
330
A02
100
AcDbEntity
  8
Shape2DView
100
AcDbLine
 10
173.670000000
 20
294.760000000
 30
0.000000000
 11
173.670000000
 21
297.000000000
 31
0.000000000
  0
LINE
  5
A60
330
A02
100
AcDbEntity
  8
Shape2DView
100
AcDbLine
 10
193.830000000
 20
297.000000000
 30
0.000000000
 11
173.670000000
 21
297.000000000
 31
0.000000000
  0
LINE
  5
A61
330
A02
100
AcDbEntity
  8
Shape2DView
100
AcDbLine
 10
193.830000000
 20
294.760000000
 30
0.000000000
 11
193.830000000
 21
297.000000000
 31
0.000000000
  0
ARC
  5
A62
330
A02
100
AcDbEntity
  8
Shape2DView
100
AcDbCircle
 10
193.830000000
 20
294.600000000
 30
0.000000000
 40
0.160000000
100
AcDbArc
 50
90.000000000
 51
180.000000000
  0
ARC
  5
A63
330
A02
100
AcDbEntity
  8
Shape2DView
100
AcDbCircle
 10
193.830000000
 20
294.600000000
 30
0.000000000
 40
0.160000000
100
AcDbArc
 50
180.000000000
 51
0.000000000
  0
LINE
  5
A64
330
A02
100
AcDbEntity
  8
Shape2DView
100
AcDbLine
 10
193.990000000
 20
294.600000000
 30
0.000000000
 11
210.000000000
 21
294.600000000
 31
0.000000000
  0
LINE
  5
A65
330
A02
100
AcDbEntity
  8
Shape2DView
100
AcDbLine
 10
210.000000000
 20
294.600000000
 30
0.000000000
 11
210.000000000
 21
267.995000000
 31
0.000000000
  0
LINE
  5
A66
330
A02
100
AcDbEntity
  8
Shape2DView
100
AcDbLine
 10
210.000000000
 20
267.995000000
 30
0.000000000
 11
207.793135002
 21
267.995000000
 31
0.000000000
  0
ARC
  5
A67
330
A02
100
AcDbEntity
  8
Shape2DView
100
AcDbCircle
 10
207.645333333
 20
29.090333333
 30
0.000000000
 40
0.170666667
100
AcDbArc
 50
180.000000000
 51
-30.000000000
  0
ARC
  5
A68
330
A02
100
AcDbEntity
  8
Shape2DView
100
AcDbCircle
 10
207.645333333
 20
29.090333333
 30
0.000000000
 40
0.170666667
100
AcDbArc
 50
120.000000000
 51
180.000000000
  0
LINE
  5
A69
330
A02
100
AcDbEntity
  8
Shape2DView
100
AcDbLine
 10
207.560000000
 20
29.238135002
 30
0.000000000
 11
207.560000000
 21
48.611864998
 31
0.000000000
  0
ARC
  5
A6A
330
A02
100
AcDbEntity
  8
Shape2DView
100
AcDbCircle
 10
207.645333333
 20
48.759666667
 30
0.000000000
 40
0.170666667
100
AcDbArc
 50
180.000000000
 51
-120.000000000
  0
ARC
  5
A6B
330
A02
100
AcDbEntity
  8
Shape2DView
100
AcDbCircle
 10
207.645333333
 20
48.759666667
 30
0.000000000
 40
0.170666667
100
AcDbArc
 50
30.000000000
 51
180.000000000
  0
LINE
  5
A6C
330
A02
100
AcDbEntity
  8
Shape2DView
100
AcDbLine
 10
210.000000000
 20
48.845000000
 30
0.000000000
 11
207.793135002
 21
48.845000000
 31
0.000000000
  0
LINE
  5
A6D
330
A02
100
AcDbEntity
  8
Shape2DView
100
AcDbLine
 10
210.000000000
 20
102.055000000
 30
0.000000000
 11
210.000000000
 21
48.845000000
 31
0.000000000
  0
LINE
  5
A6E
330
A02
100
AcDbEntity
  8
Shape2DView
100
AcDbLine
 10
210.000000000
 20
102.055000000
 30
0.000000000
 11
207.793135002
 21
102.055000000
 31
0.000000000
  0
ARC
  5
A6F
330
A02
100
AcDbEntity
  8
Shape2DView
100
AcDbCircle
 10
207.645333333
 20
102.140333333
 30
0.000000000
 40
0.170666667
100
AcDbArc
 50
180.000000000
 51
-30.000000000
  0
ARC
  5
A70
330
A02
100
AcDbEntity
  8
Shape2DView
100
AcDbCircle
 10
207.645333333
 20
102.140333333
 30
0.000000000
 40
0.170666667
100
AcDbArc
 50
120.000000000
 51
180.000000000
  0
LINE
  5
A71
330
A02
100
AcDbEntity
  8
Shape2DView
100
AcDbLine
 10
207.560000000
 20
102.288135002
 30
0.000000000
 11
207.560000000
 21
121.661864998
 31
0.000000000
  0
ARC
  5
A72
330
A02
100
AcDbEntity
  8
Shape2DView
100
AcDbCircle
 10
207.645333333
 20
121.809666667
 30
0.000000000
 40
0.170666667
100
AcDbArc
 50
180.000000000
 51
-120.000000000
  0
ARC
  5
A73
330
A02
100
AcDbEntity
  8
Shape2DView
100
AcDbCircle
 10
207.645333333
 20
121.809666667
 30
0.000000000
 40
0.170666667
100
AcDbArc
 50
30.000000000
 51
180.000000000
  0
LINE
  5
A74
330
A02
100
AcDbEntity
  8
Shape2DView
100
AcDbLine
 10
210.000000000
 20
121.895000000
 30
0.000000000
 11
207.793135002
 21
121.895000000
 31
0.000000000
  0
LINE
  5
A75
330
A02
100
AcDbEntity
  8
Shape2DView
100
AcDbLine
 10
210.000000000
 20
175.105000000
 30
0.000000000
 11
210.000000000
 21
121.895000000
 31
0.000000000
  0
LINE
  5
A76
330
A02
100
AcDbEntity
  8
Shape2DView
100
AcDbLine
 10
210.000000000
 20
175.105000000
 30
0.000000000
 11
207.793135002
 21
175.105000000
 31
0.000000000
  0
ARC
  5
A77
330
A02
100
AcDbEntity
  8
Shape2DView
100
AcDbCircle
 10
207.645333333
 20
175.190333333
 30
0.000000000
 40
0.170666667
100
AcDbArc
 50
180.000000000
 51
-30.000000000
  0
ARC
  5
A78
330
A02
100
AcDbEntity
  8
Shape2DView
100
AcDbCircle
 10
207.645333333
 20
175.190333333
 30
0.000000000
 40
0.170666667
100
AcDbArc
 50
120.000000000
 51
180.000000000
  0
LINE
  5
A79
330
A02
100
AcDbEntity
  8
Shape2DView
100
AcDbLine
 10
207.560000000
 20
175.338135002
 30
0.000000000
 11
207.560000000
 21
194.711864998
 31
0.000000000
  0
ARC
  5
A7A
330
A02
100
AcDbEntity
  8
Shape2DView
100
AcDbCircle
 10
207.645333333
 20
194.859666667
 30
0.000000000
 40
0.170666667
100
AcDbArc
 50
180.000000000
 51
-120.000000000
  0
ARC
  5
A7B
330
A02
100
AcDbEntity
  8
Shape2DView
100
AcDbCircle
 10
207.645333333
 20
194.859666667
 30
0.000000000
 40
0.170666667
100
AcDbArc
 50
30.000000000
 51
180.000000000
  0
LINE
  5
A7C
330
A02
100
AcDbEntity
  8
Shape2DView
100
AcDbLine
 10
210.000000000
 20
194.945000000
 30
0.000000000
 11
207.793135002
 21
194.945000000
 31
0.000000000
  0
LINE
  5
A7D
330
A02
100
AcDbEntity
  8
Shape2DView
100
AcDbLine
 10
210.000000000
 20
248.155000000
 30
0.000000000
 11
210.000000000
 21
194.945000000
 31
0.000000000
  0
LINE
  5
A7E
330
A02
100
AcDbEntity
  8
Shape2DView
100
AcDbLine
 10
210.000000000
 20
248.155000000
 30
0.000000000
 11
207.793135002
 21
248.155000000
 31
0.000000000
  0
ARC
  5
A7F
330
A02
100
AcDbEntity
  8
Shape2DView
100
AcDbCircle
 10
207.645333333
 20
248.240333333
 30
0.000000000
 40
0.170666667
100
AcDbArc
 50
180.000000000
 51
-30.000000000
  0
ARC
  5
A80
330
A02
100
AcDbEntity
  8
Shape2DView
100
AcDbCircle
 10
207.645333333
 20
248.240333333
 30
0.000000000
 40
0.170666667
100
AcDbArc
 50
120.000000000
 51
180.000000000
  0
LINE
  5
A81
330
A02
100
AcDbEntity
  8
Shape2DView
100
AcDbLine
 10
207.560000000
 20
248.388135002
 30
0.000000000
 11
207.560000000
 21
267.761864998
 31
0.000000000
  0
ARC
  5
A82
330
A02
100
AcDbEntity
  8
Shape2DView
100
AcDbCircle
 10
207.645333333
 20
267.909666667
 30
0.000000000
 40
0.170666667
100
AcDbArc
 50
180.000000000
 51
-120.000000000
  0
ARC
  5
A83
330
A02
100
AcDbEntity
  8
Shape2DView
100
AcDbCircle
 10
207.645333333
 20
267.909666667
 30
0.000000000
 40
0.170666667
100
AcDbArc
 50
30.000000000
 51
180.000000000
  0
LINE
  5
A84
330
A02
100
AcDbEntity
  8
Shape2DView001
100
AcDbLine
 10
222.400000000
 20
245.200000000
 30
0.000000000
 11
222.400000000
 21
224.790000000
 31
0.000000000
  0
ARC
  5
A85
330
A02
100
AcDbEntity
  8
Shape2DView001
100
AcDbCircle
 10
222.400000000
 20
224.630000000
 30
0.000000000
 40
0.160000000
100
AcDbArc
 50
180.000000000
 51
-90.000000000
  0
ARC
  5
A86
330
A02
100
AcDbEntity
  8
Shape2DView001
100
AcDbCircle
 10
222.400000000
 20
224.630000000
 30
0.000000000
 40
0.160000000
100
AcDbArc
 50
-90.000000000
 51
90.000000000
  0
LINE
  5
A87
330
A02
100
AcDbEntity
  8
Shape2DView001
100
AcDbLine
 10
248.685000000
 20
245.200000000
 30
0.000000000
 11
222.400000000
 21
245.200000000
 31
0.000000000
  0
ARC
  5
A88
330
A02
100
AcDbEntity
  8
Shape2DView001
100
AcDbCircle
 10
248.845000000
 20
245.200000000
 30
0.000000000
 40
0.160000000
100
AcDbArc
 50
180.000000000
 51
0.000000000
  0
ARC
  5
A89
330
A02
100
AcDbEntity
  8
Shape2DView001
100
AcDbCircle
 10
248.845000000
 20
245.200000000
 30
0.000000000
 40
0.160000000
100
AcDbArc
 50
0.000000000
 51
90.000000000
  0
LINE
  5
A8A
330
A02
100
AcDbEntity
  8
Shape2DView001
100
AcDbLine
 10
222.240000000
 20
224.630000000
 30
0.000000000
 11
220.000000000
 21
224.630000000
 31
0.000000000
  0
LINE
  5
A8B
330
A02
100
AcDbEntity
  8
Shape2DView001
100
AcDbLine
 10
248.845000000
 20
245.360000000
 30
0.000000000
 11
248.845000000
 21
247.600000000
 31
0.000000000
  0
LINE
  5
A8C
330
A02
100
AcDbEntity
  8
Shape2DView001
100
AcDbLine
 10
248.845000000
 20
247.600000000
 30
0.000000000
 11
269.005000000
 21
247.600000000
 31
0.000000000
  0
ARC
  5
A8D
330
A02
100
AcDbEntity
  8
Shape2DView001
100
AcDbCircle
 10
269.005000000
 20
245.200000000
 30
0.000000000
 40
0.160000000
100
AcDbArc
 50
90.000000000
 51
180.000000000
  0
ARC
  5
A8E
330
A02
100
AcDbEntity
  8
Shape2DView001
100
AcDbCircle
 10
269.005000000
 20
245.200000000
 30
0.000000000
 40
0.160000000
100
AcDbArc
 50
180.000000000
 51
0.000000000
  0
LINE
  5
A8F
330
A02
100
AcDbEntity
  8
Shape2DView001
100
AcDbLine
 10
321.735000000
 20
245.200000000
 30
0.000000000
 11
269.165000000
 21
245.200000000
 31
0.000000000
  0
ARC
  5
A90
330
A02
100
AcDbEntity
  8
Shape2DView001
100
AcDbCircle
 10
321.895000000
 20
245.200000000
 30
0.000000000
 40
0.160000000
100
AcDbArc
 50
180.000000000
 51
0.000000000
  0
ARC
  5
A91
330
A02
100
AcDbEntity
  8
Shape2DView001
100
AcDbCircle
 10
321.895000000
 20
245.200000000
 30
0.000000000
 40
0.160000000
100
AcDbArc
 50
0.000000000
 51
90.000000000
  0
LINE
  5
A92
330
A02
100
AcDbEntity
  8
Shape2DView001
100
AcDbLine
 10
269.005000000
 20
245.360000000
 30
0.000000000
 11
269.005000000
 21
247.600000000
 31
0.000000000
  0
LINE
  5
A93
330
A02
100
AcDbEntity
  8
Shape2DView001
100
AcDbLine
 10
321.895000000
 20
245.360000000
 30
0.000000000
 11
321.895000000
 21
247.600000000
 31
0.000000000
  0
LINE
  5
A94
330
A02
100
AcDbEntity
  8
Shape2DView001
100
AcDbLine
 10
321.895000000
 20
247.600000000
 30
0.000000000
 11
342.055000000
 21
247.600000000
 31
0.000000000
  0
ARC
  5
A95
330
A02
100
AcDbEntity
  8
Shape2DView001
100
AcDbCircle
 10
342.055000000
 20
245.200000000
 30
0.000000000
 40
0.160000000
100
AcDbArc
 50
90.000000000
 51
180.000000000
  0
ARC
  5
A96
330
A02
100
AcDbEntity
  8
Shape2DView001
100
AcDbCircle
 10
342.055000000
 20
245.200000000
 30
0.000000000
 40
0.160000000
100
AcDbArc
 50
180.000000000
 51
0.000000000
  0
LINE
  5
A97
330
A02
100
AcDbEntity
  8
Shape2DView001
100
AcDbLine
 10
394.785000000
 20
245.200000000
 30
0.000000000
 11
342.215000000
 21
245.200000000
 31
0.000000000
  0
ARC
  5
A98
330
A02
100
AcDbEntity
  8
Shape2DView001
100
AcDbCircle
 10
394.945000000
 20
245.200000000
 30
0.000000000
 40
0.160000000
100
AcDbArc
 50
180.000000000
 51
0.000000000
  0
ARC
  5
A99
330
A02
100
AcDbEntity
  8
Shape2DView001
100
AcDbCircle
 10
394.945000000
 20
245.200000000
 30
0.000000000
 40
0.160000000
100
AcDbArc
 50
0.000000000
 51
90.000000000
  0
LINE
  5
A9A
330
A02
100
AcDbEntity
  8
Shape2DView001
100
AcDbLine
 10
342.055000000
 20
245.360000000
 30
0.000000000
 11
342.055000000
 21
247.600000000
 31
0.000000000
  0
LINE
  5
A9B
330
A02
100
AcDbEntity
  8
Shape2DView001
100
AcDbLine
 10
394.945000000
 20
245.360000000
 30
0.000000000
 11
394.945000000
 21
247.600000000
 31
0.000000000
  0
LINE
  5
A9C
330
A02
100
AcDbEntity
  8
Shape2DView001
100
AcDbLine
 10
394.945000000
 20
247.600000000
 30
0.000000000
 11
415.105000000
 21
247.600000000
 31
0.000000000
  0
ARC
  5
A9D
330
A02
100
AcDbEntity
  8
Shape2DView001
100
AcDbCircle
 10
415.105000000
 20
245.200000000
 30
0.000000000
 40
0.160000000
100
AcDbArc
 50
90.000000000
 51
180.000000000
  0
ARC
  5
A9E
330
A02
100
AcDbEntity
  8
Shape2DView001
100
AcDbCircle
 10
415.105000000
 20
245.200000000
 30
0.000000000
 40
0.160000000
100
AcDbArc
 50
180.000000000
 51
0.000000000
  0
LINE
  5
A9F
330
A02
100
AcDbEntity
  8
Shape2DView001
100
AcDbLine
 10
467.835000000
 20
245.200000000
 30
0.000000000
 11
415.265000000
 21
245.200000000
 31
0.000000000
  0
ARC
  5
AA0
330
A02
100
AcDbEntity
  8
Shape2DView001
100
AcDbCircle
 10
467.995000000
 20
245.200000000
 30
0.000000000
 40
0.160000000
100
AcDbArc
 50
180.000000000
 51
0.000000000
  0
ARC
  5
AA1
330
A02
100
AcDbEntity
  8
Shape2DView001
100
AcDbCircle
 10
467.995000000
 20
245.200000000
 30
0.000000000
 40
0.160000000
100
AcDbArc
 50
0.000000000
 51
90.000000000
  0
LINE
  5
AA2
330
A02
100
AcDbEntity
  8
Shape2DView001
100
AcDbLine
 10
415.105000000
 20
245.360000000
 30
0.000000000
 11
415.105000000
 21
247.600000000
 31
0.000000000
  0
LINE
  5
AA3
330
A02
100
AcDbEntity
  8
Shape2DView001
100
AcDbLine
 10
467.995000000
 20
245.360000000
 30
0.000000000
 11
467.995000000
 21
247.600000000
 31
0.000000000
  0
LINE
  5
AA4
330
A02
100
AcDbEntity
  8
Shape2DView001
100
AcDbLine
 10
467.995000000
 20
247.600000000
 30
0.000000000
 11
488.155000000
 21
247.600000000
 31
0.000000000
  0
ARC
  5
AA5
330
A02
100
AcDbEntity
  8
Shape2DView001
100
AcDbCircle
 10
488.155000000
 20
245.200000000
 30
0.000000000
 40
0.160000000
100
AcDbArc
 50
90.000000000
 51
180.000000000
  0
ARC
  5
AA6
330
A02
100
AcDbEntity
  8
Shape2DView001
100
AcDbCircle
 10
488.155000000
 20
245.200000000
 30
0.000000000
 40
0.160000000
100
AcDbArc
 50
180.000000000
 51
0.000000000
  0
LINE
  5
AA7
330
A02
100
AcDbEntity
  8
Shape2DView001
100
AcDbLine
 10
514.600000000
 20
245.200000000
 30
0.000000000
 11
488.315000000
 21
245.200000000
 31
0.000000000
  0
LINE
  5
AA8
330
A02
100
AcDbEntity
  8
Shape2DView001
100
AcDbLine
 10
514.600000000
 20
224.790000000
 30
0.000000000
 11
514.600000000
 21
245.200000000
 31
0.000000000
  0
ARC
  5
AA9
330
A02
100
AcDbEntity
  8
Shape2DView001
100
AcDbCircle
 10
514.600000000
 20
224.630000000
 30
0.000000000
 40
0.160000000
100
AcDbArc
 50
90.000000000
 51
-90.000000000
  0
ARC
  5
AAA
330
A02
100
AcDbEntity
  8
Shape2DView001
100
AcDbCircle
 10
514.600000000
 20
224.630000000
 30
0.000000000
 40
0.160000000
100
AcDbArc
 50
-90.000000000
 51
0.000000000
  0
LINE
  5
AAB
330
A02
100
AcDbEntity
  8
Shape2DView001
100
AcDbLine
 10
488.155000000
 20
245.360000000
 30
0.000000000
 11
488.155000000
 21
247.600000000
 31
0.000000000
  0
LINE
  5
AAC
330
A02
100
AcDbEntity
  8
Shape2DView001
100
AcDbLine
 10
514.760000000
 20
224.630000000
 30
0.000000000
 11
517.000000000
 21
224.630000000
 31
0.000000000
  0
LINE
  5
AAD
330
A02
100
AcDbEntity
  8
Shape2DView001
100
AcDbLine
 10
517.000000000
 20
224.630000000
 30
0.000000000
 11
517.000000000
 21
204.470000000
 31
0.000000000
  0
ARC
  5
AAE
330
A02
100
AcDbEntity
  8
Shape2DView001
100
AcDbCircle
 10
514.600000000
 20
204.470000000
 30
0.000000000
 40
0.160000000
100
AcDbArc
 50
0.000000000
 51
90.000000000
  0
ARC
  5
AAF
330
A02
100
AcDbEntity
  8
Shape2DView001
100
AcDbCircle
 10
514.600000000
 20
204.470000000
 30
0.000000000
 40
0.160000000
100
AcDbArc
 50
90.000000000
 51
-90.000000000
  0
LINE
  5
AB0
330
A02
100
AcDbEntity
  8
Shape2DView001
100
AcDbLine
 10
514.600000000
 20
163.490000000
 30
0.000000000
 11
514.600000000
 21
204.310000000
 31
0.000000000
  0
ARC
  5
AB1
330
A02
100
AcDbEntity
  8
Shape2DView001
100
AcDbCircle
 10
514.600000000
 20
163.330000000
 30
0.000000000
 40
0.160000000
100
AcDbArc
 50
90.000000000
 51
-90.000000000
  0
ARC
  5
AB2
330
A02
100
AcDbEntity
  8
Shape2DView001
100
AcDbCircle
 10
514.600000000
 20
163.330000000
 30
0.000000000
 40
0.160000000
100
AcDbArc
 50
-90.000000000
 51
0.000000000
  0
LINE
  5
AB3
330
A02
100
AcDbEntity
  8
Shape2DView001
100
AcDbLine
 10
514.760000000
 20
204.470000000
 30
0.000000000
 11
517.000000000
 21
204.470000000
 31
0.000000000
  0
LINE
  5
AB4
330
A02
100
AcDbEntity
  8
Shape2DView001
100
AcDbLine
 10
514.760000000
 20
163.330000000
 30
0.000000000
 11
517.000000000
 21
163.330000000
 31
0.000000000
  0
LINE
  5
AB5
330
A02
100
AcDbEntity
  8
Shape2DView001
100
AcDbLine
 10
517.000000000
 20
163.330000000
 30
0.000000000
 11
517.000000000
 21
143.170000000
 31
0.000000000
  0
ARC
  5
AB6
330
A02
100
AcDbEntity
  8
Shape2DView001
100
AcDbCircle
 10
514.600000000
 20
143.170000000
 30
0.000000000
 40
0.160000000
100
AcDbArc
 50
0.000000000
 51
90.000000000
  0
ARC
  5
AB7
330
A02
100
AcDbEntity
  8
Shape2DView001
100
AcDbCircle
 10
514.600000000
 20
143.170000000
 30
0.000000000
 40
0.160000000
100
AcDbArc
 50
90.000000000
 51
-90.000000000
  0
LINE
  5
AB8
330
A02
100
AcDbEntity
  8
Shape2DView001
100
AcDbLine
 10
514.600000000
 20
102.190000000
 30
0.000000000
 11
514.600000000
 21
143.010000000
 31
0.000000000
  0
ARC
  5
AB9
330
A02
100
AcDbEntity
  8
Shape2DView001
100
AcDbCircle
 10
514.600000000
 20
102.030000000
 30
0.000000000
 40
0.160000000
100
AcDbArc
 50
90.000000000
 51
-90.000000000
  0
ARC
  5
ABA
330
A02
100
AcDbEntity
  8
Shape2DView001
100
AcDbCircle
 10
514.600000000
 20
102.030000000
 30
0.000000000
 40
0.160000000
100
AcDbArc
 50
-90.000000000
 51
0.000000000
  0
LINE
  5
ABB
330
A02
100
AcDbEntity
  8
Shape2DView001
100
AcDbLine
 10
514.760000000
 20
143.170000000
 30
0.000000000
 11
517.000000000
 21
143.170000000
 31
0.000000000
  0
LINE
  5
ABC
330
A02
100
AcDbEntity
  8
Shape2DView001
100
AcDbLine
 10
514.760000000
 20
102.030000000
 30
0.000000000
 11
517.000000000
 21
102.030000000
 31
0.000000000
  0
LINE
  5
ABD
330
A02
100
AcDbEntity
  8
Shape2DView001
100
AcDbLine
 10
517.000000000
 20
102.030000000
 30
0.000000000
 11
517.000000000
 21
81.870000000
 31
0.000000000
  0
ARC
  5
ABE
330
A02
100
AcDbEntity
  8
Shape2DView001
100
AcDbCircle
 10
514.600000000
 20
81.870000000
 30
0.000000000
 40
0.160000000
100
AcDbArc
 50
0.000000000
 51
90.000000000
  0
ARC
  5
ABF
330
A02
100
AcDbEntity
  8
Shape2DView001
100
AcDbCircle
 10
514.600000000
 20
81.870000000
 30
0.000000000
 40
0.160000000
100
AcDbArc
 50
90.000000000
 51
-90.000000000
  0
LINE
  5
AC0
330
A02
100
AcDbEntity
  8
Shape2DView001
100
AcDbLine
 10
514.600000000
 20
40.890000000
 30
0.000000000
 11
514.600000000
 21
81.710000000
 31
0.000000000
  0
ARC
  5
AC1
330
A02
100
AcDbEntity
  8
Shape2DView001
100
AcDbCircle
 10
514.600000000
 20
40.730000000
 30
0.000000000
 40
0.160000000
100
AcDbArc
 50
90.000000000
 51
-90.000000000
  0
ARC
  5
AC2
330
A02
100
AcDbEntity
  8
Shape2DView001
100
AcDbCircle
 10
514.600000000
 20
40.730000000
 30
0.000000000
 40
0.160000000
100
AcDbArc
 50
-90.000000000
 51
0.000000000
  0
LINE
  5
AC3
330
A02
100
AcDbEntity
  8
Shape2DView001
100
AcDbLine
 10
514.760000000
 20
81.870000000
 30
0.000000000
 11
517.000000000
 21
81.870000000
 31
0.000000000
  0
LINE
  5
AC4
330
A02
100
AcDbEntity
  8
Shape2DView001
100
AcDbLine
 10
514.760000000
 20
40.730000000
 30
0.000000000
 11
517.000000000
 21
40.730000000
 31
0.000000000
  0
LINE
  5
AC5
330
A02
100
AcDbEntity
  8
Shape2DView001
100
AcDbLine
 10
517.000000000
 20
40.730000000
 30
0.000000000
 11
517.000000000
 21
20.570000000
 31
0.000000000
  0
ARC
  5
AC6
330
A02
100
AcDbEntity
  8
Shape2DView001
100
AcDbCircle
 10
514.600000000
 20
20.570000000
 30
0.000000000
 40
0.160000000
100
AcDbArc
 50
0.000000000
 51
90.000000000
  0
ARC
  5
AC7
330
A02
100
AcDbEntity
  8
Shape2DView001
100
AcDbCircle
 10
514.600000000
 20
20.570000000
 30
0.000000000
 40
0.160000000
100
AcDbArc
 50
90.000000000
 51
-90.000000000
  0
LINE
  5
AC8
330
A02
100
AcDbEntity
  8
Shape2DView001
100
AcDbLine
 10
514.600000000
 20
0.000000000
 30
0.000000000
 11
514.600000000
 21
20.410000000
 31
0.000000000
  0
LINE
  5
AC9
330
A02
100
AcDbEntity
  8
Shape2DView001
100
AcDbLine
 10
222.400000000
 20
0.000000000
 30
0.000000000
 11
514.600000000
 21
0.000000000
 31
0.000000000
  0
LINE
  5
ACA
330
A02
100
AcDbEntity
  8
Shape2DView001
100
AcDbLine
 10
222.400000000
 20
20.410000000
 30
0.000000000
 11
222.400000000
 21
0.000000000
 31
0.000000000
  0
ARC
  5
ACB
330
A02
100
AcDbEntity
  8
Shape2DView001
100
AcDbCircle
 10
222.400000000
 20
20.570000000
 30
0.000000000
 40
0.160000000
100
AcDbArc
 50
-90.000000000
 51
90.000000000
  0
ARC
  5
ACC
330
A02
100
AcDbEntity
  8
Shape2DView001
100
AcDbCircle
 10
222.400000000
 20
20.570000000
 30
0.000000000
 40
0.160000000
100
AcDbArc
 50
90.000000000
 51
180.000000000
  0
LINE
  5
ACD
330
A02
100
AcDbEntity
  8
Shape2DView001
100
AcDbLine
 10
514.760000000
 20
20.570000000
 30
0.000000000
 11
517.000000000
 21
20.570000000
 31
0.000000000
  0
LINE
  5
ACE
330
A02
100
AcDbEntity
  8
Shape2DView001
100
AcDbLine
 10
222.240000000
 20
20.570000000
 30
0.000000000
 11
220.000000000
 21
20.570000000
 31
0.000000000
  0
LINE
  5
ACF
330
A02
100
AcDbEntity
  8
Shape2DView001
100
AcDbLine
 10
220.000000000
 20
20.570000000
 30
0.000000000
 11
220.000000000
 21
40.730000000
 31
0.000000000
  0
ARC
  5
AD0
330
A02
100
AcDbEntity
  8
Shape2DView001
100
AcDbCircle
 10
222.400000000
 20
40.730000000
 30
0.000000000
 40
0.160000000
100
AcDbArc
 50
180.000000000
 51
-90.000000000
  0
ARC
  5
AD1
330
A02
100
AcDbEntity
  8
Shape2DView001
100
AcDbCircle
 10
222.400000000
 20
40.730000000
 30
0.000000000
 40
0.160000000
100
AcDbArc
 50
-90.000000000
 51
90.000000000
  0
LINE
  5
AD2
330
A02
100
AcDbEntity
  8
Shape2DView001
100
AcDbLine
 10
222.400000000
 20
81.710000000
 30
0.000000000
 11
222.400000000
 21
40.890000000
 31
0.000000000
  0
ARC
  5
AD3
330
A02
100
AcDbEntity
  8
Shape2DView001
100
AcDbCircle
 10
222.400000000
 20
81.870000000
 30
0.000000000
 40
0.160000000
100
AcDbArc
 50
-90.000000000
 51
90.000000000
  0
ARC
  5
AD4
330
A02
100
AcDbEntity
  8
Shape2DView001
100
AcDbCircle
 10
222.400000000
 20
81.870000000
 30
0.000000000
 40
0.160000000
100
AcDbArc
 50
90.000000000
 51
180.000000000
  0
LINE
  5
AD5
330
A02
100
AcDbEntity
  8
Shape2DView001
100
AcDbLine
 10
222.240000000
 20
40.730000000
 30
0.000000000
 11
220.000000000
 21
40.730000000
 31
0.000000000
  0
LINE
  5
AD6
330
A02
100
AcDbEntity
  8
Shape2DView001
100
AcDbLine
 10
222.240000000
 20
81.870000000
 30
0.000000000
 11
220.000000000
 21
81.870000000
 31
0.000000000
  0
LINE
  5
AD7
330
A02
100
AcDbEntity
  8
Shape2DView001
100
AcDbLine
 10
220.000000000
 20
81.870000000
 30
0.000000000
 11
220.000000000
 21
102.030000000
 31
0.000000000
  0
ARC
  5
AD8
330
A02
100
AcDbEntity
  8
Shape2DView001
100
AcDbCircle
 10
222.400000000
 20
102.030000000
 30
0.000000000
 40
0.160000000
100
AcDbArc
 50
180.000000000
 51
-90.000000000
  0
ARC
  5
AD9
330
A02
100
AcDbEntity
  8
Shape2DView001
100
AcDbCircle
 10
222.400000000
 20
102.030000000
 30
0.000000000
 40
0.160000000
100
AcDbArc
 50
-90.000000000
 51
90.000000000
  0
LINE
  5
ADA
330
A02
100
AcDbEntity
  8
Shape2DView001
100
AcDbLine
 10
222.400000000
 20
143.010000000
 30
0.000000000
 11
222.400000000
 21
102.190000000
 31
0.000000000
  0
ARC
  5
ADB
330
A02
100
AcDbEntity
  8
Shape2DView001
100
AcDbCircle
 10
222.400000000
 20
143.170000000
 30
0.000000000
 40
0.160000000
100
AcDbArc
 50
-90.000000000
 51
90.000000000
  0
ARC
  5
ADC
330
A02
100
AcDbEntity
  8
Shape2DView001
100
AcDbCircle
 10
222.400000000
 20
143.170000000
 30
0.000000000
 40
0.160000000
100
AcDbArc
 50
90.000000000
 51
180.000000000
  0
LINE
  5
ADD
330
A02
100
AcDbEntity
  8
Shape2DView001
100
AcDbLine
 10
222.240000000
 20
102.030000000
 30
0.000000000
 11
220.000000000
 21
102.030000000
 31
0.000000000
  0
LINE
  5
ADE
330
A02
100
AcDbEntity
  8
Shape2DView001
100
AcDbLine
 10
222.240000000
 20
143.170000000
 30
0.000000000
 11
220.000000000
 21
143.170000000
 31
0.000000000
  0
LINE
  5
ADF
330
A02
100
AcDbEntity
  8
Shape2DView001
100
AcDbLine
 10
220.000000000
 20
143.170000000
 30
0.000000000
 11
220.000000000
 21
163.330000000
 31
0.000000000
  0
ARC
  5
AE0
330
A02
100
AcDbEntity
  8
Shape2DView001
100
AcDbCircle
 10
222.400000000
 20
163.330000000
 30
0.000000000
 40
0.160000000
100
AcDbArc
 50
180.000000000
 51
-90.000000000
  0
ARC
  5
AE1
330
A02
100
AcDbEntity
  8
Shape2DView001
100
AcDbCircle
 10
222.400000000
 20
163.330000000
 30
0.000000000
 40
0.160000000
100
AcDbArc
 50
-90.000000000
 51
90.000000000
  0
LINE
  5
AE2
330
A02
100
AcDbEntity
  8
Shape2DView001
100
AcDbLine
 10
222.400000000
 20
204.310000000
 30
0.000000000
 11
222.400000000
 21
163.490000000
 31
0.000000000
  0
ARC
  5
AE3
330
A02
100
AcDbEntity
  8
Shape2DView001
100
AcDbCircle
 10
222.400000000
 20
204.470000000
 30
0.000000000
 40
0.160000000
100
AcDbArc
 50
-90.000000000
 51
90.000000000
  0
ARC
  5
AE4
330
A02
100
AcDbEntity
  8
Shape2DView001
100
AcDbCircle
 10
222.400000000
 20
204.470000000
 30
0.000000000
 40
0.160000000
100
AcDbArc
 50
90.000000000
 51
180.000000000
  0
LINE
  5
AE5
330
A02
100
AcDbEntity
  8
Shape2DView001
100
AcDbLine
 10
222.240000000
 20
163.330000000
 30
0.000000000
 11
220.000000000
 21
163.330000000
 31
0.000000000
  0
LINE
  5
AE6
330
A02
100
AcDbEntity
  8
Shape2DView001
100
AcDbLine
 10
222.240000000
 20
204.470000000
 30
0.000000000
 11
220.000000000
 21
204.470000000
 31
0.000000000
  0
LINE
  5
AE7
330
A02
100
AcDbEntity
  8
Shape2DView001
100
AcDbLine
 10
220.000000000
 20
204.470000000
 30
0.000000000
 11
220.000000000
 21
224.630000000
 31
0.000000000
  0
LINE
  5
AE8
330
A02
100
AcDbEntity
  8
Shape2DView002
100
AcDbLine
 10
294.600000000
 20
307.000000000
 30
0.000000000
 11
2.400000000
 21
307.000000000
 31
0.000000000
  0
LINE
  5
AE9
330
A02
100
AcDbEntity
  8
Shape2DView002
100
AcDbLine
 10
294.600000000
 20
327.410000000
 30
0.000000000
 11
294.600000000
 21
307.000000000
 31
0.000000000
  0
LINE
  5
AEA
330
A02
100
AcDbEntity
  8
Shape2DView002
100
AcDbLine
 10
2.400000000
 20
307.000000000
 30
0.000000000
 11
2.400000000
 21
327.410000000
 31
0.000000000
  0
ARC
  5
AEB
330
A02
100
AcDbEntity
  8
Shape2DView002
100
AcDbCircle
 10
294.600000000
 20
327.570000000
 30
0.000000000
 40
0.160000000
100
AcDbArc
 50
0.000000000
 51
90.000000000
  0
ARC
  5
AEC
330
A02
100
AcDbEntity
  8
Shape2DView002
100
AcDbCircle
 10
294.600000000
 20
327.570000000
 30
0.000000000
 40
0.160000000
100
AcDbArc
 50
90.000000000
 51
-90.000000000
  0
ARC
  5
AED
330
A02
100
AcDbEntity
  8
Shape2DView002
100
AcDbCircle
 10
2.400000000
 20
327.570000000
 30
0.000000000
 40
0.160000000
100
AcDbArc
 50
-90.000000000
 51
90.000000000
  0
ARC
  5
AEE
330
A02
100
AcDbEntity
  8
Shape2DView002
100
AcDbCircle
 10
2.400000000
 20
327.570000000
 30
0.000000000
 40
0.160000000
100
AcDbArc
 50
90.000000000
 51
180.000000000
  0
LINE
  5
AEF
330
A02
100
AcDbEntity
  8
Shape2DView002
100
AcDbLine
 10
294.760000000
 20
327.570000000
 30
0.000000000
 11
297.000000000
 21
327.570000000
 31
0.000000000
  0
LINE
  5
AF0
330
A02
100
AcDbEntity
  8
Shape2DView002
100
AcDbLine
 10
2.240000000
 20
327.570000000
 30
0.000000000
 11
0.000000000
 21
327.570000000
 31
0.000000000
  0
LINE
  5
AF1
330
A02
100
AcDbEntity
  8
Shape2DView002
100
AcDbLine
 10
297.000000000
 20
327.570000000
 30
0.000000000
 11
297.000000000
 21
347.730000000
 31
0.000000000
  0
ARC
  5
AF2
330
A02
100
AcDbEntity
  8
Shape2DView002
100
AcDbCircle
 10
294.600000000
 20
347.730000000
 30
0.000000000
 40
0.160000000
100
AcDbArc
 50
90.000000000
 51
-90.000000000
  0
ARC
  5
AF3
330
A02
100
AcDbEntity
  8
Shape2DView002
100
AcDbCircle
 10
294.600000000
 20
347.730000000
 30
0.000000000
 40
0.160000000
100
AcDbArc
 50
-90.000000000
 51
0.000000000
  0
LINE
  5
AF4
330
A02
100
AcDbEntity
  8
Shape2DView002
100
AcDbLine
 10
294.600000000
 20
388.710000000
 30
0.000000000
 11
294.600000000
 21
347.890000000
 31
0.000000000
  0
ARC
  5
AF5
330
A02
100
AcDbEntity
  8
Shape2DView002
100
AcDbCircle
 10
294.600000000
 20
388.870000000
 30
0.000000000
 40
0.160000000
100
AcDbArc
 50
0.000000000
 51
90.000000000
  0
ARC
  5
AF6
330
A02
100
AcDbEntity
  8
Shape2DView002
100
AcDbCircle
 10
294.600000000
 20
388.870000000
 30
0.000000000
 40
0.160000000
100
AcDbArc
 50
90.000000000
 51
-90.000000000
  0
LINE
  5
AF7
330
A02
100
AcDbEntity
  8
Shape2DView002
100
AcDbLine
 10
294.760000000
 20
347.730000000
 30
0.000000000
 11
297.000000000
 21
347.730000000
 31
0.000000000
  0
LINE
  5
AF8
330
A02
100
AcDbEntity
  8
Shape2DView002
100
AcDbLine
 10
294.760000000
 20
388.870000000
 30
0.000000000
 11
297.000000000
 21
388.870000000
 31
0.000000000
  0
LINE
  5
AF9
330
A02
100
AcDbEntity
  8
Shape2DView002
100
AcDbLine
 10
297.000000000
 20
388.870000000
 30
0.000000000
 11
297.000000000
 21
409.030000000
 31
0.000000000
  0
ARC
  5
AFA
330
A02
100
AcDbEntity
  8
Shape2DView002
100
AcDbCircle
 10
294.600000000
 20
409.030000000
 30
0.000000000
 40
0.160000000
100
AcDbArc
 50
90.000000000
 51
-90.000000000
  0
ARC
  5
AFB
330
A02
100
AcDbEntity
  8
Shape2DView002
100
AcDbCircle
 10
294.600000000
 20
409.030000000
 30
0.000000000
 40
0.160000000
100
AcDbArc
 50
-90.000000000
 51
0.000000000
  0
LINE
  5
AFC
330
A02
100
AcDbEntity
  8
Shape2DView002
100
AcDbLine
 10
294.600000000
 20
450.010000000
 30
0.000000000
 11
294.600000000
 21
409.190000000
 31
0.000000000
  0
ARC
  5
AFD
330
A02
100
AcDbEntity
  8
Shape2DView002
100
AcDbCircle
 10
294.600000000
 20
450.170000000
 30
0.000000000
 40
0.160000000
100
AcDbArc
 50
0.000000000
 51
90.000000000
  0
ARC
  5
AFE
330
A02
100
AcDbEntity
  8
Shape2DView002
100
AcDbCircle
 10
294.600000000
 20
450.170000000
 30
0.000000000
 40
0.160000000
100
AcDbArc
 50
90.000000000
 51
-90.000000000
  0
LINE
  5
AFF
330
A02
100
AcDbEntity
  8
Shape2DView002
100
AcDbLine
 10
294.760000000
 20
409.030000000
 30
0.000000000
 11
297.000000000
 21
409.030000000
 31
0.000000000
  0
LINE
  5
B00
330
A02
100
AcDbEntity
  8
Shape2DView002
100
AcDbLine
 10
294.760000000
 20
450.170000000
 30
0.000000000
 11
297.000000000
 21
450.170000000
 31
0.000000000
  0
LINE
  5
B01
330
A02
100
AcDbEntity
  8
Shape2DView002
100
AcDbLine
 10
297.000000000
 20
450.170000000
 30
0.000000000
 11
297.000000000
 21
470.330000000
 31
0.000000000
  0
ARC
  5
B02
330
A02
100
AcDbEntity
  8
Shape2DView002
100
AcDbCircle
 10
294.600000000
 20
470.330000000
 30
0.000000000
 40
0.160000000
100
AcDbArc
 50
90.000000000
 51
-90.000000000
  0
ARC
  5
B03
330
A02
100
AcDbEntity
  8
Shape2DView002
100
AcDbCircle
 10
294.600000000
 20
470.330000000
 30
0.000000000
 40
0.160000000
100
AcDbArc
 50
-90.000000000
 51
0.000000000
  0
LINE
  5
B04
330
A02
100
AcDbEntity
  8
Shape2DView002
100
AcDbLine
 10
294.600000000
 20
511.310000000
 30
0.000000000
 11
294.600000000
 21
470.490000000
 31
0.000000000
  0
ARC
  5
B05
330
A02
100
AcDbEntity
  8
Shape2DView002
100
AcDbCircle
 10
294.600000000
 20
511.470000000
 30
0.000000000
 40
0.160000000
100
AcDbArc
 50
0.000000000
 51
90.000000000
  0
ARC
  5
B06
330
A02
100
AcDbEntity
  8
Shape2DView002
100
AcDbCircle
 10
294.600000000
 20
511.470000000
 30
0.000000000
 40
0.160000000
100
AcDbArc
 50
90.000000000
 51
-90.000000000
  0
LINE
  5
B07
330
A02
100
AcDbEntity
  8
Shape2DView002
100
AcDbLine
 10
294.760000000
 20
470.330000000
 30
0.000000000
 11
297.000000000
 21
470.330000000
 31
0.000000000
  0
LINE
  5
B08
330
A02
100
AcDbEntity
  8
Shape2DView002
100
AcDbLine
 10
294.760000000
 20
511.470000000
 30
0.000000000
 11
297.000000000
 21
511.470000000
 31
0.000000000
  0
LINE
  5
B09
330
A02
100
AcDbEntity
  8
Shape2DView002
100
AcDbLine
 10
297.000000000
 20
511.470000000
 30
0.000000000
 11
297.000000000
 21
531.630000000
 31
0.000000000
  0
ARC
  5
B0A
330
A02
100
AcDbEntity
  8
Shape2DView002
100
AcDbCircle
 10
294.600000000
 20
531.630000000
 30
0.000000000
 40
0.160000000
100
AcDbArc
 50
90.000000000
 51
-90.000000000
  0
ARC
  5
B0B
330
A02
100
AcDbEntity
  8
Shape2DView002
100
AcDbCircle
 10
294.600000000
 20
531.630000000
 30
0.000000000
 40
0.160000000
100
AcDbArc
 50
-90.000000000
 51
0.000000000
  0
LINE
  5
B0C
330
A02
100
AcDbEntity
  8
Shape2DView002
100
AcDbLine
 10
294.600000000
 20
552.200000000
 30
0.000000000
 11
294.600000000
 21
531.790000000
 31
0.000000000
  0
LINE
  5
B0D
330
A02
100
AcDbEntity
  8
Shape2DView002
100
AcDbLine
 10
268.315000000
 20
552.200000000
 30
0.000000000
 11
294.600000000
 21
552.200000000
 31
0.000000000
  0
ARC
  5
B0E
330
A02
100
AcDbEntity
  8
Shape2DView002
100
AcDbCircle
 10
268.155000000
 20
552.200000000
 30
0.000000000
 40
0.160000000
100
AcDbArc
 50
90.000000000
 51
180.000000000
  0
ARC
  5
B0F
330
A02
100
AcDbEntity
  8
Shape2DView002
100
AcDbCircle
 10
268.155000000
 20
552.200000000
 30
0.000000000
 40
0.160000000
100
AcDbArc
 50
180.000000000
 51
0.000000000
  0
LINE
  5
B10
330
A02
100
AcDbEntity
  8
Shape2DView002
100
AcDbLine
 10
294.760000000
 20
531.630000000
 30
0.000000000
 11
297.000000000
 21
531.630000000
 31
0.000000000
  0
LINE
  5
B11
330
A02
100
AcDbEntity
  8
Shape2DView002
100
AcDbLine
 10
268.155000000
 20
552.360000000
 30
0.000000000
 11
268.155000000
 21
554.600000000
 31
0.000000000
  0
LINE
  5
B12
330
A02
100
AcDbEntity
  8
Shape2DView002
100
AcDbLine
 10
268.155000000
 20
554.600000000
 30
0.000000000
 11
247.995000000
 21
554.600000000
 31
0.000000000
  0
ARC
  5
B13
330
A02
100
AcDbEntity
  8
Shape2DView002
100
AcDbCircle
 10
247.995000000
 20
552.200000000
 30
0.000000000
 40
0.160000000
100
AcDbArc
 50
180.000000000
 51
0.000000000
  0
ARC
  5
B14
330
A02
100
AcDbEntity
  8
Shape2DView002
100
AcDbCircle
 10
247.995000000
 20
552.200000000
 30
0.000000000
 40
0.160000000
100
AcDbArc
 50
0.000000000
 51
90.000000000
  0
LINE
  5
B15
330
A02
100
AcDbEntity
  8
Shape2DView002
100
AcDbLine
 10
195.265000000
 20
552.200000000
 30
0.000000000
 11
247.835000000
 21
552.200000000
 31
0.000000000
  0
ARC
  5
B16
330
A02
100
AcDbEntity
  8
Shape2DView002
100
AcDbCircle
 10
195.105000000
 20
552.200000000
 30
0.000000000
 40
0.160000000
100
AcDbArc
 50
90.000000000
 51
180.000000000
  0
ARC
  5
B17
330
A02
100
AcDbEntity
  8
Shape2DView002
100
AcDbCircle
 10
195.105000000
 20
552.200000000
 30
0.000000000
 40
0.160000000
100
AcDbArc
 50
180.000000000
 51
0.000000000
  0
LINE
  5
B18
330
A02
100
AcDbEntity
  8
Shape2DView002
100
AcDbLine
 10
247.995000000
 20
552.360000000
 30
0.000000000
 11
247.995000000
 21
554.600000000
 31
0.000000000
  0
LINE
  5
B19
330
A02
100
AcDbEntity
  8
Shape2DView002
100
AcDbLine
 10
195.105000000
 20
552.360000000
 30
0.000000000
 11
195.105000000
 21
554.600000000
 31
0.000000000
  0
LINE
  5
B1A
330
A02
100
AcDbEntity
  8
Shape2DView002
100
AcDbLine
 10
195.105000000
 20
554.600000000
 30
0.000000000
 11
174.945000000
 21
554.600000000
 31
0.000000000
  0
ARC
  5
B1B
330
A02
100
AcDbEntity
  8
Shape2DView002
100
AcDbCircle
 10
174.945000000
 20
552.200000000
 30
0.000000000
 40
0.160000000
100
AcDbArc
 50
180.000000000
 51
0.000000000
  0
ARC
  5
B1C
330
A02
100
AcDbEntity
  8
Shape2DView002
100
AcDbCircle
 10
174.945000000
 20
552.200000000
 30
0.000000000
 40
0.160000000
100
AcDbArc
 50
0.000000000
 51
90.000000000
  0
LINE
  5
B1D
330
A02
100
AcDbEntity
  8
Shape2DView002
100
AcDbLine
 10
122.215000000
 20
552.200000000
 30
0.000000000
 11
174.785000000
 21
552.200000000
 31
0.000000000
  0
ARC
  5
B1E
330
A02
100
AcDbEntity
  8
Shape2DView002
100
AcDbCircle
 10
122.055000000
 20
552.200000000
 30
0.000000000
 40
0.160000000
100
AcDbArc
 50
90.000000000
 51
180.000000000
  0
ARC
  5
B1F
330
A02
100
AcDbEntity
  8
Shape2DView002
100
AcDbCircle
 10
122.055000000
 20
552.200000000
 30
0.000000000
 40
0.160000000
100
AcDbArc
 50
180.000000000
 51
0.000000000
  0
LINE
  5
B20
330
A02
100
AcDbEntity
  8
Shape2DView002
100
AcDbLine
 10
174.945000000
 20
552.360000000
 30
0.000000000
 11
174.945000000
 21
554.600000000
 31
0.000000000
  0
LINE
  5
B21
330
A02
100
AcDbEntity
  8
Shape2DView002
100
AcDbLine
 10
122.055000000
 20
552.360000000
 30
0.000000000
 11
122.055000000
 21
554.600000000
 31
0.000000000
  0
LINE
  5
B22
330
A02
100
AcDbEntity
  8
Shape2DView002
100
AcDbLine
 10
122.055000000
 20
554.600000000
 30
0.000000000
 11
101.895000000
 21
554.600000000
 31
0.000000000
  0
ARC
  5
B23
330
A02
100
AcDbEntity
  8
Shape2DView002
100
AcDbCircle
 10
101.895000000
 20
552.200000000
 30
0.000000000
 40
0.160000000
100
AcDbArc
 50
180.000000000
 51
0.000000000
  0
ARC
  5
B24
330
A02
100
AcDbEntity
  8
Shape2DView002
100
AcDbCircle
 10
101.895000000
 20
552.200000000
 30
0.000000000
 40
0.160000000
100
AcDbArc
 50
0.000000000
 51
90.000000000
  0
LINE
  5
B25
330
A02
100
AcDbEntity
  8
Shape2DView002
100
AcDbLine
 10
49.165000000
 20
552.200000000
 30
0.000000000
 11
101.735000000
 21
552.200000000
 31
0.000000000
  0
ARC
  5
B26
330
A02
100
AcDbEntity
  8
Shape2DView002
100
AcDbCircle
 10
49.005000000
 20
552.200000000
 30
0.000000000
 40
0.160000000
100
AcDbArc
 50
90.000000000
 51
180.000000000
  0
ARC
  5
B27
330
A02
100
AcDbEntity
  8
Shape2DView002
100
AcDbCircle
 10
49.005000000
 20
552.200000000
 30
0.000000000
 40
0.160000000
100
AcDbArc
 50
180.000000000
 51
0.000000000
  0
LINE
  5
B28
330
A02
100
AcDbEntity
  8
Shape2DView002
100
AcDbLine
 10
101.895000000
 20
552.360000000
 30
0.000000000
 11
101.895000000
 21
554.600000000
 31
0.000000000
  0
LINE
  5
B29
330
A02
100
AcDbEntity
  8
Shape2DView002
100
AcDbLine
 10
49.005000000
 20
552.360000000
 30
0.000000000
 11
49.005000000
 21
554.600000000
 31
0.000000000
  0
LINE
  5
B2A
330
A02
100
AcDbEntity
  8
Shape2DView002
100
AcDbLine
 10
49.005000000
 20
554.600000000
 30
0.000000000
 11
28.845000000
 21
554.600000000
 31
0.000000000
  0
ARC
  5
B2B
330
A02
100
AcDbEntity
  8
Shape2DView002
100
AcDbCircle
 10
28.845000000
 20
552.200000000
 30
0.000000000
 40
0.160000000
100
AcDbArc
 50
180.000000000
 51
0.000000000
  0
ARC
  5
B2C
330
A02
100
AcDbEntity
  8
Shape2DView002
100
AcDbCircle
 10
28.845000000
 20
552.200000000
 30
0.000000000
 40
0.160000000
100
AcDbArc
 50
0.000000000
 51
90.000000000
  0
LINE
  5
B2D
330
A02
100
AcDbEntity
  8
Shape2DView002
100
AcDbLine
 10
2.400000000
 20
552.200000000
 30
0.000000000
 11
28.685000000
 21
552.200000000
 31
0.000000000
  0
LINE
  5
B2E
330
A02
100
AcDbEntity
  8
Shape2DView002
100
AcDbLine
 10
2.400000000
 20
531.790000000
 30
0.000000000
 11
2.400000000
 21
552.200000000
 31
0.000000000
  0
ARC
  5
B2F
330
A02
100
AcDbEntity
  8
Shape2DView002
100
AcDbCircle
 10
2.400000000
 20
531.630000000
 30
0.000000000
 40
0.160000000
100
AcDbArc
 50
180.000000000
 51
-90.000000000
  0
ARC
  5
B30
330
A02
100
AcDbEntity
  8
Shape2DView002
100
AcDbCircle
 10
2.400000000
 20
531.630000000
 30
0.000000000
 40
0.160000000
100
AcDbArc
 50
-90.000000000
 51
90.000000000
  0
LINE
  5
B31
330
A02
100
AcDbEntity
  8
Shape2DView002
100
AcDbLine
 10
28.845000000
 20
552.360000000
 30
0.000000000
 11
28.845000000
 21
554.600000000
 31
0.000000000
  0
LINE
  5
B32
330
A02
100
AcDbEntity
  8
Shape2DView002
100
AcDbLine
 10
2.240000000
 20
531.630000000
 30
0.000000000
 11
0.000000000
 21
531.630000000
 31
0.000000000
  0
LINE
  5
B33
330
A02
100
AcDbEntity
  8
Shape2DView002
100
AcDbLine
 10
0.000000000
 20
531.630000000
 30
0.000000000
 11
0.000000000
 21
511.470000000
 31
0.000000000
  0
ARC
  5
B34
330
A02
100
AcDbEntity
  8
Shape2DView002
100
AcDbCircle
 10
2.400000000
 20
511.470000000
 30
0.000000000
 40
0.160000000
100
AcDbArc
 50
-90.000000000
 51
90.000000000
  0
ARC
  5
B35
330
A02
100
AcDbEntity
  8
Shape2DView002
100
AcDbCircle
 10
2.400000000
 20
511.470000000
 30
0.000000000
 40
0.160000000
100
AcDbArc
 50
90.000000000
 51
180.000000000
  0
LINE
  5
B36
330
A02
100
AcDbEntity
  8
Shape2DView002
100
AcDbLine
 10
2.400000000
 20
470.490000000
 30
0.000000000
 11
2.400000000
 21
511.310000000
 31
0.000000000
  0
ARC
  5
B37
330
A02
100
AcDbEntity
  8
Shape2DView002
100
AcDbCircle
 10
2.400000000
 20
470.330000000
 30
0.000000000
 40
0.160000000
100
AcDbArc
 50
180.000000000
 51
-90.000000000
  0
ARC
  5
B38
330
A02
100
AcDbEntity
  8
Shape2DView002
100
AcDbCircle
 10
2.400000000
 20
470.330000000
 30
0.000000000
 40
0.160000000
100
AcDbArc
 50
-90.000000000
 51
90.000000000
  0
LINE
  5
B39
330
A02
100
AcDbEntity
  8
Shape2DView002
100
AcDbLine
 10
2.240000000
 20
511.470000000
 30
0.000000000
 11
0.000000000
 21
511.470000000
 31
0.000000000
  0
LINE
  5
B3A
330
A02
100
AcDbEntity
  8
Shape2DView002
100
AcDbLine
 10
2.240000000
 20
470.330000000
 30
0.000000000
 11
0.000000000
 21
470.330000000
 31
0.000000000
  0
LINE
  5
B3B
330
A02
100
AcDbEntity
  8
Shape2DView002
100
AcDbLine
 10
0.000000000
 20
470.330000000
 30
0.000000000
 11
0.000000000
 21
450.170000000
 31
0.000000000
  0
ARC
  5
B3C
330
A02
100
AcDbEntity
  8
Shape2DView002
100
AcDbCircle
 10
2.400000000
 20
450.170000000
 30
0.000000000
 40
0.160000000
100
AcDbArc
 50
-90.000000000
 51
90.000000000
  0
ARC
  5
B3D
330
A02
100
AcDbEntity
  8
Shape2DView002
100
AcDbCircle
 10
2.400000000
 20
450.170000000
 30
0.000000000
 40
0.160000000
100
AcDbArc
 50
90.000000000
 51
180.000000000
  0
LINE
  5
B3E
330
A02
100
AcDbEntity
  8
Shape2DView002
100
AcDbLine
 10
2.400000000
 20
409.190000000
 30
0.000000000
 11
2.400000000
 21
450.010000000
 31
0.000000000
  0
ARC
  5
B3F
330
A02
100
AcDbEntity
  8
Shape2DView002
100
AcDbCircle
 10
2.400000000
 20
409.030000000
 30
0.000000000
 40
0.160000000
100
AcDbArc
 50
180.000000000
 51
-90.000000000
  0
ARC
  5
B40
330
A02
100
AcDbEntity
  8
Shape2DView002
100
AcDbCircle
 10
2.400000000
 20
409.030000000
 30
0.000000000
 40
0.160000000
100
AcDbArc
 50
-90.000000000
 51
90.000000000
  0
LINE
  5
B41
330
A02
100
AcDbEntity
  8
Shape2DView002
100
AcDbLine
 10
2.240000000
 20
450.170000000
 30
0.000000000
 11
0.000000000
 21
450.170000000
 31
0.000000000
  0
LINE
  5
B42
330
A02
100
AcDbEntity
  8
Shape2DView002
100
AcDbLine
 10
2.240000000
 20
409.030000000
 30
0.000000000
 11
0.000000000
 21
409.030000000
 31
0.000000000
  0
LINE
  5
B43
330
A02
100
AcDbEntity
  8
Shape2DView002
100
AcDbLine
 10
0.000000000
 20
409.030000000
 30
0.000000000
 11
0.000000000
 21
388.870000000
 31
0.000000000
  0
ARC
  5
B44
330
A02
100
AcDbEntity
  8
Shape2DView002
100
AcDbCircle
 10
2.400000000
 20
388.870000000
 30
0.000000000
 40
0.160000000
100
AcDbArc
 50
-90.000000000
 51
90.000000000
  0
ARC
  5
B45
330
A02
100
AcDbEntity
  8
Shape2DView002
100
AcDbCircle
 10
2.400000000
 20
388.870000000
 30
0.000000000
 40
0.160000000
100
AcDbArc
 50
90.000000000
 51
180.000000000
  0
LINE
  5
B46
330
A02
100
AcDbEntity
  8
Shape2DView002
100
AcDbLine
 10
2.400000000
 20
347.890000000
 30
0.000000000
 11
2.400000000
 21
388.710000000
 31
0.000000000
  0
ARC
  5
B47
330
A02
100
AcDbEntity
  8
Shape2DView002
100
AcDbCircle
 10
2.400000000
 20
347.730000000
 30
0.000000000
 40
0.160000000
100
AcDbArc
 50
180.000000000
 51
-90.000000000
  0
ARC
  5
B48
330
A02
100
AcDbEntity
  8
Shape2DView002
100
AcDbCircle
 10
2.400000000
 20
347.730000000
 30
0.000000000
 40
0.160000000
100
AcDbArc
 50
-90.000000000
 51
90.000000000
  0
LINE
  5
B49
330
A02
100
AcDbEntity
  8
Shape2DView002
100
AcDbLine
 10
2.240000000
 20
388.870000000
 30
0.000000000
 11
0.000000000
 21
388.870000000
 31
0.000000000
  0
LINE
  5
B4A
330
A02
100
AcDbEntity
  8
Shape2DView002
100
AcDbLine
 10
2.240000000
 20
347.730000000
 30
0.000000000
 11
0.000000000
 21
347.730000000
 31
0.000000000
  0
LINE
  5
B4B
330
A02
100
AcDbEntity
  8
Shape2DView002
100
AcDbLine
 10
0.000000000
 20
347.730000000
 30
0.000000000
 11
0.000000000
 21
327.570000000
 31
0.000000000
  0
LINE
  5
B4C
330
A02
100
AcDbEntity
  8
Shape2DView003
100
AcDbLine
 10
307.000000000
 20
554.600000000
 30
0.000000000
 11
307.000000000
 21
531.470000000
 31
0.000000000
  0
LINE
  5
B4D
330
A02
100
AcDbEntity
  8
Shape2DView003
100
AcDbLine
 10
323.330000000
 20
554.600000000
 30
0.000000000
 11
307.000000000
 21
554.600000000
 31
0.000000000
  0
LINE
  5
B4E
330
A02
100
AcDbEntity
  8
Shape2DView003
100
AcDbLine
 10
323.330000000
 20
552.393135002
 30
0.000000000
 11
323.330000000
 21
554.600000000
 31
0.000000000
  0
ARC
  5
B4F
330
A02
100
AcDbEntity
  8
Shape2DView003
100
AcDbCircle
 10
323.415333333
 20
552.245333333
 30
0.000000000
 40
0.170666667
100
AcDbArc
 50
120.000000000
 51
-30.000000000
  0
LINE
  5
B50
330
A02
100
AcDbEntity
  8
Shape2DView003
100
AcDbLine
 10
323.563135002
 20
552.160000000
 30
0.000000000
 11
342.936864998
 21
552.160000000
 31
0.000000000
  0
ARC
  5
B51
330
A02
100
AcDbEntity
  8
Shape2DView003
100
AcDbCircle
 10
343.084666667
 20
552.245333333
 30
0.000000000
 40
0.170666667
100
AcDbArc
 50
-150.000000000
 51
60.000000000
  0
LINE
  5
B52
330
A02
100
AcDbEntity
  8
Shape2DView003
100
AcDbLine
 10
343.170000000
 20
552.393135002
 30
0.000000000
 11
343.170000000
 21
554.600000000
 31
0.000000000
  0
LINE
  5
B53
330
A02
100
AcDbEntity
  8
Shape2DView003
100
AcDbLine
 10
375.830000000
 20
554.600000000
 30
0.000000000
 11
343.170000000
 21
554.600000000
 31
0.000000000
  0
LINE
  5
B54
330
A02
100
AcDbEntity
  8
Shape2DView003
100
AcDbLine
 10
375.830000000
 20
552.393135002
 30
0.000000000
 11
375.830000000
 21
554.600000000
 31
0.000000000
  0
ARC
  5
B55
330
A02
100
AcDbEntity
  8
Shape2DView003
100
AcDbCircle
 10
375.915333333
 20
552.245333333
 30
0.000000000
 40
0.170666667
100
AcDbArc
 50
120.000000000
 51
-30.000000000
  0
LINE
  5
B56
330
A02
100
AcDbEntity
  8
Shape2DView003
100
AcDbLine
 10
376.063135002
 20
552.160000000
 30
0.000000000
 11
395.436864998
 21
552.160000000
 31
0.000000000
  0
ARC
  5
B57
330
A02
100
AcDbEntity
  8
Shape2DView003
100
AcDbCircle
 10
395.584666667
 20
552.245333333
 30
0.000000000
 40
0.170666667
100
AcDbArc
 50
-150.000000000
 51
60.000000000
  0
LINE
  5
B58
330
A02
100
AcDbEntity
  8
Shape2DView003
100
AcDbLine
 10
395.670000000
 20
552.393135002
 30
0.000000000
 11
395.670000000
 21
554.600000000
 31
0.000000000
  0
LINE
  5
B59
330
A02
100
AcDbEntity
  8
Shape2DView003
100
AcDbLine
 10
428.330000000
 20
554.600000000
 30
0.000000000
 11
395.670000000
 21
554.600000000
 31
0.000000000
  0
LINE
  5
B5A
330
A02
100
AcDbEntity
  8
Shape2DView003
100
AcDbLine
 10
428.330000000
 20
552.393135002
 30
0.000000000
 11
428.330000000
 21
554.600000000
 31
0.000000000
  0
ARC
  5
B5B
330
A02
100
AcDbEntity
  8
Shape2DView003
100
AcDbCircle
 10
428.415333333
 20
552.245333333
 30
0.000000000
 40
0.170666667
100
AcDbArc
 50
120.000000000
 51
-30.000000000
  0
LINE
  5
B5C
330
A02
100
AcDbEntity
  8
Shape2DView003
100
AcDbLine
 10
428.563135002
 20
552.160000000
 30
0.000000000
 11
447.936864998
 21
552.160000000
 31
0.000000000
  0
ARC
  5
B5D
330
A02
100
AcDbEntity
  8
Shape2DView003
100
AcDbCircle
 10
448.084666667
 20
552.245333333
 30
0.000000000
 40
0.170666667
100
AcDbArc
 50
-150.000000000
 51
60.000000000
  0
LINE
  5
B5E
330
A02
100
AcDbEntity
  8
Shape2DView003
100
AcDbLine
 10
448.170000000
 20
552.393135002
 30
0.000000000
 11
448.170000000
 21
554.600000000
 31
0.000000000
  0
LINE
  5
B5F
330
A02
100
AcDbEntity
  8
Shape2DView003
100
AcDbLine
 10
480.830000000
 20
554.600000000
 30
0.000000000
 11
448.170000000
 21
554.600000000
 31
0.000000000
  0
LINE
  5
B60
330
A02
100
AcDbEntity
  8
Shape2DView003
100
AcDbLine
 10
480.830000000
 20
552.393135002
 30
0.000000000
 11
480.830000000
 21
554.600000000
 31
0.000000000
  0
ARC
  5
B61
330
A02
100
AcDbEntity
  8
Shape2DView003
100
AcDbCircle
 10
480.915333333
 20
552.245333333
 30
0.000000000
 40
0.170666667
100
AcDbArc
 50
120.000000000
 51
-30.000000000
  0
LINE
  5
B62
330
A02
100
AcDbEntity
  8
Shape2DView003
100
AcDbLine
 10
481.063135002
 20
552.160000000
 30
0.000000000
 11
500.436864998
 21
552.160000000
 31
0.000000000
  0
ARC
  5
B63
330
A02
100
AcDbEntity
  8
Shape2DView003
100
AcDbCircle
 10
500.584666667
 20
552.245333333
 30
0.000000000
 40
0.170666667
100
AcDbArc
 50
-150.000000000
 51
60.000000000
  0
LINE
  5
B64
330
A02
100
AcDbEntity
  8
Shape2DView003
100
AcDbLine
 10
500.670000000
 20
552.393135002
 30
0.000000000
 11
500.670000000
 21
554.600000000
 31
0.000000000
  0
LINE
  5
B65
330
A02
100
AcDbEntity
  8
Shape2DView003
100
AcDbLine
 10
517.000000000
 20
554.600000000
 30
0.000000000
 11
500.670000000
 21
554.600000000
 31
0.000000000
  0
LINE
  5
B66
330
A02
100
AcDbEntity
  8
Shape2DView003
100
AcDbLine
 10
517.000000000
 20
531.470000000
 30
0.000000000
 11
517.000000000
 21
554.600000000
 31
0.000000000
  0
LINE
  5
B67
330
A02
100
AcDbEntity
  8
Shape2DView003
100
AcDbLine
 10
517.000000000
 20
531.470000000
 30
0.000000000
 11
514.793135002
 21
531.470000000
 31
0.000000000
  0
ARC
  5
B68
330
A02
100
AcDbEntity
  8
Shape2DView003
100
AcDbCircle
 10
514.645333333
 20
531.384666667
 30
0.000000000
 40
0.170666667
100
AcDbArc
 50
30.000000000
 51
180.000000000
  0
ARC
  5
B69
330
A02
100
AcDbEntity
  8
Shape2DView003
100
AcDbCircle
 10
514.645333333
 20
531.384666667
 30
0.000000000
 40
0.170666667
100
AcDbArc
 50
180.000000000
 51
-120.000000000
  0
LINE
  5
B6A
330
A02
100
AcDbEntity
  8
Shape2DView003
100
AcDbLine
 10
514.560000000
 20
511.863135002
 30
0.000000000
 11
514.560000000
 21
531.236864998
 31
0.000000000
  0
ARC
  5
B6B
330
A02
100
AcDbEntity
  8
Shape2DView003
100
AcDbCircle
 10
514.645333333
 20
511.715333333
 30
0.000000000
 40
0.170666667
100
AcDbArc
 50
120.000000000
 51
180.000000000
  0
ARC
  5
B6C
330
A02
100
AcDbEntity
  8
Shape2DView003
100
AcDbCircle
 10
514.645333333
 20
511.715333333
 30
0.000000000
 40
0.170666667
100
AcDbArc
 50
180.000000000
 51
-30.000000000
  0
LINE
  5
B6D
330
A02
100
AcDbEntity
  8
Shape2DView003
100
AcDbLine
 10
517.000000000
 20
511.630000000
 30
0.000000000
 11
514.793135002
 21
511.630000000
 31
0.000000000
  0
LINE
  5
B6E
330
A02
100
AcDbEntity
  8
Shape2DView003
100
AcDbLine
 10
517.000000000
 20
470.170000000
 30
0.000000000
 11
517.000000000
 21
511.630000000
 31
0.000000000
  0
LINE
  5
B6F
330
A02
100
AcDbEntity
  8
Shape2DView003
100
AcDbLine
 10
517.000000000
 20
470.170000000
 30
0.000000000
 11
514.793135002
 21
470.170000000
 31
0.000000000
  0
ARC
  5
B70
330
A02
100
AcDbEntity
  8
Shape2DView003
100
AcDbCircle
 10
514.645333333
 20
470.084666667
 30
0.000000000
 40
0.170666667
100
AcDbArc
 50
30.000000000
 51
180.000000000
  0
ARC
  5
B71
330
A02
100
AcDbEntity
  8
Shape2DView003
100
AcDbCircle
 10
514.645333333
 20
470.084666667
 30
0.000000000
 40
0.170666667
100
AcDbArc
 50
180.000000000
 51
-120.000000000
  0
LINE
  5
B72
330
A02
100
AcDbEntity
  8
Shape2DView003
100
AcDbLine
 10
514.560000000
 20
450.563135002
 30
0.000000000
 11
514.560000000
 21
469.936864998
 31
0.000000000
  0
ARC
  5
B73
330
A02
100
AcDbEntity
  8
Shape2DView003
100
AcDbCircle
 10
514.645333333
 20
450.415333333
 30
0.000000000
 40
0.170666667
100
AcDbArc
 50
120.000000000
 51
180.000000000
  0
ARC
  5
B74
330
A02
100
AcDbEntity
  8
Shape2DView003
100
AcDbCircle
 10
514.645333333
 20
450.415333333
 30
0.000000000
 40
0.170666667
100
AcDbArc
 50
180.000000000
 51
-30.000000000
  0
LINE
  5
B75
330
A02
100
AcDbEntity
  8
Shape2DView003
100
AcDbLine
 10
517.000000000
 20
450.330000000
 30
0.000000000
 11
514.793135002
 21
450.330000000
 31
0.000000000
  0
LINE
  5
B76
330
A02
100
AcDbEntity
  8
Shape2DView003
100
AcDbLine
 10
517.000000000
 20
408.870000000
 30
0.000000000
 11
517.000000000
 21
450.330000000
 31
0.000000000
  0
LINE
  5
B77
330
A02
100
AcDbEntity
  8
Shape2DView003
100
AcDbLine
 10
517.000000000
 20
408.870000000
 30
0.000000000
 11
514.793135002
 21
408.870000000
 31
0.000000000
  0
ARC
  5
B78
330
A02
100
AcDbEntity
  8
Shape2DView003
100
AcDbCircle
 10
514.645333333
 20
408.784666667
 30
0.000000000
 40
0.170666667
100
AcDbArc
 50
30.000000000
 51
180.000000000
  0
ARC
  5
B79
330
A02
100
AcDbEntity
  8
Shape2DView003
100
AcDbCircle
 10
514.645333333
 20
408.784666667
 30
0.000000000
 40
0.170666667
100
AcDbArc
 50
180.000000000
 51
-120.000000000
  0
LINE
  5
B7A
330
A02
100
AcDbEntity
  8
Shape2DView003
100
AcDbLine
 10
514.560000000
 20
389.263135002
 30
0.000000000
 11
514.560000000
 21
408.636864998
 31
0.000000000
  0
ARC
  5
B7B
330
A02
100
AcDbEntity
  8
Shape2DView003
100
AcDbCircle
 10
514.645333333
 20
389.115333333
 30
0.000000000
 40
0.170666667
100
AcDbArc
 50
120.000000000
 51
180.000000000
  0
ARC
  5
B7C
330
A02
100
AcDbEntity
  8
Shape2DView003
100
AcDbCircle
 10
514.645333333
 20
389.115333333
 30
0.000000000
 40
0.170666667
100
AcDbArc
 50
180.000000000
 51
-30.000000000
  0
LINE
  5
B7D
330
A02
100
AcDbEntity
  8
Shape2DView003
100
AcDbLine
 10
517.000000000
 20
389.030000000
 30
0.000000000
 11
514.793135002
 21
389.030000000
 31
0.000000000
  0
LINE
  5
B7E
330
A02
100
AcDbEntity
  8
Shape2DView003
100
AcDbLine
 10
517.000000000
 20
347.570000000
 30
0.000000000
 11
517.000000000
 21
389.030000000
 31
0.000000000
  0
LINE
  5
B7F
330
A02
100
AcDbEntity
  8
Shape2DView003
100
AcDbLine
 10
517.000000000
 20
347.570000000
 30
0.000000000
 11
514.793135002
 21
347.570000000
 31
0.000000000
  0
ARC
  5
B80
330
A02
100
AcDbEntity
  8
Shape2DView003
100
AcDbCircle
 10
514.645333333
 20
347.484666667
 30
0.000000000
 40
0.170666667
100
AcDbArc
 50
30.000000000
 51
180.000000000
  0
ARC
  5
B81
330
A02
100
AcDbEntity
  8
Shape2DView003
100
AcDbCircle
 10
514.645333333
 20
347.484666667
 30
0.000000000
 40
0.170666667
100
AcDbArc
 50
180.000000000
 51
-120.000000000
  0
LINE
  5
B82
330
A02
100
AcDbEntity
  8
Shape2DView003
100
AcDbLine
 10
514.560000000
 20
327.963135002
 30
0.000000000
 11
514.560000000
 21
347.336864998
 31
0.000000000
  0
ARC
  5
B83
330
A02
100
AcDbEntity
  8
Shape2DView003
100
AcDbCircle
 10
514.645333333
 20
327.815333333
 30
0.000000000
 40
0.170666667
100
AcDbArc
 50
120.000000000
 51
180.000000000
  0
ARC
  5
B84
330
A02
100
AcDbEntity
  8
Shape2DView003
100
AcDbCircle
 10
514.645333333
 20
327.815333333
 30
0.000000000
 40
0.170666667
100
AcDbArc
 50
180.000000000
 51
-30.000000000
  0
LINE
  5
B85
330
A02
100
AcDbEntity
  8
Shape2DView003
100
AcDbLine
 10
517.000000000
 20
327.730000000
 30
0.000000000
 11
514.793135002
 21
327.730000000
 31
0.000000000
  0
LINE
  5
B86
330
A02
100
AcDbEntity
  8
Shape2DView003
100
AcDbLine
 10
517.000000000
 20
307.000000000
 30
0.000000000
 11
517.000000000
 21
327.730000000
 31
0.000000000
  0
LINE
  5
B87
330
A02
100
AcDbEntity
  8
Shape2DView003
100
AcDbLine
 10
307.000000000
 20
307.000000000
 30
0.000000000
 11
517.000000000
 21
307.000000000
 31
0.000000000
  0
LINE
  5
B88
330
A02
100
AcDbEntity
  8
Shape2DView003
100
AcDbLine
 10
307.000000000
 20
327.730000000
 30
0.000000000
 11
307.000000000
 21
307.000000000
 31
0.000000000
  0
LINE
  5
B89
330
A02
100
AcDbEntity
  8
Shape2DView003
100
AcDbLine
 10
309.206864998
 20
327.730000000
 30
0.000000000
 11
307.000000000
 21
327.730000000
 31
0.000000000
  0
ARC
  5
B8A
330
A02
100
AcDbEntity
  8
Shape2DView003
100
AcDbCircle
 10
309.354666667
 20
327.815333333
 30
0.000000000
 40
0.170666667
100
AcDbArc
 50
-150.000000000
 51
60.000000000
  0
LINE
  5
B8B
330
A02
100
AcDbEntity
  8
Shape2DView003
100
AcDbLine
 10
309.440000000
 20
327.963135002
 30
0.000000000
 11
309.440000000
 21
347.336864998
 31
0.000000000
  0
ARC
  5
B8C
330
A02
100
AcDbEntity
  8
Shape2DView003
100
AcDbCircle
 10
309.354666667
 20
347.484666667
 30
0.000000000
 40
0.170666667
100
AcDbArc
 50
-60.000000000
 51
150.000000000
  0
LINE
  5
B8D
330
A02
100
AcDbEntity
  8
Shape2DView003
100
AcDbLine
 10
309.206864998
 20
347.570000000
 30
0.000000000
 11
307.000000000
 21
347.570000000
 31
0.000000000
  0
LINE
  5
B8E
330
A02
100
AcDbEntity
  8
Shape2DView003
100
AcDbLine
 10
307.000000000
 20
389.030000000
 30
0.000000000
 11
307.000000000
 21
347.570000000
 31
0.000000000
  0
LINE
  5
B8F
330
A02
100
AcDbEntity
  8
Shape2DView003
100
AcDbLine
 10
309.206864998
 20
389.030000000
 30
0.000000000
 11
307.000000000
 21
389.030000000
 31
0.000000000
  0
ARC
  5
B90
330
A02
100
AcDbEntity
  8
Shape2DView003
100
AcDbCircle
 10
309.354666667
 20
389.115333333
 30
0.000000000
 40
0.170666667
100
AcDbArc
 50
-150.000000000
 51
60.000000000
  0
LINE
  5
B91
330
A02
100
AcDbEntity
  8
Shape2DView003
100
AcDbLine
 10
309.440000000
 20
389.263135002
 30
0.000000000
 11
309.440000000
 21
408.636864998
 31
0.000000000
  0
ARC
  5
B92
330
A02
100
AcDbEntity
  8
Shape2DView003
100
AcDbCircle
 10
309.354666667
 20
408.784666667
 30
0.000000000
 40
0.170666667
100
AcDbArc
 50
-60.000000000
 51
150.000000000
  0
LINE
  5
B93
330
A02
100
AcDbEntity
  8
Shape2DView003
100
AcDbLine
 10
309.206864998
 20
408.870000000
 30
0.000000000
 11
307.000000000
 21
408.870000000
 31
0.000000000
  0
LINE
  5
B94
330
A02
100
AcDbEntity
  8
Shape2DView003
100
AcDbLine
 10
307.000000000
 20
450.330000000
 30
0.000000000
 11
307.000000000
 21
408.870000000
 31
0.000000000
  0
LINE
  5
B95
330
A02
100
AcDbEntity
  8
Shape2DView003
100
AcDbLine
 10
309.206864998
 20
450.330000000
 30
0.000000000
 11
307.000000000
 21
450.330000000
 31
0.000000000
  0
ARC
  5
B96
330
A02
100
AcDbEntity
  8
Shape2DView003
100
AcDbCircle
 10
309.354666667
 20
450.415333333
 30
0.000000000
 40
0.170666667
100
AcDbArc
 50
-150.000000000
 51
60.000000000
  0
LINE
  5
B97
330
A02
100
AcDbEntity
  8
Shape2DView003
100
AcDbLine
 10
309.440000000
 20
450.563135002
 30
0.000000000
 11
309.440000000
 21
469.936864998
 31
0.000000000
  0
ARC
  5
B98
330
A02
100
AcDbEntity
  8
Shape2DView003
100
AcDbCircle
 10
309.354666667
 20
470.084666667
 30
0.000000000
 40
0.170666667
100
AcDbArc
 50
-60.000000000
 51
150.000000000
  0
LINE
  5
B99
330
A02
100
AcDbEntity
  8
Shape2DView003
100
AcDbLine
 10
309.206864998
 20
470.170000000
 30
0.000000000
 11
307.000000000
 21
470.170000000
 31
0.000000000
  0
LINE
  5
B9A
330
A02
100
AcDbEntity
  8
Shape2DView003
100
AcDbLine
 10
307.000000000
 20
511.630000000
 30
0.000000000
 11
307.000000000
 21
470.170000000
 31
0.000000000
  0
LINE
  5
B9B
330
A02
100
AcDbEntity
  8
Shape2DView003
100
AcDbLine
 10
309.206864998
 20
511.630000000
 30
0.000000000
 11
307.000000000
 21
511.630000000
 31
0.000000000
  0
ARC
  5
B9C
330
A02
100
AcDbEntity
  8
Shape2DView003
100
AcDbCircle
 10
309.354666667
 20
511.715333333
 30
0.000000000
 40
0.170666667
100
AcDbArc
 50
-150.000000000
 51
60.000000000
  0
LINE
  5
B9D
330
A02
100
AcDbEntity
  8
Shape2DView003
100
AcDbLine
 10
309.440000000
 20
511.863135002
 30
0.000000000
 11
309.440000000
 21
531.236864998
 31
0.000000000
  0
ARC
  5
B9E
330
A02
100
AcDbEntity
  8
Shape2DView003
100
AcDbCircle
 10
309.354666667
 20
531.384666667
 30
0.000000000
 40
0.170666667
100
AcDbArc
 50
-60.000000000
 51
150.000000000
  0
LINE
  5
B9F
330
A02
100
AcDbEntity
  8
Shape2DView003
100
AcDbLine
 10
309.206864998
 20
531.470000000
 30
0.000000000
 11
307.000000000
 21
531.470000000
 31
0.000000000
  0
CIRCLE
  5
BA0
330
A02
100
AcDbEntity
  8
Shape2DView003
100
AcDbCircle
 10
327.000000000
 20
327.000000000
 30
0.000000000
 40
5.500000000
  0
ARC
  5
BA1
330
A02
100
AcDbEntity
  8
Shape2DView003
100
AcDbCircle
 10
410.842666667
 20
347.487333333
 30
0.000000000
 40
0.165333333
100
AcDbArc
 50
30.000000000
 51
-120.000000000
  0
LINE
  5
BA2
330
A02
100
AcDbEntity
  8
Shape2DView003
100
AcDbLine
 10
410.760000000
 20
347.344150467
 30
0.000000000
 11
410.760000000
 21
327.955849533
 31
0.000000000
  0
ARC
  5
BA3
330
A02
100
AcDbEntity
  8
Shape2DView003
100
AcDbCircle
 10
410.842666667
 20
327.812666667
 30
0.000000000
 40
0.165333333
100
AcDbArc
 50
120.000000000
 51
-30.000000000
  0
LINE
  5
BA4
330
A02
100
AcDbEntity
  8
Shape2DView003
100
AcDbLine
 10
410.985849533
 20
327.730000000
 30
0.000000000
 11
413.014150467
 21
327.730000000
 31
0.000000000
  0
ARC
  5
BA5
330
A02
100
AcDbEntity
  8
Shape2DView003
100
AcDbCircle
 10
413.157333333
 20
327.812666667
 30
0.000000000
 40
0.165333333
100
AcDbArc
 50
-150.000000000
 51
0.000000000
  0
ARC
  5
BA6
330
A02
100
AcDbEntity
  8
Shape2DView003
100
AcDbCircle
 10
413.157333333
 20
327.812666667
 30
0.000000000
 40
0.165333333
100
AcDbArc
 50
0.000000000
 51
60.000000000
  0
LINE
  5
BA7
330
A02
100
AcDbEntity
  8
Shape2DView003
100
AcDbLine
 10
413.240000000
 20
347.344150467
 30
0.000000000
 11
413.240000000
 21
327.955849533
 31
0.000000000
  0
ARC
  5
BA8
330
A02
100
AcDbEntity
  8
Shape2DView003
100
AcDbCircle
 10
413.157333333
 20
347.487333333
 30
0.000000000
 40
0.165333333
100
AcDbArc
 50
-60.000000000
 51
0.000000000
  0
ARC
  5
BA9
330
A02
100
AcDbEntity
  8
Shape2DView003
100
AcDbCircle
 10
413.157333333
 20
347.487333333
 30
0.000000000
 40
0.165333333
100
AcDbArc
 50
0.000000000
 51
150.000000000
  0
LINE
  5
BAA
330
A02
100
AcDbEntity
  8
Shape2DView003
100
AcDbLine
 10
410.985849533
 20
347.570000000
 30
0.000000000
 11
413.014150467
 21
347.570000000
 31
0.000000000
  0
ARC
  5
BAB
330
A02
100
AcDbEntity
  8
Shape2DView003
100
AcDbCircle
 10
344.587333333
 20
430.757333333
 30
0.000000000
 40
0.165333333
100
AcDbArc
 50
-60.000000000
 51
150.000000000
  0
LINE
  5
BAC
330
A02
100
AcDbEntity
  8
Shape2DView003
100
AcDbLine
 10
344.444150467
 20
430.840000000
 30
0.000000000
 11
325.055849533
 21
430.840000000
 31
0.000000000
  0
ARC
  5
BAD
330
A02
100
AcDbEntity
  8
Shape2DView003
100
AcDbCircle
 10
324.912666667
 20
430.757333333
 30
0.000000000
 40
0.165333333
100
AcDbArc
 50
30.000000000
 51
-120.000000000
  0
LINE
  5
BAE
330
A02
100
AcDbEntity
  8
Shape2DView003
100
AcDbLine
 10
324.830000000
 20
430.614150467
 30
0.000000000
 11
324.830000000
 21
428.585849533
 31
0.000000000
  0
ARC
  5
BAF
330
A02
100
AcDbEntity
  8
Shape2DView003
100
AcDbCircle
 10
324.912666667
 20
428.442666667
 30
0.000000000
 40
0.165333333
100
AcDbArc
 50
120.000000000
 51
-90.000000000
  0
ARC
  5
BB0
330
A02
100
AcDbEntity
  8
Shape2DView003
100
AcDbCircle
 10
324.912666667
 20
428.442666667
 30
0.000000000
 40
0.165333333
100
AcDbArc
 50
-90.000000000
 51
-30.000000000
  0
LINE
  5
BB1
330
A02
100
AcDbEntity
  8
Shape2DView003
100
AcDbLine
 10
344.444150467
 20
428.360000000
 30
0.000000000
 11
325.055849533
 21
428.360000000
 31
0.000000000
  0
ARC
  5
BB2
330
A02
100
AcDbEntity
  8
Shape2DView003
100
AcDbCircle
 10
344.587333333
 20
428.442666667
 30
0.000000000
 40
0.165333333
100
AcDbArc
 50
-150.000000000
 51
-90.000000000
  0
ARC
  5
BB3
330
A02
100
AcDbEntity
  8
Shape2DView003
100
AcDbCircle
 10
344.587333333
 20
428.442666667
 30
0.000000000
 40
0.165333333
100
AcDbArc
 50
-90.000000000
 51
60.000000000
  0
LINE
  5
BB4
330
A02
100
AcDbEntity
  8
Shape2DView003
100
AcDbLine
 10
344.670000000
 20
430.614150467
 30
0.000000000
 11
344.670000000
 21
428.585849533
 31
0.000000000
  0
ARC
  5
BB5
330
A02
100
AcDbEntity
  8
Shape2DView003
100
AcDbCircle
 10
410.842666667
 20
408.787333333
 30
0.000000000
 40
0.165333333
100
AcDbArc
 50
30.000000000
 51
-120.000000000
  0
LINE
  5
BB6
330
A02
100
AcDbEntity
  8
Shape2DView003
100
AcDbLine
 10
410.760000000
 20
408.644150467
 30
0.000000000
 11
410.760000000
 21
389.255849533
 31
0.000000000
  0
ARC
  5
BB7
330
A02
100
AcDbEntity
  8
Shape2DView003
100
AcDbCircle
 10
410.842666667
 20
389.112666667
 30
0.000000000
 40
0.165333333
100
AcDbArc
 50
120.000000000
 51
-30.000000000
  0
LINE
  5
BB8
330
A02
100
AcDbEntity
  8
Shape2DView003
100
AcDbLine
 10
410.985849533
 20
389.030000000
 30
0.000000000
 11
413.014150467
 21
389.030000000
 31
0.000000000
  0
ARC
  5
BB9
330
A02
100
AcDbEntity
  8
Shape2DView003
100
AcDbCircle
 10
413.157333333
 20
389.112666667
 30
0.000000000
 40
0.165333333
100
AcDbArc
 50
-150.000000000
 51
0.000000000
  0
ARC
  5
BBA
330
A02
100
AcDbEntity
  8
Shape2DView003
100
AcDbCircle
 10
413.157333333
 20
389.112666667
 30
0.000000000
 40
0.165333333
100
AcDbArc
 50
0.000000000
 51
60.000000000
  0
LINE
  5
BBB
330
A02
100
AcDbEntity
  8
Shape2DView003
100
AcDbLine
 10
413.240000000
 20
408.644150467
 30
0.000000000
 11
413.240000000
 21
389.255849533
 31
0.000000000
  0
ARC
  5
BBC
330
A02
100
AcDbEntity
  8
Shape2DView003
100
AcDbCircle
 10
413.157333333
 20
408.787333333
 30
0.000000000
 40
0.165333333
100
AcDbArc
 50
-60.000000000
 51
0.000000000
  0
ARC
  5
BBD
330
A02
100
AcDbEntity
  8
Shape2DView003
100
AcDbCircle
 10
413.157333333
 20
408.787333333
 30
0.000000000
 40
0.165333333
100
AcDbArc
 50
0.000000000
 51
150.000000000
  0
LINE
  5
BBE
330
A02
100
AcDbEntity
  8
Shape2DView003
100
AcDbLine
 10
410.985849533
 20
408.870000000
 30
0.000000000
 11
413.014150467
 21
408.870000000
 31
0.000000000
  0
ARC
  5
BBF
330
A02
100
AcDbEntity
  8
Shape2DView003
100
AcDbCircle
 10
395.287333333
 20
430.757333333
 30
0.000000000
 40
0.165333333
100
AcDbArc
 50
-60.000000000
 51
150.000000000
  0
LINE
  5
BC0
330
A02
100
AcDbEntity
  8
Shape2DView003
100
AcDbLine
 10
395.144150467
 20
430.840000000
 30
0.000000000
 11
375.755849533
 21
430.840000000
 31
0.000000000
  0
ARC
  5
BC1
330
A02
100
AcDbEntity
  8
Shape2DView003
100
AcDbCircle
 10
375.612666667
 20
430.757333333
 30
0.000000000
 40
0.165333333
100
AcDbArc
 50
30.000000000
 51
-120.000000000
  0
LINE
  5
BC2
330
A02
100
AcDbEntity
  8
Shape2DView003
100
AcDbLine
 10
375.530000000
 20
430.614150467
 30
0.000000000
 11
375.530000000
 21
428.585849533
 31
0.000000000
  0
ARC
  5
BC3
330
A02
100
AcDbEntity
  8
Shape2DView003
100
AcDbCircle
 10
375.612666667
 20
428.442666667
 30
0.000000000
 40
0.165333333
100
AcDbArc
 50
120.000000000
 51
-90.000000000
  0
ARC
  5
BC4
330
A02
100
AcDbEntity
  8
Shape2DView003
100
AcDbCircle
 10
375.612666667
 20
428.442666667
 30
0.000000000
 40
0.165333333
100
AcDbArc
 50
-90.000000000
 51
-30.000000000
  0
LINE
  5
BC5
330
A02
100
AcDbEntity
  8
Shape2DView003
100
AcDbLine
 10
395.144150467
 20
428.360000000
 30
0.000000000
 11
375.755849533
 21
428.360000000
 31
0.000000000
  0
ARC
  5
BC6
330
A02
100
AcDbEntity
  8
Shape2DView003
100
AcDbCircle
 10
395.287333333
 20
428.442666667
 30
0.000000000
 40
0.165333333
100
AcDbArc
 50
-150.000000000
 51
-90.000000000
  0
ARC
  5
BC7
330
A02
100
AcDbEntity
  8
Shape2DView003
100
AcDbCircle
 10
395.287333333
 20
428.442666667
 30
0.000000000
 40
0.165333333
100
AcDbArc
 50
-90.000000000
 51
60.000000000
  0
LINE
  5
BC8
330
A02
100
AcDbEntity
  8
Shape2DView003
100
AcDbLine
 10
395.370000000
 20
430.614150467
 30
0.000000000
 11
395.370000000
 21
428.585849533
 31
0.000000000
  0
CIRCLE
  5
BC9
330
A02
100
AcDbEntity
  8
Shape2DView003
100
AcDbCircle
 10
497.000000000
 20
327.000000000
 30
0.000000000
 40
5.500000000
  0
ARC
  5
BCA
330
A02
100
AcDbEntity
  8
Shape2DView003
100
AcDbCircle
 10
448.387333333
 20
430.757333333
 30
0.000000000
 40
0.165333333
100
AcDbArc
 50
-60.000000000
 51
150.000000000
  0
LINE
  5
BCB
330
A02
100
AcDbEntity
  8
Shape2DView003
100
AcDbLine
 10
448.244150467
 20
430.840000000
 30
0.000000000
 11
428.855849533
 21
430.840000000
 31
0.000000000
  0
ARC
  5
BCC
330
A02
100
AcDbEntity
  8
Shape2DView003
100
AcDbCircle
 10
428.712666667
 20
430.757333333
 30
0.000000000
 40
0.165333333
100
AcDbArc
 50
30.000000000
 51
-120.000000000
  0
LINE
  5
BCD
330
A02
100
AcDbEntity
  8
Shape2DView003
100
AcDbLine
 10
428.630000000
 20
430.614150467
 30
0.000000000
 11
428.630000000
 21
428.585849533
 31
0.000000000
  0
ARC
  5
BCE
330
A02
100
AcDbEntity
  8
Shape2DView003
100
AcDbCircle
 10
428.712666667
 20
428.442666667
 30
0.000000000
 40
0.165333333
100
AcDbArc
 50
120.000000000
 51
-90.000000000
  0
ARC
  5
BCF
330
A02
100
AcDbEntity
  8
Shape2DView003
100
AcDbCircle
 10
428.712666667
 20
428.442666667
 30
0.000000000
 40
0.165333333
100
AcDbArc
 50
-90.000000000
 51
-30.000000000
  0
LINE
  5
BD0
330
A02
100
AcDbEntity
  8
Shape2DView003
100
AcDbLine
 10
448.244150467
 20
428.360000000
 30
0.000000000
 11
428.855849533
 21
428.360000000
 31
0.000000000
  0
ARC
  5
BD1
330
A02
100
AcDbEntity
  8
Shape2DView003
100
AcDbCircle
 10
448.387333333
 20
428.442666667
 30
0.000000000
 40
0.165333333
100
AcDbArc
 50
-150.000000000
 51
-90.000000000
  0
ARC
  5
BD2
330
A02
100
AcDbEntity
  8
Shape2DView003
100
AcDbCircle
 10
448.387333333
 20
428.442666667
 30
0.000000000
 40
0.165333333
100
AcDbArc
 50
-90.000000000
 51
60.000000000
  0
LINE
  5
BD3
330
A02
100
AcDbEntity
  8
Shape2DView003
100
AcDbLine
 10
448.470000000
 20
430.614150467
 30
0.000000000
 11
448.470000000
 21
428.585849533
 31
0.000000000
  0
ARC
  5
BD4
330
A02
100
AcDbEntity
  8
Shape2DView003
100
AcDbCircle
 10
499.087333333
 20
430.757333333
 30
0.000000000
 40
0.165333333
100
AcDbArc
 50
-60.000000000
 51
150.000000000
  0
LINE
  5
BD5
330
A02
100
AcDbEntity
  8
Shape2DView003
100
AcDbLine
 10
498.944150467
 20
430.840000000
 30
0.000000000
 11
479.555849533
 21
430.840000000
 31
0.000000000
  0
ARC
  5
BD6
330
A02
100
AcDbEntity
  8
Shape2DView003
100
AcDbCircle
 10
479.412666667
 20
430.757333333
 30
0.000000000
 40
0.165333333
100
AcDbArc
 50
30.000000000
 51
-120.000000000
  0
LINE
  5
BD7
330
A02
100
AcDbEntity
  8
Shape2DView003
100
AcDbLine
 10
479.330000000
 20
430.614150467
 30
0.000000000
 11
479.330000000
 21
428.585849533
 31
0.000000000
  0
ARC
  5
BD8
330
A02
100
AcDbEntity
  8
Shape2DView003
100
AcDbCircle
 10
479.412666667
 20
428.442666667
 30
0.000000000
 40
0.165333333
100
AcDbArc
 50
120.000000000
 51
-90.000000000
  0
ARC
  5
BD9
330
A02
100
AcDbEntity
  8
Shape2DView003
100
AcDbCircle
 10
479.412666667
 20
428.442666667
 30
0.000000000
 40
0.165333333
100
AcDbArc
 50
-90.000000000
 51
-30.000000000
  0
LINE
  5
BDA
330
A02
100
AcDbEntity
  8
Shape2DView003
100
AcDbLine
 10
498.944150467
 20
428.360000000
 30
0.000000000
 11
479.555849533
 21
428.360000000
 31
0.000000000
  0
ARC
  5
BDB
330
A02
100
AcDbEntity
  8
Shape2DView003
100
AcDbCircle
 10
499.087333333
 20
428.442666667
 30
0.000000000
 40
0.165333333
100
AcDbArc
 50
-150.000000000
 51
-90.000000000
  0
ARC
  5
BDC
330
A02
100
AcDbEntity
  8
Shape2DView003
100
AcDbCircle
 10
499.087333333
 20
428.442666667
 30
0.000000000
 40
0.165333333
100
AcDbArc
 50
-90.000000000
 51
60.000000000
  0
LINE
  5
BDD
330
A02
100
AcDbEntity
  8
Shape2DView003
100
AcDbLine
 10
499.170000000
 20
430.614150467
 30
0.000000000
 11
499.170000000
 21
428.585849533
 31
0.000000000
  0
ARC
  5
BDE
330
A02
100
AcDbEntity
  8
Shape2DView003
100
AcDbCircle
 10
410.842666667
 20
470.087333333
 30
0.000000000
 40
0.165333333
100
AcDbArc
 50
30.000000000
 51
-120.000000000
  0
LINE
  5
BDF
330
A02
100
AcDbEntity
  8
Shape2DView003
100
AcDbLine
 10
410.760000000
 20
469.944150467
 30
0.000000000
 11
410.760000000
 21
450.555849533
 31
0.000000000
  0
ARC
  5
BE0
330
A02
100
AcDbEntity
  8
Shape2DView003
100
AcDbCircle
 10
410.842666667
 20
450.412666667
 30
0.000000000
 40
0.165333333
100
AcDbArc
 50
120.000000000
 51
-30.000000000
  0
LINE
  5
BE1
330
A02
100
AcDbEntity
  8
Shape2DView003
100
AcDbLine
 10
410.985849533
 20
450.330000000
 30
0.000000000
 11
413.014150467
 21
450.330000000
 31
0.000000000
  0
ARC
  5
BE2
330
A02
100
AcDbEntity
  8
Shape2DView003
100
AcDbCircle
 10
413.157333333
 20
450.412666667
 30
0.000000000
 40
0.165333333
100
AcDbArc
 50
-150.000000000
 51
0.000000000
  0
ARC
  5
BE3
330
A02
100
AcDbEntity
  8
Shape2DView003
100
AcDbCircle
 10
413.157333333
 20
450.412666667
 30
0.000000000
 40
0.165333333
100
AcDbArc
 50
0.000000000
 51
60.000000000
  0
LINE
  5
BE4
330
A02
100
AcDbEntity
  8
Shape2DView003
100
AcDbLine
 10
413.240000000
 20
469.944150467
 30
0.000000000
 11
413.240000000
 21
450.555849533
 31
0.000000000
  0
ARC
  5
BE5
330
A02
100
AcDbEntity
  8
Shape2DView003
100
AcDbCircle
 10
413.157333333
 20
470.087333333
 30
0.000000000
 40
0.165333333
100
AcDbArc
 50
-60.000000000
 51
0.000000000
  0
ARC
  5
BE6
330
A02
100
AcDbEntity
  8
Shape2DView003
100
AcDbCircle
 10
413.157333333
 20
470.087333333
 30
0.000000000
 40
0.165333333
100
AcDbArc
 50
0.000000000
 51
150.000000000
  0
LINE
  5
BE7
330
A02
100
AcDbEntity
  8
Shape2DView003
100
AcDbLine
 10
410.985849533
 20
470.170000000
 30
0.000000000
 11
413.014150467
 21
470.170000000
 31
0.000000000
  0
CIRCLE
  5
BE8
330
A02
100
AcDbEntity
  8
Shape2DView003
100
AcDbCircle
 10
327.000000000
 20
534.600000000
 30
0.000000000
 40
5.500000000
  0
ARC
  5
BE9
330
A02
100
AcDbEntity
  8
Shape2DView003
100
AcDbCircle
 10
412.000000000
 20
534.600000000
 30
0.000000000
 40
5.500000000
100
AcDbArc
 50
0.000000000
 51
-103.029608502
  0
LINE
  5
BEA
330
A02
100
AcDbEntity
  8
Shape2DView003
100
AcDbLine
 10
410.760000000
 20
529.241604718
 30
0.000000000
 11
410.760000000
 21
511.855849533
 31
0.000000000
  0
ARC
  5
BEB
330
A02
100
AcDbEntity
  8
Shape2DView003
100
AcDbCircle
 10
410.842666667
 20
511.712666667
 30
0.000000000
 40
0.165333333
100
AcDbArc
 50
120.000000000
 51
-30.000000000
  0
LINE
  5
BEC
330
A02
100
AcDbEntity
  8
Shape2DView003
100
AcDbLine
 10
410.985849533
 20
511.630000000
 30
0.000000000
 11
413.014150467
 21
511.630000000
 31
0.000000000
  0
ARC
  5
BED
330
A02
100
AcDbEntity
  8
Shape2DView003
100
AcDbCircle
 10
413.157333333
 20
511.712666667
 30
0.000000000
 40
0.165333333
100
AcDbArc
 50
-150.000000000
 51
0.000000000
  0
ARC
  5
BEE
330
A02
100
AcDbEntity
  8
Shape2DView003
100
AcDbCircle
 10
413.157333333
 20
511.712666667
 30
0.000000000
 40
0.165333333
100
AcDbArc
 50
0.000000000
 51
60.000000000
  0
LINE
  5
BEF
330
A02
100
AcDbEntity
  8
Shape2DView003
100
AcDbLine
 10
413.240000000
 20
529.241604718
 30
0.000000000
 11
413.240000000
 21
511.855849533
 31
0.000000000
  0
ARC
  5
BF0
330
A02
100
AcDbEntity
  8
Shape2DView003
100
AcDbCircle
 10
412.000000000
 20
534.600000000
 30
0.000000000
 40
5.500000000
100
AcDbArc
 50
-76.970391498
 51
0.000000000
  0
CIRCLE
  5
BF1
330
A02
100
AcDbEntity
  8
Shape2DView003
100
AcDbCircle
 10
497.000000000
 20
534.600000000
 30
0.000000000
 40
5.500000000
  0
LINE
  5
BF2
330
A02
100
AcDbEntity
  8
Shape2DView004
100
AcDbLine
 10
210.000000000
 20
812.200000000
 30
0.000000000
 11
210.000000000
 21
789.070000000
 31
0.000000000
  0
LINE
  5
BF3
330
A02
100
AcDbEntity
  8
Shape2DView004
100
AcDbLine
 10
193.670000000
 20
812.200000000
 30
0.000000000
 11
210.000000000
 21
812.200000000
 31
0.000000000
  0
LINE
  5
BF4
330
A02
100
AcDbEntity
  8
Shape2DView004
100
AcDbLine
 10
193.670000000
 20
809.993135002
 30
0.000000000
 11
193.670000000
 21
812.200000000
 31
0.000000000
  0
ARC
  5
BF5
330
A02
100
AcDbEntity
  8
Shape2DView004
100
AcDbCircle
 10
193.584666667
 20
809.845333333
 30
0.000000000
 40
0.170666667
100
AcDbArc
 50
-150.000000000
 51
60.000000000
  0
LINE
  5
BF6
330
A02
100
AcDbEntity
  8
Shape2DView004
100
AcDbLine
 10
174.063135002
 20
809.760000000
 30
0.000000000
 11
193.436864998
 21
809.760000000
 31
0.000000000
  0
ARC
  5
BF7
330
A02
100
AcDbEntity
  8
Shape2DView004
100
AcDbCircle
 10
173.915333333
 20
809.845333333
 30
0.000000000
 40
0.170666667
100
AcDbArc
 50
120.000000000
 51
-30.000000000
  0
LINE
  5
BF8
330
A02
100
AcDbEntity
  8
Shape2DView004
100
AcDbLine
 10
173.830000000
 20
809.993135002
 30
0.000000000
 11
173.830000000
 21
812.200000000
 31
0.000000000
  0
LINE
  5
BF9
330
A02
100
AcDbEntity
  8
Shape2DView004
100
AcDbLine
 10
141.170000000
 20
812.200000000
 30
0.000000000
 11
173.830000000
 21
812.200000000
 31
0.000000000
  0
LINE
  5
BFA
330
A02
100
AcDbEntity
  8
Shape2DView004
100
AcDbLine
 10
141.170000000
 20
809.993135002
 30
0.000000000
 11
141.170000000
 21
812.200000000
 31
0.000000000
  0
ARC
  5
BFB
330
A02
100
AcDbEntity
  8
Shape2DView004
100
AcDbCircle
 10
141.084666667
 20
809.845333333
 30
0.000000000
 40
0.170666667
100
AcDbArc
 50
-150.000000000
 51
60.000000000
  0
LINE
  5
BFC
330
A02
100
AcDbEntity
  8
Shape2DView004
100
AcDbLine
 10
121.563135002
 20
809.760000000
 30
0.000000000
 11
140.936864998
 21
809.760000000
 31
0.000000000
  0
ARC
  5
BFD
330
A02
100
AcDbEntity
  8
Shape2DView004
100
AcDbCircle
 10
121.415333333
 20
809.845333333
 30
0.000000000
 40
0.170666667
100
AcDbArc
 50
120.000000000
 51
-30.000000000
  0
LINE
  5
BFE
330
A02
100
AcDbEntity
  8
Shape2DView004
100
AcDbLine
 10
121.330000000
 20
809.993135002
 30
0.000000000
 11
121.330000000
 21
812.200000000
 31
0.000000000
  0
LINE
  5
BFF
330
A02
100
AcDbEntity
  8
Shape2DView004
100
AcDbLine
 10
88.670000000
 20
812.200000000
 30
0.000000000
 11
121.330000000
 21
812.200000000
 31
0.000000000
  0
LINE
  5
C00
330
A02
100
AcDbEntity
  8
Shape2DView004
100
AcDbLine
 10
88.670000000
 20
809.993135002
 30
0.000000000
 11
88.670000000
 21
812.200000000
 31
0.000000000
  0
ARC
  5
C01
330
A02
100
AcDbEntity
  8
Shape2DView004
100
AcDbCircle
 10
88.584666667
 20
809.845333333
 30
0.000000000
 40
0.170666667
100
AcDbArc
 50
-150.000000000
 51
60.000000000
  0
LINE
  5
C02
330
A02
100
AcDbEntity
  8
Shape2DView004
100
AcDbLine
 10
69.063135002
 20
809.760000000
 30
0.000000000
 11
88.436864998
 21
809.760000000
 31
0.000000000
  0
ARC
  5
C03
330
A02
100
AcDbEntity
  8
Shape2DView004
100
AcDbCircle
 10
68.915333333
 20
809.845333333
 30
0.000000000
 40
0.170666667
100
AcDbArc
 50
120.000000000
 51
-30.000000000
  0
LINE
  5
C04
330
A02
100
AcDbEntity
  8
Shape2DView004
100
AcDbLine
 10
68.830000000
 20
809.993135002
 30
0.000000000
 11
68.830000000
 21
812.200000000
 31
0.000000000
  0
LINE
  5
C05
330
A02
100
AcDbEntity
  8
Shape2DView004
100
AcDbLine
 10
36.170000000
 20
812.200000000
 30
0.000000000
 11
68.830000000
 21
812.200000000
 31
0.000000000
  0
LINE
  5
C06
330
A02
100
AcDbEntity
  8
Shape2DView004
100
AcDbLine
 10
36.170000000
 20
809.993135002
 30
0.000000000
 11
36.170000000
 21
812.200000000
 31
0.000000000
  0
ARC
  5
C07
330
A02
100
AcDbEntity
  8
Shape2DView004
100
AcDbCircle
 10
36.084666667
 20
809.845333333
 30
0.000000000
 40
0.170666667
100
AcDbArc
 50
-150.000000000
 51
60.000000000
  0
LINE
  5
C08
330
A02
100
AcDbEntity
  8
Shape2DView004
100
AcDbLine
 10
16.563135002
 20
809.760000000
 30
0.000000000
 11
35.936864998
 21
809.760000000
 31
0.000000000
  0
ARC
  5
C09
330
A02
100
AcDbEntity
  8
Shape2DView004
100
AcDbCircle
 10
16.415333333
 20
809.845333333
 30
0.000000000
 40
0.170666667
100
AcDbArc
 50
120.000000000
 51
-30.000000000
  0
LINE
  5
C0A
330
A02
100
AcDbEntity
  8
Shape2DView004
100
AcDbLine
 10
16.330000000
 20
809.993135002
 30
0.000000000
 11
16.330000000
 21
812.200000000
 31
0.000000000
  0
LINE
  5
C0B
330
A02
100
AcDbEntity
  8
Shape2DView004
100
AcDbLine
 10
0.000000000
 20
812.200000000
 30
0.000000000
 11
16.330000000
 21
812.200000000
 31
0.000000000
  0
LINE
  5
C0C
330
A02
100
AcDbEntity
  8
Shape2DView004
100
AcDbLine
 10
0.000000000
 20
789.070000000
 30
0.000000000
 11
0.000000000
 21
812.200000000
 31
0.000000000
  0
LINE
  5
C0D
330
A02
100
AcDbEntity
  8
Shape2DView004
100
AcDbLine
 10
-0.000000000
 20
789.070000000
 30
0.000000000
 11
2.206864998
 21
789.070000000
 31
0.000000000
  0
ARC
  5
C0E
330
A02
100
AcDbEntity
  8
Shape2DView004
100
AcDbCircle
 10
2.354666667
 20
788.984666667
 30
0.000000000
 40
0.170666667
100
AcDbArc
 50
0.000000000
 51
150.000000000
  0
ARC
  5
C0F
330
A02
100
AcDbEntity
  8
Shape2DView004
100
AcDbCircle
 10
2.354666667
 20
788.984666667
 30
0.000000000
 40
0.170666667
100
AcDbArc
 50
-60.000000000
 51
0.000000000
  0
LINE
  5
C10
330
A02
100
AcDbEntity
  8
Shape2DView004
100
AcDbLine
 10
2.440000000
 20
788.836864998
 30
0.000000000
 11
2.440000000
 21
769.463135002
 31
0.000000000
  0
ARC
  5
C11
330
A02
100
AcDbEntity
  8
Shape2DView004
100
AcDbCircle
 10
2.354666667
 20
769.315333333
 30
0.000000000
 40
0.170666667
100
AcDbArc
 50
0.000000000
 51
60.000000000
  0
ARC
  5
C12
330
A02
100
AcDbEntity
  8
Shape2DView004
100
AcDbCircle
 10
2.354666667
 20
769.315333333
 30
0.000000000
 40
0.170666667
100
AcDbArc
 50
-150.000000000
 51
0.000000000
  0
LINE
  5
C13
330
A02
100
AcDbEntity
  8
Shape2DView004
100
AcDbLine
 10
-0.000000000
 20
769.230000000
 30
0.000000000
 11
2.206864998
 21
769.230000000
 31
0.000000000
  0
LINE
  5
C14
330
A02
100
AcDbEntity
  8
Shape2DView004
100
AcDbLine
 10
0.000000000
 20
727.770000000
 30
0.000000000
 11
0.000000000
 21
769.230000000
 31
0.000000000
  0
LINE
  5
C15
330
A02
100
AcDbEntity
  8
Shape2DView004
100
AcDbLine
 10
-0.000000000
 20
727.770000000
 30
0.000000000
 11
2.206864998
 21
727.770000000
 31
0.000000000
  0
ARC
  5
C16
330
A02
100
AcDbEntity
  8
Shape2DView004
100
AcDbCircle
 10
2.354666667
 20
727.684666667
 30
0.000000000
 40
0.170666667
100
AcDbArc
 50
0.000000000
 51
150.000000000
  0
ARC
  5
C17
330
A02
100
AcDbEntity
  8
Shape2DView004
100
AcDbCircle
 10
2.354666667
 20
727.684666667
 30
0.000000000
 40
0.170666667
100
AcDbArc
 50
-60.000000000
 51
0.000000000
  0
LINE
  5
C18
330
A02
100
AcDbEntity
  8
Shape2DView004
100
AcDbLine
 10
2.440000000
 20
727.536864998
 30
0.000000000
 11
2.440000000
 21
708.163135002
 31
0.000000000
  0
ARC
  5
C19
330
A02
100
AcDbEntity
  8
Shape2DView004
100
AcDbCircle
 10
2.354666667
 20
708.015333333
 30
0.000000000
 40
0.170666667
100
AcDbArc
 50
0.000000000
 51
60.000000000
  0
ARC
  5
C1A
330
A02
100
AcDbEntity
  8
Shape2DView004
100
AcDbCircle
 10
2.354666667
 20
708.015333333
 30
0.000000000
 40
0.170666667
100
AcDbArc
 50
-150.000000000
 51
0.000000000
  0
LINE
  5
C1B
330
A02
100
AcDbEntity
  8
Shape2DView004
100
AcDbLine
 10
-0.000000000
 20
707.930000000
 30
0.000000000
 11
2.206864998
 21
707.930000000
 31
0.000000000
  0
LINE
  5
C1C
330
A02
100
AcDbEntity
  8
Shape2DView004
100
AcDbLine
 10
0.000000000
 20
666.470000000
 30
0.000000000
 11
0.000000000
 21
707.930000000
 31
0.000000000
  0
LINE
  5
C1D
330
A02
100
AcDbEntity
  8
Shape2DView004
100
AcDbLine
 10
-0.000000000
 20
666.470000000
 30
0.000000000
 11
2.206864998
 21
666.470000000
 31
0.000000000
  0
ARC
  5
C1E
330
A02
100
AcDbEntity
  8
Shape2DView004
100
AcDbCircle
 10
2.354666667
 20
666.384666667
 30
0.000000000
 40
0.170666667
100
AcDbArc
 50
0.000000000
 51
150.000000000
  0
ARC
  5
C1F
330
A02
100
AcDbEntity
  8
Shape2DView004
100
AcDbCircle
 10
2.354666667
 20
666.384666667
 30
0.000000000
 40
0.170666667
100
AcDbArc
 50
-60.000000000
 51
0.000000000
  0
LINE
  5
C20
330
A02
100
AcDbEntity
  8
Shape2DView004
100
AcDbLine
 10
2.440000000
 20
666.236864998
 30
0.000000000
 11
2.440000000
 21
646.863135002
 31
0.000000000
  0
ARC
  5
C21
330
A02
100
AcDbEntity
  8
Shape2DView004
100
AcDbCircle
 10
2.354666667
 20
646.715333333
 30
0.000000000
 40
0.170666667
100
AcDbArc
 50
0.000000000
 51
60.000000000
  0
ARC
  5
C22
330
A02
100
AcDbEntity
  8
Shape2DView004
100
AcDbCircle
 10
2.354666667
 20
646.715333333
 30
0.000000000
 40
0.170666667
100
AcDbArc
 50
-150.000000000
 51
0.000000000
  0
LINE
  5
C23
330
A02
100
AcDbEntity
  8
Shape2DView004
100
AcDbLine
 10
-0.000000000
 20
646.630000000
 30
0.000000000
 11
2.206864998
 21
646.630000000
 31
0.000000000
  0
LINE
  5
C24
330
A02
100
AcDbEntity
  8
Shape2DView004
100
AcDbLine
 10
0.000000000
 20
605.170000000
 30
0.000000000
 11
0.000000000
 21
646.630000000
 31
0.000000000
  0
LINE
  5
C25
330
A02
100
AcDbEntity
  8
Shape2DView004
100
AcDbLine
 10
-0.000000000
 20
605.170000000
 30
0.000000000
 11
2.206864998
 21
605.170000000
 31
0.000000000
  0
ARC
  5
C26
330
A02
100
AcDbEntity
  8
Shape2DView004
100
AcDbCircle
 10
2.354666667
 20
605.084666667
 30
0.000000000
 40
0.170666667
100
AcDbArc
 50
0.000000000
 51
150.000000000
  0
ARC
  5
C27
330
A02
100
AcDbEntity
  8
Shape2DView004
100
AcDbCircle
 10
2.354666667
 20
605.084666667
 30
0.000000000
 40
0.170666667
100
AcDbArc
 50
-60.000000000
 51
0.000000000
  0
LINE
  5
C28
330
A02
100
AcDbEntity
  8
Shape2DView004
100
AcDbLine
 10
2.440000000
 20
604.936864998
 30
0.000000000
 11
2.440000000
 21
585.563135002
 31
0.000000000
  0
ARC
  5
C29
330
A02
100
AcDbEntity
  8
Shape2DView004
100
AcDbCircle
 10
2.354666667
 20
585.415333333
 30
0.000000000
 40
0.170666667
100
AcDbArc
 50
0.000000000
 51
60.000000000
  0
ARC
  5
C2A
330
A02
100
AcDbEntity
  8
Shape2DView004
100
AcDbCircle
 10
2.354666667
 20
585.415333333
 30
0.000000000
 40
0.170666667
100
AcDbArc
 50
-150.000000000
 51
0.000000000
  0
LINE
  5
C2B
330
A02
100
AcDbEntity
  8
Shape2DView004
100
AcDbLine
 10
-0.000000000
 20
585.330000000
 30
0.000000000
 11
2.206864998
 21
585.330000000
 31
0.000000000
  0
LINE
  5
C2C
330
A02
100
AcDbEntity
  8
Shape2DView004
100
AcDbLine
 10
0.000000000
 20
564.600000000
 30
0.000000000
 11
0.000000000
 21
585.330000000
 31
0.000000000
  0
LINE
  5
C2D
330
A02
100
AcDbEntity
  8
Shape2DView004
100
AcDbLine
 10
210.000000000
 20
564.600000000
 30
0.000000000
 11
0.000000000
 21
564.600000000
 31
0.000000000
  0
LINE
  5
C2E
330
A02
100
AcDbEntity
  8
Shape2DView004
100
AcDbLine
 10
210.000000000
 20
585.330000000
 30
0.000000000
 11
210.000000000
 21
564.600000000
 31
0.000000000
  0
LINE
  5
C2F
330
A02
100
AcDbEntity
  8
Shape2DView004
100
AcDbLine
 10
207.793135002
 20
585.330000000
 30
0.000000000
 11
210.000000000
 21
585.330000000
 31
0.000000000
  0
ARC
  5
C30
330
A02
100
AcDbEntity
  8
Shape2DView004
100
AcDbCircle
 10
207.645333333
 20
585.415333333
 30
0.000000000
 40
0.170666667
100
AcDbArc
 50
120.000000000
 51
-30.000000000
  0
LINE
  5
C31
330
A02
100
AcDbEntity
  8
Shape2DView004
100
AcDbLine
 10
207.560000000
 20
604.936864998
 30
0.000000000
 11
207.560000000
 21
585.563135002
 31
0.000000000
  0
ARC
  5
C32
330
A02
100
AcDbEntity
  8
Shape2DView004
100
AcDbCircle
 10
207.645333333
 20
605.084666667
 30
0.000000000
 40
0.170666667
100
AcDbArc
 50
30.000000000
 51
-120.000000000
  0
LINE
  5
C33
330
A02
100
AcDbEntity
  8
Shape2DView004
100
AcDbLine
 10
207.793135002
 20
605.170000000
 30
0.000000000
 11
210.000000000
 21
605.170000000
 31
0.000000000
  0
LINE
  5
C34
330
A02
100
AcDbEntity
  8
Shape2DView004
100
AcDbLine
 10
210.000000000
 20
646.630000000
 30
0.000000000
 11
210.000000000
 21
605.170000000
 31
0.000000000
  0
LINE
  5
C35
330
A02
100
AcDbEntity
  8
Shape2DView004
100
AcDbLine
 10
207.793135002
 20
646.630000000
 30
0.000000000
 11
210.000000000
 21
646.630000000
 31
0.000000000
  0
ARC
  5
C36
330
A02
100
AcDbEntity
  8
Shape2DView004
100
AcDbCircle
 10
207.645333333
 20
646.715333333
 30
0.000000000
 40
0.170666667
100
AcDbArc
 50
120.000000000
 51
-30.000000000
  0
LINE
  5
C37
330
A02
100
AcDbEntity
  8
Shape2DView004
100
AcDbLine
 10
207.560000000
 20
666.236864998
 30
0.000000000
 11
207.560000000
 21
646.863135002
 31
0.000000000
  0
ARC
  5
C38
330
A02
100
AcDbEntity
  8
Shape2DView004
100
AcDbCircle
 10
207.645333333
 20
666.384666667
 30
0.000000000
 40
0.170666667
100
AcDbArc
 50
30.000000000
 51
-120.000000000
  0
LINE
  5
C39
330
A02
100
AcDbEntity
  8
Shape2DView004
100
AcDbLine
 10
207.793135002
 20
666.470000000
 30
0.000000000
 11
210.000000000
 21
666.470000000
 31
0.000000000
  0
LINE
  5
C3A
330
A02
100
AcDbEntity
  8
Shape2DView004
100
AcDbLine
 10
210.000000000
 20
707.930000000
 30
0.000000000
 11
210.000000000
 21
666.470000000
 31
0.000000000
  0
LINE
  5
C3B
330
A02
100
AcDbEntity
  8
Shape2DView004
100
AcDbLine
 10
207.793135002
 20
707.930000000
 30
0.000000000
 11
210.000000000
 21
707.930000000
 31
0.000000000
  0
ARC
  5
C3C
330
A02
100
AcDbEntity
  8
Shape2DView004
100
AcDbCircle
 10
207.645333333
 20
708.015333333
 30
0.000000000
 40
0.170666667
100
AcDbArc
 50
120.000000000
 51
-30.000000000
  0
LINE
  5
C3D
330
A02
100
AcDbEntity
  8
Shape2DView004
100
AcDbLine
 10
207.560000000
 20
727.536864998
 30
0.000000000
 11
207.560000000
 21
708.163135002
 31
0.000000000
  0
ARC
  5
C3E
330
A02
100
AcDbEntity
  8
Shape2DView004
100
AcDbCircle
 10
207.645333333
 20
727.684666667
 30
0.000000000
 40
0.170666667
100
AcDbArc
 50
30.000000000
 51
-120.000000000
  0
LINE
  5
C3F
330
A02
100
AcDbEntity
  8
Shape2DView004
100
AcDbLine
 10
207.793135002
 20
727.770000000
 30
0.000000000
 11
210.000000000
 21
727.770000000
 31
0.000000000
  0
LINE
  5
C40
330
A02
100
AcDbEntity
  8
Shape2DView004
100
AcDbLine
 10
210.000000000
 20
769.230000000
 30
0.000000000
 11
210.000000000
 21
727.770000000
 31
0.000000000
  0
LINE
  5
C41
330
A02
100
AcDbEntity
  8
Shape2DView004
100
AcDbLine
 10
207.793135002
 20
769.230000000
 30
0.000000000
 11
210.000000000
 21
769.230000000
 31
0.000000000
  0
ARC
  5
C42
330
A02
100
AcDbEntity
  8
Shape2DView004
100
AcDbCircle
 10
207.645333333
 20
769.315333333
 30
0.000000000
 40
0.170666667
100
AcDbArc
 50
120.000000000
 51
-30.000000000
  0
LINE
  5
C43
330
A02
100
AcDbEntity
  8
Shape2DView004
100
AcDbLine
 10
207.560000000
 20
788.836864998
 30
0.000000000
 11
207.560000000
 21
769.463135002
 31
0.000000000
  0
ARC
  5
C44
330
A02
100
AcDbEntity
  8
Shape2DView004
100
AcDbCircle
 10
207.645333333
 20
788.984666667
 30
0.000000000
 40
0.170666667
100
AcDbArc
 50
30.000000000
 51
-120.000000000
  0
LINE
  5
C45
330
A02
100
AcDbEntity
  8
Shape2DView004
100
AcDbLine
 10
207.793135002
 20
789.070000000
 30
0.000000000
 11
210.000000000
 21
789.070000000
 31
0.000000000
  0
CIRCLE
  5
C46
330
A02
100
AcDbEntity
  8
Shape2DView004
100
AcDbCircle
 10
190.000000000
 20
584.600000000
 30
0.000000000
 40
5.500000000
  0
LINE
  5
C47
330
A02
100
AcDbEntity
  8
Shape2DView004
100
AcDbLine
 10
145.000000000
 20
582.200000000
 30
0.000000000
 11
65.000000000
 21
582.200000000
 31
0.000000000
  0
ARC
  5
C48
330
A02
100
AcDbEntity
  8
Shape2DView004
100
AcDbCircle
 10
145.000000000
 20
632.200000000
 30
0.000000000
 40
50.000000000
100
AcDbArc
 50
-90.000000000
 51
0.000000000
  0
ARC
  5
C49
330
A02
100
AcDbEntity
  8
Shape2DView004
100
AcDbCircle
 10
65.000000000
 20
632.200000000
 30
0.000000000
 40
50.000000000
100
AcDbArc
 50
180.000000000
 51
-90.000000000
  0
LINE
  5
C4A
330
A02
100
AcDbEntity
  8
Shape2DView004
100
AcDbLine
 10
195.000000000
 20
732.200000000
 30
0.000000000
 11
195.000000000
 21
632.200000000
 31
0.000000000
  0
LINE
  5
C4B
330
A02
100
AcDbEntity
  8
Shape2DView004
100
AcDbLine
 10
15.000000000
 20
632.200000000
 30
0.000000000
 11
15.000000000
 21
732.200000000
 31
0.000000000
  0
ARC
  5
C4C
330
A02
100
AcDbEntity
  8
Shape2DView004
100
AcDbCircle
 10
145.000000000
 20
732.200000000
 30
0.000000000
 40
50.000000000
100
AcDbArc
 50
0.000000000
 51
90.000000000
  0
ARC
  5
C4D
330
A02
100
AcDbEntity
  8
Shape2DView004
100
AcDbCircle
 10
65.000000000
 20
732.200000000
 30
0.000000000
 40
50.000000000
100
AcDbArc
 50
90.000000000
 51
180.000000000
  0
LINE
  5
C4E
330
A02
100
AcDbEntity
  8
Shape2DView004
100
AcDbLine
 10
65.000000000
 20
782.200000000
 30
0.000000000
 11
145.000000000
 21
782.200000000
 31
0.000000000
  0
CIRCLE
  5
C4F
330
A02
100
AcDbEntity
  8
Shape2DView004
100
AcDbCircle
 10
20.000000000
 20
584.600000000
 30
0.000000000
 40
5.500000000
  0
CIRCLE
  5
C50
330
A02
100
AcDbEntity
  8
Shape2DView004
100
AcDbCircle
 10
190.000000000
 20
792.200000000
 30
0.000000000
 40
5.500000000
  0
CIRCLE
  5
C51
330
A02
100
AcDbEntity
  8
Shape2DView004
100
AcDbCircle
 10
105.000000000
 20
792.200000000
 30
0.000000000
 40
5.500000000
  0
CIRCLE
  5
C52
330
A02
100
AcDbEntity
  8
Shape2DView004
100
AcDbCircle
 10
20.000000000
 20
792.200000000
 30
0.000000000
 40
5.500000000
  0
ARC
  5
C53
330
A02
100
AcDbEntity
  8
Shape2DView005
100
AcDbCircle
 10
235.270000000
 20
567.000000000
 30
0.000000000
 40
0.160000000
100
AcDbArc
 50
-90.000000000
 51
0.000000000
  0
ARC
  5
C54
330
A02
100
AcDbEntity
  8
Shape2DView005
100
AcDbCircle
 10
235.270000000
 20
567.000000000
 30
0.000000000
 40
0.160000000
100
AcDbArc
 50
0.000000000
 51
180.000000000
  0
LINE
  5
C55
330
A02
100
AcDbEntity
  8
Shape2DView005
100
AcDbLine
 10
220.000000000
 20
567.000000000
 30
0.000000000
 11
235.110000000
 21
567.000000000
 31
0.000000000
  0
ARC
  5
C56
330
A02
100
AcDbEntity
  8
Shape2DView005
100
AcDbCircle
 10
322.600000000
 20
729.752350920
 30
0.000000000
 40
100.000000000
100
AcDbArc
 50
-157.819632763
 51
-108.643942325
  0
LINE
  5
C57
330
A02
100
AcDbEntity
  8
Shape2DView005
100
AcDbLine
 10
290.631390473
 20
635.000000000
 30
0.000000000
 11
354.568609527
 21
635.000000000
 31
0.000000000
  0
LINE
  5
C58
330
A02
100
AcDbEntity
  8
Shape2DView005
100
AcDbLine
 10
220.000000000
 20
692.000000000
 30
0.000000000
 11
230.000000000
 21
692.000000000
 31
0.000000000
  0
ARC
  5
C59
330
A02
100
AcDbEntity
  8
Shape2DView005
100
AcDbCircle
 10
322.600000000
 20
729.752350920
 30
0.000000000
 40
100.000000000
100
AcDbArc
 50
-71.356057675
 51
-22.180367237
  0
LINE
  5
C5A
330
A02
100
AcDbEntity
  8
Shape2DView005
100
AcDbLine
 10
220.000000000
 20
567.000000000
 30
0.000000000
 11
220.000000000
 21
692.000000000
 31
0.000000000
  0
LINE
  5
C5B
330
A02
100
AcDbEntity
  8
Shape2DView005
100
AcDbLine
 10
425.200000000
 20
692.000000000
 30
0.000000000
 11
415.200000000
 21
692.000000000
 31
0.000000000
  0
LINE
  5
C5C
330
A02
100
AcDbEntity
  8
Shape2DView005
100
AcDbLine
 10
425.200000000
 20
567.000000000
 30
0.000000000
 11
425.200000000
 21
692.000000000
 31
0.000000000
  0
LINE
  5
C5D
330
A02
100
AcDbEntity
  8
Shape2DView005
100
AcDbLine
 10
410.090000000
 20
567.000000000
 30
0.000000000
 11
425.200000000
 21
567.000000000
 31
0.000000000
  0
ARC
  5
C5E
330
A02
100
AcDbEntity
  8
Shape2DView005
100
AcDbCircle
 10
409.930000000
 20
567.000000000
 30
0.000000000
 40
0.160000000
100
AcDbArc
 50
0.000000000
 51
180.000000000
  0
ARC
  5
C5F
330
A02
100
AcDbEntity
  8
Shape2DView005
100
AcDbCircle
 10
409.930000000
 20
567.000000000
 30
0.000000000
 40
0.160000000
100
AcDbArc
 50
180.000000000
 51
-90.000000000
  0
LINE
  5
C60
330
A02
100
AcDbEntity
  8
Shape2DView005
100
AcDbLine
 10
409.930000000
 20
566.840000000
 30
0.000000000
 11
409.930000000
 21
564.600000000
 31
0.000000000
  0
LINE
  5
C61
330
A02
100
AcDbEntity
  8
Shape2DView005
100
AcDbLine
 10
409.930000000
 20
564.600000000
 30
0.000000000
 11
389.770000000
 21
564.600000000
 31
0.000000000
  0
ARC
  5
C62
330
A02
100
AcDbEntity
  8
Shape2DView005
100
AcDbCircle
 10
389.770000000
 20
567.000000000
 30
0.000000000
 40
0.160000000
100
AcDbArc
 50
-90.000000000
 51
0.000000000
  0
ARC
  5
C63
330
A02
100
AcDbEntity
  8
Shape2DView005
100
AcDbCircle
 10
389.770000000
 20
567.000000000
 30
0.000000000
 40
0.160000000
100
AcDbArc
 50
0.000000000
 51
180.000000000
  0
LINE
  5
C64
330
A02
100
AcDbEntity
  8
Shape2DView005
100
AcDbLine
 10
359.390000000
 20
567.000000000
 30
0.000000000
 11
389.610000000
 21
567.000000000
 31
0.000000000
  0
ARC
  5
C65
330
A02
100
AcDbEntity
  8
Shape2DView005
100
AcDbCircle
 10
359.230000000
 20
567.000000000
 30
0.000000000
 40
0.160000000
100
AcDbArc
 50
0.000000000
 51
180.000000000
  0
ARC
  5
C66
330
A02
100
AcDbEntity
  8
Shape2DView005
100
AcDbCircle
 10
359.230000000
 20
567.000000000
 30
0.000000000
 40
0.160000000
100
AcDbArc
 50
180.000000000
 51
-90.000000000
  0
LINE
  5
C67
330
A02
100
AcDbEntity
  8
Shape2DView005
100
AcDbLine
 10
389.770000000
 20
566.840000000
 30
0.000000000
 11
389.770000000
 21
564.600000000
 31
0.000000000
  0
LINE
  5
C68
330
A02
100
AcDbEntity
  8
Shape2DView005
100
AcDbLine
 10
359.230000000
 20
566.840000000
 30
0.000000000
 11
359.230000000
 21
564.600000000
 31
0.000000000
  0
LINE
  5
C69
330
A02
100
AcDbEntity
  8
Shape2DView005
100
AcDbLine
 10
359.230000000
 20
564.600000000
 30
0.000000000
 11
339.070000000
 21
564.600000000
 31
0.000000000
  0
ARC
  5
C6A
330
A02
100
AcDbEntity
  8
Shape2DView005
100
AcDbCircle
 10
339.070000000
 20
567.000000000
 30
0.000000000
 40
0.160000000
100
AcDbArc
 50
-90.000000000
 51
0.000000000
  0
ARC
  5
C6B
330
A02
100
AcDbEntity
  8
Shape2DView005
100
AcDbCircle
 10
339.070000000
 20
567.000000000
 30
0.000000000
 40
0.160000000
100
AcDbArc
 50
0.000000000
 51
180.000000000
  0
LINE
  5
C6C
330
A02
100
AcDbEntity
  8
Shape2DView005
100
AcDbLine
 10
323.800000000
 20
567.000000000
 30
0.000000000
 11
338.910000000
 21
567.000000000
 31
0.000000000
  0
LINE
  5
C6D
330
A02
100
AcDbEntity
  8
Shape2DView005
100
AcDbLine
 10
323.800000000
 20
601.000000000
 30
0.000000000
 11
323.800000000
 21
567.000000000
 31
0.000000000
  0
LINE
  5
C6E
330
A02
100
AcDbEntity
  8
Shape2DView005
100
AcDbLine
 10
321.400000000
 20
601.000000000
 30
0.000000000
 11
323.800000000
 21
601.000000000
 31
0.000000000
  0
LINE
  5
C6F
330
A02
100
AcDbEntity
  8
Shape2DView005
100
AcDbLine
 10
321.400000000
 20
567.000000000
 30
0.000000000
 11
321.400000000
 21
601.000000000
 31
0.000000000
  0
LINE
  5
C70
330
A02
100
AcDbEntity
  8
Shape2DView005
100
AcDbLine
 10
306.290000000
 20
567.000000000
 30
0.000000000
 11
321.400000000
 21
567.000000000
 31
0.000000000
  0
ARC
  5
C71
330
A02
100
AcDbEntity
  8
Shape2DView005
100
AcDbCircle
 10
306.130000000
 20
567.000000000
 30
0.000000000
 40
0.160000000
100
AcDbArc
 50
0.000000000
 51
180.000000000
  0
ARC
  5
C72
330
A02
100
AcDbEntity
  8
Shape2DView005
100
AcDbCircle
 10
306.130000000
 20
567.000000000
 30
0.000000000
 40
0.160000000
100
AcDbArc
 50
180.000000000
 51
-90.000000000
  0
LINE
  5
C73
330
A02
100
AcDbEntity
  8
Shape2DView005
100
AcDbLine
 10
339.070000000
 20
566.840000000
 30
0.000000000
 11
339.070000000
 21
564.600000000
 31
0.000000000
  0
LINE
  5
C74
330
A02
100
AcDbEntity
  8
Shape2DView005
100
AcDbLine
 10
306.130000000
 20
566.840000000
 30
0.000000000
 11
306.130000000
 21
564.600000000
 31
0.000000000
  0
LINE
  5
C75
330
A02
100
AcDbEntity
  8
Shape2DView005
100
AcDbLine
 10
306.130000000
 20
564.600000000
 30
0.000000000
 11
285.970000000
 21
564.600000000
 31
0.000000000
  0
ARC
  5
C76
330
A02
100
AcDbEntity
  8
Shape2DView005
100
AcDbCircle
 10
285.970000000
 20
567.000000000
 30
0.000000000
 40
0.160000000
100
AcDbArc
 50
-90.000000000
 51
0.000000000
  0
ARC
  5
C77
330
A02
100
AcDbEntity
  8
Shape2DView005
100
AcDbCircle
 10
285.970000000
 20
567.000000000
 30
0.000000000
 40
0.160000000
100
AcDbArc
 50
0.000000000
 51
180.000000000
  0
LINE
  5
C78
330
A02
100
AcDbEntity
  8
Shape2DView005
100
AcDbLine
 10
255.590000000
 20
567.000000000
 30
0.000000000
 11
285.810000000
 21
567.000000000
 31
0.000000000
  0
ARC
  5
C79
330
A02
100
AcDbEntity
  8
Shape2DView005
100
AcDbCircle
 10
255.430000000
 20
567.000000000
 30
0.000000000
 40
0.160000000
100
AcDbArc
 50
0.000000000
 51
180.000000000
  0
ARC
  5
C7A
330
A02
100
AcDbEntity
  8
Shape2DView005
100
AcDbCircle
 10
255.430000000
 20
567.000000000
 30
0.000000000
 40
0.160000000
100
AcDbArc
 50
180.000000000
 51
-90.000000000
  0
LINE
  5
C7B
330
A02
100
AcDbEntity
  8
Shape2DView005
100
AcDbLine
 10
285.970000000
 20
566.840000000
 30
0.000000000
 11
285.970000000
 21
564.600000000
 31
0.000000000
  0
LINE
  5
C7C
330
A02
100
AcDbEntity
  8
Shape2DView005
100
AcDbLine
 10
255.430000000
 20
566.840000000
 30
0.000000000
 11
255.430000000
 21
564.600000000
 31
0.000000000
  0
LINE
  5
C7D
330
A02
100
AcDbEntity
  8
Shape2DView005
100
AcDbLine
 10
235.270000000
 20
566.840000000
 30
0.000000000
 11
235.270000000
 21
564.600000000
 31
0.000000000
  0
LINE
  5
C7E
330
A02
100
AcDbEntity
  8
Shape2DView005
100
AcDbLine
 10
255.430000000
 20
564.600000000
 30
0.000000000
 11
235.270000000
 21
564.600000000
 31
0.000000000
  0
ARC
  5
C7F
330
A02
100
AcDbEntity
  8
Shape2DView006
100
AcDbCircle
 10
125.000000000
 20
1046.830000000
 30
0.000000000
 40
0.160000000
100
AcDbArc
 50
90.000000000
 51
-90.000000000
  0
ARC
  5
C80
330
A02
100
AcDbEntity
  8
Shape2DView006
100
AcDbCircle
 10
125.000000000
 20
1046.830000000
 30
0.000000000
 40
0.160000000
100
AcDbArc
 50
-90.000000000
 51
0.000000000
  0
LINE
  5
C81
330
A02
100
AcDbEntity
  8
Shape2DView006
100
AcDbLine
 10
125.000000000
 20
1046.990000000
 30
0.000000000
 11
125.000000000
 21
1067.400000000
 31
0.000000000
  0
LINE
  5
C82
330
A02
100
AcDbEntity
  8
Shape2DView006
100
AcDbLine
 10
125.000000000
 20
1067.400000000
 30
0.000000000
 11
0.000000000
 21
1067.400000000
 31
0.000000000
  0
LINE
  5
C83
330
A02
100
AcDbEntity
  8
Shape2DView006
100
AcDbLine
 10
-0.000000000
 20
1067.400000000
 30
0.000000000
 11
0.000000000
 21
1044.166004419
 31
0.000000000
  0
ARC
  5
C84
330
A02
100
AcDbEntity
  8
Shape2DView006
100
AcDbCircle
 10
-57.891252931
 20
944.800000000
 30
0.000000000
 40
115.000000000
100
AcDbArc
 50
2.491906369
 51
59.774655873
  0
LINE
  5
C85
330
A02
100
AcDbEntity
  8
Shape2DView006
100
AcDbLine
 10
57.000000000
 20
946.000000000
 30
0.000000000
 11
57.000000000
 21
949.800000000
 31
0.000000000
  0
LINE
  5
C86
330
A02
100
AcDbEntity
  8
Shape2DView006
100
AcDbLine
 10
57.000000000
 20
946.000000000
 30
0.000000000
 11
91.000000000
 21
946.000000000
 31
0.000000000
  0
LINE
  5
C87
330
A02
100
AcDbEntity
  8
Shape2DView006
100
AcDbLine
 10
91.000000000
 20
946.000000000
 30
0.000000000
 11
91.000000000
 21
943.600000000
 31
0.000000000
  0
ARC
  5
C88
330
A02
100
AcDbEntity
  8
Shape2DView006
100
AcDbCircle
 10
-57.891252931
 20
944.800000000
 30
0.000000000
 40
115.000000000
100
AcDbArc
 50
-59.774655873
 51
-2.491906369
  0
LINE
  5
C89
330
A02
100
AcDbEntity
  8
Shape2DView006
100
AcDbLine
 10
57.000000000
 20
939.800000000
 30
0.000000000
 11
57.000000000
 21
943.600000000
 31
0.000000000
  0
LINE
  5
C8A
330
A02
100
AcDbEntity
  8
Shape2DView006
100
AcDbLine
 10
0.000000000
 20
845.433995581
 30
0.000000000
 11
0.000000000
 21
822.200000000
 31
0.000000000
  0
LINE
  5
C8B
330
A02
100
AcDbEntity
  8
Shape2DView006
100
AcDbLine
 10
91.000000000
 20
943.600000000
 30
0.000000000
 11
57.000000000
 21
943.600000000
 31
0.000000000
  0
LINE
  5
C8C
330
A02
100
AcDbEntity
  8
Shape2DView006
100
AcDbLine
 10
125.000000000
 20
822.200000000
 30
0.000000000
 11
0.000000000
 21
822.200000000
 31
0.000000000
  0
LINE
  5
C8D
330
A02
100
AcDbEntity
  8
Shape2DView006
100
AcDbLine
 10
125.000000000
 20
822.200000000
 30
0.000000000
 11
125.000000000
 21
842.610000000
 31
0.000000000
  0
ARC
  5
C8E
330
A02
100
AcDbEntity
  8
Shape2DView006
100
AcDbCircle
 10
125.000000000
 20
842.770000000
 30
0.000000000
 40
0.160000000
100
AcDbArc
 50
0.000000000
 51
90.000000000
  0
ARC
  5
C8F
330
A02
100
AcDbEntity
  8
Shape2DView006
100
AcDbCircle
 10
125.000000000
 20
842.770000000
 30
0.000000000
 40
0.160000000
100
AcDbArc
 50
90.000000000
 51
-90.000000000
  0
LINE
  5
C90
330
A02
100
AcDbEntity
  8
Shape2DView006
100
AcDbLine
 10
125.160000000
 20
842.770000000
 30
0.000000000
 11
127.400000000
 21
842.770000000
 31
0.000000000
  0
LINE
  5
C91
330
A02
100
AcDbEntity
  8
Shape2DView006
100
AcDbLine
 10
127.400000000
 20
862.930000000
 30
0.000000000
 11
127.400000000
 21
842.770000000
 31
0.000000000
  0
LINE
  5
C92
330
A02
100
AcDbEntity
  8
Shape2DView006
100
AcDbLine
 10
125.160000000
 20
862.930000000
 30
0.000000000
 11
127.400000000
 21
862.930000000
 31
0.000000000
  0
ARC
  5
C93
330
A02
100
AcDbEntity
  8
Shape2DView006
100
AcDbCircle
 10
125.000000000
 20
862.930000000
 30
0.000000000
 40
0.160000000
100
AcDbArc
 50
90.000000000
 51
-90.000000000
  0
ARC
  5
C94
330
A02
100
AcDbEntity
  8
Shape2DView006
100
AcDbCircle
 10
125.000000000
 20
862.930000000
 30
0.000000000
 40
0.160000000
100
AcDbArc
 50
-90.000000000
 51
0.000000000
  0
LINE
  5
C95
330
A02
100
AcDbEntity
  8
Shape2DView006
100
AcDbLine
 10
125.000000000
 20
863.090000000
 30
0.000000000
 11
125.000000000
 21
903.910000000
 31
0.000000000
  0
ARC
  5
C96
330
A02
100
AcDbEntity
  8
Shape2DView006
100
AcDbCircle
 10
125.000000000
 20
904.070000000
 30
0.000000000
 40
0.160000000
100
AcDbArc
 50
0.000000000
 51
90.000000000
  0
ARC
  5
C97
330
A02
100
AcDbEntity
  8
Shape2DView006
100
AcDbCircle
 10
125.000000000
 20
904.070000000
 30
0.000000000
 40
0.160000000
100
AcDbArc
 50
90.000000000
 51
-90.000000000
  0
LINE
  5
C98
330
A02
100
AcDbEntity
  8
Shape2DView006
100
AcDbLine
 10
125.160000000
 20
904.070000000
 30
0.000000000
 11
127.400000000
 21
904.070000000
 31
0.000000000
  0
LINE
  5
C99
330
A02
100
AcDbEntity
  8
Shape2DView006
100
AcDbLine
 10
127.400000000
 20
924.230000000
 30
0.000000000
 11
127.400000000
 21
904.070000000
 31
0.000000000
  0
LINE
  5
C9A
330
A02
100
AcDbEntity
  8
Shape2DView006
100
AcDbLine
 10
125.160000000
 20
924.230000000
 30
0.000000000
 11
127.400000000
 21
924.230000000
 31
0.000000000
  0
ARC
  5
C9B
330
A02
100
AcDbEntity
  8
Shape2DView006
100
AcDbCircle
 10
125.000000000
 20
924.230000000
 30
0.000000000
 40
0.160000000
100
AcDbArc
 50
90.000000000
 51
-90.000000000
  0
ARC
  5
C9C
330
A02
100
AcDbEntity
  8
Shape2DView006
100
AcDbCircle
 10
125.000000000
 20
924.230000000
 30
0.000000000
 40
0.160000000
100
AcDbArc
 50
-90.000000000
 51
0.000000000
  0
LINE
  5
C9D
330
A02
100
AcDbEntity
  8
Shape2DView006
100
AcDbLine
 10
125.000000000
 20
924.390000000
 30
0.000000000
 11
125.000000000
 21
965.210000000
 31
0.000000000
  0
ARC
  5
C9E
330
A02
100
AcDbEntity
  8
Shape2DView006
100
AcDbCircle
 10
125.000000000
 20
965.370000000
 30
0.000000000
 40
0.160000000
100
AcDbArc
 50
0.000000000
 51
90.000000000
  0
ARC
  5
C9F
330
A02
100
AcDbEntity
  8
Shape2DView006
100
AcDbCircle
 10
125.000000000
 20
965.370000000
 30
0.000000000
 40
0.160000000
100
AcDbArc
 50
90.000000000
 51
-90.000000000
  0
LINE
  5
CA0
330
A02
100
AcDbEntity
  8
Shape2DView006
100
AcDbLine
 10
125.160000000
 20
965.370000000
 30
0.000000000
 11
127.400000000
 21
965.370000000
 31
0.000000000
  0
LINE
  5
CA1
330
A02
100
AcDbEntity
  8
Shape2DView006
100
AcDbLine
 10
127.400000000
 20
985.530000000
 30
0.000000000
 11
127.400000000
 21
965.370000000
 31
0.000000000
  0
LINE
  5
CA2
330
A02
100
AcDbEntity
  8
Shape2DView006
100
AcDbLine
 10
125.160000000
 20
985.530000000
 30
0.000000000
 11
127.400000000
 21
985.530000000
 31
0.000000000
  0
ARC
  5
CA3
330
A02
100
AcDbEntity
  8
Shape2DView006
100
AcDbCircle
 10
125.000000000
 20
985.530000000
 30
0.000000000
 40
0.160000000
100
AcDbArc
 50
90.000000000
 51
-90.000000000
  0
ARC
  5
CA4
330
A02
100
AcDbEntity
  8
Shape2DView006
100
AcDbCircle
 10
125.000000000
 20
985.530000000
 30
0.000000000
 40
0.160000000
100
AcDbArc
 50
-90.000000000
 51
0.000000000
  0
LINE
  5
CA5
330
A02
100
AcDbEntity
  8
Shape2DView006
100
AcDbLine
 10
125.000000000
 20
985.690000000
 30
0.000000000
 11
125.000000000
 21
1026.510000000
 31
0.000000000
  0
ARC
  5
CA6
330
A02
100
AcDbEntity
  8
Shape2DView006
100
AcDbCircle
 10
125.000000000
 20
1026.670000000
 30
0.000000000
 40
0.160000000
100
AcDbArc
 50
0.000000000
 51
90.000000000
  0
ARC
  5
CA7
330
A02
100
AcDbEntity
  8
Shape2DView006
100
AcDbCircle
 10
125.000000000
 20
1026.670000000
 30
0.000000000
 40
0.160000000
100
AcDbArc
 50
90.000000000
 51
-90.000000000
  0
LINE
  5
CA8
330
A02
100
AcDbEntity
  8
Shape2DView006
100
AcDbLine
 10
125.160000000
 20
1026.670000000
 30
0.000000000
 11
127.400000000
 21
1026.670000000
 31
0.000000000
  0
LINE
  5
CA9
330
A02
100
AcDbEntity
  8
Shape2DView006
100
AcDbLine
 10
127.400000000
 20
1046.830000000
 30
0.000000000
 11
127.400000000
 21
1026.670000000
 31
0.000000000
  0
LINE
  5
CAA
330
A02
100
AcDbEntity
  8
Shape2DView006
100
AcDbLine
 10
125.160000000
 20
1046.830000000
 30
0.000000000
 11
127.400000000
 21
1046.830000000
 31
0.000000000
  0
ENDSEC
  0
SECTION
  2
OBJECTS
  0
DICTIONARY
  5
F000
330
0
100
AcDbDictionary
  3
ACAD_GROUP
350
F001
  0
DICTIONARY
  5
F001
330
F000
100
AcDbDictionary
  0
ENDSEC
  0
EOF