999
dxfrw 0.6.3
  0
SECTION
  2
HEADER
  9
$ACADVER
  1
AC1021
  9
$DWGCODEPAGE
  3
ANSI_1252
  9
$INSBASE
 10
0
 20
0
 30
0
  9
$EXTMIN
 10
-10
 20
-10
 30
0
  9
$EXTMAX
 10
900
 20
600
 30
0
  9
$LIMMIN
 10
0
 20
0
  9
$LIMMAX
 10
420
 20
297
  9
$ORTHOMODE
 70
    0
  9
$REGENMODE
 70
    1
  9
$FILLMODE
 70
    1
  9
$QTEXTMODE
 70
    0
  9
$MIRRTEXT
 70
    0
  9
$LTSCALE
 40
1
  9
$ATTMODE
 70
    0
  9
$TEXTSIZE
 40
2.5
  9
$TRACEWID
 40
15.68
  9
$TEXTSTYLE
  7
STANDARD
  9
$CLAYER
  8
0
  9
$CELTYPE
  6
BYLAYER
  9
$CECOLOR
 62
  256
  9
$CELTSCALE
 40
1
  9
$DISPSILH
 70
    0
  9
$DIMSCALE
 40
1
  9
$DIMASZ
 40
2.5
  9
$DIMEXO
 40
0.625
  9
$DIMDLI
 40
3.75
  9
$DIMRND
 40
0
  9
$DIMDLE
 40
0
  9
$DIMEXE
 40
1.25
  9
$DIMTP
 40
0
  9
$DIMTM
 40
0
  9
$DIMTXT
 40
2.5
  9
$DIMCEN
 40
2.5
  9
$DIMTSZ
 40
0
  9
$DIMTOL
 70
    0
  9
$DIMLIM
 70
    0
  9
$DIMTIH
 70
    0
  9
$DIMTOH
 70
    0
  9
$DIMSE1
 70
    0
  9
$DIMSE2
 70
    0
  9
$DIMTAD
 70
    1
  9
$DIMZIN
 70
    1
  9
$DIMBLK
  1

  9
$DIMASO
 70
    1
  9
$DIMSHO
 70
    1
  9
$DIMPOST
  1

  9
$DIMAPOST
  1

  9
$DIMALT
 70
    0
  9
$DIMALTD
 70
    3
  9
$DIMALTF
 40
0.03937
  9
$DIMLFAC
 40
1
  9
$DIMTOFL
 70
    1
  9
$DIMTVP
 40
0
  9
$DIMTIX
 70
    0
  9
$DIMSOXD
 70
    0
  9
$DIMSAH
 70
    0
  9
$DIMBLK1
  1

  9
$DIMBLK2
  1

  9
$DIMSTYLE
  2
STANDARD
  9
$DIMCLRD
 70
    0
  9
$DIMCLRE
 70
    0
  9
$DIMCLRT
 70
    0
  9
$DIMTFAC
 40
1
  9
$DIMGAP
 40
0.625
  9
$DIMJUST
 70
    0
  9
$DIMSD1
 70
    0
  9
$DIMSD2
 70
    0
  9
$DIMTOLJ
 70
    0
  9
$DIMTZIN
 70
    8
  9
$DIMALTZ
 70
    0
  9
$DIMALTTZ
 70
    0
  9
$DIMUPT
 70
    0
  9
$DIMDEC
 70
    2
  9
$DIMTDEC
 70
    2
  9
$DIMALTU
 70
    2
  9
$DIMALTTD
 70
    3
  9
$DIMTXSTY
  7
standard
  9
$DIMAUNIT
 70
    0
  9
$DIMADEC
 70
    0
  9
$DIMALTRND
 40
0
  9
$DIMAZIN
 70
    0
  9
$DIMDSEP
 70
    0
  9
$DIMATFIT
 70
    3
  9
$DIMFRAC
 70
    0
  9
$DIMLDRBLK
  1
STANDARD
  9
$DIMLUNIT
 70
    2
  9
$DIMLWD
 70
   -2
  9
$DIMLWE
 70
   -2
  9
$DIMTMOVE
 70
    0
  9
$DIMFXL
 40
1
  9
$DIMFXLON
 70
    0
  9
$DIMJOGANG
 40
0.7854
  9
$DIMTFILL
 70
    0
  9
$DIMTFILLCLR
 70
    0
  9
$DIMARCSYM
 70
    0
  9
$DIMLTYPE
  6

  9
$DIMLTEX1
  6

  9
$DIMLTEX2
  6

  9
$LUNITS
 70
    2
  9
$LUPREC
 70
    4
  9
$SKETCHINC
 40
1
  9
$FILLETRAD
 40
0
  9
$AUNITS
 70
    0
  9
$AUPREC
 70
    2
  9
$MENU
  1
.
  9
$ELEVATION
 40
0
  9
$PELEVATION
 40
0
  9
$THICKNESS
 40
0
  9
$LIMCHECK
 70
    0
  9
$CHAMFERA
 40
0
  9
$CHAMFERB
 40
0
  9
$CHAMFERC
 40
0
  9
$CHAMFERD
 40
0
  9
$SKPOLY
 70
    0
  9
$USRTIMER
 70
    1
  9
$ANGBASE
 50
0
  9
$ANGDIR
 70
    0
  9
$PDMODE
 70
   34
  9
$PDSIZE
 40
0
  9
$PLINEWID
 40
0
  9
$SPLFRAME
 70
    0
  9
$SPLINETYPE
 70
    2
  9
$SPLINESEGS
 70
    8
  9
$HANDSEED
  5
20000
  9
$SURFTAB1
 70
    6
  9
$SURFTAB2
 70
    6
  9
$SURFTYPE
 70
    6
  9
$SURFU
 70
    6
  9
$SURFV
 70
    6
  9
$UCSBASE
  2

  9
$UCSNAME
  2

  9
$UCSORG
 10
0
 20
0
 30
0
  9
$UCSXDIR
 10
1
 20
0
 30
0
  9
$UCSYDIR
 10
0
 20
1
 30
0
  9
$UCSORTHOREF
  2

  9
$UCSORTHOVIEW
 70
    0
  9
$UCSORGTOP
 10
0
 20
0
 30
0
  9
$UCSORGBOTTOM
 10
0
 20
0
 30
0
  9
$UCSORGLEFT
 10
0
 20
0
 30
0
  9
$UCSORGRIGHT
 10
0
 20
0
 30
0
  9
$UCSORGFRONT
 10
0
 20
0
 30
0
  9
$UCSORGBACK
 10
0
 20
0
 30
0
  9
$PUCSBASE
  2

  9
$PUCSNAME
  2

  9
$PUCSORG
 10
0
 20
0
 30
0
  9
$PUCSXDIR
 10
1
 20
0
 30
0
  9
$PUCSYDIR
 10
0
 20
1
 30
0
  9
$PUCSORTHOREF
  2

  9
$PUCSORTHOVIEW
 70
    0
  9
$PUCSORGTOP
 10
0
 20
0
 30
0
  9
$PUCSORGBOTTOM
 10
0
 20
0
 30
0
  9
$PUCSORGLEFT
 10
0
 20
0
 30
0
  9
$PUCSORGRIGHT
 10
0
 20
0
 30
0
  9
$PUCSORGFRONT
 10
0
 20
0
 30
0
  9
$PUCSORGBACK
 10
0
 20
0
 30
0
  9
$USERI1
 70
    0
  9
$USERI2
 70
    0
  9
$USERI3
 70
    0
  9
$USERI4
 70
    0
  9
$USERI5
 70
    0
  9
$USERR1
 40
0
  9
$USERR2
 40
0
  9
$USERR3
 40
0
  9
$USERR4
 40
0
  9
$USERR5
 40
0
  9
$WORLDVIEW
 70
    1
  9
$SHADEDGE
 70
    3
  9
$SHADEDIF
 70
   70
  9
$TILEMODE
 70
    1
  9
$MAXACTVP
 70
   64
  9
$PINSBASE
 10
0
 20
0
 30
0
  9
$PLIMCHECK
 70
    0
  9
$PEXTMIN
 10
0
 20
0
 30
0
  9
$PEXTMAX
 10
50
 20
50
 30
50
  9
$GRIDMODE
 70
    1
  9
$SNAPSTYLE
 70
    0
  9
$GRIDUNIT
 10
1
 20
1
  9
$PLIMMIN
 10
0
 20
0
  9
$PLIMMAX
 10
120
 20
90
  9
$UNITMODE
 70
    0
  9
$VISRETAIN
 70
    1
  9
$PLINEGEN
 70
    0
  9
$PSLTSCALE
 70
    1
  9
$TREEDEPTH
 70
 3020
  9
$CMLSTYLE
  2
STANDARD
  9
$CMLJUST
 70
    0
  9
$CMLSCALE
 40
20
  9
$PROXYGRAPHICS
 70
    1
  9
$MEASUREMENT
 70
    1
  9
$CELWEIGHT
370
   -1
  9
$ENDCAPS
280
    0
  9
$JOINSTYLE
280
    0
  9
$LWDISPLAY
290
    0
  9
$INSUNITS
 70
    4
  9
$HYPERLINKBASE
  1

  9
$STYLESHEET
  1

  9
$XEDIT
290
    1
  9
$CEPSNTYPE
380
    0
  9
$PSTYLEMODE
290
    1
  9
$EXTNAMES
290
    1
  9
$PSVPSCALE
 40
1
  9
$OLESTARTUP
290
    0
  9
$SORTENTS
280
  127
  9
$INDEXCTL
280
    0
  9
$HIDETEXT
280
    1
  9
$XCLIPFRAME
290
    0
  9
$HALOGAP
280
    0
  9
$OBSCOLOR
 70
  257
  9
$OBSLTYPE
280
    0
  9
$INTERSECTIONDISPLAY
280
    0
  9
$INTERSECTIONCOLOR
 70
  257
  9
$DIMASSOC
280
    1
  9
$PROJECTNAME
  1

  9
$CAMERADISPLAY
290
    0
  9
$LENSLENGTH
 40
50
  9
$CAMERAHEIGHT
 40
0
  9
$STEPSPERSEC
 40
2
  9
$STEPSIZE
 40
50
  9
$3DDWFPREC
 40
2
  9
$PSOLWIDTH
 40
5
  9
$PSOLHEIGHT
 40
80
  9
$LOFTANG1
 40
1.570796326794897
  9
$LOFTANG2
 40
1.570796326794897
  9
$LOFTMAG1
 40
0
  9
$LOFTMAG2
 40
0
  9
$LOFTPARAM
 70
    7
  9
$LOFTNORMALS
280
    1
  9
$LATITUDE
 40
1
  9
$LONGITUDE
 40
1
  9
$NORTHDIRECTION
 40
0
  9
$TIMEZONE
 70
-8000
  9
$LIGHTGLYPHDISPLAY
280
    1
  9
$TILEMODELIGHTSYNCH
280
    1
  9
$SOLIDHIST
280
    1
  9
$SHOWHIST
280
    1
  9
$DWFFRAME
280
    2
  9
$DGNFRAME
280
    0
  9
$REALWORLDSCALE
290
    1
  9
$INTERFERECOLOR
 62
    1
  9
$CSHADOW
280
    0
  9
$SHADOWPLANELOCATION
 40
0
  0
ENDSEC
  0
SECTION
  2
CLASSES
  0
ENDSEC
  0
SECTION
  2
TABLES
  0
TABLE
  2
VPORT
  5
8
330
0
100
AcDbSymbolTable
 70
    1
  0
VPORT
  5
31
330
2
100
AcDbSymbolTableRecord
100
AcDbViewportTableRecord
  2
*ACTIVE
 70
    0
 10
0
 20
0
 11
1
 21
1
 12
690.9766810987439
 22
404.7769955762633
 13
0
 23
0
 14
10
 24
10
 15
1
 25
1
 16
0
 26
0
 36
1
 17
0
 27
0
 37
0
 40
990.8344861038593
 41
1.893483709273183
 42
50
 43
0
 44
0
 50
0
 51
0
 71
    0
 72
  100
 73
    1
 74
    3
 75
    0
 76
    1
 77
    0
 78
    0
281
    0
 65
    1
110
0
120
0
130
0
111
1
121
0
131
0
112
0
122
1
132
0
 79
    0
146
0
348
10020
 60
    3
 61
    5
292
1
282
    1
141
0
142
0
 63
  250
421
3358443
  0
ENDTAB
  0
TABLE
  2
LTYPE
  5
5
330
0
100
AcDbSymbolTable
 70
    4
  0
LTYPE
  5
14
330
5
100
AcDbSymbolTableRecord
100
AcDbLinetypeTableRecord
  2
ByBlock
 70
    0
  3

 72
   65
 73
    0
 40
0
  0
LTYPE
  5
15
330
5
100
AcDbSymbolTableRecord
100
AcDbLinetypeTableRecord
  2
ByLayer
 70
    0
  3

 72
   65
 73
    0
 40
0
  0
LTYPE
  5
16
330
5
100
AcDbSymbolTableRecord
100
AcDbLinetypeTableRecord
  2
Continuous
 70
    0
  3
Solid line
 72
   65
 73
    0
 40
0
  0
LTYPE
  5
32
330
5
100
AcDbSymbolTableRecord
100
AcDbLinetypeTableRecord
  2
DOT
 70
    0
  3
Dot . . . . . . . . . . . . . . . . . . . . . .
 72
   65
 73
    2
 40
6.35
 49
0
 74
    0
 49
-6.35
 74
    0
  0
LTYPE
  5
33
330
5
100
AcDbSymbolTableRecord
100
AcDbLinetypeTableRecord
  2
DOTTINY
 70
    0
  3
Dot (.15x) .....................................
 72
   65
 73
    2
 40
0.9525
 49
0
 74
    0
 49
-0.9525
 74
    0
  0
LTYPE
  5
34
330
5
100
AcDbSymbolTableRecord
100
AcDbLinetypeTableRecord
  2
DOT2
 70
    0
  3
Dot (.5x) .....................................
 72
   65
 73
    2
 40
3.175
 49
0
 74
    0
 49
-3.175
 74
    0
  0
LTYPE
  5
35
330
5
100
AcDbSymbolTableRecord
100
AcDbLinetypeTableRecord
  2
DOTX2
 70
    0
  3
Dot (2x) .  .  .  .  .  .  .  .  .  .  .  .  .
 72
   65
 73
    2
 40
12.7
 49
0
 74
    0
 49
-12.7
 74
    0
  0
LTYPE
  5
36
330
5
100
AcDbSymbolTableRecord
100
AcDbLinetypeTableRecord
  2
DASHED
 70
    0
  3
Dashed _ _ _ _ _ _ _ _ _ _ _ _ _ _ _ _ _
 72
   65
 73
    2
 40
19.05
 49
12.7
 74
    0
 49
-6.35
 74
    0
  0
LTYPE
  5
37
330
5
100
AcDbSymbolTableRecord
100
AcDbLinetypeTableRecord
  2
DASHEDTINY
 70
    0
  3
Dashed (.15x) _ _ _ _ _ _ _ _ _ _ _ _ _ _ _ _ _
 72
   65
 73
    2
 40
2.8575
 49
1.905
 74
    0
 49
-0.9525
 74
    0
  0
LTYPE
  5
38
330
5
100
AcDbSymbolTableRecord
100
AcDbLinetypeTableRecord
  2
DASHED2
 70
    0
  3
Dashed (.5x) _ _ _ _ _ _ _ _ _ _ _ _ _ _ _ _ _
 72
   65
 73
    2
 40
9.524999999999999
 49
6.35
 74
    0
 49
-3.175
 74
    0
  0
LTYPE
  5
39
330
5
100
AcDbSymbolTableRecord
100
AcDbLinetypeTableRecord
  2
DASHEDX2
 70
    0
  3
Dashed (2x) ____  ____  ____  ____  ____  ___
 72
   65
 73
    2
 40
38.09999999999999
 49
25.4
 74
    0
 49
-12.7
 74
    0
  0
LTYPE
  5
3A
330
5
100
AcDbSymbolTableRecord
100
AcDbLinetypeTableRecord
  2
DASHDOT
 70
    0
  3
Dash dot __ . __ . __ . __ . __ . __ . __ . __
 72
   65
 73
    4
 40
25.4
 49
12.7
 74
    0
 49
-6.35
 74
    0
 49
0
 74
    0
 49
-6.35
 74
    0
  0
LTYPE
  5
3B
330
5
100
AcDbSymbolTableRecord
100
AcDbLinetypeTableRecord
  2
DASHDOTTINY
 70
    0
  3
Dash dot (.15x) _._._._._._._._._._._._._._._.
 72
   65
 73
    4
 40
3.81
 49
1.905
 74
    0
 49
-0.9525
 74
    0
 49
0
 74
    0
 49
-0.9525
 74
    0
  0
LTYPE
  5
3C
330
5
100
AcDbSymbolTableRecord
100
AcDbLinetypeTableRecord
  2
DASHDOT2
 70
    0
  3
Dash dot (.5x) _._._._._._._._._._._._._._._.
 72
   65
 73
    4
 40
12.7
 49
6.35
 74
    0
 49
-3.175
 74
    0
 49
0
 74
    0
 49
-3.175
 74
    0
  0
LTYPE
  5
3D
330
5
100
AcDbSymbolTableRecord
100
AcDbLinetypeTableRecord
  2
DASHDOTX2
 70
    0
  3
Dash dot (2x) ____  .  ____  .  ____  .  ___
 72
   65
 73
    4
 40
50.8
 49
25.4
 74
    0
 49
-12.7
 74
    0
 49
0
 74
    0
 49
-12.7
 74
    0
  0
LTYPE
  5
3E
330
5
100
AcDbSymbolTableRecord
100
AcDbLinetypeTableRecord
  2
DIVIDE
 70
    0
  3
Divide ____ . . ____ . . ____ . . ____ . . ____
 72
   65
 73
    6
 40
31.75
 49
12.7
 74
    0
 49
-6.35
 74
    0
 49
0
 74
    0
 49
-6.35
 74
    0
 49
0
 74
    0
 49
-6.35
 74
    0
  0
LTYPE
  5
3F
330
5
100
AcDbSymbolTableRecord
100
AcDbLinetypeTableRecord
  2
DIVIDETINY
 70
    0
  3
Divide (.15x) __..__..__..__..__..__..__..__.._
 72
   65
 73
    6
 40
4.7625
 49
1.905
 74
    0
 49
-0.9525
 74
    0
 49
0
 74
    0
 49
-0.9525
 74
    0
 49
0
 74
    0
 49
-0.9525
 74
    0
  0
LTYPE
  5
40
330
5
100
AcDbSymbolTableRecord
100
AcDbLinetypeTableRecord
  2
DIVIDE2
 70
    0
  3
Divide (.5x) __..__..__..__..__..__..__..__.._
 72
   65
 73
    6
 40
15.875
 49
6.35
 74
    0
 49
-3.175
 74
    0
 49
0
 74
    0
 49
-3.175
 74
    0
 49
0
 74
    0
 49
-3.175
 74
    0
  0
LTYPE
  5
41
330
5
100
AcDbSymbolTableRecord
100
AcDbLinetypeTableRecord
  2
DIVIDEX2
 70
    0
  3
Divide (2x) ________  .  .  ________  .  .  _
 72
   65
 73
    6
 40
63.5
 49
25.4
 74
    0
 49
-12.7
 74
    0
 49
0
 74
    0
 49
-12.7
 74
    0
 49
0
 74
    0
 49
-12.7
 74
    0
  0
LTYPE
  5
42
330
5
100
AcDbSymbolTableRecord
100
AcDbLinetypeTableRecord
  2
BORDER
 70
    0
  3
Border __ __ . __ __ . __ __ . __ __ . __ __ .
 72
   65
 73
    6
 40
44.45
 49
12.7
 74
    0
 49
-6.35
 74
    0
 49
12.7
 74
    0
 49
-6.35
 74
    0
 49
0
 74
    0
 49
-6.35
 74
    0
  0
LTYPE
  5
43
330
5
100
AcDbSymbolTableRecord
100
AcDbLinetypeTableRecord
  2
BORDERTINY
 70
    0
  3
Border (.15x) __.__.__.__.__.__.__.__.__.__.__.
 72
   65
 73
    6
 40
6.6675
 49
1.905
 74
    0
 49
-0.9525
 74
    0
 49
1.905
 74
    0
 49
-0.9525
 74
    0
 49
0
 74
    0
 49
-0.9525
 74
    0
  0
LTYPE
  5
44
330
5
100
AcDbSymbolTableRecord
100
AcDbLinetypeTableRecord
  2
BORDER2
 70
    0
  3
Border (.5x) __.__.__.__.__.__.__.__.__.__.__.
 72
   65
 73
    6
 40
22.225
 49
6.35
 74
    0
 49
-3.175
 74
    0
 49
6.35
 74
    0
 49
-3.175
 74
    0
 49
0
 74
    0
 49
-3.175
 74
    0
  0
LTYPE
  5
45
330
5
100
AcDbSymbolTableRecord
100
AcDbLinetypeTableRecord
  2
BORDERX2
 70
    0
  3
Border (2x) ____  ____  .  ____  ____  .  ___
 72
   65
 73
    6
 40
88.89999999999999
 49
25.4
 74
    0
 49
-12.7
 74
    0
 49
25.4
 74
    0
 49
-12.7
 74
    0
 49
0
 74
    0
 49
-12.7
 74
    0
  0
LTYPE
  5
46
330
5
100
AcDbSymbolTableRecord
100
AcDbLinetypeTableRecord
  2
CENTER
 70
    0
  3
Center ____ _ ____ _ ____ _ ____ _ ____ _ ____
 72
   65
 73
    4
 40
50.8
 49
31.75
 74
    0
 49
-6.35
 74
    0
 49
6.35
 74
    0
 49
-6.35
 74
    0
  0
LTYPE
  5
47
330
5
100
AcDbSymbolTableRecord
100
AcDbLinetypeTableRecord
  2
CENTERTINY
 70
    0
  3
Center (.15x) ___ _ ___ _ ___ _ ___ _ ___ _ ___
 72
   65
 73
    4
 40
7.619999999999999
 49
4.7625
 74
    0
 49
-0.9525
 74
    0
 49
0.9525
 74
    0
 49
-0.9525
 74
    0
  0
LTYPE
  5
48
330
5
100
AcDbSymbolTableRecord
100
AcDbLinetypeTableRecord
  2
CENTER2
 70
    0
  3
Center (.5x) ___ _ ___ _ ___ _ ___ _ ___ _ ___
 72
   65
 73
    4
 40
28.575
 49
19.05
 74
    0
 49
-3.175
 74
    0
 49
3.175
 74
    0
 49
-3.175
 74
    0
  0
LTYPE
  5
49
330
5
100
AcDbSymbolTableRecord
100
AcDbLinetypeTableRecord
  2
CENTERX2
 70
    0
  3
Center (2x) ________  __  ________  __  _____
 72
   65
 73
    4
 40
101.6
 49
63.5
 74
    0
 49
-12.7
 74
    0
 49
12.7
 74
    0
 49
-12.7
 74
    0
  0
ENDTAB
  0
TABLE
  2
LAYER
  5
2
330
0
100
AcDbSymbolTable
 70
    1
  0
LAYER
  5
10
330
2
100
AcDbSymbolTableRecord
100
AcDbLayerTableRecord
  2
0
 70
    0
 62
    7
  6
CONTINUOUS
370
   -3
390
F
  0
LAYER
  5
4A
330
2
100
AcDbSymbolTableRecord
100
AcDbLayerTableRecord
  2
Shape2DView
 70
    0
 62
    7
  6
CONTINUOUS
370
   -3
390
F
  0
LAYER
  5
4B
330
2
100
AcDbSymbolTableRecord
100
AcDbLayerTableRecord
  2
Shape2DView001
 70
    0
 62
    7
  6
CONTINUOUS
370
   -3
390
F
  0
LAYER
  5
4C
330
2
100
AcDbSymbolTableRecord
100
AcDbLayerTableRecord
  2
Shape2DView002
 70
    0
 62
    7
  6
CONTINUOUS
370
   -3
390
F
  0
LAYER
  5
4D
330
2
100
AcDbSymbolTableRecord
100
AcDbLayerTableRecord
  2
Shape2DView003
 70
    0
 62
    7
  6
CONTINUOUS
370
   -3
390
F
  0
LAYER
  5
4E
330
2
100
AcDbSymbolTableRecord
100
AcDbLayerTableRecord
  2
Shape2DView004
 70
    0
 62
    7
  6
CONTINUOUS
370
   -3
390
F
  0
LAYER
  5
4F
330
2
100
AcDbSymbolTableRecord
100
AcDbLayerTableRecord
  2
Shape2DView005
 70
    0
 62
    7
  6
CONTINUOUS
370
   -3
390
F
  0
LAYER
  5
50
330
2
100
AcDbSymbolTableRecord
100
AcDbLayerTableRecord
  2
Shape2DView006
 70
    0
 62
    7
  6
CONTINUOUS
370
   -3
390
F
  0
LAYER
  5
51
330
2
100
AcDbSymbolTableRecord
100
AcDbLayerTableRecord
  2
none
 70
    0
 62
    7
  6
CONTINUOUS
370
   -3
390
F
  0
ENDTAB
  0
TABLE
  2
STYLE
  5
3
330
0
100
AcDbSymbolTable
 70
    3
  0
STYLE
  5
52
330
2
100
AcDbSymbolTableRecord
100
AcDbTextStyleTableRecord
  2
Standard
 70
    0
 40
0
 41
1
 50
0
 71
    0
 42
1
  3
txt
  4

  0
ENDTAB
  0
TABLE
  2
VIEW
  5
6
330
0
100
AcDbSymbolTable
 70
    0
  0
ENDTAB
  0
TABLE
  2
UCS
  5
7
330
0
100
AcDbSymbolTable
 70
    0
  0
ENDTAB
  0
TABLE
  2
APPID
  5
9
330
0
100
AcDbSymbolTable
 70
    1
  0
APPID
  5
12
330
9
100
AcDbSymbolTableRecord
100
AcDbRegAppTableRecord
  2
ACAD
 70
    0
  0
APPID
  5
53
330
9
100
AcDbSymbolTableRecord
100
AcDbRegAppTableRecord
  2
LibreCad
 70
    0
  0
ENDTAB
  0
TABLE
  2
DIMSTYLE
  5
A
330
0
100
AcDbSymbolTable
 70
    1
100
AcDbDimStyleTable
 71
    1
  0
DIMSTYLE
105
54
330
A
100
AcDbSymbolTableRecord
100
AcDbDimStyleTableRecord
  2
Standard
 70
    0
 40
1
 41
2.5
 42
0.625
 43
0.38
 44
1.25
 45
0
 46
0
 47
0
 48
0
 49
1
140
2.5
141
0.09
142
0
143
25.4
144
1
145
0
146
1
147
0.625
148
0
 71
    0
 72
    0
 73
    0
 74
    1
 75
    0
 76
    0
 77
    0
 78
    1
 79
    0
170
    0
171
    2
172
    0
173
    0
174
    0
175
    0
176
    0
177
    0
178
    0
179
    0
271
    2
272
    4
273
    2
274
    2
275
    0
276
    0
277
    2
278
    0
279
    0
280
    0
281
    0
282
    0
283
    1
284
    0
285
    0
286
    0
288
    0
289
    3
340
standard
341

371
   -2
372
   -2
  0
ENDTAB
  0
TABLE
  2
BLOCK_RECORD
  5
1
330
0
100
AcDbSymbolTable
 70
    2
  0
BLOCK_RECORD
  5
1F
330
1
100
AcDbSymbolTableRecord
100
AcDbBlockTableRecord
  2
*Model_Space
 70
    0
280
    1
281
    0
  0
BLOCK_RECORD
  5
1E
330
1
100
AcDbSymbolTableRecord
100
AcDbBlockTableRecord
  2
*Paper_Space
 70
    0
280
    1
281
    0
  0
ENDTAB
  0
ENDSEC
  0
SECTION
  2
BLOCKS
  0
BLOCK
  5
20
330
1F
100
AcDbEntity
  8
0
100
AcDbBlockBegin
  2
*Model_Space
 70
    0
 10
0
 20
0
 30
0
  3
*Model_Space
  1

  0
ENDBLK
  5
21
330
1F
100
AcDbEntity
  8
0
100
AcDbBlockEnd
  0
BLOCK
  5
1C
330
1B
100
AcDbEntity
  8
0
100
AcDbBlockBegin
  2
*Paper_Space
 70
    0
 10
0
 20
0
 30
0
  3
*Paper_Space
  1

  0
ENDBLK
  5
1D
330
1F
100
AcDbEntity
  8
0
100
AcDbBlockEnd
  0
ENDSEC
  0
SECTION
  2
ENTITIES
  0
LINE
  5
55
100
AcDbEntity
  8
Shape2DView
  6
ByLayer
 62
  256
370
   -1
100
AcDbLine
 10
210
 20
29.005
 11
207.793135002
 21
29.005
  0
LINE
  5
56
100
AcDbEntity
  8
Shape2DView
  6
ByLayer
 62
  256
370
   -1
100
AcDbLine
 10
210
 20
29.005
 11
210
 21
2.4
  0
LINE
  5
57
100
AcDbEntity
  8
Shape2DView
  6
ByLayer
 62
  256
370
   -1
100
AcDbLine
 10
210
 20
2.4
 11
193.99
 21
2.4
  0
ARC
  5
58
100
AcDbEntity
  8
Shape2DView
  6
ByLayer
 62
  256
370
   -1
100
AcDbCircle
 10
193.83
 20
2.4
 40
0.16
100
AcDbArc
 50
0
 51
180
  0
ARC
  5
59
100
AcDbEntity
  8
Shape2DView
  6
ByLayer
 62
  256
370
   -1
100
AcDbCircle
 10
193.83
 20
2.4
 40
0.16
100
AcDbArc
 50
180
 51
-90
  0
LINE
  5
5A
100
AcDbEntity
  8
Shape2DView
  6
ByLayer
 62
  256
370
   -1
100
AcDbLine
 10
193.83
 20
2.24
 11
193.83
 21
0
  0
LINE
  5
5B
100
AcDbEntity
  8
Shape2DView
  6
ByLayer
 62
  256
370
   -1
100
AcDbLine
 10
173.67
 20
0
 11
193.83
 21
0
  0
LINE
  5
5C
100
AcDbEntity
  8
Shape2DView
  6
ByLayer
 62
  256
370
   -1
100
AcDbLine
 10
173.67
 20
2.24
 11
173.67
 21
0
  0
ARC
  5
5D
100
AcDbEntity
  8
Shape2DView
  6
ByLayer
 62
  256
370
   -1
100
AcDbCircle
 10
173.67
 20
2.4
 40
0.16
100
AcDbArc
 50
-90
 51
0
  0
ARC
  5
5E
100
AcDbEntity
  8
Shape2DView
  6
ByLayer
 62
  256
370
   -1
100
AcDbCircle
 10
173.67
 20
2.4
 40
0.16
100
AcDbArc
 50
0
 51
180
  0
LINE
  5
5F
100
AcDbEntity
  8
Shape2DView
  6
ByLayer
 62
  256
370
   -1
100
AcDbLine
 10
173.51
 20
2.4
 11
141.49
 21
2.4
  0
ARC
  5
60
100
AcDbEntity
  8
Shape2DView
  6
ByLayer
 62
  256
370
   -1
100
AcDbCircle
 10
141.33
 20
2.4
 40
0.16
100
AcDbArc
 50
0
 51
180
  0
ARC
  5
61
100
AcDbEntity
  8
Shape2DView
  6
ByLayer
 62
  256
370
   -1
100
AcDbCircle
 10
141.33
 20
2.4
 40
0.16
100
AcDbArc
 50
180
 51
-90
  0
LINE
  5
62
100
AcDbEntity
  8
Shape2DView
  6
ByLayer
 62
  256
370
   -1
100
AcDbLine
 10
141.33
 20
2.24
 11
141.33
 21
0
  0
LINE
  5
63
100
AcDbEntity
  8
Shape2DView
  6
ByLayer
 62
  256
370
   -1
100
AcDbLine
 10
121.17
 20
0
 11
141.33
 21
0
  0
LINE
  5
64
100
AcDbEntity
  8
Shape2DView
  6
ByLayer
 62
  256
370
   -1
100
AcDbLine
 10
121.17
 20
2.24
 11
121.17
 21
0
  0
ARC
  5
65
100
AcDbEntity
  8
Shape2DView
  6
ByLayer
 62
  256
370
   -1
100
AcDbCircle
 10
121.17
 20
2.4
 40
0.16
100
AcDbArc
 50
-90
 51
0
  0
ARC
  5
66
100
AcDbEntity
  8
Shape2DView
  6
ByLayer
 62
  256
370
   -1
100
AcDbCircle
 10
121.17
 20
2.4
 40
0.16
100
AcDbArc
 50
0
 51
180
  0
LINE
  5
67
100
AcDbEntity
  8
Shape2DView
  6
ByLayer
 62
  256
370
   -1
100
AcDbLine
 10
121.01
 20
2.4
 11
88.98999999999999
 21
2.4
  0
ARC
  5
68
100
AcDbEntity
  8
Shape2DView
  6
ByLayer
 62
  256
370
   -1
100
AcDbCircle
 10
88.83
 20
2.4
 40
0.16
100
AcDbArc
 50
0
 51
180
  0
ARC
  5
69
100
AcDbEntity
  8
Shape2DView
  6
ByLayer
 62
  256
370
   -1
100
AcDbCircle
 10
88.83
 20
2.4
 40
0.16
100
AcDbArc
 50
180
 51
-90
  0
LINE
  5
6A
100
AcDbEntity
  8
Shape2DView
  6
ByLayer
 62
  256
370
   -1
100
AcDbLine
 10
88.83
 20
2.24
 11
88.83
 21
0
  0
LINE
  5
6B
100
AcDbEntity
  8
Shape2DView
  6
ByLayer
 62
  256
370
   -1
100
AcDbLine
 10
68.67
 20
0
 11
88.83
 21
0
  0
LINE
  5
6C
100
AcDbEntity
  8
Shape2DView
  6
ByLayer
 62
  256
370
   -1
100
AcDbLine
 10
68.67
 20
2.24
 11
68.67
 21
0
  0
ARC
  5
6D
100
AcDbEntity
  8
Shape2DView
  6
ByLayer
 62
  256
370
   -1
100
AcDbCircle
 10
68.67
 20
2.4
 40
0.16
100
AcDbArc
 50
-90
 51
0
  0
ARC
  5
6E
100
AcDbEntity
  8
Shape2DView
  6
ByLayer
 62
  256
370
   -1
100
AcDbCircle
 10
68.67
 20
2.4
 40
0.16
100
AcDbArc
 50
0
 51
180
  0
LINE
  5
6F
100
AcDbEntity
  8
Shape2DView
  6
ByLayer
 62
  256
370
   -1
100
AcDbLine
 10
68.51000000000001
 20
2.4
 11
36.49
 21
2.4
  0
ARC
  5
70
100
AcDbEntity
  8
Shape2DView
  6
ByLayer
 62
  256
370
   -1
100
AcDbCircle
 10
36.33
 20
2.4
 40
0.16
100
AcDbArc
 50
0
 51
180
  0
ARC
  5
71
100
AcDbEntity
  8
Shape2DView
  6
ByLayer
 62
  256
370
   -1
100
AcDbCircle
 10
36.33
 20
2.4
 40
0.16
100
AcDbArc
 50
180
 51
-90
  0
LINE
  5
72
100
AcDbEntity
  8
Shape2DView
  6
ByLayer
 62
  256
370
   -1
100
AcDbLine
 10
36.33
 20
2.24
 11
36.33
 21
0
  0
LINE
  5
73
100
AcDbEntity
  8
Shape2DView
  6
ByLayer
 62
  256
370
   -1
100
AcDbLine
 10
16.17
 20
0
 11
36.33
 21
0
  0
LINE
  5
74
100
AcDbEntity
  8
Shape2DView
  6
ByLayer
 62
  256
370
   -1
100
AcDbLine
 10
16.17
 20
2.24
 11
16.17
 21
0
  0
ARC
  5
75
100
AcDbEntity
  8
Shape2DView
  6
ByLayer
 62
  256
370
   -1
100
AcDbCircle
 10
16.17
 20
2.4
 40
0.16
100
AcDbArc
 50
-90
 51
0
  0
ARC
  5
76
100
AcDbEntity
  8
Shape2DView
  6
ByLayer
 62
  256
370
   -1
100
AcDbCircle
 10
16.17
 20
2.4
 40
0.16
100
AcDbArc
 50
0
 51
180
  0
LINE
  5
77
100
AcDbEntity
  8
Shape2DView
  6
ByLayer
 62
  256
370
   -1
100
AcDbLine
 10
16.01
 20
2.4
 11
0
 21
2.4
  0
LINE
  5
78
100
AcDbEntity
  8
Shape2DView
  6
ByLayer
 62
  256
370
   -1
100
AcDbLine
 10
0
 20
2.4
 11
0
 21
29.005
  0
LINE
  5
79
100
AcDbEntity
  8
Shape2DView
  6
ByLayer
 62
  256
370
   -1
100
AcDbLine
 10
2.206864998
 20
29.005
 11
0
 21
29.005
  0
ARC
  5
7A
100
AcDbEntity
  8
Shape2DView
  6
ByLayer
 62
  256
370
   -1
100
AcDbCircle
 10
2.354666667
 20
29.090333333
 40
0.170666667
100
AcDbArc
 50
-150
 51
59.99999999999999
  0
LINE
  5
7B
100
AcDbEntity
  8
Shape2DView
  6
ByLayer
 62
  256
370
   -1
100
AcDbLine
 10
2.44
 20
29.238135002
 11
2.44
 21
48.611864998
  0
ARC
  5
7C
100
AcDbEntity
  8
Shape2DView
  6
ByLayer
 62
  256
370
   -1
100
AcDbCircle
 10
2.354666667
 20
48.759666667
 40
0.170666667
100
AcDbArc
 50
-59.99999999999999
 51
150
  0
LINE
  5
7D
100
AcDbEntity
  8
Shape2DView
  6
ByLayer
 62
  256
370
   -1
100
AcDbLine
 10
2.206864998
 20
48.845
 11
0
 21
48.845
  0
LINE
  5
7E
100
AcDbEntity
  8
Shape2DView
  6
ByLayer
 62
  256
370
   -1
100
AcDbLine
 10
0
 20
48.845
 11
0
 21
102.055
  0
LINE
  5
7F
100
AcDbEntity
  8
Shape2DView
  6
ByLayer
 62
  256
370
   -1
100
AcDbLine
 10
2.206864998
 20
102.055
 11
0
 21
102.055
  0
ARC
  5
80
100
AcDbEntity
  8
Shape2DView
  6
ByLayer
 62
  256
370
   -1
100
AcDbCircle
 10
2.354666667
 20
102.140333333
 40
0.170666667
100
AcDbArc
 50
-150
 51
59.99999999999999
  0
LINE
  5
81
100
AcDbEntity
  8
Shape2DView
  6
ByLayer
 62
  256
370
   -1
100
AcDbLine
 10
2.44
 20
102.288135002
 11
2.44
 21
121.661864998
  0
ARC
  5
82
100
AcDbEntity
  8
Shape2DView
  6
ByLayer
 62
  256
370
   -1
100
AcDbCircle
 10
2.354666667
 20
121.809666667
 40
0.170666667
100
AcDbArc
 50
-59.99999999999999
 51
150
  0
LINE
  5
83
100
AcDbEntity
  8
Shape2DView
  6
ByLayer
 62
  256
370
   -1
100
AcDbLine
 10
2.206864998
 20
121.895
 11
0
 21
121.895
  0
LINE
  5
84
100
AcDbEntity
  8
Shape2DView
  6
ByLayer
 62
  256
370
   -1
100
AcDbLine
 10
0
 20
121.895
 11
0
 21
175.105
  0
LINE
  5
85
100
AcDbEntity
  8
Shape2DView
  6
ByLayer
 62
  256
370
   -1
100
AcDbLine
 10
2.206864998
 20
175.105
 11
0
 21
175.105
  0
ARC
  5
86
100
AcDbEntity
  8
Shape2DView
  6
ByLayer
 62
  256
370
   -1
100
AcDbCircle
 10
2.354666667
 20
175.190333333
 40
0.170666667
100
AcDbArc
 50
-150
 51
59.99999999999999
  0
LINE
  5
87
100
AcDbEntity
  8
Shape2DView
  6
ByLayer
 62
  256
370
   -1
100
AcDbLine
 10
2.44
 20
175.338135002
 11
2.44
 21
194.711864998
  0
ARC
  5
88
100
AcDbEntity
  8
Shape2DView
  6
ByLayer
 62
  256
370
   -1
100
AcDbCircle
 10
2.354666667
 20
194.859666667
 40
0.170666667
100
AcDbArc
 50
-59.99999999999999
 51
150
  0
LINE
  5
89
100
AcDbEntity
  8
Shape2DView
  6
ByLayer
 62
  256
370
   -1
100
AcDbLine
 10
2.206864998
 20
194.945
 11
0
 21
194.945
  0
LINE
  5
8A
100
AcDbEntity
  8
Shape2DView
  6
ByLayer
 62
  256
370
   -1
100
AcDbLine
 10
0
 20
194.945
 11
0
 21
248.155
  0
LINE
  5
8B
100
AcDbEntity
  8
Shape2DView
  6
ByLayer
 62
  256
370
   -1
100
AcDbLine
 10
2.206864998
 20
248.155
 11
0
 21
248.155
  0
ARC
  5
8C
100
AcDbEntity
  8
Shape2DView
  6
ByLayer
 62
  256
370
   -1
100
AcDbCircle
 10
2.354666667
 20
248.240333333
 40
0.170666667
100
AcDbArc
 50
-150
 51
59.99999999999999
  0
LINE
  5
8D
100
AcDbEntity
  8
Shape2DView
  6
ByLayer
 62
  256
370
   -1
100
AcDbLine
 10
2.44
 20
248.388135002
 11
2.44
 21
267.761864998
  0
ARC
  5
8E
100
AcDbEntity
  8
Shape2DView
  6
ByLayer
 62
  256
370
   -1
100
AcDbCircle
 10
2.354666667
 20
267.909666667
 40
0.170666667
100
AcDbArc
 50
-59.99999999999999
 51
150
  0
LINE
  5
8F
100
AcDbEntity
  8
Shape2DView
  6
ByLayer
 62
  256
370
   -1
100
AcDbLine
 10
2.206864998
 20
267.995
 11
0
 21
267.995
  0
LINE
  5
90
100
AcDbEntity
  8
Shape2DView
  6
ByLayer
 62
  256
370
   -1
100
AcDbLine
 10
0
 20
294.6
 11
16.01
 21
294.6
  0
ARC
  5
91
100
AcDbEntity
  8
Shape2DView
  6
ByLayer
 62
  256
370
   -1
100
AcDbCircle
 10
16.17
 20
294.6
 40
0.16
100
AcDbArc
 50
180
 51
0
  0
ARC
  5
92
100
AcDbEntity
  8
Shape2DView
  6
ByLayer
 62
  256
370
   -1
100
AcDbCircle
 10
16.17
 20
294.6
 40
0.16
100
AcDbArc
 50
0
 51
90
  0
LINE
  5
93
100
AcDbEntity
  8
Shape2DView
  6
ByLayer
 62
  256
370
   -1
100
AcDbLine
 10
0
 20
267.995
 11
0
 21
294.6
  0
LINE
  5
94
100
AcDbEntity
  8
Shape2DView
  6
ByLayer
 62
  256
370
   -1
100
AcDbLine
 10
16.17
 20
294.76
 11
16.17
 21
297
  0
LINE
  5
95
100
AcDbEntity
  8
Shape2DView
  6
ByLayer
 62
  256
370
   -1
100
AcDbLine
 10
36.33
 20
297
 11
16.17
 21
297
  0
LINE
  5
96
100
AcDbEntity
  8
Shape2DView
  6
ByLayer
 62
  256
370
   -1
100
AcDbLine
 10
36.33
 20
294.76
 11
36.33
 21
297
  0
ARC
  5
97
100
AcDbEntity
  8
Shape2DView
  6
ByLayer
 62
  256
370
   -1
100
AcDbCircle
 10
36.33
 20
294.6
 40
0.16
100
AcDbArc
 50
90
 51
180
  0
ARC
  5
98
100
AcDbEntity
  8
Shape2DView
  6
ByLayer
 62
  256
370
   -1
100
AcDbCircle
 10
36.33
 20
294.6
 40
0.16
100
AcDbArc
 50
180
 51
0
  0
LINE
  5
99
100
AcDbEntity
  8
Shape2DView
  6
ByLayer
 62
  256
370
   -1
100
AcDbLine
 10
36.49
 20
294.6
 11
68.51000000000001
 21
294.6
  0
ARC
  5
9A
100
AcDbEntity
  8
Shape2DView
  6
ByLayer
 62
  256
370
   -1
100
AcDbCircle
 10
68.67
 20
294.6
 40
0.16
100
AcDbArc
 50
180
 51
0
  0
ARC
  5
9B
100
AcDbEntity
  8
Shape2DView
  6
ByLayer
 62
  256
370
   -1
100
AcDbCircle
 10
68.67
 20
294.6
 40
0.16
100
AcDbArc
 50
0
 51
90
  0
LINE
  5
9C
100
AcDbEntity
  8
Shape2DView
  6
ByLayer
 62
  256
370
   -1
100
AcDbLine
 10
68.67
 20
294.76
 11
68.67
 21
297
  0
LINE
  5
9D
100
AcDbEntity
  8
Shape2DView
  6
ByLayer
 62
  256
370
   -1
100
AcDbLine
 10
88.83
 20
297
 11
68.67
 21
297
  0
LINE
  5
9E
100
AcDbEntity
  8
Shape2DView
  6
ByLayer
 62
  256
370
   -1
100
AcDbLine
 10
88.83
 20
294.76
 11
88.83
 21
297
  0
ARC
  5
9F
100
AcDbEntity
  8
Shape2DView
  6
ByLayer
 62
  256
370
   -1
100
AcDbCircle
 10
88.83
 20
294.6
 40
0.16
100
AcDbArc
 50
90
 51
180
  0
ARC
  5
A0
100
AcDbEntity
  8
Shape2DView
  6
ByLayer
 62
  256
370
   -1
100
AcDbCircle
 10
88.83
 20
294.6
 40
0.16
100
AcDbArc
 50
180
 51
0
  0
LINE
  5
A1
100
AcDbEntity
  8
Shape2DView
  6
ByLayer
 62
  256
370
   -1
100
AcDbLine
 10
88.98999999999999
 20
294.6
 11
121.01
 21
294.6
  0
ARC
  5
A2
100
AcDbEntity
  8
Shape2DView
  6
ByLayer
 62
  256
370
   -1
100
AcDbCircle
 10
121.17
 20
294.6
 40
0.16
100
AcDbArc
 50
180
 51
0
  0
ARC
  5
A3
100
AcDbEntity
  8
Shape2DView
  6
ByLayer
 62
  256
370
   -1
100
AcDbCircle
 10
121.17
 20
294.6
 40
0.16
100
AcDbArc
 50
0
 51
90
  0
LINE
  5
A4
100
AcDbEntity
  8
Shape2DView
  6
ByLayer
 62
  256
370
   -1
100
AcDbLine
 10
121.17
 20
294.76
 11
121.17
 21
297
  0
LINE
  5
A5
100
AcDbEntity
  8
Shape2DView
  6
ByLayer
 62
  256
370
   -1
100
AcDbLine
 10
141.33
 20
297
 11
121.17
 21
297
  0
LINE
  5
A6
100
AcDbEntity
  8
Shape2DView
  6
ByLayer
 62
  256
370
   -1
100
AcDbLine
 10
141.33
 20
294.76
 11
141.33
 21
297
  0
ARC
  5
A7
100
AcDbEntity
  8
Shape2DView
  6
ByLayer
 62
  256
370
   -1
100
AcDbCircle
 10
141.33
 20
294.6
 40
0.16
100
AcDbArc
 50
90
 51
180
  0
ARC
  5
A8
100
AcDbEntity
  8
Shape2DView
  6
ByLayer
 62
  256
370
   -1
100
AcDbCircle
 10
141.33
 20
294.6
 40
0.16
100
AcDbArc
 50
180
 51
0
  0
LINE
  5
A9
100
AcDbEntity
  8
Shape2DView
  6
ByLayer
 62
  256
370
   -1
100
AcDbLine
 10
141.49
 20
294.6
 11
173.51
 21
294.6
  0
ARC
  5
AA
100
AcDbEntity
  8
Shape2DView
  6
ByLayer
 62
  256
370
   -1
100
AcDbCircle
 10
173.67
 20
294.6
 40
0.16
100
AcDbArc
 50
180
 51
0
  0
ARC
  5
AB
100
AcDbEntity
  8
Shape2DView
  6
ByLayer
 62
  256
370
   -1
100
AcDbCircle
 10
173.67
 20
294.6
 40
0.16
100
AcDbArc
 50
0
 51
90
  0
LINE
  5
AC
100
AcDbEntity
  8
Shape2DView
  6
ByLayer
 62
  256
370
   -1
100
AcDbLine
 10
173.67
 20
294.76
 11
173.67
 21
297
  0
LINE
  5
AD
100
AcDbEntity
  8
Shape2DView
  6
ByLayer
 62
  256
370
   -1
100
AcDbLine
 10
193.83
 20
297
 11
173.67
 21
297
  0
LINE
  5
AE
100
AcDbEntity
  8
Shape2DView
  6
ByLayer
 62
  256
370
   -1
100
AcDbLine
 10
193.83
 20
294.76
 11
193.83
 21
297
  0
ARC
  5
AF
100
AcDbEntity
  8
Shape2DView
  6
ByLayer
 62
  256
370
   -1
100
AcDbCircle
 10
193.83
 20
294.6
 40
0.16
100
AcDbArc
 50
90
 51
180
  0
ARC
  5
B0
100
AcDbEntity
  8
Shape2DView
  6
ByLayer
 62
  256
370
   -1
100
AcDbCircle
 10
193.83
 20
294.6
 40
0.16
100
AcDbArc
 50
180
 51
0
  0
LINE
  5
B1
100
AcDbEntity
  8
Shape2DView
  6
ByLayer
 62
  256
370
   -1
100
AcDbLine
 10
193.99
 20
294.6
 11
210
 21
294.6
  0
LINE
  5
B2
100
AcDbEntity
  8
Shape2DView
  6
ByLayer
 62
  256
370
   -1
100
AcDbLine
 10
210
 20
294.6
 11
210
 21
267.995
  0
LINE
  5
B3
100
AcDbEntity
  8
Shape2DView
  6
ByLayer
 62
  256
370
   -1
100
AcDbLine
 10
210
 20
267.995
 11
207.793135002
 21
267.995
  0
ARC
  5
B4
100
AcDbEntity
  8
Shape2DView
  6
ByLayer
 62
  256
370
   -1
100
AcDbCircle
 10
207.645333333
 20
29.090333333
 40
0.170666667
100
AcDbArc
 50
180
 51
-30
  0
ARC
  5
B5
100
AcDbEntity
  8
Shape2DView
  6
ByLayer
 62
  256
370
   -1
100
AcDbCircle
 10
207.645333333
 20
29.090333333
 40
0.170666667
100
AcDbArc
 50
120
 51
180
  0
LINE
  5
B6
100
AcDbEntity
  8
Shape2DView
  6
ByLayer
 62
  256
370
   -1
100
AcDbLine
 10
207.56
 20
29.238135002
 11
207.56
 21
48.611864998
  0
ARC
  5
B7
100
AcDbEntity
  8
Shape2DView
  6
ByLayer
 62
  256
370
   -1
100
AcDbCircle
 10
207.645333333
 20
48.759666667
 40
0.170666667
100
AcDbArc
 50
180
 51
-120
  0
ARC
  5
B8
100
AcDbEntity
  8
Shape2DView
  6
ByLayer
 62
  256
370
   -1
100
AcDbCircle
 10
207.645333333
 20
48.759666667
 40
0.170666667
100
AcDbArc
 50
30
 51
180
  0
LINE
  5
B9
100
AcDbEntity
  8
Shape2DView
  6
ByLayer
 62
  256
370
   -1
100
AcDbLine
 10
210
 20
48.845
 11
207.793135002
 21
48.845
  0
LINE
  5
BA
100
AcDbEntity
  8
Shape2DView
  6
ByLayer
 62
  256
370
   -1
100
AcDbLine
 10
210
 20
102.055
 11
210
 21
48.845
  0
LINE
  5
BB
100
AcDbEntity
  8
Shape2DView
  6
ByLayer
 62
  256
370
   -1
100
AcDbLine
 10
210
 20
102.055
 11
207.793135002
 21
102.055
  0
ARC
  5
BC
100
AcDbEntity
  8
Shape2DView
  6
ByLayer
 62
  256
370
   -1
100
AcDbCircle
 10
207.645333333
 20
102.140333333
 40
0.170666667
100
AcDbArc
 50
180
 51
-30
  0
ARC
  5
BD
100
AcDbEntity
  8
Shape2DView
  6
ByLayer
 62
  256
370
   -1
100
AcDbCircle
 10
207.645333333
 20
102.140333333
 40
0.170666667
100
AcDbArc
 50
120
 51
180
  0
LINE
  5
BE
100
AcDbEntity
  8
Shape2DView
  6
ByLayer
 62
  256
370
   -1
100
AcDbLine
 10
207.56
 20
102.288135002
 11
207.56
 21
121.661864998
  0
ARC
  5
BF
100
AcDbEntity
  8
Shape2DView
  6
ByLayer
 62
  256
370
   -1
100
AcDbCircle
 10
207.645333333
 20
121.809666667
 40
0.170666667
100
AcDbArc
 50
180
 51
-120
  0
ARC
  5
C0
100
AcDbEntity
  8
Shape2DView
  6
ByLayer
 62
  256
370
   -1
100
AcDbCircle
 10
207.645333333
 20
121.809666667
 40
0.170666667
100
AcDbArc
 50
30
 51
180
  0
LINE
  5
C1
100
AcDbEntity
  8
Shape2DView
  6
ByLayer
 62
  256
370
   -1
100
AcDbLine
 10
210
 20
121.895
 11
207.793135002
 21
121.895
  0
LINE
  5
C2
100
AcDbEntity
  8
Shape2DView
  6
ByLayer
 62
  256
370
   -1
100
AcDbLine
 10
210
 20
175.105
 11
210
 21
121.895
  0
LINE
  5
C3
100
AcDbEntity
  8
Shape2DView
  6
ByLayer
 62
  256
370
   -1
100
AcDbLine
 10
210
 20
175.105
 11
207.793135002
 21
175.105
  0
ARC
  5
C4
100
AcDbEntity
  8
Shape2DView
  6
ByLayer
 62
  256
370
   -1
100
AcDbCircle
 10
207.645333333
 20
175.190333333
 40
0.170666667
100
AcDbArc
 50
180
 51
-30
  0
ARC
  5
C5
100
AcDbEntity
  8
Shape2DView
  6
ByLayer
 62
  256
370
   -1
100
AcDbCircle
 10
207.645333333
 20
175.190333333
 40
0.170666667
100
AcDbArc
 50
120
 51
180
  0
LINE
  5
C6
100
AcDbEntity
  8
Shape2DView
  6
ByLayer
 62
  256
370
   -1
100
AcDbLine
 10
207.56
 20
175.338135002
 11
207.56
 21
194.711864998
  0
ARC
  5
C7
100
AcDbEntity
  8
Shape2DView
  6
ByLayer
 62
  256
370
   -1
100
AcDbCircle
 10
207.645333333
 20
194.859666667
 40
0.170666667
100
AcDbArc
 50
180
 51
-120
  0
ARC
  5
C8
100
AcDbEntity
  8
Shape2DView
  6
ByLayer
 62
  256
370
   -1
100
AcDbCircle
 10
207.645333333
 20
194.859666667
 40
0.170666667
100
AcDbArc
 50
30
 51
180
  0
LINE
  5
C9
100
AcDbEntity
  8
Shape2DView
  6
ByLayer
 62
  256
370
   -1
100
AcDbLine
 10
210
 20
194.945
 11
207.793135002
 21
194.945
  0
LINE
  5
CA
100
AcDbEntity
  8
Shape2DView
  6
ByLayer
 62
  256
370
   -1
100
AcDbLine
 10
210
 20
248.155
 11
210
 21
194.945
  0
LINE
  5
CB
100
AcDbEntity
  8
Shape2DView
  6
ByLayer
 62
  256
370
   -1
100
AcDbLine
 10
210
 20
248.155
 11
207.793135002
 21
248.155
  0
ARC
  5
CC
100
AcDbEntity
  8
Shape2DView
  6
ByLayer
 62
  256
370
   -1
100
AcDbCircle
 10
207.645333333
 20
248.240333333
 40
0.170666667
100
AcDbArc
 50
180
 51
-30
  0
ARC
  5
CD
100
AcDbEntity
  8
Shape2DView
  6
ByLayer
 62
  256
370
   -1
100
AcDbCircle
 10
207.645333333
 20
248.240333333
 40
0.170666667
100
AcDbArc
 50
120
 51
180
  0
LINE
  5
CE
100
AcDbEntity
  8
Shape2DView
  6
ByLayer
 62
  256
370
   -1
100
AcDbLine
 10
207.56
 20
248.388135002
 11
207.56
 21
267.761864998
  0
ARC
  5
CF
100
AcDbEntity
  8
Shape2DView
  6
ByLayer
 62
  256
370
   -1
100
AcDbCircle
 10
207.645333333
 20
267.909666667
 40
0.170666667
100
AcDbArc
 50
180
 51
-120
  0
ARC
  5
D0
100
AcDbEntity
  8
Shape2DView
  6
ByLayer
 62
  256
370
   -1
100
AcDbCircle
 10
207.645333333
 20
267.909666667
 40
0.170666667
100
AcDbArc
 50
30
 51
180
  0
LINE
  5
D1
100
AcDbEntity
  8
Shape2DView001
  6
ByLayer
 62
  256
370
   -1
100
AcDbLine
 10
222.4
 20
245.2
 11
222.4
 21
224.79
  0
ARC
  5
D2
100
AcDbEntity
  8
Shape2DView001
  6
ByLayer
 62
  256
370
   -1
100
AcDbCircle
 10
222.4
 20
224.63
 40
0.16
100
AcDbArc
 50
180
 51
-90
  0
ARC
  5
D3
100
AcDbEntity
  8
Shape2DView001
  6
ByLayer
 62
  256
370
   -1
100
AcDbCircle
 10
222.4
 20
224.63
 40
0.16
100
AcDbArc
 50
-90
 51
90
  0
LINE
  5
D4
100
AcDbEntity
  8
Shape2DView001
  6
ByLayer
 62
  256
370
   -1
100
AcDbLine
 10
248.685
 20
245.2
 11
222.4
 21
245.2
  0
ARC
  5
D5
100
AcDbEntity
  8
Shape2DView001
  6
ByLayer
 62
  256
370
   -1
100
AcDbCircle
 10
248.845
 20
245.2
 40
0.16
100
AcDbArc
 50
180
 51
0
  0
ARC
  5
D6
100
AcDbEntity
  8
Shape2DView001
  6
ByLayer
 62
  256
370
   -1
100
AcDbCircle
 10
248.845
 20
245.2
 40
0.16
100
AcDbArc
 50
0
 51
90
  0
LINE
  5
D7
100
AcDbEntity
  8
Shape2DView001
  6
ByLayer
 62
  256
370
   -1
100
AcDbLine
 10
222.24
 20
224.63
 11
220
 21
224.63
  0
LINE
  5
D8
100
AcDbEntity
  8
Shape2DView001
  6
ByLayer
 62
  256
370
   -1
100
AcDbLine
 10
248.845
 20
245.36
 11
248.845
 21
247.6
  0
LINE
  5
D9
100
AcDbEntity
  8
Shape2DView001
  6
ByLayer
 62
  256
370
   -1
100
AcDbLine
 10
248.845
 20
247.6
 11
269.005
 21
247.6
  0
ARC
  5
DA
100
AcDbEntity
  8
Shape2DView001
  6
ByLayer
 62
  256
370
   -1
100
AcDbCircle
 10
269.005
 20
245.2
 40
0.16
100
AcDbArc
 50
90
 51
180
  0
ARC
  5
DB
100
AcDbEntity
  8
Shape2DView001
  6
ByLayer
 62
  256
370
   -1
100
AcDbCircle
 10
269.005
 20
245.2
 40
0.16
100
AcDbArc
 50
180
 51
0
  0
LINE
  5
DC
100
AcDbEntity
  8
Shape2DView001
  6
ByLayer
 62
  256
370
   -1
100
AcDbLine
 10
321.735
 20
245.2
 11
269.165
 21
245.2
  0
ARC
  5
DD
100
AcDbEntity
  8
Shape2DView001
  6
ByLayer
 62
  256
370
   -1
100
AcDbCircle
 10
321.895
 20
245.2
 40
0.16
100
AcDbArc
 50
180
 51
0
  0
ARC
  5
DE
100
AcDbEntity
  8
Shape2DView001
  6
ByLayer
 62
  256
370
   -1
100
AcDbCircle
 10
321.895
 20
245.2
 40
0.16
100
AcDbArc
 50
0
 51
90
  0
LINE
  5
DF
100
AcDbEntity
  8
Shape2DView001
  6
ByLayer
 62
  256
370
   -1
100
AcDbLine
 10
269.005
 20
245.36
 11
269.005
 21
247.6
  0
LINE
  5
E0
100
AcDbEntity
  8
Shape2DView001
  6
ByLayer
 62
  256
370
   -1
100
AcDbLine
 10
321.895
 20
245.36
 11
321.895
 21
247.6
  0
LINE
  5
E1
100
AcDbEntity
  8
Shape2DView001
  6
ByLayer
 62
  256
370
   -1
100
AcDbLine
 10
321.895
 20
247.6
 11
342.055
 21
247.6
  0
ARC
  5
E2
100
AcDbEntity
  8
Shape2DView001
  6
ByLayer
 62
  256
370
   -1
100
AcDbCircle
 10
342.055
 20
245.2
 40
0.16
100
AcDbArc
 50
90
 51
180
  0
ARC
  5
E3
100
AcDbEntity
  8
Shape2DView001
  6
ByLayer
 62
  256
370
   -1
100
AcDbCircle
 10
342.055
 20
245.2
 40
0.16
100
AcDbArc
 50
180
 51
0
  0
LINE
  5
E4
100
AcDbEntity
  8
Shape2DView001
  6
ByLayer
 62
  256
370
   -1
100
AcDbLine
 10
394.785
 20
245.2
 11
342.215
 21
245.2
  0
ARC
  5
E5
100
AcDbEntity
  8
Shape2DView001
  6
ByLayer
 62
  256
370
   -1
100
AcDbCircle
 10
394.945
 20
245.2
 40
0.16
100
AcDbArc
 50
180
 51
0
  0
ARC
  5
E6
100
AcDbEntity
  8
Shape2DView001
  6
ByLayer
 62
  256
370
   -1
100
AcDbCircle
 10
394.945
 20
245.2
 40
0.16
100
AcDbArc
 50
0
 51
90
  0
LINE
  5
E7
100
AcDbEntity
  8
Shape2DView001
  6
ByLayer
 62
  256
370
   -1
100
AcDbLine
 10
342.055
 20
245.36
 11
342.055
 21
247.6
  0
LINE
  5
E8
100
AcDbEntity
  8
Shape2DView001
  6
ByLayer
 62
  256
370
   -1
100
AcDbLine
 10
394.945
 20
245.36
 11
394.945
 21
247.6
  0
LINE
  5
E9
100
AcDbEntity
  8
Shape2DView001
  6
ByLayer
 62
  256
370
   -1
100
AcDbLine
 10
394.945
 20
247.6
 11
415.105
 21
247.6
  0
ARC
  5
EA
100
AcDbEntity
  8
Shape2DView001
  6
ByLayer
 62
  256
370
   -1
100
AcDbCircle
 10
415.105
 20
245.2
 40
0.16
100
AcDbArc
 50
90
 51
180
  0
ARC
  5
EB
100
AcDbEntity
  8
Shape2DView001
  6
ByLayer
 62
  256
370
   -1
100
AcDbCircle
 10
415.105
 20
245.2
 40
0.16
100
AcDbArc
 50
180
 51
0
  0
LINE
  5
EC
100
AcDbEntity
  8
Shape2DView001
  6
ByLayer
 62
  256
370
   -1
100
AcDbLine
 10
467.835
 20
245.2
 11
415.265
 21
245.2
  0
ARC
  5
ED
100
AcDbEntity
  8
Shape2DView001
  6
ByLayer
 62
  256
370
   -1
100
AcDbCircle
 10
467.995
 20
245.2
 40
0.16
100
AcDbArc
 50
180
 51
0
  0
ARC
  5
EE
100
AcDbEntity
  8
Shape2DView001
  6
ByLayer
 62
  256
370
   -1
100
AcDbCircle
 10
467.995
 20
245.2
 40
0.16
100
AcDbArc
 50
0
 51
90
  0
LINE
  5
EF
100
AcDbEntity
  8
Shape2DView001
  6
ByLayer
 62
  256
370
   -1
100
AcDbLine
 10
415.105
 20
245.36
 11
415.105
 21
247.6
  0
LINE
  5
F0
100
AcDbEntity
  8
Shape2DView001
  6
ByLayer
 62
  256
370
   -1
100
AcDbLine
 10
467.995
 20
245.36
 11
467.995
 21
247.6
  0
LINE
  5
F1
100
AcDbEntity
  8
Shape2DView001
  6
ByLayer
 62
  256
370
   -1
100
AcDbLine
 10
467.995
 20
247.6
 11
488.155
 21
247.6
  0
ARC
  5
F2
100
AcDbEntity
  8
Shape2DView001
  6
ByLayer
 62
  256
370
   -1
100
AcDbCircle
 10
488.155
 20
245.2
 40
0.16
100
AcDbArc
 50
90
 51
180
  0
ARC
  5
F3
100
AcDbEntity
  8
Shape2DView001
  6
ByLayer
 62
  256
370
   -1
100
AcDbCircle
 10
488.155
 20
245.2
 40
0.16
100
AcDbArc
 50
180
 51
0
  0
LINE
  5
F4
100
AcDbEntity
  8
Shape2DView001
  6
ByLayer
 62
  256
370
   -1
100
AcDbLine
 10
514.6
 20
245.2
 11
488.315
 21
245.2
  0
LINE
  5
F5
100
AcDbEntity
  8
Shape2DView001
  6
ByLayer
 62
  256
370
   -1
100
AcDbLine
 10
514.6
 20
224.79
 11
514.6
 21
245.2
  0
ARC
  5
F6
100
AcDbEntity
  8
Shape2DView001
  6
ByLayer
 62
  256
370
   -1
100
AcDbCircle
 10
514.6
 20
224.63
 40
0.16
100
AcDbArc
 50
90
 51
-90
  0
ARC
  5
F7
100
AcDbEntity
  8
Shape2DView001
  6
ByLayer
 62
  256
370
   -1
100
AcDbCircle
 10
514.6
 20
224.63
 40
0.16
100
AcDbArc
 50
-90
 51
0
  0
LINE
  5
F8
100
AcDbEntity
  8
Shape2DView001
  6
ByLayer
 62
  256
370
   -1
100
AcDbLine
 10
488.155
 20
245.36
 11
488.155
 21
247.6
  0
LINE
  5
F9
100
AcDbEntity
  8
Shape2DView001
  6
ByLayer
 62
  256
370
   -1
100
AcDbLine
 10
514.76
 20
224.63
 11
517
 21
224.63
  0
LINE
  5
FA
100
AcDbEntity
  8
Shape2DView001
  6
ByLayer
 62
  256
370
   -1
100
AcDbLine
 10
517
 20
224.63
 11
517
 21
204.47
  0
ARC
  5
FB
100
AcDbEntity
  8
Shape2DView001
  6
ByLayer
 62
  256
370
   -1
100
AcDbCircle
 10
514.6
 20
204.47
 40
0.16
100
AcDbArc
 50
0
 51
90
  0
ARC
  5
FC
100
AcDbEntity
  8
Shape2DView001
  6
ByLayer
 62
  256
370
   -1
100
AcDbCircle
 10
514.6
 20
204.47
 40
0.16
100
AcDbArc
 50
90
 51
-90
  0
LINE
  5
FD
100
AcDbEntity
  8
Shape2DView001
  6
ByLayer
 62
  256
370
   -1
100
AcDbLine
 10
514.6
 20
163.49
 11
514.6
 21
204.31
  0
ARC
  5
FE
100
AcDbEntity
  8
Shape2DView001
  6
ByLayer
 62
  256
370
   -1
100
AcDbCircle
 10
514.6
 20
163.33
 40
0.16
100
AcDbArc
 50
90
 51
-90
  0
ARC
  5
FF
100
AcDbEntity
  8
Shape2DView001
  6
ByLayer
 62
  256
370
   -1
100
AcDbCircle
 10
514.6
 20
163.33
 40
0.16
100
AcDbArc
 50
-90
 51
0
  0
LINE
  5
100
100
AcDbEntity
  8
Shape2DView001
  6
ByLayer
 62
  256
370
   -1
100
AcDbLine
 10
514.76
 20
204.47
 11
517
 21
204.47
  0
LINE
  5
101
100
AcDbEntity
  8
Shape2DView001
  6
ByLayer
 62
  256
370
   -1
100
AcDbLine
 10
514.76
 20
163.33
 11
517
 21
163.33
  0
LINE
  5
102
100
AcDbEntity
  8
Shape2DView001
  6
ByLayer
 62
  256
370
   -1
100
AcDbLine
 10
517
 20
163.33
 11
517
 21
143.17
  0
ARC
  5
103
100
AcDbEntity
  8
Shape2DView001
  6
ByLayer
 62
  256
370
   -1
100
AcDbCircle
 10
514.6
 20
143.17
 40
0.16
100
AcDbArc
 50
0
 51
90
  0
ARC
  5
104
100
AcDbEntity
  8
Shape2DView001
  6
ByLayer
 62
  256
370
   -1
100
AcDbCircle
 10
514.6
 20
143.17
 40
0.16
100
AcDbArc
 50
90
 51
-90
  0
LINE
  5
105
100
AcDbEntity
  8
Shape2DView001
  6
ByLayer
 62
  256
370
   -1
100
AcDbLine
 10
514.6
 20
102.19
 11
514.6
 21
143.01
  0
ARC
  5
106
100
AcDbEntity
  8
Shape2DView001
  6
ByLayer
 62
  256
370
   -1
100
AcDbCircle
 10
514.6
 20
102.03
 40
0.16
100
AcDbArc
 50
90
 51
-90
  0
ARC
  5
107
100
AcDbEntity
  8
Shape2DView001
  6
ByLayer
 62
  256
370
   -1
100
AcDbCircle
 10
514.6
 20
102.03
 40
0.16
100
AcDbArc
 50
-90
 51
0
  0
LINE
  5
108
100
AcDbEntity
  8
Shape2DView001
  6
ByLayer
 62
  256
370
   -1
100
AcDbLine
 10
514.76
 20
143.17
 11
517
 21
143.17
  0
LINE
  5
109
100
AcDbEntity
  8
Shape2DView001
  6
ByLayer
 62
  256
370
   -1
100
AcDbLine
 10
514.76
 20
102.03
 11
517
 21
102.03
  0
LINE
  5
10A
100
AcDbEntity
  8
Shape2DView001
  6
ByLayer
 62
  256
370
   -1
100
AcDbLine
 10
517
 20
102.03
 11
517
 21
81.87
  0
ARC
  5
10B
100
AcDbEntity
  8
Shape2DView001
  6
ByLayer
 62
  256
370
   -1
100
AcDbCircle
 10
514.6
 20
81.87
 40
0.16
100
AcDbArc
 50
0
 51
90
  0
ARC
  5
10C
100
AcDbEntity
  8
Shape2DView001
  6
ByLayer
 62
  256
370
   -1
100
AcDbCircle
 10
514.6
 20
81.87
 40
0.16
100
AcDbArc
 50
90
 51
-90
  0
LINE
  5
10D
100
AcDbEntity
  8
Shape2DView001
  6
ByLayer
 62
  256
370
   -1
100
AcDbLine
 10
514.6
 20
40.89
 11
514.6
 21
81.70999999999999
  0
ARC
  5
10E
100
AcDbEntity
  8
Shape2DView001
  6
ByLayer
 62
  256
370
   -1
100
AcDbCircle
 10
514.6
 20
40.73
 40
0.16
100
AcDbArc
 50
90
 51
-90
  0
ARC
  5
10F
100
AcDbEntity
  8
Shape2DView001
  6
ByLayer
 62
  256
370
   -1
100
AcDbCircle
 10
514.6
 20
40.73
 40
0.16
100
AcDbArc
 50
-90
 51
0
  0
LINE
  5
110
100
AcDbEntity
  8
Shape2DView001
  6
ByLayer
 62
  256
370
   -1
100
AcDbLine
 10
514.76
 20
81.87
 11
517
 21
81.87
  0
LINE
  5
111
100
AcDbEntity
  8
Shape2DView001
  6
ByLayer
 62
  256
370
   -1
100
AcDbLine
 10
514.76
 20
40.73
 11
517
 21
40.73
  0
LINE
  5
112
100
AcDbEntity
  8
Shape2DView001
  6
ByLayer
 62
  256
370
   -1
100
AcDbLine
 10
517
 20
40.73
 11
517
 21
20.57
  0
ARC
  5
113
100
AcDbEntity
  8
Shape2DView001
  6
ByLayer
 62
  256
370
   -1
100
AcDbCircle
 10
514.6
 20
20.57
 40
0.16
100
AcDbArc
 50
0
 51
90
  0
ARC
  5
114
100
AcDbEntity
  8
Shape2DView001
  6
ByLayer
 62
  256
370
   -1
100
AcDbCircle
 10
514.6
 20
20.57
 40
0.16
100
AcDbArc
 50
90
 51
-90
  0
LINE
  5
115
100
AcDbEntity
  8
Shape2DView001
  6
ByLayer
 62
  256
370
   -1
100
AcDbLine
 10
514.6
 20
0
 11
514.6
 21
20.41
  0
LINE
  5
116
100
AcDbEntity
  8
Shape2DView001
  6
ByLayer
 62
  256
370
   -1
100
AcDbLine
 10
222.4
 20
0
 11
514.6
 21
0
  0
LINE
  5
117
100
AcDbEntity
  8
Shape2DView001
  6
ByLayer
 62
  256
370
   -1
100
AcDbLine
 10
222.4
 20
20.41
 11
222.4
 21
0
  0
ARC
  5
118
100
AcDbEntity
  8
Shape2DView001
  6
ByLayer
 62
  256
370
   -1
100
AcDbCircle
 10
222.4
 20
20.57
 40
0.16
100
AcDbArc
 50
-90
 51
90
  0
ARC
  5
119
100
AcDbEntity
  8
Shape2DView001
  6
ByLayer
 62
  256
370
   -1
100
AcDbCircle
 10
222.4
 20
20.57
 40
0.16
100
AcDbArc
 50
90
 51
180
  0
LINE
  5
11A
100
AcDbEntity
  8
Shape2DView001
  6
ByLayer
 62
  256
370
   -1
100
AcDbLine
 10
514.76
 20
20.57
 11
517
 21
20.57
  0
LINE
  5
11B
100
AcDbEntity
  8
Shape2DView001
  6
ByLayer
 62
  256
370
   -1
100
AcDbLine
 10
222.24
 20
20.57
 11
220
 21
20.57
  0
LINE
  5
11C
100
AcDbEntity
  8
Shape2DView001
  6
ByLayer
 62
  256
370
   -1
100
AcDbLine
 10
220
 20
20.57
 11
220
 21
40.73
  0
ARC
  5
11D
100
AcDbEntity
  8
Shape2DView001
  6
ByLayer
 62
  256
370
   -1
100
AcDbCircle
 10
222.4
 20
40.73
 40
0.16
100
AcDbArc
 50
180
 51
-90
  0
ARC
  5
11E
100
AcDbEntity
  8
Shape2DView001
  6
ByLayer
 62
  256
370
   -1
100
AcDbCircle
 10
222.4
 20
40.73
 40
0.16
100
AcDbArc
 50
-90
 51
90
  0
LINE
  5
11F
100
AcDbEntity
  8
Shape2DView001
  6
ByLayer
 62
  256
370
   -1
100
AcDbLine
 10
222.4
 20
81.70999999999999
 11
222.4
 21
40.89
  0
ARC
  5
120
100
AcDbEntity
  8
Shape2DView001
  6
ByLayer
 62
  256
370
   -1
100
AcDbCircle
 10
222.4
 20
81.87
 40
0.16
100
AcDbArc
 50
-90
 51
90
  0
ARC
  5
121
100
AcDbEntity
  8
Shape2DView001
  6
ByLayer
 62
  256
370
   -1
100
AcDbCircle
 10
222.4
 20
81.87
 40
0.16
100
AcDbArc
 50
90
 51
180
  0
LINE
  5
122
100
AcDbEntity
  8
Shape2DView001
  6
ByLayer
 62
  256
370
   -1
100
AcDbLine
 10
222.24
 20
40.73
 11
220
 21
40.73
  0
LINE
  5
123
100
AcDbEntity
  8
Shape2DView001
  6
ByLayer
 62
  256
370
   -1
100
AcDbLine
 10
222.24
 20
81.87
 11
220
 21
81.87
  0
LINE
  5
124
100
AcDbEntity
  8
Shape2DView001
  6
ByLayer
 62
  256
370
   -1
100
AcDbLine
 10
220
 20
81.87
 11
220
 21
102.03
  0
ARC
  5
125
100
AcDbEntity
  8
Shape2DView001
  6
ByLayer
 62
  256
370
   -1
100
AcDbCircle
 10
222.4
 20
102.03
 40
0.16
100
AcDbArc
 50
180
 51
-90
  0
ARC
  5
126
100
AcDbEntity
  8
Shape2DView001
  6
ByLayer
 62
  256
370
   -1
100
AcDbCircle
 10
222.4
 20
102.03
 40
0.16
100
AcDbArc
 50
-90
 51
90
  0
LINE
  5
127
100
AcDbEntity
  8
Shape2DView001
  6
ByLayer
 62
  256
370
   -1
100
AcDbLine
 10
222.4
 20
143.01
 11
222.4
 21
102.19
  0
ARC
  5
128
100
AcDbEntity
  8
Shape2DView001
  6
ByLayer
 62
  256
370
   -1
100
AcDbCircle
 10
222.4
 20
143.17
 40
0.16
100
AcDbArc
 50
-90
 51
90
  0
ARC
  5
129
100
AcDbEntity
  8
Shape2DView001
  6
ByLayer
 62
  256
370
   -1
100
AcDbCircle
 10
222.4
 20
143.17
 40
0.16
100
AcDbArc
 50
90
 51
180
  0
LINE
  5
12A
100
AcDbEntity
  8
Shape2DView001
  6
ByLayer
 62
  256
370
   -1
100
AcDbLine
 10
222.24
 20
102.03
 11
220
 21
102.03
  0
LINE
  5
12B
100
AcDbEntity
  8
Shape2DView001
  6
ByLayer
 62
  256
370
   -1
100
AcDbLine
 10
222.24
 20
143.17
 11
220
 21
143.17
  0
LINE
  5
12C
100
AcDbEntity
  8
Shape2DView001
  6
ByLayer
 62
  256
370
   -1
100
AcDbLine
 10
220
 20
143.17
 11
220
 21
163.33
  0
ARC
  5
12D
100
AcDbEntity
  8
Shape2DView001
  6
ByLayer
 62
  256
370
   -1
100
AcDbCircle
 10
222.4
 20
163.33
 40
0.16
100
AcDbArc
 50
180
 51
-90
  0
ARC
  5
12E
100
AcDbEntity
  8
Shape2DView001
  6
ByLayer
 62
  256
370
   -1
100
AcDbCircle
 10
222.4
 20
163.33
 40
0.16
100
AcDbArc
 50
-90
 51
90
  0
LINE
  5
12F
100
AcDbEntity
  8
Shape2DView001
  6
ByLayer
 62
  256
370
   -1
100
AcDbLine
 10
222.4
 20
204.31
 11
222.4
 21
163.49
  0
ARC
  5
130
100
AcDbEntity
  8
Shape2DView001
  6
ByLayer
 62
  256
370
   -1
100
AcDbCircle
 10
222.4
 20
204.47
 40
0.16
100
AcDbArc
 50
-90
 51
90
  0
ARC
  5
131
100
AcDbEntity
  8
Shape2DView001
  6
ByLayer
 62
  256
370
   -1
100
AcDbCircle
 10
222.4
 20
204.47
 40
0.16
100
AcDbArc
 50
90
 51
180
  0
LINE
  5
132
100
AcDbEntity
  8
Shape2DView001
  6
ByLayer
 62
  256
370
   -1
100
AcDbLine
 10
222.24
 20
163.33
 11
220
 21
163.33
  0
LINE
  5
133
100
AcDbEntity
  8
Shape2DView001
  6
ByLayer
 62
  256
370
   -1
100
AcDbLine
 10
222.24
 20
204.47
 11
220
 21
204.47
  0
LINE
  5
134
100
AcDbEntity
  8
Shape2DView001
  6
ByLayer
 62
  256
370
   -1
100
AcDbLine
 10
220
 20
204.47
 11
220
 21
224.63
  0
LWPOLYLINE
  5
135
100
AcDbEntity
  8
0
  6
ByLayer
 62
  256
370
   -1
100
AcDbPolyline
 90
    4
 70
    1
 43
0
 10
-10
 20
-10
 10
900
 20
-10
 10
900
 20
600
 10
-10
 20
600
  0
LINE
  5
136
100
AcDbEntity
  8
Shape2DView004
  6
ByLayer
 62
  256
370
   -1
100
AcDbLine
 10
730
 20
247.6
 11
730
 21
224.47
  0
LINE
  5
137
100
AcDbEntity
  8
Shape2DView004
  6
ByLayer
 62
  256
370
   -1
100
AcDbLine
 10
713.67
 20
247.6
 11
730
 21
247.6
  0
LINE
  5
138
100
AcDbEntity
  8
Shape2DView004
  6
ByLayer
 62
  256
370
   -1
100
AcDbLine
 10
713.67
 20
245.393135002
 11
713.67
 21
247.6
  0
ARC
  5
139
100
AcDbEntity
  8
Shape2DView004
  6
ByLayer
 62
  256
370
   -1
100
AcDbCircle
 10
713.584666667
 20
245.245333333
 40
0.170666667
100
AcDbArc
 50
-150
 51
59.99999999999999
  0
LINE
  5
13A
100
AcDbEntity
  8
Shape2DView004
  6
ByLayer
 62
  256
370
   -1
100
AcDbLine
 10
694.063135002
 20
245.16
 11
713.436864998
 21
245.16
  0
ARC
  5
13B
100
AcDbEntity
  8
Shape2DView004
  6
ByLayer
 62
  256
370
   -1
100
AcDbCircle
 10
693.915333333
 20
245.245333333
 40
0.170666667
100
AcDbArc
 50
120
 51
-30
  0
LINE
  5
13C
100
AcDbEntity
  8
Shape2DView004
  6
ByLayer
 62
  256
370
   -1
100
AcDbLine
 10
693.83
 20
245.393135002
 11
693.83
 21
247.6
  0
LINE
  5
13D
100
AcDbEntity
  8
Shape2DView004
  6
ByLayer
 62
  256
370
   -1
100
AcDbLine
 10
661.17
 20
247.6
 11
693.83
 21
247.6
  0
LINE
  5
13E
100
AcDbEntity
  8
Shape2DView004
  6
ByLayer
 62
  256
370
   -1
100
AcDbLine
 10
661.17
 20
245.393135002
 11
661.17
 21
247.6
  0
ARC
  5
13F
100
AcDbEntity
  8
Shape2DView004
  6
ByLayer
 62
  256
370
   -1
100
AcDbCircle
 10
661.084666667
 20
245.245333333
 40
0.170666667
100
AcDbArc
 50
-150
 51
59.99999999999999
  0
LINE
  5
140
100
AcDbEntity
  8
Shape2DView004
  6
ByLayer
 62
  256
370
   -1
100
AcDbLine
 10
641.563135002
 20
245.16
 11
660.936864998
 21
245.16
  0
ARC
  5
141
100
AcDbEntity
  8
Shape2DView004
  6
ByLayer
 62
  256
370
   -1
100
AcDbCircle
 10
641.415333333
 20
245.245333333
 40
0.170666667
100
AcDbArc
 50
120
 51
-30
  0
LINE
  5
142
100
AcDbEntity
  8
Shape2DView004
  6
ByLayer
 62
  256
370
   -1
100
AcDbLine
 10
641.33
 20
245.393135002
 11
641.33
 21
247.6
  0
LINE
  5
143
100
AcDbEntity
  8
Shape2DView004
  6
ByLayer
 62
  256
370
   -1
100
AcDbLine
 10
608.67
 20
247.6
 11
641.33
 21
247.6
  0
LINE
  5
144
100
AcDbEntity
  8
Shape2DView004
  6
ByLayer
 62
  256
370
   -1
100
AcDbLine
 10
608.67
 20
245.393135002
 11
608.67
 21
247.6
  0
ARC
  5
145
100
AcDbEntity
  8
Shape2DView004
  6
ByLayer
 62
  256
370
   -1
100
AcDbCircle
 10
608.584666667
 20
245.245333333
 40
0.170666667
100
AcDbArc
 50
-150
 51
59.99999999999999
  0
LINE
  5
146
100
AcDbEntity
  8
Shape2DView004
  6
ByLayer
 62
  256
370
   -1
100
AcDbLine
 10
589.063135002
 20
245.16
 11
608.436864998
 21
245.16
  0
ARC
  5
147
100
AcDbEntity
  8
Shape2DView004
  6
ByLayer
 62
  256
370
   -1
100
AcDbCircle
 10
588.915333333
 20
245.245333333
 40
0.170666667
100
AcDbArc
 50
120
 51
-30
  0
LINE
  5
148
100
AcDbEntity
  8
Shape2DView004
  6
ByLayer
 62
  256
370
   -1
100
AcDbLine
 10
588.83
 20
245.393135002
 11
588.83
 21
247.6
  0
LINE
  5
149
100
AcDbEntity
  8
Shape2DView004
  6
ByLayer
 62
  256
370
   -1
100
AcDbLine
 10
556.17
 20
247.6
 11
588.83
 21
247.6
  0
LINE
  5
14A
100
AcDbEntity
  8
Shape2DView004
  6
ByLayer
 62
  256
370
   -1
100
AcDbLine
 10
556.17
 20
245.393135002
 11
556.17
 21
247.6
  0
ARC
  5
14B
100
AcDbEntity
  8
Shape2DView004
  6
ByLayer
 62
  256
370
   -1
100
AcDbCircle
 10
556.084666667
 20
245.245333333
 40
0.170666667
100
AcDbArc
 50
-150
 51
59.99999999999999
  0
LINE
  5
14C
100
AcDbEntity
  8
Shape2DView004
  6
ByLayer
 62
  256
370
   -1
100
AcDbLine
 10
536.563135002
 20
245.16
 11
555.936864998
 21
245.16
  0
ARC
  5
14D
100
AcDbEntity
  8
Shape2DView004
  6
ByLayer
 62
  256
370
   -1
100
AcDbCircle
 10
536.415333333
 20
245.245333333
 40
0.170666667
100
AcDbArc
 50
120
 51
-30
  0
LINE
  5
14E
100
AcDbEntity
  8
Shape2DView004
  6
ByLayer
 62
  256
370
   -1
100
AcDbLine
 10
536.33
 20
245.393135002
 11
536.33
 21
247.6
  0
LINE
  5
14F
100
AcDbEntity
  8
Shape2DView004
  6
ByLayer
 62
  256
370
   -1
100
AcDbLine
 10
520
 20
247.6
 11
536.33
 21
247.6
  0
LINE
  5
150
100
AcDbEntity
  8
Shape2DView004
  6
ByLayer
 62
  256
370
   -1
100
AcDbLine
 10
520
 20
224.47
 11
520
 21
247.6
  0
LINE
  5
151
100
AcDbEntity
  8
Shape2DView004
  6
ByLayer
 62
  256
370
   -1
100
AcDbLine
 10
520
 20
224.47
 11
522.206864998
 21
224.47
  0
ARC
  5
152
100
AcDbEntity
  8
Shape2DView004
  6
ByLayer
 62
  256
370
   -1
100
AcDbCircle
 10
522.3546666669999
 20
224.384666667
 40
0.170666667
100
AcDbArc
 50
0
 51
150
  0
ARC
  5
153
100
AcDbEntity
  8
Shape2DView004
  6
ByLayer
 62
  256
370
   -1
100
AcDbCircle
 10
522.3546666669999
 20
224.384666667
 40
0.170666667
100
AcDbArc
 50
-59.99999999999999
 51
0
  0
LINE
  5
154
100
AcDbEntity
  8
Shape2DView004
  6
ByLayer
 62
  256
370
   -1
100
AcDbLine
 10
522.4400000000001
 20
224.236864998
 11
522.4400000000001
 21
204.8631350019999
  0
ARC
  5
155
100
AcDbEntity
  8
Shape2DView004
  6
ByLayer
 62
  256
370
   -1
100
AcDbCircle
 10
522.3546666669999
 20
204.715333333
 40
0.170666667
100
AcDbArc
 50
0
 51
59.99999999999999
  0
ARC
  5
156
100
AcDbEntity
  8
Shape2DView004
  6
ByLayer
 62
  256
370
   -1
100
AcDbCircle
 10
522.3546666669999
 20
204.715333333
 40
0.170666667
100
AcDbArc
 50
-150
 51
0
  0
LINE
  5
157
100
AcDbEntity
  8
Shape2DView004
  6
ByLayer
 62
  256
370
   -1
100
AcDbLine
 10
520
 20
204.63
 11
522.206864998
 21
204.63
  0
LINE
  5
158
100
AcDbEntity
  8
Shape2DView004
  6
ByLayer
 62
  256
370
   -1
100
AcDbLine
 10
520
 20
163.17
 11
520
 21
204.63
  0
LINE
  5
159
100
AcDbEntity
  8
Shape2DView004
  6
ByLayer
 62
  256
370
   -1
100
AcDbLine
 10
520
 20
163.17
 11
522.206864998
 21
163.17
  0
ARC
  5
15A
100
AcDbEntity
  8
Shape2DView004
  6
ByLayer
 62
  256
370
   -1
100
AcDbCircle
 10
522.3546666669999
 20
163.084666667
 40
0.170666667
100
AcDbArc
 50
0
 51
150
  0
ARC
  5
15B
100
AcDbEntity
  8
Shape2DView004
  6
ByLayer
 62
  256
370
   -1
100
AcDbCircle
 10
522.3546666669999
 20
163.084666667
 40
0.170666667
100
AcDbArc
 50
-59.99999999999999
 51
0
  0
LINE
  5
15C
100
AcDbEntity
  8
Shape2DView004
  6
ByLayer
 62
  256
370
   -1
100
AcDbLine
 10
522.4400000000001
 20
162.936864998
 11
522.4400000000001
 21
143.563135002
  0
ARC
  5
15D
100
AcDbEntity
  8
Shape2DView004
  6
ByLayer
 62
  256
370
   -1
100
AcDbCircle
 10
522.3546666669999
 20
143.4153333329999
 40
0.170666667
100
AcDbArc
 50
0
 51
59.99999999999999
  0
ARC
  5
15E
100
AcDbEntity
  8
Shape2DView004
  6
ByLayer
 62
  256
370
   -1
100
AcDbCircle
 10
522.3546666669999
 20
143.4153333329999
 40
0.170666667
100
AcDbArc
 50
-150
 51
0
  0
LINE
  5
15F
100
AcDbEntity
  8
Shape2DView004
  6
ByLayer
 62
  256
370
   -1
100
AcDbLine
 10
520
 20
143.3299999999999
 11
522.206864998
 21
143.3299999999999
  0
LINE
  5
160
100
AcDbEntity
  8
Shape2DView004
  6
ByLayer
 62
  256
370
   -1
100
AcDbLine
 10
520
 20
101.87
 11
520
 21
143.3299999999999
  0
LINE
  5
161
100
AcDbEntity
  8
Shape2DView004
  6
ByLayer
 62
  256
370
   -1
100
AcDbLine
 10
520
 20
101.87
 11
522.206864998
 21
101.87
  0
ARC
  5
162
100
AcDbEntity
  8
Shape2DView004
  6
ByLayer
 62
  256
370
   -1
100
AcDbCircle
 10
522.3546666669999
 20
101.784666667
 40
0.170666667
100
AcDbArc
 50
0
 51
150
  0
ARC
  5
163
100
AcDbEntity
  8
Shape2DView004
  6
ByLayer
 62
  256
370
   -1
100
AcDbCircle
 10
522.3546666669999
 20
101.784666667
 40
0.170666667
100
AcDbArc
 50
-59.99999999999999
 51
0
  0
LINE
  5
164
100
AcDbEntity
  8
Shape2DView004
  6
ByLayer
 62
  256
370
   -1
100
AcDbLine
 10
522.4400000000001
 20
101.636864998
 11
522.4400000000001
 21
82.26313500200001
  0
ARC
  5
165
100
AcDbEntity
  8
Shape2DView004
  6
ByLayer
 62
  256
370
   -1
100
AcDbCircle
 10
522.3546666669999
 20
82.11533333299997
 40
0.170666667
100
AcDbArc
 50
0
 51
59.99999999999999
  0
ARC
  5
166
100
AcDbEntity
  8
Shape2DView004
  6
ByLayer
 62
  256
370
   -1
100
AcDbCircle
 10
522.3546666669999
 20
82.11533333299997
 40
0.170666667
100
AcDbArc
 50
-150
 51
0
  0
LINE
  5
167
100
AcDbEntity
  8
Shape2DView004
  6
ByLayer
 62
  256
370
   -1
100
AcDbLine
 10
520
 20
82.02999999999997
 11
522.206864998
 21
82.02999999999997
  0
LINE
  5
168
100
AcDbEntity
  8
Shape2DView004
  6
ByLayer
 62
  256
370
   -1
100
AcDbLine
 10
520
 20
40.56999999999994
 11
520
 21
82.02999999999997
  0
LINE
  5
169
100
AcDbEntity
  8
Shape2DView004
  6
ByLayer
 62
  256
370
   -1
100
AcDbLine
 10
520
 20
40.56999999999994
 11
522.206864998
 21
40.56999999999994
  0
ARC
  5
16A
100
AcDbEntity
  8
Shape2DView004
  6
ByLayer
 62
  256
370
   -1
100
AcDbCircle
 10
522.3546666669999
 20
40.48466666699994
 40
0.170666667
100
AcDbArc
 50
0
 51
150
  0
ARC
  5
16B
100
AcDbEntity
  8
Shape2DView004
  6
ByLayer
 62
  256
370
   -1
100
AcDbCircle
 10
522.3546666669999
 20
40.48466666699994
 40
0.170666667
100
AcDbArc
 50
-59.99999999999999
 51
0
  0
LINE
  5
16C
100
AcDbEntity
  8
Shape2DView004
  6
ByLayer
 62
  256
370
   -1
100
AcDbLine
 10
522.4400000000001
 20
40.33686499800001
 11
522.4400000000001
 21
20.96313500199994
  0
ARC
  5
16D
100
AcDbEntity
  8
Shape2DView004
  6
ByLayer
 62
  256
370
   -1
100
AcDbCircle
 10
522.3546666669999
 20
20.81533333300001
 40
0.170666667
100
AcDbArc
 50
0
 51
59.99999999999999
  0
ARC
  5
16E
100
AcDbEntity
  8
Shape2DView004
  6
ByLayer
 62
  256
370
   -1
100
AcDbCircle
 10
522.3546666669999
 20
20.81533333300001
 40
0.170666667
100
AcDbArc
 50
-150
 51
0
  0
LINE
  5
16F
100
AcDbEntity
  8
Shape2DView004
  6
ByLayer
 62
  256
370
   -1
100
AcDbLine
 10
520
 20
20.73000000000002
 11
522.206864998
 21
20.73000000000002
  0
LINE
  5
170
100
AcDbEntity
  8
Shape2DView004
  6
ByLayer
 62
  256
370
   -1
100
AcDbLine
 10
520
 20
0
 11
520
 21
20.73000000000002
  0
LINE
  5
171
100
AcDbEntity
  8
Shape2DView004
  6
ByLayer
 62
  256
370
   -1
100
AcDbLine
 10
730
 20
0
 11
520
 21
0
  0
LINE
  5
172
100
AcDbEntity
  8
Shape2DView004
  6
ByLayer
 62
  256
370
   -1
100
AcDbLine
 10
730
 20
20.73000000000002
 11
730
 21
0
  0
LINE
  5
173
100
AcDbEntity
  8
Shape2DView004
  6
ByLayer
 62
  256
370
   -1
100
AcDbLine
 10
727.793135002
 20
20.73000000000002
 11
730
 21
20.73000000000002
  0
ARC
  5
174
100
AcDbEntity
  8
Shape2DView004
  6
ByLayer
 62
  256
370
   -1
100
AcDbCircle
 10
727.6453333330001
 20
20.81533333300001
 40
0.170666667
100
AcDbArc
 50
120
 51
-30
  0
LINE
  5
175
100
AcDbEntity
  8
Shape2DView004
  6
ByLayer
 62
  256
370
   -1
100
AcDbLine
 10
727.5599999999999
 20
40.33686499800001
 11
727.5599999999999
 21
20.96313500199994
  0
ARC
  5
176
100
AcDbEntity
  8
Shape2DView004
  6
ByLayer
 62
  256
370
   -1
100
AcDbCircle
 10
727.6453333330001
 20
40.48466666699994
 40
0.170666667
100
AcDbArc
 50
30
 51
-120
  0
LINE
  5
177
100
AcDbEntity
  8
Shape2DView004
  6
ByLayer
 62
  256
370
   -1
100
AcDbLine
 10
727.793135002
 20
40.56999999999994
 11
730
 21
40.56999999999994
  0
LINE
  5
178
100
AcDbEntity
  8
Shape2DView004
  6
ByLayer
 62
  256
370
   -1
100
AcDbLine
 10
730
 20
82.02999999999997
 11
730
 21
40.56999999999994
  0
LINE
  5
179
100
AcDbEntity
  8
Shape2DView004
  6
ByLayer
 62
  256
370
   -1
100
AcDbLine
 10
727.793135002
 20
82.02999999999997
 11
730
 21
82.02999999999997
  0
ARC
  5
17A
100
AcDbEntity
  8
Shape2DView004
  6
ByLayer
 62
  256
370
   -1
100
AcDbCircle
 10
727.6453333330001
 20
82.11533333299997
 40
0.170666667
100
AcDbArc
 50
120
 51
-30
  0
LINE
  5
17B
100
AcDbEntity
  8
Shape2DView004
  6
ByLayer
 62
  256
370
   -1
100
AcDbLine
 10
727.5599999999999
 20
101.636864998
 11
727.5599999999999
 21
82.26313500200001
  0
ARC
  5
17C
100
AcDbEntity
  8
Shape2DView004
  6
ByLayer
 62
  256
370
   -1
100
AcDbCircle
 10
727.6453333330001
 20
101.784666667
 40
0.170666667
100
AcDbArc
 50
30
 51
-120
  0
LINE
  5
17D
100
AcDbEntity
  8
Shape2DView004
  6
ByLayer
 62
  256
370
   -1
100
AcDbLine
 10
727.793135002
 20
101.87
 11
730
 21
101.87
  0
LINE
  5
17E
100
AcDbEntity
  8
Shape2DView004
  6
ByLayer
 62
  256
370
   -1
100
AcDbLine
 10
730
 20
143.3299999999999
 11
730
 21
101.87
  0
LINE
  5
17F
100
AcDbEntity
  8
Shape2DView004
  6
ByLayer
 62
  256
370
   -1
100
AcDbLine
 10
727.793135002
 20
143.3299999999999
 11
730
 21
143.3299999999999
  0
ARC
  5
180
100
AcDbEntity
  8
Shape2DView004
  6
ByLayer
 62
  256
370
   -1
100
AcDbCircle
 10
727.6453333330001
 20
143.4153333329999
 40
0.170666667
100
AcDbArc
 50
120
 51
-30
  0
LINE
  5
181
100
AcDbEntity
  8
Shape2DView004
  6
ByLayer
 62
  256
370
   -1
100
AcDbLine
 10
727.5599999999999
 20
162.936864998
 11
727.5599999999999
 21
143.563135002
  0
ARC
  5
182
100
AcDbEntity
  8
Shape2DView004
  6
ByLayer
 62
  256
370
   -1
100
AcDbCircle
 10
727.6453333330001
 20
163.084666667
 40
0.170666667
100
AcDbArc
 50
30
 51
-120
  0
LINE
  5
183
100
AcDbEntity
  8
Shape2DView004
  6
ByLayer
 62
  256
370
   -1
100
AcDbLine
 10
727.793135002
 20
163.17
 11
730
 21
163.17
  0
LINE
  5
184
100
AcDbEntity
  8
Shape2DView004
  6
ByLayer
 62
  256
370
   -1
100
AcDbLine
 10
730
 20
204.63
 11
730
 21
163.17
  0
LINE
  5
185
100
AcDbEntity
  8
Shape2DView004
  6
ByLayer
 62
  256
370
   -1
100
AcDbLine
 10
727.793135002
 20
204.63
 11
730
 21
204.63
  0
ARC
  5
186
100
AcDbEntity
  8
Shape2DView004
  6
ByLayer
 62
  256
370
   -1
100
AcDbCircle
 10
727.6453333330001
 20
204.715333333
 40
0.170666667
100
AcDbArc
 50
120
 51
-30
  0
LINE
  5
187
100
AcDbEntity
  8
Shape2DView004
  6
ByLayer
 62
  256
370
   -1
100
AcDbLine
 10
727.5599999999999
 20
224.236864998
 11
727.5599999999999
 21
204.8631350019999
  0
ARC
  5
188
100
AcDbEntity
  8
Shape2DView004
  6
ByLayer
 62
  256
370
   -1
100
AcDbCircle
 10
727.6453333330001
 20
224.384666667
 40
0.170666667
100
AcDbArc
 50
30
 51
-120
  0
LINE
  5
189
100
AcDbEntity
  8
Shape2DView004
  6
ByLayer
 62
  256
370
   -1
100
AcDbLine
 10
727.793135002
 20
224.47
 11
730
 21
224.47
  0
CIRCLE
  5
18A
100
AcDbEntity
  8
Shape2DView004
  6
ByLayer
 62
  256
370
   -1
100
AcDbCircle
 10
710
 20
20
 40
5.5
  0
LINE
  5
18B
100
AcDbEntity
  8
Shape2DView004
  6
ByLayer
 62
  256
370
   -1
100
AcDbLine
 10
665
 20
17.60000000000002
 11
585
 21
17.60000000000002
  0
ARC
  5
18C
100
AcDbEntity
  8
Shape2DView004
  6
ByLayer
 62
  256
370
   -1
100
AcDbCircle
 10
665
 20
67.60000000000002
 40
50
100
AcDbArc
 50
-90
 51
0
  0
ARC
  5
18D
100
AcDbEntity
  8
Shape2DView004
  6
ByLayer
 62
  256
370
   -1
100
AcDbCircle
 10
585
 20
67.60000000000002
 40
50
100
AcDbArc
 50
180
 51
-90
  0
LINE
  5
18E
100
AcDbEntity
  8
Shape2DView004
  6
ByLayer
 62
  256
370
   -1
100
AcDbLine
 10
715
 20
167.6
 11
715
 21
67.60000000000002
  0
LINE
  5
18F
100
AcDbEntity
  8
Shape2DView004
  6
ByLayer
 62
  256
370
   -1
100
AcDbLine
 10
535
 20
67.60000000000002
 11
535
 21
167.6
  0
ARC
  5
190
100
AcDbEntity
  8
Shape2DView004
  6
ByLayer
 62
  256
370
   -1
100
AcDbCircle
 10
665
 20
167.6
 40
50
100
AcDbArc
 50
0
 51
90
  0
ARC
  5
191
100
AcDbEntity
  8
Shape2DView004
  6
ByLayer
 62
  256
370
   -1
100
AcDbCircle
 10
585
 20
167.6
 40
50
100
AcDbArc
 50
90
 51
180
  0
LINE
  5
192
100
AcDbEntity
  8
Shape2DView004
  6
ByLayer
 62
  256
370
   -1
100
AcDbLine
 10
585
 20
217.6
 11
665
 21
217.6
  0
CIRCLE
  5
193
100
AcDbEntity
  8
Shape2DView004
  6
ByLayer
 62
  256
370
   -1
100
AcDbCircle
 10
540
 20
20
 40
5.5
  0
CIRCLE
  5
194
100
AcDbEntity
  8
Shape2DView004
  6
ByLayer
 62
  256
370
   -1
100
AcDbCircle
 10
710
 20
227.6
 40
5.5
  0
CIRCLE
  5
195
100
AcDbEntity
  8
Shape2DView004
  6
ByLayer
 62
  256
370
   -1
100
AcDbCircle
 10
625
 20
227.6
 40
5.5
  0
CIRCLE
  5
196
100
AcDbEntity
  8
Shape2DView004
  6
ByLayer
 62
  256
370
   -1
100
AcDbCircle
 10
540
 20
227.6
 40
5.5
  0
LINE
  5
197
100
AcDbEntity
  8
Shape2DView002
  6
ByLayer
 62
  256
370
   -1
100
AcDbLine
 10
517
 20
248
 11
224.8
 21
248
  0
LINE
  5
198
100
AcDbEntity
  8
Shape2DView002
  6
ByLayer
 62
  256
370
   -1
100
AcDbLine
 10
517
 20
268.41
 11
517
 21
248
  0
LINE
  5
199
100
AcDbEntity
  8
Shape2DView002
  6
ByLayer
 62
  256
370
   -1
100
AcDbLine
 10
224.8
 20
248
 11
224.8
 21
268.41
  0
ARC
  5
19A
100
AcDbEntity
  8
Shape2DView002
  6
ByLayer
 62
  256
370
   -1
100
AcDbCircle
 10
517
 20
268.57
 40
0.16
100
AcDbArc
 50
0
 51
90
  0
ARC
  5
19B
100
AcDbEntity
  8
Shape2DView002
  6
ByLayer
 62
  256
370
   -1
100
AcDbCircle
 10
517
 20
268.57
 40
0.16
100
AcDbArc
 50
90
 51
-90
  0
ARC
  5
19C
100
AcDbEntity
  8
Shape2DView002
  6
ByLayer
 62
  256
370
   -1
100
AcDbCircle
 10
224.8
 20
268.57
 40
0.16
100
AcDbArc
 50
-90
 51
90
  0
ARC
  5
19D
100
AcDbEntity
  8
Shape2DView002
  6
ByLayer
 62
  256
370
   -1
100
AcDbCircle
 10
224.8
 20
268.57
 40
0.16
100
AcDbArc
 50
90
 51
180
  0
LINE
  5
19E
100
AcDbEntity
  8
Shape2DView002
  6
ByLayer
 62
  256
370
   -1
100
AcDbLine
 10
517.16
 20
268.57
 11
519.4
 21
268.57
  0
LINE
  5
19F
100
AcDbEntity
  8
Shape2DView002
  6
ByLayer
 62
  256
370
   -1
100
AcDbLine
 10
224.64
 20
268.57
 11
222.4
 21
268.57
  0
LINE
  5
1A0
100
AcDbEntity
  8
Shape2DView002
  6
ByLayer
 62
  256
370
   -1
100
AcDbLine
 10
519.4
 20
268.57
 11
519.4
 21
288.73
  0
ARC
  5
1A1
100
AcDbEntity
  8
Shape2DView002
  6
ByLayer
 62
  256
370
   -1
100
AcDbCircle
 10
517
 20
288.73
 40
0.16
100
AcDbArc
 50
90
 51
-90
  0
ARC
  5
1A2
100
AcDbEntity
  8
Shape2DView002
  6
ByLayer
 62
  256
370
   -1
100
AcDbCircle
 10
517
 20
288.73
 40
0.16
100
AcDbArc
 50
-90
 51
0
  0
LINE
  5
1A3
100
AcDbEntity
  8
Shape2DView002
  6
ByLayer
 62
  256
370
   -1
100
AcDbLine
 10
517
 20
329.71
 11
517
 21
288.89
  0
ARC
  5
1A4
100
AcDbEntity
  8
Shape2DView002
  6
ByLayer
 62
  256
370
   -1
100
AcDbCircle
 10
517
 20
329.87
 40
0.16
100
AcDbArc
 50
0
 51
90
  0
ARC
  5
1A5
100
AcDbEntity
  8
Shape2DView002
  6
ByLayer
 62
  256
370
   -1
100
AcDbCircle
 10
517
 20
329.87
 40
0.16
100
AcDbArc
 50
90
 51
-90
  0
LINE
  5
1A6
100
AcDbEntity
  8
Shape2DView002
  6
ByLayer
 62
  256
370
   -1
100
AcDbLine
 10
517.16
 20
288.73
 11
519.4
 21
288.73
  0
LINE
  5
1A7
100
AcDbEntity
  8
Shape2DView002
  6
ByLayer
 62
  256
370
   -1
100
AcDbLine
 10
517.16
 20
329.87
 11
519.4
 21
329.87
  0
LINE
  5
1A8
100
AcDbEntity
  8
Shape2DView002
  6
ByLayer
 62
  256
370
   -1
100
AcDbLine
 10
519.4
 20
329.87
 11
519.4
 21
350.03
  0
ARC
  5
1A9
100
AcDbEntity
  8
Shape2DView002
  6
ByLayer
 62
  256
370
   -1
100
AcDbCircle
 10
517
 20
350.03
 40
0.16
100
AcDbArc
 50
90
 51
-90
  0
ARC
  5
1AA
100
AcDbEntity
  8
Shape2DView002
  6
ByLayer
 62
  256
370
   -1
100
AcDbCircle
 10
517
 20
350.03
 40
0.16
100
AcDbArc
 50
-90
 51
0
  0
LINE
  5
1AB
100
AcDbEntity
  8
Shape2DView002
  6
ByLayer
 62
  256
370
   -1
100
AcDbLine
 10
517
 20
391.01
 11
517
 21
350.19
  0
ARC
  5
1AC
100
AcDbEntity
  8
Shape2DView002
  6
ByLayer
 62
  256
370
   -1
100
AcDbCircle
 10
517
 20
391.17
 40
0.16
100
AcDbArc
 50
0
 51
90
  0
ARC
  5
1AD
100
AcDbEntity
  8
Shape2DView002
  6
ByLayer
 62
  256
370
   -1
100
AcDbCircle
 10
517
 20
391.17
 40
0.16
100
AcDbArc
 50
90
 51
-90
  0
LINE
  5
1AE
100
AcDbEntity
  8
Shape2DView002
  6
ByLayer
 62
  256
370
   -1
100
AcDbLine
 10
517.16
 20
350.03
 11
519.4
 21
350.03
  0
LINE
  5
1AF
100
AcDbEntity
  8
Shape2DView002
  6
ByLayer
 62
  256
370
   -1
100
AcDbLine
 10
517.16
 20
391.17
 11
519.4
 21
391.17
  0
LINE
  5
1B0
100
AcDbEntity
  8
Shape2DView002
  6
ByLayer
 62
  256
370
   -1
100
AcDbLine
 10
519.4
 20
391.17
 11
519.4
 21
411.33
  0
ARC
  5
1B1
100
AcDbEntity
  8
Shape2DView002
  6
ByLayer
 62
  256
370
   -1
100
AcDbCircle
 10
517
 20
411.33
 40
0.16
100
AcDbArc
 50
90
 51
-90
  0
ARC
  5
1B2
100
AcDbEntity
  8
Shape2DView002
  6
ByLayer
 62
  256
370
   -1
100
AcDbCircle
 10
517
 20
411.33
 40
0.16
100
AcDbArc
 50
-90
 51
0
  0
LINE
  5
1B3
100
AcDbEntity
  8
Shape2DView002
  6
ByLayer
 62
  256
370
   -1
100
AcDbLine
 10
517
 20
452.31
 11
517
 21
411.49
  0
ARC
  5
1B4
100
AcDbEntity
  8
Shape2DView002
  6
ByLayer
 62
  256
370
   -1
100
AcDbCircle
 10
517
 20
452.47
 40
0.16
100
AcDbArc
 50
0
 51
90
  0
ARC
  5
1B5
100
AcDbEntity
  8
Shape2DView002
  6
ByLayer
 62
  256
370
   -1
100
AcDbCircle
 10
517
 20
452.47
 40
0.16
100
AcDbArc
 50
90
 51
-90
  0
LINE
  5
1B6
100
AcDbEntity
  8
Shape2DView002
  6
ByLayer
 62
  256
370
   -1
100
AcDbLine
 10
517.16
 20
411.33
 11
519.4
 21
411.33
  0
LINE
  5
1B7
100
AcDbEntity
  8
Shape2DView002
  6
ByLayer
 62
  256
370
   -1
100
AcDbLine
 10
517.16
 20
452.47
 11
519.4
 21
452.47
  0
LINE
  5
1B8
100
AcDbEntity
  8
Shape2DView002
  6
ByLayer
 62
  256
370
   -1
100
AcDbLine
 10
519.4
 20
452.47
 11
519.4
 21
472.63
  0
ARC
  5
1B9
100
AcDbEntity
  8
Shape2DView002
  6
ByLayer
 62
  256
370
   -1
100
AcDbCircle
 10
517
 20
472.63
 40
0.16
100
AcDbArc
 50
90
 51
-90
  0
ARC
  5
1BA
100
AcDbEntity
  8
Shape2DView002
  6
ByLayer
 62
  256
370
   -1
100
AcDbCircle
 10
517
 20
472.63
 40
0.16
100
AcDbArc
 50
-90
 51
0
  0
LINE
  5
1BB
100
AcDbEntity
  8
Shape2DView002
  6
ByLayer
 62
  256
370
   -1
100
AcDbLine
 10
517
 20
493.2
 11
517
 21
472.79
  0
LINE
  5
1BC
100
AcDbEntity
  8
Shape2DView002
  6
ByLayer
 62
  256
370
   -1
100
AcDbLine
 10
490.715
 20
493.2
 11
517
 21
493.2
  0
ARC
  5
1BD
100
AcDbEntity
  8
Shape2DView002
  6
ByLayer
 62
  256
370
   -1
100
AcDbCircle
 10
490.5549999999999
 20
493.2
 40
0.16
100
AcDbArc
 50
90
 51
180
  0
ARC
  5
1BE
100
AcDbEntity
  8
Shape2DView002
  6
ByLayer
 62
  256
370
   -1
100
AcDbCircle
 10
490.5549999999999
 20
493.2
 40
0.16
100
AcDbArc
 50
180
 51
0
  0
LINE
  5
1BF
100
AcDbEntity
  8
Shape2DView002
  6
ByLayer
 62
  256
370
   -1
100
AcDbLine
 10
517.16
 20
472.63
 11
519.4
 21
472.63
  0
LINE
  5
1C0
100
AcDbEntity
  8
Shape2DView002
  6
ByLayer
 62
  256
370
   -1
100
AcDbLine
 10
490.5549999999999
 20
493.36
 11
490.5549999999999
 21
495.6
  0
LINE
  5
1C1
100
AcDbEntity
  8
Shape2DView002
  6
ByLayer
 62
  256
370
   -1
100
AcDbLine
 10
490.5549999999999
 20
495.6
 11
470.395
 21
495.6
  0
ARC
  5
1C2
100
AcDbEntity
  8
Shape2DView002
  6
ByLayer
 62
  256
370
   -1
100
AcDbCircle
 10
470.395
 20
493.2
 40
0.16
100
AcDbArc
 50
180
 51
0
  0
ARC
  5
1C3
100
AcDbEntity
  8
Shape2DView002
  6
ByLayer
 62
  256
370
   -1
100
AcDbCircle
 10
470.395
 20
493.2
 40
0.16
100
AcDbArc
 50
0
 51
90
  0
LINE
  5
1C4
100
AcDbEntity
  8
Shape2DView002
  6
ByLayer
 62
  256
370
   -1
100
AcDbLine
 10
417.665
 20
493.2
 11
470.235
 21
493.2
  0
ARC
  5
1C5
100
AcDbEntity
  8
Shape2DView002
  6
ByLayer
 62
  256
370
   -1
100
AcDbCircle
 10
417.505
 20
493.2
 40
0.16
100
AcDbArc
 50
90
 51
180
  0
ARC
  5
1C6
100
AcDbEntity
  8
Shape2DView002
  6
ByLayer
 62
  256
370
   -1
100
AcDbCircle
 10
417.505
 20
493.2
 40
0.16
100
AcDbArc
 50
180
 51
0
  0
LINE
  5
1C7
100
AcDbEntity
  8
Shape2DView002
  6
ByLayer
 62
  256
370
   -1
100
AcDbLine
 10
470.395
 20
493.36
 11
470.395
 21
495.6
  0
LINE
  5
1C8
100
AcDbEntity
  8
Shape2DView002
  6
ByLayer
 62
  256
370
   -1
100
AcDbLine
 10
417.505
 20
493.36
 11
417.505
 21
495.6
  0
LINE
  5
1C9
100
AcDbEntity
  8
Shape2DView002
  6
ByLayer
 62
  256
370
   -1
100
AcDbLine
 10
417.505
 20
495.6
 11
397.345
 21
495.6
  0
ARC
  5
1CA
100
AcDbEntity
  8
Shape2DView002
  6
ByLayer
 62
  256
370
   -1
100
AcDbCircle
 10
397.345
 20
493.2
 40
0.16
100
AcDbArc
 50
180
 51
0
  0
ARC
  5
1CB
100
AcDbEntity
  8
Shape2DView002
  6
ByLayer
 62
  256
370
   -1
100
AcDbCircle
 10
397.345
 20
493.2
 40
0.16
100
AcDbArc
 50
0
 51
90
  0
LINE
  5
1CC
100
AcDbEntity
  8
Shape2DView002
  6
ByLayer
 62
  256
370
   -1
100
AcDbLine
 10
344.615
 20
493.2
 11
397.1849999999999
 21
493.2
  0
ARC
  5
1CD
100
AcDbEntity
  8
Shape2DView002
  6
ByLayer
 62
  256
370
   -1
100
AcDbCircle
 10
344.455
 20
493.2
 40
0.16
100
AcDbArc
 50
90
 51
180
  0
ARC
  5
1CE
100
AcDbEntity
  8
Shape2DView002
  6
ByLayer
 62
  256
370
   -1
100
AcDbCircle
 10
344.455
 20
493.2
 40
0.16
100
AcDbArc
 50
180
 51
0
  0
LINE
  5
1CF
100
AcDbEntity
  8
Shape2DView002
  6
ByLayer
 62
  256
370
   -1
100
AcDbLine
 10
397.345
 20
493.36
 11
397.345
 21
495.6
  0
LINE
  5
1D0
100
AcDbEntity
  8
Shape2DView002
  6
ByLayer
 62
  256
370
   -1
100
AcDbLine
 10
344.455
 20
493.36
 11
344.455
 21
495.6
  0
LINE
  5
1D1
100
AcDbEntity
  8
Shape2DView002
  6
ByLayer
 62
  256
370
   -1
100
AcDbLine
 10
344.455
 20
495.6
 11
324.295
 21
495.6
  0
ARC
  5
1D2
100
AcDbEntity
  8
Shape2DView002
  6
ByLayer
 62
  256
370
   -1
100
AcDbCircle
 10
324.295
 20
493.2
 40
0.16
100
AcDbArc
 50
180
 51
0
  0
ARC
  5
1D3
100
AcDbEntity
  8
Shape2DView002
  6
ByLayer
 62
  256
370
   -1
100
AcDbCircle
 10
324.295
 20
493.2
 40
0.16
100
AcDbArc
 50
0
 51
90
  0
LINE
  5
1D4
100
AcDbEntity
  8
Shape2DView002
  6
ByLayer
 62
  256
370
   -1
100
AcDbLine
 10
271.565
 20
493.2
 11
324.135
 21
493.2
  0
ARC
  5
1D5
100
AcDbEntity
  8
Shape2DView002
  6
ByLayer
 62
  256
370
   -1
100
AcDbCircle
 10
271.405
 20
493.2
 40
0.16
100
AcDbArc
 50
90
 51
180
  0
ARC
  5
1D6
100
AcDbEntity
  8
Shape2DView002
  6
ByLayer
 62
  256
370
   -1
100
AcDbCircle
 10
271.405
 20
493.2
 40
0.16
100
AcDbArc
 50
180
 51
0
  0
LINE
  5
1D7
100
AcDbEntity
  8
Shape2DView002
  6
ByLayer
 62
  256
370
   -1
100
AcDbLine
 10
324.295
 20
493.36
 11
324.295
 21
495.6
  0
LINE
  5
1D8
100
AcDbEntity
  8
Shape2DView002
  6
ByLayer
 62
  256
370
   -1
100
AcDbLine
 10
271.405
 20
493.36
 11
271.405
 21
495.6
  0
LINE
  5
1D9
100
AcDbEntity
  8
Shape2DView002
  6
ByLayer
 62
  256
370
   -1
100
AcDbLine
 10
271.405
 20
495.6
 11
251.245
 21
495.6
  0
ARC
  5
1DA
100
AcDbEntity
  8
Shape2DView002
  6
ByLayer
 62
  256
370
   -1
100
AcDbCircle
 10
251.245
 20
493.2
 40
0.16
100
AcDbArc
 50
180
 51
0
  0
ARC
  5
1DB
100
AcDbEntity
  8
Shape2DView002
  6
ByLayer
 62
  256
370
   -1
100
AcDbCircle
 10
251.245
 20
493.2
 40
0.16
100
AcDbArc
 50
0
 51
90
  0
LINE
  5
1DC
100
AcDbEntity
  8
Shape2DView002
  6
ByLayer
 62
  256
370
   -1
100
AcDbLine
 10
224.8
 20
493.2
 11
251.085
 21
493.2
  0
LINE
  5
1DD
100
AcDbEntity
  8
Shape2DView002
  6
ByLayer
 62
  256
370
   -1
100
AcDbLine
 10
224.8
 20
472.79
 11
224.8
 21
493.2
  0
ARC
  5
1DE
100
AcDbEntity
  8
Shape2DView002
  6
ByLayer
 62
  256
370
   -1
100
AcDbCircle
 10
224.8
 20
472.63
 40
0.16
100
AcDbArc
 50
180
 51
-90
  0
ARC
  5
1DF
100
AcDbEntity
  8
Shape2DView002
  6
ByLayer
 62
  256
370
   -1
100
AcDbCircle
 10
224.8
 20
472.63
 40
0.16
100
AcDbArc
 50
-90
 51
90
  0
LINE
  5
1E0
100
AcDbEntity
  8
Shape2DView002
  6
ByLayer
 62
  256
370
   -1
100
AcDbLine
 10
251.245
 20
493.36
 11
251.245
 21
495.6
  0
LINE
  5
1E1
100
AcDbEntity
  8
Shape2DView002
  6
ByLayer
 62
  256
370
   -1
100
AcDbLine
 10
224.64
 20
472.63
 11
222.4
 21
472.63
  0
LINE
  5
1E2
100
AcDbEntity
  8
Shape2DView002
  6
ByLayer
 62
  256
370
   -1
100
AcDbLine
 10
222.4
 20
472.63
 11
222.4
 21
452.47
  0
ARC
  5
1E3
100
AcDbEntity
  8
Shape2DView002
  6
ByLayer
 62
  256
370
   -1
100
AcDbCircle
 10
224.8
 20
452.47
 40
0.16
100
AcDbArc
 50
-90
 51
90
  0
ARC
  5
1E4
100
AcDbEntity
  8
Shape2DView002
  6
ByLayer
 62
  256
370
   -1
100
AcDbCircle
 10
224.8
 20
452.47
 40
0.16
100
AcDbArc
 50
90
 51
180
  0
LINE
  5
1E5
100
AcDbEntity
  8
Shape2DView002
  6
ByLayer
 62
  256
370
   -1
100
AcDbLine
 10
224.8
 20
411.49
 11
224.8
 21
452.31
  0
ARC
  5
1E6
100
AcDbEntity
  8
Shape2DView002
  6
ByLayer
 62
  256
370
   -1
100
AcDbCircle
 10
224.8
 20
411.33
 40
0.16
100
AcDbArc
 50
180
 51
-90
  0
ARC
  5
1E7
100
AcDbEntity
  8
Shape2DView002
  6
ByLayer
 62
  256
370
   -1
100
AcDbCircle
 10
224.8
 20
411.33
 40
0.16
100
AcDbArc
 50
-90
 51
90
  0
LINE
  5
1E8
100
AcDbEntity
  8
Shape2DView002
  6
ByLayer
 62
  256
370
   -1
100
AcDbLine
 10
224.64
 20
452.47
 11
222.4
 21
452.47
  0
LINE
  5
1E9
100
AcDbEntity
  8
Shape2DView002
  6
ByLayer
 62
  256
370
   -1
100
AcDbLine
 10
224.64
 20
411.33
 11
222.4
 21
411.33
  0
LINE
  5
1EA
100
AcDbEntity
  8
Shape2DView002
  6
ByLayer
 62
  256
370
   -1
100
AcDbLine
 10
222.4
 20
411.33
 11
222.4
 21
391.17
  0
ARC
  5
1EB
100
AcDbEntity
  8
Shape2DView002
  6
ByLayer
 62
  256
370
   -1
100
AcDbCircle
 10
224.8
 20
391.17
 40
0.16
100
AcDbArc
 50
-90
 51
90
  0
ARC
  5
1EC
100
AcDbEntity
  8
Shape2DView002
  6
ByLayer
 62
  256
370
   -1
100
AcDbCircle
 10
224.8
 20
391.17
 40
0.16
100
AcDbArc
 50
90
 51
180
  0
LINE
  5
1ED
100
AcDbEntity
  8
Shape2DView002
  6
ByLayer
 62
  256
370
   -1
100
AcDbLine
 10
224.8
 20
350.19
 11
224.8
 21
391.01
  0
ARC
  5
1EE
100
AcDbEntity
  8
Shape2DView002
  6
ByLayer
 62
  256
370
   -1
100
AcDbCircle
 10
224.8
 20
350.03
 40
0.16
100
AcDbArc
 50
180
 51
-90
  0
ARC
  5
1EF
100
AcDbEntity
  8
Shape2DView002
  6
ByLayer
 62
  256
370
   -1
100
AcDbCircle
 10
224.8
 20
350.03
 40
0.16
100
AcDbArc
 50
-90
 51
90
  0
LINE
  5
1F0
100
AcDbEntity
  8
Shape2DView002
  6
ByLayer
 62
  256
370
   -1
100
AcDbLine
 10
224.64
 20
391.17
 11
222.4
 21
391.17
  0
LINE
  5
1F1
100
AcDbEntity
  8
Shape2DView002
  6
ByLayer
 62
  256
370
   -1
100
AcDbLine
 10
224.64
 20
350.03
 11
222.4
 21
350.03
  0
LINE
  5
1F2
100
AcDbEntity
  8
Shape2DView002
  6
ByLayer
 62
  256
370
   -1
100
AcDbLine
 10
222.4
 20
350.03
 11
222.4
 21
329.87
  0
ARC
  5
1F3
100
AcDbEntity
  8
Shape2DView002
  6
ByLayer
 62
  256
370
   -1
100
AcDbCircle
 10
224.8
 20
329.87
 40
0.16
100
AcDbArc
 50
-90
 51
90
  0
ARC
  5
1F4
100
AcDbEntity
  8
Shape2DView002
  6
ByLayer
 62
  256
370
   -1
100
AcDbCircle
 10
224.8
 20
329.87
 40
0.16
100
AcDbArc
 50
90
 51
180
  0
LINE
  5
1F5
100
AcDbEntity
  8
Shape2DView002
  6
ByLayer
 62
  256
370
   -1
100
AcDbLine
 10
224.8
 20
288.89
 11
224.8
 21
329.71
  0
ARC
  5
1F6
100
AcDbEntity
  8
Shape2DView002
  6
ByLayer
 62
  256
370
   -1
100
AcDbCircle
 10
224.8
 20
288.73
 40
0.16
100
AcDbArc
 50
180
 51
-90
  0
ARC
  5
1F7
100
AcDbEntity
  8
Shape2DView002
  6
ByLayer
 62
  256
370
   -1
100
AcDbCircle
 10
224.8
 20
288.73
 40
0.16
100
AcDbArc
 50
-90
 51
90
  0
LINE
  5
1F8
100
AcDbEntity
  8
Shape2DView002
  6
ByLayer
 62
  256
370
   -1
100
AcDbLine
 10
224.64
 20
329.87
 11
222.4
 21
329.87
  0
LINE
  5
1F9
100
AcDbEntity
  8
Shape2DView002
  6
ByLayer
 62
  256
370
   -1
100
AcDbLine
 10
224.64
 20
288.73
 11
222.4
 21
288.73
  0
LINE
  5
1FA
100
AcDbEntity
  8
Shape2DView002
  6
ByLayer
 62
  256
370
   -1
100
AcDbLine
 10
222.4
 20
288.73
 11
222.4
 21
268.57
  0
LINE
  5
1FB
100
AcDbEntity
  8
Shape2DView003
  6
ByLayer
 62
  256
370
   -1
100
AcDbLine
 10
0
 20
545.6
 11
0
 21
522.47
  0
LINE
  5
1FC
100
AcDbEntity
  8
Shape2DView003
  6
ByLayer
 62
  256
370
   -1
100
AcDbLine
 10
16.32999999999998
 20
545.6
 11
0
 21
545.6
  0
LINE
  5
1FD
100
AcDbEntity
  8
Shape2DView003
  6
ByLayer
 62
  256
370
   -1
100
AcDbLine
 10
16.32999999999998
 20
543.393135002
 11
16.32999999999998
 21
545.6
  0
ARC
  5
1FE
100
AcDbEntity
  8
Shape2DView003
  6
ByLayer
 62
  256
370
   -1
100
AcDbCircle
 10
16.41533333299998
 20
543.245333333
 40
0.170666667
100
AcDbArc
 50
120
 51
-30
  0
LINE
  5
1FF
100
AcDbEntity
  8
Shape2DView003
  6
ByLayer
 62
  256
370
   -1
100
AcDbLine
 10
16.56313500200002
 20
543.16
 11
35.93686499799998
 21
543.16
  0
ARC
  5
200
100
AcDbEntity
  8
Shape2DView003
  6
ByLayer
 62
  256
370
   -1
100
AcDbCircle
 10
36.08466666700002
 20
543.245333333
 40
0.170666667
100
AcDbArc
 50
-150
 51
59.99999999999999
  0
LINE
  5
201
100
AcDbEntity
  8
Shape2DView003
  6
ByLayer
 62
  256
370
   -1
100
AcDbLine
 10
36.17000000000002
 20
543.393135002
 11
36.17000000000002
 21
545.6
  0
LINE
  5
202
100
AcDbEntity
  8
Shape2DView003
  6
ByLayer
 62
  256
370
   -1
100
AcDbLine
 10
68.82999999999998
 20
545.6
 11
36.17000000000002
 21
545.6
  0
LINE
  5
203
100
AcDbEntity
  8
Shape2DView003
  6
ByLayer
 62
  256
370
   -1
100
AcDbLine
 10
68.82999999999998
 20
543.393135002
 11
68.82999999999998
 21
545.6
  0
ARC
  5
204
100
AcDbEntity
  8
Shape2DView003
  6
ByLayer
 62
  256
370
   -1
100
AcDbCircle
 10
68.91533333299998
 20
543.245333333
 40
0.170666667
100
AcDbArc
 50
120
 51
-30
  0
LINE
  5
205
100
AcDbEntity
  8
Shape2DView003
  6
ByLayer
 62
  256
370
   -1
100
AcDbLine
 10
69.06313500200002
 20
543.16
 11
88.43686499799998
 21
543.16
  0
ARC
  5
206
100
AcDbEntity
  8
Shape2DView003
  6
ByLayer
 62
  256
370
   -1
100
AcDbCircle
 10
88.58466666700002
 20
543.245333333
 40
0.170666667
100
AcDbArc
 50
-150
 51
59.99999999999999
  0
LINE
  5
207
100
AcDbEntity
  8
Shape2DView003
  6
ByLayer
 62
  256
370
   -1
100
AcDbLine
 10
88.67000000000002
 20
543.393135002
 11
88.67000000000002
 21
545.6
  0
LINE
  5
208
100
AcDbEntity
  8
Shape2DView003
  6
ByLayer
 62
  256
370
   -1
100
AcDbLine
 10
121.33
 20
545.6
 11
88.67000000000002
 21
545.6
  0
LINE
  5
209
100
AcDbEntity
  8
Shape2DView003
  6
ByLayer
 62
  256
370
   -1
100
AcDbLine
 10
121.33
 20
543.393135002
 11
121.33
 21
545.6
  0
ARC
  5
20A
100
AcDbEntity
  8
Shape2DView003
  6
ByLayer
 62
  256
370
   -1
100
AcDbCircle
 10
121.415333333
 20
543.245333333
 40
0.170666667
100
AcDbArc
 50
120
 51
-30
  0
LINE
  5
20B
100
AcDbEntity
  8
Shape2DView003
  6
ByLayer
 62
  256
370
   -1
100
AcDbLine
 10
121.563135002
 20
543.16
 11
140.936864998
 21
543.16
  0
ARC
  5
20C
100
AcDbEntity
  8
Shape2DView003
  6
ByLayer
 62
  256
370
   -1
100
AcDbCircle
 10
141.084666667
 20
543.245333333
 40
0.170666667
100
AcDbArc
 50
-150
 51
59.99999999999999
  0
LINE
  5
20D
100
AcDbEntity
  8
Shape2DView003
  6
ByLayer
 62
  256
370
   -1
100
AcDbLine
 10
141.17
 20
543.393135002
 11
141.17
 21
545.6
  0
LINE
  5
20E
100
AcDbEntity
  8
Shape2DView003
  6
ByLayer
 62
  256
370
   -1
100
AcDbLine
 10
173.83
 20
545.6
 11
141.17
 21
545.6
  0
LINE
  5
20F
100
AcDbEntity
  8
Shape2DView003
  6
ByLayer
 62
  256
370
   -1
100
AcDbLine
 10
173.83
 20
543.393135002
 11
173.83
 21
545.6
  0
ARC
  5
210
100
AcDbEntity
  8
Shape2DView003
  6
ByLayer
 62
  256
370
   -1
100
AcDbCircle
 10
173.915333333
 20
543.245333333
 40
0.170666667
100
AcDbArc
 50
120
 51
-30
  0
LINE
  5
211
100
AcDbEntity
  8
Shape2DView003
  6
ByLayer
 62
  256
370
   -1
100
AcDbLine
 10
174.063135002
 20
543.16
 11
193.436864998
 21
543.16
  0
ARC
  5
212
100
AcDbEntity
  8
Shape2DView003
  6
ByLayer
 62
  256
370
   -1
100
AcDbCircle
 10
193.584666667
 20
543.245333333
 40
0.170666667
100
AcDbArc
 50
-150
 51
59.99999999999999
  0
LINE
  5
213
100
AcDbEntity
  8
Shape2DView003
  6
ByLayer
 62
  256
370
   -1
100
AcDbLine
 10
193.67
 20
543.393135002
 11
193.67
 21
545.6
  0
LINE
  5
214
100
AcDbEntity
  8
Shape2DView003
  6
ByLayer
 62
  256
370
   -1
100
AcDbLine
 10
210
 20
545.6
 11
193.67
 21
545.6
  0
LINE
  5
215
100
AcDbEntity
  8
Shape2DView003
  6
ByLayer
 62
  256
370
   -1
100
AcDbLine
 10
210
 20
522.47
 11
210
 21
545.6
  0
LINE
  5
216
100
AcDbEntity
  8
Shape2DView003
  6
ByLayer
 62
  256
370
   -1
100
AcDbLine
 10
210
 20
522.47
 11
207.793135002
 21
522.47
  0
ARC
  5
217
100
AcDbEntity
  8
Shape2DView003
  6
ByLayer
 62
  256
370
   -1
100
AcDbCircle
 10
207.6453333330001
 20
522.384666667
 40
0.170666667
100
AcDbArc
 50
30
 51
180
  0
ARC
  5
218
100
AcDbEntity
  8
Shape2DView003
  6
ByLayer
 62
  256
370
   -1
100
AcDbCircle
 10
207.6453333330001
 20
522.384666667
 40
0.170666667
100
AcDbArc
 50
180
 51
-120
  0
LINE
  5
219
100
AcDbEntity
  8
Shape2DView003
  6
ByLayer
 62
  256
370
   -1
100
AcDbLine
 10
207.5599999999999
 20
502.863135002
 11
207.5599999999999
 21
522.236864998
  0
ARC
  5
21A
100
AcDbEntity
  8
Shape2DView003
  6
ByLayer
 62
  256
370
   -1
100
AcDbCircle
 10
207.6453333330001
 20
502.715333333
 40
0.170666667
100
AcDbArc
 50
120
 51
180
  0
ARC
  5
21B
100
AcDbEntity
  8
Shape2DView003
  6
ByLayer
 62
  256
370
   -1
100
AcDbCircle
 10
207.6453333330001
 20
502.715333333
 40
0.170666667
100
AcDbArc
 50
180
 51
-30
  0
LINE
  5
21C
100
AcDbEntity
  8
Shape2DView003
  6
ByLayer
 62
  256
370
   -1
100
AcDbLine
 10
210
 20
502.63
 11
207.793135002
 21
502.63
  0
LINE
  5
21D
100
AcDbEntity
  8
Shape2DView003
  6
ByLayer
 62
  256
370
   -1
100
AcDbLine
 10
210
 20
461.17
 11
210
 21
502.63
  0
LINE
  5
21E
100
AcDbEntity
  8
Shape2DView003
  6
ByLayer
 62
  256
370
   -1
100
AcDbLine
 10
210
 20
461.17
 11
207.793135002
 21
461.17
  0
ARC
  5
21F
100
AcDbEntity
  8
Shape2DView003
  6
ByLayer
 62
  256
370
   -1
100
AcDbCircle
 10
207.6453333330001
 20
461.084666667
 40
0.170666667
100
AcDbArc
 50
30
 51
180
  0
ARC
  5
220
100
AcDbEntity
  8
Shape2DView003
  6
ByLayer
 62
  256
370
   -1
100
AcDbCircle
 10
207.6453333330001
 20
461.084666667
 40
0.170666667
100
AcDbArc
 50
180
 51
-120
  0
LINE
  5
221
100
AcDbEntity
  8
Shape2DView003
  6
ByLayer
 62
  256
370
   -1
100
AcDbLine
 10
207.5599999999999
 20
441.563135002
 11
207.5599999999999
 21
460.936864998
  0
ARC
  5
222
100
AcDbEntity
  8
Shape2DView003
  6
ByLayer
 62
  256
370
   -1
100
AcDbCircle
 10
207.6453333330001
 20
441.415333333
 40
0.170666667
100
AcDbArc
 50
120
 51
180
  0
ARC
  5
223
100
AcDbEntity
  8
Shape2DView003
  6
ByLayer
 62
  256
370
   -1
100
AcDbCircle
 10
207.6453333330001
 20
441.415333333
 40
0.170666667
100
AcDbArc
 50
180
 51
-30
  0
LINE
  5
224
100
AcDbEntity
  8
Shape2DView003
  6
ByLayer
 62
  256
370
   -1
100
AcDbLine
 10
210
 20
441.33
 11
207.793135002
 21
441.33
  0
LINE
  5
225
100
AcDbEntity
  8
Shape2DView003
  6
ByLayer
 62
  256
370
   -1
100
AcDbLine
 10
210
 20
399.87
 11
210
 21
441.33
  0
LINE
  5
226
100
AcDbEntity
  8
Shape2DView003
  6
ByLayer
 62
  256
370
   -1
100
AcDbLine
 10
210
 20
399.87
 11
207.793135002
 21
399.87
  0
ARC
  5
227
100
AcDbEntity
  8
Shape2DView003
  6
ByLayer
 62
  256
370
   -1
100
AcDbCircle
 10
207.6453333330001
 20
399.784666667
 40
0.170666667
100
AcDbArc
 50
30
 51
180
  0
ARC
  5
228
100
AcDbEntity
  8
Shape2DView003
  6
ByLayer
 62
  256
370
   -1
100
AcDbCircle
 10
207.6453333330001
 20
399.784666667
 40
0.170666667
100
AcDbArc
 50
180
 51
-120
  0
LINE
  5
229
100
AcDbEntity
  8
Shape2DView003
  6
ByLayer
 62
  256
370
   -1
100
AcDbLine
 10
207.5599999999999
 20
380.263135002
 11
207.5599999999999
 21
399.636864998
  0
ARC
  5
22A
100
AcDbEntity
  8
Shape2DView003
  6
ByLayer
 62
  256
370
   -1
100
AcDbCircle
 10
207.6453333330001
 20
380.115333333
 40
0.170666667
100
AcDbArc
 50
120
 51
180
  0
ARC
  5
22B
100
AcDbEntity
  8
Shape2DView003
  6
ByLayer
 62
  256
370
   -1
100
AcDbCircle
 10
207.6453333330001
 20
380.115333333
 40
0.170666667
100
AcDbArc
 50
180
 51
-30
  0
LINE
  5
22C
100
AcDbEntity
  8
Shape2DView003
  6
ByLayer
 62
  256
370
   -1
100
AcDbLine
 10
210
 20
380.03
 11
207.793135002
 21
380.03
  0
LINE
  5
22D
100
AcDbEntity
  8
Shape2DView003
  6
ByLayer
 62
  256
370
   -1
100
AcDbLine
 10
210
 20
338.57
 11
210
 21
380.03
  0
LINE
  5
22E
100
AcDbEntity
  8
Shape2DView003
  6
ByLayer
 62
  256
370
   -1
100
AcDbLine
 10
210
 20
338.57
 11
207.793135002
 21
338.57
  0
ARC
  5
22F
100
AcDbEntity
  8
Shape2DView003
  6
ByLayer
 62
  256
370
   -1
100
AcDbCircle
 10
207.6453333330001
 20
338.484666667
 40
0.170666667
100
AcDbArc
 50
30
 51
180
  0
ARC
  5
230
100
AcDbEntity
  8
Shape2DView003
  6
ByLayer
 62
  256
370
   -1
100
AcDbCircle
 10
207.6453333330001
 20
338.484666667
 40
0.170666667
100
AcDbArc
 50
180
 51
-120
  0
LINE
  5
231
100
AcDbEntity
  8
Shape2DView003
  6
ByLayer
 62
  256
370
   -1
100
AcDbLine
 10
207.5599999999999
 20
318.963135002
 11
207.5599999999999
 21
338.336864998
  0
ARC
  5
232
100
AcDbEntity
  8
Shape2DView003
  6
ByLayer
 62
  256
370
   -1
100
AcDbCircle
 10
207.6453333330001
 20
318.815333333
 40
0.170666667
100
AcDbArc
 50
120
 51
180
  0
ARC
  5
233
100
AcDbEntity
  8
Shape2DView003
  6
ByLayer
 62
  256
370
   -1
100
AcDbCircle
 10
207.6453333330001
 20
318.815333333
 40
0.170666667
100
AcDbArc
 50
180
 51
-30
  0
LINE
  5
234
100
AcDbEntity
  8
Shape2DView003
  6
ByLayer
 62
  256
370
   -1
100
AcDbLine
 10
210
 20
318.73
 11
207.793135002
 21
318.73
  0
LINE
  5
235
100
AcDbEntity
  8
Shape2DView003
  6
ByLayer
 62
  256
370
   -1
100
AcDbLine
 10
210
 20
298
 11
210
 21
318.73
  0
LINE
  5
236
100
AcDbEntity
  8
Shape2DView003
  6
ByLayer
 62
  256
370
   -1
100
AcDbLine
 10
0
 20
298
 11
210
 21
298
  0
LINE
  5
237
100
AcDbEntity
  8
Shape2DView003
  6
ByLayer
 62
  256
370
   -1
100
AcDbLine
 10
0
 20
318.73
 11
0
 21
298
  0
LINE
  5
238
100
AcDbEntity
  8
Shape2DView003
  6
ByLayer
 62
  256
370
   -1
100
AcDbLine
 10
2.206864998000015
 20
318.73
 11
0
 21
318.73
  0
ARC
  5
239
100
AcDbEntity
  8
Shape2DView003
  6
ByLayer
 62
  256
370
   -1
100
AcDbCircle
 10
2.354666667000004
 20
318.815333333
 40
0.170666667
100
AcDbArc
 50
-150
 51
59.99999999999999
  0
LINE
  5
23A
100
AcDbEntity
  8
Shape2DView003
  6
ByLayer
 62
  256
370
   -1
100
AcDbLine
 10
2.439999999999998
 20
318.963135002
 11
2.439999999999998
 21
338.336864998
  0
ARC
  5
23B
100
AcDbEntity
  8
Shape2DView003
  6
ByLayer
 62
  256
370
   -1
100
AcDbCircle
 10
2.354666667000004
 20
338.484666667
 40
0.170666667
100
AcDbArc
 50
-59.99999999999999
 51
150
  0
LINE
  5
23C
100
AcDbEntity
  8
Shape2DView003
  6
ByLayer
 62
  256
370
   -1
100
AcDbLine
 10
2.206864998000015
 20
338.57
 11
0
 21
338.57
  0
LINE
  5
23D
100
AcDbEntity
  8
Shape2DView003
  6
ByLayer
 62
  256
370
   -1
100
AcDbLine
 10
0
 20
380.03
 11
0
 21
338.57
  0
LINE
  5
23E
100
AcDbEntity
  8
Shape2DView003
  6
ByLayer
 62
  256
370
   -1
100
AcDbLine
 10
2.206864998000015
 20
380.03
 11
0
 21
380.03
  0
ARC
  5
23F
100
AcDbEntity
  8
Shape2DView003
  6
ByLayer
 62
  256
370
   -1
100
AcDbCircle
 10
2.354666667000004
 20
380.115333333
 40
0.170666667
100
AcDbArc
 50
-150
 51
59.99999999999999
  0
LINE
  5
240
100
AcDbEntity
  8
Shape2DView003
  6
ByLayer
 62
  256
370
   -1
100
AcDbLine
 10
2.439999999999998
 20
380.263135002
 11
2.439999999999998
 21
399.636864998
  0
ARC
  5
241
100
AcDbEntity
  8
Shape2DView003
  6
ByLayer
 62
  256
370
   -1
100
AcDbCircle
 10
2.354666667000004
 20
399.784666667
 40
0.170666667
100
AcDbArc
 50
-59.99999999999999
 51
150
  0
LINE
  5
242
100
AcDbEntity
  8
Shape2DView003
  6
ByLayer
 62
  256
370
   -1
100
AcDbLine
 10
2.206864998000015
 20
399.87
 11
0
 21
399.87
  0
LINE
  5
243
100
AcDbEntity
  8
Shape2DView003
  6
ByLayer
 62
  256
370
   -1
100
AcDbLine
 10
0
 20
441.33
 11
0
 21
399.87
  0
LINE
  5
244
100
AcDbEntity
  8
Shape2DView003
  6
ByLayer
 62
  256
370
   -1
100
AcDbLine
 10
2.206864998000015
 20
441.33
 11
0
 21
441.33
  0
ARC
  5
245
100
AcDbEntity
  8
Shape2DView003
  6
ByLayer
 62
  256
370
   -1
100
AcDbCircle
 10
2.354666667000004
 20
441.415333333
 40
0.170666667
100
AcDbArc
 50
-150
 51
59.99999999999999
  0
LINE
  5
246
100
AcDbEntity
  8
Shape2DView003
  6
ByLayer
 62
  256
370
   -1
100
AcDbLine
 10
2.439999999999998
 20
441.563135002
 11
2.439999999999998
 21
460.936864998
  0
ARC
  5
247
100
AcDbEntity
  8
Shape2DView003
  6
ByLayer
 62
  256
370
   -1
100
AcDbCircle
 10
2.354666667000004
 20
461.084666667
 40
0.170666667
100
AcDbArc
 50
-59.99999999999999
 51
150
  0
LINE
  5
248
100
AcDbEntity
  8
Shape2DView003
  6
ByLayer
 62
  256
370
   -1
100
AcDbLine
 10
2.206864998000015
 20
461.17
 11
0
 21
461.17
  0
LINE
  5
249
100
AcDbEntity
  8
Shape2DView003
  6
ByLayer
 62
  256
370
   -1
100
AcDbLine
 10
0
 20
502.63
 11
0
 21
461.17
  0
LINE
  5
24A
100
AcDbEntity
  8
Shape2DView003
  6
ByLayer
 62
  256
370
   -1
100
AcDbLine
 10
2.206864998000015
 20
502.63
 11
0
 21
502.63
  0
ARC
  5
24B
100
AcDbEntity
  8
Shape2DView003
  6
ByLayer
 62
  256
370
   -1
100
AcDbCircle
 10
2.354666667000004
 20
502.715333333
 40
0.170666667
100
AcDbArc
 50
-150
 51
59.99999999999999
  0
LINE
  5
24C
100
AcDbEntity
  8
Shape2DView003
  6
ByLayer
 62
  256
370
   -1
100
AcDbLine
 10
2.439999999999998
 20
502.863135002
 11
2.439999999999998
 21
522.236864998
  0
ARC
  5
24D
100
AcDbEntity
  8
Shape2DView003
  6
ByLayer
 62
  256
370
   -1
100
AcDbCircle
 10
2.354666667000004
 20
522.384666667
 40
0.170666667
100
AcDbArc
 50
-59.99999999999999
 51
150
  0
LINE
  5
24E
100
AcDbEntity
  8
Shape2DView003
  6
ByLayer
 62
  256
370
   -1
100
AcDbLine
 10
2.206864998000015
 20
522.47
 11
0
 21
522.47
  0
CIRCLE
  5
24F
100
AcDbEntity
  8
Shape2DView003
  6
ByLayer
 62
  256
370
   -1
100
AcDbCircle
 10
20
 20
318
 40
5.5
  0
ARC
  5
250
100
AcDbEntity
  8
Shape2DView003
  6
ByLayer
 62
  256
370
   -1
100
AcDbCircle
 10
103.842666667
 20
338.487333333
 40
0.165333333
100
AcDbArc
 50
30
 51
-120
  0
LINE
  5
251
100
AcDbEntity
  8
Shape2DView003
  6
ByLayer
 62
  256
370
   -1
100
AcDbLine
 10
103.76
 20
338.344150467
 11
103.76
 21
318.955849533
  0
ARC
  5
252
100
AcDbEntity
  8
Shape2DView003
  6
ByLayer
 62
  256
370
   -1
100
AcDbCircle
 10
103.842666667
 20
318.812666667
 40
0.165333333
100
AcDbArc
 50
120
 51
-30
  0
LINE
  5
253
100
AcDbEntity
  8
Shape2DView003
  6
ByLayer
 62
  256
370
   -1
100
AcDbLine
 10
103.985849533
 20
318.73
 11
106.014150467
 21
318.73
  0
ARC
  5
254
100
AcDbEntity
  8
Shape2DView003
  6
ByLayer
 62
  256
370
   -1
100
AcDbCircle
 10
106.157333333
 20
318.812666667
 40
0.165333333
100
AcDbArc
 50
-150
 51
0
  0
ARC
  5
255
100
AcDbEntity
  8
Shape2DView003
  6
ByLayer
 62
  256
370
   -1
100
AcDbCircle
 10
106.157333333
 20
318.812666667
 40
0.165333333
100
AcDbArc
 50
0
 51
59.99999999999999
  0
LINE
  5
256
100
AcDbEntity
  8
Shape2DView003
  6
ByLayer
 62
  256
370
   -1
100
AcDbLine
 10
106.24
 20
338.344150467
 11
106.24
 21
318.955849533
  0
ARC
  5
257
100
AcDbEntity
  8
Shape2DView003
  6
ByLayer
 62
  256
370
   -1
100
AcDbCircle
 10
106.157333333
 20
338.487333333
 40
0.165333333
100
AcDbArc
 50
-59.99999999999999
 51
0
  0
ARC
  5
258
100
AcDbEntity
  8
Shape2DView003
  6
ByLayer
 62
  256
370
   -1
100
AcDbCircle
 10
106.157333333
 20
338.487333333
 40
0.165333333
100
AcDbArc
 50
0
 51
150
  0
LINE
  5
259
100
AcDbEntity
  8
Shape2DView003
  6
ByLayer
 62
  256
370
   -1
100
AcDbLine
 10
103.985849533
 20
338.57
 11
106.014150467
 21
338.57
  0
ARC
  5
25A
100
AcDbEntity
  8
Shape2DView003
  6
ByLayer
 62
  256
370
   -1
100
AcDbCircle
 10
37.587333333
 20
421.757333333
 40
0.165333333
100
AcDbArc
 50
-59.99999999999999
 51
150
  0
LINE
  5
25B
100
AcDbEntity
  8
Shape2DView003
  6
ByLayer
 62
  256
370
   -1
100
AcDbLine
 10
37.44415046699999
 20
421.84
 11
18.05584953300001
 21
421.84
  0
ARC
  5
25C
100
AcDbEntity
  8
Shape2DView003
  6
ByLayer
 62
  256
370
   -1
100
AcDbCircle
 10
17.912666667
 20
421.757333333
 40
0.165333333
100
AcDbArc
 50
30
 51
-120
  0
LINE
  5
25D
100
AcDbEntity
  8
Shape2DView003
  6
ByLayer
 62
  256
370
   -1
100
AcDbLine
 10
17.82999999999998
 20
421.614150467
 11
17.82999999999998
 21
419.585849533
  0
ARC
  5
25E
100
AcDbEntity
  8
Shape2DView003
  6
ByLayer
 62
  256
370
   -1
100
AcDbCircle
 10
17.912666667
 20
419.442666667
 40
0.165333333
100
AcDbArc
 50
120
 51
-90
  0
ARC
  5
25F
100
AcDbEntity
  8
Shape2DView003
  6
ByLayer
 62
  256
370
   -1
100
AcDbCircle
 10
17.912666667
 20
419.442666667
 40
0.165333333
100
AcDbArc
 50
-90
 51
-30
  0
LINE
  5
260
100
AcDbEntity
  8
Shape2DView003
  6
ByLayer
 62
  256
370
   -1
100
AcDbLine
 10
37.44415046699999
 20
419.36
 11
18.05584953300001
 21
419.36
  0
ARC
  5
261
100
AcDbEntity
  8
Shape2DView003
  6
ByLayer
 62
  256
370
   -1
100
AcDbCircle
 10
37.587333333
 20
419.442666667
 40
0.165333333
100
AcDbArc
 50
-150
 51
-90
  0
ARC
  5
262
100
AcDbEntity
  8
Shape2DView003
  6
ByLayer
 62
  256
370
   -1
100
AcDbCircle
 10
37.587333333
 20
419.442666667
 40
0.165333333
100
AcDbArc
 50
-90
 51
59.99999999999999
  0
LINE
  5
263
100
AcDbEntity
  8
Shape2DView003
  6
ByLayer
 62
  256
370
   -1
100
AcDbLine
 10
37.67000000000002
 20
421.614150467
 11
37.67000000000002
 21
419.585849533
  0
ARC
  5
264
100
AcDbEntity
  8
Shape2DView003
  6
ByLayer
 62
  256
370
   -1
100
AcDbCircle
 10
103.842666667
 20
399.787333333
 40
0.165333333
100
AcDbArc
 50
30
 51
-120
  0
LINE
  5
265
100
AcDbEntity
  8
Shape2DView003
  6
ByLayer
 62
  256
370
   -1
100
AcDbLine
 10
103.76
 20
399.644150467
 11
103.76
 21
380.255849533
  0
ARC
  5
266
100
AcDbEntity
  8
Shape2DView003
  6
ByLayer
 62
  256
370
   -1
100
AcDbCircle
 10
103.842666667
 20
380.112666667
 40
0.165333333
100
AcDbArc
 50
120
 51
-30
  0
LINE
  5
267
100
AcDbEntity
  8
Shape2DView003
  6
ByLayer
 62
  256
370
   -1
100
AcDbLine
 10
103.985849533
 20
380.03
 11
106.014150467
 21
380.03
  0
ARC
  5
268
100
AcDbEntity
  8
Shape2DView003
  6
ByLayer
 62
  256
370
   -1
100
AcDbCircle
 10
106.157333333
 20
380.112666667
 40
0.165333333
100
AcDbArc
 50
-150
 51
0
  0
ARC
  5
269
100
AcDbEntity
  8
Shape2DView003
  6
ByLayer
 62
  256
370
   -1
100
AcDbCircle
 10
106.157333333
 20
380.112666667
 40
0.165333333
100
AcDbArc
 50
0
 51
59.99999999999999
  0
LINE
  5
26A
100
AcDbEntity
  8
Shape2DView003
  6
ByLayer
 62
  256
370
   -1
100
AcDbLine
 10
106.24
 20
399.644150467
 11
106.24
 21
380.255849533
  0
ARC
  5
26B
100
AcDbEntity
  8
Shape2DView003
  6
ByLayer
 62
  256
370
   -1
100
AcDbCircle
 10
106.157333333
 20
399.787333333
 40
0.165333333
100
AcDbArc
 50
-59.99999999999999
 51
0
  0
ARC
  5
26C
100
AcDbEntity
  8
Shape2DView003
  6
ByLayer
 62
  256
370
   -1
100
AcDbCircle
 10
106.157333333
 20
399.787333333
 40
0.165333333
100
AcDbArc
 50
0
 51
150
  0
LINE
  5
26D
100
AcDbEntity
  8
Shape2DView003
  6
ByLayer
 62
  256
370
   -1
100
AcDbLine
 10
103.985849533
 20
399.87
 11
106.014150467
 21
399.87
  0
ARC
  5
26E
100
AcDbEntity
  8
Shape2DView003
  6
ByLayer
 62
  256
370
   -1
100
AcDbCircle
 10
88.28733333299999
 20
421.757333333
 40
0.165333333
100
AcDbArc
 50
-59.99999999999999
 51
150
  0
LINE
  5
26F
100
AcDbEntity
  8
Shape2DView003
  6
ByLayer
 62
  256
370
   -1
100
AcDbLine
 10
88.14415046699997
 20
421.84
 11
68.755849533
 21
421.84
  0
ARC
  5
270
100
AcDbEntity
  8
Shape2DView003
  6
ByLayer
 62
  256
370
   -1
100
AcDbCircle
 10
68.61266666699998
 20
421.757333333
 40
0.165333333
100
AcDbArc
 50
30
 51
-120
  0
LINE
  5
271
100
AcDbEntity
  8
Shape2DView003
  6
ByLayer
 62
  256
370
   -1
100
AcDbLine
 10
68.52999999999997
 20
421.614150467
 11
68.52999999999997
 21
419.585849533
  0
ARC
  5
272
100
AcDbEntity
  8
Shape2DView003
  6
ByLayer
 62
  256
370
   -1
100
AcDbCircle
 10
68.61266666699998
 20
419.442666667
 40
0.165333333
100
AcDbArc
 50
120
 51
-90
  0
ARC
  5
273
100
AcDbEntity
  8
Shape2DView003
  6
ByLayer
 62
  256
370
   -1
100
AcDbCircle
 10
68.61266666699998
 20
419.442666667
 40
0.165333333
100
AcDbArc
 50
-90
 51
-30
  0
LINE
  5
274
100
AcDbEntity
  8
Shape2DView003
  6
ByLayer
 62
  256
370
   -1
100
AcDbLine
 10
88.14415046699997
 20
419.36
 11
68.755849533
 21
419.36
  0
ARC
  5
275
100
AcDbEntity
  8
Shape2DView003
  6
ByLayer
 62
  256
370
   -1
100
AcDbCircle
 10
88.28733333299999
 20
419.442666667
 40
0.165333333
100
AcDbArc
 50
-150
 51
-90
  0
ARC
  5
276
100
AcDbEntity
  8
Shape2DView003
  6
ByLayer
 62
  256
370
   -1
100
AcDbCircle
 10
88.28733333299999
 20
419.442666667
 40
0.165333333
100
AcDbArc
 50
-90
 51
59.99999999999999
  0
LINE
  5
277
100
AcDbEntity
  8
Shape2DView003
  6
ByLayer
 62
  256
370
   -1
100
AcDbLine
 10
88.37
 20
421.614150467
 11
88.37
 21
419.585849533
  0
CIRCLE
  5
278
100
AcDbEntity
  8
Shape2DView003
  6
ByLayer
 62
  256
370
   -1
100
AcDbCircle
 10
190
 20
318
 40
5.5
  0
ARC
  5
279
100
AcDbEntity
  8
Shape2DView003
  6
ByLayer
 62
  256
370
   -1
100
AcDbCircle
 10
141.387333333
 20
421.757333333
 40
0.165333333
100
AcDbArc
 50
-59.99999999999999
 51
150
  0
LINE
  5
27A
100
AcDbEntity
  8
Shape2DView003
  6
ByLayer
 62
  256
370
   -1
100
AcDbLine
 10
141.244150467
 20
421.84
 11
121.855849533
 21
421.84
  0
ARC
  5
27B
100
AcDbEntity
  8
Shape2DView003
  6
ByLayer
 62
  256
370
   -1
100
AcDbCircle
 10
121.712666667
 20
421.757333333
 40
0.165333333
100
AcDbArc
 50
30
 51
-120
  0
LINE
  5
27C
100
AcDbEntity
  8
Shape2DView003
  6
ByLayer
 62
  256
370
   -1
100
AcDbLine
 10
121.63
 20
421.614150467
 11
121.63
 21
419.585849533
  0
ARC
  5
27D
100
AcDbEntity
  8
Shape2DView003
  6
ByLayer
 62
  256
370
   -1
100
AcDbCircle
 10
121.712666667
 20
419.442666667
 40
0.165333333
100
AcDbArc
 50
120
 51
-90
  0
ARC
  5
27E
100
AcDbEntity
  8
Shape2DView003
  6
ByLayer
 62
  256
370
   -1
100
AcDbCircle
 10
121.712666667
 20
419.442666667
 40
0.165333333
100
AcDbArc
 50
-90
 51
-30
  0
LINE
  5
27F
100
AcDbEntity
  8
Shape2DView003
  6
ByLayer
 62
  256
370
   -1
100
AcDbLine
 10
141.244150467
 20
419.36
 11
121.855849533
 21
419.36
  0
ARC
  5
280
100
AcDbEntity
  8
Shape2DView003
  6
ByLayer
 62
  256
370
   -1
100
AcDbCircle
 10
141.387333333
 20
419.442666667
 40
0.165333333
100
AcDbArc
 50
-150
 51
-90
  0
ARC
  5
281
100
AcDbEntity
  8
Shape2DView003
  6
ByLayer
 62
  256
370
   -1
100
AcDbCircle
 10
141.387333333
 20
419.442666667
 40
0.165333333
100
AcDbArc
 50
-90
 51
59.99999999999999
  0
LINE
  5
282
100
AcDbEntity
  8
Shape2DView003
  6
ByLayer
 62
  256
370
   -1
100
AcDbLine
 10
141.47
 20
421.614150467
 11
141.47
 21
419.585849533
  0
ARC
  5
283
100
AcDbEntity
  8
Shape2DView003
  6
ByLayer
 62
  256
370
   -1
100
AcDbCircle
 10
192.087333333
 20
421.757333333
 40
0.165333333
100
AcDbArc
 50
-59.99999999999999
 51
150
  0
LINE
  5
284
100
AcDbEntity
  8
Shape2DView003
  6
ByLayer
 62
  256
370
   -1
100
AcDbLine
 10
191.944150467
 20
421.84
 11
172.555849533
 21
421.84
  0
ARC
  5
285
100
AcDbEntity
  8
Shape2DView003
  6
ByLayer
 62
  256
370
   -1
100
AcDbCircle
 10
172.412666667
 20
421.757333333
 40
0.165333333
100
AcDbArc
 50
30
 51
-120
  0
LINE
  5
286
100
AcDbEntity
  8
Shape2DView003
  6
ByLayer
 62
  256
370
   -1
100
AcDbLine
 10
172.33
 20
421.614150467
 11
172.33
 21
419.585849533
  0
ARC
  5
287
100
AcDbEntity
  8
Shape2DView003
  6
ByLayer
 62
  256
370
   -1
100
AcDbCircle
 10
172.412666667
 20
419.442666667
 40
0.165333333
100
AcDbArc
 50
120
 51
-90
  0
ARC
  5
288
100
AcDbEntity
  8
Shape2DView003
  6
ByLayer
 62
  256
370
   -1
100
AcDbCircle
 10
172.412666667
 20
419.442666667
 40
0.165333333
100
AcDbArc
 50
-90
 51
-30
  0
LINE
  5
289
100
AcDbEntity
  8
Shape2DView003
  6
ByLayer
 62
  256
370
   -1
100
AcDbLine
 10
191.944150467
 20
419.36
 11
172.555849533
 21
419.36
  0
ARC
  5
28A
100
AcDbEntity
  8
Shape2DView003
  6
ByLayer
 62
  256
370
   -1
100
AcDbCircle
 10
192.087333333
 20
419.442666667
 40
0.165333333
100
AcDbArc
 50
-150
 51
-90
  0
ARC
  5
28B
100
AcDbEntity
  8
Shape2DView003
  6
ByLayer
 62
  256
370
   -1
100
AcDbCircle
 10
192.087333333
 20
419.442666667
 40
0.165333333
100
AcDbArc
 50
-90
 51
59.99999999999999
  0
LINE
  5
28C
100
AcDbEntity
  8
Shape2DView003
  6
ByLayer
 62
  256
370
   -1
100
AcDbLine
 10
192.17
 20
421.614150467
 11
192.17
 21
419.585849533
  0
ARC
  5
28D
100
AcDbEntity
  8
Shape2DView003
  6
ByLayer
 62
  256
370
   -1
100
AcDbCircle
 10
103.842666667
 20
461.087333333
 40
0.165333333
100
AcDbArc
 50
30
 51
-120
  0
LINE
  5
28E
100
AcDbEntity
  8
Shape2DView003
  6
ByLayer
 62
  256
370
   -1
100
AcDbLine
 10
103.76
 20
460.944150467
 11
103.76
 21
441.555849533
  0
ARC
  5
28F
100
AcDbEntity
  8
Shape2DView003
  6
ByLayer
 62
  256
370
   -1
100
AcDbCircle
 10
103.842666667
 20
441.412666667
 40
0.165333333
100
AcDbArc
 50
120
 51
-30
  0
LINE
  5
290
100
AcDbEntity
  8
Shape2DView003
  6
ByLayer
 62
  256
370
   -1
100
AcDbLine
 10
103.985849533
 20
441.33
 11
106.014150467
 21
441.33
  0
ARC
  5
291
100
AcDbEntity
  8
Shape2DView003
  6
ByLayer
 62
  256
370
   -1
100
AcDbCircle
 10
106.157333333
 20
441.412666667
 40
0.165333333
100
AcDbArc
 50
-150
 51
0
  0
ARC
  5
292
100
AcDbEntity
  8
Shape2DView003
  6
ByLayer
 62
  256
370
   -1
100
AcDbCircle
 10
106.157333333
 20
441.412666667
 40
0.165333333
100
AcDbArc
 50
0
 51
59.99999999999999
  0
LINE
  5
293
100
AcDbEntity
  8
Shape2DView003
  6
ByLayer
 62
  256
370
   -1
100
AcDbLine
 10
106.24
 20
460.944150467
 11
106.24
 21
441.555849533
  0
ARC
  5
294
100
AcDbEntity
  8
Shape2DView003
  6
ByLayer
 62
  256
370
   -1
100
AcDbCircle
 10
106.157333333
 20
461.087333333
 40
0.165333333
100
AcDbArc
 50
-59.99999999999999
 51
0
  0
ARC
  5
295
100
AcDbEntity
  8
Shape2DView003
  6
ByLayer
 62
  256
370
   -1
100
AcDbCircle
 10
106.157333333
 20
461.087333333
 40
0.165333333
100
AcDbArc
 50
0
 51
150
  0
LINE
  5
296
100
AcDbEntity
  8
Shape2DView003
  6
ByLayer
 62
  256
370
   -1
100
AcDbLine
 10
103.985849533
 20
461.17
 11
106.014150467
 21
461.17
  0
CIRCLE
  5
297
100
AcDbEntity
  8
Shape2DView003
  6
ByLayer
 62
  256
370
   -1
100
AcDbCircle
 10
20
 20
525.6
 40
5.5
  0
ARC
  5
298
100
AcDbEntity
  8
Shape2DView003
  6
ByLayer
 62
  256
370
   -1
100
AcDbCircle
 10
105
 20
525.6
 40
5.5
100
AcDbArc
 50
0
 51
-103.029608502
  0
LINE
  5
299
100
AcDbEntity
  8
Shape2DView003
  6
ByLayer
 62
  256
370
   -1
100
AcDbLine
 10
103.76
 20
520.241604718
 11
103.76
 21
502.8558495330001
  0
ARC
  5
29A
100
AcDbEntity
  8
Shape2DView003
  6
ByLayer
 62
  256
370
   -1
100
AcDbCircle
 10
103.842666667
 20
502.712666667
 40
0.165333333
100
AcDbArc
 50
120
 51
-30
  0
LINE
  5
29B
100
AcDbEntity
  8
Shape2DView003
  6
ByLayer
 62
  256
370
   -1
100
AcDbLine
 10
103.985849533
 20
502.63
 11
106.014150467
 21
502.63
  0
ARC
  5
29C
100
AcDbEntity
  8
Shape2DView003
  6
ByLayer
 62
  256
370
   -1
100
AcDbCircle
 10
106.157333333
 20
502.712666667
 40
0.165333333
100
AcDbArc
 50
-150
 51
0
  0
ARC
  5
29D
100
AcDbEntity
  8
Shape2DView003
  6
ByLayer
 62
  256
370
   -1
100
AcDbCircle
 10
106.157333333
 20
502.712666667
 40
0.165333333
100
AcDbArc
 50
0
 51
59.99999999999999
  0
LINE
  5
29E
100
AcDbEntity
  8
Shape2DView003
  6
ByLayer
 62
  256
370
   -1
100
AcDbLine
 10
106.24
 20
520.241604718
 11
106.24
 21
502.8558495330001
  0
ARC
  5
29F
100
AcDbEntity
  8
Shape2DView003
  6
ByLayer
 62
  256
370
   -1
100
AcDbCircle
 10
105
 20
525.6
 40
5.5
100
AcDbArc
 50
-76.970391498
 51
0
  0
CIRCLE
  5
2A0
100
AcDbEntity
  8
Shape2DView003
  6
ByLayer
 62
  256
370
   -1
100
AcDbCircle
 10
190
 20
525.6
 40
5.5
  0
ARC
  5
2A1
100
AcDbEntity
  8
Shape2DView006
  6
ByLayer
 62
  256
370
   -1
100
AcDbCircle
 10
733.0000000000001
 20
20.57000000000016
 40
0.16
100
AcDbArc
 50
270
 51
90
  0
ARC
  5
2A2
100
AcDbEntity
  8
Shape2DView006
  6
ByLayer
 62
  256
370
   -1
100
AcDbCircle
 10
733.0000000000001
 20
20.57000000000016
 40
0.16
100
AcDbArc
 50
90
 51
180
  0
LINE
  5
2A3
100
AcDbEntity
  8
Shape2DView006
  6
ByLayer
 62
  256
370
   -1
100
AcDbLine
 10
733.0000000000001
 20
20.41000000000008
 11
733
 21
-4.440892098500626e-16
  0
LINE
  5
2A4
100
AcDbEntity
  8
Shape2DView006
  6
ByLayer
 62
  256
370
   -1
100
AcDbLine
 10
733
 20
-4.440892098500626e-16
 11
857.9999999999999
 21
-2.886579864025407e-14
  0
LINE
  5
2A5
100
AcDbEntity
  8
Shape2DView006
  6
ByLayer
 62
  256
370
   -1
100
AcDbLine
 10
857.9999999999999
 20
-2.886579864025407e-14
 11
857.9999999999999
 21
23.23399558100002
  0
ARC
  5
2A6
100
AcDbEntity
  8
Shape2DView006
  6
ByLayer
 62
  256
370
   -1
100
AcDbCircle
 10
915.8912529310002
 20
122.6000000000001
 40
115
100
AcDbArc
 50
182.491906369
 51
239.774655873
  0
LINE
  5
2A7
100
AcDbEntity
  8
Shape2DView006
  6
ByLayer
 62
  256
370
   -1
100
AcDbLine
 10
801.0000000000001
 20
121.4000000000001
 11
801.0000000000001
 21
117.6000000000001
  0
LINE
  5
2A8
100
AcDbEntity
  8
Shape2DView006
  6
ByLayer
 62
  256
370
   -1
100
AcDbLine
 10
801.0000000000001
 20
121.4000000000001
 11
767.0000000000001
 21
121.4000000000001
  0
LINE
  5
2A9
100
AcDbEntity
  8
Shape2DView006
  6
ByLayer
 62
  256
370
   -1
100
AcDbLine
 10
767.0000000000001
 20
121.4000000000001
 11
767.0000000000001
 21
123.8
  0
ARC
  5
2AA
100
AcDbEntity
  8
Shape2DView006
  6
ByLayer
 62
  256
370
   -1
100
AcDbCircle
 10
915.8912529310002
 20
122.6000000000001
 40
115
100
AcDbArc
 50
120.225344127
 51
177.508093631
  0
LINE
  5
2AB
100
AcDbEntity
  8
Shape2DView006
  6
ByLayer
 62
  256
370
   -1
100
AcDbLine
 10
801.0000000000001
 20
127.6000000000001
 11
801.0000000000001
 21
123.7999999999999
  0
LINE
  5
2AC
100
AcDbEntity
  8
Shape2DView006
  6
ByLayer
 62
  256
370
   -1
100
AcDbLine
 10
858.0000000000001
 20
221.966004419
 11
858.0000000000001
 21
245.2
  0
LINE
  5
2AD
100
AcDbEntity
  8
Shape2DView006
  6
ByLayer
 62
  256
370
   -1
100
AcDbLine
 10
767.0000000000001
 20
123.8
 11
801.0000000000001
 21
123.7999999999999
  0
LINE
  5
2AE
100
AcDbEntity
  8
Shape2DView006
  6
ByLayer
 62
  256
370
   -1
100
AcDbLine
 10
733.0000000000001
 20
245.2
 11
858.0000000000001
 21
245.2
  0
LINE
  5
2AF
100
AcDbEntity
  8
Shape2DView006
  6
ByLayer
 62
  256
370
   -1
100
AcDbLine
 10
733.0000000000001
 20
245.2
 11
733.0000000000001
 21
224.7900000000002
  0
ARC
  5
2B0
100
AcDbEntity
  8
Shape2DView006
  6
ByLayer
 62
  256
370
   -1
100
AcDbCircle
 10
733.0000000000001
 20
224.6300000000001
 40
0.16
100
AcDbArc
 50
180
 51
270
  0
ARC
  5
2B1
100
AcDbEntity
  8
Shape2DView006
  6
ByLayer
 62
  256
370
   -1
100
AcDbCircle
 10
733.0000000000001
 20
224.6300000000001
 40
0.16
100
AcDbArc
 50
270
 51
90
  0
LINE
  5
2B2
100
AcDbEntity
  8
Shape2DView006
  6
ByLayer
 62
  256
370
   -1
100
AcDbLine
 10
732.8400000000003
 20
224.6300000000001
 11
730.6
 21
224.6300000000001
  0
LINE
  5
2B3
100
AcDbEntity
  8
Shape2DView006
  6
ByLayer
 62
  256
370
   -1
100
AcDbLine
 10
730.6
 20
204.47
 11
730.6
 21
224.6300000000001
  0
LINE
  5
2B4
100
AcDbEntity
  8
Shape2DView006
  6
ByLayer
 62
  256
370
   -1
100
AcDbLine
 10
732.8400000000003
 20
204.47
 11
730.6
 21
204.47
  0
ARC
  5
2B5
100
AcDbEntity
  8
Shape2DView006
  6
ByLayer
 62
  256
370
   -1
100
AcDbCircle
 10
733.0000000000001
 20
204.47
 40
0.16
100
AcDbArc
 50
270
 51
90
  0
ARC
  5
2B6
100
AcDbEntity
  8
Shape2DView006
  6
ByLayer
 62
  256
370
   -1
100
AcDbCircle
 10
733.0000000000001
 20
204.47
 40
0.16
100
AcDbArc
 50
90
 51
180
  0
LINE
  5
2B7
100
AcDbEntity
  8
Shape2DView006
  6
ByLayer
 62
  256
370
   -1
100
AcDbLine
 10
733.0000000000001
 20
204.3100000000002
 11
733.0000000000001
 21
163.49
  0
ARC
  5
2B8
100
AcDbEntity
  8
Shape2DView006
  6
ByLayer
 62
  256
370
   -1
100
AcDbCircle
 10
733.0000000000001
 20
163.3300000000002
 40
0.16
100
AcDbArc
 50
180
 51
270
  0
ARC
  5
2B9
100
AcDbEntity
  8
Shape2DView006
  6
ByLayer
 62
  256
370
   -1
100
AcDbCircle
 10
733.0000000000001
 20
163.3300000000002
 40
0.16
100
AcDbArc
 50
270
 51
90
  0
LINE
  5
2BA
100
AcDbEntity
  8
Shape2DView006
  6
ByLayer
 62
  256
370
   -1
100
AcDbLine
 10
732.8400000000003
 20
163.3300000000002
 11
730.6
 21
163.3300000000002
  0
LINE
  5
2BB
100
AcDbEntity
  8
Shape2DView006
  6
ByLayer
 62
  256
370
   -1
100
AcDbLine
 10
730.6
 20
143.1700000000001
 11
730.6
 21
163.3300000000002
  0
LINE
  5
2BC
100
AcDbEntity
  8
Shape2DView006
  6
ByLayer
 62
  256
370
   -1
100
AcDbLine
 10
732.8400000000003
 20
143.1700000000001
 11
730.6
 21
143.1700000000001
  0
ARC
  5
2BD
100
AcDbEntity
  8
Shape2DView006
  6
ByLayer
 62
  256
370
   -1
100
AcDbCircle
 10
733.0000000000001
 20
143.1700000000001
 40
0.16
100
AcDbArc
 50
270
 51
90
  0
ARC
  5
2BE
100
AcDbEntity
  8
Shape2DView006
  6
ByLayer
 62
  256
370
   -1
100
AcDbCircle
 10
733.0000000000001
 20
143.1700000000001
 40
0.16
100
AcDbArc
 50
90
 51
180
  0
LINE
  5
2BF
100
AcDbEntity
  8
Shape2DView006
  6
ByLayer
 62
  256
370
   -1
100
AcDbLine
 10
733.0000000000001
 20
143.01
 11
733.0000000000001
 21
102.1900000000001
  0
ARC
  5
2C0
100
AcDbEntity
  8
Shape2DView006
  6
ByLayer
 62
  256
370
   -1
100
AcDbCircle
 10
733.0000000000001
 20
102.03
 40
0.16
100
AcDbArc
 50
180
 51
270
  0
ARC
  5
2C1
100
AcDbEntity
  8
Shape2DView006
  6
ByLayer
 62
  256
370
   -1
100
AcDbCircle
 10
733.0000000000001
 20
102.03
 40
0.16
100
AcDbArc
 50
270
 51
90
  0
LINE
  5
2C2
100
AcDbEntity
  8
Shape2DView006
  6
ByLayer
 62
  256
370
   -1
100
AcDbLine
 10
732.8400000000003
 20
102.03
 11
730.6
 21
102.03
  0
LINE
  5
2C3
100
AcDbEntity
  8
Shape2DView006
  6
ByLayer
 62
  256
370
   -1
100
AcDbLine
 10
730.6
 20
81.87000000000012
 11
730.6
 21
102.03
  0
LINE
  5
2C4
100
AcDbEntity
  8
Shape2DView006
  6
ByLayer
 62
  256
370
   -1
100
AcDbLine
 10
732.8400000000003
 20
81.87000000000012
 11
730.6
 21
81.87000000000012
  0
ARC
  5
2C5
100
AcDbEntity
  8
Shape2DView006
  6
ByLayer
 62
  256
370
   -1
100
AcDbCircle
 10
733.0000000000001
 20
81.87000000000012
 40
0.16
100
AcDbArc
 50
270
 51
90
  0
ARC
  5
2C6
100
AcDbEntity
  8
Shape2DView006
  6
ByLayer
 62
  256
370
   -1
100
AcDbCircle
 10
733.0000000000001
 20
81.87000000000012
 40
0.16
100
AcDbArc
 50
90
 51
180
  0
LINE
  5
2C7
100
AcDbEntity
  8
Shape2DView006
  6
ByLayer
 62
  256
370
   -1
100
AcDbLine
 10
733.0000000000001
 20
81.71000000000004
 11
733.0000000000001
 21
40.8900000000001
  0
ARC
  5
2C8
100
AcDbEntity
  8
Shape2DView006
  6
ByLayer
 62
  256
370
   -1
100
AcDbCircle
 10
733.0000000000001
 20
40.73000000000002
 40
0.16
100
AcDbArc
 50
180
 51
270
  0
ARC
  5
2C9
100
AcDbEntity
  8
Shape2DView006
  6
ByLayer
 62
  256
370
   -1
100
AcDbCircle
 10
733.0000000000001
 20
40.73000000000002
 40
0.16
100
AcDbArc
 50
270
 51
90
  0
LINE
  5
2CA
100
AcDbEntity
  8
Shape2DView006
  6
ByLayer
 62
  256
370
   -1
100
AcDbLine
 10
732.8400000000003
 20
40.73000000000002
 11
730.6
 21
40.73000000000002
  0
LINE
  5
2CB
100
AcDbEntity
  8
Shape2DView006
  6
ByLayer
 62
  256
370
   -1
100
AcDbLine
 10
730.6
 20
20.57000000000016
 11
730.6
 21
40.73000000000002
  0
LINE
  5
2CC
100
AcDbEntity
  8
Shape2DView006
  6
ByLayer
 62
  256
370
   -1
100
AcDbLine
 10
732.8400000000003
 20
20.57000000000016
 11
730.6
 21
20.57000000000016
  0
ARC
  5
2CD
100
AcDbEntity
  8
Shape2DView005
  6
ByLayer
 62
  256
370
   -1
100
AcDbCircle
 10
535.27
 20
251.0000000000001
 40
0.16
100
AcDbArc
 50
-90
 51
0
  0
ARC
  5
2CE
100
AcDbEntity
  8
Shape2DView005
  6
ByLayer
 62
  256
370
   -1
100
AcDbCircle
 10
535.27
 20
251.0000000000001
 40
0.16
100
AcDbArc
 50
0
 51
180
  0
LINE
  5
2CF
100
AcDbEntity
  8
Shape2DView005
  6
ByLayer
 62
  256
370
   -1
100
AcDbLine
 10
520
 20
251.0000000000001
 11
535.1100000000001
 21
251.0000000000001
  0
ARC
  5
2D0
100
AcDbEntity
  8
Shape2DView005
  6
ByLayer
 62
  256
370
   -1
100
AcDbCircle
 10
622.5999999999999
 20
413.7523509200001
 40
100
100
AcDbArc
 50
-157.819632763
 51
-108.643942325
  0
LINE
  5
2D1
100
AcDbEntity
  8
Shape2DView005
  6
ByLayer
 62
  256
370
   -1
100
AcDbLine
 10
590.631390473
 20
319.0000000000001
 11
654.568609527
 21
319.0000000000001
  0
LINE
  5
2D2
100
AcDbEntity
  8
Shape2DView005
  6
ByLayer
 62
  256
370
   -1
100
AcDbLine
 10
520
 20
376.0000000000001
 11
530
 21
376.0000000000001
  0
ARC
  5
2D3
100
AcDbEntity
  8
Shape2DView005
  6
ByLayer
 62
  256
370
   -1
100
AcDbCircle
 10
622.5999999999999
 20
413.7523509200001
 40
100
100
AcDbArc
 50
-71.356057675
 51
-22.180367237
  0
LINE
  5
2D4
100
AcDbEntity
  8
Shape2DView005
  6
ByLayer
 62
  256
370
   -1
100
AcDbLine
 10
520
 20
251.0000000000001
 11
520
 21
376.0000000000001
  0
LINE
  5
2D5
100
AcDbEntity
  8
Shape2DView005
  6
ByLayer
 62
  256
370
   -1
100
AcDbLine
 10
725.2
 20
376.0000000000001
 11
715.2
 21
376.0000000000001
  0
LINE
  5
2D6
100
AcDbEntity
  8
Shape2DView005
  6
ByLayer
 62
  256
370
   -1
100
AcDbLine
 10
725.2
 20
251.0000000000001
 11
725.2
 21
376.0000000000001
  0
LINE
  5
2D7
100
AcDbEntity
  8
Shape2DView005
  6
ByLayer
 62
  256
370
   -1
100
AcDbLine
 10
710.0899999999999
 20
251.0000000000001
 11
725.2
 21
251.0000000000001
  0
ARC
  5
2D8
100
AcDbEntity
  8
Shape2DView005
  6
ByLayer
 62
  256
370
   -1
100
AcDbCircle
 10
709.9300000000001
 20
251.0000000000001
 40
0.16
100
AcDbArc
 50
0
 51
180
  0
ARC
  5
2D9
100
AcDbEntity
  8
Shape2DView005
  6
ByLayer
 62
  256
370
   -1
100
AcDbCircle
 10
709.9300000000001
 20
251.0000000000001
 40
0.16
100
AcDbArc
 50
180
 51
-90
  0
LINE
  5
2DA
100
AcDbEntity
  8
Shape2DView005
  6
ByLayer
 62
  256
370
   -1
100
AcDbLine
 10
709.9300000000001
 20
250.8400000000001
 11
709.9300000000001
 21
248.6000000000001
  0
LINE
  5
2DB
100
AcDbEntity
  8
Shape2DView005
  6
ByLayer
 62
  256
370
   -1
100
AcDbLine
 10
709.9300000000001
 20
248.6000000000001
 11
689.77
 21
248.6000000000001
  0
ARC
  5
2DC
100
AcDbEntity
  8
Shape2DView005
  6
ByLayer
 62
  256
370
   -1
100
AcDbCircle
 10
689.77
 20
251.0000000000001
 40
0.16
100
AcDbArc
 50
-90
 51
0
  0
ARC
  5
2DD
100
AcDbEntity
  8
Shape2DView005
  6
ByLayer
 62
  256
370
   -1
100
AcDbCircle
 10
689.77
 20
251.0000000000001
 40
0.16
100
AcDbArc
 50
0
 51
180
  0
LINE
  5
2DE
100
AcDbEntity
  8
Shape2DView005
  6
ByLayer
 62
  256
370
   -1
100
AcDbLine
 10
659.3899999999999
 20
251.0000000000001
 11
689.6100000000001
 21
251.0000000000001
  0
ARC
  5
2DF
100
AcDbEntity
  8
Shape2DView005
  6
ByLayer
 62
  256
370
   -1
100
AcDbCircle
 10
659.23
 20
251.0000000000001
 40
0.16
100
AcDbArc
 50
0
 51
180
  0
ARC
  5
2E0
100
AcDbEntity
  8
Shape2DView005
  6
ByLayer
 62
  256
370
   -1
100
AcDbCircle
 10
659.23
 20
251.0000000000001
 40
0.16
100
AcDbArc
 50
180
 51
-90
  0
LINE
  5
2E1
100
AcDbEntity
  8
Shape2DView005
  6
ByLayer
 62
  256
370
   -1
100
AcDbLine
 10
689.77
 20
250.8400000000001
 11
689.77
 21
248.6000000000001
  0
LINE
  5
2E2
100
AcDbEntity
  8
Shape2DView005
  6
ByLayer
 62
  256
370
   -1
100
AcDbLine
 10
659.23
 20
250.8400000000001
 11
659.23
 21
248.6000000000001
  0
LINE
  5
2E3
100
AcDbEntity
  8
Shape2DView005
  6
ByLayer
 62
  256
370
   -1
100
AcDbLine
 10
659.23
 20
248.6000000000001
 11
639.0699999999999
 21
248.6000000000001
  0
ARC
  5
2E4
100
AcDbEntity
  8
Shape2DView005
  6
ByLayer
 62
  256
370
   -1
100
AcDbCircle
 10
639.0699999999999
 20
251.0000000000001
 40
0.16
100
AcDbArc
 50
-90
 51
0
  0
ARC
  5
2E5
100
AcDbEntity
  8
Shape2DView005
  6
ByLayer
 62
  256
370
   -1
100
AcDbCircle
 10
639.0699999999999
 20
251.0000000000001
 40
0.16
100
AcDbArc
 50
0
 51
180
  0
LINE
  5
2E6
100
AcDbEntity
  8
Shape2DView005
  6
ByLayer
 62
  256
370
   -1
100
AcDbLine
 10
623.8
 20
251.0000000000001
 11
638.9100000000001
 21
251.0000000000001
  0
LINE
  5
2E7
100
AcDbEntity
  8
Shape2DView005
  6
ByLayer
 62
  256
370
   -1
100
AcDbLine
 10
623.8
 20
285.0000000000001
 11
623.8
 21
251.0000000000001
  0
LINE
  5
2E8
100
AcDbEntity
  8
Shape2DView005
  6
ByLayer
 62
  256
370
   -1
100
AcDbLine
 10
621.4000000000001
 20
285.0000000000001
 11
623.8
 21
285.0000000000001
  0
LINE
  5
2E9
100
AcDbEntity
  8
Shape2DView005
  6
ByLayer
 62
  256
370
   -1
100
AcDbLine
 10
621.4000000000001
 20
251.0000000000001
 11
621.4000000000001
 21
285.0000000000001
  0
LINE
  5
2EA
100
AcDbEntity
  8
Shape2DView005
  6
ByLayer
 62
  256
370
   -1
100
AcDbLine
 10
606.29
 20
251.0000000000001
 11
621.4000000000001
 21
251.0000000000001
  0
ARC
  5
2EB
100
AcDbEntity
  8
Shape2DView005
  6
ByLayer
 62
  256
370
   -1
100
AcDbCircle
 10
606.1300000000001
 20
251.0000000000001
 40
0.16
100
AcDbArc
 50
0
 51
180
  0
ARC
  5
2EC
100
AcDbEntity
  8
Shape2DView005
  6
ByLayer
 62
  256
370
   -1
100
AcDbCircle
 10
606.1300000000001
 20
251.0000000000001
 40
0.16
100
AcDbArc
 50
180
 51
-90
  0
LINE
  5
2ED
100
AcDbEntity
  8
Shape2DView005
  6
ByLayer
 62
  256
370
   -1
100
AcDbLine
 10
639.0699999999999
 20
250.8400000000001
 11
639.0699999999999
 21
248.6000000000001
  0
LINE
  5
2EE
100
AcDbEntity
  8
Shape2DView005
  6
ByLayer
 62
  256
370
   -1
100
AcDbLine
 10
606.1300000000001
 20
250.8400000000001
 11
606.1300000000001
 21
248.6000000000001
  0
LINE
  5
2EF
100
AcDbEntity
  8
Shape2DView005
  6
ByLayer
 62
  256
370
   -1
100
AcDbLine
 10
606.1300000000001
 20
248.6000000000001
 11
585.97
 21
248.6000000000001
  0
ARC
  5
2F0
100
AcDbEntity
  8
Shape2DView005
  6
ByLayer
 62
  256
370
   -1
100
AcDbCircle
 10
585.97
 20
251.0000000000001
 40
0.16
100
AcDbArc
 50
-90
 51
0
  0
ARC
  5
2F1
100
AcDbEntity
  8
Shape2DView005
  6
ByLayer
 62
  256
370
   -1
100
AcDbCircle
 10
585.97
 20
251.0000000000001
 40
0.16
100
AcDbArc
 50
0
 51
180
  0
LINE
  5
2F2
100
AcDbEntity
  8
Shape2DView005
  6
ByLayer
 62
  256
370
   -1
100
AcDbLine
 10
555.5900000000001
 20
251.0000000000001
 11
585.8099999999999
 21
251.0000000000001
  0
ARC
  5
2F3
100
AcDbEntity
  8
Shape2DView005
  6
ByLayer
 62
  256
370
   -1
100
AcDbCircle
 10
555.4300000000001
 20
251.0000000000001
 40
0.16
100
AcDbArc
 50
0
 51
180
  0
ARC
  5
2F4
100
AcDbEntity
  8
Shape2DView005
  6
ByLayer
 62
  256
370
   -1
100
AcDbCircle
 10
555.4300000000001
 20
251.0000000000001
 40
0.16
100
AcDbArc
 50
180
 51
-90
  0
LINE
  5
2F5
100
AcDbEntity
  8
Shape2DView005
  6
ByLayer
 62
  256
370
   -1
100
AcDbLine
 10
585.97
 20
250.8400000000001
 11
585.97
 21
248.6000000000001
  0
LINE
  5
2F6
100
AcDbEntity
  8
Shape2DView005
  6
ByLayer
 62
  256
370
   -1
100
AcDbLine
 10
555.4300000000001
 20
250.8400000000001
 11
555.4300000000001
 21
248.6000000000001
  0
LINE
  5
2F7
100
AcDbEntity
  8
Shape2DView005
  6
ByLayer
 62
  256
370
   -1
100
AcDbLine
 10
535.27
 20
250.8400000000001
 11
535.27
 21
248.6000000000001
  0
LINE
  5
2F8
100
AcDbEntity
  8
Shape2DView005
  6
ByLayer
 62
  256
370
   -1
100
AcDbLine
 10
555.4300000000001
 20
248.6000000000001
 11
535.27
 21
248.6000000000001
  0
ENDSEC
  0
SECTION
  2
OBJECTS
  0
DICTIONARY
  5
C
330
0
100
AcDbDictionary
281
    1
  3
ACAD_GROUP
350
D
  0
DICTIONARY
  5
D
330
C
100
AcDbDictionary
281
    1
  0
PLOTSETTINGS
  5
2F9
100
AcDbPlotSettings
  6
1x1
 40
0
 41
0
 42
0
 43
0
  0
ENDSEC
  0
EOF
