<?xml version="1.0" encoding="UTF-8" standalone="no"?>
<svg
   version="1.1"
   x="0px"
   y="0px"
   viewBox="0 0 72.677956 80.752945"
   xml:space="preserve"
   id="svg13"
   sodipodi:docname="noun-christmas-2073171.svg"
   width="72.677956"
   height="80.752945"
   inkscape:version="1.4.2 (1:1.4.2+202505120737+ebf0e940d0)"
   xmlns:inkscape="http://www.inkscape.org/namespaces/inkscape"
   xmlns:sodipodi="http://sodipodi.sourceforge.net/DTD/sodipodi-0.dtd"
   xmlns="http://www.w3.org/2000/svg"
   xmlns:svg="http://www.w3.org/2000/svg"><defs
     id="defs13" /><sodipodi:namedview
     id="namedview13"
     pagecolor="#ffffff"
     bordercolor="#999999"
     borderopacity="1"
     inkscape:showpageshadow="2"
     inkscape:pageopacity="0"
     inkscape:pagecheckerboard="0"
     inkscape:deskcolor="#d1d1d1"
     showgrid="false"
     inkscape:zoom="6.488"
     inkscape:cx="36.451911"
     inkscape:cy="52.943896"
     inkscape:window-width="1920"
     inkscape:window-height="1043"
     inkscape:window-x="0"
     inkscape:window-y="0"
     inkscape:window-maximized="1"
     inkscape:current-layer="svg13" /><path
     d="m 36.367487,8.0869092 c -2.881836,0 -5.226563,2.3447268 -5.226563,5.2265628 0,2.881835 2.344727,5.226562 5.226563,5.226562 2.881836,0 5.226562,-2.344727 5.226562,-5.226562 0,-2.881836 -2.344726,-5.2265628 -5.226562,-5.2265628 z m 0,8.4531248 c -1.779297,0 -3.226563,-1.447266 -3.226563,-3.226562 0,-1.779297 1.447266,-3.226563 3.226563,-3.226563 1.779297,0 3.226562,1.447266 3.226562,3.226563 0,1.779296 -1.447265,3.226562 -3.226562,3.226562 z"
     id="path1"
     style="fill:none;fill-opacity:1;stroke:#000000;stroke-width:0.755906;stroke-dasharray:none;stroke-opacity:1" /><path
     d="m 20.086237,14.830561 c -1.395996,0 -2.708496,0.543946 -3.695313,1.53125 -0.987304,0.986817 -1.53125,2.299317 -1.53125,3.695801 0,1.395996 0.543946,2.708496 1.53125,3.695313 0.986817,0.987304 2.299317,1.53125 3.695313,1.53125 1.396484,0 2.708984,-0.543946 3.695801,-1.53125 0.987305,-0.986817 1.53125,-2.299317 1.53125,-3.695313 0,-1.396484 -0.543945,-2.708496 -1.53125,-3.695801 -0.987305,-0.987304 -2.299317,-1.53125 -3.695801,-1.53125 z m 2.281738,7.508301 c -1.218261,1.218262 -3.34375,1.219238 -4.562988,0 -0.609375,-0.609375 -0.945313,-1.419922 -0.945313,-2.28125 0,-0.861816 0.335938,-1.672363 0.945313,-2.281738 0.609375,-0.609375 1.419922,-0.945313 2.28125,-0.945313 0.861816,0 1.672363,0.335938 2.281738,0.945313 0.609375,0.609375 0.945313,1.419922 0.945313,2.281738 0,0.861328 -0.335938,1.671875 -0.945313,2.28125 z"
     id="path2"
     style="fill:none;fill-opacity:1;stroke:#000000;stroke-width:0.755906;stroke-dasharray:none;stroke-opacity:1" /><path
     d="m 13.342585,31.111811 c -2.881836,0 -5.226563,2.344727 -5.226563,5.226563 0,2.881836 2.344727,5.226562 5.226563,5.226562 2.881836,0 5.226562,-2.344726 5.226562,-5.226562 0,-2.881836 -2.344726,-5.226563 -5.226562,-5.226563 z m 0,8.453125 c -1.779297,0 -3.226563,-1.447265 -3.226563,-3.226562 0,-1.779297 1.447266,-3.226563 3.226563,-3.226563 1.779297,0 3.226562,1.447266 3.226562,3.226563 0,1.779297 -1.447266,3.226562 -3.226562,3.226562 z"
     id="path3"
     style="fill:none;fill-opacity:1;stroke:#000000;stroke-width:0.755906;stroke-dasharray:none;stroke-opacity:1" /><path
     d="m 59.392389,31.111811 c -2.881836,0 -5.226562,2.344727 -5.226562,5.226563 0,2.881836 2.344726,5.226562 5.226562,5.226562 2.881836,0 5.226563,-2.344726 5.226563,-5.226562 0,-2.881836 -2.344727,-5.226563 -5.226563,-5.226563 z m 0,8.453125 c -1.779297,0 -3.226562,-1.447265 -3.226562,-3.226562 0,-1.779297 1.447265,-3.226563 3.226562,-3.226563 1.779297,0 3.226563,1.447266 3.226563,3.226563 0,1.779297 -1.447266,3.226562 -3.226563,3.226562 z"
     id="path4"
     style="fill:none;fill-opacity:1;stroke:#000000;stroke-width:0.755906;stroke-dasharray:none;stroke-opacity:1" /><path
     d="m 57.875299,20.057612 c 0,-1.396484 -0.543945,-2.708984 -1.53125,-3.695801 -0.986816,-0.987304 -2.299316,-1.53125 -3.695312,-1.53125 -1.396484,0 -2.708984,0.543946 -3.695801,1.53125 -0.987305,0.986817 -1.53125,2.299317 -1.53125,3.695801 0,1.395996 0.543945,2.708496 1.53125,3.695313 0.986817,0.987304 2.299317,1.53125 3.695801,1.53125 1.395996,0 2.708008,-0.543946 3.695312,-1.53125 0.987305,-0.987305 1.53125,-2.299317 1.53125,-3.695313 z m -2.945312,2.28125 c -1.219238,1.219238 -3.344727,1.218262 -4.562988,0 -0.609375,-0.609375 -0.945313,-1.419922 -0.945313,-2.28125 0,-0.861816 0.335938,-1.672363 0.945313,-2.281738 0.609375,-0.609375 1.419922,-0.945313 2.281738,-0.945313 0.861328,0 1.671875,0.335938 2.28125,0.945313 0.609375,0.609375 0.945312,1.419922 0.945312,2.281738 0,0.861328 -0.335937,1.671875 -0.945312,2.28125 z"
     id="path5"
     style="fill:none;fill-opacity:1;stroke:#000000;stroke-width:0.755906;stroke-dasharray:none;stroke-opacity:1" /><path
     d="M 72.030085,26.775386 C 71.452448,24.619136 69.98321,22.79394 67.999811,21.76855 65.940241,20.704097 64.679499,18.520015 64.787409,16.203608 64.890925,13.973628 64.045222,11.789546 62.466608,10.210932 60.887995,8.6323192 58.697077,7.7905222 56.473444,7.8901322 54.149714,8.0039012 51.972956,6.7368112 50.908503,4.6777292 49.8836,2.6943312 48.058893,1.2255812 45.902155,0.64745617 43.747858,0.07079597 41.43194,0.42919417 39.552057,1.6342722 c -1.952148,1.251954 -4.474121,1.250977 -6.426269,0 C 31.246882,0.42919417 28.931452,0.07079597 26.77569,0.64745617 24.618952,1.2255812 22.794245,2.6943312 21.769342,4.6772412 c -1.064453,2.059082 -3.243164,3.324707 -5.564941,3.212891 -2.232422,-0.09814 -4.414551,0.742187 -5.992676,2.3203118 -1.578613,1.578614 -2.424804,3.763184 -2.321289,5.993164 0.10791,2.316407 -1.152832,4.500489 -3.21289,5.564942 -1.983399,1.02539 -3.452149,2.850586 -4.02978599,5.007324 -0.577636,2.15625 -0.217773,4.470703 0.98730499,6.349609 1.250977,1.951661 1.250977,4.474121 0,6.425782 -1.20507799,1.878906 -1.56494099,4.193847 -0.98730499,6.350097 0.57812499,2.156739 2.04687499,3.981446 4.02978599,5.006348 2.060058,1.064941 3.3208,3.249023 3.21289,5.564941 -0.140137,3.012757 1.469971,5.865296 4.104492,7.32483 0.119019,0.828918 0.37732,1.635376 0.776368,2.37146 1.189453,2.188964 3.565429,3.489257 6.084472,3.489257 0.672852,0 1.356446,-0.09277 2.030274,-0.286621 0.04346,-0.01221 0.08594,-0.02783 0.126953,-0.0459 l 6.908569,-3.046265 c 0.275085,0.403992 0.596191,0.772888 0.949829,1.107971 v 11.987612 c 0,0.348145 0.181152,0.670898 0.477539,0.852539 0.297852,0.182129 0.666992,0.196777 0.977051,0.03809 l 6.039063,-3.081543 5.977539,3.080078 c 0.144043,0.07421 0.301269,0.110836 0.458008,0.110836 0.180664,0 0.361328,-0.04883 0.520507,-0.145996 0.297852,-0.181641 0.479493,-0.505371 0.479493,-0.854004 v -11.98761 c 0.165527,-0.15686 0.323425,-0.321106 0.472534,-0.493835 l 7.86438,2.563965 c 0.03271,0.01074 0.06592,0.01953 0.09912,0.02685 0.550781,0.118652 1.101074,0.176758 1.642089,0.176758 1.854493,0 3.599122,-0.683106 4.865723,-1.950196 1.082703,-1.082336 1.763428,-2.455993 1.986633,-3.94281 2.604371,-1.467102 4.195313,-4.302673 4.056336,-7.295471 -0.10791,-2.315918 1.152832,-4.5 3.212402,-5.564941 1.983399,-1.024903 3.452149,-2.84961 4.030274,-5.006348 0.577636,-2.15625 0.218261,-4.470703 -0.986817,-6.350586 -1.251465,-1.951172 -1.251465,-4.473633 0,-6.425293 1.205078,-1.878906 1.564453,-4.193847 0.986817,-6.350097 z M 20.270807,67.46728 c -2.282226,0.624024 -4.688476,-0.314941 -5.741699,-2.252929 -0.400879,-0.73877 -0.612793,-1.575684 -0.612793,-2.421387 0,-1.444824 0.624023,-2.828125 1.712402,-3.794922 0.213868,-0.189453 0.335938,-0.461914 0.335938,-0.747559 0,-0.285644 -0.12207,-0.557617 -0.335938,-0.747558 -1.088379,-0.967286 -1.712402,-2.350586 -1.712402,-3.795411 0,-1.356933 0.528809,-2.632812 1.488281,-3.592773 1.126465,-1.125488 2.891114,-1.601074 4.623535,-1.242676 l 7.281373,2.374329 c -0.357605,0.82373 -0.558228,1.730652 -0.558228,2.684265 v 3.275391 h -3.321777 c -0.552246,0 -1,0.447753 -1,1 0,0.552246 0.447754,1 1,1 h 3.321777 v 3.27539 c 0,0.694397 0.105835,1.36438 0.301025,1.995545 z M 39.15362,47.164057 h -5.635254 c -0.57959,0 -1.139282,0.08105 -1.676514,0.21875 -4.50769,-1.846679 -7.412353,-6.157714 -7.412353,-11.044433 0,-6.58252 5.355468,-11.937988 11.937988,-11.937988 6.582519,0 11.937988,5.355468 11.937988,11.937988 0,4.830322 -2.981445,9.235901 -7.439453,11.053711 -0.548035,-0.143677 -1.119934,-0.228028 -1.712402,-0.228028 z m -5.635254,2 h 5.635254 c 2.628418,0 4.76709,2.138184 4.76709,4.766602 v 8.550781 c 0,2.628418 -2.138672,4.766602 -4.76709,4.766602 h -5.635254 c -2.628418,0 -4.76709,-2.138184 -4.76709,-4.766602 v -8.550781 c 0,-2.628418 2.138672,-4.766602 4.76709,-4.766602 z m 8.282227,28.570801 -4.975098,-2.563476 c -0.285645,-0.146485 -0.624512,-0.146973 -0.912598,-0.0015 l -5.041504,2.572265 v -9.034179 c 0.813538,0.347168 1.708008,0.540039 2.646973,0.540039 h 5.635254 c 0.938904,0 1.833435,-0.192932 2.646973,-0.540039 z M 57.106257,58.909175 c 1.088378,0.966797 1.712402,2.350097 1.712402,3.794922 0,1.357422 -0.528321,2.6333 -1.488281,3.592773 -1.126465,1.125977 -2.891602,1.601074 -4.623536,1.242676 l -7.335754,-2.391602 c 0.3526,-0.818848 0.549622,-1.719848 0.549622,-2.666504 v -3.27539 h 3.245605 c 0.552246,0 1,-0.447754 1,-1 0,-0.552246 -0.447754,-1 -1,-1 H 45.92071 v -3.275391 c 0,-0.685425 -0.104248,-1.346619 -0.294617,-1.970581 l 6.838074,-3.015259 c 2.282226,-0.625488 4.688476,0.313965 5.741699,2.252442 0.400879,0.738769 0.612793,1.576172 0.612793,2.421875 0,1.444824 -0.624024,2.828125 -1.712402,3.794922 -0.213868,0.189453 -0.335938,0.461914 -0.335938,0.747558 0,0.285645 0.12207,0.558106 0.335938,0.747559 z M 69.359674,32.045893 c -1.671875,2.607911 -1.671875,5.977051 0,8.584473 0.91504,1.427734 1.177247,3.115723 0.738282,4.753418 -0.438965,1.638184 -1.510254,2.96875 -3.016602,3.747559 -2.751465,1.422363 -4.436035,4.34082 -4.291992,7.434082 0.08618,1.855407 -0.722595,3.624267 -2.106934,4.804992 -0.228088,-1.177246 -0.746338,-2.284485 -1.521484,-3.208801 1.062988,-1.267578 1.657715,-2.875 1.657715,-4.54248 0,-1.178223 -0.295899,-2.345215 -0.855469,-3.376465 -1.507324,-2.772949 -4.917481,-4.123047 -8.114258,-3.202149 -0.04346,0.01221 -0.08594,0.02783 -0.126953,0.0459 l -6.95636,3.067322 c -0.431885,-0.639527 -0.974731,-1.195801 -1.59375,-1.654908 4.333801,-2.438903 7.133606,-7.101623 7.133606,-12.160461 0,-7.685547 -6.252441,-13.937988 -13.937988,-13.937988 -7.685547,0 -13.937988,6.252441 -13.937988,13.937988 0,5.11969 2.731567,9.69812 7.094238,12.142761 -0.407044,0.299133 -0.779785,0.640869 -1.110474,1.021607 l -7.815795,-2.548645 c -0.03272,-0.01074 -0.06592,-0.01953 -0.09912,-0.02686 -2.439453,-0.525879 -4.87207,0.136719 -6.507812,1.773438 -1.337402,1.337402 -2.074219,3.115722 -2.074219,5.006835 0,1.667481 0.594727,3.274903 1.657715,4.542969 -0.767822,0.915589 -1.281067,2.011353 -1.512634,3.176087 C 10.635983,60.246147 9.800655,58.45092 9.888485,56.565422 10.032528,53.47216 8.347958,50.553703 5.596005,49.13134 4.089657,48.352531 3.018368,47.021476 2.579891,45.383781 2.140926,43.746086 2.403622,42.058097 3.318661,40.630363 c 1.671386,-2.607422 1.671386,-5.976562 0,-8.583984 -0.915039,-1.427735 -1.177735,-3.115723 -0.73877,-4.753418 0.438477,-1.637696 1.509766,-2.969239 3.016114,-3.748047 2.751953,-1.421875 4.436523,-4.339844 4.29248,-7.434082 -0.07861,-1.693848 0.538086,-3.28711 1.737305,-4.48584 1.19873,-1.198731 2.784668,-1.8198238 4.48584,-1.7368158 3.082519,0.1289058 6.012207,-1.541504 7.434082,-4.292481 0.778808,-1.505859 2.109375,-2.577148 3.74707,-3.016113 1.638183,-0.438965 3.32666,-0.176758 4.753906,0.738281 2.60791,1.671875 5.976563,1.672852 8.584473,0 1.427734,-0.915039 3.115722,-1.177246 4.753418,-0.738281 1.638183,0.438965 2.96875,1.510254 3.747558,3.016601 1.421875,2.750977 4.343262,4.4335938 7.434082,4.291993 1.697266,-0.08105 3.28711,0.5380848 4.486328,1.7373038 1.198731,1.198731 1.815918,2.791504 1.736817,4.485352 -0.144043,3.094238 1.540527,6.012207 4.291992,7.434082 1.506836,0.778809 2.578125,2.109863 3.016602,3.748047 0.438965,1.637695 0.176758,3.325683 -0.738282,4.752929 z"
     id="path6"
     style="fill:none;fill-opacity:1;stroke:#000000;stroke-width:0.755906;stroke-dasharray:none;stroke-opacity:1" /><path
     d="m 28.578913,14.919917 -1.75,0.794433 c -0.502442,0.228516 -0.725098,0.82129 -0.49707,1.324219 0.16748,0.368653 0.530761,0.586914 0.911132,0.586914 0.138184,0 0.278809,-0.0293 0.413086,-0.08984 l 1.75,-0.794434 c 0.502442,-0.228516 0.725098,-0.821289 0.49707,-1.324219 -0.228515,-0.502441 -0.820312,-0.724121 -1.324218,-0.49707 z"
     id="path7"
     style="fill:none;fill-opacity:1;stroke:#000000;stroke-width:0.755906;stroke-dasharray:none;stroke-opacity:1" /><path
     d="m 16.27569,29.727534 c 0.404297,0 0.785645,-0.247558 0.936035,-0.648926 l 0.675781,-1.799316 c 0.194336,-0.51709 -0.06738,-1.09375 -0.584472,-1.287598 -0.516114,-0.193359 -1.09375,0.06641 -1.287598,0.584473 l -0.675781,1.799316 c -0.194336,0.51709 0.06738,1.09375 0.584473,1.287598 0.115722,0.04346 0.234375,0.06445 0.351562,0.06445 z"
     id="path8"
     style="fill:none;fill-opacity:1;stroke:#000000;stroke-width:0.755906;stroke-dasharray:none;stroke-opacity:1" /><path
     d="m 17.195124,42.875972 c -0.228516,-0.503418 -0.821778,-0.727051 -1.323731,-0.497559 -0.50293,0.228027 -0.725586,0.820801 -0.497558,1.323731 l 0.793945,1.75 c 0.16748,0.36914 0.530762,0.587402 0.911133,0.587402 0.138183,0 0.278808,-0.02881 0.412597,-0.08984 0.50293,-0.228027 0.725586,-0.820801 0.497559,-1.32373 z"
     id="path9"
     style="fill:none;fill-opacity:1;stroke:#000000;stroke-width:0.755906;stroke-dasharray:none;stroke-opacity:1" /><path
     d="m 56.810846,42.165034 c -0.515136,-0.194336 -1.094238,0.06641 -1.287597,0.584473 l -0.675782,1.798828 c -0.194335,0.51709 0.06738,1.093262 0.584473,1.287598 0.115723,0.04346 0.234375,0.06445 0.351563,0.06445 0.404297,0 0.785644,-0.247559 0.936035,-0.648926 l 0.675781,-1.798828 c 0.194336,-0.51709 -0.06738,-1.093262 -0.584473,-1.287598 z"
     id="path10"
     style="fill:none;fill-opacity:1;stroke:#000000;stroke-width:0.755906;stroke-dasharray:none;stroke-opacity:1" /><path
     d="m 55.243464,25.878413 c -0.50293,0.228027 -0.725586,0.820801 -0.497559,1.323731 l 0.793945,1.75 c 0.167481,0.36914 0.530762,0.587402 0.911133,0.587402 0.138184,0 0.278809,-0.02881 0.412598,-0.08984 0.50293,-0.228027 0.725586,-0.820801 0.497558,-1.32373 l -0.793945,-1.75 c -0.228027,-0.503418 -0.821777,-0.72754 -1.32373,-0.497559 z"
     id="path11"
     style="fill:none;fill-opacity:1;stroke:#000000;stroke-width:0.755906;stroke-dasharray:none;stroke-opacity:1" /><path
     d="m 45.704889,15.562007 -1.798828,-0.675782 c -0.515137,-0.193359 -1.094238,0.06641 -1.287598,0.584473 -0.194335,0.51709 0.06738,1.093262 0.584473,1.287598 l 1.798828,0.675781 c 0.115723,0.04346 0.234375,0.06445 0.351563,0.06445 0.404297,0 0.785644,-0.247558 0.936035,-0.648926 0.194336,-0.51709 -0.06738,-1.093261 -0.584473,-1.287597 z"
     id="path12"
     style="fill:none;fill-opacity:1;stroke:#000000;stroke-width:0.755906;stroke-dasharray:none;stroke-opacity:1" /></svg>
