<svg xmlns="http://www.w3.org/2000/svg" xmlns:xlink="http://www.w3.org/1999/xlink" version="1.1" x="0px" y="0px" viewBox="0 0 100 125" enable-background="new 0 0 100 100" xml:space="preserve"><path fill-rule="evenodd" clip-rule="evenodd" d="M50.002,74.413c-2.995,0-5.422,2.438-5.422,5.428c0,2.994,2.427,5.42,5.422,5.42  c2.99,0,5.418-2.426,5.418-5.42C55.42,76.852,52.992,74.413,50.002,74.413z"/><path fill-rule="evenodd" clip-rule="evenodd" d="M94.038,37.709c-10.996-14.592-27.048-22.97-44.036-22.97  c-16.99,0-33.044,8.378-44.043,22.97c-1.458,1.941-1.229,4.837,0.512,6.464c0.759,0.72,1.697,1.074,2.633,1.074  c1.178,0,2.342-0.551,3.144-1.624c9.432-12.531,23.186-19.715,37.754-19.715c14.552,0,28.318,7.184,37.749,19.7  c0.803,1.088,1.968,1.639,3.145,1.639c0.937,0,1.872-0.354,2.635-1.074C95.271,42.546,95.497,39.65,94.038,37.709z"/><path fill-rule="evenodd" clip-rule="evenodd" d="M49.918,34.452c-12.134,0-23.6,5.972-31.453,16.396  c-1.458,1.942-1.244,4.839,0.497,6.467c0.774,0.716,1.711,1.074,2.646,1.074c1.165,0,2.33-0.553,3.144-1.626  c6.288-8.35,15.453-13.143,25.165-13.143c9.709,0,18.873,4.793,25.161,13.143c0.816,1.073,1.98,1.626,3.145,1.626  c0.936,0,1.872-0.339,2.649-1.074c1.737-1.628,1.966-4.524,0.494-6.467C73.515,40.424,62.05,34.452,49.918,34.452z"/><path fill-rule="evenodd" clip-rule="evenodd" d="M50.002,54.073c-7.292,0-14.169,3.584-18.877,9.841  c-1.458,1.931-1.229,4.823,0.506,6.452c0.765,0.734,1.699,1.079,2.638,1.079c1.179,0,2.339-0.556,3.157-1.632  c3.13-4.182,7.72-6.571,12.577-6.571c4.854,0,9.441,2.39,12.573,6.571c0.815,1.076,1.979,1.632,3.156,1.632  c0.938,0,1.872-0.345,2.636-1.079c1.739-1.629,1.966-4.521,0.509-6.452C64.166,57.657,57.291,54.073,50.002,54.073z"/><text x="0" y="115" fill="#000000" font-size="5px" font-weight="bold" font-family="'Helvetica Neue', Helvetica, Arial-Unicode, Arial, Sans-serif">Created by TMD</text><text x="0" y="120" fill="#000000" font-size="5px" font-weight="bold" font-family="'Helvetica Neue', Helvetica, Arial-Unicode, Arial, Sans-serif">from the Noun Project</text></svg>