<svg xmlns="http://www.w3.org/2000/svg" xmlns:xlink="http://www.w3.org/1999/xlink" version="1.1" x="0px" y="0px" viewBox="0 0 100 125" enable-background="new 0 0 100 100" xml:space="preserve"><path d="M93.269,56.762c-4.536-2.469-20.151-11.139-20.151-11.139L64.8,61.386l1.587,7.612l1.078,4.624l10.825,6.133  c0.549,0.255,1.244,0.509,2.087,0.509c0.901,0,1.969-0.294,3.184-1.176c3.919-2.851,5.731-8.689,6.084-12.833  c0.157-1.842,1.078-3.213,2.733-4.085c1.861-0.98,2.263-2.175,2.263-3.007C94.65,58.036,93.935,57.134,93.269,56.762z   M68.386,60.622c-0.402-0.627-0.216-1.46,0.411-1.861c0.617-0.402,1.45-0.215,1.852,0.411c0.402,0.617,0.215,1.45-0.411,1.852  C69.62,61.425,68.788,61.239,68.386,60.622z M71.217,68.861c-0.617,0.402-1.45,0.216-1.851-0.402  c-0.402-0.627-0.216-1.46,0.411-1.861c0.617-0.402,1.45-0.215,1.852,0.411C72.03,67.626,71.844,68.459,71.217,68.861z   M73.284,52.785c-0.402-0.627-0.216-1.46,0.411-1.861c0.617-0.402,1.45-0.215,1.852,0.411c0.402,0.617,0.215,1.45-0.411,1.852  C74.518,53.588,73.686,53.402,73.284,52.785z M84.726,62.317c-1.205,0.938-1.146,3.399-1.313,6.397l-0.01,0.059  c-0.392,3.135-1.665,4.389-2.665,4.879c-0.46,0.235-0.96,0.343-1.469,0.343c-0.647,0-1.313-0.186-1.93-0.549  c-2.351-1.371-2.518-5.917-0.431-11.579c1.205-3.243,2.557-5.133,4.134-5.76c0.882-0.353,1.822-0.304,2.714,0.137  c1.225,0.598,2.136,2.038,2.204,3.507C86.01,60.867,85.501,61.714,84.726,62.317z M71.051,45.349L8.099,10.366L4.641,22.102  l4.389-1.577l-0.862,4.379l4.193-1.509l-0.872,4.369l4.193-1.509l-0.872,4.369l4.193-1.509l-0.872,4.369l4.193-1.509l-0.872,4.359  l4.193-1.509l-0.872,4.369l4.183-1.509l-0.862,4.369l4.183-1.518l-0.872,4.369l4.193-1.509l-0.872,4.369l4.183-1.518l-0.872,4.369  l4.183-1.518l-0.872,4.369l4.193-1.518l-0.872,4.369l4.183-1.509l-0.882,4.359l4.183-1.518l-0.872,4.359l4.183-1.509l-0.862,4.369  l4.183-1.518l-0.872,4.369l4.183-1.518l-0.872,4.379l3.243-1.195l-1.734-8.298L71.051,45.349z"/><text x="0" y="115" fill="#000000" font-size="5px" font-weight="bold" font-family="'Helvetica Neue', Helvetica, Arial-Unicode, Arial, Sans-serif">Created by Laymik</text><text x="0" y="120" fill="#000000" font-size="5px" font-weight="bold" font-family="'Helvetica Neue', Helvetica, Arial-Unicode, Arial, Sans-serif">from the Noun Project</text></svg>