  0
SECTION
  2
HEADER
  9
$ACADVER
  1
AC1014
  9
$HANDSEED
  5
FFFF
  9
$INSUNITS
 70
     0
  9
$MEASUREMENT
 70
     1
  0
ENDSEC
  0
SECTION
  2
TABLES
  0
TABLE
  2
VPORT
  5
8
330
0
100
AcDbSymbolTable
 70
     4
  0
VPORT
  5
2E
330
8
100
AcDbSymbolTableRecord
100
AcDbViewportTableRecord
  2
*ACTIVE
 70
     0
 10
0.0
 20
0.0
 11
1.0
 21
1.0
 12
210.0
 22
148.5
 13
0.0
 23
0.0
 14
10.0
 24
10.0
 15
10.0
 25
10.0
 16
0.0
 26
0.0
 36
1.0
 17
0.0
 27
0.0
 37
0.0
 40
341.0
 41
1.24
 42
50.0
 43
0.0
 44
0.0
 50
0.0
 51
0.0
 71
     0
 72
   100
 73
     1
 74
     3
 75
     0
 76
     0
 77
     0
 78
     0
  0
ENDTAB
  0
TABLE
  2
LTYPE
  5
5
330
0
100
AcDbSymbolTable
 70
     1
  0
LTYPE
  5
14
330
5
100
AcDbSymbolTableRecord
100
AcDbLinetypeTableRecord
  2
BYBLOCK
 70
     0
  3

 72
    65
 73
     0
 40
0.0
  0
LTYPE
  5
15
330
5
100
AcDbSymbolTableRecord
100
AcDbLinetypeTableRecord
  2
BYLAYER
 70
     0
  3

 72
    65
 73
     0
 40
0.0
  0
LTYPE
  5
16
330
5
100
AcDbSymbolTableRecord
100
AcDbLinetypeTableRecord
  2
CONTINUOUS
 70
     0
  3
Solid line
 72
    65
 73
     0
 40
0.0
  0
ENDTAB
  0
TABLE
  2
LAYER
  5
2
100
AcDbSymbolTable
 70
1
  0
LAYER
  5
50
100
AcDbSymbolTableRecord
100
AcDbLayerTableRecord
  2
0
 70
0
  6
CONTINUOUS
  0
ENDTAB
  0
TABLE
  2
STYLE
  5
3
330
0
100
AcDbSymbolTable
 70
     1
  0
STYLE
  5
11
330
3
100
AcDbSymbolTableRecord
100
AcDbTextStyleTableRecord
  2
STANDARD
 70
     0
 40
0.0
 41
1.0
 50
0.0
 71
     0
 42
2.5
  3
txt
  4

  0
ENDTAB
  0
TABLE
  2
VIEW
  5
6
330
0
100
AcDbSymbolTable
 70
     0
  0
ENDTAB
  0
TABLE
  2
UCS
  5
7
330
0
100
AcDbSymbolTable
 70
     0
  0
ENDTAB
  0
TABLE
  2
APPID
  5
9
330
0
100
AcDbSymbolTable
 70
     2
  0
APPID
  5
12
330
9
100
AcDbSymbolTableRecord
100
AcDbRegAppTableRecord
  2
ACAD
 70
     0
  0
ENDTAB
  0
TABLE
  2
DIMSTYLE
  5
A
330
0
100
AcDbSymbolTable
 70
     1
  0
DIMSTYLE
105
27
330
A
100
AcDbSymbolTableRecord
100
AcDbDimStyleTableRecord
  2
ISO-25
 70
     0
  3

  4

  5

  6

  7

 40
1.0
 41
2.5
 42
0.625
 43
3.75
 44
1.25
 45
0.0
 46
0.0
 47
0.0
 48
0.0
140
2.5
141
2.5
142
0.0
143
0.03937007874016
144
1.0
145
0.0
146
1.0
147
0.625
 71
     0
 72
     0
 73
     0
 74
     0
 75
     0
 76
     0
 77
     1
 78
     8
170
     0
171
     3
172
     1
173
     0
174
     0
175
     0
176
     0
177
     0
178
     0
270
     2
271
     2
272
     2
273
     2
274
     3
340
11
275
     0
280
     0
281
     0
282
     0
283
     0
284
     8
285
     0
286
     0
287
     3
288
     0
  0
ENDTAB
  0
TABLE
  2
BLOCK_RECORD
  5
1
330
0
100
AcDbSymbolTable
 70
     1
  0
BLOCK_RECORD
  5
1F
330
1
100
AcDbSymbolTableRecord
100
AcDbBlockTableRecord
  2
*MODEL_SPACE
  0
BLOCK_RECORD
  5
1B
330
1
100
AcDbSymbolTableRecord
100
AcDbBlockTableRecord
  2
*PAPER_SPACE
  0
ENDTAB
  0
ENDSEC
  0
SECTION
  2
BLOCKS
  0
BLOCK
  5
20
330
1F
100
AcDbEntity
  8
0
100
AcDbBlockBegin
  2
*MODEL_SPACE
 70
     0
 10
0.0
 20
0.0
 30
0.0
  3
*MODEL_SPACE
  1

  0
ENDBLK
  5
21
330
1F
100
AcDbEntity
  8
0
100
AcDbBlockEnd
  0
BLOCK
  5
1C
330
1B
100
AcDbEntity
 67
     1
  8
0
100
AcDbBlockBegin
  2
*PAPER_SPACE
  1

  0
ENDBLK
  5
1D
330
1B
100
AcDbEntity
 67
     1
  8
0
100
AcDbBlockEnd
  0
ENDSEC
  0
SECTION
  2
ENTITIES
  0
LINE
  5
100
100
AcDbEntity
  8
0
 62
7
100
AcDbLine
 10
316.669580
 20
219.674400
 30
0.0
 11
335.869530
 21
219.674400
 31
0.0
  0
LINE
  5
101
100
AcDbEntity
  8
0
 62
7
100
AcDbLine
 10
335.869530
 20
219.674400
 30
0.0
 11
335.869530
 21
241.807680
 31
0.0
  0
LINE
  5
102
100
AcDbEntity
  8
0
 62
7
100
AcDbLine
 10
335.869530
 20
241.807680
 30
0.0
 11
316.669580
 21
241.807680
 31
0.0
  0
LINE
  5
103
100
AcDbEntity
  8
0
 62
7
100
AcDbLine
 10
316.669580
 20
241.807680
 30
0.0
 11
316.669580
 21
219.674400
 31
0.0
  0
SPLINE
  5
104
100
AcDbEntity
  8
0
 62
7
100
AcDbSpline
 70
8
 71
3
 72
8
 73
4
 74
0
 40
0
 40
0
 40
0
 40
0
 40
1
 40
1
 40
1
 40
1
 10
277.602990
 20
233.807700
 30
0.0
 10
268.003020
 20
233.807700
 30
0.0
 10
264.269690
 20
237.407690
 30
0.0
 10
264.136360
 20
245.407670
 30
0.0
  0
LINE
  5
105
100
AcDbEntity
  8
0
 62
7
100
AcDbLine
 10
264.136360
 20
245.407670
 30
0.0
 11
303.336260
 21
245.407670
 31
0.0
  0
LINE
  5
106
100
AcDbEntity
  8
0
 62
7
100
AcDbLine
 10
303.336260
 20
245.407670
 30
0.0
 11
304.669590
 21
257.807643
 31
0.0
  0
SPLINE
  5
107
100
AcDbEntity
  8
0
 62
7
100
AcDbSpline
 70
8
 71
3
 72
8
 73
4
 74
0
 40
0
 40
0
 40
0
 40
0
 40
1
 40
1
 40
1
 40
1
 10
304.669590
 20
257.807643
 30
0.0
 10
304.669590
 20
277.940923
 30
0.0
 10
295.202950
 20
287.940903
 30
0.0
 10
275.603000
 20
287.940903
 30
0.0
  0
SPLINE
  5
108
100
AcDbEntity
  8
0
 62
7
100
AcDbSpline
 70
8
 71
3
 72
8
 73
4
 74
0
 40
0
 40
0
 40
0
 40
0
 40
1
 40
1
 40
1
 40
1
 10
275.603000
 20
287.940903
 30
0.0
 10
256.136380
 20
287.940903
 30
0.0
 10
246.136410
 20
275.807593
 30
0.0
 10
246.136410
 20
252.074323
 30
0.0
  0
SPLINE
  5
109
100
AcDbEntity
  8
0
 62
7
100
AcDbSpline
 70
8
 71
3
 72
8
 73
4
 74
0
 40
0
 40
0
 40
0
 40
0
 40
1
 40
1
 40
1
 40
1
 10
246.136410
 20
252.074323
 30
0.0
 10
246.136410
 20
228.074380
 30
0.0
 10
254.669720
 20
218.074410
 30
0.0
 10
274.803000
 20
218.074410
 30
0.0
  0
SPLINE
  5
10a
100
AcDbEntity
  8
0
 62
7
100
AcDbSpline
 70
8
 71
3
 72
8
 73
4
 74
0
 40
0
 40
0
 40
0
 40
0
 40
1
 40
1
 40
1
 40
1
 10
274.803000
 20
218.074410
 30
0.0
 10
287.202970
 20
218.074410
 30
0.0
 10
302.536260
 20
221.807730
 30
0.0
 10
302.536260
 20
221.807730
 30
0.0
  0
LINE
  5
10b
100
AcDbEntity
  8
0
 62
7
100
AcDbLine
 10
302.536260
 20
221.807730
 30
0.0
 11
302.269600
 21
235.007700
 31
0.0
  0
SPLINE
  5
10c
100
AcDbEntity
  8
0
 62
7
100
AcDbSpline
 70
8
 71
3
 72
8
 73
4
 74
0
 40
0
 40
0
 40
0
 40
0
 40
1
 40
1
 40
1
 40
1
 10
302.269600
 20
235.007700
 30
0.0
 10
302.269600
 20
235.007700
 30
0.0
 10
288.536300
 20
233.807700
 30
0.0
 10
277.602990
 20
233.807700
 30
0.0
  0
LINE
  5
10d
100
AcDbEntity
  8
0
 62
7
100
AcDbLine
 10
277.602990
 20
233.807700
 30
0.0
 11
277.602990
 21
233.807700
 31
0.0
  0
SPLINE
  5
10e
100
AcDbEntity
  8
0
 62
7
100
AcDbSpline
 70
8
 71
3
 72
8
 73
4
 74
0
 40
0
 40
0
 40
0
 40
0
 40
1
 40
1
 40
1
 40
1
 10
264.003030
 20
259.007643
 30
0.0
 10
264.136360
 20
269.140943
 30
0.0
 10
267.069700
 20
273.274273
 30
0.0
 10
275.603000
 20
273.274273
 30
0.0
  0
SPLINE
  5
10f
100
AcDbEntity
  8
0
 62
7
100
AcDbSpline
 70
8
 71
3
 72
8
 73
4
 74
0
 40
0
 40
0
 40
0
 40
0
 40
1
 40
1
 40
1
 40
1
 10
275.603000
 20
273.274273
 30
0.0
 10
284.002980
 20
273.274273
 30
0.0
 10
287.069640
 20
269.807613
 30
0.0
 10
287.069640
 20
259.007643
 30
0.0
  0
LINE
  5
110
100
AcDbEntity
  8
0
 62
7
100
AcDbLine
 10
287.069640
 20
259.007643
 30
0.0
 11
264.003030
 21
259.007643
 31
0.0
  0
LINE
  5
111
100
AcDbEntity
  8
0
 62
7
100
AcDbLine
 10
199.870040
 20
219.674400
 30
0.0
 11
199.870040
 21
244.474340
 31
0.0
  0
LINE
  5
112
100
AcDbEntity
  8
0
 62
7
100
AcDbLine
 10
199.870040
 20
244.474340
 30
0.0
 11
207.203360
 21
245.674340
 31
0.0
  0
LINE
  5
113
100
AcDbEntity
  8
0
 62
7
100
AcDbLine
 10
207.203360
 20
245.674340
 30
0.0
 11
220.669990
 21
219.674400
 31
0.0
  0
LINE
  5
114
100
AcDbEntity
  8
0
 62
7
100
AcDbLine
 10
220.669990
 20
219.674400
 30
0.0
 11
240.803270
 21
219.674400
 31
0.0
  0
LINE
  5
115
100
AcDbEntity
  8
0
 62
7
100
AcDbLine
 10
240.803270
 20
219.674400
 30
0.0
 11
222.536650
 21
254.740983
 31
0.0
  0
LINE
  5
116
100
AcDbEntity
  8
0
 62
7
100
AcDbLine
 10
222.536650
 20
254.740983
 30
0.0
 11
239.869940
 21
286.340903
 31
0.0
  0
LINE
  5
117
100
AcDbEntity
  8
0
 62
7
100
AcDbLine
 10
239.869940
 20
286.340903
 30
0.0
 11
219.869990
 21
286.340903
 31
0.0
  0
LINE
  5
118
100
AcDbEntity
  8
0
 62
7
100
AcDbLine
 10
219.869990
 20
286.340903
 30
0.0
 11
206.670030
 21
261.140963
 31
0.0
  0
LINE
  5
119
100
AcDbEntity
  8
0
 62
7
100
AcDbLine
 10
206.670030
 20
261.140963
 30
0.0
 11
199.870040
 21
259.940973
 31
0.0
  0
LINE
  5
11a
100
AcDbEntity
  8
0
 62
7
100
AcDbLine
 10
199.870040
 20
259.940973
 30
0.0
 11
199.870040
 21
313.007503
 31
0.0
  0
LINE
  5
11b
100
AcDbEntity
  8
0
 62
7
100
AcDbLine
 10
199.870040
 20
313.007503
 30
0.0
 11
182.003420
 21
313.007503
 31
0.0
  0
LINE
  5
11c
100
AcDbEntity
  8
0
 62
7
100
AcDbLine
 10
182.003420
 20
313.007503
 30
0.0
 11
182.003420
 21
219.674400
 31
0.0
  0
LINE
  5
11d
100
AcDbEntity
  8
0
 62
7
100
AcDbLine
 10
182.003420
 20
219.674400
 30
0.0
 11
199.870040
 21
219.674400
 31
0.0
  0
LINE
  5
11e
100
AcDbEntity
  8
0
 62
7
100
AcDbLine
 10
19.870446
 20
219.674400
 30
0.0
 11
19.870446
 21
269.540943
 31
0.0
  0
SPLINE
  5
11f
100
AcDbEntity
  8
0
 62
7
100
AcDbSpline
 70
8
 71
3
 72
8
 73
4
 74
0
 40
0
 40
0
 40
0
 40
0
 40
1
 40
1
 40
1
 40
1
 10
19.870446
 20
269.540943
 30
0.0
 10
19.870446
 20
269.540943
 30
0.0
 10
25.870430
 20
271.940943
 30
0.0
 10
31.737082
 20
271.940943
 30
0.0
  0
SPLINE
  5
120
100
AcDbEntity
  8
0
 62
7
100
AcDbSpline
 70
8
 71
3
 72
8
 73
4
 74
0
 40
0
 40
0
 40
0
 40
0
 40
1
 40
1
 40
1
 40
1
 10
31.737082
 20
271.940943
 30
0.0
 10
40.003727
 20
271.940943
 30
0.0
 10
41.070391
 20
265.940953
 30
0.0
 10
41.070391
 20
253.940983
 30
0.0
  0
LINE
  5
121
100
AcDbEntity
  8
0
 62
7
100
AcDbLine
 10
41.070391
 20
253.940983
 30
0.0
 11
41.070391
 21
219.674400
 31
0.0
  0
LINE
  5
122
100
AcDbEntity
  8
0
 62
7
100
AcDbLine
 10
41.070391
 20
219.674400
 30
0.0
 11
58.937015
 21
219.674400
 31
0.0
  0
LINE
  5
123
100
AcDbEntity
  8
0
 62
7
100
AcDbLine
 10
58.937015
 20
219.674400
 30
0.0
 11
58.937015
 21
254.207653
 31
0.0
  0
SPLINE
  5
124
100
AcDbEntity
  8
0
 62
7
100
AcDbSpline
 70
8
 71
3
 72
8
 73
4
 74
0
 40
0
 40
0
 40
0
 40
0
 40
1
 40
1
 40
1
 40
1
 10
58.937015
 20
254.207653
 30
0.0
 10
58.937015
 20
259.407643
 30
0.0
 10
58.403685
 20
269.407613
 30
0.0
 10
58.403685
 20
269.407613
 30
0.0
  0
SPLINE
  5
125
100
AcDbEntity
  8
0
 62
7
100
AcDbSpline
 70
8
 71
3
 72
8
 73
4
 74
0
 40
0
 40
0
 40
0
 40
0
 40
1
 40
1
 40
1
 40
1
 10
58.403685
 20
269.407613
 30
0.0
 10
58.403685
 20
269.407613
 30
0.0
 10
65.470325
 20
271.940943
 30
0.0
 10
70.803645
 20
271.940943
 30
0.0
  0
SPLINE
  5
126
100
AcDbEntity
  8
0
 62
7
100
AcDbSpline
 70
8
 71
3
 72
8
 73
4
 74
0
 40
0
 40
0
 40
0
 40
0
 40
1
 40
1
 40
1
 40
1
 10
70.803645
 20
271.940943
 30
0.0
 10
78.803625
 20
271.940943
 30
0.0
 10
80.136955
 20
265.407623
 30
0.0
 10
80.136955
 20
255.274313
 30
0.0
  0
LINE
  5
127
100
AcDbEntity
  8
0
 62
7
100
AcDbLine
 10
80.136955
 20
255.274313
 30
0.0
 11
80.136955
 21
219.674400
 31
0.0
  0
LINE
  5
128
100
AcDbEntity
  8
0
 62
7
100
AcDbLine
 10
80.136955
 20
219.674400
 30
0.0
 11
98.003575
 21
219.674400
 31
0.0
  0
LINE
  5
129
100
AcDbEntity
  8
0
 62
7
100
AcDbLine
 10
98.003575
 20
219.674400
 30
0.0
 11
98.003575
 21
255.807653
 31
0.0
  0
SPLINE
  5
12a
100
AcDbEntity
  8
0
 62
7
100
AcDbSpline
 70
8
 71
3
 72
8
 73
4
 74
0
 40
0
 40
0
 40
0
 40
0
 40
1
 40
1
 40
1
 40
1
 10
98.003575
 20
255.807653
 30
0.0
 10
98.003575
 20
277.274263
 30
0.0
 10
92.670255
 20
287.940903
 30
0.0
 10
74.536975
 20
287.940903
 30
0.0
  0
SPLINE
  5
12b
100
AcDbEntity
  8
0
 62
7
100
AcDbSpline
 70
8
 71
3
 72
8
 73
4
 74
0
 40
0
 40
0
 40
0
 40
0
 40
1
 40
1
 40
1
 40
1
 10
74.536975
 20
287.940903
 30
0.0
 10
64.403665
 20
287.940903
 30
0.0
 10
52.137030
 20
281.674253
 30
0.0
 10
52.137030
 20
281.674253
 30
0.0
  0
SPLINE
  5
12c
100
AcDbEntity
  8
0
 62
7
100
AcDbSpline
 70
8
 71
3
 72
8
 73
4
 74
0
 40
0
 40
0
 40
0
 40
0
 40
1
 40
1
 40
1
 40
1
 10
52.137030
 20
281.674253
 30
0.0
 10
48.137040
 20
285.940903
 30
0.0
 10
42.937053
 20
287.940903
 30
0.0
 10
35.470406
 20
287.940903
 30
0.0
  0
SPLINE
  5
12d
100
AcDbEntity
  8
0
 62
7
100
AcDbSpline
 70
8
 71
3
 72
8
 73
4
 74
0
 40
0
 40
0
 40
0
 40
0
 40
1
 40
1
 40
1
 40
1
 10
35.470406
 20
287.940903
 30
0.0
 10
28.937089
 20
287.940903
 30
0.0
 10
19.737113
 20
282.607583
 30
0.0
 10
19.737113
 20
282.607583
 30
0.0
  0
LINE
  5
12e
100
AcDbEntity
  8
0
 62
7
100
AcDbLine
 10
19.737113
 20
282.607583
 30
0.0
 11
19.737113
 21
286.340903
 31
0.0
  0
LINE
  5
12f
100
AcDbEntity
  8
0
 62
7
100
AcDbLine
 10
19.737113
 20
286.340903
 30
0.0
 11
2.003825
 21
286.340903
 31
0.0
  0
LINE
  5
130
100
AcDbEntity
  8
0
 62
7
100
AcDbLine
 10
2.003825
 20
286.340903
 30
0.0
 11
2.003825
 21
219.674400
 31
0.0
  0
LINE
  5
131
100
AcDbEntity
  8
0
 62
7
100
AcDbLine
 10
2.003825
 20
219.674400
 30
0.0
 11
19.870446
 21
219.674400
 31
0.0
  0
SPLINE
  5
132
100
AcDbEntity
  8
0
 62
7
100
AcDbSpline
 70
8
 71
3
 72
8
 73
4
 74
0
 40
0
 40
0
 40
0
 40
0
 40
1
 40
1
 40
1
 40
1
 10
34.726143
 20
188.633100
 30
0.0
 10
28.859491
 20
188.633100
 30
0.0
 10
20.326180
 20
185.033110
 30
0.0
 10
20.326180
 20
185.033110
 30
0.0
  0
LINE
  5
133
100
AcDbEntity
  8
0
 62
7
100
AcDbLine
 10
20.326180
 20
185.033110
 30
0.0
 11
20.326180
 21
213.699700
 31
0.0
  0
LINE
  5
134
100
AcDbEntity
  8
0
 62
7
100
AcDbLine
 10
20.326180
 20
213.699700
 30
0.0
 11
2.459559
 21
213.699700
 31
0.0
  0
LINE
  5
135
100
AcDbEntity
  8
0
 62
7
100
AcDbLine
 10
2.459559
 20
213.699700
 30
0.0
 11
2.459559
 21
120.633270
 31
0.0
  0
SPLINE
  5
136
100
AcDbEntity
  8
0
 62
7
100
AcDbSpline
 70
8
 71
3
 72
8
 73
4
 74
0
 40
0
 40
0
 40
0
 40
0
 40
1
 40
1
 40
1
 40
1
 10
2.459559
 20
120.633270
 30
0.0
 10
2.459559
 20
120.633270
 30
0.0
 10
22.059509
 20
118.766610
 30
0.0
 10
28.459492
 20
118.766610
 30
0.0
  0
SPLINE
  5
137
100
AcDbEntity
  8
0
 62
7
100
AcDbSpline
 70
8
 71
3
 72
8
 73
4
 74
0
 40
0
 40
0
 40
0
 40
0
 40
1
 40
1
 40
1
 40
1
 10
28.459492
 20
118.766610
 30
0.0
 10
51.926099
 20
118.766610
 30
0.0
 10
61.659405
 20
125.966590
 30
0.0
 10
61.659405
 20
154.633180
 30
0.0
  0
SPLINE
  5
138
100
AcDbEntity
  8
0
 62
7
100
AcDbSpline
 70
8
 71
3
 72
8
 73
4
 74
0
 40
0
 40
0
 40
0
 40
0
 40
1
 40
1
 40
1
 40
1
 10
61.659405
 20
154.633180
 30
0.0
 10
61.659405
 20
180.233120
 30
0.0
 10
52.859430
 20
188.633100
 30
0.0
 10
34.726143
 20
188.633100
 30
0.0
  0
LINE
  5
139
100
AcDbEntity
  8
0
 62
7
100
AcDbLine
 10
34.726143
 20
188.633100
 30
0.0
 11
34.726143
 21
188.633100
 31
0.0
  0
SPLINE
  5
13a
100
AcDbEntity
  8
0
 62
7
100
AcDbSpline
 70
8
 71
3
 72
8
 73
4
 74
0
 40
0
 40
0
 40
0
 40
0
 40
1
 40
1
 40
1
 40
1
 10
28.459492
 20
134.766570
 30
0.0
 10
26.459498
 20
134.766570
 30
0.0
 10
20.326180
 20
135.299900
 30
0.0
 10
20.326180
 20
135.299900
 30
0.0
  0
LINE
  5
13b
100
AcDbEntity
  8
0
 62
7
100
AcDbLine
 10
20.326180
 20
135.299900
 30
0.0
 11
20.326180
 21
170.899810
 31
0.0
  0
SPLINE
  5
13c
100
AcDbEntity
  8
0
 62
7
100
AcDbSpline
 70
8
 71
3
 72
8
 73
4
 74
0
 40
0
 40
0
 40
0
 40
0
 40
1
 40
1
 40
1
 40
1
 10
20.326180
 20
170.899810
 30
0.0
 10
20.326180
 20
170.899810
 30
0.0
 10
26.992829
 20
172.633140
 30
0.0
 10
32.326149
 20
172.633140
 30
0.0
  0
SPLINE
  5
13d
100
AcDbEntity
  8
0
 62
7
100
AcDbSpline
 70
8
 71
3
 72
8
 73
4
 74
0
 40
0
 40
0
 40
0
 40
0
 40
1
 40
1
 40
1
 40
1
 10
32.326149
 20
172.633140
 30
0.0
 10
39.259465
 20
172.633140
 30
0.0
 10
43.526121
 20
168.099820
 30
0.0
 10
43.526121
 20
154.633180
 30
0.0
  0
SPLINE
  5
13e
100
AcDbEntity
  8
0
 62
7
100
AcDbSpline
 70
8
 71
3
 72
8
 73
4
 74
0
 40
0
 40
0
 40
0
 40
0
 40
1
 40
1
 40
1
 40
1
 10
43.526121
 20
154.633180
 30
0.0
 10
43.526121
 20
140.233220
 30
0.0
 10
40.726128
 20
134.766570
 30
0.0
 10
28.459492
 20
134.766570
 30
0.0
  0
LINE
  5
13f
100
AcDbEntity
  8
0
 62
7
100
AcDbLine
 10
28.459492
 20
134.766570
 30
0.0
 11
28.459492
 21
134.766570
 31
0.0
  0
LINE
  5
140
100
AcDbEntity
  8
0
 62
7
100
AcDbLine
 10
328.592020
 20
120.366600
 30
0.0
 11
347.791970
 21
120.366600
 31
0.0
  0
LINE
  5
141
100
AcDbEntity
  8
0
 62
7
100
AcDbLine
 10
347.791970
 20
120.366600
 30
0.0
 11
347.791970
 21
142.499880
 31
0.0
  0
LINE
  5
142
100
AcDbEntity
  8
0
 62
7
100
AcDbLine
 10
347.791970
 20
142.499880
 30
0.0
 11
328.592020
 21
142.499880
 31
0.0
  0
LINE
  5
143
100
AcDbEntity
  8
0
 62
7
100
AcDbLine
 10
328.592020
 20
142.499880
 30
0.0
 11
328.592020
 21
120.366600
 31
0.0
  0
LINE
  5
144
100
AcDbEntity
  8
0
 62
7
100
AcDbLine
 10
278.592240
 20
120.366600
 30
0.0
 11
278.592240
 21
145.166540
 31
0.0
  0
LINE
  5
145
100
AcDbEntity
  8
0
 62
7
100
AcDbLine
 10
278.592240
 20
145.166540
 30
0.0
 11
285.925540
 21
146.366540
 31
0.0
  0
LINE
  5
146
100
AcDbEntity
  8
0
 62
7
100
AcDbLine
 10
285.925540
 20
146.366540
 30
0.0
 11
299.392170
 21
120.366600
 31
0.0
  0
LINE
  5
147
100
AcDbEntity
  8
0
 62
7
100
AcDbLine
 10
299.392170
 20
120.366600
 30
0.0
 11
319.525460
 21
120.366600
 31
0.0
  0
LINE
  5
148
100
AcDbEntity
  8
0
 62
7
100
AcDbLine
 10
319.525460
 20
120.366600
 30
0.0
 11
301.258840
 21
155.433180
 31
0.0
  0
LINE
  5
149
100
AcDbEntity
  8
0
 62
7
100
AcDbLine
 10
301.258840
 20
155.433180
 30
0.0
 11
318.592120
 21
187.033100
 31
0.0
  0
LINE
  5
14a
100
AcDbEntity
  8
0
 62
7
100
AcDbLine
 10
318.592120
 20
187.033100
 30
0.0
 11
298.592190
 21
187.033100
 31
0.0
  0
LINE
  5
14b
100
AcDbEntity
  8
0
 62
7
100
AcDbLine
 10
298.592190
 20
187.033100
 30
0.0
 11
285.392220
 21
161.833160
 31
0.0
  0
LINE
  5
14c
100
AcDbEntity
  8
0
 62
7
100
AcDbLine
 10
285.392220
 20
161.833160
 30
0.0
 11
278.592240
 21
160.633170
 31
0.0
  0
LINE
  5
14d
100
AcDbEntity
  8
0
 62
7
100
AcDbLine
 10
278.592240
 20
160.633170
 30
0.0
 11
278.592240
 21
213.699700
 31
0.0
  0
LINE
  5
14e
100
AcDbEntity
  8
0
 62
7
100
AcDbLine
 10
278.592240
 20
213.699700
 30
0.0
 11
260.725610
 21
213.699700
 31
0.0
  0
LINE
  5
14f
100
AcDbEntity
  8
0
 62
7
100
AcDbLine
 10
260.725610
 20
213.699700
 30
0.0
 11
260.725610
 21
120.366600
 31
0.0
  0
LINE
  5
150
100
AcDbEntity
  8
0
 62
7
100
AcDbLine
 10
260.725610
 20
120.366600
 30
0.0
 11
278.592240
 21
120.366600
 31
0.0
  0
SPLINE
  5
151
100
AcDbEntity
  8
0
 62
7
100
AcDbSpline
 70
8
 71
3
 72
8
 73
4
 74
0
 40
0
 40
0
 40
0
 40
0
 40
1
 40
1
 40
1
 40
1
 10
178.402210
 20
146.099470
 30
0.0
 10
178.381510
 20
148.063500
 30
0.0
 10
178.373110
 20
150.029220
 30
0.0
 10
178.341710
 20
151.992050
 30
0.0
  0
SPLINE
  5
152
100
AcDbEntity
  8
0
 62
7
100
AcDbSpline
 70
8
 71
3
 72
8
 73
4
 74
0
 40
0
 40
0
 40
0
 40
0
 40
1
 40
1
 40
1
 40
1
 10
178.341710
 20
151.992050
 30
0.0
 10
177.239110
 20
152.019450
 30
0.0
 10
176.135840
 20
152.041050
 30
0.0
 10
175.033100
 20
152.062350
 30
0.0
  0
SPLINE
  5
153
100
AcDbEntity
  8
0
 62
7
100
AcDbSpline
 70
8
 71
3
 72
8
 73
4
 74
0
 40
0
 40
0
 40
0
 40
0
 40
1
 40
1
 40
1
 40
1
 10
175.033100
 20
152.062350
 30
0.0
 10
173.338870
 20
152.201880
 30
0.0
 10
171.597830
 20
151.902990
 30
0.0
 10
169.943260
 20
152.382660
 30
0.0
  0
SPLINE
  5
154
100
AcDbEntity
  8
0
 62
7
100
AcDbSpline
 70
8
 71
3
 72
8
 73
4
 74
0
 40
0
 40
0
 40
0
 40
0
 40
1
 40
1
 40
1
 40
1
 10
169.943260
 20
152.382660
 30
0.0
 10
168.379170
 20
152.640320
 30
0.0
 10
167.569480
 20
154.175270
 30
0.0
 10
167.136620
 20
155.542820
 30
0.0
  0
SPLINE
  5
155
100
AcDbEntity
  8
0
 62
7
100
AcDbSpline
 70
8
 71
3
 72
8
 73
4
 74
0
 40
0
 40
0
 40
0
 40
0
 40
1
 40
1
 40
1
 40
1
 10
167.136620
 20
155.542820
 30
0.0
 10
166.738460
 20
158.360170
 30
0.0
 10
166.698760
 20
161.232370
 30
0.0
 10
166.433500
 20
164.070160
 30
0.0
  0
SPLINE
  5
156
100
AcDbEntity
  8
0
 62
7
100
AcDbSpline
 70
8
 71
3
 72
8
 73
4
 74
0
 40
0
 40
0
 40
0
 40
0
 40
1
 40
1
 40
1
 40
1
 10
166.433500
 20
164.070160
 30
0.0
 10
164.948200
 20
164.092660
 30
0.0
 10
163.463870
 20
164.086760
 30
0.0
 10
161.978420
 20
164.080160
 30
0.0
  0
SPLINE
  5
157
100
AcDbEntity
  8
0
 62
7
100
AcDbSpline
 70
8
 71
3
 72
8
 73
4
 74
0
 40
0
 40
0
 40
0
 40
0
 40
1
 40
1
 40
1
 40
1
 10
161.978420
 20
164.080160
 30
0.0
 10
162.124180
 20
162.776730
 30
0.0
 10
162.193270
 20
161.319920
 30
0.0
 10
162.193270
 20
159.699300
 30
0.0
  0
LINE
  5
158
100
AcDbEntity
  8
0
 62
7
100
AcDbLine
 10
162.193270
 20
159.699300
 30
0.0
 11
139.126850
 21
159.699300
 31
0.0
  0
SPLINE
  5
159
100
AcDbEntity
  8
0
 62
7
100
AcDbSpline
 70
8
 71
3
 72
8
 73
4
 74
0
 40
0
 40
0
 40
0
 40
0
 40
1
 40
1
 40
1
 40
1
 10
139.126850
 20
159.699300
 30
0.0
 10
139.260180
 20
169.832600
 30
0.0
 10
142.193160
 20
173.966880
 30
0.0
 10
150.726470
 20
173.966880
 30
0.0
  0
SPLINE
  5
15a
100
AcDbEntity
  8
0
 62
7
100
AcDbSpline
 70
8
 71
3
 72
8
 73
4
 74
0
 40
0
 40
0
 40
0
 40
0
 40
1
 40
1
 40
1
 40
1
 10
150.726470
 20
173.966880
 30
0.0
 10
151.822320
 20
173.966880
 30
0.0
 10
152.826660
 20
173.907880
 30
0.0
 10
153.746000
 20
173.781330
 30
0.0
  0
SPLINE
  5
15b
100
AcDbEntity
  8
0
 62
7
100
AcDbSpline
 70
8
 71
3
 72
8
 73
4
 74
0
 40
0
 40
0
 40
0
 40
0
 40
1
 40
1
 40
1
 40
1
 10
153.746000
 20
173.781330
 30
0.0
 10
153.732700
 20
174.489030
 30
0.0
 10
153.716200
 20
175.195630
 30
0.0
 10
153.693300
 20
175.902420
 30
0.0
  0
SPLINE
  5
15c
100
AcDbEntity
  8
0
 62
7
100
AcDbSpline
 70
8
 71
3
 72
8
 73
4
 74
0
 40
0
 40
0
 40
0
 40
0
 40
1
 40
1
 40
1
 40
1
 10
153.693300
 20
175.902420
 30
0.0
 10
153.165170
 20
175.970020
 30
0.0
 10
152.631720
 20
175.977020
 30
0.0
 10
152.101500
 20
176.021560
 30
0.0
  0
SPLINE
  5
15d
100
AcDbEntity
  8
0
 62
7
100
AcDbSpline
 70
8
 71
3
 72
8
 73
4
 74
0
 40
0
 40
0
 40
0
 40
0
 40
1
 40
1
 40
1
 40
1
 10
152.101500
 20
176.021560
 30
0.0
 10
150.576320
 20
175.945360
 30
0.0
 10
149.113080
 20
176.682780
 30
0.0
 10
148.005800
 20
177.677810
 30
0.0
  0
SPLINE
  5
15e
100
AcDbEntity
  8
0
 62
7
100
AcDbSpline
 70
8
 71
3
 72
8
 73
4
 74
0
 40
0
 40
0
 40
0
 40
0
 40
1
 40
1
 40
1
 40
1
 10
148.005800
 20
177.677810
 30
0.0
 10
146.646590
 20
179.489320
 30
0.0
 10
145.338950
 20
181.365540
 30
0.0
 10
144.136660
 20
183.293050
 30
0.0
  0
SPLINE
  5
15f
100
AcDbEntity
  8
0
 62
7
100
AcDbSpline
 70
8
 71
3
 72
8
 73
4
 74
0
 40
0
 40
0
 40
0
 40
0
 40
1
 40
1
 40
1
 40
1
 10
144.136660
 20
183.293050
 30
0.0
 10
143.254230
 20
184.610160
 30
0.0
 10
142.553760
 20
186.257430
 30
0.0
 10
142.761660
 20
187.849690
 30
0.0
  0
SPLINE
  5
160
100
AcDbEntity
  8
0
 62
7
100
AcDbSpline
 70
8
 71
3
 72
8
 73
4
 74
0
 40
0
 40
0
 40
0
 40
0
 40
1
 40
1
 40
1
 40
1
 10
142.761660
 20
187.849690
 30
0.0
 10
128.537070
 20
184.818490
 30
0.0
 10
121.259700
 20
173.014630
 30
0.0
 10
121.259700
 20
152.767660
 30
0.0
  0
SPLINE
  5
161
100
AcDbEntity
  8
0
 62
7
100
AcDbSpline
 70
8
 71
3
 72
8
 73
4
 74
0
 40
0
 40
0
 40
0
 40
0
 40
1
 40
1
 40
1
 40
1
 10
121.259700
 20
152.767660
 30
0.0
 10
121.259700
 20
128.767720
 30
0.0
 10
129.792440
 20
118.767660
 30
0.0
 10
149.925720
 20
118.767660
 30
0.0
  0
SPLINE
  5
162
100
AcDbEntity
  8
0
 62
7
100
AcDbSpline
 70
8
 71
3
 72
8
 73
4
 74
0
 40
0
 40
0
 40
0
 40
0
 40
1
 40
1
 40
1
 40
1
 10
149.925720
 20
118.767660
 30
0.0
 10
162.325690
 20
118.767660
 30
0.0
 10
177.660100
 20
122.500080
 30
0.0
 10
177.660100
 20
122.500080
 30
0.0
  0
LINE
  5
163
100
AcDbEntity
  8
0
 62
7
100
AcDbLine
 10
177.660100
 20
122.500080
 30
0.0
 11
177.392520
 21
135.699300
 31
0.0
  0
SPLINE
  5
164
100
AcDbEntity
  8
0
 62
7
100
AcDbSpline
 70
8
 71
3
 72
8
 73
4
 74
0
 40
0
 40
0
 40
0
 40
0
 40
1
 40
1
 40
1
 40
1
 10
177.392520
 20
135.699300
 30
0.0
 10
177.392520
 20
135.699300
 30
0.0
 10
163.659800
 20
134.500080
 30
0.0
 10
152.726500
 20
134.500080
 30
0.0
  0
SPLINE
  5
165
100
AcDbEntity
  8
0
 62
7
100
AcDbSpline
 70
8
 71
3
 72
8
 73
4
 74
0
 40
0
 40
0
 40
0
 40
0
 40
1
 40
1
 40
1
 40
1
 10
152.726500
 20
134.500080
 30
0.0
 10
143.126520
 20
134.500080
 30
0.0
 10
139.393040
 20
138.099710
 30
0.0
 10
139.259700
 20
146.099690
 30
0.0
  0
LINE
  5
166
100
AcDbEntity
  8
0
 62
7
100
AcDbLine
 10
139.259700
 20
146.099690
 30
0.0
 11
178.402210
 21
146.099470
 31
0.0
  0
SPLINE
  5
167
100
AcDbEntity
  8
0
 62
7
100
AcDbSpline
 70
8
 71
3
 72
8
 73
4
 74
0
 40
0
 40
0
 40
0
 40
0
 40
1
 40
1
 40
1
 40
1
 10
190.087760
 20
129.486190
 30
0.0
 10
190.048960
 20
132.373110
 30
0.0
 10
190.089760
 20
135.268020
 30
0.0
 10
190.074060
 20
138.158060
 30
0.0
  0
SPLINE
  5
168
100
AcDbEntity
  8
0
 62
7
100
AcDbSpline
 70
8
 71
3
 72
8
 73
4
 74
0
 40
0
 40
0
 40
0
 40
0
 40
1
 40
1
 40
1
 40
1
 10
190.074060
 20
138.158060
 30
0.0
 10
189.470290
 20
138.162060
 30
0.0
 10
188.867040
 20
138.166060
 30
0.0
 10
188.263500
 20
138.169760
 30
0.0
  0
SPLINE
  5
169
100
AcDbEntity
  8
0
 62
7
100
AcDbSpline
 70
8
 71
3
 72
8
 73
4
 74
0
 40
0
 40
0
 40
0
 40
0
 40
1
 40
1
 40
1
 40
1
 10
188.263500
 20
138.169760
 30
0.0
 10
188.460450
 20
134.874260
 30
0.0
 10
189.065160
 20
131.973650
 30
0.0
 10
190.087720
 20
129.486170
 30
0.0
  0
LINE
  5
16a
100
AcDbEntity
  8
0
 62
7
100
AcDbLine
 10
190.087720
 20
129.486170
 30
0.0
 11
190.087760
 21
129.486190
 31
0.0
  0
SPLINE
  5
16b
100
AcDbEntity
  8
0
 62
7
100
AcDbSpline
 70
8
 71
3
 72
8
 73
4
 74
0
 40
0
 40
0
 40
0
 40
0
 40
1
 40
1
 40
1
 40
1
 10
200.706900
 20
119.867050
 30
0.0
 10
200.805900
 20
121.612800
 30
0.0
 10
200.916020
 20
123.357830
 30
0.0
 10
201.005740
 20
125.103370
 30
0.0
  0
SPLINE
  5
16c
100
AcDbEntity
  8
0
 62
7
100
AcDbSpline
 70
8
 71
3
 72
8
 73
4
 74
0
 40
0
 40
0
 40
0
 40
0
 40
1
 40
1
 40
1
 40
1
 10
201.005740
 20
125.103370
 30
0.0
 10
200.041090
 20
125.064970
 30
0.0
 10
199.075850
 20
125.026570
 30
0.0
 10
198.111200
 20
124.988140
 30
0.0
  0
SPLINE
  5
16d
100
AcDbEntity
  8
0
 62
7
100
AcDbSpline
 70
8
 71
3
 72
8
 73
4
 74
0
 40
0
 40
0
 40
0
 40
0
 40
1
 40
1
 40
1
 40
1
 10
198.111200
 20
124.988140
 30
0.0
 10
196.276070
 20
125.024140
 30
0.0
 10
194.358410
 20
124.504630
 30
0.0
 10
192.601430
 20
125.245950
 30
0.0
  0
SPLINE
  5
16e
100
AcDbEntity
  8
0
 62
7
100
AcDbSpline
 70
8
 71
3
 72
8
 73
4
 74
0
 40
0
 40
0
 40
0
 40
0
 40
1
 40
1
 40
1
 40
1
 10
192.601430
 20
125.245950
 30
0.0
 10
192.578130
 20
125.252950
 30
0.0
 10
192.556030
 20
125.260350
 30
0.0
 10
192.533030
 20
125.267450
 30
0.0
  0
SPLINE
  5
16f
100
AcDbEntity
  8
0
 62
7
100
AcDbSpline
 70
8
 71
3
 72
8
 73
4
 74
0
 40
0
 40
0
 40
0
 40
0
 40
1
 40
1
 40
1
 40
1
 10
192.533030
 20
125.267450
 30
0.0
 10
194.542340
 20
122.740550
 30
0.0
 10
197.259900
 20
120.926310
 30
0.0
 10
200.706860
 20
119.867060
 30
0.0
  0
LINE
  5
170
100
AcDbEntity
  8
0
 62
7
100
AcDbLine
 10
200.706860
 20
119.867060
 30
0.0
 11
200.706900
 21
119.867050
 31
0.0
  0
SPLINE
  5
171
100
AcDbEntity
  8
0
 62
7
100
AcDbSpline
 70
8
 71
3
 72
8
 73
4
 74
0
 40
0
 40
0
 40
0
 40
0
 40
1
 40
1
 40
1
 40
1
 10
193.111200
 20
184.970560
 30
0.0
 10
195.430720
 20
180.911470
 30
0.0
 10
197.750680
 20
176.851930
 30
0.0
 10
200.070180
 20
172.792830
 30
0.0
  0
SPLINE
  5
172
100
AcDbEntity
  8
0
 62
7
100
AcDbSpline
 70
8
 71
3
 72
8
 73
4
 74
0
 40
0
 40
0
 40
0
 40
0
 40
1
 40
1
 40
1
 40
1
 10
200.070180
 20
172.792830
 30
0.0
 10
205.535690
 20
173.089960
 30
0.0
 10
212.932230
 20
173.433450
 30
0.0
 10
217.925650
 20
173.433450
 30
0.0
  0
SPLINE
  5
173
100
AcDbEntity
  8
0
 62
7
100
AcDbSpline
 70
8
 71
3
 72
8
 73
4
 74
0
 40
0
 40
0
 40
0
 40
0
 40
1
 40
1
 40
1
 40
1
 10
217.925650
 20
173.433450
 30
0.0
 10
223.258980
 20
173.433450
 30
0.0
 10
225.792840
 20
171.965600
 30
0.0
 10
225.792840
 20
166.232280
 30
0.0
  0
LINE
  5
174
100
AcDbEntity
  8
0
 62
7
100
AcDbLine
 10
225.792840
 20
166.232280
 30
0.0
 11
225.792840
 21
162.099470
 31
0.0
  0
LINE
  5
175
100
AcDbEntity
  8
0
 62
7
100
AcDbLine
 10
225.792840
 20
162.099470
 30
0.0
 11
211.525260
 21
161.033060
 31
0.0
  0
SPLINE
  5
176
100
AcDbEntity
  8
0
 62
7
100
AcDbSpline
 70
8
 71
3
 72
8
 73
4
 74
0
 40
0
 40
0
 40
0
 40
0
 40
1
 40
1
 40
1
 40
1
 10
211.525260
 20
161.033060
 30
0.0
 10
209.964630
 20
160.919560
 30
0.0
 10
208.472210
 20
160.769200
 30
0.0
 10
207.050650
 20
160.574080
 30
0.0
  0
SPLINE
  5
177
100
AcDbEntity
  8
0
 62
7
100
AcDbSpline
 70
8
 71
3
 72
8
 73
4
 74
0
 40
0
 40
0
 40
0
 40
0
 40
1
 40
1
 40
1
 40
1
 10
207.050650
 20
160.574080
 30
0.0
 10
209.322100
 20
156.599060
 30
0.0
 10
211.593650
 20
152.625260
 30
0.0
 10
213.865100
 20
148.650250
 30
0.0
  0
LINE
  5
178
100
AcDbEntity
  8
0
 62
7
100
AcDbLine
 10
213.865100
 20
148.650250
 30
0.0
 11
225.792840
 21
149.699080
 31
0.0
  0
LINE
  5
179
100
AcDbEntity
  8
0
 62
7
100
AcDbLine
 10
225.792840
 20
149.699080
 30
0.0
 11
225.792840
 21
135.433450
 31
0.0
  0
SPLINE
  5
17a
100
AcDbEntity
  8
0
 62
7
100
AcDbSpline
 70
8
 71
3
 72
8
 73
4
 74
0
 40
0
 40
0
 40
0
 40
0
 40
1
 40
1
 40
1
 40
1
 10
225.792840
 20
135.433450
 30
0.0
 10
225.792840
 20
135.433450
 30
0.0
 10
224.219790
 20
134.975640
 30
0.0
 10
221.960810
 20
134.484230
 30
0.0
  0
SPLINE
  5
17b
100
AcDbEntity
  8
0
 62
7
100
AcDbSpline
 70
8
 71
3
 72
8
 73
4
 74
0
 40
0
 40
0
 40
0
 40
0
 40
1
 40
1
 40
1
 40
1
 10
221.960810
 20
134.484230
 30
0.0
 10
223.411240
 20
131.946010
 30
0.0
 10
224.859970
 20
129.407210
 30
0.0
 10
226.310420
 20
126.869000
 30
0.0
  0
SPLINE
  5
17c
100
AcDbEntity
  8
0
 62
7
100
AcDbSpline
 70
8
 71
3
 72
8
 73
4
 74
0
 40
0
 40
0
 40
0
 40
0
 40
1
 40
1
 40
1
 40
1
 10
226.310420
 20
126.869000
 30
0.0
 10
226.902910
 20
125.674860
 30
0.0
 10
227.769660
 20
124.580050
 30
0.0
 10
228.263540
 20
123.341660
 30
0.0
  0
SPLINE
  5
17d
100
AcDbEntity
  8
0
 62
7
100
AcDbSpline
 70
8
 71
3
 72
8
 73
4
 74
0
 40
0
 40
0
 40
0
 40
0
 40
1
 40
1
 40
1
 40
1
 10
228.263540
 20
123.341660
 30
0.0
 10
228.391880
 20
123.401260
 30
0.0
 10
228.458850
 20
123.433460
 30
0.0
 10
228.458850
 20
123.433460
 30
0.0
  0
SPLINE
  5
17e
100
AcDbEntity
  8
0
 62
7
100
AcDbSpline
 70
8
 71
3
 72
8
 73
4
 74
0
 40
0
 40
0
 40
0
 40
0
 40
1
 40
1
 40
1
 40
1
 10
228.458850
 20
123.433460
 30
0.0
 10
234.058840
 20
119.700140
 30
0.0
 10
238.591950
 20
118.767450
 30
0.0
 10
247.525260
 20
118.767450
 30
0.0
  0
LINE
  5
17f
100
AcDbEntity
  8
0
 62
7
100
AcDbLine
 10
247.525260
 20
118.767450
 30
0.0
 11
248.058460
 21
132.232290
 31
0.0
  0
SPLINE
  5
180
100
AcDbEntity
  8
0
 62
7
100
AcDbSpline
 70
8
 71
3
 72
8
 73
4
 74
0
 40
0
 40
0
 40
0
 40
0
 40
1
 40
1
 40
1
 40
1
 10
248.058460
 20
132.232290
 30
0.0
 10
244.458480
 20
132.898960
 30
0.0
 10
243.924750
 20
134.499880
 30
0.0
 10
243.658070
 20
138.499870
 30
0.0
  0
LINE
  5
181
100
AcDbEntity
  8
0
 62
7
100
AcDbLine
 10
243.658070
 20
138.499870
 30
0.0
 11
243.658070
 21
166.232290
 31
0.0
  0
SPLINE
  5
182
100
AcDbEntity
  8
0
 62
7
100
AcDbSpline
 70
8
 71
3
 72
8
 73
4
 74
0
 40
0
 40
0
 40
0
 40
0
 40
1
 40
1
 40
1
 40
1
 10
243.658070
 20
166.232290
 30
0.0
 10
243.658070
 20
181.832250
 30
0.0
 10
236.725750
 20
188.632680
 30
0.0
 10
219.392450
 20
188.632680
 30
0.0
  0
SPLINE
  5
183
100
AcDbEntity
  8
0
 62
7
100
AcDbSpline
 70
8
 71
3
 72
8
 73
4
 74
0
 40
0
 40
0
 40
0
 40
0
 40
1
 40
1
 40
1
 40
1
 10
219.392450
 20
188.632680
 30
0.0
 10
208.371980
 20
188.632680
 30
0.0
 10
196.264720
 20
185.767530
 30
0.0
 10
193.111200
 20
184.970570
 30
0.0
  0
LINE
  5
184
100
AcDbEntity
  8
0
 62
7
100
AcDbLine
 10
193.111200
 20
184.970570
 30
0.0
 11
193.111200
 21
184.970560
 31
0.0
  0
SPLINE
  5
185
100
AcDbEntity
  8
0
 62
7
100
AcDbSpline
 70
8
 71
3
 72
8
 73
4
 74
0
 40
0
 40
0
 40
0
 40
0
 40
1
 40
1
 40
1
 40
1
 10
140.669800
 20
287.941273
 30
0.0
 10
127.869830
 20
287.941273
 30
0.0
 10
113.603390
 20
284.074083
 30
0.0
 10
113.603390
 20
284.074083
 30
0.0
  0
LINE
  5
186
100
AcDbEntity
  8
0
 62
7
100
AcDbLine
 10
113.603390
 20
284.074083
 30
0.0
 11
114.136600
 21
271.673693
 31
0.0
  0
SPLINE
  5
187
100
AcDbEntity
  8
0
 62
7
100
AcDbSpline
 70
8
 71
3
 72
8
 73
4
 74
0
 40
0
 40
0
 40
0
 40
0
 40
1
 40
1
 40
1
 40
1
 10
114.136600
 20
271.673693
 30
0.0
 10
114.136600
 20
271.673693
 30
0.0
 10
130.403020
 20
272.740093
 30
0.0
 10
139.202990
 20
272.740093
 30
0.0
  0
SPLINE
  5
188
100
AcDbEntity
  8
0
 62
7
100
AcDbSpline
 70
8
 71
3
 72
8
 73
4
 74
0
 40
0
 40
0
 40
0
 40
0
 40
1
 40
1
 40
1
 40
1
 10
139.202990
 20
272.740093
 30
0.0
 10
144.536310
 20
272.740093
 30
0.0
 10
147.070180
 20
271.274193
 30
0.0
 10
147.070180
 20
265.540873
 30
0.0
  0
LINE
  5
189
100
AcDbEntity
  8
0
 62
7
100
AcDbLine
 10
147.070180
 20
265.540873
 30
0.0
 11
147.070180
 21
261.408063
 31
0.0
  0
LINE
  5
18a
100
AcDbEntity
  8
0
 62
7
100
AcDbLine
 10
147.070180
 20
261.408063
 30
0.0
 11
132.802600
 21
260.341663
 31
0.0
  0
SPLINE
  5
18b
100
AcDbEntity
  8
0
 62
7
100
AcDbSpline
 70
8
 71
3
 72
8
 73
4
 74
0
 40
0
 40
0
 40
0
 40
0
 40
1
 40
1
 40
1
 40
1
 10
132.802600
 20
260.341663
 30
0.0
 10
118.135970
 20
259.274993
 30
0.0
 10
109.470570
 20
255.007903
 30
0.0
 10
109.470570
 20
239.941270
 30
0.0
  0
SPLINE
  5
18c
100
AcDbEntity
  8
0
 62
7
100
AcDbSpline
 70
8
 71
3
 72
8
 73
4
 74
0
 40
0
 40
0
 40
0
 40
0
 40
1
 40
1
 40
1
 40
1
 10
109.470570
 20
239.941270
 30
0.0
 10
109.470570
 20
225.807970
 30
0.0
 10
116.136630
 20
218.074080
 30
0.0
 10
130.136590
 20
218.074080
 30
0.0
  0
SPLINE
  5
18d
100
AcDbEntity
  8
0
 62
7
100
AcDbSpline
 70
8
 71
3
 72
8
 73
4
 74
0
 40
0
 40
0
 40
0
 40
0
 40
1
 40
1
 40
1
 40
1
 10
130.136590
 20
218.074080
 30
0.0
 10
130.734330
 20
218.074080
 30
0.0
 10
131.330780
 20
218.091580
 30
0.0
 10
131.923700
 20
218.122880
 30
0.0
  0
SPLINE
  5
18e
100
AcDbEntity
  8
0
 62
7
100
AcDbSpline
 70
8
 71
3
 72
8
 73
4
 74
0
 40
0
 40
0
 40
0
 40
0
 40
1
 40
1
 40
1
 40
1
 10
131.923700
 20
218.122880
 30
0.0
 10
132.711320
 20
218.400960
 30
0.0
 10
133.579570
 20
218.463270
 30
0.0
 10
134.419800
 20
218.337720
 30
0.0
  0
SPLINE
  5
18f
100
AcDbEntity
  8
0
 62
7
100
AcDbSpline
 70
8
 71
3
 72
8
 73
4
 74
0
 40
0
 40
0
 40
0
 40
0
 40
1
 40
1
 40
1
 40
1
 10
134.419800
 20
218.337720
 30
0.0
 10
136.501910
 20
218.585600
 30
0.0
 10
138.504540
 20
218.987460
 30
0.0
 10
140.335820
 20
219.449050
 30
0.0
  0
SPLINE
  5
190
100
AcDbEntity
  8
0
 62
7
100
AcDbSpline
 70
8
 71
3
 72
8
 73
4
 74
0
 40
0
 40
0
 40
0
 40
0
 40
1
 40
1
 40
1
 40
1
 10
140.335820
 20
219.449050
 30
0.0
 10
140.429420
 20
219.506950
 30
0.0
 10
140.521830
 20
219.563280
 30
0.0
 10
140.615110
 20
219.618970
 30
0.0
  0
SPLINE
  5
191
100
AcDbEntity
  8
0
 62
7
100
AcDbSpline
 70
8
 71
3
 72
8
 73
4
 74
0
 40
0
 40
0
 40
0
 40
0
 40
1
 40
1
 40
1
 40
1
 10
140.615110
 20
219.618970
 30
0.0
 10
144.392330
 20
222.195310
 30
0.0
 10
148.512150
 20
224.277080
 30
0.0
 10
152.027210
 20
227.228340
 30
0.0
  0
SPLINE
  5
192
100
AcDbEntity
  8
0
 62
7
100
AcDbSpline
 70
8
 71
3
 72
8
 73
4
 74
0
 40
0
 40
0
 40
0
 40
0
 40
1
 40
1
 40
1
 40
1
 10
152.027210
 20
227.228340
 30
0.0
 10
152.188320
 20
227.759640
 30
0.0
 10
152.009310
 20
228.446440
 30
0.0
 10
152.111210
 20
229.034990
 30
0.0
  0
SPLINE
  5
193
100
AcDbEntity
  8
0
 62
7
100
AcDbSpline
 70
8
 71
3
 72
8
 73
4
 74
0
 40
0
 40
0
 40
0
 40
0
 40
1
 40
1
 40
1
 40
1
 10
152.111210
 20
229.034990
 30
0.0
 10
151.963980
 20
232.591310
 30
0.0
 10
154.998050
 20
235.865930
 30
0.0
 10
158.535040
 20
236.070140
 30
0.0
  0
SPLINE
  5
194
100
AcDbEntity
  8
0
 62
7
100
AcDbSpline
 70
8
 71
3
 72
8
 73
4
 74
0
 40
0
 40
0
 40
0
 40
0
 40
1
 40
1
 40
1
 40
1
 10
158.535040
 20
236.070140
 30
0.0
 10
158.690030
 20
236.079140
 30
0.0
 10
158.843350
 20
236.080140
 30
0.0
 10
158.995970
 20
236.074140
 30
0.0
  0
SPLINE
  5
195
100
AcDbEntity
  8
0
 62
7
100
AcDbSpline
 70
8
 71
3
 72
8
 73
4
 74
0
 40
0
 40
0
 40
0
 40
0
 40
1
 40
1
 40
1
 40
1
 10
158.995970
 20
236.074140
 30
0.0
 10
161.285290
 20
235.988340
 30
0.0
 10
163.284570
 20
234.296580
 30
0.0
 10
164.245970
 20
232.279220
 30
0.0
  0
SPLINE
  5
196
100
AcDbEntity
  8
0
 62
7
100
AcDbSpline
 70
8
 71
3
 72
8
 73
4
 74
0
 40
0
 40
0
 40
0
 40
0
 40
1
 40
1
 40
1
 40
1
 10
164.245970
 20
232.279220
 30
0.0
 10
164.961250
 20
230.342810
 30
0.0
 10
166.027330
 20
228.563460
 30
0.0
 10
166.997930
 20
226.744060
 30
0.0
  0
SPLINE
  5
197
100
AcDbEntity
  8
0
 62
7
100
AcDbSpline
 70
8
 71
3
 72
8
 73
4
 74
0
 40
0
 40
0
 40
0
 40
0
 40
1
 40
1
 40
1
 40
1
 10
166.997930
 20
226.744060
 30
0.0
 10
167.656100
 20
225.561570
 30
0.0
 10
168.327970
 20
224.386760
 30
0.0
 10
169.007680
 20
223.216720
 30
0.0
  0
LINE
  5
198
100
AcDbEntity
  8
0
 62
7
100
AcDbLine
 10
169.007680
 20
223.216720
 30
0.0
 11
169.337770
 21
231.540930
 31
0.0
  0
SPLINE
  5
199
100
AcDbEntity
  8
0
 62
7
100
AcDbSpline
 70
8
 71
3
 72
8
 73
4
 74
0
 40
0
 40
0
 40
0
 40
0
 40
1
 40
1
 40
1
 40
1
 10
169.337770
 20
231.540930
 30
0.0
 10
165.737780
 20
232.207600
 30
0.0
 10
165.204050
 20
233.808520
 30
0.0
 10
164.937380
 20
237.808510
 30
0.0
  0
LINE
  5
19a
100
AcDbEntity
  8
0
 62
7
100
AcDbLine
 10
164.937380
 20
237.808510
 30
0.0
 11
164.937380
 21
265.540933
 31
0.0
  0
SPLINE
  5
19b
100
AcDbEntity
  8
0
 62
7
100
AcDbSpline
 70
8
 71
3
 72
8
 73
4
 74
0
 40
0
 40
0
 40
0
 40
0
 40
1
 40
1
 40
1
 40
1
 10
164.937380
 20
265.540933
 30
0.0
 10
164.937380
 20
281.140893
 30
0.0
 10
158.003090
 20
287.941323
 30
0.0
 10
140.669800
 20
287.941333
 30
0.0
  0
LINE
  5
19c
100
AcDbEntity
  8
0
 62
7
100
AcDbLine
 10
140.669800
 20
287.941333
 30
0.0
 11
140.669800
 21
287.941273
 31
0.0
  0
LINE
  5
19d
100
AcDbEntity
  8
0
 62
7
100
AcDbLine
 10
147.070180
 20
249.007670
 30
0.0
 11
147.070180
 21
234.740090
 31
0.0
  0
SPLINE
  5
19e
100
AcDbEntity
  8
0
 62
7
100
AcDbSpline
 70
8
 71
3
 72
8
 73
4
 74
0
 40
0
 40
0
 40
0
 40
0
 40
1
 40
1
 40
1
 40
1
 10
147.070180
 20
234.740090
 30
0.0
 10
147.070180
 20
234.740090
 30
0.0
 10
139.737100
 20
232.607280
 30
0.0
 10
134.003780
 20
232.607280
 30
0.0
  0
SPLINE
  5
19f
100
AcDbEntity
  8
0
 62
7
100
AcDbSpline
 70
8
 71
3
 72
8
 73
4
 74
0
 40
0
 40
0
 40
0
 40
0
 40
1
 40
1
 40
1
 40
1
 10
134.003780
 20
232.607280
 30
0.0
 10
129.203800
 20
232.607280
 30
0.0
 10
127.470580
 20
235.807820
 30
0.0
 10
127.470580
 20
240.474470
 30
0.0
  0
SPLINE
  5
1a0
100
AcDbEntity
  8
0
 62
7
100
AcDbSpline
 70
8
 71
3
 72
8
 73
4
 74
0
 40
0
 40
0
 40
0
 40
0
 40
1
 40
1
 40
1
 40
1
 10
127.470580
 20
240.474470
 30
0.0
 10
127.470580
 20
245.274460
 30
0.0
 10
130.270730
 20
247.541270
 30
0.0
 10
134.937380
 20
247.941270
 30
0.0
  0
LINE
  5
1a1
100
AcDbEntity
  8
0
 62
7
100
AcDbLine
 10
134.937380
 20
247.941270
 30
0.0
 11
147.070180
 21
249.007670
 31
0.0
  0
SPLINE
  5
1a2
100
AcDbEntity
  8
0
 62
7
100
AcDbSpline
 70
8
 71
3
 72
8
 73
4
 74
0
 40
0
 40
0
 40
0
 40
0
 40
1
 40
1
 40
1
 40
1
 10
114.058460
 20
188.632670
 30
0.0
 10
103.925170
 20
186.632670
 30
0.0
 10
92.726435
 20
179.966660
 30
0.0
 10
92.726435
 20
179.966660
 30
0.0
  0
LINE
  5
1a3
100
AcDbEntity
  8
0
 62
7
100
AcDbLine
 10
92.726435
 20
179.966660
 30
0.0
 11
92.726435
 21
187.033060
 31
0.0
  0
LINE
  5
1a4
100
AcDbEntity
  8
0
 62
7
100
AcDbLine
 10
92.726435
 20
187.033060
 30
0.0
 11
74.992065
 21
187.033060
 31
0.0
  0
LINE
  5
1a5
100
AcDbEntity
  8
0
 62
7
100
AcDbLine
 10
74.992065
 20
187.033060
 30
0.0
 11
74.992065
 21
126.374860
 31
0.0
  0
SPLINE
  5
1a6
100
AcDbEntity
  8
0
 62
7
100
AcDbSpline
 70
8
 71
3
 72
8
 73
4
 74
0
 40
0
 40
0
 40
0
 40
0
 40
1
 40
1
 40
1
 40
1
 10
74.992065
 20
126.374860
 30
0.0
 10
76.943205
 20
126.579830
 30
0.0
 10
78.903935
 20
126.699110
 30
0.0
 10
80.865105
 20
126.730330
 30
0.0
  0
SPLINE
  5
1a7
100
AcDbEntity
  8
0
 62
7
100
AcDbSpline
 70
8
 71
3
 72
8
 73
4
 74
0
 40
0
 40
0
 40
0
 40
0
 40
1
 40
1
 40
1
 40
1
 10
80.865105
 20
126.730330
 30
0.0
 10
84.880675
 20
126.795930
 30
0.0
 10
88.899745
 20
126.491920
 30
0.0
 10
92.859245
 20
125.831890
 30
0.0
  0
LINE
  5
1a8
100
AcDbEntity
  8
0
 62
7
100
AcDbLine
 10
92.859245
 20
125.831890
 30
0.0
 11
92.859245
 21
165.033060
 31
0.0
  0
SPLINE
  5
1a9
100
AcDbEntity
  8
0
 62
7
100
AcDbSpline
 70
8
 71
3
 72
8
 73
4
 74
0
 40
0
 40
0
 40
0
 40
0
 40
1
 40
1
 40
1
 40
1
 10
92.859245
 20
165.033060
 30
0.0
 10
92.859245
 20
165.033060
 30
0.0
 10
102.325170
 20
168.366010
 30
0.0
 10
114.058460
 20
170.632670
 30
0.0
  0
LINE
  5
1aa
100
AcDbEntity
  8
0
 62
7
100
AcDbLine
 10
114.058460
 20
170.632670
 30
0.0
 11
114.058460
 21
188.632670
 31
0.0
  0
SPLINE
  5
1ab
100
AcDbEntity
  8
0
 62
7
100
AcDbSpline
 70
8
 71
3
 72
8
 73
4
 74
0
 40
0
 40
0
 40
0
 40
0
 40
1
 40
1
 40
1
 40
1
 10
28.383261
 20
96.556060
 30
0.0
 10
8.516645
 20
96.556060
 30
0.0
 10
0.250000
 20
85.889420
 30
0.0
 10
0.250000
 20
62.289480
 30
0.0
  0
SPLINE
  5
1ac
100
AcDbEntity
  8
0
 62
7
100
AcDbSpline
 70
8
 71
3
 72
8
 73
4
 74
0
 40
0
 40
0
 40
0
 40
0
 40
1
 40
1
 40
1
 40
1
 10
0.250000
 20
62.289480
 30
0.0
 10
0.250000
 20
37.222870
 30
0.0
 10
8.116646
 20
26.689570
 30
0.0
 10
27.983262
 20
26.689570
 30
0.0
  0
SPLINE
  5
1ad
100
AcDbEntity
  8
0
 62
7
100
AcDbSpline
 70
8
 71
3
 72
8
 73
4
 74
0
 40
0
 40
0
 40
0
 40
0
 40
1
 40
1
 40
1
 40
1
 10
27.983262
 20
26.689570
 30
0.0
 10
35.449910
 20
26.689570
 30
0.0
 10
49.716540
 20
29.489560
 30
0.0
 10
49.716540
 20
29.489560
 30
0.0
  0
LINE
  5
1ae
100
AcDbEntity
  8
0
 62
7
100
AcDbLine
 10
49.716540
 20
29.489560
 30
0.0
 11
49.183208
 21
43.756190
 31
0.0
  0
SPLINE
  5
1af
100
AcDbEntity
  8
0
 62
7
100
AcDbSpline
 70
8
 71
3
 72
8
 73
4
 74
0
 40
0
 40
0
 40
0
 40
0
 40
1
 40
1
 40
1
 40
1
 10
49.183208
 20
43.756190
 30
0.0
 10
49.183208
 20
43.756190
 30
0.0
 10
38.783235
 20
42.689530
 30
0.0
 10
33.716581
 20
42.689530
 30
0.0
  0
SPLINE
  5
1b0
100
AcDbEntity
  8
0
 62
7
100
AcDbSpline
 70
8
 71
3
 72
8
 73
4
 74
0
 40
0
 40
0
 40
0
 40
0
 40
1
 40
1
 40
1
 40
1
 10
33.716581
 20
42.689530
 30
0.0
 10
20.916614
 20
42.689530
 30
0.0
 10
18.383287
 20
47.356180
 30
0.0
 10
18.383287
 20
62.289480
 30
0.0
  0
SPLINE
  5
1b1
100
AcDbEntity
  8
0
 62
7
100
AcDbSpline
 70
8
 71
3
 72
8
 73
4
 74
0
 40
0
 40
0
 40
0
 40
0
 40
1
 40
1
 40
1
 40
1
 10
18.383287
 20
62.289480
 30
0.0
 10
18.383287
 20
75.622780
 30
0.0
 10
20.783281
 20
80.556100
 30
0.0
 10
33.583248
 20
80.556100
 30
0.0
  0
SPLINE
  5
1b2
100
AcDbEntity
  8
0
 62
7
100
AcDbSpline
 70
8
 71
3
 72
8
 73
4
 74
0
 40
0
 40
0
 40
0
 40
0
 40
1
 40
1
 40
1
 40
1
 10
33.583248
 20
80.556100
 30
0.0
 10
38.649902
 20
80.556100
 30
0.0
 10
49.183208
 20
79.489430
 30
0.0
 10
49.183208
 20
79.489430
 30
0.0
  0
LINE
  5
1b3
100
AcDbEntity
  8
0
 62
7
100
AcDbLine
 10
49.183208
 20
79.489430
 30
0.0
 11
49.716540
 21
93.622730
 31
0.0
  0
SPLINE
  5
1b4
100
AcDbEntity
  8
0
 62
7
100
AcDbSpline
 70
8
 71
3
 72
8
 73
4
 74
0
 40
0
 40
0
 40
0
 40
0
 40
1
 40
1
 40
1
 40
1
 10
49.716540
 20
93.622730
 30
0.0
 10
49.716540
 20
93.622730
 30
0.0
 10
36.116575
 20
96.556060
 30
0.0
 10
28.383261
 20
96.556060
 30
0.0
  0
LINE
  5
1b5
100
AcDbEntity
  8
0
 62
7
100
AcDbLine
 10
28.383261
 20
96.556060
 30
0.0
 11
28.383261
 21
96.556060
 31
0.0
  0
LINE
  5
1b6
100
AcDbEntity
  8
0
 62
7
100
AcDbLine
 10
364.382320
 20
28.289560
 30
0.0
 11
383.582270
 21
28.289560
 31
0.0
  0
LINE
  5
1b7
100
AcDbEntity
  8
0
 62
7
100
AcDbLine
 10
383.582270
 20
28.289560
 30
0.0
 11
383.582270
 21
50.422840
 31
0.0
  0
LINE
  5
1b8
100
AcDbEntity
  8
0
 62
7
100
AcDbLine
 10
383.582270
 20
50.422840
 30
0.0
 11
364.382320
 21
50.422840
 31
0.0
  0
LINE
  5
1b9
100
AcDbEntity
  8
0
 62
7
100
AcDbLine
 10
364.382320
 20
50.422840
 30
0.0
 11
364.382320
 21
28.289560
 31
0.0
  0
SPLINE
  5
1ba
100
AcDbEntity
  8
0
 62
7
100
AcDbSpline
 70
8
 71
3
 72
8
 73
4
 74
0
 40
0
 40
0
 40
0
 40
0
 40
1
 40
1
 40
1
 40
1
 10
325.315700
 20
42.422860
 30
0.0
 10
315.715720
 20
42.422860
 30
0.0
 10
311.982400
 20
46.022850
 30
0.0
 10
311.849070
 20
54.022830
 30
0.0
  0
LINE
  5
1bb
100
AcDbEntity
  8
0
 62
7
100
AcDbLine
 10
311.849070
 20
54.022830
 30
0.0
 11
351.048970
 21
54.022830
 31
0.0
  0
LINE
  5
1bc
100
AcDbEntity
  8
0
 62
7
100
AcDbLine
 10
351.048970
 20
54.022830
 30
0.0
 11
352.382300
 21
66.422800
 31
0.0
  0
SPLINE
  5
1bd
100
AcDbEntity
  8
0
 62
7
100
AcDbSpline
 70
8
 71
3
 72
8
 73
4
 74
0
 40
0
 40
0
 40
0
 40
0
 40
1
 40
1
 40
1
 40
1
 10
352.382300
 20
66.422800
 30
0.0
 10
352.382300
 20
86.556080
 30
0.0
 10
342.915660
 20
96.556060
 30
0.0
 10
323.315710
 20
96.556060
 30
0.0
  0
SPLINE
  5
1be
100
AcDbEntity
  8
0
 62
7
100
AcDbSpline
 70
8
 71
3
 72
8
 73
4
 74
0
 40
0
 40
0
 40
0
 40
0
 40
1
 40
1
 40
1
 40
1
 10
323.315710
 20
96.556060
 30
0.0
 10
303.849090
 20
96.556060
 30
0.0
 10
293.849110
 20
84.422750
 30
0.0
 10
293.849110
 20
60.689480
 30
0.0
  0
SPLINE
  5
1bf
100
AcDbEntity
  8
0
 62
7
100
AcDbSpline
 70
8
 71
3
 72
8
 73
4
 74
0
 40
0
 40
0
 40
0
 40
0
 40
1
 40
1
 40
1
 40
1
 10
293.849110
 20
60.689480
 30
0.0
 10
293.849110
 20
36.689540
 30
0.0
 10
302.382430
 20
26.689570
 30
0.0
 10
322.515710
 20
26.689570
 30
0.0
  0
SPLINE
  5
1c0
100
AcDbEntity
  8
0
 62
7
100
AcDbSpline
 70
8
 71
3
 72
8
 73
4
 74
0
 40
0
 40
0
 40
0
 40
0
 40
1
 40
1
 40
1
 40
1
 10
322.515710
 20
26.689570
 30
0.0
 10
334.915680
 20
26.689570
 30
0.0
 10
350.248970
 20
30.422890
 30
0.0
 10
350.248970
 20
30.422890
 30
0.0
  0
LINE
  5
1c1
100
AcDbEntity
  8
0
 62
7
100
AcDbLine
 10
350.248970
 20
30.422890
 30
0.0
 11
349.982300
 21
43.622860
 31
0.0
  0
SPLINE
  5
1c2
100
AcDbEntity
  8
0
 62
7
100
AcDbSpline
 70
8
 71
3
 72
8
 73
4
 74
0
 40
0
 40
0
 40
0
 40
0
 40
1
 40
1
 40
1
 40
1
 10
349.982300
 20
43.622860
 30
0.0
 10
349.982300
 20
43.622860
 30
0.0
 10
336.249010
 20
42.422860
 30
0.0
 10
325.315700
 20
42.422860
 30
0.0
  0
LINE
  5
1c3
100
AcDbEntity
  8
0
 62
7
100
AcDbLine
 10
325.315700
 20
42.422860
 30
0.0
 11
325.315700
 21
42.422860
 31
0.0
  0
SPLINE
  5
1c4
100
AcDbEntity
  8
0
 62
7
100
AcDbSpline
 70
8
 71
3
 72
8
 73
4
 74
0
 40
0
 40
0
 40
0
 40
0
 40
1
 40
1
 40
1
 40
1
 10
311.715740
 20
67.622800
 30
0.0
 10
311.849070
 20
77.756100
 30
0.0
 10
314.782390
 20
81.889430
 30
0.0
 10
323.315710
 20
81.889430
 30
0.0
  0
SPLINE
  5
1c5
100
AcDbEntity
  8
0
 62
7
100
AcDbSpline
 70
8
 71
3
 72
8
 73
4
 74
0
 40
0
 40
0
 40
0
 40
0
 40
1
 40
1
 40
1
 40
1
 10
323.315710
 20
81.889430
 30
0.0
 10
331.715680
 20
81.889430
 30
0.0
 10
334.782340
 20
78.422770
 30
0.0
 10
334.782340
 20
67.622800
 30
0.0
  0
LINE
  5
1c6
100
AcDbEntity
  8
0
 62
7
100
AcDbLine
 10
334.782340
 20
67.622800
 30
0.0
 11
311.715740
 21
67.622800
 31
0.0
  0
LINE
  5
1c7
100
AcDbEntity
  8
0
 62
7
100
AcDbLine
 10
285.582440
 20
79.756100
 30
0.0
 11
285.582440
 21
94.956060
 31
0.0
  0
LINE
  5
1c8
100
AcDbEntity
  8
0
 62
7
100
AcDbLine
 10
285.582440
 20
94.956060
 30
0.0
 11
269.182500
 21
94.956060
 31
0.0
  0
LINE
  5
1c9
100
AcDbEntity
  8
0
 62
7
100
AcDbLine
 10
269.182500
 20
94.956060
 30
0.0
 11
269.182500
 21
113.489350
 31
0.0
  0
LINE
  5
1ca
100
AcDbEntity
  8
0
 62
7
100
AcDbLine
 10
269.182500
 20
113.489350
 30
0.0
 11
251.315870
 21
113.489350
 31
0.0
  0
LINE
  5
1cb
100
AcDbEntity
  8
0
 62
7
100
AcDbLine
 10
251.315870
 20
113.489350
 30
0.0
 11
251.315870
 21
94.956060
 31
0.0
  0
LINE
  5
1cc
100
AcDbEntity
  8
0
 62
7
100
AcDbLine
 10
251.315870
 20
94.956060
 30
0.0
 11
243.449230
 21
94.956060
 31
0.0
  0
LINE
  5
1cd
100
AcDbEntity
  8
0
 62
7
100
AcDbLine
 10
243.449230
 20
94.956060
 30
0.0
 11
243.449230
 21
79.756100
 31
0.0
  0
LINE
  5
1ce
100
AcDbEntity
  8
0
 62
7
100
AcDbLine
 10
243.449230
 20
79.756100
 30
0.0
 11
251.315870
 21
79.756100
 31
0.0
  0
LINE
  5
1cf
100
AcDbEntity
  8
0
 62
7
100
AcDbLine
 10
251.315870
 20
79.756100
 30
0.0
 11
251.315870
 21
52.022840
 31
0.0
  0
SPLINE
  5
1d0
100
AcDbEntity
  8
0
 62
7
100
AcDbSpline
 70
8
 71
3
 72
8
 73
4
 74
0
 40
0
 40
0
 40
0
 40
0
 40
1
 40
1
 40
1
 40
1
 10
251.315870
 20
52.022840
 30
0.0
 10
251.315870
 20
32.822880
 30
0.0
 10
255.982520
 20
26.689570
 30
0.0
 10
272.115810
 20
26.689570
 30
0.0
  0
SPLINE
  5
1d1
100
AcDbEntity
  8
0
 62
7
100
AcDbSpline
 70
8
 71
3
 72
8
 73
4
 74
0
 40
0
 40
0
 40
0
 40
0
 40
1
 40
1
 40
1
 40
1
 10
272.115810
 20
26.689570
 30
0.0
 10
276.782470
 20
26.689570
 30
0.0
 10
285.715780
 20
28.689560
 30
0.0
 10
285.715780
 20
28.689560
 30
0.0
  0
LINE
  5
1d2
100
AcDbEntity
  8
0
 62
7
100
AcDbLine
 10
285.715780
 20
28.689560
 30
0.0
 11
284.915780
 21
42.956190
 31
0.0
  0
SPLINE
  5
1d3
100
AcDbEntity
  8
0
 62
7
100
AcDbSpline
 70
8
 71
3
 72
8
 73
4
 74
0
 40
0
 40
0
 40
0
 40
0
 40
1
 40
1
 40
1
 40
1
 10
284.915780
 20
42.956190
 30
0.0
 10
284.915780
 20
42.956190
 30
0.0
 10
278.515800
 20
42.689530
 30
0.0
 10
274.782470
 20
42.689530
 30
0.0
  0
SPLINE
  5
1d4
100
AcDbEntity
  8
0
 62
7
100
AcDbSpline
 70
8
 71
3
 72
8
 73
4
 74
0
 40
0
 40
0
 40
0
 40
0
 40
1
 40
1
 40
1
 40
1
 10
274.782470
 20
42.689530
 30
0.0
 10
269.182490
 20
42.689530
 30
0.0
 10
269.182490
 20
45.756180
 30
0.0
 10
269.182490
 20
52.422830
 30
0.0
  0
LINE
  5
1d5
100
AcDbEntity
  8
0
 62
7
100
AcDbLine
 10
269.182490
 20
52.422830
 30
0.0
 11
269.182490
 21
79.756100
 31
0.0
  0
LINE
  5
1d6
100
AcDbEntity
  8
0
 62
7
100
AcDbLine
 10
269.182490
 20
79.756100
 30
0.0
 11
285.582440
 21
79.756100
 31
0.0
  0
SPLINE
  5
1d7
100
AcDbEntity
  8
0
 62
7
100
AcDbSpline
 70
8
 71
3
 72
8
 73
4
 74
0
 40
0
 40
0
 40
0
 40
0
 40
1
 40
1
 40
1
 40
1
 10
231.582620
 20
74.156110
 30
0.0
 10
231.582620
 20
89.756070
 30
0.0
 10
224.649310
 20
96.556060
 30
0.0
 10
207.316030
 20
96.556060
 30
0.0
  0
SPLINE
  5
1d8
100
AcDbEntity
  8
0
 62
7
100
AcDbSpline
 70
8
 71
3
 72
8
 73
4
 74
0
 40
0
 40
0
 40
0
 40
0
 40
1
 40
1
 40
1
 40
1
 10
207.316030
 20
96.556060
 30
0.0
 10
194.516050
 20
96.556060
 30
0.0
 10
180.249430
 20
92.689400
 30
0.0
 10
180.249430
 20
92.689400
 30
0.0
  0
LINE
  5
1d9
100
AcDbEntity
  8
0
 62
7
100
AcDbLine
 10
180.249430
 20
92.689400
 30
0.0
 11
180.782750
 21
80.289430
 31
0.0
  0
SPLINE
  5
1da
100
AcDbEntity
  8
0
 62
7
100
AcDbSpline
 70
8
 71
3
 72
8
 73
4
 74
0
 40
0
 40
0
 40
0
 40
0
 40
1
 40
1
 40
1
 40
1
 10
180.782750
 20
80.289430
 30
0.0
 10
180.782750
 20
80.289430
 30
0.0
 10
197.049390
 20
81.356090
 30
0.0
 10
205.849370
 20
81.356090
 30
0.0
  0
SPLINE
  5
1db
100
AcDbEntity
  8
0
 62
7
100
AcDbSpline
 70
8
 71
3
 72
8
 73
4
 74
0
 40
0
 40
0
 40
0
 40
0
 40
1
 40
1
 40
1
 40
1
 10
205.849370
 20
81.356090
 30
0.0
 10
211.182680
 20
81.356090
 30
0.0
 10
213.716000
 20
79.889430
 30
0.0
 10
213.716000
 20
74.156110
 30
0.0
  0
LINE
  5
1dc
100
AcDbEntity
  8
0
 62
7
100
AcDbLine
 10
213.716000
 20
74.156110
 30
0.0
 11
213.716000
 21
70.022790
 31
0.0
  0
LINE
  5
1dd
100
AcDbEntity
  8
0
 62
7
100
AcDbLine
 10
213.716000
 20
70.022790
 30
0.0
 11
199.449380
 21
68.956130
 31
0.0
  0
SPLINE
  5
1de
100
AcDbEntity
  8
0
 62
7
100
AcDbSpline
 70
8
 71
3
 72
8
 73
4
 74
0
 40
0
 40
0
 40
0
 40
0
 40
1
 40
1
 40
1
 40
1
 10
199.449380
 20
68.956130
 30
0.0
 10
184.782750
 20
67.889460
 30
0.0
 10
176.116100
 20
63.622810
 30
0.0
 10
176.116100
 20
48.556180
 30
0.0
  0
SPLINE
  5
1df
100
AcDbEntity
  8
0
 62
7
100
AcDbSpline
 70
8
 71
3
 72
8
 73
4
 74
0
 40
0
 40
0
 40
0
 40
0
 40
1
 40
1
 40
1
 40
1
 10
176.116100
 20
48.556180
 30
0.0
 10
176.116100
 20
34.422880
 30
0.0
 10
182.782750
 20
26.689570
 30
0.0
 10
196.782710
 20
26.689570
 30
0.0
  0
SPLINE
  5
1e0
100
AcDbEntity
  8
0
 62
7
100
AcDbSpline
 70
8
 71
3
 72
8
 73
4
 74
0
 40
0
 40
0
 40
0
 40
0
 40
1
 40
1
 40
1
 40
1
 10
196.782710
 20
26.689570
 30
0.0
 10
206.782690
 20
26.689570
 30
0.0
 10
216.382660
 20
31.356220
 30
0.0
 10
216.382660
 20
31.356220
 30
0.0
  0
SPLINE
  5
1e1
100
AcDbEntity
  8
0
 62
7
100
AcDbSpline
 70
8
 71
3
 72
8
 73
4
 74
0
 40
0
 40
0
 40
0
 40
0
 40
1
 40
1
 40
1
 40
1
 10
216.382660
 20
31.356220
 30
0.0
 10
221.982650
 20
27.622900
 30
0.0
 10
226.515970
 20
26.689570
 30
0.0
 10
235.449280
 20
26.689570
 30
0.0
  0
LINE
  5
1e2
100
AcDbEntity
  8
0
 62
7
100
AcDbLine
 10
235.449280
 20
26.689570
 30
0.0
 11
235.982610
 21
40.156200
 31
0.0
  0
SPLINE
  5
1e3
100
AcDbEntity
  8
0
 62
7
100
AcDbSpline
 70
8
 71
3
 72
8
 73
4
 74
0
 40
0
 40
0
 40
0
 40
0
 40
1
 40
1
 40
1
 40
1
 10
235.982610
 20
40.156200
 30
0.0
 10
232.382620
 20
40.822860
 30
0.0
 10
231.849290
 20
42.422860
 30
0.0
 10
231.582620
 20
46.422850
 30
0.0
  0
LINE
  5
1e4
100
AcDbEntity
  8
0
 62
7
100
AcDbLine
 10
231.582620
 20
46.422850
 30
0.0
 11
231.582620
 21
74.156110
 31
0.0
  0
LINE
  5
1e5
100
AcDbEntity
  8
0
 62
7
100
AcDbLine
 10
213.716000
 20
57.622820
 30
0.0
 11
213.716000
 21
43.356190
 31
0.0
  0
SPLINE
  5
1e6
100
AcDbEntity
  8
0
 62
7
100
AcDbSpline
 70
8
 71
3
 72
8
 73
4
 74
0
 40
0
 40
0
 40
0
 40
0
 40
1
 40
1
 40
1
 40
1
 10
213.716000
 20
43.356190
 30
0.0
 10
213.716000
 20
43.356190
 30
0.0
 10
206.382690
 20
41.222860
 30
0.0
 10
200.649380
 20
41.222860
 30
0.0
  0
SPLINE
  5
1e7
100
AcDbEntity
  8
0
 62
7
100
AcDbSpline
 70
8
 71
3
 72
8
 73
4
 74
0
 40
0
 40
0
 40
0
 40
0
 40
1
 40
1
 40
1
 40
1
 10
200.649380
 20
41.222860
 30
0.0
 10
195.849380
 20
41.222860
 30
0.0
 10
194.116060
 20
44.422850
 30
0.0
 10
194.116060
 20
49.089510
 30
0.0
  0
SPLINE
  5
1e8
100
AcDbEntity
  8
0
 62
7
100
AcDbSpline
 70
8
 71
3
 72
8
 73
4
 74
0
 40
0
 40
0
 40
0
 40
0
 40
1
 40
1
 40
1
 40
1
 10
194.116060
 20
49.089510
 30
0.0
 10
194.116060
 20
53.889500
 30
0.0
 10
196.916060
 20
56.156160
 30
0.0
 10
201.582700
 20
56.556160
 30
0.0
  0
LINE
  5
1e9
100
AcDbEntity
  8
0
 62
7
100
AcDbLine
 10
201.582700
 20
56.556160
 30
0.0
 11
213.716000
 21
57.622820
 31
0.0
  0
SPLINE
  5
1ea
100
AcDbEntity
  8
0
 62
7
100
AcDbSpline
 70
8
 71
3
 72
8
 73
4
 74
0
 40
0
 40
0
 40
0
 40
0
 40
1
 40
1
 40
1
 40
1
 10
140.649490
 20
42.422860
 30
0.0
 10
131.049520
 20
42.422860
 30
0.0
 10
127.316200
 20
46.022850
 30
0.0
 10
127.182860
 20
54.022830
 30
0.0
  0
LINE
  5
1eb
100
AcDbEntity
  8
0
 62
7
100
AcDbLine
 10
127.182860
 20
54.022830
 30
0.0
 11
166.382750
 21
54.022830
 31
0.0
  0
LINE
  5
1ec
100
AcDbEntity
  8
0
 62
7
100
AcDbLine
 10
166.382750
 20
54.022830
 30
0.0
 11
167.716080
 21
66.422800
 31
0.0
  0
SPLINE
  5
1ed
100
AcDbEntity
  8
0
 62
7
100
AcDbSpline
 70
8
 71
3
 72
8
 73
4
 74
0
 40
0
 40
0
 40
0
 40
0
 40
1
 40
1
 40
1
 40
1
 10
167.716080
 20
66.422800
 30
0.0
 10
167.716080
 20
86.556080
 30
0.0
 10
158.249440
 20
96.556060
 30
0.0
 10
138.649490
 20
96.556060
 30
0.0
  0
SPLINE
  5
1ee
100
AcDbEntity
  8
0
 62
7
100
AcDbSpline
 70
8
 71
3
 72
8
 73
4
 74
0
 40
0
 40
0
 40
0
 40
0
 40
1
 40
1
 40
1
 40
1
 10
138.649490
 20
96.556060
 30
0.0
 10
119.182870
 20
96.556060
 30
0.0
 10
109.182900
 20
84.422750
 30
0.0
 10
109.182900
 20
60.689480
 30
0.0
  0
SPLINE
  5
1ef
100
AcDbEntity
  8
0
 62
7
100
AcDbSpline
 70
8
 71
3
 72
8
 73
4
 74
0
 40
0
 40
0
 40
0
 40
0
 40
1
 40
1
 40
1
 40
1
 10
109.182900
 20
60.689480
 30
0.0
 10
109.182900
 20
36.689540
 30
0.0
 10
117.716210
 20
26.689570
 30
0.0
 10
137.849490
 20
26.689570
 30
0.0
  0
SPLINE
  5
1f0
100
AcDbEntity
  8
0
 62
7
100
AcDbSpline
 70
8
 71
3
 72
8
 73
4
 74
0
 40
0
 40
0
 40
0
 40
0
 40
1
 40
1
 40
1
 40
1
 10
137.849490
 20
26.689570
 30
0.0
 10
150.249460
 20
26.689570
 30
0.0
 10
165.582760
 20
30.422890
 30
0.0
 10
165.582760
 20
30.422890
 30
0.0
  0
LINE
  5
1f1
100
AcDbEntity
  8
0
 62
7
100
AcDbLine
 10
165.582760
 20
30.422890
 30
0.0
 11
165.316100
 21
43.622860
 31
0.0
  0
SPLINE
  5
1f2
100
AcDbEntity
  8
0
 62
7
100
AcDbSpline
 70
8
 71
3
 72
8
 73
4
 74
0
 40
0
 40
0
 40
0
 40
0
 40
1
 40
1
 40
1
 40
1
 10
165.316100
 20
43.622860
 30
0.0
 10
165.316100
 20
43.622860
 30
0.0
 10
151.582790
 20
42.422860
 30
0.0
 10
140.649490
 20
42.422860
 30
0.0
  0
LINE
  5
1f3
100
AcDbEntity
  8
0
 62
7
100
AcDbLine
 10
140.649490
 20
42.422860
 30
0.0
 11
140.649490
 21
42.422860
 31
0.0
  0
SPLINE
  5
1f4
100
AcDbEntity
  8
0
 62
7
100
AcDbSpline
 70
8
 71
3
 72
8
 73
4
 74
0
 40
0
 40
0
 40
0
 40
0
 40
1
 40
1
 40
1
 40
1
 10
127.049530
 20
67.622800
 30
0.0
 10
127.182860
 20
77.756100
 30
0.0
 10
130.116190
 20
81.889430
 30
0.0
 10
138.649490
 20
81.889430
 30
0.0
  0
SPLINE
  5
1f5
100
AcDbEntity
  8
0
 62
7
100
AcDbSpline
 70
8
 71
3
 72
8
 73
4
 74
0
 40
0
 40
0
 40
0
 40
0
 40
1
 40
1
 40
1
 40
1
 10
138.649490
 20
81.889430
 30
0.0
 10
147.049480
 20
81.889430
 30
0.0
 10
150.116140
 20
78.422770
 30
0.0
 10
150.116140
 20
67.622800
 30
0.0
  0
LINE
  5
1f6
100
AcDbEntity
  8
0
 62
7
100
AcDbLine
 10
150.116140
 20
67.622800
 30
0.0
 11
127.049530
 21
67.622800
 31
0.0
  0
LINE
  5
1f7
100
AcDbEntity
  8
0
 62
7
100
AcDbLine
 10
62.916395
 20
28.289560
 30
0.0
 11
80.783015
 21
28.289560
 31
0.0
  0
LINE
  5
1f8
100
AcDbEntity
  8
0
 62
7
100
AcDbLine
 10
80.783015
 20
28.289560
 30
0.0
 11
80.783015
 21
72.956120
 31
0.0
  0
SPLINE
  5
1f9
100
AcDbEntity
  8
0
 62
7
100
AcDbSpline
 70
8
 71
3
 72
8
 73
4
 74
0
 40
0
 40
0
 40
0
 40
0
 40
1
 40
1
 40
1
 40
1
 10
80.783015
 20
72.956120
 30
0.0
 10
80.783015
 20
72.956120
 30
0.0
 10
90.249655
 20
76.289440
 30
0.0
 10
101.982960
 20
78.556100
 30
0.0
  0
LINE
  5
1fa
100
AcDbEntity
  8
0
 62
7
100
AcDbLine
 10
101.982960
 20
78.556100
 30
0.0
 11
101.982960
 21
96.556060
 31
0.0
  0
SPLINE
  5
1fb
100
AcDbEntity
  8
0
 62
7
100
AcDbSpline
 70
8
 71
3
 72
8
 73
4
 74
0
 40
0
 40
0
 40
0
 40
0
 40
1
 40
1
 40
1
 40
1
 10
101.982960
 20
96.556060
 30
0.0
 10
91.849655
 20
94.556060
 30
0.0
 10
80.649675
 20
87.889410
 30
0.0
 10
80.649675
 20
87.889410
 30
0.0
  0
LINE
  5
1fc
100
AcDbEntity
  8
0
 62
7
100
AcDbLine
 10
80.649675
 20
87.889410
 30
0.0
 11
80.649675
 21
94.956060
 31
0.0
  0
LINE
  5
1fd
100
AcDbEntity
  8
0
 62
7
100
AcDbLine
 10
80.649675
 20
94.956060
 30
0.0
 11
62.916395
 21
94.956060
 31
0.0
  0
LINE
  5
1fe
100
AcDbEntity
  8
0
 62
7
100
AcDbLine
 10
62.916395
 20
94.956060
 30
0.0
 11
62.916395
 21
28.289560
 31
0.0
  0
SPLINE
  5
1ff
100
AcDbEntity
  8
0
 62
7
100
AcDbSpline
 70
8
 71
3
 72
8
 73
4
 74
0
 40
0
 40
0
 40
0
 40
0
 40
1
 40
1
 40
1
 40
1
 10
370.072860
 20
285.024323
 30
0.0
 10
364.058680
 20
285.024323
 30
0.0
 10
359.217390
 20
280.183043
 30
0.0
 10
359.217390
 20
274.168853
 30
0.0
  0
LINE
  5
200
100
AcDbEntity
  8
0
 62
7
100
AcDbLine
 10
359.217390
 20
274.168853
 30
0.0
 11
359.217390
 21
196.075100
 31
0.0
  0
SPLINE
  5
201
100
AcDbEntity
  8
0
 62
7
100
AcDbSpline
 70
8
 71
3
 72
8
 73
4
 74
0
 40
0
 40
0
 40
0
 40
0
 40
1
 40
1
 40
1
 40
1
 10
359.217390
 20
196.075100
 30
0.0
 10
359.217390
 20
190.060920
 30
0.0
 10
364.058680
 20
185.219640
 30
0.0
 10
370.072860
 20
185.219640
 30
0.0
  0
LINE
  5
202
100
AcDbEntity
  8
0
 62
7
100
AcDbLine
 10
370.072860
 20
185.219640
 30
0.0
 11
364.119740
 21
185.219640
 31
0.0
  0
SPLINE
  5
203
100
AcDbEntity
  8
0
 62
7
100
AcDbSpline
 70
8
 71
3
 72
8
 73
4
 74
0
 40
0
 40
0
 40
0
 40
0
 40
1
 40
1
 40
1
 40
1
 10
364.119740
 20
185.219640
 30
0.0
 10
361.404160
 20
185.219630
 30
0.0
 10
359.219350
 20
183.032870
 30
0.0
 10
359.219350
 20
180.317290
 30
0.0
  0
LINE
  5
204
100
AcDbEntity
  8
0
 62
7
100
AcDbLine
 10
359.219350
 20
180.317290
 30
0.0
 11
359.219350
 21
179.616120
 31
0.0
  0
SPLINE
  5
205
100
AcDbEntity
  8
0
 62
7
100
AcDbSpline
 70
8
 71
3
 72
8
 73
4
 74
0
 40
0
 40
0
 40
0
 40
0
 40
1
 40
1
 40
1
 40
1
 10
359.219350
 20
179.616120
 30
0.0
 10
359.219350
 20
176.900540
 30
0.0
 10
361.404160
 20
174.715730
 30
0.0
 10
364.119740
 20
174.715730
 30
0.0
  0
LINE
  5
206
100
AcDbEntity
  8
0
 62
7
100
AcDbLine
 10
364.119740
 20
174.715730
 30
0.0
 11
387.932240
 21
174.715730
 31
0.0
  0
SPLINE
  5
207
100
AcDbEntity
  8
0
 62
7
100
AcDbSpline
 70
8
 71
3
 72
8
 73
4
 74
0
 40
0
 40
0
 40
0
 40
0
 40
1
 40
1
 40
1
 40
1
 10
387.932240
 20
174.715730
 30
0.0
 10
390.647820
 20
174.715730
 30
0.0
 10
392.834580
 20
176.900540
 30
0.0
 10
392.834580
 20
179.616120
 30
0.0
  0
LINE
  5
208
100
AcDbEntity
  8
0
 62
7
100
AcDbLine
 10
392.834580
 20
179.616120
 30
0.0
 11
392.834580
 21
180.317290
 31
0.0
  0
SPLINE
  5
209
100
AcDbEntity
  8
0
 62
7
100
AcDbSpline
 70
8
 71
3
 72
8
 73
4
 74
0
 40
0
 40
0
 40
0
 40
0
 40
1
 40
1
 40
1
 40
1
 10
392.834580
 20
180.317290
 30
0.0
 10
392.834580
 20
183.032870
 30
0.0
 10
390.647820
 20
185.219620
 30
0.0
 10
387.932240
 20
185.219640
 30
0.0
  0
LINE
  5
20a
100
AcDbEntity
  8
0
 62
7
100
AcDbLine
 10
387.932240
 20
185.219640
 30
0.0
 11
381.981060
 21
185.219640
 31
0.0
  0
SPLINE
  5
20b
100
AcDbEntity
  8
0
 62
7
100
AcDbSpline
 70
8
 71
3
 72
8
 73
4
 74
0
 40
0
 40
0
 40
0
 40
0
 40
1
 40
1
 40
1
 40
1
 10
381.981060
 20
185.219640
 30
0.0
 10
387.995250
 20
185.219630
 30
0.0
 10
392.836530
 20
190.060920
 30
0.0
 10
392.836530
 20
196.075100
 30
0.0
  0
LINE
  5
20c
100
AcDbEntity
  8
0
 62
7
100
AcDbLine
 10
392.836530
 20
196.075100
 30
0.0
 11
392.836530
 21
274.168853
 31
0.0
  0
SPLINE
  5
20d
100
AcDbEntity
  8
0
 62
7
100
AcDbSpline
 70
8
 71
3
 72
8
 73
4
 74
0
 40
0
 40
0
 40
0
 40
0
 40
1
 40
1
 40
1
 40
1
 10
392.836530
 20
274.168853
 30
0.0
 10
392.836530
 20
280.183043
 30
0.0
 10
387.995250
 20
285.024323
 30
0.0
 10
381.981060
 20
285.024323
 30
0.0
  0
LINE
  5
20e
100
AcDbEntity
  8
0
 62
7
100
AcDbLine
 10
381.981060
 20
285.024323
 30
0.0
 11
370.072860
 21
285.024323
 31
0.0
  0
SPLINE
  5
20f
100
AcDbEntity
  8
0
 62
7
100
AcDbSpline
 70
8
 71
3
 72
8
 73
4
 74
0
 40
0
 40
0
 40
0
 40
0
 40
1
 40
1
 40
1
 40
1
 10
367.740830
 20
265.412993
 30
0.0
 10
370.456910
 20
265.412993
 30
0.0
 10
372.643170
 20
263.226733
 30
0.0
 10
372.643170
 20
260.510653
 30
0.0
  0
LINE
  5
210
100
AcDbEntity
  8
0
 62
7
100
AcDbLine
 10
372.643170
 20
260.510653
 30
0.0
 11
372.643170
 21
198.176670
 31
0.0
  0
SPLINE
  5
211
100
AcDbEntity
  8
0
 62
7
100
AcDbSpline
 70
8
 71
3
 72
8
 73
4
 74
0
 40
0
 40
0
 40
0
 40
0
 40
1
 40
1
 40
1
 40
1
 10
372.643170
 20
198.176670
 30
0.0
 10
372.643170
 20
195.460580
 30
0.0
 10
370.456910
 20
193.274320
 30
0.0
 10
367.740830
 20
193.274320
 30
0.0
  0
SPLINE
  5
212
100
AcDbEntity
  8
0
 62
7
100
AcDbSpline
 70
8
 71
3
 72
8
 73
4
 74
0
 40
0
 40
0
 40
0
 40
0
 40
1
 40
1
 40
1
 40
1
 10
367.740830
 20
193.274320
 30
0.0
 10
365.024760
 20
193.274320
 30
0.0
 10
362.836540
 20
195.460580
 30
0.0
 10
362.836540
 20
198.176670
 30
0.0
  0
LINE
  5
213
100
AcDbEntity
  8
0
 62
7
100
AcDbLine
 10
362.836540
 20
198.176670
 30
0.0
 11
362.836540
 21
260.510653
 31
0.0
  0
SPLINE
  5
214
100
AcDbEntity
  8
0
 62
7
100
AcDbSpline
 70
8
 71
3
 72
8
 73
4
 74
0
 40
0
 40
0
 40
0
 40
0
 40
1
 40
1
 40
1
 40
1
 10
362.836540
 20
260.510653
 30
0.0
 10
362.836540
 20
263.226733
 30
0.0
 10
365.024760
 20
265.412993
 30
0.0
 10
367.740830
 20
265.412993
 30
0.0
  0
LINE
  5
215
100
AcDbEntity
  8
0
 62
7
100
AcDbLine
 10
367.740830
 20
265.412993
 30
0.0
 11
367.740830
 21
265.412993
 31
0.0
  0
SPLINE
  5
216
100
AcDbEntity
  8
0
 62
7
100
AcDbSpline
 70
8
 71
3
 72
8
 73
4
 74
0
 40
0
 40
0
 40
0
 40
0
 40
1
 40
1
 40
1
 40
1
 10
384.313100
 20
265.412993
 30
0.0
 10
387.029180
 20
265.412993
 30
0.0
 10
389.217390
 20
263.226733
 30
0.0
 10
389.217390
 20
260.510653
 30
0.0
  0
LINE
  5
217
100
AcDbEntity
  8
0
 62
7
100
AcDbLine
 10
389.217390
 20
260.510653
 30
0.0
 11
389.217390
 21
198.176670
 31
0.0
  0
SPLINE
  5
218
100
AcDbEntity
  8
0
 62
7
100
AcDbSpline
 70
8
 71
3
 72
8
 73
4
 74
0
 40
0
 40
0
 40
0
 40
0
 40
1
 40
1
 40
1
 40
1
 10
389.217390
 20
198.176670
 30
0.0
 10
389.217390
 20
195.460580
 30
0.0
 10
387.029180
 20
193.274320
 30
0.0
 10
384.313100
 20
193.274320
 30
0.0
  0
SPLINE
  5
219
100
AcDbEntity
  8
0
 62
7
100
AcDbSpline
 70
8
 71
3
 72
8
 73
4
 74
0
 40
0
 40
0
 40
0
 40
0
 40
1
 40
1
 40
1
 40
1
 10
384.313100
 20
193.274320
 30
0.0
 10
381.597010
 20
193.274320
 30
0.0
 10
379.410750
 20
195.460580
 30
0.0
 10
379.410750
 20
198.176670
 30
0.0
  0
LINE
  5
21a
100
AcDbEntity
  8
0
 62
7
100
AcDbLine
 10
379.410750
 20
198.176670
 30
0.0
 11
379.410750
 21
260.510653
 31
0.0
  0
SPLINE
  5
21b
100
AcDbEntity
  8
0
 62
7
100
AcDbSpline
 70
8
 71
3
 72
8
 73
4
 74
0
 40
0
 40
0
 40
0
 40
0
 40
1
 40
1
 40
1
 40
1
 10
379.410750
 20
260.510653
 30
0.0
 10
379.410750
 20
263.226733
 30
0.0
 10
381.597010
 20
265.412993
 30
0.0
 10
384.313100
 20
265.412993
 30
0.0
  0
LINE
  5
21c
100
AcDbEntity
  8
0
 62
7
100
AcDbLine
 10
384.313100
 20
265.412993
 30
0.0
 11
384.313100
 21
265.412993
 31
0.0
  0
LINE
  5
21d
100
AcDbEntity
  8
0
 62
7
100
AcDbLine
 10
373.221310
 20
174.705960
 30
0.0
 11
373.098260
 21
94.475490
 31
0.0
  0
LINE
  5
21e
100
AcDbEntity
  8
0
 62
7
100
AcDbLine
 10
373.098260
 20
94.475490
 30
0.0
 11
369.332640
 21
81.104400
 31
0.0
  0
SPLINE
  5
21f
100
AcDbEntity
  8
0
 62
7
100
AcDbSpline
 70
8
 71
3
 72
8
 73
4
 74
0
 40
0
 40
0
 40
0
 40
0
 40
1
 40
1
 40
1
 40
1
 10
369.332640
 20
81.104400
 30
0.0
 10
370.219920
 20
75.790840
 30
0.0
 10
372.551390
 20
64.036040
 30
0.0
 10
372.551390
 20
64.036040
 30
0.0
  0
LINE
  5
220
100
AcDbEntity
  8
0
 62
7
100
AcDbLine
 10
372.551390
 20
64.036040
 30
0.0
 11
376.020140
 21
64.036040
 31
0.0
  0
LINE
  5
221
100
AcDbEntity
  8
0
 62
7
100
AcDbLine
 10
376.020140
 20
64.036040
 30
0.0
 11
376.035740
 21
64.036040
 31
0.0
  0
LINE
  5
222
100
AcDbEntity
  8
0
 62
7
100
AcDbLine
 10
376.035740
 20
64.036040
 30
0.0
 11
379.504490
 21
64.036040
 31
0.0
  0
SPLINE
  5
223
100
AcDbEntity
  8
0
 62
7
100
AcDbSpline
 70
8
 71
3
 72
8
 73
4
 74
0
 40
0
 40
0
 40
0
 40
0
 40
1
 40
1
 40
1
 40
1
 10
379.504490
 20
64.036040
 30
0.0
 10
379.504490
 20
64.036040
 30
0.0
 10
381.834010
 20
75.790840
 30
0.0
 10
382.721290
 20
81.104400
 30
0.0
  0
LINE
  5
224
100
AcDbEntity
  8
0
 62
7
100
AcDbLine
 10
382.721290
 20
81.104400
 30
0.0
 11
378.957620
 21
94.475490
 31
0.0
  0
LINE
  5
225
100
AcDbEntity
  8
0
 62
7
100
AcDbLine
 10
378.957620
 20
94.475490
 30
0.0
 11
378.832620
 21
174.705960
 31
0.0
  0
LINE
  5
226
100
AcDbEntity
  8
0
 62
7
100
AcDbLine
 10
378.832620
 20
174.705960
 30
0.0
 11
376.029880
 21
174.705960
 31
0.0
  0
LINE
  5
227
100
AcDbEntity
  8
0
 62
7
100
AcDbLine
 10
376.029880
 20
174.705960
 30
0.0
 11
376.023880
 21
174.705960
 31
0.0
  0
LINE
  5
228
100
AcDbEntity
  8
0
 62
7
100
AcDbLine
 10
376.023880
 20
174.705960
 30
0.0
 11
373.221310
 21
174.705960
 31
0.0
  0
SPLINE
  5
229
100
AcDbEntity
  8
0
 62
7
100
AcDbSpline
 70
8
 71
3
 72
8
 73
4
 74
0
 40
0
 40
0
 40
0
 40
0
 40
1
 40
1
 40
1
 40
1
 10
102.794470
 20
349.373350
 30
0.0
 10
97.106945
 20
349.373350
 30
0.0
 10
97.034715
 20
343.629209
 30
0.0
 10
97.034715
 20
343.629209
 30
0.0
  0
LINE
  5
22a
100
AcDbEntity
  8
0
 62
7
100
AcDbLine
 10
97.034715
 20
343.629209
 30
0.0
 11
108.612840
 21
343.629209
 31
0.0
  0
SPLINE
  5
22b
100
AcDbEntity
  8
0
 62
7
100
AcDbSpline
 70
8
 71
3
 72
8
 73
4
 74
0
 40
0
 40
0
 40
0
 40
0
 40
1
 40
1
 40
1
 40
1
 10
108.612840
 20
343.629209
 30
0.0
 10
108.612840
 20
343.629209
 30
0.0
 10
108.482010
 20
349.373350
 30
0.0
 10
102.794470
 20
349.373350
 30
0.0
  0
LINE
  5
22c
100
AcDbEntity
  8
0
 62
7
100
AcDbLine
 10
102.794470
 20
349.373350
 30
0.0
 11
102.794470
 21
349.373350
 31
0.0
  0
SPLINE
  5
22d
100
AcDbEntity
  8
0
 62
7
100
AcDbSpline
 70
8
 71
3
 72
8
 73
4
 74
0
 40
0
 40
0
 40
0
 40
0
 40
1
 40
1
 40
1
 40
1
 10
176.364790
 20
349.373350
 30
0.0
 10
170.677260
 20
349.373350
 30
0.0
 10
170.546430
 20
343.629209
 30
0.0
 10
170.546430
 20
343.629209
 30
0.0
  0
LINE
  5
22e
100
AcDbEntity
  8
0
 62
7
100
AcDbLine
 10
170.546430
 20
343.629209
 30
0.0
 11
182.124550
 21
343.629209
 31
0.0
  0
SPLINE
  5
22f
100
AcDbEntity
  8
0
 62
7
100
AcDbSpline
 70
8
 71
3
 72
8
 73
4
 74
0
 40
0
 40
0
 40
0
 40
0
 40
1
 40
1
 40
1
 40
1
 10
182.124550
 20
343.629209
 30
0.0
 10
182.124550
 20
343.629209
 30
0.0
 10
182.052350
 20
349.373350
 30
0.0
 10
176.364790
 20
349.373350
 30
0.0
  0
LINE
  5
230
100
AcDbEntity
  8
0
 62
7
100
AcDbLine
 10
176.364790
 20
349.373350
 30
0.0
 11
176.364790
 21
349.373350
 31
0.0
  0
SPLINE
  5
231
100
AcDbEntity
  8
0
 62
7
100
AcDbSpline
 70
8
 71
3
 72
8
 73
4
 74
0
 40
0
 40
0
 40
0
 40
0
 40
1
 40
1
 40
1
 40
1
 10
84.829635
 20
341.127256
 30
0.0
 10
82.613635
 20
341.127256
 30
0.0
 10
80.829635
 20
339.343256
 30
0.0
 10
80.829635
 20
337.127256
 30
0.0
  0
SPLINE
  5
232
100
AcDbEntity
  8
0
 62
7
100
AcDbSpline
 70
8
 71
3
 72
8
 73
4
 74
0
 40
0
 40
0
 40
0
 40
0
 40
1
 40
1
 40
1
 40
1
 10
80.829635
 20
337.127256
 30
0.0
 10
80.829635
 20
334.911256
 30
0.0
 10
82.613635
 20
333.127256
 30
0.0
 10
84.829635
 20
333.127256
 30
0.0
  0
LINE
  5
233
100
AcDbEntity
  8
0
 62
7
100
AcDbLine
 10
84.829635
 20
333.127256
 30
0.0
 11
121.579630
 21
333.127256
 31
0.0
  0
SPLINE
  5
234
100
AcDbEntity
  8
0
 62
7
100
AcDbSpline
 70
8
 71
3
 72
8
 73
4
 74
0
 40
0
 40
0
 40
0
 40
0
 40
1
 40
1
 40
1
 40
1
 10
121.579630
 20
333.127256
 30
0.0
 10
123.795630
 20
333.127256
 30
0.0
 10
125.579630
 20
334.911256
 30
0.0
 10
125.579630
 20
337.127256
 30
0.0
  0
SPLINE
  5
235
100
AcDbEntity
  8
0
 62
7
100
AcDbSpline
 70
8
 71
3
 72
8
 73
4
 74
0
 40
0
 40
0
 40
0
 40
0
 40
1
 40
1
 40
1
 40
1
 10
125.579630
 20
337.127256
 30
0.0
 10
125.579630
 20
339.343256
 30
0.0
 10
123.795630
 20
341.127256
 30
0.0
 10
121.579630
 20
341.127256
 30
0.0
  0
LINE
  5
236
100
AcDbEntity
  8
0
 62
7
100
AcDbLine
 10
121.579630
 20
341.127256
 30
0.0
 11
84.829635
 21
341.127256
 31
0.0
  0
SPLINE
  5
237
100
AcDbEntity
  8
0
 62
7
100
AcDbSpline
 70
8
 71
3
 72
8
 73
4
 74
0
 40
0
 40
0
 40
0
 40
0
 40
1
 40
1
 40
1
 40
1
 10
157.579630
 20
341.127256
 30
0.0
 10
155.363630
 20
341.127256
 30
0.0
 10
153.579630
 20
339.343256
 30
0.0
 10
153.579630
 20
337.127256
 30
0.0
  0
SPLINE
  5
238
100
AcDbEntity
  8
0
 62
7
100
AcDbSpline
 70
8
 71
3
 72
8
 73
4
 74
0
 40
0
 40
0
 40
0
 40
0
 40
1
 40
1
 40
1
 40
1
 10
153.579630
 20
337.127256
 30
0.0
 10
153.579630
 20
334.911256
 30
0.0
 10
155.363630
 20
333.127256
 30
0.0
 10
157.579630
 20
333.127256
 30
0.0
  0
LINE
  5
239
100
AcDbEntity
  8
0
 62
7
100
AcDbLine
 10
157.579630
 20
333.127256
 30
0.0
 11
194.329630
 21
333.127256
 31
0.0
  0
SPLINE
  5
23a
100
AcDbEntity
  8
0
 62
7
100
AcDbSpline
 70
8
 71
3
 72
8
 73
4
 74
0
 40
0
 40
0
 40
0
 40
0
 40
1
 40
1
 40
1
 40
1
 10
194.329630
 20
333.127256
 30
0.0
 10
196.545630
 20
333.127256
 30
0.0
 10
198.329630
 20
334.911256
 30
0.0
 10
198.329630
 20
337.127256
 30
0.0
  0
SPLINE
  5
23b
100
AcDbEntity
  8
0
 62
7
100
AcDbSpline
 70
8
 71
3
 72
8
 73
4
 74
0
 40
0
 40
0
 40
0
 40
0
 40
1
 40
1
 40
1
 40
1
 10
198.329630
 20
337.127256
 30
0.0
 10
198.329630
 20
339.343256
 30
0.0
 10
196.545630
 20
341.127256
 30
0.0
 10
194.329630
 20
341.127256
 30
0.0
  0
LINE
  5
23c
100
AcDbEntity
  8
0
 62
7
100
AcDbLine
 10
194.329630
 20
341.127256
 30
0.0
 11
157.579630
 21
341.127256
 31
0.0
  0
SPLINE
  5
23d
100
AcDbEntity
  8
0
 62
7
100
AcDbSpline
 70
8
 71
3
 72
8
 73
4
 74
0
 40
0
 40
0
 40
0
 40
0
 40
1
 40
1
 40
1
 40
1
 10
139.575540
 20
331.377253
 30
0.0
 10
138.105360
 20
331.377253
 30
0.0
 10
136.807670
 20
331.415053
 30
0.0
 10
135.598980
 20
331.420253
 30
0.0
  0
LINE
  5
23e
100
AcDbEntity
  8
0
 62
7
100
AcDbLine
 10
135.598980
 20
331.420253
 30
0.0
 11
135.599160
 21
331.420223
 31
0.0
  0
SPLINE
  5
23f
100
AcDbEntity
  8
0
 62
7
100
AcDbSpline
 70
8
 71
3
 72
8
 73
4
 74
0
 40
0
 40
0
 40
0
 40
0
 40
1
 40
1
 40
1
 40
1
 10
135.599160
 20
331.420223
 30
0.0
 10
131.973100
 20
331.435723
 30
0.0
 10
129.156950
 20
331.164363
 30
0.0
 10
124.954630
 20
328.752253
 30
0.0
  0
SPLINE
  5
240
100
AcDbEntity
  8
0
 62
7
100
AcDbSpline
 70
8
 71
3
 72
8
 73
4
 74
0
 40
0
 40
0
 40
0
 40
0
 40
1
 40
1
 40
1
 40
1
 10
124.954630
 20
328.752253
 30
0.0
 10
122.958910
 20
327.606723
 30
0.0
 10
121.261900
 20
325.857223
 30
0.0
 10
119.079630
 20
325.127253
 30
0.0
  0
SPLINE
  5
241
100
AcDbEntity
  8
0
 62
7
100
AcDbSpline
 70
8
 71
3
 72
8
 73
4
 74
0
 40
0
 40
0
 40
0
 40
0
 40
1
 40
1
 40
1
 40
1
 10
119.079630
 20
325.127253
 30
0.0
 10
115.666700
 20
323.985633
 30
0.0
 10
108.196820
 20
324.127253
 30
0.0
 10
108.196820
 20
324.127253
 30
0.0
  0
LINE
  5
242
100
AcDbEntity
  8
0
 62
7
100
AcDbLine
 10
108.196820
 20
324.127253
 30
0.0
 11
108.196820
 21
328.971003
 31
0.0
  0
SPLINE
  5
243
100
AcDbEntity
  8
0
 62
7
100
AcDbSpline
 70
8
 71
3
 72
8
 73
4
 74
0
 40
0
 40
0
 40
0
 40
0
 40
1
 40
1
 40
1
 40
1
 10
108.196820
 20
328.971003
 30
0.0
 10
108.196820
 20
330.217793
 30
0.0
 10
107.085490
 20
330.252253
 30
0.0
 10
107.085490
 20
330.252253
 30
0.0
  0
LINE
  5
244
100
AcDbEntity
  8
0
 62
7
100
AcDbLine
 10
107.085490
 20
330.252253
 30
0.0
 11
98.062055
 21
330.252253
 31
0.0
  0
SPLINE
  5
245
100
AcDbEntity
  8
0
 62
7
100
AcDbSpline
 70
8
 71
3
 72
8
 73
4
 74
0
 40
0
 40
0
 40
0
 40
0
 40
1
 40
1
 40
1
 40
1
 10
98.062055
 20
330.252253
 30
0.0
 10
98.062055
 20
330.252253
 30
0.0
 10
97.071825
 20
330.284653
 30
0.0
 10
97.071825
 20
329.146783
 30
0.0
  0
SPLINE
  5
246
100
AcDbEntity
  8
0
 62
7
100
AcDbSpline
 70
8
 71
3
 72
8
 73
4
 74
0
 40
0
 40
0
 40
0
 40
0
 40
1
 40
1
 40
1
 40
1
 10
97.071825
 20
329.146783
 30
0.0
 10
97.071825
 20
328.579283
 30
0.0
 10
97.079825
 20
323.219763
 30
0.0
 10
97.079825
 20
320.627253
 30
0.0
  0
SPLINE
  5
247
100
AcDbEntity
  8
0
 62
7
100
AcDbSpline
 70
8
 71
3
 72
8
 73
4
 74
0
 40
0
 40
0
 40
0
 40
0
 40
1
 40
1
 40
1
 40
1
 10
97.079825
 20
320.627253
 30
0.0
 10
97.079825
 20
318.083543
 30
0.0
 10
100.704820
 20
311.486623
 30
0.0
 10
100.704820
 20
311.486633
 30
0.0
  0
LINE
  5
248
100
AcDbEntity
  8
0
 62
7
100
AcDbLine
 10
100.704820
 20
311.486633
 30
0.0
 11
104.829820
 21
311.377253
 31
0.0
  0
LINE
  5
249
100
AcDbEntity
  8
0
 62
7
100
AcDbLine
 10
104.829820
 20
311.377253
 30
0.0
 11
107.204820
 21
315.752253
 31
0.0
  0
SPLINE
  5
24a
100
AcDbEntity
  8
0
 62
7
100
AcDbSpline
 70
8
 71
3
 72
8
 73
4
 74
0
 40
0
 40
0
 40
0
 40
0
 40
1
 40
1
 40
1
 40
1
 10
107.204820
 20
315.752253
 30
0.0
 10
107.204820
 20
315.752253
 30
0.0
 10
111.995810
 20
316.106253
 30
0.0
 10
116.261460
 20
316.017873
 30
0.0
  0
SPLINE
  5
24b
100
AcDbEntity
  8
0
 62
7
100
AcDbSpline
 70
8
 71
3
 72
8
 73
4
 74
0
 40
0
 40
0
 40
0
 40
0
 40
1
 40
1
 40
1
 40
1
 10
116.261460
 20
316.017873
 30
0.0
 10
118.665360
 20
315.968073
 30
0.0
 10
119.594630
 20
315.737373
 30
0.0
 10
121.269270
 20
314.012023
 30
0.0
  0
SPLINE
  5
24c
100
AcDbEntity
  8
0
 62
7
100
AcDbSpline
 70
8
 71
3
 72
8
 73
4
 74
0
 40
0
 40
0
 40
0
 40
0
 40
1
 40
1
 40
1
 40
1
 10
121.269270
 20
314.012023
 30
0.0
 10
123.242000
 20
311.979553
 30
0.0
 10
124.363140
 20
307.712603
 30
0.0
 10
125.669660
 20
305.199523
 30
0.0
  0
SPLINE
  5
24d
100
AcDbEntity
  8
0
 62
7
100
AcDbSpline
 70
8
 71
3
 72
8
 73
4
 74
0
 40
0
 40
0
 40
0
 40
0
 40
1
 40
1
 40
1
 40
1
 10
125.669660
 20
305.199523
 30
0.0
 10
127.055010
 20
302.534823
 30
0.0
 10
127.933980
 20
295.502253
 30
0.0
 10
130.923570
 20
295.502253
 30
0.0
  0
LINE
  5
24e
100
AcDbEntity
  8
0
 62
7
100
AcDbLine
 10
130.923570
 20
295.502253
 30
0.0
 11
139.579630
 21
295.502253
 31
0.0
  0
LINE
  5
24f
100
AcDbEntity
  8
0
 62
7
100
AcDbLine
 10
139.575630
 20
302.002253
 30
0.0
 11
135.454630
 21
302.002253
 31
0.0
  0
SPLINE
  5
250
100
AcDbEntity
  8
0
 62
7
100
AcDbSpline
 70
8
 71
3
 72
8
 73
4
 74
0
 40
0
 40
0
 40
0
 40
0
 40
1
 40
1
 40
1
 40
1
 10
135.454630
 20
302.002253
 30
0.0
 10
132.077140
 20
302.002253
 30
0.0
 10
126.620890
 20
317.585703
 30
0.0
 10
127.079630
 20
322.002253
 30
0.0
  0
SPLINE
  5
251
100
AcDbEntity
  8
0
 62
7
100
AcDbSpline
 70
8
 71
3
 72
8
 73
4
 74
0
 40
0
 40
0
 40
0
 40
0
 40
1
 40
1
 40
1
 40
1
 10
127.079630
 20
322.002253
 30
0.0
 10
127.816900
 20
324.923353
 30
0.0
 10
131.835680
 20
325.433433
 30
0.0
 10
133.786660
 20
325.701473
 30
0.0
  0
SPLINE
  5
252
100
AcDbEntity
  8
0
 62
7
100
AcDbSpline
 70
8
 71
3
 72
8
 73
4
 74
0
 40
0
 40
0
 40
0
 40
0
 40
1
 40
1
 40
1
 40
1
 10
133.786660
 20
325.701473
 30
0.0
 10
135.520370
 20
325.939663
 30
0.0
 10
136.177390
 20
325.877253
 30
0.0
 10
139.579630
 20
325.877253
 30
0.0
  0
LINE
  5
253
100
AcDbEntity
  8
0
 62
7
100
AcDbLine
 10
139.579240
 20
325.877253
 30
0.0
 11
139.579630
 21
325.877253
 31
0.0
  0
SPLINE
  5
254
100
AcDbEntity
  8
0
 62
7
100
AcDbSpline
 70
8
 71
3
 72
8
 73
4
 74
0
 40
0
 40
0
 40
0
 40
0
 40
1
 40
1
 40
1
 40
1
 10
139.579630
 20
325.877253
 30
0.0
 10
142.981870
 20
325.877253
 30
0.0
 10
143.638890
 20
325.939653
 30
0.0
 10
145.372600
 20
325.701473
 30
0.0
  0
SPLINE
  5
255
100
AcDbEntity
  8
0
 62
7
100
AcDbSpline
 70
8
 71
3
 72
8
 73
4
 74
0
 40
0
 40
0
 40
0
 40
0
 40
1
 40
1
 40
1
 40
1
 10
145.372600
 20
325.701473
 30
0.0
 10
147.323580
 20
325.433433
 30
0.0
 10
151.342360
 20
324.923353
 30
0.0
 10
152.079630
 20
322.002253
 30
0.0
  0
SPLINE
  5
256
100
AcDbEntity
  8
0
 62
7
100
AcDbSpline
 70
8
 71
3
 72
8
 73
4
 74
0
 40
0
 40
0
 40
0
 40
0
 40
1
 40
1
 40
1
 40
1
 10
152.079630
 20
322.002253
 30
0.0
 10
152.538370
 20
317.585703
 30
0.0
 10
147.082120
 20
302.002253
 30
0.0
 10
143.704630
 20
302.002253
 30
0.0
  0
LINE
  5
257
100
AcDbEntity
  8
0
 62
7
100
AcDbLine
 10
143.704630
 20
302.002253
 30
0.0
 11
139.583540
 21
302.002253
 31
0.0
  0
LINE
  5
258
100
AcDbEntity
  8
0
 62
7
100
AcDbLine
 10
139.579540
 20
295.502253
 30
0.0
 11
148.235790
 21
295.502253
 31
0.0
  0
SPLINE
  5
259
100
AcDbEntity
  8
0
 62
7
100
AcDbSpline
 70
8
 71
3
 72
8
 73
4
 74
0
 40
0
 40
0
 40
0
 40
0
 40
1
 40
1
 40
1
 40
1
 10
148.235790
 20
295.502253
 30
0.0
 10
151.225380
 20
295.502253
 30
0.0
 10
152.104350
 20
302.534823
 30
0.0
 10
153.489700
 20
305.199523
 30
0.0
  0
SPLINE
  5
25a
100
AcDbEntity
  8
0
 62
7
100
AcDbSpline
 70
8
 71
3
 72
8
 73
4
 74
0
 40
0
 40
0
 40
0
 40
0
 40
1
 40
1
 40
1
 40
1
 10
153.489700
 20
305.199523
 30
0.0
 10
154.796220
 20
307.712603
 30
0.0
 10
155.917360
 20
311.979553
 30
0.0
 10
157.890090
 20
314.012023
 30
0.0
  0
SPLINE
  5
25b
100
AcDbEntity
  8
0
 62
7
100
AcDbSpline
 70
8
 71
3
 72
8
 73
4
 74
0
 40
0
 40
0
 40
0
 40
0
 40
1
 40
1
 40
1
 40
1
 10
157.890090
 20
314.012023
 30
0.0
 10
159.564730
 20
315.737373
 30
0.0
 10
160.494000
 20
315.968073
 30
0.0
 10
162.897900
 20
316.017873
 30
0.0
  0
SPLINE
  5
25c
100
AcDbEntity
  8
0
 62
7
100
AcDbSpline
 70
8
 71
3
 72
8
 73
4
 74
0
 40
0
 40
0
 40
0
 40
0
 40
1
 40
1
 40
1
 40
1
 10
162.897900
 20
316.017873
 30
0.0
 10
167.163550
 20
316.106273
 30
0.0
 10
171.954540
 20
315.752253
 30
0.0
 10
171.954540
 20
315.752253
 30
0.0
  0
LINE
  5
25d
100
AcDbEntity
  8
0
 62
7
100
AcDbLine
 10
171.954540
 20
315.752253
 30
0.0
 11
174.329540
 21
311.377253
 31
0.0
  0
LINE
  5
25e
100
AcDbEntity
  8
0
 62
7
100
AcDbLine
 10
174.329540
 20
311.377253
 30
0.0
 11
178.454540
 21
311.486633
 31
0.0
  0
SPLINE
  5
25f
100
AcDbEntity
  8
0
 62
7
100
AcDbSpline
 70
8
 71
3
 72
8
 73
4
 74
0
 40
0
 40
0
 40
0
 40
0
 40
1
 40
1
 40
1
 40
1
 10
178.454540
 20
311.486633
 30
0.0
 10
178.454540
 20
311.486623
 30
0.0
 10
182.079540
 20
318.221113
 30
0.0
 10
182.079540
 20
320.627253
 30
0.0
  0
SPLINE
  5
260
100
AcDbEntity
  8
0
 62
7
100
AcDbSpline
 70
8
 71
3
 72
8
 73
4
 74
0
 40
0
 40
0
 40
0
 40
0
 40
1
 40
1
 40
1
 40
1
 10
182.079540
 20
320.627253
 30
0.0
 10
182.079540
 20
322.964423
 30
0.0
 10
182.087540
 20
327.872093
 30
0.0
 10
182.087540
 20
329.146783
 30
0.0
  0
SPLINE
  5
261
100
AcDbEntity
  8
0
 62
7
100
AcDbSpline
 70
8
 71
3
 72
8
 73
4
 74
0
 40
0
 40
0
 40
0
 40
0
 40
1
 40
1
 40
1
 40
1
 10
182.087540
 20
329.146783
 30
0.0
 10
182.087540
 20
330.185253
 30
0.0
 10
181.097310
 20
330.252253
 30
0.0
 10
181.097310
 20
330.252253
 30
0.0
  0
LINE
  5
262
100
AcDbEntity
  8
0
 62
7
100
AcDbLine
 10
181.097310
 20
330.252253
 30
0.0
 11
172.073870
 21
330.252253
 31
0.0
  0
SPLINE
  5
263
100
AcDbEntity
  8
0
 62
7
100
AcDbSpline
 70
8
 71
3
 72
8
 73
4
 74
0
 40
0
 40
0
 40
0
 40
0
 40
1
 40
1
 40
1
 40
1
 10
172.073870
 20
330.252253
 30
0.0
 10
172.073870
 20
330.252253
 30
0.0
 10
170.962540
 20
330.217753
 30
0.0
 10
170.962540
 20
328.971003
 30
0.0
  0
LINE
  5
264
100
AcDbEntity
  8
0
 62
7
100
AcDbLine
 10
170.962540
 20
328.971003
 30
0.0
 11
170.962540
 21
324.127253
 31
0.0
  0
SPLINE
  5
265
100
AcDbEntity
  8
0
 62
7
100
AcDbSpline
 70
8
 71
3
 72
8
 73
4
 74
0
 40
0
 40
0
 40
0
 40
0
 40
1
 40
1
 40
1
 40
1
 10
170.962540
 20
324.127253
 30
0.0
 10
170.962540
 20
324.127253
 30
0.0
 10
163.492660
 20
323.985633
 30
0.0
 10
160.079730
 20
325.127253
 30
0.0
  0
SPLINE
  5
266
100
AcDbEntity
  8
0
 62
7
100
AcDbSpline
 70
8
 71
3
 72
8
 73
4
 74
0
 40
0
 40
0
 40
0
 40
0
 40
1
 40
1
 40
1
 40
1
 10
160.079730
 20
325.127253
 30
0.0
 10
157.897460
 20
325.857223
 30
0.0
 10
156.200450
 20
327.606723
 30
0.0
 10
154.204730
 20
328.752253
 30
0.0
  0
SPLINE
  5
267
100
AcDbEntity
  8
0
 62
7
100
AcDbSpline
 70
8
 71
3
 72
8
 73
4
 74
0
 40
0
 40
0
 40
0
 40
0
 40
1
 40
1
 40
1
 40
1
 10
154.204730
 20
328.752253
 30
0.0
 10
148.601640
 20
331.968403
 30
0.0
 10
145.464360
 20
331.377253
 30
0.0
 10
139.583640
 20
331.377253
 30
0.0
  0
SPLINE
  5
268
100
AcDbEntity
  8
0
 62
7
100
AcDbSpline
 70
8
 71
3
 72
8
 73
4
 74
0
 40
0
 40
0
 40
0
 40
0
 40
1
 40
1
 40
1
 40
1
 10
119.814010
 20
308.756163
 30
0.0
 10
118.219450
 20
308.741963
 30
0.0
 10
116.774940
 20
307.670223
 30
0.0
 10
116.774940
 20
307.670223
 30
0.0
  0
SPLINE
  5
269
100
AcDbEntity
  8
0
 62
7
100
AcDbSpline
 70
8
 71
3
 72
8
 73
4
 74
0
 40
0
 40
0
 40
0
 40
0
 40
1
 40
1
 40
1
 40
1
 10
116.774940
 20
307.670223
 30
0.0
 10
116.774940
 20
307.670223
 30
0.0
 10
104.846900
 20
297.253283
 30
0.0
 10
102.073770
 20
290.152643
 30
0.0
  0
SPLINE
  5
26a
100
AcDbEntity
  8
0
 62
7
100
AcDbSpline
 70
8
 71
3
 72
8
 73
4
 74
0
 40
0
 40
0
 40
0
 40
0
 40
1
 40
1
 40
1
 40
1
 10
102.073770
 20
290.152643
 30
0.0
 10
99.471825
 20
283.490303
 30
0.0
 10
101.077680
 20
268.719053
 30
0.0
 10
101.077680
 20
268.719053
 30
0.0
  0
SPLINE
  5
26b
100
AcDbEntity
  8
0
 62
7
100
AcDbSpline
 70
8
 71
3
 72
8
 73
4
 74
0
 40
0
 40
0
 40
0
 40
0
 40
1
 40
1
 40
1
 40
1
 10
101.077680
 20
268.719053
 30
0.0
 10
101.077680
 20
268.719053
 30
0.0
 10
101.241290
 20
264.902783
 30
0.0
 10
104.702680
 20
264.896783
 30
0.0
  0
SPLINE
  5
26c
100
AcDbEntity
  8
0
 62
7
100
AcDbSpline
 70
8
 71
3
 72
8
 73
4
 74
0
 40
0
 40
0
 40
0
 40
0
 40
1
 40
1
 40
1
 40
1
 10
104.702680
 20
264.896783
 30
0.0
 10
108.164070
 20
264.890783
 30
0.0
 10
108.437050
 20
268.320613
 30
0.0
 10
108.437050
 20
268.320613
 30
0.0
  0
SPLINE
  5
26d
100
AcDbEntity
  8
0
 62
7
100
AcDbSpline
 70
8
 71
3
 72
8
 73
4
 74
0
 40
0
 40
0
 40
0
 40
0
 40
1
 40
1
 40
1
 40
1
 10
108.437050
 20
268.320613
 30
0.0
 10
108.437050
 20
268.320613
 30
0.0
 10
106.974180
 20
280.912883
 30
0.0
 10
109.144080
 20
286.617483
 30
0.0
  0
SPLINE
  5
26e
100
AcDbEntity
  8
0
 62
7
100
AcDbSpline
 70
8
 71
3
 72
8
 73
4
 74
0
 40
0
 40
0
 40
0
 40
0
 40
1
 40
1
 40
1
 40
1
 10
109.144080
 20
286.617483
 30
0.0
 10
111.641980
 20
293.184383
 30
0.0
 10
122.532750
 20
302.896783
 30
0.0
 10
122.532750
 20
302.896783
 30
0.0
  0
SPLINE
  5
26f
100
AcDbEntity
  8
0
 62
7
100
AcDbSpline
 70
8
 71
3
 72
8
 73
4
 74
0
 40
0
 40
0
 40
0
 40
0
 40
1
 40
1
 40
1
 40
1
 10
122.532750
 20
302.896783
 30
0.0
 10
122.532760
 20
302.896783
 30
0.0
 10
124.091920
 20
305.899273
 30
0.0
 10
121.960490
 20
307.920223
 30
0.0
  0
SPLINE
  5
270
100
AcDbEntity
  8
0
 62
7
100
AcDbSpline
 70
8
 71
3
 72
8
 73
4
 74
0
 40
0
 40
0
 40
0
 40
0
 40
1
 40
1
 40
1
 40
1
 10
121.960490
 20
307.920223
 30
0.0
 10
121.294420
 20
308.551773
 30
0.0
 10
120.538790
 20
308.762593
 30
0.0
 10
119.814010
 20
308.756163
 30
0.0
  0
LINE
  5
271
100
AcDbEntity
  8
0
 62
7
100
AcDbLine
 10
119.814010
 20
308.756163
 30
0.0
 11
119.814010
 21
308.756163
 31
0.0
  0
SPLINE
  5
272
100
AcDbEntity
  8
0
 62
7
100
AcDbSpline
 70
8
 71
3
 72
8
 73
4
 74
0
 40
0
 40
0
 40
0
 40
0
 40
1
 40
1
 40
1
 40
1
 10
159.345250
 20
308.756163
 30
0.0
 10
158.620470
 20
308.762163
 30
0.0
 10
157.864840
 20
308.551773
 30
0.0
 10
157.198770
 20
307.920223
 30
0.0
  0
SPLINE
  5
273
100
AcDbEntity
  8
0
 62
7
100
AcDbSpline
 70
8
 71
3
 72
8
 73
4
 74
0
 40
0
 40
0
 40
0
 40
0
 40
1
 40
1
 40
1
 40
1
 10
157.198770
 20
307.920223
 30
0.0
 10
155.067340
 20
305.899273
 30
0.0
 10
156.626500
 20
302.896783
 30
0.0
 10
156.626510
 20
302.896783
 30
0.0
  0
SPLINE
  5
274
100
AcDbEntity
  8
0
 62
7
100
AcDbSpline
 70
8
 71
3
 72
8
 73
4
 74
0
 40
0
 40
0
 40
0
 40
0
 40
1
 40
1
 40
1
 40
1
 10
156.626510
 20
302.896783
 30
0.0
 10
156.626500
 20
302.896783
 30
0.0
 10
167.517280
 20
293.184383
 30
0.0
 10
170.015180
 20
286.617483
 30
0.0
  0
SPLINE
  5
275
100
AcDbEntity
  8
0
 62
7
100
AcDbSpline
 70
8
 71
3
 72
8
 73
4
 74
0
 40
0
 40
0
 40
0
 40
0
 40
1
 40
1
 40
1
 40
1
 10
170.015180
 20
286.617483
 30
0.0
 10
172.185080
 20
280.912883
 30
0.0
 10
170.722210
 20
268.320613
 30
0.0
 10
170.722210
 20
268.320613
 30
0.0
  0
SPLINE
  5
276
100
AcDbEntity
  8
0
 62
7
100
AcDbSpline
 70
8
 71
3
 72
8
 73
4
 74
0
 40
0
 40
0
 40
0
 40
0
 40
1
 40
1
 40
1
 40
1
 10
170.722210
 20
268.320613
 30
0.0
 10
170.722210
 20
268.320613
 30
0.0
 10
170.995190
 20
264.890783
 30
0.0
 10
174.456580
 20
264.896783
 30
0.0
  0
SPLINE
  5
277
100
AcDbEntity
  8
0
 62
7
100
AcDbSpline
 70
8
 71
3
 72
8
 73
4
 74
0
 40
0
 40
0
 40
0
 40
0
 40
1
 40
1
 40
1
 40
1
 10
174.456580
 20
264.896783
 30
0.0
 10
177.917970
 20
264.902783
 30
0.0
 10
178.081580
 20
268.719053
 30
0.0
 10
178.081580
 20
268.719053
 30
0.0
  0
SPLINE
  5
278
100
AcDbEntity
  8
0
 62
7
100
AcDbSpline
 70
8
 71
3
 72
8
 73
4
 74
0
 40
0
 40
0
 40
0
 40
0
 40
1
 40
1
 40
1
 40
1
 10
178.081580
 20
268.719053
 30
0.0
 10
178.081580
 20
268.719053
 30
0.0
 10
179.687440
 20
283.490303
 30
0.0
 10
177.085490
 20
290.152643
 30
0.0
  0
SPLINE
  5
279
100
AcDbEntity
  8
0
 62
7
100
AcDbSpline
 70
8
 71
3
 72
8
 73
4
 74
0
 40
0
 40
0
 40
0
 40
0
 40
1
 40
1
 40
1
 40
1
 10
177.085490
 20
290.152643
 30
0.0
 10
174.312360
 20
297.253283
 30
0.0
 10
162.384320
 20
307.670223
 30
0.0
 10
162.384320
 20
307.670223
 30
0.0
  0
SPLINE
  5
27a
100
AcDbEntity
  8
0
 62
7
100
AcDbSpline
 70
8
 71
3
 72
8
 73
4
 74
0
 40
0
 40
0
 40
0
 40
0
 40
1
 40
1
 40
1
 40
1
 10
162.384320
 20
307.670223
 30
0.0
 10
162.384320
 20
307.670223
 30
0.0
 10
160.939810
 20
308.741963
 30
0.0
 10
159.345250
 20
308.756163
 30
0.0
  0
LINE
  5
27b
100
AcDbEntity
  8
0
 62
7
100
AcDbLine
 10
159.345250
 20
308.756163
 30
0.0
 11
159.345250
 21
308.756163
 31
0.0
  0
SPLINE
  5
27c
100
AcDbEntity
  8
0
 62
7
100
AcDbSpline
 70
8
 71
3
 72
8
 73
4
 74
0
 40
0
 40
0
 40
0
 40
0
 40
1
 40
1
 40
1
 40
1
 10
183.274000
 20
195.018350
 30
0.0
 10
183.274000
 20
195.018350
 30
0.0
 10
176.850880
 20
188.336340
 30
0.0
 10
172.861890
 20
186.112100
 30
0.0
  0
SPLINE
  5
27d
100
AcDbEntity
  8
0
 62
7
100
AcDbSpline
 70
8
 71
3
 72
8
 73
4
 74
0
 40
0
 40
0
 40
0
 40
0
 40
1
 40
1
 40
1
 40
1
 10
172.861890
 20
186.112100
 30
0.0
 10
170.160360
 20
184.605740
 30
0.0
 10
167.102450
 20
183.584840
 30
0.0
 10
164.024000
 20
183.283970
 30
0.0
  0
SPLINE
  5
27e
100
AcDbEntity
  8
0
 62
7
100
AcDbSpline
 70
8
 71
3
 72
8
 73
4
 74
0
 40
0
 40
0
 40
0
 40
0
 40
1
 40
1
 40
1
 40
1
 10
164.024000
 20
183.283970
 30
0.0
 10
160.953850
 20
182.983910
 30
0.0
 10
157.822770
 20
183.594180
 30
0.0
 10
154.830640
 20
184.344520
 30
0.0
  0
SPLINE
  5
27f
100
AcDbEntity
  8
0
 62
7
100
AcDbSpline
 70
8
 71
3
 72
8
 73
4
 74
0
 40
0
 40
0
 40
0
 40
0
 40
1
 40
1
 40
1
 40
1
 10
154.830640
 20
184.344520
 30
0.0
 10
152.187710
 20
185.007290
 30
0.0
 10
148.100280
 20
187.556360
 30
0.0
 10
147.229080
 20
187.350380
 30
0.0
  0
SPLINE
  5
280
100
AcDbEntity
  8
0
 62
7
100
AcDbSpline
 70
8
 71
3
 72
8
 73
4
 74
0
 40
0
 40
0
 40
0
 40
0
 40
1
 40
1
 40
1
 40
1
 10
147.229080
 20
187.350380
 30
0.0
 10
146.997330
 20
186.489530
 30
0.0
 10
149.965940
 20
182.567680
 30
0.0
 10
151.649000
 20
180.102330
 30
0.0
  0
SPLINE
  5
281
100
AcDbEntity
  8
0
 62
7
100
AcDbSpline
 70
8
 71
3
 72
8
 73
4
 74
0
 40
0
 40
0
 40
0
 40
0
 40
1
 40
1
 40
1
 40
1
 10
151.649000
 20
180.102330
 30
0.0
 10
154.082510
 20
179.895860
 30
0.0
 10
158.193810
 20
180.094330
 30
0.0
 10
158.190020
 20
177.185710
 30
0.0
  0
LINE
  5
282
100
AcDbEntity
  8
0
 62
7
100
AcDbLine
 10
158.190020
 20
177.185710
 30
0.0
 11
158.365800
 21
168.080850
 31
0.0
  0
LINE
  5
283
100
AcDbEntity
  8
0
 62
7
100
AcDbLine
 10
158.365800
 20
168.080850
 30
0.0
 11
168.024000
 21
168.080850
 31
0.0
  0
SPLINE
  5
284
100
AcDbEntity
  8
0
 62
7
100
AcDbSpline
 70
8
 71
3
 72
8
 73
4
 74
0
 40
0
 40
0
 40
0
 40
0
 40
1
 40
1
 40
1
 40
1
 10
168.024000
 20
168.080850
 30
0.0
 10
169.967990
 20
167.980580
 30
0.0
 10
170.759360
 20
166.799670
 30
0.0
 10
170.887280
 20
165.129680
 30
0.0
  0
LINE
  5
285
100
AcDbEntity
  8
0
 62
7
100
AcDbLine
 10
170.887280
 20
165.129680
 30
0.0
 11
171.524000
 21
156.143350
 31
0.0
  0
LINE
  5
286
100
AcDbEntity
  8
0
 62
7
100
AcDbLine
 10
171.524000
 20
156.143350
 30
0.0
 11
180.930250
 21
155.955850
 31
0.0
  0
SPLINE
  5
287
100
AcDbEntity
  8
0
 62
7
100
AcDbSpline
 70
8
 71
3
 72
8
 73
4
 74
0
 40
0
 40
0
 40
0
 40
0
 40
1
 40
1
 40
1
 40
1
 10
180.930250
 20
155.955850
 30
0.0
 10
182.000750
 20
155.551690
 30
0.0
 10
182.726830
 20
155.223370
 30
0.0
 10
182.836500
 20
153.643350
 30
0.0
  0
LINE
  5
288
100
AcDbEntity
  8
0
 62
7
100
AcDbLine
 10
182.836500
 20
153.643350
 30
0.0
 11
182.961500
 21
142.205850
 31
0.0
  0
LINE
  5
289
100
AcDbEntity
  8
0
 62
7
100
AcDbLine
 10
182.961500
 20
142.205850
 30
0.0
 11
193.180250
 21
142.143350
 31
0.0
  0
SPLINE
  5
28a
100
AcDbEntity
  8
0
 62
7
100
AcDbSpline
 70
8
 71
3
 72
8
 73
4
 74
0
 40
0
 40
0
 40
0
 40
0
 40
1
 40
1
 40
1
 40
1
 10
193.180250
 20
142.143350
 30
0.0
 10
194.127010
 20
141.752990
 30
0.0
 10
194.485690
 20
141.439520
 30
0.0
 10
194.586500
 20
140.330850
 30
0.0
  0
LINE
  5
28b
100
AcDbEntity
  8
0
 62
7
100
AcDbLine
 10
194.586500
 20
140.330850
 30
0.0
 11
194.586500
 21
128.830850
 31
0.0
  0
LINE
  5
28c
100
AcDbEntity
  8
0
 62
7
100
AcDbLine
 10
194.586500
 20
128.830850
 30
0.0
 11
204.024000
 21
129.205850
 31
0.0
  0
SPLINE
  5
28d
100
AcDbEntity
  8
0
 62
7
100
AcDbSpline
 70
8
 71
3
 72
8
 73
4
 74
0
 40
0
 40
0
 40
0
 40
0
 40
1
 40
1
 40
1
 40
1
 10
204.024000
 20
129.205850
 30
0.0
 10
205.144830
 20
129.147850
 30
0.0
 10
205.754530
 20
128.248800
 30
0.0
 10
205.649000
 20
127.330850
 30
0.0
  0
LINE
  5
28e
100
AcDbEntity
  8
0
 62
7
100
AcDbLine
 10
205.649000
 20
127.330850
 30
0.0
 11
205.024000
 21
116.268350
 31
0.0
  0
SPLINE
  5
28f
100
AcDbEntity
  8
0
 62
7
100
AcDbSpline
 70
8
 71
3
 72
8
 73
4
 74
0
 40
0
 40
0
 40
0
 40
0
 40
1
 40
1
 40
1
 40
1
 10
205.024000
 20
116.268350
 30
0.0
 10
205.024000
 20
116.268350
 30
0.0
 10
209.684950
 20
113.240860
 30
0.0
 10
211.274000
 20
114.018350
 30
0.0
  0
LINE
  5
290
100
AcDbEntity
  8
0
 62
7
100
AcDbLine
 10
211.274000
 20
114.018350
 30
0.0
 11
225.274000
 21
121.518350
 31
0.0
  0
LINE
  5
291
100
AcDbEntity
  8
0
 62
7
100
AcDbLine
 10
225.274000
 20
121.518350
 30
0.0
 11
183.274000
 21
195.018350
 31
0.0
  0
SPLINE
  5
292
100
AcDbEntity
  8
0
 62
7
100
AcDbSpline
 70
8
 71
3
 72
8
 73
4
 74
0
 40
0
 40
0
 40
0
 40
0
 40
1
 40
1
 40
1
 40
1
 10
159.249840
 20
232.076500
 30
0.0
 10
158.366590
 20
232.046400
 30
0.0
 10
157.497960
 20
231.345400
 30
0.0
 10
156.995930
 20
230.615570
 30
0.0
  0
SPLINE
  5
293
100
AcDbEntity
  8
0
 62
7
100
AcDbSpline
 70
8
 71
3
 72
8
 73
4
 74
0
 40
0
 40
0
 40
0
 40
0
 40
1
 40
1
 40
1
 40
1
 10
156.995930
 20
230.615570
 30
0.0
 10
156.563580
 20
229.987000
 30
0.0
 10
156.678250
 20
229.120490
 30
0.0
 10
156.599450
 20
228.361660
 30
0.0
  0
SPLINE
  5
294
100
AcDbEntity
  8
0
 62
7
100
AcDbSpline
 70
8
 71
3
 72
8
 73
4
 74
0
 40
0
 40
0
 40
0
 40
0
 40
1
 40
1
 40
1
 40
1
 10
156.599450
 20
228.361660
 30
0.0
 10
156.505050
 20
227.452720
 30
0.0
 10
156.842030
 20
226.472650
 30
0.0
 10
156.509650
 20
225.621430
 30
0.0
  0
SPLINE
  5
295
100
AcDbEntity
  8
0
 62
7
100
AcDbSpline
 70
8
 71
3
 72
8
 73
4
 74
0
 40
0
 40
0
 40
0
 40
0
 40
1
 40
1
 40
1
 40
1
 10
156.509650
 20
225.621430
 30
0.0
 10
156.353880
 20
225.222540
 30
0.0
 10
155.991050
 20
224.934120
 30
0.0
 10
155.671760
 20
224.648770
 30
0.0
  0
SPLINE
  5
296
100
AcDbEntity
  8
0
 62
7
100
AcDbSpline
 70
8
 71
3
 72
8
 73
4
 74
0
 40
0
 40
0
 40
0
 40
0
 40
1
 40
1
 40
1
 40
1
 10
155.671760
 20
224.648770
 30
0.0
 10
152.676880
 20
221.972250
 30
0.0
 10
149.141270
 20
219.958790
 30
0.0
 10
145.726440
 20
217.844080
 30
0.0
  0
SPLINE
  5
297
100
AcDbEntity
  8
0
 62
7
100
AcDbSpline
 70
8
 71
3
 72
8
 73
4
 74
0
 40
0
 40
0
 40
0
 40
0
 40
1
 40
1
 40
1
 40
1
 10
145.726440
 20
217.844080
 30
0.0
 10
143.489350
 20
216.458710
 30
0.0
 10
141.364620
 20
214.711950
 30
0.0
 10
138.831910
 20
213.998380
 30
0.0
  0
SPLINE
  5
298
100
AcDbEntity
  8
0
 62
7
100
AcDbSpline
 70
8
 71
3
 72
8
 73
4
 74
0
 40
0
 40
0
 40
0
 40
0
 40
1
 40
1
 40
1
 40
1
 10
138.831910
 20
213.998380
 30
0.0
 10
137.781770
 20
213.702510
 30
0.0
 10
136.608530
 20
213.555890
 30
0.0
 10
135.562380
 20
213.865570
 30
0.0
  0
SPLINE
  5
299
100
AcDbEntity
  8
0
 62
7
100
AcDbSpline
 70
8
 71
3
 72
8
 73
4
 74
0
 40
0
 40
0
 40
0
 40
0
 40
1
 40
1
 40
1
 40
1
 10
135.562380
 20
213.865570
 30
0.0
 10
134.907230
 20
214.059500
 30
0.0
 10
134.215970
 20
214.690210
 30
0.0
 10
133.706910
 20
214.308930
 30
0.0
  0
SPLINE
  5
29a
100
AcDbEntity
  8
0
 62
7
100
AcDbSpline
 70
8
 71
3
 72
8
 73
4
 74
0
 40
0
 40
0
 40
0
 40
0
 40
1
 40
1
 40
1
 40
1
 10
133.706910
 20
214.308930
 30
0.0
 10
132.818960
 20
213.643870
 30
0.0
 10
133.662010
 20
212.451500
 30
0.0
 10
133.662010
 20
212.451500
 30
0.0
  0
SPLINE
  5
29b
100
AcDbEntity
  8
0
 62
7
100
AcDbSpline
 70
8
 71
3
 72
8
 73
4
 74
0
 40
0
 40
0
 40
0
 40
0
 40
1
 40
1
 40
1
 40
1
 10
133.662010
 20
212.451500
 30
0.0
 10
133.662010
 20
212.451500
 30
0.0
 10
141.852230
 20
198.534820
 30
0.0
 10
147.398340
 20
192.767910
 30
0.0
  0
SPLINE
  5
29c
100
AcDbEntity
  8
0
 62
7
100
AcDbSpline
 70
8
 71
3
 72
8
 73
4
 74
0
 40
0
 40
0
 40
0
 40
0
 40
1
 40
1
 40
1
 40
1
 10
147.398340
 20
192.767910
 30
0.0
 10
148.594080
 20
191.524570
 30
0.0
 10
150.014610
 20
190.479230
 30
0.0
 10
151.523340
 20
189.642910
 30
0.0
  0
SPLINE
  5
29d
100
AcDbEntity
  8
0
 62
7
100
AcDbSpline
 70
8
 71
3
 72
8
 73
4
 74
0
 40
0
 40
0
 40
0
 40
0
 40
1
 40
1
 40
1
 40
1
 10
151.523340
 20
189.642910
 30
0.0
 10
153.161220
 20
188.735000
 30
0.0
 10
154.947850
 20
188.060690
 30
0.0
 10
156.773340
 20
187.642910
 30
0.0
  0
SPLINE
  5
29e
100
AcDbEntity
  8
0
 62
7
100
AcDbSpline
 70
8
 71
3
 72
8
 73
4
 74
0
 40
0
 40
0
 40
0
 40
0
 40
1
 40
1
 40
1
 40
1
 10
156.773340
 20
187.642910
 30
0.0
 10
159.137840
 20
187.101810
 30
0.0
 10
161.617710
 20
186.707040
 30
0.0
 10
164.023340
 20
187.017910
 30
0.0
  0
SPLINE
  5
29f
100
AcDbEntity
  8
0
 62
7
100
AcDbSpline
 70
8
 71
3
 72
8
 73
4
 74
0
 40
0
 40
0
 40
0
 40
0
 40
1
 40
1
 40
1
 40
1
 10
164.023340
 20
187.017910
 30
0.0
 10
166.480590
 20
187.335450
 30
0.0
 10
168.790890
 20
188.443180
 30
0.0
 10
171.023340
 20
189.517910
 30
0.0
  0
SPLINE
  5
2a0
100
AcDbEntity
  8
0
 62
7
100
AcDbSpline
 70
8
 71
3
 72
8
 73
4
 74
0
 40
0
 40
0
 40
0
 40
0
 40
1
 40
1
 40
1
 40
1
 10
171.023340
 20
189.517910
 30
0.0
 10
172.877820
 20
190.410670
 30
0.0
 10
174.685090
 20
191.458880
 30
0.0
 10
176.273340
 20
192.767910
 30
0.0
  0
SPLINE
  5
2a1
100
AcDbEntity
  8
0
 62
7
100
AcDbSpline
 70
8
 71
3
 72
8
 73
4
 74
0
 40
0
 40
0
 40
0
 40
0
 40
1
 40
1
 40
1
 40
1
 10
176.273340
 20
192.767910
 30
0.0
 10
178.025320
 20
194.211890
 30
0.0
 10
180.898340
 20
197.767910
 30
0.0
 10
180.898340
 20
197.767910
 30
0.0
  0
SPLINE
  5
2a2
100
AcDbEntity
  8
0
 62
7
100
AcDbSpline
 70
8
 71
3
 72
8
 73
4
 74
0
 40
0
 40
0
 40
0
 40
0
 40
1
 40
1
 40
1
 40
1
 10
180.898340
 20
197.767910
 30
0.0
 10
180.898340
 20
197.767910
 30
0.0
 10
166.954220
 20
218.372390
 30
0.0
 10
161.523340
 20
229.517910
 30
0.0
  0
SPLINE
  5
2a3
100
AcDbEntity
  8
0
 62
7
100
AcDbSpline
 70
8
 71
3
 72
8
 73
4
 74
0
 40
0
 40
0
 40
0
 40
0
 40
1
 40
1
 40
1
 40
1
 10
161.523340
 20
229.517910
 30
0.0
 10
161.331510
 20
229.911590
 30
0.0
 10
161.318350
 20
230.393040
 30
0.0
 10
161.062400
 20
230.748380
 30
0.0
  0
SPLINE
  5
2a4
100
AcDbEntity
  8
0
 62
7
100
AcDbSpline
 70
8
 71
3
 72
8
 73
4
 74
0
 40
0
 40
0
 40
0
 40
0
 40
1
 40
1
 40
1
 40
1
 10
161.062400
 20
230.748380
 30
0.0
 10
160.652280
 20
231.317770
 30
0.0
 10
160.127610
 20
232.025150
 30
0.0
 10
159.427630
 20
232.074550
 30
0.0
  0
SPLINE
  5
2a5
100
AcDbEntity
  8
0
 62
7
100
AcDbSpline
 70
8
 71
3
 72
8
 73
4
 74
0
 40
0
 40
0
 40
0
 40
0
 40
1
 40
1
 40
1
 40
1
 10
159.427630
 20
232.074550
 30
0.0
 10
159.368730
 20
232.078550
 30
0.0
 10
159.308780
 20
232.078550
 30
0.0
 10
159.249900
 20
232.076550
 30
0.0
  0
LINE
  5
2a6
100
AcDbEntity
  8
0
 62
7
100
AcDbLine
 10
159.249900
 20
232.076550
 30
0.0
 11
159.249840
 21
232.076500
 31
0.0
  0
SPLINE
  5
2a7
100
AcDbEntity
  8
0
 62
7
100
AcDbSpline
 70
8
 71
3
 72
8
 73
4
 74
0
 40
0
 40
0
 40
0
 40
0
 40
1
 40
1
 40
1
 40
1
 10
158.786950
 20
217.711270
 30
0.0
 10
158.838150
 20
217.713270
 30
0.0
 10
158.889430
 20
217.714270
 30
0.0
 10
158.941250
 20
217.711270
 30
0.0
  0
SPLINE
  5
2a8
100
AcDbEntity
  8
0
 62
7
100
AcDbSpline
 70
8
 71
3
 72
8
 73
4
 74
0
 40
0
 40
0
 40
0
 40
0
 40
1
 40
1
 40
1
 40
1
 10
158.941250
 20
217.711270
 30
0.0
 10
159.614790
 20
217.673570
 30
0.0
 10
160.571460
 20
217.103560
 30
0.0
 10
161.107260
 20
216.693690
 30
0.0
  0
SPLINE
  5
2a9
100
AcDbEntity
  8
0
 62
7
100
AcDbSpline
 70
8
 71
3
 72
8
 73
4
 74
0
 40
0
 40
0
 40
0
 40
0
 40
1
 40
1
 40
1
 40
1
 10
161.107260
 20
216.693690
 30
0.0
 10
162.439940
 20
215.674250
 30
0.0
 10
163.364030
 20
214.572700
 30
0.0
 10
164.333820
 20
213.203460
 30
0.0
  0
SPLINE
  5
2aa
100
AcDbEntity
  8
0
 62
7
100
AcDbSpline
 70
8
 71
3
 72
8
 73
4
 74
0
 40
0
 40
0
 40
0
 40
0
 40
1
 40
1
 40
1
 40
1
 10
164.333820
 20
213.203460
 30
0.0
 10
164.734090
 20
212.638320
 30
0.0
 10
165.114010
 20
211.993190
 30
0.0
 10
165.171720
 20
211.303070
 30
0.0
  0
SPLINE
  5
2ab
100
AcDbEntity
  8
0
 62
7
100
AcDbSpline
 70
8
 71
3
 72
8
 73
4
 74
0
 40
0
 40
0
 40
0
 40
0
 40
1
 40
1
 40
1
 40
1
 10
165.171720
 20
211.303070
 30
0.0
 10
165.241420
 20
210.469910
 30
0.0
 10
164.975340
 20
209.593870
 30
0.0
 10
164.554530
 20
208.871430
 30
0.0
  0
SPLINE
  5
2ac
100
AcDbEntity
  8
0
 62
7
100
AcDbSpline
 70
8
 71
3
 72
8
 73
4
 74
0
 40
0
 40
0
 40
0
 40
0
 40
1
 40
1
 40
1
 40
1
 10
164.554530
 20
208.871430
 30
0.0
 10
163.259250
 20
206.647720
 30
0.0
 10
161.185290
 20
204.862320
 30
0.0
 10
158.986170
 20
203.525720
 30
0.0
  0
SPLINE
  5
2ad
100
AcDbEntity
  8
0
 62
7
100
AcDbSpline
 70
8
 71
3
 72
8
 73
4
 74
0
 40
0
 40
0
 40
0
 40
0
 40
1
 40
1
 40
1
 40
1
 10
158.986170
 20
203.525720
 30
0.0
 10
156.752870
 20
202.168340
 30
0.0
 10
154.160130
 20
201.273470
 30
0.0
 10
151.560390
 20
201.006190
 30
0.0
  0
SPLINE
  5
2ae
100
AcDbEntity
  8
0
 62
7
100
AcDbSpline
 70
8
 71
3
 72
8
 73
4
 74
0
 40
0
 40
0
 40
0
 40
0
 40
1
 40
1
 40
1
 40
1
 10
151.560390
 20
201.006190
 30
0.0
 10
150.718830
 20
200.919690
 30
0.0
 10
149.848690
 20
201.063490
 30
0.0
 10
149.040860
 20
201.314790
 30
0.0
  0
SPLINE
  5
2af
100
AcDbEntity
  8
0
 62
7
100
AcDbSpline
 70
8
 71
3
 72
8
 73
4
 74
0
 40
0
 40
0
 40
0
 40
0
 40
1
 40
1
 40
1
 40
1
 10
149.040860
 20
201.314790
 30
0.0
 10
148.311020
 20
201.541790
 30
0.0
 10
147.578770
 20
201.865180
 30
0.0
 10
147.009610
 20
202.375330
 30
0.0
  0
SPLINE
  5
2b0
100
AcDbEntity
  8
0
 62
7
100
AcDbSpline
 70
8
 71
3
 72
8
 73
4
 74
0
 40
0
 40
0
 40
0
 40
0
 40
1
 40
1
 40
1
 40
1
 10
147.009610
 20
202.375330
 30
0.0
 10
145.570520
 20
203.665230
 30
0.0
 10
144.195540
 20
205.305660
 30
0.0
 10
143.783040
 20
207.193690
 30
0.0
  0
SPLINE
  5
2b1
100
AcDbEntity
  8
0
 62
7
100
AcDbSpline
 70
8
 71
3
 72
8
 73
4
 74
0
 40
0
 40
0
 40
0
 40
0
 40
1
 40
1
 40
1
 40
1
 10
143.783040
 20
207.193690
 30
0.0
 10
143.585570
 20
208.097520
 30
0.0
 10
143.552950
 20
209.297540
 30
0.0
 10
144.224450
 20
209.933930
 30
0.0
  0
SPLINE
  5
2b2
100
AcDbEntity
  8
0
 62
7
100
AcDbSpline
 70
8
 71
3
 72
8
 73
4
 74
0
 40
0
 40
0
 40
0
 40
0
 40
1
 40
1
 40
1
 40
1
 10
144.224450
 20
209.933930
 30
0.0
 10
144.829530
 20
210.507360
 30
0.0
 10
145.902400
 20
209.993930
 30
0.0
 10
146.710780
 20
210.197600
 30
0.0
  0
SPLINE
  5
2b3
100
AcDbEntity
  8
0
 62
7
100
AcDbSpline
 70
8
 71
3
 72
8
 73
4
 74
0
 40
0
 40
0
 40
0
 40
0
 40
1
 40
1
 40
1
 40
1
 10
146.710780
 20
210.197600
 30
0.0
 10
148.866530
 20
210.740650
 30
0.0
 10
151.045420
 20
211.471190
 30
0.0
 10
152.886560
 20
212.717130
 30
0.0
  0
SPLINE
  5
2b4
100
AcDbEntity
  8
0
 62
7
100
AcDbSpline
 70
8
 71
3
 72
8
 73
4
 74
0
 40
0
 40
0
 40
0
 40
0
 40
1
 40
1
 40
1
 40
1
 10
152.886560
 20
212.717130
 30
0.0
 10
154.396500
 20
213.738940
 30
0.0
 10
155.204750
 20
215.589620
 30
0.0
 10
156.687340
 20
216.650720
 30
0.0
  0
SPLINE
  5
2b5
100
AcDbEntity
  8
0
 62
7
100
AcDbSpline
 70
8
 71
3
 72
8
 73
4
 74
0
 40
0
 40
0
 40
0
 40
0
 40
1
 40
1
 40
1
 40
1
 10
156.687340
 20
216.650720
 30
0.0
 10
157.320360
 20
217.103780
 30
0.0
 10
158.019010
 20
217.679200
 30
0.0
 10
158.786950
 20
217.711270
 30
0.0
  0
LINE
  5
2b6
100
AcDbEntity
  8
0
 62
7
100
AcDbLine
 10
158.786950
 20
217.711270
 30
0.0
 11
158.786950
 21
217.711270
 31
0.0
  0
SPLINE
  5
2b7
100
AcDbEntity
  8
0
 62
7
100
AcDbSpline
 70
8
 71
3
 72
8
 73
4
 74
0
 40
0
 40
0
 40
0
 40
0
 40
1
 40
1
 40
1
 40
1
 10
171.773280
 20
200.480800
 30
0.0
 10
172.568929
 20
200.480800
 30
0.0
 10
173.331991
 20
200.164729
 30
0.0
 10
173.894600
 20
199.602120
 30
0.0
  0
SPLINE
  5
2b8
100
AcDbEntity
  8
0
 62
7
100
AcDbSpline
 70
8
 71
3
 72
8
 73
4
 74
0
 40
0
 40
0
 40
0
 40
0
 40
1
 40
1
 40
1
 40
1
 10
173.894600
 20
199.602120
 30
0.0
 10
174.457209
 20
199.039511
 30
0.0
 10
174.773280
 20
198.276449
 30
0.0
 10
174.773280
 20
197.480800
 30
0.0
  0
SPLINE
  5
2b9
100
AcDbEntity
  8
0
 62
7
100
AcDbSpline
 70
8
 71
3
 72
8
 73
4
 74
0
 40
0
 40
0
 40
0
 40
0
 40
1
 40
1
 40
1
 40
1
 10
174.773280
 20
197.480800
 30
0.0
 10
174.773280
 20
196.685151
 30
0.0
 10
174.457209
 20
195.922089
 30
0.0
 10
173.894600
 20
195.359480
 30
0.0
  0
SPLINE
  5
2ba
100
AcDbEntity
  8
0
 62
7
100
AcDbSpline
 70
8
 71
3
 72
8
 73
4
 74
0
 40
0
 40
0
 40
0
 40
0
 40
1
 40
1
 40
1
 40
1
 10
173.894600
 20
195.359480
 30
0.0
 10
173.331991
 20
194.796871
 30
0.0
 10
172.568929
 20
194.480800
 30
0.0
 10
171.773280
 20
194.480800
 30
0.0
  0
SPLINE
  5
2bb
100
AcDbEntity
  8
0
 62
7
100
AcDbSpline
 70
8
 71
3
 72
8
 73
4
 74
0
 40
0
 40
0
 40
0
 40
0
 40
1
 40
1
 40
1
 40
1
 10
171.773280
 20
194.480800
 30
0.0
 10
170.977631
 20
194.480800
 30
0.0
 10
170.214569
 20
194.796871
 30
0.0
 10
169.651960
 20
195.359480
 30
0.0
  0
SPLINE
  5
2bc
100
AcDbEntity
  8
0
 62
7
100
AcDbSpline
 70
8
 71
3
 72
8
 73
4
 74
0
 40
0
 40
0
 40
0
 40
0
 40
1
 40
1
 40
1
 40
1
 10
169.651960
 20
195.359480
 30
0.0
 10
169.089351
 20
195.922089
 30
0.0
 10
168.773280
 20
196.685151
 30
0.0
 10
168.773280
 20
197.480800
 30
0.0
  0
SPLINE
  5
2bd
100
AcDbEntity
  8
0
 62
7
100
AcDbSpline
 70
8
 71
3
 72
8
 73
4
 74
0
 40
0
 40
0
 40
0
 40
0
 40
1
 40
1
 40
1
 40
1
 10
168.773280
 20
197.480800
 30
0.0
 10
168.773280
 20
198.276449
 30
0.0
 10
169.089351
 20
199.039511
 30
0.0
 10
169.651960
 20
199.602120
 30
0.0
  0
SPLINE
  5
2be
100
AcDbEntity
  8
0
 62
7
100
AcDbSpline
 70
8
 71
3
 72
8
 73
4
 74
0
 40
0
 40
0
 40
0
 40
0
 40
1
 40
1
 40
1
 40
1
 10
169.651960
 20
199.602120
 30
0.0
 10
170.214569
 20
200.164729
 30
0.0
 10
170.977631
 20
200.480800
 30
0.0
 10
171.773280
 20
200.480800
 30
0.0
  0
LINE
  5
2bf
100
AcDbEntity
  8
0
 62
7
100
AcDbLine
 10
171.773280
 20
200.480800
 30
0.0
 11
171.773280
 21
200.480800
 31
0.0
  0
SPLINE
  5
2c0
100
AcDbEntity
  8
0
 62
7
100
AcDbSpline
 70
8
 71
3
 72
8
 73
4
 74
0
 40
0
 40
0
 40
0
 40
0
 40
1
 40
1
 40
1
 40
1
 10
163.210780
 20
195.424160
 30
0.0
 10
164.006429
 20
195.424160
 30
0.0
 10
164.769491
 20
195.108089
 30
0.0
 10
165.332100
 20
194.545480
 30
0.0
  0
SPLINE
  5
2c1
100
AcDbEntity
  8
0
 62
7
100
AcDbSpline
 70
8
 71
3
 72
8
 73
4
 74
0
 40
0
 40
0
 40
0
 40
0
 40
1
 40
1
 40
1
 40
1
 10
165.332100
 20
194.545480
 30
0.0
 10
165.894709
 20
193.982871
 30
0.0
 10
166.210780
 20
193.219809
 30
0.0
 10
166.210780
 20
192.424160
 30
0.0
  0
SPLINE
  5
2c2
100
AcDbEntity
  8
0
 62
7
100
AcDbSpline
 70
8
 71
3
 72
8
 73
4
 74
0
 40
0
 40
0
 40
0
 40
0
 40
1
 40
1
 40
1
 40
1
 10
166.210780
 20
192.424160
 30
0.0
 10
166.210780
 20
191.628511
 30
0.0
 10
165.894709
 20
190.865449
 30
0.0
 10
165.332100
 20
190.302840
 30
0.0
  0
SPLINE
  5
2c3
100
AcDbEntity
  8
0
 62
7
100
AcDbSpline
 70
8
 71
3
 72
8
 73
4
 74
0
 40
0
 40
0
 40
0
 40
0
 40
1
 40
1
 40
1
 40
1
 10
165.332100
 20
190.302840
 30
0.0
 10
164.769491
 20
189.740231
 30
0.0
 10
164.006429
 20
189.424160
 30
0.0
 10
163.210780
 20
189.424160
 30
0.0
  0
SPLINE
  5
2c4
100
AcDbEntity
  8
0
 62
7
100
AcDbSpline
 70
8
 71
3
 72
8
 73
4
 74
0
 40
0
 40
0
 40
0
 40
0
 40
1
 40
1
 40
1
 40
1
 10
163.210780
 20
189.424160
 30
0.0
 10
162.415131
 20
189.424160
 30
0.0
 10
161.652069
 20
189.740231
 30
0.0
 10
161.089460
 20
190.302840
 30
0.0
  0
SPLINE
  5
2c5
100
AcDbEntity
  8
0
 62
7
100
AcDbSpline
 70
8
 71
3
 72
8
 73
4
 74
0
 40
0
 40
0
 40
0
 40
0
 40
1
 40
1
 40
1
 40
1
 10
161.089460
 20
190.302840
 30
0.0
 10
160.526851
 20
190.865449
 30
0.0
 10
160.210780
 20
191.628511
 30
0.0
 10
160.210780
 20
192.424160
 30
0.0
  0
SPLINE
  5
2c6
100
AcDbEntity
  8
0
 62
7
100
AcDbSpline
 70
8
 71
3
 72
8
 73
4
 74
0
 40
0
 40
0
 40
0
 40
0
 40
1
 40
1
 40
1
 40
1
 10
160.210780
 20
192.424160
 30
0.0
 10
160.210780
 20
193.219809
 30
0.0
 10
160.526851
 20
193.982871
 30
0.0
 10
161.089460
 20
194.545480
 30
0.0
  0
SPLINE
  5
2c7
100
AcDbEntity
  8
0
 62
7
100
AcDbSpline
 70
8
 71
3
 72
8
 73
4
 74
0
 40
0
 40
0
 40
0
 40
0
 40
1
 40
1
 40
1
 40
1
 10
161.089460
 20
194.545480
 30
0.0
 10
161.652069
 20
195.108089
 30
0.0
 10
162.415131
 20
195.424160
 30
0.0
 10
163.210780
 20
195.424160
 30
0.0
  0
LINE
  5
2c8
100
AcDbEntity
  8
0
 62
7
100
AcDbLine
 10
163.210780
 20
195.424160
 30
0.0
 11
163.210780
 21
195.424160
 31
0.0
  0
SPLINE
  5
2c9
100
AcDbEntity
  8
0
 62
7
100
AcDbSpline
 70
8
 71
3
 72
8
 73
4
 74
0
 40
0
 40
0
 40
0
 40
0
 40
1
 40
1
 40
1
 40
1
 10
81.926105
 20
124.738140
 30
0.0
 10
70.782805
 20
124.738140
 30
0.0
 10
59.639435
 20
121.856390
 30
0.0
 10
49.654635
 20
116.091650
 30
0.0
  0
SPLINE
  5
2ca
100
AcDbEntity
  8
0
 62
7
100
AcDbSpline
 70
8
 71
3
 72
8
 73
4
 74
0
 40
0
 40
0
 40
0
 40
0
 40
1
 40
1
 40
1
 40
1
 10
49.654635
 20
116.091650
 30
0.0
 10
49.654635
 20
116.091650
 30
0.0
 10
46.251605
 20
113.947080
 30
0.0
 10
48.107755
 20
110.738140
 30
0.0
  0
SPLINE
  5
2cb
100
AcDbEntity
  8
0
 62
7
100
AcDbSpline
 70
8
 71
3
 72
8
 73
4
 74
0
 40
0
 40
0
 40
0
 40
0
 40
1
 40
1
 40
1
 40
1
 10
48.107755
 20
110.738140
 30
0.0
 10
49.963915
 20
107.529200
 30
0.0
 10
53.377285
 20
109.642430
 30
0.0
 10
53.377285
 20
109.642430
 30
0.0
  0
SPLINE
  5
2cc
100
AcDbEntity
  8
0
 62
7
100
AcDbSpline
 70
8
 71
3
 72
8
 73
4
 74
0
 40
0
 40
0
 40
0
 40
0
 40
1
 40
1
 40
1
 40
1
 10
53.377285
 20
109.642430
 30
0.0
 10
71.042705
 20
119.841570
 30
0.0
 10
92.807555
 20
119.841570
 30
0.0
 10
110.472990
 20
109.642430
 30
0.0
  0
SPLINE
  5
2cd
100
AcDbEntity
  8
0
 62
7
100
AcDbSpline
 70
8
 71
3
 72
8
 73
4
 74
0
 40
0
 40
0
 40
0
 40
0
 40
1
 40
1
 40
1
 40
1
 10
110.472990
 20
109.642430
 30
0.0
 10
110.472990
 20
109.642430
 30
0.0
 10
113.874760
 20
107.713370
 30
0.0
 10
115.726880
 20
110.908060
 30
0.0
  0
SPLINE
  5
2ce
100
AcDbEntity
  8
0
 62
7
100
AcDbSpline
 70
8
 71
3
 72
8
 73
4
 74
0
 40
0
 40
0
 40
0
 40
0
 40
1
 40
1
 40
1
 40
1
 10
115.726880
 20
110.908060
 30
0.0
 10
117.579010
 20
114.102750
 30
0.0
 10
114.197590
 20
116.091650
 30
0.0
 10
114.197590
 20
116.091650
 30
0.0
  0
SPLINE
  5
2cf
100
AcDbEntity
  8
0
 62
7
100
AcDbSpline
 70
8
 71
3
 72
8
 73
4
 74
0
 40
0
 40
0
 40
0
 40
0
 40
1
 40
1
 40
1
 40
1
 10
114.197590
 20
116.091650
 30
0.0
 10
104.212790
 20
121.856390
 30
0.0
 10
93.069415
 20
124.738140
 30
0.0
 10
81.926105
 20
124.738140
 30
0.0
  0
LINE
  5
2d0
100
AcDbEntity
  8
0
 62
7
100
AcDbLine
 10
81.926105
 20
124.738140
 30
0.0
 11
81.926105
 21
124.738140
 31
0.0
  0
SPLINE
  5
2d1
100
AcDbEntity
  8
0
 62
7
100
AcDbSpline
 70
8
 71
3
 72
8
 73
4
 74
0
 40
0
 40
0
 40
0
 40
0
 40
1
 40
1
 40
1
 40
1
 10
81.926105
 20
109.843610
 30
0.0
 10
73.354335
 20
109.843610
 30
0.0
 10
64.782515
 20
107.625670
 30
0.0
 10
57.101885
 20
103.191260
 30
0.0
  0
SPLINE
  5
2d2
100
AcDbEntity
  8
0
 62
7
100
AcDbSpline
 70
8
 71
3
 72
8
 73
4
 74
0
 40
0
 40
0
 40
0
 40
0
 40
1
 40
1
 40
1
 40
1
 10
57.101885
 20
103.191260
 30
0.0
 10
57.101885
 20
103.191260
 30
0.0
 10
53.757655
 20
101.097650
 30
0.0
 10
55.619465
 20
97.872900
 30
0.0
  0
SPLINE
  5
2d3
100
AcDbEntity
  8
0
 62
7
100
AcDbSpline
 70
8
 71
3
 72
8
 73
4
 74
0
 40
0
 40
0
 40
0
 40
0
 40
1
 40
1
 40
1
 40
1
 10
55.619465
 20
97.872900
 30
0.0
 10
57.481275
 20
94.648140
 30
0.0
 10
60.824545
 20
96.742040
 30
0.0
 10
60.824545
 20
96.742040
 30
0.0
  0
SPLINE
  5
2d4
100
AcDbEntity
  8
0
 62
7
100
AcDbSpline
 70
8
 71
3
 72
8
 73
4
 74
0
 40
0
 40
0
 40
0
 40
0
 40
1
 40
1
 40
1
 40
1
 10
60.824545
 20
96.742040
 30
0.0
 10
73.881605
 20
104.280540
 30
0.0
 10
89.968655
 20
104.280540
 30
0.0
 10
103.025710
 20
96.742040
 30
0.0
  0
SPLINE
  5
2d5
100
AcDbEntity
  8
0
 62
7
100
AcDbSpline
 70
8
 71
3
 72
8
 73
4
 74
0
 40
0
 40
0
 40
0
 40
0
 40
1
 40
1
 40
1
 40
1
 10
103.025710
 20
96.742040
 30
0.0
 10
103.025710
 20
96.742040
 30
0.0
 10
106.620930
 20
94.460640
 30
0.0
 10
108.482740
 20
97.685400
 30
0.0
  0
SPLINE
  5
2d6
100
AcDbEntity
  8
0
 62
7
100
AcDbSpline
 70
8
 71
3
 72
8
 73
4
 74
0
 40
0
 40
0
 40
0
 40
0
 40
1
 40
1
 40
1
 40
1
 10
108.482740
 20
97.685400
 30
0.0
 10
110.344560
 20
100.910150
 30
0.0
 10
106.750320
 20
103.191260
 30
0.0
 10
106.750320
 20
103.191260
 30
0.0
  0
SPLINE
  5
2d7
100
AcDbEntity
  8
0
 62
7
100
AcDbSpline
 70
8
 71
3
 72
8
 73
4
 74
0
 40
0
 40
0
 40
0
 40
0
 40
1
 40
1
 40
1
 40
1
 10
106.750320
 20
103.191260
 30
0.0
 10
99.069705
 20
107.625670
 30
0.0
 10
90.497875
 20
109.843610
 30
0.0
 10
81.926105
 20
109.843610
 30
0.0
  0
LINE
  5
2d8
100
AcDbEntity
  8
0
 62
7
100
AcDbLine
 10
81.926105
 20
109.843610
 30
0.0
 11
81.926105
 21
109.843610
 31
0.0
  0
SPLINE
  5
2d9
100
AcDbEntity
  8
0
 62
7
100
AcDbSpline
 70
8
 71
3
 72
8
 73
4
 74
0
 40
0
 40
0
 40
0
 40
0
 40
1
 40
1
 40
1
 40
1
 10
81.926105
 20
0.250000
 30
0.0
 10
70.782805
 20
0.250000
 30
0.0
 10
59.639435
 20
3.131750
 30
0.0
 10
49.654635
 20
8.896490
 30
0.0
  0
SPLINE
  5
2da
100
AcDbEntity
  8
0
 62
7
100
AcDbSpline
 70
8
 71
3
 72
8
 73
4
 74
0
 40
0
 40
0
 40
0
 40
0
 40
1
 40
1
 40
1
 40
1
 10
49.654635
 20
8.896490
 30
0.0
 10
49.654635
 20
8.896490
 30
0.0
 10
46.251605
 20
11.041060
 30
0.0
 10
48.107755
 20
14.250010
 30
0.0
  0
SPLINE
  5
2db
100
AcDbEntity
  8
0
 62
7
100
AcDbSpline
 70
8
 71
3
 72
8
 73
4
 74
0
 40
0
 40
0
 40
0
 40
0
 40
1
 40
1
 40
1
 40
1
 10
48.107755
 20
14.250010
 30
0.0
 10
49.963915
 20
17.458940
 30
0.0
 10
53.377285
 20
15.345720
 30
0.0
 10
53.377285
 20
15.345720
 30
0.0
  0
SPLINE
  5
2dc
100
AcDbEntity
  8
0
 62
7
100
AcDbSpline
 70
8
 71
3
 72
8
 73
4
 74
0
 40
0
 40
0
 40
0
 40
0
 40
1
 40
1
 40
1
 40
1
 10
53.377285
 20
15.345720
 30
0.0
 10
71.042715
 20
5.146580
 30
0.0
 10
92.807565
 20
5.146580
 30
0.0
 10
110.472990
 20
15.345720
 30
0.0
  0
SPLINE
  5
2dd
100
AcDbEntity
  8
0
 62
7
100
AcDbSpline
 70
8
 71
3
 72
8
 73
4
 74
0
 40
0
 40
0
 40
0
 40
0
 40
1
 40
1
 40
1
 40
1
 10
110.472990
 20
15.345720
 30
0.0
 10
110.472990
 20
15.345720
 30
0.0
 10
113.874760
 20
17.274770
 30
0.0
 10
115.726890
 20
14.080090
 30
0.0
  0
SPLINE
  5
2de
100
AcDbEntity
  8
0
 62
7
100
AcDbSpline
 70
8
 71
3
 72
8
 73
4
 74
0
 40
0
 40
0
 40
0
 40
0
 40
1
 40
1
 40
1
 40
1
 10
115.726890
 20
14.080090
 30
0.0
 10
117.579010
 20
10.885400
 30
0.0
 10
114.197600
 20
8.896500
 30
0.0
 10
114.197600
 20
8.896500
 30
0.0
  0
SPLINE
  5
2df
100
AcDbEntity
  8
0
 62
7
100
AcDbSpline
 70
8
 71
3
 72
8
 73
4
 74
0
 40
0
 40
0
 40
0
 40
0
 40
1
 40
1
 40
1
 40
1
 10
114.197600
 20
8.896500
 30
0.0
 10
104.212790
 20
3.131760
 30
0.0
 10
93.069425
 20
0.250010
 30
0.0
 10
81.926105
 20
0.250000
 30
0.0
  0
LINE
  5
2e0
100
AcDbEntity
  8
0
 62
7
100
AcDbLine
 10
81.926105
 20
0.250000
 30
0.0
 11
81.926105
 21
0.250000
 31
0.0
  0
SPLINE
  5
2e1
100
AcDbEntity
  8
0
 62
7
100
AcDbSpline
 70
8
 71
3
 72
8
 73
4
 74
0
 40
0
 40
0
 40
0
 40
0
 40
1
 40
1
 40
1
 40
1
 10
81.926105
 20
15.144530
 30
0.0
 10
73.354335
 20
15.144530
 30
0.0
 10
64.782515
 20
17.362470
 30
0.0
 10
57.101885
 20
21.796880
 30
0.0
  0
SPLINE
  5
2e2
100
AcDbEntity
  8
0
 62
7
100
AcDbSpline
 70
8
 71
3
 72
8
 73
4
 74
0
 40
0
 40
0
 40
0
 40
0
 40
1
 40
1
 40
1
 40
1
 10
57.101885
 20
21.796880
 30
0.0
 10
57.101885
 20
21.796880
 30
0.0
 10
53.757655
 20
23.890490
 30
0.0
 10
55.619465
 20
27.115240
 30
0.0
  0
SPLINE
  5
2e3
100
AcDbEntity
  8
0
 62
7
100
AcDbSpline
 70
8
 71
3
 72
8
 73
4
 74
0
 40
0
 40
0
 40
0
 40
0
 40
1
 40
1
 40
1
 40
1
 10
55.619465
 20
27.115240
 30
0.0
 10
57.481275
 20
30.340000
 30
0.0
 10
60.824545
 20
28.246100
 30
0.0
 10
60.824545
 20
28.246100
 30
0.0
  0
SPLINE
  5
2e4
100
AcDbEntity
  8
0
 62
7
100
AcDbSpline
 70
8
 71
3
 72
8
 73
4
 74
0
 40
0
 40
0
 40
0
 40
0
 40
1
 40
1
 40
1
 40
1
 10
60.824545
 20
28.246100
 30
0.0
 10
73.881605
 20
20.707600
 30
0.0
 10
89.968655
 20
20.707600
 30
0.0
 10
103.025710
 20
28.246100
 30
0.0
  0
SPLINE
  5
2e5
100
AcDbEntity
  8
0
 62
7
100
AcDbSpline
 70
8
 71
3
 72
8
 73
4
 74
0
 40
0
 40
0
 40
0
 40
0
 40
1
 40
1
 40
1
 40
1
 10
103.025710
 20
28.246100
 30
0.0
 10
103.025710
 20
28.246100
 30
0.0
 10
106.620930
 20
30.527500
 30
0.0
 10
108.482740
 20
27.302740
 30
0.0
  0
SPLINE
  5
2e6
100
AcDbEntity
  8
0
 62
7
100
AcDbSpline
 70
8
 71
3
 72
8
 73
4
 74
0
 40
0
 40
0
 40
0
 40
0
 40
1
 40
1
 40
1
 40
1
 10
108.482740
 20
27.302740
 30
0.0
 10
110.344560
 20
24.077990
 30
0.0
 10
106.750320
 20
21.796880
 30
0.0
 10
106.750320
 20
21.796880
 30
0.0
  0
SPLINE
  5
2e7
100
AcDbEntity
  8
0
 62
7
100
AcDbSpline
 70
8
 71
3
 72
8
 73
4
 74
0
 40
0
 40
0
 40
0
 40
0
 40
1
 40
1
 40
1
 40
1
 10
106.750320
 20
21.796880
 30
0.0
 10
99.069705
 20
17.362470
 30
0.0
 10
90.497875
 20
15.144530
 30
0.0
 10
81.926105
 20
15.144530
 30
0.0
  0
LINE
  5
2e8
100
AcDbEntity
  8
0
 62
7
100
AcDbLine
 10
81.926105
 20
15.144530
 30
0.0
 11
81.926105
 21
15.144530
 31
0.0
  0
ENDSEC
  0
SECTION
  2
OBJECTS
  0
DICTIONARY
  5
C
330
0
100
AcDbDictionary
  3
ACAD_GROUP
350
D
  3
ACAD_MLINESTYLE
350
17
  0
DICTIONARY
  5
D
330
C
100
AcDbDictionary
  0
DICTIONARY
  5
1A
330
C
100
AcDbDictionary
  0
DICTIONARY
  5
17
330
C
100
AcDbDictionary
  3
STANDARD
350
18
  0
DICTIONARY
  5
19
330
C
100
AcDbDictionary
  0
ENDSEC
  0
EOF
