ISO-10303-21;
HEADER;
FILE_DESCRIPTION(('FreeCAD Model'),'2;1');
FILE_NAME('Open CASCADE Shape Model','2026-08-13T14:27:15',(''),(''),
  'Open CASCADE STEP processor 7.8','FreeCAD','Unknown');
FILE_SCHEMA((
'AP242_MANAGED_MODEL_BASED_3D_ENGINEERING_MIM_LF. {1 0 10303 442 1 1 4 
}'));
ENDSEC;
DATA;
#1 = APPLICATION_PROTOCOL_DEFINITION('international standard',
  'ap242_managed_model_based_3d_engineering',2013,#2);
#2 = APPLICATION_CONTEXT('Managed model based 3d engineering');
#3 = SHAPE_DEFINITION_REPRESENTATION(#4,#10);
#4 = PRODUCT_DEFINITION_SHAPE('','',#5);
#5 = PRODUCT_DEFINITION('design','',#6,#9);
#6 = PRODUCT_DEFINITION_FORMATION('','',#7);
#7 = PRODUCT('Body004','Body004','',(#8));
#8 = PRODUCT_CONTEXT('',#2,'mechanical');
#9 = PRODUCT_DEFINITION_CONTEXT('part definition',#2,'design');
#10 = ADVANCED_BREP_SHAPE_REPRESENTATION('',(#11,#15),#713);
#11 = AXIS2_PLACEMENT_3D('',#12,#13,#14);
#12 = CARTESIAN_POINT('',(0.,0.,0.));
#13 = DIRECTION('',(0.,0.,1.));
#14 = DIRECTION('',(1.,0.,-0.));
#15 = MANIFOLD_SOLID_BREP('',#16);
#16 = CLOSED_SHELL('',(#17,#57,#88,#121,#152,#183,#216,#247,#278,#311,
    #342,#373,#406,#439,#472,#503,#536,#567,#600,#633,#657,#685));
#17 = ADVANCED_FACE('',(#18),#52,.T.);
#18 = FACE_BOUND('',#19,.T.);
#19 = EDGE_LOOP('',(#20,#30,#38,#46));
#20 = ORIENTED_EDGE('',*,*,#21,.T.);
#21 = EDGE_CURVE('',#22,#24,#26,.T.);
#22 = VERTEX_POINT('',#23);
#23 = CARTESIAN_POINT('',(-7.141778489984,-148.2050807569,39.5));
#24 = VERTEX_POINT('',#25);
#25 = CARTESIAN_POINT('',(-7.141778489984,-148.2050807569,44.2));
#26 = LINE('',#27,#28);
#27 = CARTESIAN_POINT('',(-7.141778489984,-148.2050807569,39.5));
#28 = VECTOR('',#29,1.);
#29 = DIRECTION('',(0.,0.,1.));
#30 = ORIENTED_EDGE('',*,*,#31,.T.);
#31 = EDGE_CURVE('',#24,#32,#34,.T.);
#32 = VERTEX_POINT('',#33);
#33 = CARTESIAN_POINT('',(-7.141778489984,-153.5633022669,44.2));
#34 = LINE('',#35,#36);
#35 = CARTESIAN_POINT('',(-7.141778489984,-148.2050807569,44.2));
#36 = VECTOR('',#37,1.);
#37 = DIRECTION('',(0.,-1.,0.));
#38 = ORIENTED_EDGE('',*,*,#39,.F.);
#39 = EDGE_CURVE('',#40,#32,#42,.T.);
#40 = VERTEX_POINT('',#41);
#41 = CARTESIAN_POINT('',(-7.141778489984,-153.5633022669,39.5));
#42 = LINE('',#43,#44);
#43 = CARTESIAN_POINT('',(-7.141778489984,-153.5633022669,39.5));
#44 = VECTOR('',#45,1.);
#45 = DIRECTION('',(0.,0.,1.));
#46 = ORIENTED_EDGE('',*,*,#47,.F.);
#47 = EDGE_CURVE('',#22,#40,#48,.T.);
#48 = LINE('',#49,#50);
#49 = CARTESIAN_POINT('',(-7.141778489984,-148.2050807569,39.5));
#50 = VECTOR('',#51,1.);
#51 = DIRECTION('',(0.,-1.,0.));
#52 = PLANE('',#53);
#53 = AXIS2_PLACEMENT_3D('',#54,#55,#56);
#54 = CARTESIAN_POINT('',(-7.141778489984,-148.2050807569,39.5));
#55 = DIRECTION('',(1.,0.,0.));
#56 = DIRECTION('',(0.,-1.,0.));
#57 = ADVANCED_FACE('',(#58),#83,.T.);
#58 = FACE_BOUND('',#59,.T.);
#59 = EDGE_LOOP('',(#60,#61,#69,#77));
#60 = ORIENTED_EDGE('',*,*,#39,.T.);
#61 = ORIENTED_EDGE('',*,*,#62,.T.);
#62 = EDGE_CURVE('',#32,#63,#65,.T.);
#63 = VERTEX_POINT('',#64);
#64 = CARTESIAN_POINT('',(-6.,-156.8320974106,44.2));
#65 = LINE('',#66,#67);
#66 = CARTESIAN_POINT('',(-7.141778489984,-153.5633022669,44.2));
#67 = VECTOR('',#68,1.);
#68 = DIRECTION('',(0.329758634711,-0.944065274668,0.));
#69 = ORIENTED_EDGE('',*,*,#70,.F.);
#70 = EDGE_CURVE('',#71,#63,#73,.T.);
#71 = VERTEX_POINT('',#72);
#72 = CARTESIAN_POINT('',(-6.,-156.8320974106,39.5));
#73 = LINE('',#74,#75);
#74 = CARTESIAN_POINT('',(-6.,-156.8320974106,39.5));
#75 = VECTOR('',#76,1.);
#76 = DIRECTION('',(0.,0.,1.));
#77 = ORIENTED_EDGE('',*,*,#78,.F.);
#78 = EDGE_CURVE('',#40,#71,#79,.T.);
#79 = LINE('',#80,#81);
#80 = CARTESIAN_POINT('',(-7.141778489984,-153.5633022669,39.5));
#81 = VECTOR('',#82,1.);
#82 = DIRECTION('',(0.329758634711,-0.944065274668,0.));
#83 = PLANE('',#84);
#84 = AXIS2_PLACEMENT_3D('',#85,#86,#87);
#85 = CARTESIAN_POINT('',(-7.141778489984,-153.5633022669,39.5));
#86 = DIRECTION('',(0.944065274668,0.329758634711,0.));
#87 = DIRECTION('',(0.329758634711,-0.944065274668,0.));
#88 = ADVANCED_FACE('',(#89),#116,.F.);
#89 = FACE_BOUND('',#90,.T.);
#90 = EDGE_LOOP('',(#91,#92,#101,#109));
#91 = ORIENTED_EDGE('',*,*,#70,.T.);
#92 = ORIENTED_EDGE('',*,*,#93,.T.);
#93 = EDGE_CURVE('',#63,#94,#96,.T.);
#94 = VERTEX_POINT('',#95);
#95 = CARTESIAN_POINT('',(-6.,-164.578064103,44.2));
#96 = CIRCLE('',#97,8.);
#97 = AXIS2_PLACEMENT_3D('',#98,#99,#100);
#98 = CARTESIAN_POINT('',(1.,-160.7050807568,44.2));
#99 = DIRECTION('',(0.,0.,1.));
#100 = DIRECTION('',(1.,0.,0.));
#101 = ORIENTED_EDGE('',*,*,#102,.F.);
#102 = EDGE_CURVE('',#103,#94,#105,.T.);
#103 = VERTEX_POINT('',#104);
#104 = CARTESIAN_POINT('',(-6.,-164.578064103,39.5));
#105 = LINE('',#106,#107);
#106 = CARTESIAN_POINT('',(-6.,-164.578064103,39.5));
#107 = VECTOR('',#108,1.);
#108 = DIRECTION('',(0.,0.,1.));
#109 = ORIENTED_EDGE('',*,*,#110,.F.);
#110 = EDGE_CURVE('',#71,#103,#111,.T.);
#111 = CIRCLE('',#112,8.);
#112 = AXIS2_PLACEMENT_3D('',#113,#114,#115);
#113 = CARTESIAN_POINT('',(1.,-160.7050807568,39.5));
#114 = DIRECTION('',(0.,0.,1.));
#115 = DIRECTION('',(1.,0.,0.));
#116 = CYLINDRICAL_SURFACE('',#117,8.);
#117 = AXIS2_PLACEMENT_3D('',#118,#119,#120);
#118 = CARTESIAN_POINT('',(1.,-160.7050807568,39.5));
#119 = DIRECTION('',(-0.,-0.,-1.));
#120 = DIRECTION('',(1.,0.,0.));
#121 = ADVANCED_FACE('',(#122),#147,.F.);
#122 = FACE_BOUND('',#123,.F.);
#123 = EDGE_LOOP('',(#124,#134,#140,#141));
#124 = ORIENTED_EDGE('',*,*,#125,.T.);
#125 = EDGE_CURVE('',#126,#128,#130,.T.);
#126 = VERTEX_POINT('',#127);
#127 = CARTESIAN_POINT('',(-7.141778489984,-167.8468592468,39.5));
#128 = VERTEX_POINT('',#129);
#129 = CARTESIAN_POINT('',(-7.141778489984,-167.8468592468,44.2));
#130 = LINE('',#131,#132);
#131 = CARTESIAN_POINT('',(-7.141778489984,-167.8468592468,39.5));
#132 = VECTOR('',#133,1.);
#133 = DIRECTION('',(0.,0.,1.));
#134 = ORIENTED_EDGE('',*,*,#135,.T.);
#135 = EDGE_CURVE('',#128,#94,#136,.T.);
#136 = LINE('',#137,#138);
#137 = CARTESIAN_POINT('',(-7.141778489984,-167.8468592468,44.2));
#138 = VECTOR('',#139,1.);
#139 = DIRECTION('',(0.329758634708,0.944065274669,0.));
#140 = ORIENTED_EDGE('',*,*,#102,.F.);
#141 = ORIENTED_EDGE('',*,*,#142,.F.);
#142 = EDGE_CURVE('',#126,#103,#143,.T.);
#143 = LINE('',#144,#145);
#144 = CARTESIAN_POINT('',(-7.141778489984,-167.8468592468,39.5));
#145 = VECTOR('',#146,1.);
#146 = DIRECTION('',(0.329758634708,0.944065274669,0.));
#147 = PLANE('',#148);
#148 = AXIS2_PLACEMENT_3D('',#149,#150,#151);
#149 = CARTESIAN_POINT('',(-7.141778489984,-167.8468592468,39.5));
#150 = DIRECTION('',(-0.944065274669,0.329758634708,0.));
#151 = DIRECTION('',(0.329758634708,0.944065274669,0.));
#152 = ADVANCED_FACE('',(#153),#178,.F.);
#153 = FACE_BOUND('',#154,.F.);
#154 = EDGE_LOOP('',(#155,#165,#171,#172));
#155 = ORIENTED_EDGE('',*,*,#156,.T.);
#156 = EDGE_CURVE('',#157,#159,#161,.T.);
#157 = VERTEX_POINT('',#158);
#158 = CARTESIAN_POINT('',(-7.141778489984,-171.9766386022,39.5));
#159 = VERTEX_POINT('',#160);
#160 = CARTESIAN_POINT('',(-7.141778489984,-171.9766386022,44.2));
#161 = LINE('',#162,#163);
#162 = CARTESIAN_POINT('',(-7.141778489984,-171.9766386022,39.5));
#163 = VECTOR('',#164,1.);
#164 = DIRECTION('',(0.,0.,1.));
#165 = ORIENTED_EDGE('',*,*,#166,.T.);
#166 = EDGE_CURVE('',#159,#128,#167,.T.);
#167 = LINE('',#168,#169);
#168 = CARTESIAN_POINT('',(-7.141778489984,-171.9766386022,44.2));
#169 = VECTOR('',#170,1.);
#170 = DIRECTION('',(-1.182867385401E-14,1.,0.));
#171 = ORIENTED_EDGE('',*,*,#125,.F.);
#172 = ORIENTED_EDGE('',*,*,#173,.F.);
#173 = EDGE_CURVE('',#157,#126,#174,.T.);
#174 = LINE('',#175,#176);
#175 = CARTESIAN_POINT('',(-7.141778489984,-171.9766386022,39.5));
#176 = VECTOR('',#177,1.);
#177 = DIRECTION('',(-1.182867385401E-14,1.,0.));
#178 = PLANE('',#179);
#179 = AXIS2_PLACEMENT_3D('',#180,#181,#182);
#180 = CARTESIAN_POINT('',(-7.141778489984,-171.9766386022,39.5));
#181 = DIRECTION('',(-1.,-1.182867385401E-14,0.));
#182 = DIRECTION('',(-1.182867385401E-14,1.,0.));
#183 = ADVANCED_FACE('',(#184),#211,.F.);
#184 = FACE_BOUND('',#185,.T.);
#185 = EDGE_LOOP('',(#186,#187,#196,#204));
#186 = ORIENTED_EDGE('',*,*,#156,.T.);
#187 = ORIENTED_EDGE('',*,*,#188,.T.);
#188 = EDGE_CURVE('',#159,#189,#191,.T.);
#189 = VERTEX_POINT('',#190);
#190 = CARTESIAN_POINT('',(7.141778489999,-171.9766386022,44.2));
#191 = CIRCLE('',#192,7.615634026069);
#192 = AXIS2_PLACEMENT_3D('',#193,#194,#195);
#193 = CARTESIAN_POINT('',(8.640602465505E-12,-169.3322328809,44.2));
#194 = DIRECTION('',(0.,0.,1.));
#195 = DIRECTION('',(1.,0.,0.));
#196 = ORIENTED_EDGE('',*,*,#197,.F.);
#197 = EDGE_CURVE('',#198,#189,#200,.T.);
#198 = VERTEX_POINT('',#199);
#199 = CARTESIAN_POINT('',(7.141778489999,-171.9766386022,39.5));
#200 = LINE('',#201,#202);
#201 = CARTESIAN_POINT('',(7.141778489999,-171.9766386022,39.5));
#202 = VECTOR('',#203,1.);
#203 = DIRECTION('',(0.,0.,1.));
#204 = ORIENTED_EDGE('',*,*,#205,.F.);
#205 = EDGE_CURVE('',#157,#198,#206,.T.);
#206 = CIRCLE('',#207,7.615634026069);
#207 = AXIS2_PLACEMENT_3D('',#208,#209,#210);
#208 = CARTESIAN_POINT('',(8.640602465505E-12,-169.3322328809,39.5));
#209 = DIRECTION('',(0.,0.,1.));
#210 = DIRECTION('',(1.,0.,0.));
#211 = CYLINDRICAL_SURFACE('',#212,7.615634026069);
#212 = AXIS2_PLACEMENT_3D('',#213,#214,#215);
#213 = CARTESIAN_POINT('',(8.640602465505E-12,-169.3322328809,39.5));
#214 = DIRECTION('',(-0.,-0.,-1.));
#215 = DIRECTION('',(1.,0.,0.));
#216 = ADVANCED_FACE('',(#217),#242,.T.);
#217 = FACE_BOUND('',#218,.T.);
#218 = EDGE_LOOP('',(#219,#220,#228,#236));
#219 = ORIENTED_EDGE('',*,*,#197,.T.);
#220 = ORIENTED_EDGE('',*,*,#221,.T.);
#221 = EDGE_CURVE('',#189,#222,#224,.T.);
#222 = VERTEX_POINT('',#223);
#223 = CARTESIAN_POINT('',(7.141778489999,-167.8468592468,44.2));
#224 = LINE('',#225,#226);
#225 = CARTESIAN_POINT('',(7.141778489999,-171.9766386022,44.2));
#226 = VECTOR('',#227,1.);
#227 = DIRECTION('',(-1.16136070566E-14,1.,0.));
#228 = ORIENTED_EDGE('',*,*,#229,.F.);
#229 = EDGE_CURVE('',#230,#222,#232,.T.);
#230 = VERTEX_POINT('',#231);
#231 = CARTESIAN_POINT('',(7.141778489999,-167.8468592468,39.5));
#232 = LINE('',#233,#234);
#233 = CARTESIAN_POINT('',(7.141778489999,-167.8468592468,39.5));
#234 = VECTOR('',#235,1.);
#235 = DIRECTION('',(0.,0.,1.));
#236 = ORIENTED_EDGE('',*,*,#237,.F.);
#237 = EDGE_CURVE('',#198,#230,#238,.T.);
#238 = LINE('',#239,#240);
#239 = CARTESIAN_POINT('',(7.141778489999,-171.9766386022,39.5));
#240 = VECTOR('',#241,1.);
#241 = DIRECTION('',(-1.16136070566E-14,1.,0.));
#242 = PLANE('',#243);
#243 = AXIS2_PLACEMENT_3D('',#244,#245,#246);
#244 = CARTESIAN_POINT('',(7.141778489999,-171.9766386022,39.5));
#245 = DIRECTION('',(-1.,-1.16136070566E-14,0.));
#246 = DIRECTION('',(-1.16136070566E-14,1.,0.));
#247 = ADVANCED_FACE('',(#248),#273,.T.);
#248 = FACE_BOUND('',#249,.T.);
#249 = EDGE_LOOP('',(#250,#251,#259,#267));
#250 = ORIENTED_EDGE('',*,*,#229,.T.);
#251 = ORIENTED_EDGE('',*,*,#252,.T.);
#252 = EDGE_CURVE('',#222,#253,#255,.T.);
#253 = VERTEX_POINT('',#254);
#254 = CARTESIAN_POINT('',(6.00000000003,-164.578064103,44.2));
#255 = LINE('',#256,#257);
#256 = CARTESIAN_POINT('',(7.141778489999,-167.8468592468,44.2));
#257 = VECTOR('',#258,1.);
#258 = DIRECTION('',(-0.329758634704,0.94406527467,0.));
#259 = ORIENTED_EDGE('',*,*,#260,.F.);
#260 = EDGE_CURVE('',#261,#253,#263,.T.);
#261 = VERTEX_POINT('',#262);
#262 = CARTESIAN_POINT('',(6.00000000003,-164.578064103,39.5));
#263 = LINE('',#264,#265);
#264 = CARTESIAN_POINT('',(6.00000000003,-164.578064103,39.5));
#265 = VECTOR('',#266,1.);
#266 = DIRECTION('',(0.,0.,1.));
#267 = ORIENTED_EDGE('',*,*,#268,.F.);
#268 = EDGE_CURVE('',#230,#261,#269,.T.);
#269 = LINE('',#270,#271);
#270 = CARTESIAN_POINT('',(7.141778489999,-167.8468592468,39.5));
#271 = VECTOR('',#272,1.);
#272 = DIRECTION('',(-0.329758634704,0.94406527467,0.));
#273 = PLANE('',#274);
#274 = AXIS2_PLACEMENT_3D('',#275,#276,#277);
#275 = CARTESIAN_POINT('',(7.141778489999,-167.8468592468,39.5));
#276 = DIRECTION('',(-0.94406527467,-0.329758634704,0.));
#277 = DIRECTION('',(-0.329758634704,0.94406527467,0.));
#278 = ADVANCED_FACE('',(#279),#306,.F.);
#279 = FACE_BOUND('',#280,.T.);
#280 = EDGE_LOOP('',(#281,#282,#291,#299));
#281 = ORIENTED_EDGE('',*,*,#260,.T.);
#282 = ORIENTED_EDGE('',*,*,#283,.T.);
#283 = EDGE_CURVE('',#253,#284,#286,.T.);
#284 = VERTEX_POINT('',#285);
#285 = CARTESIAN_POINT('',(6.00000000003,-156.8320974107,44.2));
#286 = CIRCLE('',#287,8.);
#287 = AXIS2_PLACEMENT_3D('',#288,#289,#290);
#288 = CARTESIAN_POINT('',(-1.,-160.7050807569,44.2));
#289 = DIRECTION('',(0.,0.,1.));
#290 = DIRECTION('',(1.,0.,0.));
#291 = ORIENTED_EDGE('',*,*,#292,.F.);
#292 = EDGE_CURVE('',#293,#284,#295,.T.);
#293 = VERTEX_POINT('',#294);
#294 = CARTESIAN_POINT('',(6.00000000003,-156.8320974107,39.5));
#295 = LINE('',#296,#297);
#296 = CARTESIAN_POINT('',(6.00000000003,-156.8320974107,39.5));
#297 = VECTOR('',#298,1.);
#298 = DIRECTION('',(0.,0.,1.));
#299 = ORIENTED_EDGE('',*,*,#300,.F.);
#300 = EDGE_CURVE('',#261,#293,#301,.T.);
#301 = CIRCLE('',#302,8.);
#302 = AXIS2_PLACEMENT_3D('',#303,#304,#305);
#303 = CARTESIAN_POINT('',(-1.,-160.7050807569,39.5));
#304 = DIRECTION('',(0.,0.,1.));
#305 = DIRECTION('',(1.,0.,0.));
#306 = CYLINDRICAL_SURFACE('',#307,8.);
#307 = AXIS2_PLACEMENT_3D('',#308,#309,#310);
#308 = CARTESIAN_POINT('',(-1.,-160.7050807569,39.5));
#309 = DIRECTION('',(-0.,-0.,-1.));
#310 = DIRECTION('',(1.,0.,0.));
#311 = ADVANCED_FACE('',(#312),#337,.F.);
#312 = FACE_BOUND('',#313,.F.);
#313 = EDGE_LOOP('',(#314,#324,#330,#331));
#314 = ORIENTED_EDGE('',*,*,#315,.T.);
#315 = EDGE_CURVE('',#316,#318,#320,.T.);
#316 = VERTEX_POINT('',#317);
#317 = CARTESIAN_POINT('',(7.141778489984,-153.5633022669,39.5));
#318 = VERTEX_POINT('',#319);
#319 = CARTESIAN_POINT('',(7.141778489984,-153.5633022669,44.2));
#320 = LINE('',#321,#322);
#321 = CARTESIAN_POINT('',(7.141778489984,-153.5633022669,39.5));
#322 = VECTOR('',#323,1.);
#323 = DIRECTION('',(0.,0.,1.));
#324 = ORIENTED_EDGE('',*,*,#325,.T.);
#325 = EDGE_CURVE('',#318,#284,#326,.T.);
#326 = LINE('',#327,#328);
#327 = CARTESIAN_POINT('',(7.141778489984,-153.5633022669,44.2));
#328 = VECTOR('',#329,1.);
#329 = DIRECTION('',(-0.329758634696,-0.944065274673,0.));
#330 = ORIENTED_EDGE('',*,*,#292,.F.);
#331 = ORIENTED_EDGE('',*,*,#332,.F.);
#332 = EDGE_CURVE('',#316,#293,#333,.T.);
#333 = LINE('',#334,#335);
#334 = CARTESIAN_POINT('',(7.141778489984,-153.5633022669,39.5));
#335 = VECTOR('',#336,1.);
#336 = DIRECTION('',(-0.329758634696,-0.944065274673,0.));
#337 = PLANE('',#338);
#338 = AXIS2_PLACEMENT_3D('',#339,#340,#341);
#339 = CARTESIAN_POINT('',(7.141778489984,-153.5633022669,39.5));
#340 = DIRECTION('',(0.944065274673,-0.329758634696,0.));
#341 = DIRECTION('',(-0.329758634696,-0.944065274673,0.));
#342 = ADVANCED_FACE('',(#343),#368,.F.);
#343 = FACE_BOUND('',#344,.F.);
#344 = EDGE_LOOP('',(#345,#355,#361,#362));
#345 = ORIENTED_EDGE('',*,*,#346,.T.);
#346 = EDGE_CURVE('',#347,#349,#351,.T.);
#347 = VERTEX_POINT('',#348);
#348 = CARTESIAN_POINT('',(7.141778489984,-148.2050807569,39.5));
#349 = VERTEX_POINT('',#350);
#350 = CARTESIAN_POINT('',(7.141778489984,-148.2050807569,44.2));
#351 = LINE('',#352,#353);
#352 = CARTESIAN_POINT('',(7.141778489984,-148.2050807569,39.5));
#353 = VECTOR('',#354,1.);
#354 = DIRECTION('',(0.,0.,1.));
#355 = ORIENTED_EDGE('',*,*,#356,.T.);
#356 = EDGE_CURVE('',#349,#318,#357,.T.);
#357 = LINE('',#358,#359);
#358 = CARTESIAN_POINT('',(7.141778489984,-148.2050807569,44.2));
#359 = VECTOR('',#360,1.);
#360 = DIRECTION('',(0.,-1.,0.));
#361 = ORIENTED_EDGE('',*,*,#315,.F.);
#362 = ORIENTED_EDGE('',*,*,#363,.F.);
#363 = EDGE_CURVE('',#347,#316,#364,.T.);
#364 = LINE('',#365,#366);
#365 = CARTESIAN_POINT('',(7.141778489984,-148.2050807569,39.5));
#366 = VECTOR('',#367,1.);
#367 = DIRECTION('',(0.,-1.,0.));
#368 = PLANE('',#369);
#369 = AXIS2_PLACEMENT_3D('',#370,#371,#372);
#370 = CARTESIAN_POINT('',(7.141778489984,-148.2050807569,39.5));
#371 = DIRECTION('',(1.,0.,0.));
#372 = DIRECTION('',(0.,-1.,0.));
#373 = ADVANCED_FACE('',(#374),#401,.T.);
#374 = FACE_BOUND('',#375,.F.);
#375 = EDGE_LOOP('',(#376,#386,#393,#394));
#376 = ORIENTED_EDGE('',*,*,#377,.T.);
#377 = EDGE_CURVE('',#378,#380,#382,.T.);
#378 = VERTEX_POINT('',#379);
#379 = CARTESIAN_POINT('',(10.891778489984,-144.4550807569,39.5));
#380 = VERTEX_POINT('',#381);
#381 = CARTESIAN_POINT('',(10.891778489984,-144.4550807569,44.2));
#382 = LINE('',#383,#384);
#383 = CARTESIAN_POINT('',(10.891778489984,-144.4550807569,39.5));
#384 = VECTOR('',#385,1.);
#385 = DIRECTION('',(0.,0.,1.));
#386 = ORIENTED_EDGE('',*,*,#387,.T.);
#387 = EDGE_CURVE('',#380,#349,#388,.T.);
#388 = CIRCLE('',#389,3.75);
#389 = AXIS2_PLACEMENT_3D('',#390,#391,#392);
#390 = CARTESIAN_POINT('',(10.891778489984,-148.2050807569,44.2));
#391 = DIRECTION('',(0.,0.,1.));
#392 = DIRECTION('',(1.,0.,0.));
#393 = ORIENTED_EDGE('',*,*,#346,.F.);
#394 = ORIENTED_EDGE('',*,*,#395,.F.);
#395 = EDGE_CURVE('',#378,#347,#396,.T.);
#396 = CIRCLE('',#397,3.75);
#397 = AXIS2_PLACEMENT_3D('',#398,#399,#400);
#398 = CARTESIAN_POINT('',(10.891778489984,-148.2050807569,39.5));
#399 = DIRECTION('',(0.,0.,1.));
#400 = DIRECTION('',(1.,0.,0.));
#401 = CYLINDRICAL_SURFACE('',#402,3.75);
#402 = AXIS2_PLACEMENT_3D('',#403,#404,#405);
#403 = CARTESIAN_POINT('',(10.891778489984,-148.2050807569,39.5));
#404 = DIRECTION('',(-0.,-0.,-1.));
#405 = DIRECTION('',(1.,0.,0.));
#406 = ADVANCED_FACE('',(#407),#434,.T.);
#407 = FACE_BOUND('',#408,.F.);
#408 = EDGE_LOOP('',(#409,#419,#426,#427));
#409 = ORIENTED_EDGE('',*,*,#410,.T.);
#410 = EDGE_CURVE('',#411,#413,#415,.T.);
#411 = VERTEX_POINT('',#412);
#412 = CARTESIAN_POINT('',(10.891778489984,-147.4550807569,39.5));
#413 = VERTEX_POINT('',#414);
#414 = CARTESIAN_POINT('',(10.891778489984,-147.4550807569,44.2));
#415 = LINE('',#416,#417);
#416 = CARTESIAN_POINT('',(10.891778489984,-147.4550807569,39.5));
#417 = VECTOR('',#418,1.);
#418 = DIRECTION('',(0.,0.,1.));
#419 = ORIENTED_EDGE('',*,*,#420,.T.);
#420 = EDGE_CURVE('',#413,#380,#421,.T.);
#421 = CIRCLE('',#422,1.500000000009);
#422 = AXIS2_PLACEMENT_3D('',#423,#424,#425);
#423 = CARTESIAN_POINT('',(10.891778489984,-145.9550807569,44.2));
#424 = DIRECTION('',(0.,0.,1.));
#425 = DIRECTION('',(1.,0.,0.));
#426 = ORIENTED_EDGE('',*,*,#377,.F.);
#427 = ORIENTED_EDGE('',*,*,#428,.F.);
#428 = EDGE_CURVE('',#411,#378,#429,.T.);
#429 = CIRCLE('',#430,1.500000000009);
#430 = AXIS2_PLACEMENT_3D('',#431,#432,#433);
#431 = CARTESIAN_POINT('',(10.891778489984,-145.9550807569,39.5));
#432 = DIRECTION('',(0.,0.,1.));
#433 = DIRECTION('',(1.,0.,0.));
#434 = CYLINDRICAL_SURFACE('',#435,1.500000000009);
#435 = AXIS2_PLACEMENT_3D('',#436,#437,#438);
#436 = CARTESIAN_POINT('',(10.891778489984,-145.9550807569,39.5));
#437 = DIRECTION('',(-0.,-0.,-1.));
#438 = DIRECTION('',(1.,0.,0.));
#439 = ADVANCED_FACE('',(#440),#467,.F.);
#440 = FACE_BOUND('',#441,.T.);
#441 = EDGE_LOOP('',(#442,#443,#452,#460));
#442 = ORIENTED_EDGE('',*,*,#410,.T.);
#443 = ORIENTED_EDGE('',*,*,#444,.T.);
#444 = EDGE_CURVE('',#413,#445,#447,.T.);
#445 = VERTEX_POINT('',#446);
#446 = CARTESIAN_POINT('',(10.141778490002,-148.2050807569,44.2));
#447 = CIRCLE('',#448,0.749999999983);
#448 = AXIS2_PLACEMENT_3D('',#449,#450,#451);
#449 = CARTESIAN_POINT('',(10.891778489984,-148.2050807569,44.2));
#450 = DIRECTION('',(0.,0.,1.));
#451 = DIRECTION('',(1.,0.,0.));
#452 = ORIENTED_EDGE('',*,*,#453,.F.);
#453 = EDGE_CURVE('',#454,#445,#456,.T.);
#454 = VERTEX_POINT('',#455);
#455 = CARTESIAN_POINT('',(10.141778490002,-148.2050807569,39.5));
#456 = LINE('',#457,#458);
#457 = CARTESIAN_POINT('',(10.141778490002,-148.2050807569,39.5));
#458 = VECTOR('',#459,1.);
#459 = DIRECTION('',(0.,0.,1.));
#460 = ORIENTED_EDGE('',*,*,#461,.F.);
#461 = EDGE_CURVE('',#411,#454,#462,.T.);
#462 = CIRCLE('',#463,0.749999999983);
#463 = AXIS2_PLACEMENT_3D('',#464,#465,#466);
#464 = CARTESIAN_POINT('',(10.891778489984,-148.2050807569,39.5));
#465 = DIRECTION('',(0.,0.,1.));
#466 = DIRECTION('',(1.,0.,0.));
#467 = CYLINDRICAL_SURFACE('',#468,0.749999999983);
#468 = AXIS2_PLACEMENT_3D('',#469,#470,#471);
#469 = CARTESIAN_POINT('',(10.891778489984,-148.2050807569,39.5));
#470 = DIRECTION('',(-0.,-0.,-1.));
#471 = DIRECTION('',(1.,0.,0.));
#472 = ADVANCED_FACE('',(#473),#498,.F.);
#473 = FACE_BOUND('',#474,.F.);
#474 = EDGE_LOOP('',(#475,#485,#491,#492));
#475 = ORIENTED_EDGE('',*,*,#476,.T.);
#476 = EDGE_CURVE('',#477,#479,#481,.T.);
#477 = VERTEX_POINT('',#478);
#478 = CARTESIAN_POINT('',(10.141778490002,-169.3322328809,39.5));
#479 = VERTEX_POINT('',#480);
#480 = CARTESIAN_POINT('',(10.141778490002,-169.3322328809,44.2));
#481 = LINE('',#482,#483);
#482 = CARTESIAN_POINT('',(10.141778490002,-169.3322328809,39.5));
#483 = VECTOR('',#484,1.);
#484 = DIRECTION('',(0.,0.,1.));
#485 = ORIENTED_EDGE('',*,*,#486,.T.);
#486 = EDGE_CURVE('',#479,#445,#487,.T.);
#487 = LINE('',#488,#489);
#488 = CARTESIAN_POINT('',(10.141778490002,-169.3322328809,44.2));
#489 = VECTOR('',#490,1.);
#490 = DIRECTION('',(0.,1.,0.));
#491 = ORIENTED_EDGE('',*,*,#453,.F.);
#492 = ORIENTED_EDGE('',*,*,#493,.F.);
#493 = EDGE_CURVE('',#477,#454,#494,.T.);
#494 = LINE('',#495,#496);
#495 = CARTESIAN_POINT('',(10.141778490002,-169.3322328809,39.5));
#496 = VECTOR('',#497,1.);
#497 = DIRECTION('',(0.,1.,0.));
#498 = PLANE('',#499);
#499 = AXIS2_PLACEMENT_3D('',#500,#501,#502);
#500 = CARTESIAN_POINT('',(10.141778490002,-169.3322328809,39.5));
#501 = DIRECTION('',(-1.,0.,0.));
#502 = DIRECTION('',(0.,1.,0.));
#503 = ADVANCED_FACE('',(#504),#531,.T.);
#504 = FACE_BOUND('',#505,.F.);
#505 = EDGE_LOOP('',(#506,#516,#523,#524));
#506 = ORIENTED_EDGE('',*,*,#507,.T.);
#507 = EDGE_CURVE('',#508,#510,#512,.T.);
#508 = VERTEX_POINT('',#509);
#509 = CARTESIAN_POINT('',(-10.14177848998,-169.3322328809,39.5));
#510 = VERTEX_POINT('',#511);
#511 = CARTESIAN_POINT('',(-10.14177848998,-169.3322328809,44.2));
#512 = LINE('',#513,#514);
#513 = CARTESIAN_POINT('',(-10.14177848998,-169.3322328809,39.5));
#514 = VECTOR('',#515,1.);
#515 = DIRECTION('',(0.,0.,1.));
#516 = ORIENTED_EDGE('',*,*,#517,.T.);
#517 = EDGE_CURVE('',#510,#479,#518,.T.);
#518 = CIRCLE('',#519,10.141778489993);
#519 = AXIS2_PLACEMENT_3D('',#520,#521,#522);
#520 = CARTESIAN_POINT('',(8.640602465505E-12,-169.3322328809,44.2));
#521 = DIRECTION('',(0.,0.,1.));
#522 = DIRECTION('',(1.,0.,0.));
#523 = ORIENTED_EDGE('',*,*,#476,.F.);
#524 = ORIENTED_EDGE('',*,*,#525,.F.);
#525 = EDGE_CURVE('',#508,#477,#526,.T.);
#526 = CIRCLE('',#527,10.141778489993);
#527 = AXIS2_PLACEMENT_3D('',#528,#529,#530);
#528 = CARTESIAN_POINT('',(8.640602465505E-12,-169.3322328809,39.5));
#529 = DIRECTION('',(0.,0.,1.));
#530 = DIRECTION('',(1.,0.,0.));
#531 = CYLINDRICAL_SURFACE('',#532,10.141778489993);
#532 = AXIS2_PLACEMENT_3D('',#533,#534,#535);
#533 = CARTESIAN_POINT('',(8.640602465505E-12,-169.3322328809,39.5));
#534 = DIRECTION('',(-0.,-0.,-1.));
#535 = DIRECTION('',(1.,0.,0.));
#536 = ADVANCED_FACE('',(#537),#562,.F.);
#537 = FACE_BOUND('',#538,.F.);
#538 = EDGE_LOOP('',(#539,#549,#555,#556));
#539 = ORIENTED_EDGE('',*,*,#540,.T.);
#540 = EDGE_CURVE('',#541,#543,#545,.T.);
#541 = VERTEX_POINT('',#542);
#542 = CARTESIAN_POINT('',(-10.14177848998,-148.2050807569,39.5));
#543 = VERTEX_POINT('',#544);
#544 = CARTESIAN_POINT('',(-10.14177848998,-148.2050807569,44.2));
#545 = LINE('',#546,#547);
#546 = CARTESIAN_POINT('',(-10.14177848998,-148.2050807569,39.5));
#547 = VECTOR('',#548,1.);
#548 = DIRECTION('',(0.,0.,1.));
#549 = ORIENTED_EDGE('',*,*,#550,.T.);
#550 = EDGE_CURVE('',#543,#510,#551,.T.);
#551 = LINE('',#552,#553);
#552 = CARTESIAN_POINT('',(-10.14177848998,-148.2050807569,44.2));
#553 = VECTOR('',#554,1.);
#554 = DIRECTION('',(0.,-1.,0.));
#555 = ORIENTED_EDGE('',*,*,#507,.F.);
#556 = ORIENTED_EDGE('',*,*,#557,.F.);
#557 = EDGE_CURVE('',#541,#508,#558,.T.);
#558 = LINE('',#559,#560);
#559 = CARTESIAN_POINT('',(-10.14177848998,-148.2050807569,39.5));
#560 = VECTOR('',#561,1.);
#561 = DIRECTION('',(0.,-1.,0.));
#562 = PLANE('',#563);
#563 = AXIS2_PLACEMENT_3D('',#564,#565,#566);
#564 = CARTESIAN_POINT('',(-10.14177848998,-148.2050807569,39.5));
#565 = DIRECTION('',(1.,0.,0.));
#566 = DIRECTION('',(0.,-1.,0.));
#567 = ADVANCED_FACE('',(#568),#595,.F.);
#568 = FACE_BOUND('',#569,.T.);
#569 = EDGE_LOOP('',(#570,#571,#580,#588));
#570 = ORIENTED_EDGE('',*,*,#540,.T.);
#571 = ORIENTED_EDGE('',*,*,#572,.T.);
#572 = EDGE_CURVE('',#543,#573,#575,.T.);
#573 = VERTEX_POINT('',#574);
#574 = CARTESIAN_POINT('',(-10.89177848998,-147.4550807569,44.2));
#575 = CIRCLE('',#576,0.75);
#576 = AXIS2_PLACEMENT_3D('',#577,#578,#579);
#577 = CARTESIAN_POINT('',(-10.89177848998,-148.2050807569,44.2));
#578 = DIRECTION('',(0.,0.,1.));
#579 = DIRECTION('',(1.,0.,0.));
#580 = ORIENTED_EDGE('',*,*,#581,.F.);
#581 = EDGE_CURVE('',#582,#573,#584,.T.);
#582 = VERTEX_POINT('',#583);
#583 = CARTESIAN_POINT('',(-10.89177848998,-147.4550807569,39.5));
#584 = LINE('',#585,#586);
#585 = CARTESIAN_POINT('',(-10.89177848998,-147.4550807569,39.5));
#586 = VECTOR('',#587,1.);
#587 = DIRECTION('',(0.,0.,1.));
#588 = ORIENTED_EDGE('',*,*,#589,.F.);
#589 = EDGE_CURVE('',#541,#582,#590,.T.);
#590 = CIRCLE('',#591,0.75);
#591 = AXIS2_PLACEMENT_3D('',#592,#593,#594);
#592 = CARTESIAN_POINT('',(-10.89177848998,-148.2050807569,39.5));
#593 = DIRECTION('',(0.,0.,1.));
#594 = DIRECTION('',(1.,0.,0.));
#595 = CYLINDRICAL_SURFACE('',#596,0.75);
#596 = AXIS2_PLACEMENT_3D('',#597,#598,#599);
#597 = CARTESIAN_POINT('',(-10.89177848998,-148.2050807569,39.5));
#598 = DIRECTION('',(-0.,-0.,-1.));
#599 = DIRECTION('',(1.,0.,0.));
#600 = ADVANCED_FACE('',(#601),#628,.T.);
#601 = FACE_BOUND('',#602,.F.);
#602 = EDGE_LOOP('',(#603,#613,#620,#621));
#603 = ORIENTED_EDGE('',*,*,#604,.T.);
#604 = EDGE_CURVE('',#605,#607,#609,.T.);
#605 = VERTEX_POINT('',#606);
#606 = CARTESIAN_POINT('',(-10.89177848998,-144.4550807569,39.5));
#607 = VERTEX_POINT('',#608);
#608 = CARTESIAN_POINT('',(-10.89177848998,-144.4550807569,44.2));
#609 = LINE('',#610,#611);
#610 = CARTESIAN_POINT('',(-10.89177848998,-144.4550807569,39.5));
#611 = VECTOR('',#612,1.);
#612 = DIRECTION('',(0.,0.,1.));
#613 = ORIENTED_EDGE('',*,*,#614,.T.);
#614 = EDGE_CURVE('',#607,#573,#615,.T.);
#615 = CIRCLE('',#616,1.5);
#616 = AXIS2_PLACEMENT_3D('',#617,#618,#619);
#617 = CARTESIAN_POINT('',(-10.89177848998,-145.9550807569,44.2));
#618 = DIRECTION('',(0.,0.,1.));
#619 = DIRECTION('',(1.,0.,0.));
#620 = ORIENTED_EDGE('',*,*,#581,.F.);
#621 = ORIENTED_EDGE('',*,*,#622,.F.);
#622 = EDGE_CURVE('',#605,#582,#623,.T.);
#623 = CIRCLE('',#624,1.5);
#624 = AXIS2_PLACEMENT_3D('',#625,#626,#627);
#625 = CARTESIAN_POINT('',(-10.89177848998,-145.9550807569,39.5));
#626 = DIRECTION('',(0.,0.,1.));
#627 = DIRECTION('',(1.,0.,0.));
#628 = CYLINDRICAL_SURFACE('',#629,1.5);
#629 = AXIS2_PLACEMENT_3D('',#630,#631,#632);
#630 = CARTESIAN_POINT('',(-10.89177848998,-145.9550807569,39.5));
#631 = DIRECTION('',(-0.,-0.,-1.));
#632 = DIRECTION('',(1.,0.,0.));
#633 = ADVANCED_FACE('',(#634),#652,.T.);
#634 = FACE_BOUND('',#635,.F.);
#635 = EDGE_LOOP('',(#636,#637,#644,#645));
#636 = ORIENTED_EDGE('',*,*,#21,.T.);
#637 = ORIENTED_EDGE('',*,*,#638,.T.);
#638 = EDGE_CURVE('',#24,#607,#639,.T.);
#639 = CIRCLE('',#640,3.75);
#640 = AXIS2_PLACEMENT_3D('',#641,#642,#643);
#641 = CARTESIAN_POINT('',(-10.89177848998,-148.2050807569,44.2));
#642 = DIRECTION('',(0.,0.,1.));
#643 = DIRECTION('',(1.,0.,0.));
#644 = ORIENTED_EDGE('',*,*,#604,.F.);
#645 = ORIENTED_EDGE('',*,*,#646,.F.);
#646 = EDGE_CURVE('',#22,#605,#647,.T.);
#647 = CIRCLE('',#648,3.75);
#648 = AXIS2_PLACEMENT_3D('',#649,#650,#651);
#649 = CARTESIAN_POINT('',(-10.89177848998,-148.2050807569,39.5));
#650 = DIRECTION('',(0.,0.,1.));
#651 = DIRECTION('',(1.,0.,0.));
#652 = CYLINDRICAL_SURFACE('',#653,3.75);
#653 = AXIS2_PLACEMENT_3D('',#654,#655,#656);
#654 = CARTESIAN_POINT('',(-10.89177848998,-148.2050807569,39.5));
#655 = DIRECTION('',(-0.,-0.,-1.));
#656 = DIRECTION('',(1.,0.,0.));
#657 = ADVANCED_FACE('',(#658),#680,.F.);
#658 = FACE_BOUND('',#659,.T.);
#659 = EDGE_LOOP('',(#660,#661,#662,#663,#664,#665,#666,#667,#668,#669,
    #670,#671,#672,#673,#674,#675,#676,#677,#678,#679));
#660 = ORIENTED_EDGE('',*,*,#47,.T.);
#661 = ORIENTED_EDGE('',*,*,#78,.T.);
#662 = ORIENTED_EDGE('',*,*,#110,.T.);
#663 = ORIENTED_EDGE('',*,*,#142,.F.);
#664 = ORIENTED_EDGE('',*,*,#173,.F.);
#665 = ORIENTED_EDGE('',*,*,#205,.T.);
#666 = ORIENTED_EDGE('',*,*,#237,.T.);
#667 = ORIENTED_EDGE('',*,*,#268,.T.);
#668 = ORIENTED_EDGE('',*,*,#300,.T.);
#669 = ORIENTED_EDGE('',*,*,#332,.F.);
#670 = ORIENTED_EDGE('',*,*,#363,.F.);
#671 = ORIENTED_EDGE('',*,*,#395,.F.);
#672 = ORIENTED_EDGE('',*,*,#428,.F.);
#673 = ORIENTED_EDGE('',*,*,#461,.T.);
#674 = ORIENTED_EDGE('',*,*,#493,.F.);
#675 = ORIENTED_EDGE('',*,*,#525,.F.);
#676 = ORIENTED_EDGE('',*,*,#557,.F.);
#677 = ORIENTED_EDGE('',*,*,#589,.T.);
#678 = ORIENTED_EDGE('',*,*,#622,.F.);
#679 = ORIENTED_EDGE('',*,*,#646,.F.);
#680 = PLANE('',#681);
#681 = AXIS2_PLACEMENT_3D('',#682,#683,#684);
#682 = CARTESIAN_POINT('',(5.62309404448E-12,-162.2385207446,39.5));
#683 = DIRECTION('',(0.,0.,1.));
#684 = DIRECTION('',(1.,0.,0.));
#685 = ADVANCED_FACE('',(#686),#708,.T.);
#686 = FACE_BOUND('',#687,.F.);
#687 = EDGE_LOOP('',(#688,#689,#690,#691,#692,#693,#694,#695,#696,#697,
    #698,#699,#700,#701,#702,#703,#704,#705,#706,#707));
#688 = ORIENTED_EDGE('',*,*,#31,.T.);
#689 = ORIENTED_EDGE('',*,*,#62,.T.);
#690 = ORIENTED_EDGE('',*,*,#93,.T.);
#691 = ORIENTED_EDGE('',*,*,#135,.F.);
#692 = ORIENTED_EDGE('',*,*,#166,.F.);
#693 = ORIENTED_EDGE('',*,*,#188,.T.);
#694 = ORIENTED_EDGE('',*,*,#221,.T.);
#695 = ORIENTED_EDGE('',*,*,#252,.T.);
#696 = ORIENTED_EDGE('',*,*,#283,.T.);
#697 = ORIENTED_EDGE('',*,*,#325,.F.);
#698 = ORIENTED_EDGE('',*,*,#356,.F.);
#699 = ORIENTED_EDGE('',*,*,#387,.F.);
#700 = ORIENTED_EDGE('',*,*,#420,.F.);
#701 = ORIENTED_EDGE('',*,*,#444,.T.);
#702 = ORIENTED_EDGE('',*,*,#486,.F.);
#703 = ORIENTED_EDGE('',*,*,#517,.F.);
#704 = ORIENTED_EDGE('',*,*,#550,.F.);
#705 = ORIENTED_EDGE('',*,*,#572,.T.);
#706 = ORIENTED_EDGE('',*,*,#614,.F.);
#707 = ORIENTED_EDGE('',*,*,#638,.F.);
#708 = PLANE('',#709);
#709 = AXIS2_PLACEMENT_3D('',#710,#711,#712);
#710 = CARTESIAN_POINT('',(5.62309404448E-12,-162.2385207446,44.2));
#711 = DIRECTION('',(0.,0.,1.));
#712 = DIRECTION('',(1.,0.,0.));
#713 = ( GEOMETRIC_REPRESENTATION_CONTEXT(3) 
GLOBAL_UNCERTAINTY_ASSIGNED_CONTEXT((#717)) GLOBAL_UNIT_ASSIGNED_CONTEXT
((#714,#715,#716)) REPRESENTATION_CONTEXT('Context #1',
  '3D Context with UNIT and UNCERTAINTY') );
#714 = ( LENGTH_UNIT() NAMED_UNIT(*) SI_UNIT(.MILLI.,.METRE.) );
#715 = ( NAMED_UNIT(*) PLANE_ANGLE_UNIT() SI_UNIT($,.RADIAN.) );
#716 = ( NAMED_UNIT(*) SI_UNIT($,.STERADIAN.) SOLID_ANGLE_UNIT() );
#717 = UNCERTAINTY_MEASURE_WITH_UNIT(LENGTH_MEASURE(1.E-07),#714,
  'distance_accuracy_value','confusion accuracy');
#718 = PRODUCT_RELATED_PRODUCT_CATEGORY('part',$,(#7));
#719 = MECHANICAL_DESIGN_GEOMETRIC_PRESENTATION_REPRESENTATION('',(#720)
  ,#713);
#720 = STYLED_ITEM('color',(#721),#15);
#721 = PRESENTATION_STYLE_ASSIGNMENT((#722,#728));
#722 = SURFACE_STYLE_USAGE(.BOTH.,#723);
#723 = SURFACE_SIDE_STYLE('',(#724));
#724 = SURFACE_STYLE_FILL_AREA(#725);
#725 = FILL_AREA_STYLE('',(#726));
#726 = FILL_AREA_STYLE_COLOUR('',#727);
#727 = COLOUR_RGB('',1.,0.450980401079,0.600000020288);
#728 = CURVE_STYLE('',#729,POSITIVE_LENGTH_MEASURE(0.1),#730);
#729 = DRAUGHTING_PRE_DEFINED_CURVE_FONT('continuous');
#730 = COLOUR_RGB('',0.219607846375,0.219607846375,0.219607846375);
ENDSEC;
END-ISO-10303-21;
