ISO-10303-21;
HEADER;
FILE_DESCRIPTION(('FreeCAD Model'),'2;1');
FILE_NAME('Open CASCADE Shape Model','2026-08-13T14:27:08',(''),(''),
  'Open CASCADE STEP processor 7.8','FreeCAD','Unknown');
FILE_SCHEMA((
'AP242_MANAGED_MODEL_BASED_3D_ENGINEERING_MIM_LF. {1 0 10303 442 1 1 4 
}'));
ENDSEC;
DATA;
#1 = APPLICATION_PROTOCOL_DEFINITION('international standard',
  'ap242_managed_model_based_3d_engineering',2013,#2);
#2 = APPLICATION_CONTEXT('Managed model based 3d engineering');
#3 = SHAPE_DEFINITION_REPRESENTATION(#4,#10);
#4 = PRODUCT_DEFINITION_SHAPE('','',#5);
#5 = PRODUCT_DEFINITION('design','',#6,#9);
#6 = PRODUCT_DEFINITION_FORMATION('','',#7);
#7 = PRODUCT('Body003','Body003','',(#8));
#8 = PRODUCT_CONTEXT('',#2,'mechanical');
#9 = PRODUCT_DEFINITION_CONTEXT('part definition',#2,'design');
#10 = ADVANCED_BREP_SHAPE_REPRESENTATION('',(#11,#15),#1553);
#11 = AXIS2_PLACEMENT_3D('',#12,#13,#14);
#12 = CARTESIAN_POINT('',(0.,0.,0.));
#13 = DIRECTION('',(0.,0.,1.));
#14 = DIRECTION('',(1.,0.,-0.));
#15 = MANIFOLD_SOLID_BREP('',#16);
#16 = CLOSED_SHELL('',(#17,#155,#186,#250,#274,#338,#362,#482,#506,#619,
    #650,#706,#730,#786,#810,#866,#890,#939,#965,#998,#1029,#1041,#1090,
    #1106,#1130,#1174,#1200,#1217,#1248,#1276,#1292,#1304,#1321,#1338,
    #1355,#1372,#1389,#1401,#1417,#1429,#1445,#1471,#1483,#1495,#1507,
    #1524,#1536));
#17 = ADVANCED_FACE('',(#18,#84),#150,.T.);
#18 = FACE_BOUND('',#19,.T.);
#19 = EDGE_LOOP('',(#20,#30,#38,#46,#54,#62,#70,#78));
#20 = ORIENTED_EDGE('',*,*,#21,.T.);
#21 = EDGE_CURVE('',#22,#24,#26,.T.);
#22 = VERTEX_POINT('',#23);
#23 = CARTESIAN_POINT('',(12.904799027182,-165.7761912928,100.));
#24 = VERTEX_POINT('',#25);
#25 = CARTESIAN_POINT('',(12.904799027161,-155.6339702208,100.));
#26 = LINE('',#27,#28);
#27 = CARTESIAN_POINT('',(12.904799027182,-165.7761912928,100.));
#28 = VECTOR('',#29,1.);
#29 = DIRECTION('',(-1.978610313483E-12,1.,0.));
#30 = ORIENTED_EDGE('',*,*,#31,.T.);
#31 = EDGE_CURVE('',#24,#32,#34,.T.);
#32 = VERTEX_POINT('',#33);
#33 = CARTESIAN_POINT('',(5.999999999994,-148.2050807568,100.));
#34 = LINE('',#35,#36);
#35 = CARTESIAN_POINT('',(12.904799027161,-155.6339702208,100.));
#36 = VECTOR('',#37,1.);
#37 = DIRECTION('',(-0.680797527301,0.732471655985,0.));
#38 = ORIENTED_EDGE('',*,*,#39,.T.);
#39 = EDGE_CURVE('',#32,#40,#42,.T.);
#40 = VERTEX_POINT('',#41);
#41 = CARTESIAN_POINT('',(-6.000000000035,-148.2050807569,100.));
#42 = LINE('',#43,#44);
#43 = CARTESIAN_POINT('',(5.999999999994,-148.2050807568,100.));
#44 = VECTOR('',#45,1.);
#45 = DIRECTION('',(-1.,-1.662670001674E-12,0.));
#46 = ORIENTED_EDGE('',*,*,#47,.T.);
#47 = EDGE_CURVE('',#40,#48,#50,.T.);
#48 = VERTEX_POINT('',#49);
#49 = CARTESIAN_POINT('',(-12.90479902717,-155.6339702209,100.));
#50 = LINE('',#51,#52);
#51 = CARTESIAN_POINT('',(-6.000000000035,-148.2050807569,100.));
#52 = VECTOR('',#53,1.);
#53 = DIRECTION('',(-0.680797527299,-0.732471655987,0.));
#54 = ORIENTED_EDGE('',*,*,#55,.T.);
#55 = EDGE_CURVE('',#48,#56,#58,.T.);
#56 = VERTEX_POINT('',#57);
#57 = CARTESIAN_POINT('',(-12.90479902716,-165.7761912929,100.));
#58 = LINE('',#59,#60);
#59 = CARTESIAN_POINT('',(-12.90479902717,-155.6339702209,100.));
#60 = VECTOR('',#61,1.);
#61 = DIRECTION('',(1.085372055648E-12,-1.,0.));
#62 = ORIENTED_EDGE('',*,*,#63,.T.);
#63 = EDGE_CURVE('',#56,#64,#66,.T.);
#64 = VERTEX_POINT('',#65);
#65 = CARTESIAN_POINT('',(-6.,-173.2050807568,100.));
#66 = LINE('',#67,#68);
#67 = CARTESIAN_POINT('',(-12.90479902716,-165.7761912929,100.));
#68 = VECTOR('',#69,1.);
#69 = DIRECTION('',(0.680797527301,-0.732471655984,0.));
#70 = ORIENTED_EDGE('',*,*,#71,.T.);
#71 = EDGE_CURVE('',#64,#72,#74,.T.);
#72 = VERTEX_POINT('',#73);
#73 = CARTESIAN_POINT('',(6.00000000003,-173.2050807568,100.));
#74 = LINE('',#75,#76);
#75 = CARTESIAN_POINT('',(-6.,-173.2050807568,100.));
#76 = VECTOR('',#77,1.);
#77 = DIRECTION('',(1.,1.184237892931E-14,0.));
#78 = ORIENTED_EDGE('',*,*,#79,.T.);
#79 = EDGE_CURVE('',#72,#22,#80,.T.);
#80 = LINE('',#81,#82);
#81 = CARTESIAN_POINT('',(6.00000000003,-173.2050807568,100.));
#82 = VECTOR('',#83,1.);
#83 = DIRECTION('',(0.680797527298,0.732471655987,0.));
#84 = FACE_BOUND('',#85,.F.);
#85 = EDGE_LOOP('',(#86,#96,#104,#112,#120,#128,#136,#144));
#86 = ORIENTED_EDGE('',*,*,#87,.T.);
#87 = EDGE_CURVE('',#88,#90,#92,.T.);
#88 = VERTEX_POINT('',#89);
#89 = CARTESIAN_POINT('',(-10.1,-156.5215237769,100.));
#90 = VERTEX_POINT('',#91);
#91 = CARTESIAN_POINT('',(-10.1,-164.8886377368,100.));
#92 = LINE('',#93,#94);
#93 = CARTESIAN_POINT('',(-10.1,-156.5215237769,100.));
#94 = VECTOR('',#95,1.);
#95 = DIRECTION('',(1.188892412398E-14,-1.,0.));
#96 = ORIENTED_EDGE('',*,*,#97,.T.);
#97 = EDGE_CURVE('',#90,#98,#100,.T.);
#98 = VERTEX_POINT('',#99);
#99 = CARTESIAN_POINT('',(-4.183556979968,-170.8050807568,100.));
#100 = LINE('',#101,#102);
#101 = CARTESIAN_POINT('',(-10.1,-164.8886377368,100.));
#102 = VECTOR('',#103,1.);
#103 = DIRECTION('',(0.707106781187,-0.707106781187,0.));
#104 = ORIENTED_EDGE('',*,*,#105,.T.);
#105 = EDGE_CURVE('',#98,#106,#108,.T.);
#106 = VERTEX_POINT('',#107);
#107 = CARTESIAN_POINT('',(4.183556979968,-170.8050807568,100.));
#108 = LINE('',#109,#110);
#109 = CARTESIAN_POINT('',(-4.183556979968,-170.8050807568,100.));
#110 = VECTOR('',#111,1.);
#111 = DIRECTION('',(1.,1.358734185598E-14,0.));
#112 = ORIENTED_EDGE('',*,*,#113,.T.);
#113 = EDGE_CURVE('',#106,#114,#116,.T.);
#114 = VERTEX_POINT('',#115);
#115 = CARTESIAN_POINT('',(10.1,-164.8886377368,100.));
#116 = LINE('',#117,#118);
#117 = CARTESIAN_POINT('',(4.183556979968,-170.8050807568,100.));
#118 = VECTOR('',#119,1.);
#119 = DIRECTION('',(0.707106781187,0.707106781187,0.));
#120 = ORIENTED_EDGE('',*,*,#121,.T.);
#121 = EDGE_CURVE('',#114,#122,#124,.T.);
#122 = VERTEX_POINT('',#123);
#123 = CARTESIAN_POINT('',(10.1,-156.5215237769,100.));
#124 = LINE('',#125,#126);
#125 = CARTESIAN_POINT('',(10.1,-164.8886377368,100.));
#126 = VECTOR('',#127,1.);
#127 = DIRECTION('',(-1.188892412398E-14,1.,0.));
#128 = ORIENTED_EDGE('',*,*,#129,.T.);
#129 = EDGE_CURVE('',#122,#130,#132,.T.);
#130 = VERTEX_POINT('',#131);
#131 = CARTESIAN_POINT('',(4.183556979968,-150.6050807568,100.));
#132 = LINE('',#133,#134);
#133 = CARTESIAN_POINT('',(10.1,-156.5215237769,100.));
#134 = VECTOR('',#135,1.);
#135 = DIRECTION('',(-0.707106781187,0.707106781187,0.));
#136 = ORIENTED_EDGE('',*,*,#137,.T.);
#137 = EDGE_CURVE('',#130,#138,#140,.T.);
#138 = VERTEX_POINT('',#139);
#139 = CARTESIAN_POINT('',(-4.183556979968,-150.6050807568,100.));
#140 = LINE('',#141,#142);
#141 = CARTESIAN_POINT('',(4.183556979968,-150.6050807568,100.));
#142 = VECTOR('',#143,1.);
#143 = DIRECTION('',(-1.,-1.019050639199E-14,0.));
#144 = ORIENTED_EDGE('',*,*,#145,.T.);
#145 = EDGE_CURVE('',#138,#88,#146,.T.);
#146 = LINE('',#147,#148);
#147 = CARTESIAN_POINT('',(-4.183556979968,-150.6050807568,100.));
#148 = VECTOR('',#149,1.);
#149 = DIRECTION('',(-0.707106781187,-0.707106781187,0.));
#150 = PLANE('',#151);
#151 = AXIS2_PLACEMENT_3D('',#152,#153,#154);
#152 = CARTESIAN_POINT('',(3.340420981918E-13,-160.7050807568,100.));
#153 = DIRECTION('',(0.,0.,1.));
#154 = DIRECTION('',(1.,0.,0.));
#155 = ADVANCED_FACE('',(#156),#181,.T.);
#156 = FACE_BOUND('',#157,.T.);
#157 = EDGE_LOOP('',(#158,#166,#174,#180));
#158 = ORIENTED_EDGE('',*,*,#159,.F.);
#159 = EDGE_CURVE('',#160,#22,#162,.T.);
#160 = VERTEX_POINT('',#161);
#161 = CARTESIAN_POINT('',(12.904799027182,-165.7761912928,
    44.499999999983));
#162 = LINE('',#163,#164);
#163 = CARTESIAN_POINT('',(12.904799027182,-165.7761912928,0.));
#164 = VECTOR('',#165,1.);
#165 = DIRECTION('',(0.,0.,1.));
#166 = ORIENTED_EDGE('',*,*,#167,.T.);
#167 = EDGE_CURVE('',#160,#168,#170,.T.);
#168 = VERTEX_POINT('',#169);
#169 = CARTESIAN_POINT('',(12.904799027171,-155.6339702208,
    44.499999999983));
#170 = LINE('',#171,#172);
#171 = CARTESIAN_POINT('',(12.904799027182,-173.2050807568,
    44.499999999983));
#172 = VECTOR('',#173,1.);
#173 = DIRECTION('',(-1.184237892931E-14,1.,-2.22044604925E-16));
#174 = ORIENTED_EDGE('',*,*,#175,.T.);
#175 = EDGE_CURVE('',#168,#24,#176,.T.);
#176 = LINE('',#177,#178);
#177 = CARTESIAN_POINT('',(12.904799027161,-155.6339702208,0.));
#178 = VECTOR('',#179,1.);
#179 = DIRECTION('',(0.,0.,1.));
#180 = ORIENTED_EDGE('',*,*,#21,.F.);
#181 = PLANE('',#182);
#182 = AXIS2_PLACEMENT_3D('',#183,#184,#185);
#183 = CARTESIAN_POINT('',(12.904799027171,-160.7050807568,50.));
#184 = DIRECTION('',(1.,1.978610313483E-12,0.));
#185 = DIRECTION('',(-1.978610313483E-12,1.,0.));
#186 = ADVANCED_FACE('',(#187),#245,.T.);
#187 = FACE_BOUND('',#188,.T.);
#188 = EDGE_LOOP('',(#189,#199,#207,#215,#221,#222,#223,#231,#239));
#189 = ORIENTED_EDGE('',*,*,#190,.F.);
#190 = EDGE_CURVE('',#191,#193,#195,.T.);
#191 = VERTEX_POINT('',#192);
#192 = CARTESIAN_POINT('',(12.904799027161,-155.6339702208,
    -7.461391857677E-15));
#193 = VERTEX_POINT('',#194);
#194 = CARTESIAN_POINT('',(12.904799027171,-155.6339702208,39.5));
#195 = LINE('',#196,#197);
#196 = CARTESIAN_POINT('',(12.904799027161,-155.6339702208,0.));
#197 = VECTOR('',#198,1.);
#198 = DIRECTION('',(0.,0.,1.));
#199 = ORIENTED_EDGE('',*,*,#200,.T.);
#200 = EDGE_CURVE('',#191,#201,#203,.T.);
#201 = VERTEX_POINT('',#202);
#202 = CARTESIAN_POINT('',(5.999999999994,-148.2050807568,7.322330470336
    ));
#203 = LINE('',#204,#205);
#204 = CARTESIAN_POINT('',(3.692537756089,-145.722476718,9.769324369974)
  );
#205 = VECTOR('',#206,1.);
#206 = DIRECTION('',(-0.55197574918,0.593872002837,0.585353582516));
#207 = ORIENTED_EDGE('',*,*,#208,.T.);
#208 = EDGE_CURVE('',#201,#209,#211,.T.);
#209 = VERTEX_POINT('',#210);
#210 = CARTESIAN_POINT('',(6.00000000003,-148.2050807568,29.));
#211 = LINE('',#212,#213);
#212 = CARTESIAN_POINT('',(5.999999999994,-148.2050807568,0.));
#213 = VECTOR('',#214,1.);
#214 = DIRECTION('',(0.,0.,1.));
#215 = ORIENTED_EDGE('',*,*,#216,.T.);
#216 = EDGE_CURVE('',#209,#32,#217,.T.);
#217 = LINE('',#218,#219);
#218 = CARTESIAN_POINT('',(5.999999999994,-148.2050807568,0.));
#219 = VECTOR('',#220,1.);
#220 = DIRECTION('',(0.,0.,1.));
#221 = ORIENTED_EDGE('',*,*,#31,.F.);
#222 = ORIENTED_EDGE('',*,*,#175,.F.);
#223 = ORIENTED_EDGE('',*,*,#224,.F.);
#224 = EDGE_CURVE('',#225,#168,#227,.T.);
#225 = VERTEX_POINT('',#226);
#226 = CARTESIAN_POINT('',(7.141778489998,-149.4335229115,
    44.499999999983));
#227 = LINE('',#228,#229);
#228 = CARTESIAN_POINT('',(15.559647241124,-158.4903276394,
    44.499999999983));
#229 = VECTOR('',#230,1.);
#230 = DIRECTION('',(0.680797527301,-0.732471655985,1.626413794719E-16)
  );
#231 = ORIENTED_EDGE('',*,*,#232,.F.);
#232 = EDGE_CURVE('',#233,#225,#235,.T.);
#233 = VERTEX_POINT('',#234);
#234 = CARTESIAN_POINT('',(7.141778489998,-149.4335229115,39.5));
#235 = LINE('',#236,#237);
#236 = CARTESIAN_POINT('',(7.141778489998,-149.4335229115,
    47.249999999991));
#237 = VECTOR('',#238,1.);
#238 = DIRECTION('',(7.88860905221E-31,-8.487372976799E-31,1.));
#239 = ORIENTED_EDGE('',*,*,#240,.F.);
#240 = EDGE_CURVE('',#193,#233,#241,.T.);
#241 = LINE('',#242,#243);
#242 = CARTESIAN_POINT('',(14.224109667117,-157.0534196319,39.5));
#243 = VECTOR('',#244,1.);
#244 = DIRECTION('',(-0.680797527301,0.732471655985,-1.626413794719E-16)
  );
#245 = PLANE('',#246);
#246 = AXIS2_PLACEMENT_3D('',#247,#248,#249);
#247 = CARTESIAN_POINT('',(9.452399513578,-151.9195254888,50.));
#248 = DIRECTION('',(0.732471655985,0.680797527301,0.));
#249 = DIRECTION('',(-0.680797527301,0.732471655985,0.));
#250 = ADVANCED_FACE('',(#251),#269,.T.);
#251 = FACE_BOUND('',#252,.T.);
#252 = EDGE_LOOP('',(#253,#254,#262,#268));
#253 = ORIENTED_EDGE('',*,*,#216,.F.);
#254 = ORIENTED_EDGE('',*,*,#255,.F.);
#255 = EDGE_CURVE('',#256,#209,#258,.T.);
#256 = VERTEX_POINT('',#257);
#257 = CARTESIAN_POINT('',(-6.,-148.2050807569,29.));
#258 = LINE('',#259,#260);
#259 = CARTESIAN_POINT('',(-3.000000000031,-148.2050807569,29.));
#260 = VECTOR('',#261,1.);
#261 = DIRECTION('',(1.,1.662670001674E-12,-3.67346228197E-28));
#262 = ORIENTED_EDGE('',*,*,#263,.T.);
#263 = EDGE_CURVE('',#256,#40,#264,.T.);
#264 = LINE('',#265,#266);
#265 = CARTESIAN_POINT('',(-6.000000000035,-148.2050807569,0.));
#266 = VECTOR('',#267,1.);
#267 = DIRECTION('',(0.,0.,1.));
#268 = ORIENTED_EDGE('',*,*,#39,.F.);
#269 = PLANE('',#270);
#270 = AXIS2_PLACEMENT_3D('',#271,#272,#273);
#271 = CARTESIAN_POINT('',(-2.048646966353E-11,-148.2050807568,50.));
#272 = DIRECTION('',(-1.662670001674E-12,1.,0.));
#273 = DIRECTION('',(1.,1.662670001674E-12,0.));
#274 = ADVANCED_FACE('',(#275),#333,.T.);
#275 = FACE_BOUND('',#276,.T.);
#276 = EDGE_LOOP('',(#277,#285,#293,#301,#309,#317,#325,#331,#332));
#277 = ORIENTED_EDGE('',*,*,#278,.F.);
#278 = EDGE_CURVE('',#279,#256,#281,.T.);
#279 = VERTEX_POINT('',#280);
#280 = CARTESIAN_POINT('',(-6.000000000035,-148.2050807569,
    7.322330470336));
#281 = LINE('',#282,#283);
#282 = CARTESIAN_POINT('',(-6.000000000035,-148.2050807569,0.));
#283 = VECTOR('',#284,1.);
#284 = DIRECTION('',(0.,0.,1.));
#285 = ORIENTED_EDGE('',*,*,#286,.T.);
#286 = EDGE_CURVE('',#279,#287,#289,.T.);
#287 = VERTEX_POINT('',#288);
#288 = CARTESIAN_POINT('',(-12.90479902717,-155.6339702209,
    -2.014428271693E-14));
#289 = LINE('',#290,#291);
#290 = CARTESIAN_POINT('',(0.239260635236,-141.4922456093,
    13.938877611304));
#291 = VECTOR('',#292,1.);
#292 = DIRECTION('',(-0.551975749178,-0.593872002839,-0.585353582515));
#293 = ORIENTED_EDGE('',*,*,#294,.T.);
#294 = EDGE_CURVE('',#287,#295,#297,.T.);
#295 = VERTEX_POINT('',#296);
#296 = CARTESIAN_POINT('',(-12.90479902717,-155.6339702209,39.5));
#297 = LINE('',#298,#299);
#298 = CARTESIAN_POINT('',(-12.90479902717,-155.6339702209,0.));
#299 = VECTOR('',#300,1.);
#300 = DIRECTION('',(0.,0.,1.));
#301 = ORIENTED_EDGE('',*,*,#302,.F.);
#302 = EDGE_CURVE('',#303,#295,#305,.T.);
#303 = VERTEX_POINT('',#304);
#304 = CARTESIAN_POINT('',(-7.141778489984,-149.4335229115,39.5));
#305 = LINE('',#306,#307);
#306 = CARTESIAN_POINT('',(-15.55964724112,-158.4903276395,39.5));
#307 = VECTOR('',#308,1.);
#308 = DIRECTION('',(-0.680797527299,-0.732471655987,1.626413794723E-16)
  );
#309 = ORIENTED_EDGE('',*,*,#310,.F.);
#310 = EDGE_CURVE('',#311,#303,#313,.T.);
#311 = VERTEX_POINT('',#312);
#312 = CARTESIAN_POINT('',(-7.141778489984,-149.4335229115,44.5));
#313 = LINE('',#314,#315);
#314 = CARTESIAN_POINT('',(-7.141778489984,-149.4335229115,44.75));
#315 = VECTOR('',#316,1.);
#316 = DIRECTION('',(-7.88860905221E-31,-8.487372976851E-31,-1.));
#317 = ORIENTED_EDGE('',*,*,#318,.F.);
#318 = EDGE_CURVE('',#319,#311,#321,.T.);
#319 = VERTEX_POINT('',#320);
#320 = CARTESIAN_POINT('',(-12.90479902717,-155.6339702209,44.5));
#321 = LINE('',#322,#323);
#322 = CARTESIAN_POINT('',(-14.22410966712,-157.053419632,44.5));
#323 = VECTOR('',#324,1.);
#324 = DIRECTION('',(0.680797527299,0.732471655987,-1.626413794723E-16)
  );
#325 = ORIENTED_EDGE('',*,*,#326,.T.);
#326 = EDGE_CURVE('',#319,#48,#327,.T.);
#327 = LINE('',#328,#329);
#328 = CARTESIAN_POINT('',(-12.90479902717,-155.6339702209,0.));
#329 = VECTOR('',#330,1.);
#330 = DIRECTION('',(0.,0.,1.));
#331 = ORIENTED_EDGE('',*,*,#47,.F.);
#332 = ORIENTED_EDGE('',*,*,#263,.F.);
#333 = PLANE('',#334);
#334 = AXIS2_PLACEMENT_3D('',#335,#336,#337);
#335 = CARTESIAN_POINT('',(-9.452399513607,-151.9195254889,50.));
#336 = DIRECTION('',(-0.732471655987,0.680797527299,0.));
#337 = DIRECTION('',(-0.680797527299,-0.732471655987,0.));
#338 = ADVANCED_FACE('',(#339),#357,.T.);
#339 = FACE_BOUND('',#340,.T.);
#340 = EDGE_LOOP('',(#341,#342,#350,#356));
#341 = ORIENTED_EDGE('',*,*,#326,.F.);
#342 = ORIENTED_EDGE('',*,*,#343,.F.);
#343 = EDGE_CURVE('',#344,#319,#346,.T.);
#344 = VERTEX_POINT('',#345);
#345 = CARTESIAN_POINT('',(-12.90479902716,-165.7761912929,44.5));
#346 = LINE('',#347,#348);
#347 = CARTESIAN_POINT('',(-12.90479902716,-173.2050807568,44.5));
#348 = VECTOR('',#349,1.);
#349 = DIRECTION('',(-1.184237892931E-14,1.,-2.22044604925E-16));
#350 = ORIENTED_EDGE('',*,*,#351,.T.);
#351 = EDGE_CURVE('',#344,#56,#352,.T.);
#352 = LINE('',#353,#354);
#353 = CARTESIAN_POINT('',(-12.90479902716,-165.7761912929,0.));
#354 = VECTOR('',#355,1.);
#355 = DIRECTION('',(0.,0.,1.));
#356 = ORIENTED_EDGE('',*,*,#55,.F.);
#357 = PLANE('',#358);
#358 = AXIS2_PLACEMENT_3D('',#359,#360,#361);
#359 = CARTESIAN_POINT('',(-12.90479902717,-160.7050807569,50.));
#360 = DIRECTION('',(-1.,-1.085372055648E-12,-0.));
#361 = DIRECTION('',(1.085372055648E-12,-1.,0.));
#362 = ADVANCED_FACE('',(#363),#477,.T.);
#363 = FACE_BOUND('',#364,.T.);
#364 = EDGE_LOOP('',(#365,#375,#383,#391,#399,#407,#415,#423,#431,#439,
    #447,#453,#454,#455,#463,#471));
#365 = ORIENTED_EDGE('',*,*,#366,.F.);
#366 = EDGE_CURVE('',#367,#369,#371,.T.);
#367 = VERTEX_POINT('',#368);
#368 = CARTESIAN_POINT('',(-12.90479902716,-165.7761912929,
    -2.618548638727E-15));
#369 = VERTEX_POINT('',#370);
#370 = CARTESIAN_POINT('',(-12.90479902716,-165.7761912929,39.5));
#371 = LINE('',#372,#373);
#372 = CARTESIAN_POINT('',(-12.90479902716,-165.7761912929,0.));
#373 = VECTOR('',#374,1.);
#374 = DIRECTION('',(0.,0.,1.));
#375 = ORIENTED_EDGE('',*,*,#376,.T.);
#376 = EDGE_CURVE('',#367,#377,#379,.T.);
#377 = VERTEX_POINT('',#378);
#378 = CARTESIAN_POINT('',(-6.,-173.2050807569,7.322330470336));
#379 = LINE('',#380,#381);
#380 = CARTESIAN_POINT('',(2.639792636243,-182.5006539131,
    16.484569172516));
#381 = VECTOR('',#382,1.);
#382 = DIRECTION('',(0.55197574918,-0.593872002837,0.585353582515));
#383 = ORIENTED_EDGE('',*,*,#384,.T.);
#384 = EDGE_CURVE('',#377,#385,#387,.T.);
#385 = VERTEX_POINT('',#386);
#386 = CARTESIAN_POINT('',(-6.,-173.2050807568,29.));
#387 = LINE('',#388,#389);
#388 = CARTESIAN_POINT('',(-6.,-173.2050807568,0.));
#389 = VECTOR('',#390,1.);
#390 = DIRECTION('',(0.,0.,1.));
#391 = ORIENTED_EDGE('',*,*,#392,.F.);
#392 = EDGE_CURVE('',#393,#385,#395,.T.);
#393 = VERTEX_POINT('',#394);
#394 = CARTESIAN_POINT('',(-1.299999999998,-178.2618217776,29.));
#395 = LINE('',#396,#397);
#396 = CARTESIAN_POINT('',(-1.299999999998,-178.2618217776,29.));
#397 = VECTOR('',#398,1.);
#398 = DIRECTION('',(-0.680797527297,0.732471655989,-0.));
#399 = ORIENTED_EDGE('',*,*,#400,.T.);
#400 = EDGE_CURVE('',#393,#401,#403,.T.);
#401 = VERTEX_POINT('',#402);
#402 = CARTESIAN_POINT('',(-1.299999999998,-178.2618217776,
    39.49999999995));
#403 = LINE('',#404,#405);
#404 = CARTESIAN_POINT('',(-1.299999999998,-178.2618217776,29.));
#405 = VECTOR('',#406,1.);
#406 = DIRECTION('',(0.,0.,1.));
#407 = ORIENTED_EDGE('',*,*,#408,.F.);
#408 = EDGE_CURVE('',#409,#401,#411,.T.);
#409 = VERTEX_POINT('',#410);
#410 = CARTESIAN_POINT('',(-3.158904769152,-176.2618217776,
    39.49999999995));
#411 = LINE('',#412,#413);
#412 = CARTESIAN_POINT('',(-6.350445638594,-172.8280354726,
    39.49999999995));
#413 = VECTOR('',#414,1.);
#414 = DIRECTION('',(0.6807975273,-0.732471655985,1.62641379472E-16));
#415 = ORIENTED_EDGE('',*,*,#416,.F.);
#416 = EDGE_CURVE('',#417,#409,#419,.T.);
#417 = VERTEX_POINT('',#418);
#418 = CARTESIAN_POINT('',(-3.158904769152,-176.2618217776,
    44.499999999983));
#419 = LINE('',#420,#421);
#420 = CARTESIAN_POINT('',(-3.158904769152,-176.2618217776,
    46.014321110407));
#421 = VECTOR('',#422,1.);
#422 = DIRECTION('',(-5.502322154573E-14,6.79910014332E-26,-1.));
#423 = ORIENTED_EDGE('',*,*,#424,.F.);
#424 = EDGE_CURVE('',#425,#417,#427,.T.);
#425 = VERTEX_POINT('',#426);
#426 = CARTESIAN_POINT('',(-1.299999999998,-178.2618217776,
    44.499999999983));
#427 = LINE('',#428,#429);
#428 = CARTESIAN_POINT('',(-3.040336484078,-176.3893896736,
    44.499999999983));
#429 = VECTOR('',#430,1.);
#430 = DIRECTION('',(-0.6807975273,0.732471655985,-1.62641379472E-16));
#431 = ORIENTED_EDGE('',*,*,#432,.T.);
#432 = EDGE_CURVE('',#425,#433,#435,.T.);
#433 = VERTEX_POINT('',#434);
#434 = CARTESIAN_POINT('',(-1.299999999998,-178.2618217776,53.));
#435 = LINE('',#436,#437);
#436 = CARTESIAN_POINT('',(-1.299999999998,-178.2618217776,29.));
#437 = VECTOR('',#438,1.);
#438 = DIRECTION('',(0.,0.,1.));
#439 = ORIENTED_EDGE('',*,*,#440,.T.);
#440 = EDGE_CURVE('',#433,#441,#443,.T.);
#441 = VERTEX_POINT('',#442);
#442 = CARTESIAN_POINT('',(-6.,-173.2050807568,53.));
#443 = LINE('',#444,#445);
#444 = CARTESIAN_POINT('',(-1.299999999998,-178.2618217776,53.));
#445 = VECTOR('',#446,1.);
#446 = DIRECTION('',(-0.680797527297,0.732471655989,-0.));
#447 = ORIENTED_EDGE('',*,*,#448,.T.);
#448 = EDGE_CURVE('',#441,#64,#449,.T.);
#449 = LINE('',#450,#451);
#450 = CARTESIAN_POINT('',(-6.,-173.2050807568,0.));
#451 = VECTOR('',#452,1.);
#452 = DIRECTION('',(0.,0.,1.));
#453 = ORIENTED_EDGE('',*,*,#63,.F.);
#454 = ORIENTED_EDGE('',*,*,#351,.F.);
#455 = ORIENTED_EDGE('',*,*,#456,.F.);
#456 = EDGE_CURVE('',#457,#344,#459,.T.);
#457 = VERTEX_POINT('',#458);
#458 = CARTESIAN_POINT('',(-7.141778489984,-171.9766386022,44.5));
#459 = LINE('',#460,#461);
#460 = CARTESIAN_POINT('',(-7.990798514462,-171.063175967,44.5));
#461 = VECTOR('',#462,1.);
#462 = DIRECTION('',(-0.680797527301,0.732471655984,-1.626413794718E-16)
  );
#463 = ORIENTED_EDGE('',*,*,#464,.F.);
#464 = EDGE_CURVE('',#465,#457,#467,.T.);
#465 = VERTEX_POINT('',#466);
#466 = CARTESIAN_POINT('',(-7.141778489984,-171.9766386022,39.5));
#467 = LINE('',#468,#469);
#468 = CARTESIAN_POINT('',(-7.141778489984,-171.9766386022,44.75));
#469 = VECTOR('',#470,1.);
#470 = DIRECTION('',(7.88860905221E-31,-8.487372976796E-31,1.));
#471 = ORIENTED_EDGE('',*,*,#472,.F.);
#472 = EDGE_CURVE('',#369,#465,#473,.T.);
#473 = LINE('',#474,#475);
#474 = CARTESIAN_POINT('',(-9.326336088469,-169.6262679595,39.5));
#475 = VECTOR('',#476,1.);
#476 = DIRECTION('',(0.680797527301,-0.732471655984,1.626413794718E-16)
  );
#477 = PLANE('',#478);
#478 = AXIS2_PLACEMENT_3D('',#479,#480,#481);
#479 = CARTESIAN_POINT('',(-8.693312977719,-170.3073390087,
    50.028642220848));
#480 = DIRECTION('',(-0.732471655985,-0.6807975273,4.030295020321E-14));
#481 = DIRECTION('',(0.6807975273,-0.732471655985,3.155443620884E-30));
#482 = ADVANCED_FACE('',(#483),#501,.T.);
#483 = FACE_BOUND('',#484,.T.);
#484 = EDGE_LOOP('',(#485,#486,#494,#500));
#485 = ORIENTED_EDGE('',*,*,#448,.F.);
#486 = ORIENTED_EDGE('',*,*,#487,.T.);
#487 = EDGE_CURVE('',#441,#488,#490,.T.);
#488 = VERTEX_POINT('',#489);
#489 = CARTESIAN_POINT('',(6.00000000003,-173.2050807568,53.));
#490 = LINE('',#491,#492);
#491 = CARTESIAN_POINT('',(-6.,-173.2050807568,53.));
#492 = VECTOR('',#493,1.);
#493 = DIRECTION('',(1.,1.184237892931E-14,0.));
#494 = ORIENTED_EDGE('',*,*,#495,.T.);
#495 = EDGE_CURVE('',#488,#72,#496,.T.);
#496 = LINE('',#497,#498);
#497 = CARTESIAN_POINT('',(6.00000000003,-173.2050807568,0.));
#498 = VECTOR('',#499,1.);
#499 = DIRECTION('',(0.,0.,1.));
#500 = ORIENTED_EDGE('',*,*,#71,.F.);
#501 = PLANE('',#502);
#502 = AXIS2_PLACEMENT_3D('',#503,#504,#505);
#503 = CARTESIAN_POINT('',(1.495768588353E-11,-173.2050807568,50.));
#504 = DIRECTION('',(1.184237892931E-14,-1.,0.));
#505 = DIRECTION('',(-1.,-1.184237892931E-14,0.));
#506 = ADVANCED_FACE('',(#507),#614,.T.);
#507 = FACE_BOUND('',#508,.T.);
#508 = EDGE_LOOP('',(#509,#519,#527,#535,#543,#551,#557,#558,#559,#560,
    #568,#576,#584,#592,#600,#608));
#509 = ORIENTED_EDGE('',*,*,#510,.F.);
#510 = EDGE_CURVE('',#511,#513,#515,.T.);
#511 = VERTEX_POINT('',#512);
#512 = CARTESIAN_POINT('',(6.00000000003,-173.2050807568,7.322330470336)
  );
#513 = VERTEX_POINT('',#514);
#514 = CARTESIAN_POINT('',(6.00000000003,-173.2050807568,29.));
#515 = LINE('',#516,#517);
#516 = CARTESIAN_POINT('',(6.00000000003,-173.2050807568,0.));
#517 = VECTOR('',#518,1.);
#518 = DIRECTION('',(0.,0.,1.));
#519 = ORIENTED_EDGE('',*,*,#520,.T.);
#520 = EDGE_CURVE('',#511,#521,#523,.T.);
#521 = VERTEX_POINT('',#522);
#522 = CARTESIAN_POINT('',(12.904799027182,-165.7761912928,
    8.229745429956E-17));
#523 = LINE('',#524,#525);
#524 = CARTESIAN_POINT('',(1.292005755215,-178.2704228044,
    12.315015931189));
#525 = VECTOR('',#526,1.);
#526 = DIRECTION('',(0.551975749178,0.593872002839,-0.585353582515));
#527 = ORIENTED_EDGE('',*,*,#528,.T.);
#528 = EDGE_CURVE('',#521,#529,#531,.T.);
#529 = VERTEX_POINT('',#530);
#530 = CARTESIAN_POINT('',(12.904799027182,-165.7761912928,39.5));
#531 = LINE('',#532,#533);
#532 = CARTESIAN_POINT('',(12.904799027182,-165.7761912928,0.));
#533 = VECTOR('',#534,1.);
#534 = DIRECTION('',(0.,0.,1.));
#535 = ORIENTED_EDGE('',*,*,#536,.F.);
#536 = EDGE_CURVE('',#537,#529,#539,.T.);
#537 = VERTEX_POINT('',#538);
#538 = CARTESIAN_POINT('',(7.141778489999,-171.9766386022,39.5));
#539 = LINE('',#540,#541);
#540 = CARTESIAN_POINT('',(7.990798514482,-171.063175967,39.5));
#541 = VECTOR('',#542,1.);
#542 = DIRECTION('',(0.680797527298,0.732471655987,-1.626413794724E-16)
  );
#543 = ORIENTED_EDGE('',*,*,#544,.F.);
#544 = EDGE_CURVE('',#545,#537,#547,.T.);
#545 = VERTEX_POINT('',#546);
#546 = CARTESIAN_POINT('',(7.141778489999,-171.9766386022,
    44.499999999983));
#547 = LINE('',#548,#549);
#548 = CARTESIAN_POINT('',(7.141778489999,-171.9766386022,
    47.249999999991));
#549 = VECTOR('',#550,1.);
#550 = DIRECTION('',(-7.88860905221E-31,-8.487372976861E-31,-1.));
#551 = ORIENTED_EDGE('',*,*,#552,.F.);
#552 = EDGE_CURVE('',#160,#545,#553,.T.);
#553 = LINE('',#554,#555);
#554 = CARTESIAN_POINT('',(9.326336088479,-169.6262679595,
    44.499999999983));
#555 = VECTOR('',#556,1.);
#556 = DIRECTION('',(-0.680797527298,-0.732471655987,1.626413794724E-16)
  );
#557 = ORIENTED_EDGE('',*,*,#159,.T.);
#558 = ORIENTED_EDGE('',*,*,#79,.F.);
#559 = ORIENTED_EDGE('',*,*,#495,.F.);
#560 = ORIENTED_EDGE('',*,*,#561,.T.);
#561 = EDGE_CURVE('',#488,#562,#564,.T.);
#562 = VERTEX_POINT('',#563);
#563 = CARTESIAN_POINT('',(1.300000000002,-178.2618217777,53.));
#564 = LINE('',#565,#566);
#565 = CARTESIAN_POINT('',(6.00000000003,-173.2050807568,53.));
#566 = VECTOR('',#567,1.);
#567 = DIRECTION('',(-0.680797527298,-0.732471655987,0.));
#568 = ORIENTED_EDGE('',*,*,#569,.F.);
#569 = EDGE_CURVE('',#570,#562,#572,.T.);
#570 = VERTEX_POINT('',#571);
#571 = CARTESIAN_POINT('',(1.300000000002,-178.2618217777,
    44.499999999983));
#572 = LINE('',#573,#574);
#573 = CARTESIAN_POINT('',(1.300000000002,-178.2618217777,29.));
#574 = VECTOR('',#575,1.);
#575 = DIRECTION('',(0.,0.,1.));
#576 = ORIENTED_EDGE('',*,*,#577,.F.);
#577 = EDGE_CURVE('',#578,#570,#580,.T.);
#578 = VERTEX_POINT('',#579);
#579 = CARTESIAN_POINT('',(3.158904769171,-176.2618217777,
    44.499999999983));
#580 = LINE('',#581,#582);
#581 = CARTESIAN_POINT('',(6.3504456385,-172.8280354727,44.499999999983)
  );
#582 = VECTOR('',#583,1.);
#583 = DIRECTION('',(-0.680797527298,-0.732471655987,1.626413794725E-16)
  );
#584 = ORIENTED_EDGE('',*,*,#585,.F.);
#585 = EDGE_CURVE('',#586,#578,#588,.T.);
#586 = VERTEX_POINT('',#587);
#587 = CARTESIAN_POINT('',(3.158904769171,-176.2618217777,39.49999999995
    ));
#588 = LINE('',#589,#590);
#589 = CARTESIAN_POINT('',(3.158904769171,-176.2618217777,
    46.014321110403));
#590 = VECTOR('',#591,1.);
#591 = DIRECTION('',(0.,0.,1.));
#592 = ORIENTED_EDGE('',*,*,#593,.F.);
#593 = EDGE_CURVE('',#594,#586,#596,.T.);
#594 = VERTEX_POINT('',#595);
#595 = CARTESIAN_POINT('',(1.300000000002,-178.2618217777,39.49999999995
    ));
#596 = LINE('',#597,#598);
#597 = CARTESIAN_POINT('',(3.040336484009,-176.3893896737,39.49999999995
    ));
#598 = VECTOR('',#599,1.);
#599 = DIRECTION('',(0.680797527298,0.732471655987,-1.626413794725E-16)
  );
#600 = ORIENTED_EDGE('',*,*,#601,.F.);
#601 = EDGE_CURVE('',#602,#594,#604,.T.);
#602 = VERTEX_POINT('',#603);
#603 = CARTESIAN_POINT('',(1.300000000002,-178.2618217777,29.));
#604 = LINE('',#605,#606);
#605 = CARTESIAN_POINT('',(1.300000000002,-178.2618217777,29.));
#606 = VECTOR('',#607,1.);
#607 = DIRECTION('',(0.,0.,1.));
#608 = ORIENTED_EDGE('',*,*,#609,.F.);
#609 = EDGE_CURVE('',#513,#602,#610,.T.);
#610 = LINE('',#611,#612);
#611 = CARTESIAN_POINT('',(6.00000000003,-173.2050807568,29.));
#612 = VECTOR('',#613,1.);
#613 = DIRECTION('',(-0.680797527298,-0.732471655987,0.));
#614 = PLANE('',#615);
#615 = AXIS2_PLACEMENT_3D('',#616,#617,#618);
#616 = CARTESIAN_POINT('',(8.693312977738,-170.3073390087,50.02864222084
    ));
#617 = DIRECTION('',(0.732471655987,-0.680797527298,0.));
#618 = DIRECTION('',(0.680797527298,0.732471655987,0.));
#619 = ADVANCED_FACE('',(#620),#645,.T.);
#620 = FACE_BOUND('',#621,.T.);
#621 = EDGE_LOOP('',(#622,#632,#638,#639));
#622 = ORIENTED_EDGE('',*,*,#623,.F.);
#623 = EDGE_CURVE('',#624,#626,#628,.T.);
#624 = VERTEX_POINT('',#625);
#625 = CARTESIAN_POINT('',(-10.1,-156.5215237769,44.5));
#626 = VERTEX_POINT('',#627);
#627 = CARTESIAN_POINT('',(-10.1,-164.8886377368,44.5));
#628 = LINE('',#629,#630);
#629 = CARTESIAN_POINT('',(-10.1,-164.8633022669,44.5));
#630 = VECTOR('',#631,1.);
#631 = DIRECTION('',(1.188892412398E-14,-1.,2.22044604925E-16));
#632 = ORIENTED_EDGE('',*,*,#633,.T.);
#633 = EDGE_CURVE('',#624,#88,#634,.T.);
#634 = LINE('',#635,#636);
#635 = CARTESIAN_POINT('',(-10.1,-156.5215237769,0.));
#636 = VECTOR('',#637,1.);
#637 = DIRECTION('',(0.,0.,1.));
#638 = ORIENTED_EDGE('',*,*,#87,.T.);
#639 = ORIENTED_EDGE('',*,*,#640,.F.);
#640 = EDGE_CURVE('',#626,#90,#641,.T.);
#641 = LINE('',#642,#643);
#642 = CARTESIAN_POINT('',(-10.1,-164.8886377368,0.));
#643 = VECTOR('',#644,1.);
#644 = DIRECTION('',(0.,0.,1.));
#645 = PLANE('',#646);
#646 = AXIS2_PLACEMENT_3D('',#647,#648,#649);
#647 = CARTESIAN_POINT('',(-10.1,-156.5215237769,0.));
#648 = DIRECTION('',(1.,1.188892412398E-14,0.));
#649 = DIRECTION('',(1.188892412398E-14,-1.,0.));
#650 = ADVANCED_FACE('',(#651),#701,.T.);
#651 = FACE_BOUND('',#652,.T.);
#652 = EDGE_LOOP('',(#653,#663,#671,#679,#687,#693,#694,#695));
#653 = ORIENTED_EDGE('',*,*,#654,.F.);
#654 = EDGE_CURVE('',#655,#657,#659,.T.);
#655 = VERTEX_POINT('',#656);
#656 = CARTESIAN_POINT('',(-10.1,-164.8886377368,32.));
#657 = VERTEX_POINT('',#658);
#658 = CARTESIAN_POINT('',(-4.183556979968,-170.8050807568,32.));
#659 = LINE('',#660,#661);
#660 = CARTESIAN_POINT('',(-8.620889244991,-166.3677484918,32.));
#661 = VECTOR('',#662,1.);
#662 = DIRECTION('',(0.707106781187,-0.707106781187,0.));
#663 = ORIENTED_EDGE('',*,*,#664,.T.);
#664 = EDGE_CURVE('',#655,#665,#667,.T.);
#665 = VERTEX_POINT('',#666);
#666 = CARTESIAN_POINT('',(-10.1,-164.8886377368,39.5));
#667 = LINE('',#668,#669);
#668 = CARTESIAN_POINT('',(-10.1,-164.8886377368,0.));
#669 = VECTOR('',#670,1.);
#670 = DIRECTION('',(0.,0.,1.));
#671 = ORIENTED_EDGE('',*,*,#672,.F.);
#672 = EDGE_CURVE('',#673,#665,#675,.T.);
#673 = VERTEX_POINT('',#674);
#674 = CARTESIAN_POINT('',(-7.141778489984,-167.8468592468,39.5));
#675 = LINE('',#676,#677);
#676 = CARTESIAN_POINT('',(-8.722089001784,-166.266548735,39.5));
#677 = VECTOR('',#678,1.);
#678 = DIRECTION('',(-0.707106781187,0.707106781187,-1.570092458684E-16)
  );
#679 = ORIENTED_EDGE('',*,*,#680,.F.);
#680 = EDGE_CURVE('',#681,#673,#683,.T.);
#681 = VERTEX_POINT('',#682);
#682 = CARTESIAN_POINT('',(-7.141778489984,-167.8468592468,44.5));
#683 = LINE('',#684,#685);
#684 = CARTESIAN_POINT('',(-7.141778489984,-167.8468592468,19.75));
#685 = VECTOR('',#686,1.);
#686 = DIRECTION('',(-7.88860905221E-31,7.88860905221E-31,-1.));
#687 = ORIENTED_EDGE('',*,*,#688,.F.);
#688 = EDGE_CURVE('',#626,#681,#689,.T.);
#689 = LINE('',#690,#691);
#690 = CARTESIAN_POINT('',(-7.281333867488,-167.7073038693,44.5));
#691 = VECTOR('',#692,1.);
#692 = DIRECTION('',(0.707106781187,-0.707106781187,1.570092458684E-16)
  );
#693 = ORIENTED_EDGE('',*,*,#640,.T.);
#694 = ORIENTED_EDGE('',*,*,#97,.T.);
#695 = ORIENTED_EDGE('',*,*,#696,.F.);
#696 = EDGE_CURVE('',#657,#98,#697,.T.);
#697 = LINE('',#698,#699);
#698 = CARTESIAN_POINT('',(-4.183556979968,-170.8050807568,0.));
#699 = VECTOR('',#700,1.);
#700 = DIRECTION('',(0.,0.,1.));
#701 = PLANE('',#702);
#702 = AXIS2_PLACEMENT_3D('',#703,#704,#705);
#703 = CARTESIAN_POINT('',(-10.1,-164.8886377368,0.));
#704 = DIRECTION('',(0.707106781187,0.707106781187,0.));
#705 = DIRECTION('',(0.707106781187,-0.707106781187,0.));
#706 = ADVANCED_FACE('',(#707),#725,.T.);
#707 = FACE_BOUND('',#708,.T.);
#708 = EDGE_LOOP('',(#709,#717,#718,#719));
#709 = ORIENTED_EDGE('',*,*,#710,.F.);
#710 = EDGE_CURVE('',#657,#711,#713,.T.);
#711 = VERTEX_POINT('',#712);
#712 = CARTESIAN_POINT('',(4.183556979968,-170.8050807568,32.));
#713 = LINE('',#714,#715);
#714 = CARTESIAN_POINT('',(-2.091778489984,-170.8050807568,32.));
#715 = VECTOR('',#716,1.);
#716 = DIRECTION('',(1.,1.358734185598E-14,0.));
#717 = ORIENTED_EDGE('',*,*,#696,.T.);
#718 = ORIENTED_EDGE('',*,*,#105,.T.);
#719 = ORIENTED_EDGE('',*,*,#720,.F.);
#720 = EDGE_CURVE('',#711,#106,#721,.T.);
#721 = LINE('',#722,#723);
#722 = CARTESIAN_POINT('',(4.183556979968,-170.8050807568,0.));
#723 = VECTOR('',#724,1.);
#724 = DIRECTION('',(0.,0.,1.));
#725 = PLANE('',#726);
#726 = AXIS2_PLACEMENT_3D('',#727,#728,#729);
#727 = CARTESIAN_POINT('',(-4.183556979968,-170.8050807568,0.));
#728 = DIRECTION('',(-1.358734185598E-14,1.,0.));
#729 = DIRECTION('',(1.,1.358734185598E-14,0.));
#730 = ADVANCED_FACE('',(#731),#781,.T.);
#731 = FACE_BOUND('',#732,.T.);
#732 = EDGE_LOOP('',(#733,#741,#742,#743,#751,#759,#767,#775));
#733 = ORIENTED_EDGE('',*,*,#734,.F.);
#734 = EDGE_CURVE('',#711,#735,#737,.T.);
#735 = VERTEX_POINT('',#736);
#736 = CARTESIAN_POINT('',(10.1,-164.8886377368,32.));
#737 = LINE('',#738,#739);
#738 = CARTESIAN_POINT('',(5.662667734976,-169.3259700018,32.));
#739 = VECTOR('',#740,1.);
#740 = DIRECTION('',(0.707106781187,0.707106781187,0.));
#741 = ORIENTED_EDGE('',*,*,#720,.T.);
#742 = ORIENTED_EDGE('',*,*,#113,.T.);
#743 = ORIENTED_EDGE('',*,*,#744,.F.);
#744 = EDGE_CURVE('',#745,#114,#747,.T.);
#745 = VERTEX_POINT('',#746);
#746 = CARTESIAN_POINT('',(10.1,-164.8886377368,44.499999999983));
#747 = LINE('',#748,#749);
#748 = CARTESIAN_POINT('',(10.1,-164.8886377368,0.));
#749 = VECTOR('',#750,1.);
#750 = DIRECTION('',(0.,0.,1.));
#751 = ORIENTED_EDGE('',*,*,#752,.F.);
#752 = EDGE_CURVE('',#753,#745,#755,.T.);
#753 = VERTEX_POINT('',#754);
#754 = CARTESIAN_POINT('',(7.141778489999,-167.8468592468,
    44.499999999983));
#755 = LINE('',#756,#757);
#756 = CARTESIAN_POINT('',(5.763867491772,-169.224770245,44.499999999983
    ));
#757 = VECTOR('',#758,1.);
#758 = DIRECTION('',(0.707106781187,0.707106781187,-1.570092458684E-16)
  );
#759 = ORIENTED_EDGE('',*,*,#760,.F.);
#760 = EDGE_CURVE('',#761,#753,#763,.T.);
#761 = VERTEX_POINT('',#762);
#762 = CARTESIAN_POINT('',(7.141778489999,-167.8468592468,39.5));
#763 = LINE('',#764,#765);
#764 = CARTESIAN_POINT('',(7.141778489999,-167.8468592468,
    22.249999999991));
#765 = VECTOR('',#766,1.);
#766 = DIRECTION('',(7.88860905221E-31,7.88860905221E-31,1.));
#767 = ORIENTED_EDGE('',*,*,#768,.F.);
#768 = EDGE_CURVE('',#769,#761,#771,.T.);
#769 = VERTEX_POINT('',#770);
#770 = CARTESIAN_POINT('',(10.1,-164.8886377368,39.5));
#771 = LINE('',#772,#773);
#772 = CARTESIAN_POINT('',(4.323112357476,-170.6655253793,39.5));
#773 = VECTOR('',#774,1.);
#774 = DIRECTION('',(-0.707106781187,-0.707106781187,1.570092458684E-16)
  );
#775 = ORIENTED_EDGE('',*,*,#776,.F.);
#776 = EDGE_CURVE('',#735,#769,#777,.T.);
#777 = LINE('',#778,#779);
#778 = CARTESIAN_POINT('',(10.1,-164.8886377368,0.));
#779 = VECTOR('',#780,1.);
#780 = DIRECTION('',(0.,0.,1.));
#781 = PLANE('',#782);
#782 = AXIS2_PLACEMENT_3D('',#783,#784,#785);
#783 = CARTESIAN_POINT('',(4.183556979968,-170.8050807568,0.));
#784 = DIRECTION('',(-0.707106781187,0.707106781187,0.));
#785 = DIRECTION('',(0.707106781187,0.707106781187,0.));
#786 = ADVANCED_FACE('',(#787),#805,.T.);
#787 = FACE_BOUND('',#788,.T.);
#788 = EDGE_LOOP('',(#789,#797,#798,#799));
#789 = ORIENTED_EDGE('',*,*,#790,.F.);
#790 = EDGE_CURVE('',#745,#791,#793,.T.);
#791 = VERTEX_POINT('',#792);
#792 = CARTESIAN_POINT('',(10.1,-156.5215237769,44.499999999983));
#793 = LINE('',#794,#795);
#794 = CARTESIAN_POINT('',(10.1,-169.0468592468,44.499999999983));
#795 = VECTOR('',#796,1.);
#796 = DIRECTION('',(-1.188892412398E-14,1.,-2.22044604925E-16));
#797 = ORIENTED_EDGE('',*,*,#744,.T.);
#798 = ORIENTED_EDGE('',*,*,#121,.T.);
#799 = ORIENTED_EDGE('',*,*,#800,.F.);
#800 = EDGE_CURVE('',#791,#122,#801,.T.);
#801 = LINE('',#802,#803);
#802 = CARTESIAN_POINT('',(10.1,-156.5215237769,0.));
#803 = VECTOR('',#804,1.);
#804 = DIRECTION('',(0.,0.,1.));
#805 = PLANE('',#806);
#806 = AXIS2_PLACEMENT_3D('',#807,#808,#809);
#807 = CARTESIAN_POINT('',(10.1,-164.8886377368,0.));
#808 = DIRECTION('',(-1.,-1.188892412398E-14,0.));
#809 = DIRECTION('',(-1.188892412398E-14,1.,0.));
#810 = ADVANCED_FACE('',(#811),#861,.T.);
#811 = FACE_BOUND('',#812,.T.);
#812 = EDGE_LOOP('',(#813,#823,#831,#839,#847,#853,#854,#855));
#813 = ORIENTED_EDGE('',*,*,#814,.F.);
#814 = EDGE_CURVE('',#815,#817,#819,.T.);
#815 = VERTEX_POINT('',#816);
#816 = CARTESIAN_POINT('',(10.1,-156.5215237769,32.));
#817 = VERTEX_POINT('',#818);
#818 = CARTESIAN_POINT('',(4.183556979968,-150.6050807568,32.));
#819 = LINE('',#820,#821);
#820 = CARTESIAN_POINT('',(8.620889244993,-155.0424130219,32.));
#821 = VECTOR('',#822,1.);
#822 = DIRECTION('',(-0.707106781187,0.707106781187,0.));
#823 = ORIENTED_EDGE('',*,*,#824,.T.);
#824 = EDGE_CURVE('',#815,#825,#827,.T.);
#825 = VERTEX_POINT('',#826);
#826 = CARTESIAN_POINT('',(10.1,-156.5215237769,39.5));
#827 = LINE('',#828,#829);
#828 = CARTESIAN_POINT('',(10.1,-156.5215237769,0.));
#829 = VECTOR('',#830,1.);
#830 = DIRECTION('',(0.,0.,1.));
#831 = ORIENTED_EDGE('',*,*,#832,.F.);
#832 = EDGE_CURVE('',#833,#825,#835,.T.);
#833 = VERTEX_POINT('',#834);
#834 = CARTESIAN_POINT('',(7.141778489999,-153.5633022669,39.5));
#835 = LINE('',#836,#837);
#836 = CARTESIAN_POINT('',(13.531333867492,-159.9528576444,39.5));
#837 = VECTOR('',#838,1.);
#838 = DIRECTION('',(0.707106781187,-0.707106781187,1.570092458684E-16)
  );
#839 = ORIENTED_EDGE('',*,*,#840,.F.);
#840 = EDGE_CURVE('',#841,#833,#843,.T.);
#841 = VERTEX_POINT('',#842);
#842 = CARTESIAN_POINT('',(7.141778489999,-153.5633022669,
    44.499999999983));
#843 = LINE('',#844,#845);
#844 = CARTESIAN_POINT('',(7.141778489999,-153.5633022669,
    22.249999999991));
#845 = VECTOR('',#846,1.);
#846 = DIRECTION('',(-7.88860905221E-31,7.88860905221E-31,-1.));
#847 = ORIENTED_EDGE('',*,*,#848,.F.);
#848 = EDGE_CURVE('',#791,#841,#849,.T.);
#849 = LINE('',#850,#851);
#850 = CARTESIAN_POINT('',(14.972089001787,-161.3936127787,
    44.499999999983));
#851 = VECTOR('',#852,1.);
#852 = DIRECTION('',(-0.707106781187,0.707106781187,-1.570092458684E-16)
  );
#853 = ORIENTED_EDGE('',*,*,#800,.T.);
#854 = ORIENTED_EDGE('',*,*,#129,.T.);
#855 = ORIENTED_EDGE('',*,*,#856,.F.);
#856 = EDGE_CURVE('',#817,#130,#857,.T.);
#857 = LINE('',#858,#859);
#858 = CARTESIAN_POINT('',(4.183556979968,-150.6050807568,0.));
#859 = VECTOR('',#860,1.);
#860 = DIRECTION('',(0.,0.,1.));
#861 = PLANE('',#862);
#862 = AXIS2_PLACEMENT_3D('',#863,#864,#865);
#863 = CARTESIAN_POINT('',(10.1,-156.5215237769,0.));
#864 = DIRECTION('',(-0.707106781187,-0.707106781187,0.));
#865 = DIRECTION('',(-0.707106781187,0.707106781187,0.));
#866 = ADVANCED_FACE('',(#867),#885,.T.);
#867 = FACE_BOUND('',#868,.T.);
#868 = EDGE_LOOP('',(#869,#877,#878,#879));
#869 = ORIENTED_EDGE('',*,*,#870,.F.);
#870 = EDGE_CURVE('',#817,#871,#873,.T.);
#871 = VERTEX_POINT('',#872);
#872 = CARTESIAN_POINT('',(-4.183556979968,-150.6050807568,32.));
#873 = LINE('',#874,#875);
#874 = CARTESIAN_POINT('',(2.091778489984,-150.6050807568,32.));
#875 = VECTOR('',#876,1.);
#876 = DIRECTION('',(-1.,-1.019050639199E-14,0.));
#877 = ORIENTED_EDGE('',*,*,#856,.T.);
#878 = ORIENTED_EDGE('',*,*,#137,.T.);
#879 = ORIENTED_EDGE('',*,*,#880,.F.);
#880 = EDGE_CURVE('',#871,#138,#881,.T.);
#881 = LINE('',#882,#883);
#882 = CARTESIAN_POINT('',(-4.183556979968,-150.6050807568,0.));
#883 = VECTOR('',#884,1.);
#884 = DIRECTION('',(0.,0.,1.));
#885 = PLANE('',#886);
#886 = AXIS2_PLACEMENT_3D('',#887,#888,#889);
#887 = CARTESIAN_POINT('',(4.183556979968,-150.6050807568,0.));
#888 = DIRECTION('',(1.019050639199E-14,-1.,0.));
#889 = DIRECTION('',(-1.,-1.019050639199E-14,0.));
#890 = ADVANCED_FACE('',(#891),#934,.T.);
#891 = FACE_BOUND('',#892,.T.);
#892 = EDGE_LOOP('',(#893,#901,#902,#903,#904,#912,#920,#928));
#893 = ORIENTED_EDGE('',*,*,#894,.F.);
#894 = EDGE_CURVE('',#871,#895,#897,.T.);
#895 = VERTEX_POINT('',#896);
#896 = CARTESIAN_POINT('',(-10.1,-156.5215237769,32.));
#897 = LINE('',#898,#899);
#898 = CARTESIAN_POINT('',(-5.662667734977,-152.0841915118,32.));
#899 = VECTOR('',#900,1.);
#900 = DIRECTION('',(-0.707106781187,-0.707106781187,0.));
#901 = ORIENTED_EDGE('',*,*,#880,.T.);
#902 = ORIENTED_EDGE('',*,*,#145,.T.);
#903 = ORIENTED_EDGE('',*,*,#633,.F.);
#904 = ORIENTED_EDGE('',*,*,#905,.F.);
#905 = EDGE_CURVE('',#906,#624,#908,.T.);
#906 = VERTEX_POINT('',#907);
#907 = CARTESIAN_POINT('',(-7.141778489984,-153.5633022669,44.5));
#908 = LINE('',#909,#910);
#909 = CARTESIAN_POINT('',(-10.57311235747,-156.9946361343,44.5));
#910 = VECTOR('',#911,1.);
#911 = DIRECTION('',(-0.707106781187,-0.707106781187,1.570092458684E-16)
  );
#912 = ORIENTED_EDGE('',*,*,#913,.F.);
#913 = EDGE_CURVE('',#914,#906,#916,.T.);
#914 = VERTEX_POINT('',#915);
#915 = CARTESIAN_POINT('',(-7.141778489984,-153.5633022669,39.5));
#916 = LINE('',#917,#918);
#917 = CARTESIAN_POINT('',(-7.141778489984,-153.5633022669,19.75));
#918 = VECTOR('',#919,1.);
#919 = DIRECTION('',(7.88860905221E-31,7.88860905221E-31,1.));
#920 = ORIENTED_EDGE('',*,*,#921,.F.);
#921 = EDGE_CURVE('',#922,#914,#924,.T.);
#922 = VERTEX_POINT('',#923);
#923 = CARTESIAN_POINT('',(-10.1,-156.5215237769,39.5));
#924 = LINE('',#925,#926);
#925 = CARTESIAN_POINT('',(-12.01386749176,-158.4353912686,39.5));
#926 = VECTOR('',#927,1.);
#927 = DIRECTION('',(0.707106781187,0.707106781187,-1.570092458684E-16)
  );
#928 = ORIENTED_EDGE('',*,*,#929,.F.);
#929 = EDGE_CURVE('',#895,#922,#930,.T.);
#930 = LINE('',#931,#932);
#931 = CARTESIAN_POINT('',(-10.1,-156.5215237769,0.));
#932 = VECTOR('',#933,1.);
#933 = DIRECTION('',(0.,0.,1.));
#934 = PLANE('',#935);
#935 = AXIS2_PLACEMENT_3D('',#936,#937,#938);
#936 = CARTESIAN_POINT('',(-4.183556979968,-150.6050807568,0.));
#937 = DIRECTION('',(0.707106781187,-0.707106781187,0.));
#938 = DIRECTION('',(-0.707106781187,-0.707106781187,0.));
#939 = ADVANCED_FACE('',(#940),#960,.F.);
#940 = FACE_BOUND('',#941,.F.);
#941 = EDGE_LOOP('',(#942,#943,#944,#945,#951,#952,#953,#954));
#942 = ORIENTED_EDGE('',*,*,#552,.F.);
#943 = ORIENTED_EDGE('',*,*,#167,.T.);
#944 = ORIENTED_EDGE('',*,*,#224,.F.);
#945 = ORIENTED_EDGE('',*,*,#946,.F.);
#946 = EDGE_CURVE('',#841,#225,#947,.T.);
#947 = LINE('',#948,#949);
#948 = CARTESIAN_POINT('',(7.141778489999,-173.2050807568,
    44.499999999983));
#949 = VECTOR('',#950,1.);
#950 = DIRECTION('',(-1.184237892931E-14,1.,-2.22044604925E-16));
#951 = ORIENTED_EDGE('',*,*,#848,.F.);
#952 = ORIENTED_EDGE('',*,*,#790,.F.);
#953 = ORIENTED_EDGE('',*,*,#752,.F.);
#954 = ORIENTED_EDGE('',*,*,#955,.F.);
#955 = EDGE_CURVE('',#545,#753,#956,.T.);
#956 = LINE('',#957,#958);
#957 = CARTESIAN_POINT('',(7.141778489999,-173.2050807568,
    44.499999999983));
#958 = VECTOR('',#959,1.);
#959 = DIRECTION('',(-1.184237892931E-14,1.,-2.22044604925E-16));
#960 = PLANE('',#961);
#961 = AXIS2_PLACEMENT_3D('',#962,#963,#964);
#962 = CARTESIAN_POINT('',(12.904799027182,-173.2050807568,
    44.499999999983));
#963 = DIRECTION('',(-1.840675445509E-30,2.22044604925E-16,1.));
#964 = DIRECTION('',(-1.,-1.184237892931E-14,7.88860905221E-31));
#965 = ADVANCED_FACE('',(#966,#982),#993,.T.);
#966 = FACE_BOUND('',#967,.T.);
#967 = EDGE_LOOP('',(#968,#969,#975,#976));
#968 = ORIENTED_EDGE('',*,*,#528,.F.);
#969 = ORIENTED_EDGE('',*,*,#970,.T.);
#970 = EDGE_CURVE('',#521,#191,#971,.T.);
#971 = LINE('',#972,#973);
#972 = CARTESIAN_POINT('',(12.904799027182,-165.7761912928,0.));
#973 = VECTOR('',#974,1.);
#974 = DIRECTION('',(-1.978610313483E-12,1.,0.));
#975 = ORIENTED_EDGE('',*,*,#190,.T.);
#976 = ORIENTED_EDGE('',*,*,#977,.F.);
#977 = EDGE_CURVE('',#529,#193,#978,.T.);
#978 = LINE('',#979,#980);
#979 = CARTESIAN_POINT('',(12.904799027182,-173.2050807568,39.5));
#980 = VECTOR('',#981,1.);
#981 = DIRECTION('',(-1.184237892931E-14,1.,-2.22044604925E-16));
#982 = FACE_BOUND('',#983,.T.);
#983 = EDGE_LOOP('',(#984));
#984 = ORIENTED_EDGE('',*,*,#985,.F.);
#985 = EDGE_CURVE('',#986,#986,#988,.T.);
#986 = VERTEX_POINT('',#987);
#987 = CARTESIAN_POINT('',(12.904799027165,-157.5050807568,12.5));
#988 = CIRCLE('',#989,3.2);
#989 = AXIS2_PLACEMENT_3D('',#990,#991,#992);
#990 = CARTESIAN_POINT('',(12.904799027171,-160.7050807568,12.5));
#991 = DIRECTION('',(1.,1.978639474487E-12,1.11022302463E-16));
#992 = DIRECTION('',(-1.978639474487E-12,1.,1.110223024625E-16));
#993 = PLANE('',#994);
#994 = AXIS2_PLACEMENT_3D('',#995,#996,#997);
#995 = CARTESIAN_POINT('',(12.904799027171,-160.7050807568,50.));
#996 = DIRECTION('',(1.,1.978610313483E-12,0.));
#997 = DIRECTION('',(-1.978610313483E-12,1.,0.));
#998 = ADVANCED_FACE('',(#999),#1024,.F.);
#999 = FACE_BOUND('',#1000,.F.);
#1000 = EDGE_LOOP('',(#1001,#1002,#1008,#1009,#1015,#1016,#1022,#1023));
#1001 = ORIENTED_EDGE('',*,*,#536,.F.);
#1002 = ORIENTED_EDGE('',*,*,#1003,.T.);
#1003 = EDGE_CURVE('',#537,#761,#1004,.T.);
#1004 = LINE('',#1005,#1006);
#1005 = CARTESIAN_POINT('',(7.141778489999,-173.2050807568,39.5));
#1006 = VECTOR('',#1007,1.);
#1007 = DIRECTION('',(-1.184237892931E-14,1.,-2.22044604925E-16));
#1008 = ORIENTED_EDGE('',*,*,#768,.F.);
#1009 = ORIENTED_EDGE('',*,*,#1010,.F.);
#1010 = EDGE_CURVE('',#825,#769,#1011,.T.);
#1011 = LINE('',#1012,#1013);
#1012 = CARTESIAN_POINT('',(10.1,-169.0468592468,39.5));
#1013 = VECTOR('',#1014,1.);
#1014 = DIRECTION('',(1.188892412398E-14,-1.,2.22044604925E-16));
#1015 = ORIENTED_EDGE('',*,*,#832,.F.);
#1016 = ORIENTED_EDGE('',*,*,#1017,.T.);
#1017 = EDGE_CURVE('',#833,#233,#1018,.T.);
#1018 = LINE('',#1019,#1020);
#1019 = CARTESIAN_POINT('',(7.141778489999,-173.2050807568,39.5));
#1020 = VECTOR('',#1021,1.);
#1021 = DIRECTION('',(-1.184237892931E-14,1.,-2.22044604925E-16));
#1022 = ORIENTED_EDGE('',*,*,#240,.F.);
#1023 = ORIENTED_EDGE('',*,*,#977,.F.);
#1024 = PLANE('',#1025);
#1025 = AXIS2_PLACEMENT_3D('',#1026,#1027,#1028);
#1026 = CARTESIAN_POINT('',(7.141778489999,-173.2050807568,39.5));
#1027 = DIRECTION('',(1.840675445509E-30,-2.22044604925E-16,-1.));
#1028 = DIRECTION('',(1.,1.184237892931E-14,-7.88860905221E-31));
#1029 = ADVANCED_FACE('',(#1030),#1036,.F.);
#1030 = FACE_BOUND('',#1031,.F.);
#1031 = EDGE_LOOP('',(#1032,#1033,#1034,#1035));
#1032 = ORIENTED_EDGE('',*,*,#840,.F.);
#1033 = ORIENTED_EDGE('',*,*,#946,.T.);
#1034 = ORIENTED_EDGE('',*,*,#232,.F.);
#1035 = ORIENTED_EDGE('',*,*,#1017,.F.);
#1036 = PLANE('',#1037);
#1037 = AXIS2_PLACEMENT_3D('',#1038,#1039,#1040);
#1038 = CARTESIAN_POINT('',(7.141778489999,-173.2050807568,
    44.499999999983));
#1039 = DIRECTION('',(-1.,-1.184237892931E-14,7.88860905221E-31));
#1040 = DIRECTION('',(1.840675445509E-30,-2.22044604925E-16,-1.));
#1041 = ADVANCED_FACE('',(#1042,#1074),#1085,.T.);
#1042 = FACE_BOUND('',#1043,.T.);
#1043 = EDGE_LOOP('',(#1044,#1052,#1053,#1059,#1060,#1068));
#1044 = ORIENTED_EDGE('',*,*,#1045,.T.);
#1045 = EDGE_CURVE('',#1046,#511,#1048,.T.);
#1046 = VERTEX_POINT('',#1047);
#1047 = CARTESIAN_POINT('',(6.00000000003,-165.7761912928,
    -1.084619574601E-15));
#1048 = LINE('',#1049,#1050);
#1049 = CARTESIAN_POINT('',(6.00000000003,-178.623932572,12.663455002129
    ));
#1050 = VECTOR('',#1051,1.);
#1051 = DIRECTION('',(8.434096747545E-15,-0.712196155679,0.701980509584)
  );
#1052 = ORIENTED_EDGE('',*,*,#510,.T.);
#1053 = ORIENTED_EDGE('',*,*,#1054,.T.);
#1054 = EDGE_CURVE('',#513,#209,#1055,.T.);
#1055 = LINE('',#1056,#1057);
#1056 = CARTESIAN_POINT('',(6.00000000003,-173.2050807568,29.));
#1057 = VECTOR('',#1058,1.);
#1058 = DIRECTION('',(-1.184237892931E-14,1.,-2.22044604925E-16));
#1059 = ORIENTED_EDGE('',*,*,#208,.F.);
#1060 = ORIENTED_EDGE('',*,*,#1061,.T.);
#1061 = EDGE_CURVE('',#201,#1062,#1064,.T.);
#1062 = VERTEX_POINT('',#1063);
#1063 = CARTESIAN_POINT('',(6.00000000003,-155.6339702208,
    -1.09734993492E-14));
#1064 = LINE('',#1065,#1066);
#1065 = CARTESIAN_POINT('',(6.00000000003,-152.8409657257,2.752942013382
    ));
#1066 = VECTOR('',#1067,1.);
#1067 = DIRECTION('',(8.434096747539E-15,-0.712196155678,-0.701980509585
    ));
#1068 = ORIENTED_EDGE('',*,*,#1069,.F.);
#1069 = EDGE_CURVE('',#1046,#1062,#1070,.T.);
#1070 = LINE('',#1071,#1072);
#1071 = CARTESIAN_POINT('',(6.00000000003,-173.2050807568,
    -4.733165431348E-30));
#1072 = VECTOR('',#1073,1.);
#1073 = DIRECTION('',(-1.184237892931E-14,1.,-2.22044604925E-16));
#1074 = FACE_BOUND('',#1075,.T.);
#1075 = EDGE_LOOP('',(#1076));
#1076 = ORIENTED_EDGE('',*,*,#1077,.T.);
#1077 = EDGE_CURVE('',#1078,#1078,#1080,.T.);
#1078 = VERTEX_POINT('',#1079);
#1079 = CARTESIAN_POINT('',(6.00000000003,-157.5050807568,12.5));
#1080 = CIRCLE('',#1081,3.2);
#1081 = AXIS2_PLACEMENT_3D('',#1082,#1083,#1084);
#1082 = CARTESIAN_POINT('',(6.00000000003,-160.7050807568,12.5));
#1083 = DIRECTION('',(1.,1.978639474487E-12,1.11022302463E-16));
#1084 = DIRECTION('',(-1.978639474487E-12,1.,1.110223024625E-16));
#1085 = PLANE('',#1086);
#1086 = AXIS2_PLACEMENT_3D('',#1087,#1088,#1089);
#1087 = CARTESIAN_POINT('',(6.00000000003,-173.2050807568,29.));
#1088 = DIRECTION('',(-1.,-1.184237892931E-14,7.88860905221E-31));
#1089 = DIRECTION('',(1.840675445509E-30,-2.22044604925E-16,-1.));
#1090 = ADVANCED_FACE('',(#1091),#1101,.T.);
#1091 = FACE_BOUND('',#1092,.T.);
#1092 = EDGE_LOOP('',(#1093,#1094,#1100));
#1093 = ORIENTED_EDGE('',*,*,#200,.F.);
#1094 = ORIENTED_EDGE('',*,*,#1095,.T.);
#1095 = EDGE_CURVE('',#191,#1062,#1096,.T.);
#1096 = LINE('',#1097,#1098);
#1097 = CARTESIAN_POINT('',(12.904799027161,-155.6339702208,
    -1.727884171531E-14));
#1098 = VECTOR('',#1099,1.);
#1099 = DIRECTION('',(-1.,-1.978528452184E-12,-1.110223024625E-16));
#1100 = ORIENTED_EDGE('',*,*,#1061,.F.);
#1101 = PLANE('',#1102);
#1102 = AXIS2_PLACEMENT_3D('',#1103,#1104,#1105);
#1103 = CARTESIAN_POINT('',(12.904799027161,-155.6339702208,
    -1.727884171531E-14));
#1104 = DIRECTION('',(-1.388809341435E-12,0.701980509585,-0.712196155678
    ));
#1105 = DIRECTION('',(-1.409257362696E-12,0.712196155678,0.701980509585)
  );
#1106 = ADVANCED_FACE('',(#1107),#1125,.T.);
#1107 = FACE_BOUND('',#1108,.T.);
#1108 = EDGE_LOOP('',(#1109,#1110,#1111,#1117,#1118,#1124));
#1109 = ORIENTED_EDGE('',*,*,#1054,.F.);
#1110 = ORIENTED_EDGE('',*,*,#609,.T.);
#1111 = ORIENTED_EDGE('',*,*,#1112,.T.);
#1112 = EDGE_CURVE('',#602,#393,#1113,.T.);
#1113 = LINE('',#1114,#1115);
#1114 = CARTESIAN_POINT('',(1.300000000002,-178.2618217777,29.));
#1115 = VECTOR('',#1116,1.);
#1116 = DIRECTION('',(-1.,1.235251217552E-12,-0.));
#1117 = ORIENTED_EDGE('',*,*,#392,.T.);
#1118 = ORIENTED_EDGE('',*,*,#1119,.T.);
#1119 = EDGE_CURVE('',#385,#256,#1120,.T.);
#1120 = LINE('',#1121,#1122);
#1121 = CARTESIAN_POINT('',(-6.,-173.2050807568,29.));
#1122 = VECTOR('',#1123,1.);
#1123 = DIRECTION('',(-1.184237892931E-14,1.,-2.22044604925E-16));
#1124 = ORIENTED_EDGE('',*,*,#255,.T.);
#1125 = PLANE('',#1126);
#1126 = AXIS2_PLACEMENT_3D('',#1127,#1128,#1129);
#1127 = CARTESIAN_POINT('',(1.568539459617E-11,-162.0206372967,29.));
#1128 = DIRECTION('',(0.,3.995150729615E-16,-1.));
#1129 = DIRECTION('',(0.,-1.,-3.995150729615E-16));
#1130 = ADVANCED_FACE('',(#1131,#1158),#1169,.T.);
#1131 = FACE_BOUND('',#1132,.T.);
#1132 = EDGE_LOOP('',(#1133,#1134,#1142,#1150,#1156,#1157));
#1133 = ORIENTED_EDGE('',*,*,#384,.F.);
#1134 = ORIENTED_EDGE('',*,*,#1135,.T.);
#1135 = EDGE_CURVE('',#377,#1136,#1138,.T.);
#1136 = VERTEX_POINT('',#1137);
#1137 = CARTESIAN_POINT('',(-6.,-165.7761912929,-1.750753389375E-15));
#1138 = LINE('',#1139,#1140);
#1139 = CARTESIAN_POINT('',(-6.,-171.3746891778,5.518193782495));
#1140 = VECTOR('',#1141,1.);
#1141 = DIRECTION('',(-8.434096747545E-15,0.712196155679,-0.701980509584
    ));
#1142 = ORIENTED_EDGE('',*,*,#1143,.T.);
#1143 = EDGE_CURVE('',#1136,#1144,#1146,.T.);
#1144 = VERTEX_POINT('',#1145);
#1145 = CARTESIAN_POINT('',(-6.,-155.6339702209,-1.163963316397E-14));
#1146 = LINE('',#1147,#1148);
#1147 = CARTESIAN_POINT('',(-6.,-173.2050807568,4.733165431328E-30));
#1148 = VECTOR('',#1149,1.);
#1149 = DIRECTION('',(-1.184237892931E-14,1.,-2.22044604925E-16));
#1150 = ORIENTED_EDGE('',*,*,#1151,.T.);
#1151 = EDGE_CURVE('',#1144,#279,#1152,.T.);
#1152 = LINE('',#1153,#1154);
#1153 = CARTESIAN_POINT('',(-6.,-160.0902091199,-4.392319206239));
#1154 = VECTOR('',#1155,1.);
#1155 = DIRECTION('',(-8.434096747539E-15,0.712196155678,0.701980509585)
  );
#1156 = ORIENTED_EDGE('',*,*,#278,.T.);
#1157 = ORIENTED_EDGE('',*,*,#1119,.F.);
#1158 = FACE_BOUND('',#1159,.T.);
#1159 = EDGE_LOOP('',(#1160));
#1160 = ORIENTED_EDGE('',*,*,#1161,.F.);
#1161 = EDGE_CURVE('',#1162,#1162,#1164,.T.);
#1162 = VERTEX_POINT('',#1163);
#1163 = CARTESIAN_POINT('',(-6.,-157.5050807569,12.5));
#1164 = CIRCLE('',#1165,3.2);
#1165 = AXIS2_PLACEMENT_3D('',#1166,#1167,#1168);
#1166 = CARTESIAN_POINT('',(-6.,-160.7050807569,12.5));
#1167 = DIRECTION('',(1.,1.978639474487E-12,1.11022302463E-16));
#1168 = DIRECTION('',(-1.978639474487E-12,1.,1.110223024625E-16));
#1169 = PLANE('',#1170);
#1170 = AXIS2_PLACEMENT_3D('',#1171,#1172,#1173);
#1171 = CARTESIAN_POINT('',(-6.,-173.2050807568,4.733165431328E-30));
#1172 = DIRECTION('',(1.,1.184237892931E-14,-7.88860905221E-31));
#1173 = DIRECTION('',(-1.840675445509E-30,2.22044604925E-16,1.));
#1174 = ADVANCED_FACE('',(#1175),#1195,.F.);
#1175 = FACE_BOUND('',#1176,.F.);
#1176 = EDGE_LOOP('',(#1177,#1178,#1184,#1185,#1186,#1187,#1193,#1194));
#1177 = ORIENTED_EDGE('',*,*,#456,.F.);
#1178 = ORIENTED_EDGE('',*,*,#1179,.T.);
#1179 = EDGE_CURVE('',#457,#681,#1180,.T.);
#1180 = LINE('',#1181,#1182);
#1181 = CARTESIAN_POINT('',(-7.141778489984,-173.2050807568,44.5));
#1182 = VECTOR('',#1183,1.);
#1183 = DIRECTION('',(-1.184237892931E-14,1.,-2.22044604925E-16));
#1184 = ORIENTED_EDGE('',*,*,#688,.F.);
#1185 = ORIENTED_EDGE('',*,*,#623,.F.);
#1186 = ORIENTED_EDGE('',*,*,#905,.F.);
#1187 = ORIENTED_EDGE('',*,*,#1188,.T.);
#1188 = EDGE_CURVE('',#906,#311,#1189,.T.);
#1189 = LINE('',#1190,#1191);
#1190 = CARTESIAN_POINT('',(-7.141778489984,-173.2050807568,44.5));
#1191 = VECTOR('',#1192,1.);
#1192 = DIRECTION('',(-1.184237892931E-14,1.,-2.22044604925E-16));
#1193 = ORIENTED_EDGE('',*,*,#318,.F.);
#1194 = ORIENTED_EDGE('',*,*,#343,.F.);
#1195 = PLANE('',#1196);
#1196 = AXIS2_PLACEMENT_3D('',#1197,#1198,#1199);
#1197 = CARTESIAN_POINT('',(-7.141778489984,-173.2050807568,44.5));
#1198 = DIRECTION('',(-1.840675445509E-30,2.22044604925E-16,1.));
#1199 = DIRECTION('',(-1.,-1.184237892931E-14,7.88860905221E-31));
#1200 = ADVANCED_FACE('',(#1201),#1212,.F.);
#1201 = FACE_BOUND('',#1202,.F.);
#1202 = EDGE_LOOP('',(#1203,#1204,#1210,#1211));
#1203 = ORIENTED_EDGE('',*,*,#913,.F.);
#1204 = ORIENTED_EDGE('',*,*,#1205,.T.);
#1205 = EDGE_CURVE('',#914,#303,#1206,.T.);
#1206 = LINE('',#1207,#1208);
#1207 = CARTESIAN_POINT('',(-7.141778489984,-173.2050807568,39.5));
#1208 = VECTOR('',#1209,1.);
#1209 = DIRECTION('',(-1.184237892931E-14,1.,-2.22044604925E-16));
#1210 = ORIENTED_EDGE('',*,*,#310,.F.);
#1211 = ORIENTED_EDGE('',*,*,#1188,.F.);
#1212 = PLANE('',#1213);
#1213 = AXIS2_PLACEMENT_3D('',#1214,#1215,#1216);
#1214 = CARTESIAN_POINT('',(-7.141778489984,-173.2050807568,39.5));
#1215 = DIRECTION('',(1.,1.184237892931E-14,-7.88860905221E-31));
#1216 = DIRECTION('',(-1.840675445509E-30,2.22044604925E-16,1.));
#1217 = ADVANCED_FACE('',(#1218),#1243,.F.);
#1218 = FACE_BOUND('',#1219,.F.);
#1219 = EDGE_LOOP('',(#1220,#1221,#1227,#1228,#1229,#1230,#1236,#1237));
#1220 = ORIENTED_EDGE('',*,*,#472,.F.);
#1221 = ORIENTED_EDGE('',*,*,#1222,.T.);
#1222 = EDGE_CURVE('',#369,#295,#1223,.T.);
#1223 = LINE('',#1224,#1225);
#1224 = CARTESIAN_POINT('',(-12.90479902716,-173.2050807568,39.5));
#1225 = VECTOR('',#1226,1.);
#1226 = DIRECTION('',(-1.184237892931E-14,1.,-2.22044604925E-16));
#1227 = ORIENTED_EDGE('',*,*,#302,.F.);
#1228 = ORIENTED_EDGE('',*,*,#1205,.F.);
#1229 = ORIENTED_EDGE('',*,*,#921,.F.);
#1230 = ORIENTED_EDGE('',*,*,#1231,.F.);
#1231 = EDGE_CURVE('',#665,#922,#1232,.T.);
#1232 = LINE('',#1233,#1234);
#1233 = CARTESIAN_POINT('',(-10.1,-164.8633022669,39.5));
#1234 = VECTOR('',#1235,1.);
#1235 = DIRECTION('',(-1.188892412398E-14,1.,-2.22044604925E-16));
#1236 = ORIENTED_EDGE('',*,*,#672,.F.);
#1237 = ORIENTED_EDGE('',*,*,#1238,.F.);
#1238 = EDGE_CURVE('',#465,#673,#1239,.T.);
#1239 = LINE('',#1240,#1241);
#1240 = CARTESIAN_POINT('',(-7.141778489984,-173.2050807568,39.5));
#1241 = VECTOR('',#1242,1.);
#1242 = DIRECTION('',(-1.184237892931E-14,1.,-2.22044604925E-16));
#1243 = PLANE('',#1244);
#1244 = AXIS2_PLACEMENT_3D('',#1245,#1246,#1247);
#1245 = CARTESIAN_POINT('',(-12.90479902716,-173.2050807568,39.5));
#1246 = DIRECTION('',(1.840675445509E-30,-2.22044604925E-16,-1.));
#1247 = DIRECTION('',(1.,1.184237892931E-14,-7.88860905221E-31));
#1248 = ADVANCED_FACE('',(#1249,#1260),#1271,.T.);
#1249 = FACE_BOUND('',#1250,.T.);
#1250 = EDGE_LOOP('',(#1251,#1252,#1258,#1259));
#1251 = ORIENTED_EDGE('',*,*,#294,.F.);
#1252 = ORIENTED_EDGE('',*,*,#1253,.T.);
#1253 = EDGE_CURVE('',#287,#367,#1254,.T.);
#1254 = LINE('',#1255,#1256);
#1255 = CARTESIAN_POINT('',(-12.90479902717,-155.6339702209,0.));
#1256 = VECTOR('',#1257,1.);
#1257 = DIRECTION('',(1.085372055648E-12,-1.,0.));
#1258 = ORIENTED_EDGE('',*,*,#366,.T.);
#1259 = ORIENTED_EDGE('',*,*,#1222,.T.);
#1260 = FACE_BOUND('',#1261,.T.);
#1261 = EDGE_LOOP('',(#1262));
#1262 = ORIENTED_EDGE('',*,*,#1263,.T.);
#1263 = EDGE_CURVE('',#1264,#1264,#1266,.T.);
#1264 = VERTEX_POINT('',#1265);
#1265 = CARTESIAN_POINT('',(-12.90479902717,-157.5050807569,12.5));
#1266 = CIRCLE('',#1267,3.2);
#1267 = AXIS2_PLACEMENT_3D('',#1268,#1269,#1270);
#1268 = CARTESIAN_POINT('',(-12.90479902717,-160.7050807569,12.5));
#1269 = DIRECTION('',(1.,1.978639474487E-12,1.11022302463E-16));
#1270 = DIRECTION('',(-1.978639474487E-12,1.,1.110223024625E-16));
#1271 = PLANE('',#1272);
#1272 = AXIS2_PLACEMENT_3D('',#1273,#1274,#1275);
#1273 = CARTESIAN_POINT('',(-12.90479902717,-160.7050807569,50.));
#1274 = DIRECTION('',(-1.,-1.085372055648E-12,-0.));
#1275 = DIRECTION('',(1.085372055648E-12,-1.,0.));
#1276 = ADVANCED_FACE('',(#1277),#1287,.T.);
#1277 = FACE_BOUND('',#1278,.T.);
#1278 = EDGE_LOOP('',(#1279,#1280,#1286));
#1279 = ORIENTED_EDGE('',*,*,#1151,.F.);
#1280 = ORIENTED_EDGE('',*,*,#1281,.T.);
#1281 = EDGE_CURVE('',#1144,#287,#1282,.T.);
#1282 = LINE('',#1283,#1284);
#1283 = CARTESIAN_POINT('',(12.904799027161,-155.6339702208,
    -1.727884171531E-14));
#1284 = VECTOR('',#1285,1.);
#1285 = DIRECTION('',(-1.,-1.978528452184E-12,-1.110223024625E-16));
#1286 = ORIENTED_EDGE('',*,*,#286,.F.);
#1287 = PLANE('',#1288);
#1288 = AXIS2_PLACEMENT_3D('',#1289,#1290,#1291);
#1289 = CARTESIAN_POINT('',(12.904799027161,-155.6339702208,
    -1.727884171531E-14));
#1290 = DIRECTION('',(-1.388809341435E-12,0.701980509585,-0.712196155678
    ));
#1291 = DIRECTION('',(-1.409257362696E-12,0.712196155678,0.701980509585)
  );
#1292 = ADVANCED_FACE('',(#1293),#1299,.F.);
#1293 = FACE_BOUND('',#1294,.F.);
#1294 = EDGE_LOOP('',(#1295,#1296,#1297,#1298));
#1295 = ORIENTED_EDGE('',*,*,#464,.F.);
#1296 = ORIENTED_EDGE('',*,*,#1238,.T.);
#1297 = ORIENTED_EDGE('',*,*,#680,.F.);
#1298 = ORIENTED_EDGE('',*,*,#1179,.F.);
#1299 = PLANE('',#1300);
#1300 = AXIS2_PLACEMENT_3D('',#1301,#1302,#1303);
#1301 = CARTESIAN_POINT('',(-7.141778489984,-173.2050807568,39.5));
#1302 = DIRECTION('',(1.,1.184237892931E-14,-7.88860905221E-31));
#1303 = DIRECTION('',(-1.840675445509E-30,2.22044604925E-16,1.));
#1304 = ADVANCED_FACE('',(#1305),#1316,.T.);
#1305 = FACE_BOUND('',#1306,.F.);
#1306 = EDGE_LOOP('',(#1307,#1308,#1309,#1315));
#1307 = ORIENTED_EDGE('',*,*,#487,.T.);
#1308 = ORIENTED_EDGE('',*,*,#561,.T.);
#1309 = ORIENTED_EDGE('',*,*,#1310,.T.);
#1310 = EDGE_CURVE('',#562,#433,#1311,.T.);
#1311 = LINE('',#1312,#1313);
#1312 = CARTESIAN_POINT('',(1.300000000002,-178.2618217777,53.));
#1313 = VECTOR('',#1314,1.);
#1314 = DIRECTION('',(-1.,1.235251217552E-12,-0.));
#1315 = ORIENTED_EDGE('',*,*,#440,.T.);
#1316 = PLANE('',#1317);
#1317 = AXIS2_PLACEMENT_3D('',#1318,#1319,#1320);
#1318 = CARTESIAN_POINT('',(1.316803448111E-11,-174.8968123423,53.));
#1319 = DIRECTION('',(0.,0.,1.));
#1320 = DIRECTION('',(1.,0.,0.));
#1321 = ADVANCED_FACE('',(#1322),#1333,.T.);
#1322 = FACE_BOUND('',#1323,.T.);
#1323 = EDGE_LOOP('',(#1324,#1330,#1331,#1332));
#1324 = ORIENTED_EDGE('',*,*,#1325,.F.);
#1325 = EDGE_CURVE('',#570,#425,#1326,.T.);
#1326 = LINE('',#1327,#1328);
#1327 = CARTESIAN_POINT('',(7.141778489991,-178.2618217777,
    44.499999999983));
#1328 = VECTOR('',#1329,1.);
#1329 = DIRECTION('',(-1.,1.235251217552E-12,-1.009741958683E-28));
#1330 = ORIENTED_EDGE('',*,*,#569,.T.);
#1331 = ORIENTED_EDGE('',*,*,#1310,.T.);
#1332 = ORIENTED_EDGE('',*,*,#432,.F.);
#1333 = PLANE('',#1334);
#1334 = AXIS2_PLACEMENT_3D('',#1335,#1336,#1337);
#1335 = CARTESIAN_POINT('',(1.300000000002,-178.2618217777,29.));
#1336 = DIRECTION('',(-1.235251217552E-12,-1.,-0.));
#1337 = DIRECTION('',(-1.,1.235251217552E-12,0.));
#1338 = ADVANCED_FACE('',(#1339),#1350,.F.);
#1339 = FACE_BOUND('',#1340,.F.);
#1340 = EDGE_LOOP('',(#1341,#1342,#1343,#1349));
#1341 = ORIENTED_EDGE('',*,*,#1325,.F.);
#1342 = ORIENTED_EDGE('',*,*,#577,.F.);
#1343 = ORIENTED_EDGE('',*,*,#1344,.T.);
#1344 = EDGE_CURVE('',#578,#417,#1345,.T.);
#1345 = LINE('',#1346,#1347);
#1346 = CARTESIAN_POINT('',(7.141778489993,-176.2618217777,
    44.499999999983));
#1347 = VECTOR('',#1348,1.);
#1348 = DIRECTION('',(-1.,1.235251217552E-12,-1.009741958683E-28));
#1349 = ORIENTED_EDGE('',*,*,#424,.F.);
#1350 = PLANE('',#1351);
#1351 = AXIS2_PLACEMENT_3D('',#1352,#1353,#1354);
#1352 = CARTESIAN_POINT('',(7.141778489991,-178.2618217777,
    44.499999999983));
#1353 = DIRECTION('',(1.733066727162E-28,2.22044604925E-16,1.));
#1354 = DIRECTION('',(-1.,1.235251217552E-12,-1.009741958683E-28));
#1355 = ADVANCED_FACE('',(#1356),#1367,.F.);
#1356 = FACE_BOUND('',#1357,.F.);
#1357 = EDGE_LOOP('',(#1358,#1359,#1360,#1361));
#1358 = ORIENTED_EDGE('',*,*,#416,.F.);
#1359 = ORIENTED_EDGE('',*,*,#1344,.F.);
#1360 = ORIENTED_EDGE('',*,*,#585,.F.);
#1361 = ORIENTED_EDGE('',*,*,#1362,.F.);
#1362 = EDGE_CURVE('',#409,#586,#1363,.T.);
#1363 = LINE('',#1364,#1365);
#1364 = CARTESIAN_POINT('',(-7.141778490429,-176.2618217776,
    39.49999999995));
#1365 = VECTOR('',#1366,1.);
#1366 = DIRECTION('',(1.,-1.235251217552E-12,1.009741958683E-28));
#1367 = PLANE('',#1368);
#1368 = AXIS2_PLACEMENT_3D('',#1369,#1370,#1371);
#1369 = CARTESIAN_POINT('',(-2.177278222785E-10,-176.2618217777,
    41.999999999966));
#1370 = DIRECTION('',(1.235678310415E-12,1.,0.));
#1371 = DIRECTION('',(1.,-1.235678310415E-12,0.));
#1372 = ADVANCED_FACE('',(#1373),#1384,.F.);
#1373 = FACE_BOUND('',#1374,.F.);
#1374 = EDGE_LOOP('',(#1375,#1381,#1382,#1383));
#1375 = ORIENTED_EDGE('',*,*,#1376,.F.);
#1376 = EDGE_CURVE('',#401,#594,#1377,.T.);
#1377 = LINE('',#1378,#1379);
#1378 = CARTESIAN_POINT('',(-7.141778490431,-178.2618217776,
    39.49999999995));
#1379 = VECTOR('',#1380,1.);
#1380 = DIRECTION('',(1.,-1.235251217552E-12,1.009741958683E-28));
#1381 = ORIENTED_EDGE('',*,*,#408,.F.);
#1382 = ORIENTED_EDGE('',*,*,#1362,.T.);
#1383 = ORIENTED_EDGE('',*,*,#593,.F.);
#1384 = PLANE('',#1385);
#1385 = AXIS2_PLACEMENT_3D('',#1386,#1387,#1388);
#1386 = CARTESIAN_POINT('',(-7.141778490431,-178.2618217776,
    39.49999999995));
#1387 = DIRECTION('',(-1.733066727162E-28,-2.22044604925E-16,-1.));
#1388 = DIRECTION('',(1.,-1.235251217552E-12,1.009741958683E-28));
#1389 = ADVANCED_FACE('',(#1390),#1396,.T.);
#1390 = FACE_BOUND('',#1391,.T.);
#1391 = EDGE_LOOP('',(#1392,#1393,#1394,#1395));
#1392 = ORIENTED_EDGE('',*,*,#1112,.F.);
#1393 = ORIENTED_EDGE('',*,*,#601,.T.);
#1394 = ORIENTED_EDGE('',*,*,#1376,.F.);
#1395 = ORIENTED_EDGE('',*,*,#400,.F.);
#1396 = PLANE('',#1397);
#1397 = AXIS2_PLACEMENT_3D('',#1398,#1399,#1400);
#1398 = CARTESIAN_POINT('',(1.300000000002,-178.2618217777,29.));
#1399 = DIRECTION('',(-1.235251217552E-12,-1.,-0.));
#1400 = DIRECTION('',(-1.,1.235251217552E-12,0.));
#1401 = ADVANCED_FACE('',(#1402),#1412,.T.);
#1402 = FACE_BOUND('',#1403,.T.);
#1403 = EDGE_LOOP('',(#1404,#1405,#1406));
#1404 = ORIENTED_EDGE('',*,*,#1135,.F.);
#1405 = ORIENTED_EDGE('',*,*,#376,.F.);
#1406 = ORIENTED_EDGE('',*,*,#1407,.F.);
#1407 = EDGE_CURVE('',#1136,#367,#1408,.T.);
#1408 = LINE('',#1409,#1410);
#1409 = CARTESIAN_POINT('',(12.904799027182,-165.7761912928,
    2.468923628987E-16));
#1410 = VECTOR('',#1411,1.);
#1411 = DIRECTION('',(-1.,-1.978528452184E-12,-1.110223024625E-16));
#1412 = PLANE('',#1413);
#1413 = AXIS2_PLACEMENT_3D('',#1414,#1415,#1416);
#1414 = CARTESIAN_POINT('',(12.904799027196,-173.2050807568,
    7.322330470336));
#1415 = DIRECTION('',(1.388967480748E-12,-0.701980509584,-0.712196155679
    ));
#1416 = DIRECTION('',(-1.409101491712E-12,0.712196155679,-0.701980509584
    ));
#1417 = ADVANCED_FACE('',(#1418),#1424,.F.);
#1418 = FACE_BOUND('',#1419,.F.);
#1419 = EDGE_LOOP('',(#1420,#1421,#1422,#1423));
#1420 = ORIENTED_EDGE('',*,*,#544,.F.);
#1421 = ORIENTED_EDGE('',*,*,#955,.T.);
#1422 = ORIENTED_EDGE('',*,*,#760,.F.);
#1423 = ORIENTED_EDGE('',*,*,#1003,.F.);
#1424 = PLANE('',#1425);
#1425 = AXIS2_PLACEMENT_3D('',#1426,#1427,#1428);
#1426 = CARTESIAN_POINT('',(7.141778489999,-173.2050807568,
    44.499999999983));
#1427 = DIRECTION('',(-1.,-1.184237892931E-14,7.88860905221E-31));
#1428 = DIRECTION('',(1.840675445509E-30,-2.22044604925E-16,-1.));
#1429 = ADVANCED_FACE('',(#1430),#1440,.T.);
#1430 = FACE_BOUND('',#1431,.T.);
#1431 = EDGE_LOOP('',(#1432,#1438,#1439));
#1432 = ORIENTED_EDGE('',*,*,#1433,.F.);
#1433 = EDGE_CURVE('',#521,#1046,#1434,.T.);
#1434 = LINE('',#1435,#1436);
#1435 = CARTESIAN_POINT('',(12.904799027182,-165.7761912928,
    2.468923628987E-16));
#1436 = VECTOR('',#1437,1.);
#1437 = DIRECTION('',(-1.,-1.978528452184E-12,-1.110223024625E-16));
#1438 = ORIENTED_EDGE('',*,*,#520,.F.);
#1439 = ORIENTED_EDGE('',*,*,#1045,.F.);
#1440 = PLANE('',#1441);
#1441 = AXIS2_PLACEMENT_3D('',#1442,#1443,#1444);
#1442 = CARTESIAN_POINT('',(12.904799027196,-173.2050807568,
    7.322330470336));
#1443 = DIRECTION('',(1.388967480748E-12,-0.701980509584,-0.712196155679
    ));
#1444 = DIRECTION('',(-1.409101491712E-12,0.712196155679,-0.701980509584
    ));
#1445 = ADVANCED_FACE('',(#1446),#1466,.T.);
#1446 = FACE_BOUND('',#1447,.T.);
#1447 = EDGE_LOOP('',(#1448,#1449,#1455,#1456,#1457,#1458,#1464,#1465));
#1448 = ORIENTED_EDGE('',*,*,#894,.T.);
#1449 = ORIENTED_EDGE('',*,*,#1450,.T.);
#1450 = EDGE_CURVE('',#895,#655,#1451,.T.);
#1451 = LINE('',#1452,#1453);
#1452 = CARTESIAN_POINT('',(-10.1,-158.6133022669,32.));
#1453 = VECTOR('',#1454,1.);
#1454 = DIRECTION('',(1.188892412398E-14,-1.,0.));
#1455 = ORIENTED_EDGE('',*,*,#654,.T.);
#1456 = ORIENTED_EDGE('',*,*,#710,.T.);
#1457 = ORIENTED_EDGE('',*,*,#734,.T.);
#1458 = ORIENTED_EDGE('',*,*,#1459,.T.);
#1459 = EDGE_CURVE('',#735,#815,#1460,.T.);
#1460 = LINE('',#1461,#1462);
#1461 = CARTESIAN_POINT('',(10.1,-162.7968592468,32.));
#1462 = VECTOR('',#1463,1.);
#1463 = DIRECTION('',(-1.188892412398E-14,1.,0.));
#1464 = ORIENTED_EDGE('',*,*,#814,.T.);
#1465 = ORIENTED_EDGE('',*,*,#870,.T.);
#1466 = PLANE('',#1467);
#1467 = AXIS2_PLACEMENT_3D('',#1468,#1469,#1470);
#1468 = CARTESIAN_POINT('',(6.251861050406E-13,-160.7050807568,32.));
#1469 = DIRECTION('',(0.,0.,1.));
#1470 = DIRECTION('',(1.,0.,0.));
#1471 = ADVANCED_FACE('',(#1472),#1478,.T.);
#1472 = FACE_BOUND('',#1473,.T.);
#1473 = EDGE_LOOP('',(#1474,#1475,#1476,#1477));
#1474 = ORIENTED_EDGE('',*,*,#1450,.F.);
#1475 = ORIENTED_EDGE('',*,*,#929,.T.);
#1476 = ORIENTED_EDGE('',*,*,#1231,.F.);
#1477 = ORIENTED_EDGE('',*,*,#664,.F.);
#1478 = PLANE('',#1479);
#1479 = AXIS2_PLACEMENT_3D('',#1480,#1481,#1482);
#1480 = CARTESIAN_POINT('',(-10.1,-156.5215237769,0.));
#1481 = DIRECTION('',(1.,1.188892412398E-14,0.));
#1482 = DIRECTION('',(1.188892412398E-14,-1.,0.));
#1483 = ADVANCED_FACE('',(#1484),#1490,.T.);
#1484 = FACE_BOUND('',#1485,.T.);
#1485 = EDGE_LOOP('',(#1486,#1487,#1488,#1489));
#1486 = ORIENTED_EDGE('',*,*,#1459,.F.);
#1487 = ORIENTED_EDGE('',*,*,#776,.T.);
#1488 = ORIENTED_EDGE('',*,*,#1010,.F.);
#1489 = ORIENTED_EDGE('',*,*,#824,.F.);
#1490 = PLANE('',#1491);
#1491 = AXIS2_PLACEMENT_3D('',#1492,#1493,#1494);
#1492 = CARTESIAN_POINT('',(10.1,-164.8886377368,0.));
#1493 = DIRECTION('',(-1.,-1.188892412398E-14,0.));
#1494 = DIRECTION('',(-1.188892412398E-14,1.,0.));
#1495 = ADVANCED_FACE('',(#1496),#1502,.T.);
#1496 = FACE_BOUND('',#1497,.T.);
#1497 = EDGE_LOOP('',(#1498,#1499,#1500,#1501));
#1498 = ORIENTED_EDGE('',*,*,#970,.F.);
#1499 = ORIENTED_EDGE('',*,*,#1433,.T.);
#1500 = ORIENTED_EDGE('',*,*,#1069,.T.);
#1501 = ORIENTED_EDGE('',*,*,#1095,.F.);
#1502 = PLANE('',#1503);
#1503 = AXIS2_PLACEMENT_3D('',#1504,#1505,#1506);
#1504 = CARTESIAN_POINT('',(6.256466627124E-13,-160.7050807568,0.));
#1505 = DIRECTION('',(-0.,-0.,-1.));
#1506 = DIRECTION('',(-1.,0.,0.));
#1507 = ADVANCED_FACE('',(#1508),#1519,.F.);
#1508 = FACE_BOUND('',#1509,.F.);
#1509 = EDGE_LOOP('',(#1510,#1516,#1517,#1518));
#1510 = ORIENTED_EDGE('',*,*,#1511,.F.);
#1511 = EDGE_CURVE('',#986,#1078,#1512,.T.);
#1512 = LINE('',#1513,#1514);
#1513 = CARTESIAN_POINT('',(12.904799027165,-157.5050807568,12.5));
#1514 = VECTOR('',#1515,1.);
#1515 = DIRECTION('',(-1.,-1.978528452184E-12,-1.110223024625E-16));
#1516 = ORIENTED_EDGE('',*,*,#985,.F.);
#1517 = ORIENTED_EDGE('',*,*,#1511,.T.);
#1518 = ORIENTED_EDGE('',*,*,#1077,.T.);
#1519 = CYLINDRICAL_SURFACE('',#1520,3.2);
#1520 = AXIS2_PLACEMENT_3D('',#1521,#1522,#1523);
#1521 = CARTESIAN_POINT('',(12.904799027171,-160.7050807568,12.5));
#1522 = DIRECTION('',(1.,1.978639474487E-12,1.11022302463E-16));
#1523 = DIRECTION('',(-1.978639474487E-12,1.,1.110223024625E-16));
#1524 = ADVANCED_FACE('',(#1525),#1531,.T.);
#1525 = FACE_BOUND('',#1526,.T.);
#1526 = EDGE_LOOP('',(#1527,#1528,#1529,#1530));
#1527 = ORIENTED_EDGE('',*,*,#1143,.F.);
#1528 = ORIENTED_EDGE('',*,*,#1407,.T.);
#1529 = ORIENTED_EDGE('',*,*,#1253,.F.);
#1530 = ORIENTED_EDGE('',*,*,#1281,.F.);
#1531 = PLANE('',#1532);
#1532 = AXIS2_PLACEMENT_3D('',#1533,#1534,#1535);
#1533 = CARTESIAN_POINT('',(6.256466627124E-13,-160.7050807568,0.));
#1534 = DIRECTION('',(-0.,-0.,-1.));
#1535 = DIRECTION('',(-1.,0.,0.));
#1536 = ADVANCED_FACE('',(#1537),#1548,.F.);
#1537 = FACE_BOUND('',#1538,.F.);
#1538 = EDGE_LOOP('',(#1539,#1540,#1546,#1547));
#1539 = ORIENTED_EDGE('',*,*,#1161,.F.);
#1540 = ORIENTED_EDGE('',*,*,#1541,.T.);
#1541 = EDGE_CURVE('',#1162,#1264,#1542,.T.);
#1542 = LINE('',#1543,#1544);
#1543 = CARTESIAN_POINT('',(12.904799027165,-157.5050807568,12.5));
#1544 = VECTOR('',#1545,1.);
#1545 = DIRECTION('',(-1.,-1.978528452184E-12,-1.110223024625E-16));
#1546 = ORIENTED_EDGE('',*,*,#1263,.T.);
#1547 = ORIENTED_EDGE('',*,*,#1541,.F.);
#1548 = CYLINDRICAL_SURFACE('',#1549,3.2);
#1549 = AXIS2_PLACEMENT_3D('',#1550,#1551,#1552);
#1550 = CARTESIAN_POINT('',(12.904799027171,-160.7050807568,12.5));
#1551 = DIRECTION('',(1.,1.978639474487E-12,1.11022302463E-16));
#1552 = DIRECTION('',(-1.978639474487E-12,1.,1.110223024625E-16));
#1553 = ( GEOMETRIC_REPRESENTATION_CONTEXT(3) 
GLOBAL_UNCERTAINTY_ASSIGNED_CONTEXT((#1557)) 
GLOBAL_UNIT_ASSIGNED_CONTEXT((#1554,#1555,#1556)) REPRESENTATION_CONTEXT
('Context #1','3D Context with UNIT and UNCERTAINTY') );
#1554 = ( LENGTH_UNIT() NAMED_UNIT(*) SI_UNIT(.MILLI.,.METRE.) );
#1555 = ( NAMED_UNIT(*) PLANE_ANGLE_UNIT() SI_UNIT($,.RADIAN.) );
#1556 = ( NAMED_UNIT(*) SI_UNIT($,.STERADIAN.) SOLID_ANGLE_UNIT() );
#1557 = UNCERTAINTY_MEASURE_WITH_UNIT(LENGTH_MEASURE(5.E-05),#1554,
  'distance_accuracy_value','confusion accuracy');
#1558 = PRODUCT_RELATED_PRODUCT_CATEGORY('part',$,(#7));
#1559 = MECHANICAL_DESIGN_GEOMETRIC_PRESENTATION_REPRESENTATION('',(
    #1560),#1553);
#1560 = STYLED_ITEM('color',(#1561),#15);
#1561 = PRESENTATION_STYLE_ASSIGNMENT((#1562,#1568));
#1562 = SURFACE_STYLE_USAGE(.BOTH.,#1563);
#1563 = SURFACE_SIDE_STYLE('',(#1564));
#1564 = SURFACE_STYLE_FILL_AREA(#1565);
#1565 = FILL_AREA_STYLE('',(#1566));
#1566 = FILL_AREA_STYLE_COLOUR('',#1567);
#1567 = COLOUR_RGB('',0.941176459967,0.360784317039,0.105882356759);
#1568 = CURVE_STYLE('',#1569,POSITIVE_LENGTH_MEASURE(0.1),#1570);
#1569 = DRAUGHTING_PRE_DEFINED_CURVE_FONT('continuous');
#1570 = COLOUR_RGB('',0.219607846375,0.219607846375,0.219607846375);
ENDSEC;
END-ISO-10303-21;
