ISO-10303-21;
HEADER;
FILE_DESCRIPTION(('FreeCAD Model'),'2;1');
FILE_NAME('Open CASCADE Shape Model','2026-08-13T14:26:50',(''),(''),
  'Open CASCADE STEP processor 7.8','FreeCAD','Unknown');
FILE_SCHEMA((
'AP242_MANAGED_MODEL_BASED_3D_ENGINEERING_MIM_LF. {1 0 10303 442 1 1 4 
}'));
ENDSEC;
DATA;
#1 = APPLICATION_PROTOCOL_DEFINITION('international standard',
  'ap242_managed_model_based_3d_engineering',2013,#2);
#2 = APPLICATION_CONTEXT('Managed model based 3d engineering');
#3 = SHAPE_DEFINITION_REPRESENTATION(#4,#10);
#4 = PRODUCT_DEFINITION_SHAPE('','',#5);
#5 = PRODUCT_DEFINITION('design','',#6,#9);
#6 = PRODUCT_DEFINITION_FORMATION('','',#7);
#7 = PRODUCT('Body002','Body002','',(#8));
#8 = PRODUCT_CONTEXT('',#2,'mechanical');
#9 = PRODUCT_DEFINITION_CONTEXT('part definition',#2,'design');
#10 = ADVANCED_BREP_SHAPE_REPRESENTATION('',(#11,#15),#557);
#11 = AXIS2_PLACEMENT_3D('',#12,#13,#14);
#12 = CARTESIAN_POINT('',(0.,0.,0.));
#13 = DIRECTION('',(0.,0.,1.));
#14 = DIRECTION('',(1.,0.,-0.));
#15 = MANIFOLD_SOLID_BREP('',#16);
#16 = CLOSED_SHELL('',(#17,#117,#175,#207,#231,#255,#306,#330,#362,#387,
    #411,#428,#453,#477,#494,#506,#523,#540));
#17 = ADVANCED_FACE('',(#18,#101),#112,.T.);
#18 = FACE_BOUND('',#19,.T.);
#19 = EDGE_LOOP('',(#20,#30,#38,#46,#54,#63,#71,#79,#87,#95));
#20 = ORIENTED_EDGE('',*,*,#21,.F.);
#21 = EDGE_CURVE('',#22,#24,#26,.T.);
#22 = VERTEX_POINT('',#23);
#23 = CARTESIAN_POINT('',(6.,-101.0362971081,25.));
#24 = VERTEX_POINT('',#25);
#25 = CARTESIAN_POINT('',(6.,-165.8827502865,25.));
#26 = LINE('',#27,#28);
#27 = CARTESIAN_POINT('',(6.,-101.0362971081,25.));
#28 = VECTOR('',#29,1.);
#29 = DIRECTION('',(0.,-1.,0.));
#30 = ORIENTED_EDGE('',*,*,#31,.T.);
#31 = EDGE_CURVE('',#22,#32,#34,.T.);
#32 = VERTEX_POINT('',#33);
#33 = CARTESIAN_POINT('',(10.55973947229,-55.57969633912,25.));
#34 = LINE('',#35,#36);
#35 = CARTESIAN_POINT('',(6.,-101.0362971081,25.));
#36 = VECTOR('',#37,1.);
#37 = DIRECTION('',(9.98088490784E-02,0.995006629951,0.));
#38 = ORIENTED_EDGE('',*,*,#39,.T.);
#39 = EDGE_CURVE('',#32,#40,#42,.T.);
#40 = VERTEX_POINT('',#41);
#41 = CARTESIAN_POINT('',(10.55973947229,-6.327608534575,25.));
#42 = LINE('',#43,#44);
#43 = CARTESIAN_POINT('',(10.55973947229,-57.47925361138,25.));
#44 = VECTOR('',#45,1.);
#45 = DIRECTION('',(0.,1.,0.));
#46 = ORIENTED_EDGE('',*,*,#47,.T.);
#47 = EDGE_CURVE('',#40,#48,#50,.T.);
#48 = VERTEX_POINT('',#49);
#49 = CARTESIAN_POINT('',(2.665863337188,-1.770077023024,25.));
#50 = LINE('',#51,#52);
#51 = CARTESIAN_POINT('',(13.239231396601,-7.874613918367,25.));
#52 = VECTOR('',#53,1.);
#53 = DIRECTION('',(-0.866025403784,0.5,0.));
#54 = ORIENTED_EDGE('',*,*,#55,.F.);
#55 = EDGE_CURVE('',#56,#48,#58,.T.);
#56 = VERTEX_POINT('',#57);
#57 = CARTESIAN_POINT('',(-2.665863337188,-1.770077023024,25.));
#58 = CIRCLE('',#59,3.2);
#59 = AXIS2_PLACEMENT_3D('',#60,#61,#62);
#60 = CARTESIAN_POINT('',(-2.99969295461E-17,1.200711829666E-13,25.));
#61 = DIRECTION('',(0.,0.,1.));
#62 = DIRECTION('',(1.,0.,0.));
#63 = ORIENTED_EDGE('',*,*,#64,.F.);
#64 = EDGE_CURVE('',#65,#56,#67,.T.);
#65 = VERTEX_POINT('',#66);
#66 = CARTESIAN_POINT('',(-10.55973947229,-6.327608534575,25.));
#67 = LINE('',#68,#69);
#68 = CARTESIAN_POINT('',(-13.2392313966,-7.874613918367,25.));
#69 = VECTOR('',#70,1.);
#70 = DIRECTION('',(0.866025403784,0.5,0.));
#71 = ORIENTED_EDGE('',*,*,#72,.F.);
#72 = EDGE_CURVE('',#73,#65,#75,.T.);
#73 = VERTEX_POINT('',#74);
#74 = CARTESIAN_POINT('',(-10.55973947229,-55.57969633912,25.));
#75 = LINE('',#76,#77);
#76 = CARTESIAN_POINT('',(-10.55973947229,-57.47925361138,25.));
#77 = VECTOR('',#78,1.);
#78 = DIRECTION('',(0.,1.,0.));
#79 = ORIENTED_EDGE('',*,*,#80,.F.);
#80 = EDGE_CURVE('',#81,#73,#83,.T.);
#81 = VERTEX_POINT('',#82);
#82 = CARTESIAN_POINT('',(-6.,-101.0362971081,25.));
#83 = LINE('',#84,#85);
#84 = CARTESIAN_POINT('',(-6.,-101.0362971081,25.));
#85 = VECTOR('',#86,1.);
#86 = DIRECTION('',(-9.98088490784E-02,0.995006629951,0.));
#87 = ORIENTED_EDGE('',*,*,#88,.F.);
#88 = EDGE_CURVE('',#89,#81,#91,.T.);
#89 = VERTEX_POINT('',#90);
#90 = CARTESIAN_POINT('',(-6.,-165.8827502865,25.));
#91 = LINE('',#92,#93);
#92 = CARTESIAN_POINT('',(-6.,-173.2050807568,25.));
#93 = VECTOR('',#94,1.);
#94 = DIRECTION('',(0.,1.,0.));
#95 = ORIENTED_EDGE('',*,*,#96,.F.);
#96 = EDGE_CURVE('',#24,#89,#97,.T.);
#97 = LINE('',#98,#99);
#98 = CARTESIAN_POINT('',(6.,-165.8827502865,25.));
#99 = VECTOR('',#100,1.);
#100 = DIRECTION('',(-1.,-0.,-0.));
#101 = FACE_BOUND('',#102,.T.);
#102 = EDGE_LOOP('',(#103));
#103 = ORIENTED_EDGE('',*,*,#104,.F.);
#104 = EDGE_CURVE('',#105,#105,#107,.T.);
#105 = VERTEX_POINT('',#106);
#106 = CARTESIAN_POINT('',(1.6,-18.313328662,25.));
#107 = CIRCLE('',#108,1.6);
#108 = AXIS2_PLACEMENT_3D('',#109,#110,#111);
#109 = CARTESIAN_POINT('',(6.716494300735E-14,-18.313328662,25.));
#110 = DIRECTION('',(0.,0.,1.));
#111 = DIRECTION('',(1.,0.,0.));
#112 = PLANE('',#113);
#113 = AXIS2_PLACEMENT_3D('',#114,#115,#116);
#114 = CARTESIAN_POINT('',(-1.519907200699E-16,-86.09099376329,25.));
#115 = DIRECTION('',(0.,0.,1.));
#116 = DIRECTION('',(1.,0.,0.));
#117 = ADVANCED_FACE('',(#118,#159),#170,.T.);
#118 = FACE_BOUND('',#119,.T.);
#119 = EDGE_LOOP('',(#120,#128,#129,#137,#145,#153));
#120 = ORIENTED_EDGE('',*,*,#121,.F.);
#121 = EDGE_CURVE('',#22,#122,#124,.T.);
#122 = VERTEX_POINT('',#123);
#123 = CARTESIAN_POINT('',(6.,-101.0362971081,0.));
#124 = LINE('',#125,#126);
#125 = CARTESIAN_POINT('',(6.,-101.0362971081,15.));
#126 = VECTOR('',#127,1.);
#127 = DIRECTION('',(0.,0.,-1.));
#128 = ORIENTED_EDGE('',*,*,#21,.T.);
#129 = ORIENTED_EDGE('',*,*,#130,.T.);
#130 = EDGE_CURVE('',#24,#131,#133,.T.);
#131 = VERTEX_POINT('',#132);
#132 = CARTESIAN_POINT('',(6.,-173.2050807568,17.677669529664));
#133 = LINE('',#134,#135);
#134 = CARTESIAN_POINT('',(6.,-165.8827502865,25.));
#135 = VECTOR('',#136,1.);
#136 = DIRECTION('',(0.,-0.707106781187,-0.707106781187));
#137 = ORIENTED_EDGE('',*,*,#138,.T.);
#138 = EDGE_CURVE('',#131,#139,#141,.T.);
#139 = VERTEX_POINT('',#140);
#140 = CARTESIAN_POINT('',(6.,-173.2050807568,7.322330470336));
#141 = LINE('',#142,#143);
#142 = CARTESIAN_POINT('',(6.,-173.2050807568,25.));
#143 = VECTOR('',#144,1.);
#144 = DIRECTION('',(-0.,-0.,-1.));
#145 = ORIENTED_EDGE('',*,*,#146,.T.);
#146 = EDGE_CURVE('',#139,#147,#149,.T.);
#147 = VERTEX_POINT('',#148);
#148 = CARTESIAN_POINT('',(6.,-165.8827502865,-1.7763568394E-14));
#149 = LINE('',#150,#151);
#150 = CARTESIAN_POINT('',(6.,-173.2050807568,7.322330470336));
#151 = VECTOR('',#152,1.);
#152 = DIRECTION('',(0.,0.707106781187,-0.707106781187));
#153 = ORIENTED_EDGE('',*,*,#154,.F.);
#154 = EDGE_CURVE('',#122,#147,#155,.T.);
#155 = LINE('',#156,#157);
#156 = CARTESIAN_POINT('',(6.,-86.60254037844,0.));
#157 = VECTOR('',#158,1.);
#158 = DIRECTION('',(0.,-1.,0.));
#159 = FACE_BOUND('',#160,.T.);
#160 = EDGE_LOOP('',(#161));
#161 = ORIENTED_EDGE('',*,*,#162,.F.);
#162 = EDGE_CURVE('',#163,#163,#165,.T.);
#163 = VERTEX_POINT('',#164);
#164 = CARTESIAN_POINT('',(6.,-157.5050807568,12.5));
#165 = CIRCLE('',#166,3.2);
#166 = AXIS2_PLACEMENT_3D('',#167,#168,#169);
#167 = CARTESIAN_POINT('',(6.,-160.7050807568,12.5));
#168 = DIRECTION('',(1.,0.,0.));
#169 = DIRECTION('',(0.,1.,0.));
#170 = PLANE('',#171);
#171 = AXIS2_PLACEMENT_3D('',#172,#173,#174);
#172 = CARTESIAN_POINT('',(6.,-137.1206889325,12.5));
#173 = DIRECTION('',(1.,0.,0.));
#174 = DIRECTION('',(0.,0.,1.));
#175 = ADVANCED_FACE('',(#176),#202,.T.);
#176 = FACE_BOUND('',#177,.T.);
#177 = EDGE_LOOP('',(#178,#179,#180,#188,#196));
#178 = ORIENTED_EDGE('',*,*,#31,.F.);
#179 = ORIENTED_EDGE('',*,*,#121,.T.);
#180 = ORIENTED_EDGE('',*,*,#181,.F.);
#181 = EDGE_CURVE('',#182,#122,#184,.T.);
#182 = VERTEX_POINT('',#183);
#183 = CARTESIAN_POINT('',(13.239231396601,-28.86751345948,0.));
#184 = LINE('',#185,#186);
#185 = CARTESIAN_POINT('',(10.987095483629,-51.31933196705,
    -1.7763568394E-15));
#186 = VECTOR('',#187,1.);
#187 = DIRECTION('',(-9.98088490784E-02,-0.995006629951,0.));
#188 = ORIENTED_EDGE('',*,*,#189,.F.);
#189 = EDGE_CURVE('',#190,#182,#192,.T.);
#190 = VERTEX_POINT('',#191);
#191 = CARTESIAN_POINT('',(13.239231396601,-28.86751345948,15.));
#192 = LINE('',#193,#194);
#193 = CARTESIAN_POINT('',(13.239231396601,-28.86751345948,15.));
#194 = VECTOR('',#195,1.);
#195 = DIRECTION('',(0.,0.,-1.));
#196 = ORIENTED_EDGE('',*,*,#197,.F.);
#197 = EDGE_CURVE('',#32,#190,#198,.T.);
#198 = LINE('',#199,#200);
#199 = CARTESIAN_POINT('',(11.521749419383,-45.98930145656,
    21.409730000063));
#200 = VECTOR('',#201,1.);
#201 = DIRECTION('',(9.353084125071E-02,0.932420401684,-0.349061851622)
  );
#202 = PLANE('',#203);
#203 = AXIS2_PLACEMENT_3D('',#204,#205,#206);
#204 = CARTESIAN_POINT('',(9.619615698301,-64.95190528383,12.5));
#205 = DIRECTION('',(0.995006629951,-9.98088490784E-02,0.));
#206 = DIRECTION('',(9.98088490784E-02,0.995006629951,0.));
#207 = ADVANCED_FACE('',(#208),#226,.T.);
#208 = FACE_BOUND('',#209,.T.);
#209 = EDGE_LOOP('',(#210,#211,#212,#220));
#210 = ORIENTED_EDGE('',*,*,#130,.F.);
#211 = ORIENTED_EDGE('',*,*,#96,.T.);
#212 = ORIENTED_EDGE('',*,*,#213,.F.);
#213 = EDGE_CURVE('',#214,#89,#216,.T.);
#214 = VERTEX_POINT('',#215);
#215 = CARTESIAN_POINT('',(-6.,-173.2050807568,17.677669529664));
#216 = LINE('',#217,#218);
#217 = CARTESIAN_POINT('',(-6.,-161.817234948,29.065515338504));
#218 = VECTOR('',#219,1.);
#219 = DIRECTION('',(0.,0.707106781187,0.707106781187));
#220 = ORIENTED_EDGE('',*,*,#221,.F.);
#221 = EDGE_CURVE('',#131,#214,#222,.T.);
#222 = LINE('',#223,#224);
#223 = CARTESIAN_POINT('',(6.,-173.2050807568,17.677669529664));
#224 = VECTOR('',#225,1.);
#225 = DIRECTION('',(-1.,-0.,-0.));
#226 = PLANE('',#227);
#227 = AXIS2_PLACEMENT_3D('',#228,#229,#230);
#228 = CARTESIAN_POINT('',(6.,-165.8827502865,25.));
#229 = DIRECTION('',(0.,-0.707106781187,0.707106781187));
#230 = DIRECTION('',(0.,-0.707106781187,-0.707106781187));
#231 = ADVANCED_FACE('',(#232),#250,.T.);
#232 = FACE_BOUND('',#233,.T.);
#233 = EDGE_LOOP('',(#234,#235,#236,#244));
#234 = ORIENTED_EDGE('',*,*,#39,.F.);
#235 = ORIENTED_EDGE('',*,*,#197,.T.);
#236 = ORIENTED_EDGE('',*,*,#237,.F.);
#237 = EDGE_CURVE('',#238,#190,#240,.T.);
#238 = VERTEX_POINT('',#239);
#239 = CARTESIAN_POINT('',(13.239231396601,-7.874613918367,15.));
#240 = LINE('',#241,#242);
#241 = CARTESIAN_POINT('',(13.239231396601,-14.43375672974,15.));
#242 = VECTOR('',#243,1.);
#243 = DIRECTION('',(0.,-1.,0.));
#244 = ORIENTED_EDGE('',*,*,#245,.F.);
#245 = EDGE_CURVE('',#40,#238,#246,.T.);
#246 = LINE('',#247,#248);
#247 = CARTESIAN_POINT('',(11.147787829957,-6.667118412171,
    22.805373651878));
#248 = VECTOR('',#249,1.);
#249 = DIRECTION('',(0.255976955402,-0.147788364108,-0.955319003128));
#250 = PLANE('',#251);
#251 = AXIS2_PLACEMENT_3D('',#252,#253,#254);
#252 = CARTESIAN_POINT('',(10.651040945576,-28.86751345948,
    24.659258262891));
#253 = DIRECTION('',(0.965925826289,0.,0.258819045103));
#254 = DIRECTION('',(0.,1.,0.));
#255 = ADVANCED_FACE('',(#256,#290),#301,.T.);
#256 = FACE_BOUND('',#257,.T.);
#257 = EDGE_LOOP('',(#258,#259,#260,#268,#276,#284));
#258 = ORIENTED_EDGE('',*,*,#213,.T.);
#259 = ORIENTED_EDGE('',*,*,#88,.T.);
#260 = ORIENTED_EDGE('',*,*,#261,.T.);
#261 = EDGE_CURVE('',#81,#262,#264,.T.);
#262 = VERTEX_POINT('',#263);
#263 = CARTESIAN_POINT('',(-6.,-101.0362971081,0.));
#264 = LINE('',#265,#266);
#265 = CARTESIAN_POINT('',(-6.,-101.0362971081,25.));
#266 = VECTOR('',#267,1.);
#267 = DIRECTION('',(-0.,-0.,-1.));
#268 = ORIENTED_EDGE('',*,*,#269,.F.);
#269 = EDGE_CURVE('',#270,#262,#272,.T.);
#270 = VERTEX_POINT('',#271);
#271 = CARTESIAN_POINT('',(-6.,-165.8827502865,-8.881784197001E-15));
#272 = LINE('',#273,#274);
#273 = CARTESIAN_POINT('',(-6.,-50.51814855409,0.));
#274 = VECTOR('',#275,1.);
#275 = DIRECTION('',(0.,1.,0.));
#276 = ORIENTED_EDGE('',*,*,#277,.T.);
#277 = EDGE_CURVE('',#270,#278,#280,.T.);
#278 = VERTEX_POINT('',#279);
#279 = CARTESIAN_POINT('',(-6.,-173.2050807568,7.322330470336));
#280 = LINE('',#281,#282);
#281 = CARTESIAN_POINT('',(-6.,-165.4784001832,-0.404350103336));
#282 = VECTOR('',#283,1.);
#283 = DIRECTION('',(0.,-0.707106781187,0.707106781187));
#284 = ORIENTED_EDGE('',*,*,#285,.F.);
#285 = EDGE_CURVE('',#214,#278,#286,.T.);
#286 = LINE('',#287,#288);
#287 = CARTESIAN_POINT('',(-6.,-173.2050807568,25.));
#288 = VECTOR('',#289,1.);
#289 = DIRECTION('',(-0.,-0.,-1.));
#290 = FACE_BOUND('',#291,.T.);
#291 = EDGE_LOOP('',(#292));
#292 = ORIENTED_EDGE('',*,*,#293,.T.);
#293 = EDGE_CURVE('',#294,#294,#296,.T.);
#294 = VERTEX_POINT('',#295);
#295 = CARTESIAN_POINT('',(-6.,-157.5050807568,12.5));
#296 = CIRCLE('',#297,3.2);
#297 = AXIS2_PLACEMENT_3D('',#298,#299,#300);
#298 = CARTESIAN_POINT('',(-6.,-160.7050807568,12.5));
#299 = DIRECTION('',(1.,0.,0.));
#300 = DIRECTION('',(0.,1.,0.));
#301 = PLANE('',#302);
#302 = AXIS2_PLACEMENT_3D('',#303,#304,#305);
#303 = CARTESIAN_POINT('',(-6.,-137.1206889325,12.5));
#304 = DIRECTION('',(-1.,-0.,-0.));
#305 = DIRECTION('',(0.,0.,-1.));
#306 = ADVANCED_FACE('',(#307),#325,.T.);
#307 = FACE_BOUND('',#308,.T.);
#308 = EDGE_LOOP('',(#309,#310,#311,#319));
#309 = ORIENTED_EDGE('',*,*,#47,.F.);
#310 = ORIENTED_EDGE('',*,*,#245,.T.);
#311 = ORIENTED_EDGE('',*,*,#312,.F.);
#312 = EDGE_CURVE('',#313,#238,#315,.T.);
#313 = VERTEX_POINT('',#314);
#314 = CARTESIAN_POINT('',(2.665863337188,-1.770077023024,15.));
#315 = LINE('',#316,#317);
#316 = CARTESIAN_POINT('',(6.569615698301,-4.023909499562,15.));
#317 = VECTOR('',#318,1.);
#318 = DIRECTION('',(0.866025403784,-0.5,0.));
#319 = ORIENTED_EDGE('',*,*,#320,.F.);
#320 = EDGE_CURVE('',#48,#313,#321,.T.);
#321 = LINE('',#322,#323);
#322 = CARTESIAN_POINT('',(2.665863337188,-1.770077023024,25.));
#323 = VECTOR('',#324,1.);
#324 = DIRECTION('',(-0.,-0.,-1.));
#325 = PLANE('',#326);
#326 = AXIS2_PLACEMENT_3D('',#327,#328,#329);
#327 = CARTESIAN_POINT('',(13.239231396601,-7.874613918367,25.));
#328 = DIRECTION('',(0.5,0.866025403784,0.));
#329 = DIRECTION('',(-0.866025403784,0.5,0.));
#330 = ADVANCED_FACE('',(#331),#357,.T.);
#331 = FACE_BOUND('',#332,.T.);
#332 = EDGE_LOOP('',(#333,#334,#342,#350,#356));
#333 = ORIENTED_EDGE('',*,*,#80,.T.);
#334 = ORIENTED_EDGE('',*,*,#335,.T.);
#335 = EDGE_CURVE('',#73,#336,#338,.T.);
#336 = VERTEX_POINT('',#337);
#337 = CARTESIAN_POINT('',(-13.2392313966,-28.86751345948,15.));
#338 = LINE('',#339,#340);
#339 = CARTESIAN_POINT('',(-11.52174941938,-45.98930145656,
    21.409730000063));
#340 = VECTOR('',#341,1.);
#341 = DIRECTION('',(-9.353084125071E-02,0.932420401684,-0.349061851622)
  );
#342 = ORIENTED_EDGE('',*,*,#343,.T.);
#343 = EDGE_CURVE('',#336,#344,#346,.T.);
#344 = VERTEX_POINT('',#345);
#345 = CARTESIAN_POINT('',(-13.2392313966,-28.86751345948,0.));
#346 = LINE('',#347,#348);
#347 = CARTESIAN_POINT('',(-13.2392313966,-28.86751345948,15.));
#348 = VECTOR('',#349,1.);
#349 = DIRECTION('',(0.,0.,-1.));
#350 = ORIENTED_EDGE('',*,*,#351,.F.);
#351 = EDGE_CURVE('',#262,#344,#352,.T.);
#352 = LINE('',#353,#354);
#353 = CARTESIAN_POINT('',(-14.60671118192,-15.23494014269,
    -1.7763568394E-15));
#354 = VECTOR('',#355,1.);
#355 = DIRECTION('',(-9.98088490784E-02,0.995006629951,0.));
#356 = ORIENTED_EDGE('',*,*,#261,.F.);
#357 = PLANE('',#358);
#358 = AXIS2_PLACEMENT_3D('',#359,#360,#361);
#359 = CARTESIAN_POINT('',(-9.619615698301,-64.95190528383,12.5));
#360 = DIRECTION('',(-0.995006629951,-9.98088490784E-02,-0.));
#361 = DIRECTION('',(9.98088490784E-02,-0.995006629951,0.));
#362 = ADVANCED_FACE('',(#363),#382,.F.);
#363 = FACE_BOUND('',#364,.F.);
#364 = EDGE_LOOP('',(#365,#366,#374,#381));
#365 = ORIENTED_EDGE('',*,*,#55,.F.);
#366 = ORIENTED_EDGE('',*,*,#367,.T.);
#367 = EDGE_CURVE('',#56,#368,#370,.T.);
#368 = VERTEX_POINT('',#369);
#369 = CARTESIAN_POINT('',(-2.665863337188,-1.770077023024,15.));
#370 = LINE('',#371,#372);
#371 = CARTESIAN_POINT('',(-2.665863337188,-1.770077023024,25.));
#372 = VECTOR('',#373,1.);
#373 = DIRECTION('',(-0.,-0.,-1.));
#374 = ORIENTED_EDGE('',*,*,#375,.T.);
#375 = EDGE_CURVE('',#368,#313,#376,.T.);
#376 = CIRCLE('',#377,3.2);
#377 = AXIS2_PLACEMENT_3D('',#378,#379,#380);
#378 = CARTESIAN_POINT('',(-2.99969295461E-17,1.200711829666E-13,15.));
#379 = DIRECTION('',(0.,0.,1.));
#380 = DIRECTION('',(1.,0.,0.));
#381 = ORIENTED_EDGE('',*,*,#320,.F.);
#382 = CYLINDRICAL_SURFACE('',#383,3.2);
#383 = AXIS2_PLACEMENT_3D('',#384,#385,#386);
#384 = CARTESIAN_POINT('',(-2.99969295461E-17,1.200711829666E-13,25.));
#385 = DIRECTION('',(0.,0.,1.));
#386 = DIRECTION('',(1.,0.,0.));
#387 = ADVANCED_FACE('',(#388),#406,.F.);
#388 = FACE_BOUND('',#389,.F.);
#389 = EDGE_LOOP('',(#390,#391,#392,#400));
#390 = ORIENTED_EDGE('',*,*,#72,.F.);
#391 = ORIENTED_EDGE('',*,*,#335,.T.);
#392 = ORIENTED_EDGE('',*,*,#393,.F.);
#393 = EDGE_CURVE('',#394,#336,#396,.T.);
#394 = VERTEX_POINT('',#395);
#395 = CARTESIAN_POINT('',(-13.2392313966,-7.874613918367,15.));
#396 = LINE('',#397,#398);
#397 = CARTESIAN_POINT('',(-13.2392313966,-14.43375672974,15.));
#398 = VECTOR('',#399,1.);
#399 = DIRECTION('',(0.,-1.,0.));
#400 = ORIENTED_EDGE('',*,*,#401,.F.);
#401 = EDGE_CURVE('',#65,#394,#402,.T.);
#402 = LINE('',#403,#404);
#403 = CARTESIAN_POINT('',(-11.14778782995,-6.667118412171,
    22.805373651878));
#404 = VECTOR('',#405,1.);
#405 = DIRECTION('',(-0.255976955402,-0.147788364108,-0.955319003128));
#406 = PLANE('',#407);
#407 = AXIS2_PLACEMENT_3D('',#408,#409,#410);
#408 = CARTESIAN_POINT('',(-10.65104094557,-28.86751345948,
    24.659258262891));
#409 = DIRECTION('',(0.965925826289,0.,-0.258819045103));
#410 = DIRECTION('',(0.,1.,0.));
#411 = ADVANCED_FACE('',(#412),#423,.F.);
#412 = FACE_BOUND('',#413,.F.);
#413 = EDGE_LOOP('',(#414,#415,#416,#422));
#414 = ORIENTED_EDGE('',*,*,#64,.F.);
#415 = ORIENTED_EDGE('',*,*,#401,.T.);
#416 = ORIENTED_EDGE('',*,*,#417,.F.);
#417 = EDGE_CURVE('',#368,#394,#418,.T.);
#418 = LINE('',#419,#420);
#419 = CARTESIAN_POINT('',(-6.569615698301,-4.023909499562,15.));
#420 = VECTOR('',#421,1.);
#421 = DIRECTION('',(-0.866025403784,-0.5,0.));
#422 = ORIENTED_EDGE('',*,*,#367,.F.);
#423 = PLANE('',#424);
#424 = AXIS2_PLACEMENT_3D('',#425,#426,#427);
#425 = CARTESIAN_POINT('',(-13.2392313966,-7.874613918367,25.));
#426 = DIRECTION('',(0.5,-0.866025403784,0.));
#427 = DIRECTION('',(0.866025403784,0.5,0.));
#428 = ADVANCED_FACE('',(#429),#448,.F.);
#429 = FACE_BOUND('',#430,.F.);
#430 = EDGE_LOOP('',(#431,#432,#440,#447));
#431 = ORIENTED_EDGE('',*,*,#104,.F.);
#432 = ORIENTED_EDGE('',*,*,#433,.T.);
#433 = EDGE_CURVE('',#105,#434,#436,.T.);
#434 = VERTEX_POINT('',#435);
#435 = CARTESIAN_POINT('',(1.6,-18.313328662,15.));
#436 = LINE('',#437,#438);
#437 = CARTESIAN_POINT('',(1.6,-18.313328662,25.));
#438 = VECTOR('',#439,1.);
#439 = DIRECTION('',(-0.,-0.,-1.));
#440 = ORIENTED_EDGE('',*,*,#441,.T.);
#441 = EDGE_CURVE('',#434,#434,#442,.T.);
#442 = CIRCLE('',#443,1.6);
#443 = AXIS2_PLACEMENT_3D('',#444,#445,#446);
#444 = CARTESIAN_POINT('',(6.716494300735E-14,-18.313328662,15.));
#445 = DIRECTION('',(0.,0.,1.));
#446 = DIRECTION('',(1.,0.,0.));
#447 = ORIENTED_EDGE('',*,*,#433,.F.);
#448 = CYLINDRICAL_SURFACE('',#449,1.6);
#449 = AXIS2_PLACEMENT_3D('',#450,#451,#452);
#450 = CARTESIAN_POINT('',(6.716494300735E-14,-18.313328662,25.));
#451 = DIRECTION('',(0.,0.,1.));
#452 = DIRECTION('',(1.,0.,0.));
#453 = ADVANCED_FACE('',(#454),#472,.F.);
#454 = FACE_BOUND('',#455,.F.);
#455 = EDGE_LOOP('',(#456,#462,#463,#464,#470,#471));
#456 = ORIENTED_EDGE('',*,*,#457,.F.);
#457 = EDGE_CURVE('',#147,#270,#458,.T.);
#458 = LINE('',#459,#460);
#459 = CARTESIAN_POINT('',(6.,-165.8827502865,-1.7763568394E-14));
#460 = VECTOR('',#461,1.);
#461 = DIRECTION('',(-1.,-0.,-0.));
#462 = ORIENTED_EDGE('',*,*,#154,.F.);
#463 = ORIENTED_EDGE('',*,*,#181,.F.);
#464 = ORIENTED_EDGE('',*,*,#465,.F.);
#465 = EDGE_CURVE('',#344,#182,#466,.T.);
#466 = LINE('',#467,#468);
#467 = CARTESIAN_POINT('',(6.619615698301,-28.86751345948,0.));
#468 = VECTOR('',#469,1.);
#469 = DIRECTION('',(1.,-2.683474268538E-16,0.));
#470 = ORIENTED_EDGE('',*,*,#351,.F.);
#471 = ORIENTED_EDGE('',*,*,#269,.F.);
#472 = PLANE('',#473);
#473 = AXIS2_PLACEMENT_3D('',#474,#475,#476);
#474 = CARTESIAN_POINT('',(5.609E-14,-3.562E-14,0.));
#475 = DIRECTION('',(0.,0.,1.));
#476 = DIRECTION('',(1.,0.,0.));
#477 = ADVANCED_FACE('',(#478),#489,.T.);
#478 = FACE_BOUND('',#479,.T.);
#479 = EDGE_LOOP('',(#480,#481,#487,#488));
#480 = ORIENTED_EDGE('',*,*,#146,.F.);
#481 = ORIENTED_EDGE('',*,*,#482,.T.);
#482 = EDGE_CURVE('',#139,#278,#483,.T.);
#483 = LINE('',#484,#485);
#484 = CARTESIAN_POINT('',(6.,-173.2050807568,7.322330470336));
#485 = VECTOR('',#486,1.);
#486 = DIRECTION('',(-1.,-0.,-0.));
#487 = ORIENTED_EDGE('',*,*,#277,.F.);
#488 = ORIENTED_EDGE('',*,*,#457,.F.);
#489 = PLANE('',#490);
#490 = AXIS2_PLACEMENT_3D('',#491,#492,#493);
#491 = CARTESIAN_POINT('',(6.,-173.2050807568,7.322330470336));
#492 = DIRECTION('',(0.,-0.707106781187,-0.707106781187));
#493 = DIRECTION('',(0.,0.707106781187,-0.707106781187));
#494 = ADVANCED_FACE('',(#495),#501,.T.);
#495 = FACE_BOUND('',#496,.T.);
#496 = EDGE_LOOP('',(#497,#498,#499,#500));
#497 = ORIENTED_EDGE('',*,*,#138,.F.);
#498 = ORIENTED_EDGE('',*,*,#221,.T.);
#499 = ORIENTED_EDGE('',*,*,#285,.T.);
#500 = ORIENTED_EDGE('',*,*,#482,.F.);
#501 = PLANE('',#502);
#502 = AXIS2_PLACEMENT_3D('',#503,#504,#505);
#503 = CARTESIAN_POINT('',(0.,-173.2050807568,12.5));
#504 = DIRECTION('',(-0.,-1.,-0.));
#505 = DIRECTION('',(0.,0.,-1.));
#506 = ADVANCED_FACE('',(#507),#518,.F.);
#507 = FACE_BOUND('',#508,.F.);
#508 = EDGE_LOOP('',(#509,#510,#516,#517));
#509 = ORIENTED_EDGE('',*,*,#162,.F.);
#510 = ORIENTED_EDGE('',*,*,#511,.T.);
#511 = EDGE_CURVE('',#163,#294,#512,.T.);
#512 = LINE('',#513,#514);
#513 = CARTESIAN_POINT('',(6.,-157.5050807568,12.5));
#514 = VECTOR('',#515,1.);
#515 = DIRECTION('',(-1.,-0.,-0.));
#516 = ORIENTED_EDGE('',*,*,#293,.T.);
#517 = ORIENTED_EDGE('',*,*,#511,.F.);
#518 = CYLINDRICAL_SURFACE('',#519,3.2);
#519 = AXIS2_PLACEMENT_3D('',#520,#521,#522);
#520 = CARTESIAN_POINT('',(6.,-160.7050807568,12.5));
#521 = DIRECTION('',(1.,0.,0.));
#522 = DIRECTION('',(0.,1.,0.));
#523 = ADVANCED_FACE('',(#524),#535,.T.);
#524 = FACE_BOUND('',#525,.T.);
#525 = EDGE_LOOP('',(#526,#532,#533,#534));
#526 = ORIENTED_EDGE('',*,*,#527,.F.);
#527 = EDGE_CURVE('',#190,#336,#528,.T.);
#528 = LINE('',#529,#530);
#529 = CARTESIAN_POINT('',(13.239231396601,-28.86751345948,15.));
#530 = VECTOR('',#531,1.);
#531 = DIRECTION('',(-1.,2.683474268538E-16,-0.));
#532 = ORIENTED_EDGE('',*,*,#189,.T.);
#533 = ORIENTED_EDGE('',*,*,#465,.F.);
#534 = ORIENTED_EDGE('',*,*,#343,.F.);
#535 = PLANE('',#536);
#536 = AXIS2_PLACEMENT_3D('',#537,#538,#539);
#537 = CARTESIAN_POINT('',(13.239231396601,-28.86751345948,15.));
#538 = DIRECTION('',(2.683474268538E-16,1.,0.));
#539 = DIRECTION('',(-1.,2.683474268538E-16,0.));
#540 = ADVANCED_FACE('',(#541,#549),#552,.F.);
#541 = FACE_BOUND('',#542,.F.);
#542 = EDGE_LOOP('',(#543,#544,#545,#546,#547,#548));
#543 = ORIENTED_EDGE('',*,*,#393,.T.);
#544 = ORIENTED_EDGE('',*,*,#527,.F.);
#545 = ORIENTED_EDGE('',*,*,#237,.F.);
#546 = ORIENTED_EDGE('',*,*,#312,.F.);
#547 = ORIENTED_EDGE('',*,*,#375,.F.);
#548 = ORIENTED_EDGE('',*,*,#417,.T.);
#549 = FACE_BOUND('',#550,.F.);
#550 = EDGE_LOOP('',(#551));
#551 = ORIENTED_EDGE('',*,*,#441,.F.);
#552 = PLANE('',#553);
#553 = AXIS2_PLACEMENT_3D('',#554,#555,#556);
#554 = CARTESIAN_POINT('',(5.609E-14,-3.562E-14,15.));
#555 = DIRECTION('',(0.,0.,1.));
#556 = DIRECTION('',(1.,0.,0.));
#557 = ( GEOMETRIC_REPRESENTATION_CONTEXT(3) 
GLOBAL_UNCERTAINTY_ASSIGNED_CONTEXT((#561)) GLOBAL_UNIT_ASSIGNED_CONTEXT
((#558,#559,#560)) REPRESENTATION_CONTEXT('Context #1',
  '3D Context with UNIT and UNCERTAINTY') );
#558 = ( LENGTH_UNIT() NAMED_UNIT(*) SI_UNIT(.MILLI.,.METRE.) );
#559 = ( NAMED_UNIT(*) PLANE_ANGLE_UNIT() SI_UNIT($,.RADIAN.) );
#560 = ( NAMED_UNIT(*) SI_UNIT($,.STERADIAN.) SOLID_ANGLE_UNIT() );
#561 = UNCERTAINTY_MEASURE_WITH_UNIT(LENGTH_MEASURE(2.E-05),#558,
  'distance_accuracy_value','confusion accuracy');
#562 = PRODUCT_RELATED_PRODUCT_CATEGORY('part',$,(#7));
#563 = MECHANICAL_DESIGN_GEOMETRIC_PRESENTATION_REPRESENTATION('',(#564)
  ,#557);
#564 = STYLED_ITEM('color',(#565),#15);
#565 = PRESENTATION_STYLE_ASSIGNMENT((#566,#572));
#566 = SURFACE_STYLE_USAGE(.BOTH.,#567);
#567 = SURFACE_SIDE_STYLE('',(#568));
#568 = SURFACE_STYLE_FILL_AREA(#569);
#569 = FILL_AREA_STYLE('',(#570));
#570 = FILL_AREA_STYLE_COLOUR('',#571);
#571 = COLOUR_RGB('',0.941176459967,0.796078452645,0.14117647753);
#572 = CURVE_STYLE('',#573,POSITIVE_LENGTH_MEASURE(0.1),#574);
#573 = DRAUGHTING_PRE_DEFINED_CURVE_FONT('continuous');
#574 = COLOUR_RGB('',0.376470596604,0.376470596604,0.376470596604);
ENDSEC;
END-ISO-10303-21;
