ISO-10303-21;
HEADER;
FILE_DESCRIPTION(('FreeCAD Model'),'2;1');
FILE_NAME('Open CASCADE Shape Model','2026-07-15T12:30:12',(''),(''),
  'Open CASCADE STEP processor 7.8','FreeCAD','Unknown');
FILE_SCHEMA((
'AP242_MANAGED_MODEL_BASED_3D_ENGINEERING_MIM_LF. {1 0 10303 442 1 1 4 
}'));
ENDSEC;
DATA;
#1 = APPLICATION_PROTOCOL_DEFINITION('international standard',
  'ap242_managed_model_based_3d_engineering',2013,#2);
#2 = APPLICATION_CONTEXT('Managed model based 3d engineering');
#3 = SHAPE_DEFINITION_REPRESENTATION(#4,#10);
#4 = PRODUCT_DEFINITION_SHAPE('','',#5);
#5 = PRODUCT_DEFINITION('design','',#6,#9);
#6 = PRODUCT_DEFINITION_FORMATION('','',#7);
#7 = PRODUCT('sheath','sheath','',(#8));
#8 = PRODUCT_CONTEXT('',#2,'mechanical');
#9 = PRODUCT_DEFINITION_CONTEXT('part definition',#2,'design');
#10 = ADVANCED_BREP_SHAPE_REPRESENTATION('',(#11,#15),#1436);
#11 = AXIS2_PLACEMENT_3D('',#12,#13,#14);
#12 = CARTESIAN_POINT('',(0.,0.,0.));
#13 = DIRECTION('',(0.,0.,1.));
#14 = DIRECTION('',(1.,0.,-0.));
#15 = MANIFOLD_SOLID_BREP('',#16);
#16 = CLOSED_SHELL('',(#17,#57,#270,#294,#318,#349,#373,#397,#421,#445,
    #462,#510,#534,#575,#607,#632,#656,#713,#753,#778,#827,#851,#900,
    #925,#974,#1022,#1046,#1071,#1096,#1112,#1128,#1159,#1176,#1193,
    #1209,#1225,#1237,#1261,#1278,#1290,#1313,#1329,#1359,#1369,#1386,
    #1403,#1415,#1426));
#17 = ADVANCED_FACE('',(#18),#52,.T.);
#18 = FACE_BOUND('',#19,.T.);
#19 = EDGE_LOOP('',(#20,#30,#38,#46));
#20 = ORIENTED_EDGE('',*,*,#21,.F.);
#21 = EDGE_CURVE('',#22,#24,#26,.T.);
#22 = VERTEX_POINT('',#23);
#23 = CARTESIAN_POINT('',(-10.425601,50.500318,-6.));
#24 = VERTEX_POINT('',#25);
#25 = CARTESIAN_POINT('',(-10.425601,50.500318,6.));
#26 = LINE('',#27,#28);
#27 = CARTESIAN_POINT('',(-10.425601,50.500318,-8.));
#28 = VECTOR('',#29,1.);
#29 = DIRECTION('',(0.,0.,1.));
#30 = ORIENTED_EDGE('',*,*,#31,.T.);
#31 = EDGE_CURVE('',#22,#32,#34,.T.);
#32 = VERTEX_POINT('',#33);
#33 = CARTESIAN_POINT('',(-10.425601,-43.499682,-6.));
#34 = LINE('',#35,#36);
#35 = CARTESIAN_POINT('',(-10.425601,50.500318,-6.));
#36 = VECTOR('',#37,1.);
#37 = DIRECTION('',(0.,-1.,2.2E-16));
#38 = ORIENTED_EDGE('',*,*,#39,.T.);
#39 = EDGE_CURVE('',#32,#40,#42,.T.);
#40 = VERTEX_POINT('',#41);
#41 = CARTESIAN_POINT('',(-10.425601,-43.499682,6.));
#42 = LINE('',#43,#44);
#43 = CARTESIAN_POINT('',(-10.425601,-43.499682,-8.));
#44 = VECTOR('',#45,1.);
#45 = DIRECTION('',(0.,0.,1.));
#46 = ORIENTED_EDGE('',*,*,#47,.F.);
#47 = EDGE_CURVE('',#24,#40,#48,.T.);
#48 = LINE('',#49,#50);
#49 = CARTESIAN_POINT('',(-10.425601,50.500318,6.));
#50 = VECTOR('',#51,1.);
#51 = DIRECTION('',(0.,-1.,2.2E-16));
#52 = PLANE('',#53);
#53 = AXIS2_PLACEMENT_3D('',#54,#55,#56);
#54 = CARTESIAN_POINT('',(-10.425601,50.500318,-8.));
#55 = DIRECTION('',(-1.,0.,0.));
#56 = DIRECTION('',(0.,2.2E-16,1.));
#57 = ADVANCED_FACE('',(#58,#115),#265,.T.);
#58 = FACE_BOUND('',#59,.T.);
#59 = EDGE_LOOP('',(#60,#61,#69,#77,#85,#93,#101,#109));
#60 = ORIENTED_EDGE('',*,*,#21,.T.);
#61 = ORIENTED_EDGE('',*,*,#62,.T.);
#62 = EDGE_CURVE('',#24,#63,#65,.T.);
#63 = VERTEX_POINT('',#64);
#64 = CARTESIAN_POINT('',(-8.425601,50.500318,8.));
#65 = LINE('',#66,#67);
#66 = CARTESIAN_POINT('',(-8.925601,50.500318,7.5));
#67 = VECTOR('',#68,1.);
#68 = DIRECTION('',(0.707106781187,0.,0.707106781187));
#69 = ORIENTED_EDGE('',*,*,#70,.T.);
#70 = EDGE_CURVE('',#63,#71,#73,.T.);
#71 = VERTEX_POINT('',#72);
#72 = CARTESIAN_POINT('',(7.574399,50.500318,8.));
#73 = LINE('',#74,#75);
#74 = CARTESIAN_POINT('',(-10.425601,50.500318,8.));
#75 = VECTOR('',#76,1.);
#76 = DIRECTION('',(1.,0.,0.));
#77 = ORIENTED_EDGE('',*,*,#78,.T.);
#78 = EDGE_CURVE('',#71,#79,#81,.T.);
#79 = VERTEX_POINT('',#80);
#80 = CARTESIAN_POINT('',(9.574399,50.500318,6.));
#81 = LINE('',#82,#83);
#82 = CARTESIAN_POINT('',(8.074399,50.500318,7.5));
#83 = VECTOR('',#84,1.);
#84 = DIRECTION('',(0.707106781187,0.,-0.707106781187));
#85 = ORIENTED_EDGE('',*,*,#86,.T.);
#86 = EDGE_CURVE('',#79,#87,#89,.T.);
#87 = VERTEX_POINT('',#88);
#88 = CARTESIAN_POINT('',(9.574399,50.500318,-6.));
#89 = LINE('',#90,#91);
#90 = CARTESIAN_POINT('',(9.574399,50.500318,8.));
#91 = VECTOR('',#92,1.);
#92 = DIRECTION('',(0.,0.,-1.));
#93 = ORIENTED_EDGE('',*,*,#94,.F.);
#94 = EDGE_CURVE('',#95,#87,#97,.T.);
#95 = VERTEX_POINT('',#96);
#96 = CARTESIAN_POINT('',(7.574399,50.500318,-8.));
#97 = LINE('',#98,#99);
#98 = CARTESIAN_POINT('',(8.074399,50.500318,-7.5));
#99 = VECTOR('',#100,1.);
#100 = DIRECTION('',(0.707106781187,0.,0.707106781187));
#101 = ORIENTED_EDGE('',*,*,#102,.T.);
#102 = EDGE_CURVE('',#95,#103,#105,.T.);
#103 = VERTEX_POINT('',#104);
#104 = CARTESIAN_POINT('',(-8.425601,50.500318,-8.));
#105 = LINE('',#106,#107);
#106 = CARTESIAN_POINT('',(9.574399,50.500318,-8.));
#107 = VECTOR('',#108,1.);
#108 = DIRECTION('',(-1.,0.,0.));
#109 = ORIENTED_EDGE('',*,*,#110,.F.);
#110 = EDGE_CURVE('',#22,#103,#111,.T.);
#111 = LINE('',#112,#113);
#112 = CARTESIAN_POINT('',(-8.925601,50.500318,-7.5));
#113 = VECTOR('',#114,1.);
#114 = DIRECTION('',(0.707106781187,0.,-0.707106781187));
#115 = FACE_BOUND('',#116,.T.);
#116 = EDGE_LOOP('',(#117,#127,#135,#143,#151,#160,#168,#176,#184,#193,
    #201,#209,#217,#226,#234,#242,#250,#259));
#117 = ORIENTED_EDGE('',*,*,#118,.F.);
#118 = EDGE_CURVE('',#119,#121,#123,.T.);
#119 = VERTEX_POINT('',#120);
#120 = CARTESIAN_POINT('',(-9.36589,50.500318,6.));
#121 = VERTEX_POINT('',#122);
#122 = CARTESIAN_POINT('',(-6.557276588413,50.500318,6.));
#123 = LINE('',#124,#125);
#124 = CARTESIAN_POINT('',(-9.36589,50.500318,6.));
#125 = VECTOR('',#126,1.);
#126 = DIRECTION('',(1.,0.,0.));
#127 = ORIENTED_EDGE('',*,*,#128,.T.);
#128 = EDGE_CURVE('',#119,#129,#131,.T.);
#129 = VERTEX_POINT('',#130);
#130 = CARTESIAN_POINT('',(-9.36589,50.500318,-6.));
#131 = LINE('',#132,#133);
#132 = CARTESIAN_POINT('',(-9.36589,50.500318,6.));
#133 = VECTOR('',#134,1.);
#134 = DIRECTION('',(-0.,-0.,-1.));
#135 = ORIENTED_EDGE('',*,*,#136,.T.);
#136 = EDGE_CURVE('',#129,#137,#139,.T.);
#137 = VERTEX_POINT('',#138);
#138 = CARTESIAN_POINT('',(-6.557276588414,50.500318,-6.));
#139 = LINE('',#140,#141);
#140 = CARTESIAN_POINT('',(-9.36589,50.500318,-6.));
#141 = VECTOR('',#142,1.);
#142 = DIRECTION('',(1.,0.,0.));
#143 = ORIENTED_EDGE('',*,*,#144,.F.);
#144 = EDGE_CURVE('',#145,#137,#147,.T.);
#145 = VERTEX_POINT('',#146);
#146 = CARTESIAN_POINT('',(-2.208748450991,50.500318,-1.651471862579));
#147 = LINE('',#148,#149);
#148 = CARTESIAN_POINT('',(-2.208748450991,50.500318,-1.651471862579));
#149 = VECTOR('',#150,1.);
#150 = DIRECTION('',(-0.707106781187,-1.570092458684E-16,-0.707106781186
    ));
#151 = ORIENTED_EDGE('',*,*,#152,.T.);
#152 = EDGE_CURVE('',#145,#153,#155,.T.);
#153 = VERTEX_POINT('',#154);
#154 = CARTESIAN_POINT('',(-0.511692176144,50.500318,-3.348528137427));
#155 = CIRCLE('',#156,1.2);
#156 = AXIS2_PLACEMENT_3D('',#157,#158,#159);
#157 = CARTESIAN_POINT('',(-1.360220313568,50.500318,-2.500000000003));
#158 = DIRECTION('',(0.,1.,-2.22044604925E-16));
#159 = DIRECTION('',(-1.,0.,0.));
#160 = ORIENTED_EDGE('',*,*,#161,.F.);
#161 = EDGE_CURVE('',#162,#153,#164,.T.);
#162 = VERTEX_POINT('',#163);
#163 = CARTESIAN_POINT('',(-3.163164038717,50.500318,-6.));
#164 = LINE('',#165,#166);
#165 = CARTESIAN_POINT('',(-3.163164038717,50.500318,-6.));
#166 = VECTOR('',#167,1.);
#167 = DIRECTION('',(0.707106781187,1.570092458684E-16,0.707106781187));
#168 = ORIENTED_EDGE('',*,*,#169,.T.);
#169 = EDGE_CURVE('',#162,#170,#172,.T.);
#170 = VERTEX_POINT('',#171);
#171 = CARTESIAN_POINT('',(6.817631725152,50.500318,-6.));
#172 = LINE('',#173,#174);
#173 = CARTESIAN_POINT('',(-9.36589,50.500318,-6.));
#174 = VECTOR('',#175,1.);
#175 = DIRECTION('',(1.,0.,0.));
#176 = ORIENTED_EDGE('',*,*,#177,.T.);
#177 = EDGE_CURVE('',#170,#178,#180,.T.);
#178 = VERTEX_POINT('',#179);
#179 = CARTESIAN_POINT('',(4.166159862576,50.500318,-3.348528137424));
#180 = LINE('',#181,#182);
#181 = CARTESIAN_POINT('',(6.817631725152,50.500318,-6.));
#182 = VECTOR('',#183,1.);
#183 = DIRECTION('',(-0.707106781187,1.570092458684E-16,0.707106781187)
  );
#184 = ORIENTED_EDGE('',*,*,#185,.T.);
#185 = EDGE_CURVE('',#178,#186,#188,.T.);
#186 = VERTEX_POINT('',#187);
#187 = CARTESIAN_POINT('',(5.863216137424,50.500318,-1.651471862576));
#188 = CIRCLE('',#189,1.2);
#189 = AXIS2_PLACEMENT_3D('',#190,#191,#192);
#190 = CARTESIAN_POINT('',(5.014688013566,50.500318,-2.500000013566));
#191 = DIRECTION('',(0.,1.,-2.22044604925E-16));
#192 = DIRECTION('',(-1.,0.,0.));
#193 = ORIENTED_EDGE('',*,*,#194,.T.);
#194 = EDGE_CURVE('',#186,#195,#197,.T.);
#195 = VERTEX_POINT('',#196);
#196 = CARTESIAN_POINT('',(8.514688,50.500318,-4.302943725152));
#197 = LINE('',#198,#199);
#198 = CARTESIAN_POINT('',(5.863216137424,50.500318,-1.651471862576));
#199 = VECTOR('',#200,1.);
#200 = DIRECTION('',(0.707106781187,-1.570092458684E-16,-0.707106781187)
  );
#201 = ORIENTED_EDGE('',*,*,#202,.F.);
#202 = EDGE_CURVE('',#203,#195,#205,.T.);
#203 = VERTEX_POINT('',#204);
#204 = CARTESIAN_POINT('',(8.514688,50.500318,4.302943725152));
#205 = LINE('',#206,#207);
#206 = CARTESIAN_POINT('',(8.514688,50.500318,6.));
#207 = VECTOR('',#208,1.);
#208 = DIRECTION('',(-0.,-0.,-1.));
#209 = ORIENTED_EDGE('',*,*,#210,.F.);
#210 = EDGE_CURVE('',#211,#203,#213,.T.);
#211 = VERTEX_POINT('',#212);
#212 = CARTESIAN_POINT('',(5.863216137424,50.500318,1.651471862576));
#213 = LINE('',#214,#215);
#214 = CARTESIAN_POINT('',(5.863216137424,50.500318,1.651471862576));
#215 = VECTOR('',#216,1.);
#216 = DIRECTION('',(0.707106781187,1.570092458684E-16,0.707106781187));
#217 = ORIENTED_EDGE('',*,*,#218,.T.);
#218 = EDGE_CURVE('',#211,#219,#221,.T.);
#219 = VERTEX_POINT('',#220);
#220 = CARTESIAN_POINT('',(4.166159862576,50.500318,3.348528137424));
#221 = CIRCLE('',#222,1.2);
#222 = AXIS2_PLACEMENT_3D('',#223,#224,#225);
#223 = CARTESIAN_POINT('',(5.014688,50.500318,2.5));
#224 = DIRECTION('',(0.,1.,-2.22044604925E-16));
#225 = DIRECTION('',(-1.,0.,0.));
#226 = ORIENTED_EDGE('',*,*,#227,.F.);
#227 = EDGE_CURVE('',#228,#219,#230,.T.);
#228 = VERTEX_POINT('',#229);
#229 = CARTESIAN_POINT('',(6.817631725152,50.500318,6.));
#230 = LINE('',#231,#232);
#231 = CARTESIAN_POINT('',(6.817631725152,50.500318,6.));
#232 = VECTOR('',#233,1.);
#233 = DIRECTION('',(-0.707106781187,-1.570092458684E-16,-0.707106781187
    ));
#234 = ORIENTED_EDGE('',*,*,#235,.F.);
#235 = EDGE_CURVE('',#236,#228,#238,.T.);
#236 = VERTEX_POINT('',#237);
#237 = CARTESIAN_POINT('',(-3.163164038718,50.500318,6.));
#238 = LINE('',#239,#240);
#239 = CARTESIAN_POINT('',(-9.36589,50.500318,6.));
#240 = VECTOR('',#241,1.);
#241 = DIRECTION('',(1.,0.,0.));
#242 = ORIENTED_EDGE('',*,*,#243,.T.);
#243 = EDGE_CURVE('',#236,#244,#246,.T.);
#244 = VERTEX_POINT('',#245);
#245 = CARTESIAN_POINT('',(-0.511692176144,50.500318,3.348528137424));
#246 = LINE('',#247,#248);
#247 = CARTESIAN_POINT('',(-3.163164038718,50.500318,6.));
#248 = VECTOR('',#249,1.);
#249 = DIRECTION('',(0.707106781186,-1.570092458684E-16,-0.707106781187)
  );
#250 = ORIENTED_EDGE('',*,*,#251,.T.);
#251 = EDGE_CURVE('',#244,#252,#254,.T.);
#252 = VERTEX_POINT('',#253);
#253 = CARTESIAN_POINT('',(-2.208748450991,50.500318,1.651471862576));
#254 = CIRCLE('',#255,1.2);
#255 = AXIS2_PLACEMENT_3D('',#256,#257,#258);
#256 = CARTESIAN_POINT('',(-1.360220313568,50.500318,2.5));
#257 = DIRECTION('',(0.,1.,-2.22044604925E-16));
#258 = DIRECTION('',(-1.,0.,0.));
#259 = ORIENTED_EDGE('',*,*,#260,.T.);
#260 = EDGE_CURVE('',#252,#121,#261,.T.);
#261 = LINE('',#262,#263);
#262 = CARTESIAN_POINT('',(-2.208748450991,50.500318,1.651471862576));
#263 = VECTOR('',#264,1.);
#264 = DIRECTION('',(-0.707106781186,1.570092458684E-16,0.707106781187)
  );
#265 = PLANE('',#266);
#266 = AXIS2_PLACEMENT_3D('',#267,#268,#269);
#267 = CARTESIAN_POINT('',(-0.425601,50.500318,0.));
#268 = DIRECTION('',(0.,1.,0.));
#269 = DIRECTION('',(0.,0.,1.));
#270 = ADVANCED_FACE('',(#271),#289,.T.);
#271 = FACE_BOUND('',#272,.F.);
#272 = EDGE_LOOP('',(#273,#274,#275,#283));
#273 = ORIENTED_EDGE('',*,*,#110,.F.);
#274 = ORIENTED_EDGE('',*,*,#31,.T.);
#275 = ORIENTED_EDGE('',*,*,#276,.T.);
#276 = EDGE_CURVE('',#32,#277,#279,.T.);
#277 = VERTEX_POINT('',#278);
#278 = CARTESIAN_POINT('',(-8.425601,-43.499682,-8.));
#279 = LINE('',#280,#281);
#280 = CARTESIAN_POINT('',(-9.425601,-43.499682,-7.));
#281 = VECTOR('',#282,1.);
#282 = DIRECTION('',(0.707106781187,-5.768888059151E-16,-0.707106781187)
  );
#283 = ORIENTED_EDGE('',*,*,#284,.F.);
#284 = EDGE_CURVE('',#103,#277,#285,.T.);
#285 = LINE('',#286,#287);
#286 = CARTESIAN_POINT('',(-8.425601,50.500318,-8.));
#287 = VECTOR('',#288,1.);
#288 = DIRECTION('',(0.,-1.,2.2E-16));
#289 = PLANE('',#290);
#290 = AXIS2_PLACEMENT_3D('',#291,#292,#293);
#291 = CARTESIAN_POINT('',(-9.425601,50.500318,-7.));
#292 = DIRECTION('',(-0.707106781187,-1.442222014788E-16,-0.707106781187
    ));
#293 = DIRECTION('',(8.019503336711E-18,1.,-2.119804966633E-16));
#294 = ADVANCED_FACE('',(#295),#313,.T.);
#295 = FACE_BOUND('',#296,.T.);
#296 = EDGE_LOOP('',(#297,#298,#299,#307));
#297 = ORIENTED_EDGE('',*,*,#62,.F.);
#298 = ORIENTED_EDGE('',*,*,#47,.T.);
#299 = ORIENTED_EDGE('',*,*,#300,.F.);
#300 = EDGE_CURVE('',#301,#40,#303,.T.);
#301 = VERTEX_POINT('',#302);
#302 = CARTESIAN_POINT('',(-8.425601,-43.499682,8.));
#303 = LINE('',#304,#305);
#304 = CARTESIAN_POINT('',(-9.425601,-43.499682,7.));
#305 = VECTOR('',#306,1.);
#306 = DIRECTION('',(-0.707106781187,1.249925746149E-15,-0.707106781187)
  );
#307 = ORIENTED_EDGE('',*,*,#308,.F.);
#308 = EDGE_CURVE('',#63,#301,#309,.T.);
#309 = LINE('',#310,#311);
#310 = CARTESIAN_POINT('',(-8.425601,50.500318,8.));
#311 = VECTOR('',#312,1.);
#312 = DIRECTION('',(0.,-1.,2.2E-16));
#313 = PLANE('',#314);
#314 = AXIS2_PLACEMENT_3D('',#315,#316,#317);
#315 = CARTESIAN_POINT('',(-9.425601,50.500318,7.));
#316 = DIRECTION('',(-0.707106781187,1.442222014788E-16,0.707106781187)
  );
#317 = DIRECTION('',(8.019503336711E-18,-1.,2.119804966633E-16));
#318 = ADVANCED_FACE('',(#319),#344,.F.);
#319 = FACE_BOUND('',#320,.F.);
#320 = EDGE_LOOP('',(#321,#329,#330,#338));
#321 = ORIENTED_EDGE('',*,*,#322,.T.);
#322 = EDGE_CURVE('',#323,#32,#325,.T.);
#323 = VERTEX_POINT('',#324);
#324 = CARTESIAN_POINT('',(-8.425601,-45.499682,-6.));
#325 = LINE('',#326,#327);
#326 = CARTESIAN_POINT('',(-8.925601,-44.999682,-6.));
#327 = VECTOR('',#328,1.);
#328 = DIRECTION('',(-0.707106781187,0.707106781187,5.768888059151E-16)
  );
#329 = ORIENTED_EDGE('',*,*,#39,.T.);
#330 = ORIENTED_EDGE('',*,*,#331,.F.);
#331 = EDGE_CURVE('',#332,#40,#334,.T.);
#332 = VERTEX_POINT('',#333);
#333 = CARTESIAN_POINT('',(-8.425601,-45.499682,6.));
#334 = LINE('',#335,#336);
#335 = CARTESIAN_POINT('',(-8.925601,-44.999682,6.));
#336 = VECTOR('',#337,1.);
#337 = DIRECTION('',(-0.707106781187,0.707106781187,-1.922962686384E-15)
  );
#338 = ORIENTED_EDGE('',*,*,#339,.F.);
#339 = EDGE_CURVE('',#323,#332,#340,.T.);
#340 = LINE('',#341,#342);
#341 = CARTESIAN_POINT('',(-8.425601,-45.499682,-8.));
#342 = VECTOR('',#343,1.);
#343 = DIRECTION('',(0.,0.,1.));
#344 = PLANE('',#345);
#345 = AXIS2_PLACEMENT_3D('',#346,#347,#348);
#346 = CARTESIAN_POINT('',(-9.425601,-44.499682,-8.));
#347 = DIRECTION('',(0.707106781187,0.707106781187,0.));
#348 = DIRECTION('',(0.,0.,1.));
#349 = ADVANCED_FACE('',(#350),#368,.T.);
#350 = FACE_BOUND('',#351,.T.);
#351 = EDGE_LOOP('',(#352,#353,#361,#367));
#352 = ORIENTED_EDGE('',*,*,#102,.F.);
#353 = ORIENTED_EDGE('',*,*,#354,.T.);
#354 = EDGE_CURVE('',#95,#355,#357,.T.);
#355 = VERTEX_POINT('',#356);
#356 = CARTESIAN_POINT('',(7.574399,-43.499682,-8.));
#357 = LINE('',#358,#359);
#358 = CARTESIAN_POINT('',(7.574399,50.500318,-8.));
#359 = VECTOR('',#360,1.);
#360 = DIRECTION('',(0.,-1.,2.2E-16));
#361 = ORIENTED_EDGE('',*,*,#362,.T.);
#362 = EDGE_CURVE('',#355,#277,#363,.T.);
#363 = LINE('',#364,#365);
#364 = CARTESIAN_POINT('',(9.574399,-43.499682,-8.));
#365 = VECTOR('',#366,1.);
#366 = DIRECTION('',(-1.,0.,0.));
#367 = ORIENTED_EDGE('',*,*,#284,.F.);
#368 = PLANE('',#369);
#369 = AXIS2_PLACEMENT_3D('',#370,#371,#372);
#370 = CARTESIAN_POINT('',(9.574399,50.500318,-8.));
#371 = DIRECTION('',(-0.,-2.2E-16,-1.));
#372 = DIRECTION('',(-1.,0.,0.));
#373 = ADVANCED_FACE('',(#374),#392,.T.);
#374 = FACE_BOUND('',#375,.T.);
#375 = EDGE_LOOP('',(#376,#377,#378,#386));
#376 = ORIENTED_EDGE('',*,*,#70,.F.);
#377 = ORIENTED_EDGE('',*,*,#308,.T.);
#378 = ORIENTED_EDGE('',*,*,#379,.T.);
#379 = EDGE_CURVE('',#301,#380,#382,.T.);
#380 = VERTEX_POINT('',#381);
#381 = CARTESIAN_POINT('',(7.574399,-43.499682,8.));
#382 = LINE('',#383,#384);
#383 = CARTESIAN_POINT('',(-10.425601,-43.499682,8.));
#384 = VECTOR('',#385,1.);
#385 = DIRECTION('',(1.,0.,0.));
#386 = ORIENTED_EDGE('',*,*,#387,.F.);
#387 = EDGE_CURVE('',#71,#380,#388,.T.);
#388 = LINE('',#389,#390);
#389 = CARTESIAN_POINT('',(7.574399,50.500318,8.));
#390 = VECTOR('',#391,1.);
#391 = DIRECTION('',(0.,-1.,2.2E-16));
#392 = PLANE('',#393);
#393 = AXIS2_PLACEMENT_3D('',#394,#395,#396);
#394 = CARTESIAN_POINT('',(-10.425601,50.500318,8.));
#395 = DIRECTION('',(0.,2.2E-16,1.));
#396 = DIRECTION('',(1.,0.,0.));
#397 = ADVANCED_FACE('',(#398),#416,.T.);
#398 = FACE_BOUND('',#399,.F.);
#399 = EDGE_LOOP('',(#400,#401,#402,#410));
#400 = ORIENTED_EDGE('',*,*,#94,.F.);
#401 = ORIENTED_EDGE('',*,*,#354,.T.);
#402 = ORIENTED_EDGE('',*,*,#403,.F.);
#403 = EDGE_CURVE('',#404,#355,#406,.T.);
#404 = VERTEX_POINT('',#405);
#405 = CARTESIAN_POINT('',(9.574399,-43.499682,-6.));
#406 = LINE('',#407,#408);
#407 = CARTESIAN_POINT('',(8.574399,-43.499682,-7.));
#408 = VECTOR('',#409,1.);
#409 = DIRECTION('',(-0.707106781187,-3.845925372767E-16,-0.707106781187
    ));
#410 = ORIENTED_EDGE('',*,*,#411,.F.);
#411 = EDGE_CURVE('',#87,#404,#412,.T.);
#412 = LINE('',#413,#414);
#413 = CARTESIAN_POINT('',(9.574399,50.500318,-6.));
#414 = VECTOR('',#415,1.);
#415 = DIRECTION('',(0.,-1.,2.2E-16));
#416 = PLANE('',#417);
#417 = AXIS2_PLACEMENT_3D('',#418,#419,#420);
#418 = CARTESIAN_POINT('',(8.574399,50.500318,-7.));
#419 = DIRECTION('',(0.707106781187,-1.15377761183E-16,-0.707106781187)
  );
#420 = DIRECTION('',(-2.841560266937E-17,1.,-1.915843973306E-16));
#421 = ADVANCED_FACE('',(#422),#440,.T.);
#422 = FACE_BOUND('',#423,.T.);
#423 = EDGE_LOOP('',(#424,#425,#426,#434));
#424 = ORIENTED_EDGE('',*,*,#78,.F.);
#425 = ORIENTED_EDGE('',*,*,#387,.T.);
#426 = ORIENTED_EDGE('',*,*,#427,.F.);
#427 = EDGE_CURVE('',#428,#380,#430,.T.);
#428 = VERTEX_POINT('',#429);
#429 = CARTESIAN_POINT('',(9.574399,-43.499682,6.));
#430 = LINE('',#431,#432);
#431 = CARTESIAN_POINT('',(8.574399,-43.499682,7.));
#432 = VECTOR('',#433,1.);
#433 = DIRECTION('',(-0.707106781187,2.884444029575E-16,0.707106781187)
  );
#434 = ORIENTED_EDGE('',*,*,#435,.F.);
#435 = EDGE_CURVE('',#79,#428,#436,.T.);
#436 = LINE('',#437,#438);
#437 = CARTESIAN_POINT('',(9.574399,50.500318,6.));
#438 = VECTOR('',#439,1.);
#439 = DIRECTION('',(0.,-1.,2.2E-16));
#440 = PLANE('',#441);
#441 = AXIS2_PLACEMENT_3D('',#442,#443,#444);
#442 = CARTESIAN_POINT('',(8.574399,50.500318,7.));
#443 = DIRECTION('',(0.707106781187,1.15377761183E-16,0.707106781187));
#444 = DIRECTION('',(-2.841560266937E-17,-1.,1.915843973306E-16));
#445 = ADVANCED_FACE('',(#446),#457,.T.);
#446 = FACE_BOUND('',#447,.T.);
#447 = EDGE_LOOP('',(#448,#449,#450,#456));
#448 = ORIENTED_EDGE('',*,*,#86,.F.);
#449 = ORIENTED_EDGE('',*,*,#435,.T.);
#450 = ORIENTED_EDGE('',*,*,#451,.T.);
#451 = EDGE_CURVE('',#428,#404,#452,.T.);
#452 = LINE('',#453,#454);
#453 = CARTESIAN_POINT('',(9.574399,-43.499682,8.));
#454 = VECTOR('',#455,1.);
#455 = DIRECTION('',(0.,0.,-1.));
#456 = ORIENTED_EDGE('',*,*,#411,.F.);
#457 = PLANE('',#458);
#458 = AXIS2_PLACEMENT_3D('',#459,#460,#461);
#459 = CARTESIAN_POINT('',(9.574399,50.500318,8.));
#460 = DIRECTION('',(1.,0.,0.));
#461 = DIRECTION('',(0.,-2.2E-16,-1.));
#462 = ADVANCED_FACE('',(#463),#505,.F.);
#463 = FACE_BOUND('',#464,.F.);
#464 = EDGE_LOOP('',(#465,#473,#474,#482,#491,#499));
#465 = ORIENTED_EDGE('',*,*,#466,.F.);
#466 = EDGE_CURVE('',#121,#467,#469,.T.);
#467 = VERTEX_POINT('',#468);
#468 = CARTESIAN_POINT('',(-6.557276588413,15.479628546832,6.));
#469 = LINE('',#470,#471);
#470 = CARTESIAN_POINT('',(-6.557276588413,50.500318,6.));
#471 = VECTOR('',#472,1.);
#472 = DIRECTION('',(0.,-1.,2.22044604925E-16));
#473 = ORIENTED_EDGE('',*,*,#118,.F.);
#474 = ORIENTED_EDGE('',*,*,#475,.F.);
#475 = EDGE_CURVE('',#476,#119,#478,.T.);
#476 = VERTEX_POINT('',#477);
#477 = CARTESIAN_POINT('',(-9.36589,49.784740567761,6.));
#478 = LINE('',#479,#480);
#479 = CARTESIAN_POINT('',(-9.36589,49.784740567761,6.));
#480 = VECTOR('',#481,1.);
#481 = DIRECTION('',(0.,1.,0.));
#482 = ORIENTED_EDGE('',*,*,#483,.F.);
#483 = EDGE_CURVE('',#484,#476,#486,.T.);
#484 = VERTEX_POINT('',#485);
#485 = CARTESIAN_POINT('',(-9.36589,45.784740567761,6.));
#486 = CIRCLE('',#487,2.);
#487 = AXIS2_PLACEMENT_3D('',#488,#489,#490);
#488 = CARTESIAN_POINT('',(-9.36589,47.784740567761,6.));
#489 = DIRECTION('',(0.,0.,1.));
#490 = DIRECTION('',(1.,0.,0.));
#491 = ORIENTED_EDGE('',*,*,#492,.F.);
#492 = EDGE_CURVE('',#493,#484,#495,.T.);
#493 = VERTEX_POINT('',#494);
#494 = CARTESIAN_POINT('',(-9.36589,40.231372845699,6.));
#495 = LINE('',#496,#497);
#496 = CARTESIAN_POINT('',(-9.36589,40.231372845699,6.));
#497 = VECTOR('',#498,1.);
#498 = DIRECTION('',(0.,1.,0.));
#499 = ORIENTED_EDGE('',*,*,#500,.F.);
#500 = EDGE_CURVE('',#467,#493,#501,.T.);
#501 = LINE('',#502,#503);
#502 = CARTESIAN_POINT('',(-4.860220313565,0.523813409546,6.));
#503 = VECTOR('',#504,1.);
#504 = DIRECTION('',(-0.112747798378,0.993623637984,0.));
#505 = PLANE('',#506);
#506 = AXIS2_PLACEMENT_3D('',#507,#508,#509);
#507 = CARTESIAN_POINT('',(1.994634530557,9.302597932094,6.));
#508 = DIRECTION('',(0.,0.,1.));
#509 = DIRECTION('',(1.,0.,0.));
#510 = ADVANCED_FACE('',(#511),#529,.T.);
#511 = FACE_BOUND('',#512,.T.);
#512 = EDGE_LOOP('',(#513,#521,#527,#528));
#513 = ORIENTED_EDGE('',*,*,#514,.T.);
#514 = EDGE_CURVE('',#476,#515,#517,.T.);
#515 = VERTEX_POINT('',#516);
#516 = CARTESIAN_POINT('',(-9.36589,49.784740567761,-6.));
#517 = LINE('',#518,#519);
#518 = CARTESIAN_POINT('',(-9.36589,49.784740567761,6.));
#519 = VECTOR('',#520,1.);
#520 = DIRECTION('',(-0.,-0.,-1.));
#521 = ORIENTED_EDGE('',*,*,#522,.T.);
#522 = EDGE_CURVE('',#515,#129,#523,.T.);
#523 = LINE('',#524,#525);
#524 = CARTESIAN_POINT('',(-9.36589,49.784740567761,-6.));
#525 = VECTOR('',#526,1.);
#526 = DIRECTION('',(0.,1.,0.));
#527 = ORIENTED_EDGE('',*,*,#128,.F.);
#528 = ORIENTED_EDGE('',*,*,#475,.F.);
#529 = PLANE('',#530);
#530 = AXIS2_PLACEMENT_3D('',#531,#532,#533);
#531 = CARTESIAN_POINT('',(-9.36589,49.784740567761,6.));
#532 = DIRECTION('',(1.,0.,0.));
#533 = DIRECTION('',(0.,1.,0.));
#534 = ADVANCED_FACE('',(#535),#570,.T.);
#535 = FACE_BOUND('',#536,.T.);
#536 = EDGE_LOOP('',(#537,#545,#546,#547,#556,#564));
#537 = ORIENTED_EDGE('',*,*,#538,.F.);
#538 = EDGE_CURVE('',#137,#539,#541,.T.);
#539 = VERTEX_POINT('',#540);
#540 = CARTESIAN_POINT('',(-6.557276588414,15.479628546841,-6.));
#541 = LINE('',#542,#543);
#542 = CARTESIAN_POINT('',(-6.557276588414,50.500318,-6.));
#543 = VECTOR('',#544,1.);
#544 = DIRECTION('',(0.,-1.,2.22044604925E-16));
#545 = ORIENTED_EDGE('',*,*,#136,.F.);
#546 = ORIENTED_EDGE('',*,*,#522,.F.);
#547 = ORIENTED_EDGE('',*,*,#548,.F.);
#548 = EDGE_CURVE('',#549,#515,#551,.T.);
#549 = VERTEX_POINT('',#550);
#550 = CARTESIAN_POINT('',(-9.36589,45.784740567761,-6.));
#551 = CIRCLE('',#552,2.);
#552 = AXIS2_PLACEMENT_3D('',#553,#554,#555);
#553 = CARTESIAN_POINT('',(-9.36589,47.784740567761,-6.));
#554 = DIRECTION('',(0.,0.,1.));
#555 = DIRECTION('',(1.,0.,0.));
#556 = ORIENTED_EDGE('',*,*,#557,.F.);
#557 = EDGE_CURVE('',#558,#549,#560,.T.);
#558 = VERTEX_POINT('',#559);
#559 = CARTESIAN_POINT('',(-9.36589,40.231372845699,-6.));
#560 = LINE('',#561,#562);
#561 = CARTESIAN_POINT('',(-9.36589,40.231372845699,-6.));
#562 = VECTOR('',#563,1.);
#563 = DIRECTION('',(0.,1.,0.));
#564 = ORIENTED_EDGE('',*,*,#565,.F.);
#565 = EDGE_CURVE('',#539,#558,#566,.T.);
#566 = LINE('',#567,#568);
#567 = CARTESIAN_POINT('',(-4.860220313565,0.523813409546,-6.));
#568 = VECTOR('',#569,1.);
#569 = DIRECTION('',(-0.112747798378,0.993623637984,0.));
#570 = PLANE('',#571);
#571 = AXIS2_PLACEMENT_3D('',#572,#573,#574);
#572 = CARTESIAN_POINT('',(1.994634530557,9.302597932094,-6.));
#573 = DIRECTION('',(0.,0.,1.));
#574 = DIRECTION('',(1.,0.,0.));
#575 = ADVANCED_FACE('',(#576),#602,.F.);
#576 = FACE_BOUND('',#577,.F.);
#577 = EDGE_LOOP('',(#578,#579,#587,#595,#601));
#578 = ORIENTED_EDGE('',*,*,#144,.F.);
#579 = ORIENTED_EDGE('',*,*,#580,.T.);
#580 = EDGE_CURVE('',#145,#581,#583,.T.);
#581 = VERTEX_POINT('',#582);
#582 = CARTESIAN_POINT('',(-2.208748450991,-10.2056352282,
    -1.651471862579));
#583 = LINE('',#584,#585);
#584 = CARTESIAN_POINT('',(-2.208748450991,50.500318,-1.651471862579));
#585 = VECTOR('',#586,1.);
#586 = DIRECTION('',(0.,-1.,2.22044604925E-16));
#587 = ORIENTED_EDGE('',*,*,#588,.T.);
#588 = EDGE_CURVE('',#581,#589,#591,.T.);
#589 = VERTEX_POINT('',#590);
#590 = CARTESIAN_POINT('',(-4.860220313565,0.523813409546,
    -4.302943725152));
#591 = LINE('',#592,#593);
#592 = CARTESIAN_POINT('',(-6.394461549159,6.73227549718,-5.837184960745
    ));
#593 = VECTOR('',#594,1.);
#594 = DIRECTION('',(-0.23328486759,0.94401077383,-0.23328486759));
#595 = ORIENTED_EDGE('',*,*,#596,.T.);
#596 = EDGE_CURVE('',#589,#539,#597,.T.);
#597 = LINE('',#598,#599);
#598 = CARTESIAN_POINT('',(-7.526540200939,24.021553539595,
    -6.969263612525));
#599 = VECTOR('',#600,1.);
#600 = DIRECTION('',(-0.11203793044,0.987367714828,-0.11203793044));
#601 = ORIENTED_EDGE('',*,*,#538,.F.);
#602 = PLANE('',#603);
#603 = AXIS2_PLACEMENT_3D('',#604,#605,#606);
#604 = CARTESIAN_POINT('',(-2.208748450991,50.500318,-1.651471862579));
#605 = DIRECTION('',(0.707106781186,-1.570092458684E-16,-0.707106781187)
  );
#606 = DIRECTION('',(-0.707106781187,-1.570092458684E-16,-0.707106781186
    ));
#607 = ADVANCED_FACE('',(#608),#627,.T.);
#608 = FACE_BOUND('',#609,.T.);
#609 = EDGE_LOOP('',(#610,#611,#612,#621));
#610 = ORIENTED_EDGE('',*,*,#152,.F.);
#611 = ORIENTED_EDGE('',*,*,#580,.T.);
#612 = ORIENTED_EDGE('',*,*,#613,.T.);
#613 = EDGE_CURVE('',#581,#614,#616,.T.);
#614 = VERTEX_POINT('',#615);
#615 = CARTESIAN_POINT('',(-0.511692176144,-17.07294481325,
    -3.348528137426));
#616 = ELLIPSE('',#617,5.001996648188,1.2);
#617 = AXIS2_PLACEMENT_3D('',#618,#619,#620);
#618 = CARTESIAN_POINT('',(-1.360220313568,-13.63929002073,
    -2.500000000003));
#619 = DIRECTION('',(0.970796567378,0.239904199143,-6.162975822039E-33)
  );
#620 = DIRECTION('',(-0.239904199143,0.970796567378,-2.287241347842E-16)
  );
#621 = ORIENTED_EDGE('',*,*,#622,.F.);
#622 = EDGE_CURVE('',#153,#614,#623,.T.);
#623 = LINE('',#624,#625);
#624 = CARTESIAN_POINT('',(-0.511692176144,50.500318,-3.348528137427));
#625 = VECTOR('',#626,1.);
#626 = DIRECTION('',(0.,-1.,2.22044604925E-16));
#627 = CYLINDRICAL_SURFACE('',#628,1.2);
#628 = AXIS2_PLACEMENT_3D('',#629,#630,#631);
#629 = CARTESIAN_POINT('',(-1.360220313568,50.500318,-2.500000000003));
#630 = DIRECTION('',(0.,1.,-2.22044604925E-16));
#631 = DIRECTION('',(-1.,0.,0.));
#632 = ADVANCED_FACE('',(#633),#651,.F.);
#633 = FACE_BOUND('',#634,.F.);
#634 = EDGE_LOOP('',(#635,#636,#644,#650));
#635 = ORIENTED_EDGE('',*,*,#161,.F.);
#636 = ORIENTED_EDGE('',*,*,#637,.T.);
#637 = EDGE_CURVE('',#162,#638,#640,.T.);
#638 = VERTEX_POINT('',#639);
#639 = CARTESIAN_POINT('',(-3.163164038717,-6.343496175508,-6.));
#640 = LINE('',#641,#642);
#641 = CARTESIAN_POINT('',(-3.163164038717,50.500318,-6.));
#642 = VECTOR('',#643,1.);
#643 = DIRECTION('',(0.,-1.,2.22044604925E-16));
#644 = ORIENTED_EDGE('',*,*,#645,.T.);
#645 = EDGE_CURVE('',#638,#614,#646,.T.);
#646 = LINE('',#647,#648);
#647 = CARTESIAN_POINT('',(-6.354045684344,6.56872861901,-9.190881645626
    ));
#648 = VECTOR('',#649,1.);
#649 = DIRECTION('',(0.23328486759,-0.94401077383,0.23328486759));
#650 = ORIENTED_EDGE('',*,*,#622,.F.);
#651 = PLANE('',#652);
#652 = AXIS2_PLACEMENT_3D('',#653,#654,#655);
#653 = CARTESIAN_POINT('',(-3.163164038717,50.500318,-6.));
#654 = DIRECTION('',(-0.707106781187,1.570092458684E-16,0.707106781187)
  );
#655 = DIRECTION('',(0.707106781187,1.570092458684E-16,0.707106781187));
#656 = ADVANCED_FACE('',(#657),#708,.T.);
#657 = FACE_BOUND('',#658,.T.);
#658 = EDGE_LOOP('',(#659,#669,#678,#684,#685,#686,#694,#702));
#659 = ORIENTED_EDGE('',*,*,#660,.F.);
#660 = EDGE_CURVE('',#661,#663,#665,.T.);
#661 = VERTEX_POINT('',#662);
#662 = CARTESIAN_POINT('',(6.817631725152,46.726440043335,-6.));
#663 = VERTEX_POINT('',#664);
#664 = CARTESIAN_POINT('',(6.817631725152,-40.12870028627,-6.));
#665 = LINE('',#666,#667);
#666 = CARTESIAN_POINT('',(6.817631725152,50.500318,-6.));
#667 = VECTOR('',#668,1.);
#668 = DIRECTION('',(0.,-1.,2.22044604925E-16));
#669 = ORIENTED_EDGE('',*,*,#670,.F.);
#670 = EDGE_CURVE('',#671,#661,#673,.T.);
#671 = VERTEX_POINT('',#672);
#672 = CARTESIAN_POINT('',(6.817631725152,48.843041092187,-6.));
#673 = CIRCLE('',#674,2.);
#674 = AXIS2_PLACEMENT_3D('',#675,#676,#677);
#675 = CARTESIAN_POINT('',(8.514688,47.784740567761,-6.));
#676 = DIRECTION('',(0.,0.,1.));
#677 = DIRECTION('',(1.,0.,0.));
#678 = ORIENTED_EDGE('',*,*,#679,.F.);
#679 = EDGE_CURVE('',#170,#671,#680,.T.);
#680 = LINE('',#681,#682);
#681 = CARTESIAN_POINT('',(6.817631725152,50.500318,-6.));
#682 = VECTOR('',#683,1.);
#683 = DIRECTION('',(0.,-1.,2.22044604925E-16));
#684 = ORIENTED_EDGE('',*,*,#169,.F.);
#685 = ORIENTED_EDGE('',*,*,#637,.T.);
#686 = ORIENTED_EDGE('',*,*,#687,.F.);
#687 = EDGE_CURVE('',#688,#638,#690,.T.);
#688 = VERTEX_POINT('',#689);
#689 = CARTESIAN_POINT('',(2.635948679719,-29.81019138553,-6.));
#690 = LINE('',#691,#692);
#691 = CARTESIAN_POINT('',(2.635948679719,-29.81019138553,-6.));
#692 = VECTOR('',#693,1.);
#693 = DIRECTION('',(-0.239904199143,0.970796567378,0.));
#694 = ORIENTED_EDGE('',*,*,#695,.F.);
#695 = EDGE_CURVE('',#696,#688,#698,.T.);
#696 = VERTEX_POINT('',#697);
#697 = CARTESIAN_POINT('',(6.655535315402,-40.12870028627,-6.));
#698 = LINE('',#699,#700);
#699 = CARTESIAN_POINT('',(6.655535315402,-40.12870028627,-6.));
#700 = VECTOR('',#701,1.);
#701 = DIRECTION('',(-0.362982198526,0.931796074017,0.));
#702 = ORIENTED_EDGE('',*,*,#703,.F.);
#703 = EDGE_CURVE('',#663,#696,#704,.T.);
#704 = LINE('',#705,#706);
#705 = CARTESIAN_POINT('',(8.514688,-40.12870028627,-6.));
#706 = VECTOR('',#707,1.);
#707 = DIRECTION('',(-1.,0.,0.));
#708 = PLANE('',#709);
#709 = AXIS2_PLACEMENT_3D('',#710,#711,#712);
#710 = CARTESIAN_POINT('',(1.994634530557,9.302597932094,-6.));
#711 = DIRECTION('',(0.,0.,1.));
#712 = DIRECTION('',(1.,0.,0.));
#713 = ADVANCED_FACE('',(#714),#748,.T.);
#714 = FACE_BOUND('',#715,.T.);
#715 = EDGE_LOOP('',(#716,#717,#718,#725,#726,#734,#742));
#716 = ORIENTED_EDGE('',*,*,#177,.F.);
#717 = ORIENTED_EDGE('',*,*,#679,.T.);
#718 = ORIENTED_EDGE('',*,*,#719,.F.);
#719 = EDGE_CURVE('',#661,#671,#720,.T.);
#720 = ELLIPSE('',#721,2.828427124746,2.);
#721 = AXIS2_PLACEMENT_3D('',#722,#723,#724);
#722 = CARTESIAN_POINT('',(8.514688,47.784740567761,-7.697056274848));
#723 = DIRECTION('',(-0.707106781187,-1.570092458684E-16,-0.707106781187
    ));
#724 = DIRECTION('',(-0.707106781187,-1.570092458684E-16,0.707106781187)
  );
#725 = ORIENTED_EDGE('',*,*,#660,.T.);
#726 = ORIENTED_EDGE('',*,*,#727,.F.);
#727 = EDGE_CURVE('',#728,#663,#730,.T.);
#728 = VERTEX_POINT('',#729);
#729 = CARTESIAN_POINT('',(6.655535315402,-40.12870028627,-5.83790359025
    ));
#730 = LINE('',#731,#732);
#731 = CARTESIAN_POINT('',(4.241895793864,-40.12870028627,
    -3.424264068712));
#732 = VECTOR('',#733,1.);
#733 = DIRECTION('',(0.707106781187,0.,-0.707106781187));
#734 = ORIENTED_EDGE('',*,*,#735,.T.);
#735 = EDGE_CURVE('',#728,#736,#738,.T.);
#736 = VERTEX_POINT('',#737);
#737 = CARTESIAN_POINT('',(4.166159862576,-33.73833105297,
    -3.348528137424));
#738 = LINE('',#739,#740);
#739 = CARTESIAN_POINT('',(-7.556907125527,-3.644547282563,
    8.374538850679));
#740 = VECTOR('',#741,1.);
#741 = DIRECTION('',(-0.341199911075,0.875879695714,0.341199911075));
#742 = ORIENTED_EDGE('',*,*,#743,.F.);
#743 = EDGE_CURVE('',#178,#736,#744,.T.);
#744 = LINE('',#745,#746);
#745 = CARTESIAN_POINT('',(4.166159862576,50.500318,-3.348528137424));
#746 = VECTOR('',#747,1.);
#747 = DIRECTION('',(0.,-1.,2.22044604925E-16));
#748 = PLANE('',#749);
#749 = AXIS2_PLACEMENT_3D('',#750,#751,#752);
#750 = CARTESIAN_POINT('',(6.817631725152,50.500318,-6.));
#751 = DIRECTION('',(-0.707106781187,-1.570092458684E-16,-0.707106781187
    ));
#752 = DIRECTION('',(-0.707106781187,1.570092458684E-16,0.707106781187)
  );
#753 = ADVANCED_FACE('',(#754),#773,.T.);
#754 = FACE_BOUND('',#755,.T.);
#755 = EDGE_LOOP('',(#756,#757,#758,#767));
#756 = ORIENTED_EDGE('',*,*,#185,.F.);
#757 = ORIENTED_EDGE('',*,*,#743,.T.);
#758 = ORIENTED_EDGE('',*,*,#759,.T.);
#759 = EDGE_CURVE('',#736,#760,#762,.T.);
#760 = VERTEX_POINT('',#761);
#761 = CARTESIAN_POINT('',(5.863216137424,-38.09477161868,
    -1.651471862576));
#762 = ELLIPSE('',#763,3.305947247201,1.2);
#763 = AXIS2_PLACEMENT_3D('',#764,#765,#766);
#764 = CARTESIAN_POINT('',(5.014688013566,-35.91655137065,
    -2.500000013566));
#765 = DIRECTION('',(0.931796074017,0.362982198526,1.232595164408E-32));
#766 = DIRECTION('',(-0.362982198526,0.931796074017,-2.382974248516E-16)
  );
#767 = ORIENTED_EDGE('',*,*,#768,.F.);
#768 = EDGE_CURVE('',#186,#760,#769,.T.);
#769 = LINE('',#770,#771);
#770 = CARTESIAN_POINT('',(5.863216137424,50.500318,-1.651471862576));
#771 = VECTOR('',#772,1.);
#772 = DIRECTION('',(0.,-1.,2.22044604925E-16));
#773 = CYLINDRICAL_SURFACE('',#774,1.2);
#774 = AXIS2_PLACEMENT_3D('',#775,#776,#777);
#775 = CARTESIAN_POINT('',(5.014688013566,50.500318,-2.500000013566));
#776 = DIRECTION('',(0.,1.,-2.22044604925E-16));
#777 = DIRECTION('',(-1.,0.,0.));
#778 = ADVANCED_FACE('',(#779),#822,.T.);
#779 = FACE_BOUND('',#780,.T.);
#780 = EDGE_LOOP('',(#781,#782,#783,#791,#799,#807,#816));
#781 = ORIENTED_EDGE('',*,*,#194,.F.);
#782 = ORIENTED_EDGE('',*,*,#768,.T.);
#783 = ORIENTED_EDGE('',*,*,#784,.T.);
#784 = EDGE_CURVE('',#760,#785,#787,.T.);
#785 = VERTEX_POINT('',#786);
#786 = CARTESIAN_POINT('',(6.655535315402,-40.12870028627,
    -2.443791040554));
#787 = LINE('',#788,#789);
#788 = CARTESIAN_POINT('',(-7.470450842958,-3.866485507079,
    11.682195117806));
#789 = VECTOR('',#790,1.);
#790 = DIRECTION('',(0.341199911075,-0.875879695714,-0.341199911075));
#791 = ORIENTED_EDGE('',*,*,#792,.F.);
#792 = EDGE_CURVE('',#793,#785,#795,.T.);
#793 = VERTEX_POINT('',#794);
#794 = CARTESIAN_POINT('',(8.514688,-40.12870028627,-4.302943725152));
#795 = LINE('',#796,#797);
#796 = CARTESIAN_POINT('',(4.613216137424,-40.12870028627,
    -0.401471862576));
#797 = VECTOR('',#798,1.);
#798 = DIRECTION('',(-0.707106781187,0.,0.707106781187));
#799 = ORIENTED_EDGE('',*,*,#800,.F.);
#800 = EDGE_CURVE('',#801,#793,#803,.T.);
#801 = VERTEX_POINT('',#802);
#802 = CARTESIAN_POINT('',(8.514688,45.784740567761,-4.302943725152));
#803 = LINE('',#804,#805);
#804 = CARTESIAN_POINT('',(8.514688,50.500318,-4.302943725152));
#805 = VECTOR('',#806,1.);
#806 = DIRECTION('',(0.,-1.,2.22044604925E-16));
#807 = ORIENTED_EDGE('',*,*,#808,.F.);
#808 = EDGE_CURVE('',#809,#801,#811,.T.);
#809 = VERTEX_POINT('',#810);
#810 = CARTESIAN_POINT('',(8.514688,49.784740567761,-4.302943725152));
#811 = ELLIPSE('',#812,2.828427124746,2.);
#812 = AXIS2_PLACEMENT_3D('',#813,#814,#815);
#813 = CARTESIAN_POINT('',(8.514688,47.784740567761,-4.302943725152));
#814 = DIRECTION('',(0.707106781187,1.570092458684E-16,0.707106781187));
#815 = DIRECTION('',(-0.707106781187,-1.570092458684E-16,0.707106781187)
  );
#816 = ORIENTED_EDGE('',*,*,#817,.F.);
#817 = EDGE_CURVE('',#195,#809,#818,.T.);
#818 = LINE('',#819,#820);
#819 = CARTESIAN_POINT('',(8.514688,50.500318,-4.302943725152));
#820 = VECTOR('',#821,1.);
#821 = DIRECTION('',(0.,-1.,2.22044604925E-16));
#822 = PLANE('',#823);
#823 = AXIS2_PLACEMENT_3D('',#824,#825,#826);
#824 = CARTESIAN_POINT('',(5.863216137424,50.500318,-1.651471862576));
#825 = DIRECTION('',(0.707106781187,1.570092458684E-16,0.707106781187));
#826 = DIRECTION('',(0.707106781187,-1.570092458684E-16,-0.707106781187)
  );
#827 = ADVANCED_FACE('',(#828),#846,.T.);
#828 = FACE_BOUND('',#829,.T.);
#829 = EDGE_LOOP('',(#830,#838,#839,#840));
#830 = ORIENTED_EDGE('',*,*,#831,.F.);
#831 = EDGE_CURVE('',#203,#832,#834,.T.);
#832 = VERTEX_POINT('',#833);
#833 = CARTESIAN_POINT('',(8.514688,49.784740567761,4.302943725152));
#834 = LINE('',#835,#836);
#835 = CARTESIAN_POINT('',(8.514688,50.500318,4.302943725152));
#836 = VECTOR('',#837,1.);
#837 = DIRECTION('',(0.,-1.,2.22044604925E-16));
#838 = ORIENTED_EDGE('',*,*,#202,.T.);
#839 = ORIENTED_EDGE('',*,*,#817,.T.);
#840 = ORIENTED_EDGE('',*,*,#841,.F.);
#841 = EDGE_CURVE('',#832,#809,#842,.T.);
#842 = LINE('',#843,#844);
#843 = CARTESIAN_POINT('',(8.514688,49.784740567761,6.));
#844 = VECTOR('',#845,1.);
#845 = DIRECTION('',(-0.,-0.,-1.));
#846 = PLANE('',#847);
#847 = AXIS2_PLACEMENT_3D('',#848,#849,#850);
#848 = CARTESIAN_POINT('',(8.514688,50.500318,6.));
#849 = DIRECTION('',(-1.,0.,0.));
#850 = DIRECTION('',(0.,-1.,0.));
#851 = ADVANCED_FACE('',(#852),#895,.F.);
#852 = FACE_BOUND('',#853,.F.);
#853 = EDGE_LOOP('',(#854,#855,#863,#871,#879,#887,#894));
#854 = ORIENTED_EDGE('',*,*,#210,.F.);
#855 = ORIENTED_EDGE('',*,*,#856,.T.);
#856 = EDGE_CURVE('',#211,#857,#859,.T.);
#857 = VERTEX_POINT('',#858);
#858 = CARTESIAN_POINT('',(5.863216137424,-38.09477161868,1.651471862576
    ));
#859 = LINE('',#860,#861);
#860 = CARTESIAN_POINT('',(5.863216137424,50.500318,1.651471862576));
#861 = VECTOR('',#862,1.);
#862 = DIRECTION('',(0.,-1.,2.22044604925E-16));
#863 = ORIENTED_EDGE('',*,*,#864,.T.);
#864 = EDGE_CURVE('',#857,#865,#867,.T.);
#865 = VERTEX_POINT('',#866);
#866 = CARTESIAN_POINT('',(6.655535315402,-40.12870028627,2.443791040554
    ));
#867 = LINE('',#868,#869);
#868 = CARTESIAN_POINT('',(-6.771946567052,-5.659585952821,
    -10.98369084189));
#869 = VECTOR('',#870,1.);
#870 = DIRECTION('',(0.341199911075,-0.875879695714,0.341199911075));
#871 = ORIENTED_EDGE('',*,*,#872,.F.);
#872 = EDGE_CURVE('',#873,#865,#875,.T.);
#873 = VERTEX_POINT('',#874);
#874 = CARTESIAN_POINT('',(8.514688,-40.12870028627,4.302943725152));
#875 = LINE('',#876,#877);
#876 = CARTESIAN_POINT('',(7.613216137424,-40.12870028627,3.401471862576
    ));
#877 = VECTOR('',#878,1.);
#878 = DIRECTION('',(-0.707106781187,0.,-0.707106781187));
#879 = ORIENTED_EDGE('',*,*,#880,.F.);
#880 = EDGE_CURVE('',#881,#873,#883,.T.);
#881 = VERTEX_POINT('',#882);
#882 = CARTESIAN_POINT('',(8.514688,45.784740567761,4.302943725152));
#883 = LINE('',#884,#885);
#884 = CARTESIAN_POINT('',(8.514688,50.500318,4.302943725152));
#885 = VECTOR('',#886,1.);
#886 = DIRECTION('',(0.,-1.,2.22044604925E-16));
#887 = ORIENTED_EDGE('',*,*,#888,.F.);
#888 = EDGE_CURVE('',#832,#881,#889,.T.);
#889 = ELLIPSE('',#890,2.828427124746,2.);
#890 = AXIS2_PLACEMENT_3D('',#891,#892,#893);
#891 = CARTESIAN_POINT('',(8.514688,47.784740567761,4.302943725152));
#892 = DIRECTION('',(-0.707106781187,1.570092458684E-16,0.707106781187)
  );
#893 = DIRECTION('',(0.707106781187,-1.570092458684E-16,0.707106781187)
  );
#894 = ORIENTED_EDGE('',*,*,#831,.F.);
#895 = PLANE('',#896);
#896 = AXIS2_PLACEMENT_3D('',#897,#898,#899);
#897 = CARTESIAN_POINT('',(5.863216137424,50.500318,1.651471862576));
#898 = DIRECTION('',(-0.707106781187,1.570092458684E-16,0.707106781187)
  );
#899 = DIRECTION('',(0.707106781187,1.570092458684E-16,0.707106781187));
#900 = ADVANCED_FACE('',(#901),#920,.T.);
#901 = FACE_BOUND('',#902,.T.);
#902 = EDGE_LOOP('',(#903,#904,#905,#914));
#903 = ORIENTED_EDGE('',*,*,#218,.F.);
#904 = ORIENTED_EDGE('',*,*,#856,.T.);
#905 = ORIENTED_EDGE('',*,*,#906,.T.);
#906 = EDGE_CURVE('',#857,#907,#909,.T.);
#907 = VERTEX_POINT('',#908);
#908 = CARTESIAN_POINT('',(4.166159862576,-33.73833105297,3.348528137424
    ));
#909 = ELLIPSE('',#910,3.305947247201,1.2);
#910 = AXIS2_PLACEMENT_3D('',#911,#912,#913);
#911 = CARTESIAN_POINT('',(5.014688,-35.91655133582,2.5));
#912 = DIRECTION('',(0.931796074017,0.362982198526,1.232595164408E-32));
#913 = DIRECTION('',(-0.362982198526,0.931796074017,-2.382974248516E-16)
  );
#914 = ORIENTED_EDGE('',*,*,#915,.F.);
#915 = EDGE_CURVE('',#219,#907,#916,.T.);
#916 = LINE('',#917,#918);
#917 = CARTESIAN_POINT('',(4.166159862576,50.500318,3.348528137424));
#918 = VECTOR('',#919,1.);
#919 = DIRECTION('',(0.,-1.,2.22044604925E-16));
#920 = CYLINDRICAL_SURFACE('',#921,1.2);
#921 = AXIS2_PLACEMENT_3D('',#922,#923,#924);
#922 = CARTESIAN_POINT('',(5.014688,50.500318,2.5));
#923 = DIRECTION('',(0.,1.,-2.22044604925E-16));
#924 = DIRECTION('',(-1.,0.,0.));
#925 = ADVANCED_FACE('',(#926),#969,.F.);
#926 = FACE_BOUND('',#927,.F.);
#927 = EDGE_LOOP('',(#928,#929,#937,#946,#954,#962,#968));
#928 = ORIENTED_EDGE('',*,*,#227,.F.);
#929 = ORIENTED_EDGE('',*,*,#930,.T.);
#930 = EDGE_CURVE('',#228,#931,#933,.T.);
#931 = VERTEX_POINT('',#932);
#932 = CARTESIAN_POINT('',(6.817631725152,48.843041092187,6.));
#933 = LINE('',#934,#935);
#934 = CARTESIAN_POINT('',(6.817631725152,50.500318,6.));
#935 = VECTOR('',#936,1.);
#936 = DIRECTION('',(0.,-1.,2.22044604925E-16));
#937 = ORIENTED_EDGE('',*,*,#938,.F.);
#938 = EDGE_CURVE('',#939,#931,#941,.T.);
#939 = VERTEX_POINT('',#940);
#940 = CARTESIAN_POINT('',(6.817631725152,46.726440043335,6.));
#941 = ELLIPSE('',#942,2.828427124746,2.);
#942 = AXIS2_PLACEMENT_3D('',#943,#944,#945);
#943 = CARTESIAN_POINT('',(8.514688,47.784740567761,7.697056274848));
#944 = DIRECTION('',(0.707106781187,-1.570092458684E-16,-0.707106781187)
  );
#945 = DIRECTION('',(0.707106781187,-1.570092458684E-16,0.707106781187)
  );
#946 = ORIENTED_EDGE('',*,*,#947,.T.);
#947 = EDGE_CURVE('',#939,#948,#950,.T.);
#948 = VERTEX_POINT('',#949);
#949 = CARTESIAN_POINT('',(6.817631725152,-40.12870028627,6.));
#950 = LINE('',#951,#952);
#951 = CARTESIAN_POINT('',(6.817631725152,50.500318,6.));
#952 = VECTOR('',#953,1.);
#953 = DIRECTION('',(0.,-1.,2.22044604925E-16));
#954 = ORIENTED_EDGE('',*,*,#955,.F.);
#955 = EDGE_CURVE('',#956,#948,#958,.T.);
#956 = VERTEX_POINT('',#957);
#957 = CARTESIAN_POINT('',(6.655535315402,-40.12870028627,5.83790359025)
  );
#958 = LINE('',#959,#960);
#959 = CARTESIAN_POINT('',(7.241895793864,-40.12870028627,6.424264068712
    ));
#960 = VECTOR('',#961,1.);
#961 = DIRECTION('',(0.707106781187,0.,0.707106781187));
#962 = ORIENTED_EDGE('',*,*,#963,.T.);
#963 = EDGE_CURVE('',#956,#907,#964,.T.);
#964 = LINE('',#965,#966);
#965 = CARTESIAN_POINT('',(-6.858402849621,-5.437647728304,
    -7.676034574773));
#966 = VECTOR('',#967,1.);
#967 = DIRECTION('',(-0.341199911075,0.875879695714,-0.341199911075));
#968 = ORIENTED_EDGE('',*,*,#915,.F.);
#969 = PLANE('',#970);
#970 = AXIS2_PLACEMENT_3D('',#971,#972,#973);
#971 = CARTESIAN_POINT('',(6.817631725152,50.500318,6.));
#972 = DIRECTION('',(0.707106781187,-1.570092458684E-16,-0.707106781187)
  );
#973 = DIRECTION('',(-0.707106781187,-1.570092458684E-16,-0.707106781187
    ));
#974 = ADVANCED_FACE('',(#975),#1017,.F.);
#975 = FACE_BOUND('',#976,.F.);
#976 = EDGE_LOOP('',(#977,#978,#985,#986,#987,#995,#1003,#1011));
#977 = ORIENTED_EDGE('',*,*,#947,.F.);
#978 = ORIENTED_EDGE('',*,*,#979,.F.);
#979 = EDGE_CURVE('',#931,#939,#980,.T.);
#980 = CIRCLE('',#981,2.);
#981 = AXIS2_PLACEMENT_3D('',#982,#983,#984);
#982 = CARTESIAN_POINT('',(8.514688,47.784740567761,6.));
#983 = DIRECTION('',(0.,0.,1.));
#984 = DIRECTION('',(1.,0.,0.));
#985 = ORIENTED_EDGE('',*,*,#930,.F.);
#986 = ORIENTED_EDGE('',*,*,#235,.F.);
#987 = ORIENTED_EDGE('',*,*,#988,.T.);
#988 = EDGE_CURVE('',#236,#989,#991,.T.);
#989 = VERTEX_POINT('',#990);
#990 = CARTESIAN_POINT('',(-3.163164038718,-6.343496175504,6.));
#991 = LINE('',#992,#993);
#992 = CARTESIAN_POINT('',(-3.163164038718,50.500318,6.));
#993 = VECTOR('',#994,1.);
#994 = DIRECTION('',(0.,-1.,2.22044604925E-16));
#995 = ORIENTED_EDGE('',*,*,#996,.F.);
#996 = EDGE_CURVE('',#997,#989,#999,.T.);
#997 = VERTEX_POINT('',#998);
#998 = CARTESIAN_POINT('',(2.635948679719,-29.81019138553,6.));
#999 = LINE('',#1000,#1001);
#1000 = CARTESIAN_POINT('',(2.635948679719,-29.81019138553,6.));
#1001 = VECTOR('',#1002,1.);
#1002 = DIRECTION('',(-0.239904199143,0.970796567378,0.));
#1003 = ORIENTED_EDGE('',*,*,#1004,.F.);
#1004 = EDGE_CURVE('',#1005,#997,#1007,.T.);
#1005 = VERTEX_POINT('',#1006);
#1006 = CARTESIAN_POINT('',(6.655535315402,-40.12870028627,6.));
#1007 = LINE('',#1008,#1009);
#1008 = CARTESIAN_POINT('',(6.655535315402,-40.12870028627,6.));
#1009 = VECTOR('',#1010,1.);
#1010 = DIRECTION('',(-0.362982198526,0.931796074017,0.));
#1011 = ORIENTED_EDGE('',*,*,#1012,.F.);
#1012 = EDGE_CURVE('',#948,#1005,#1013,.T.);
#1013 = LINE('',#1014,#1015);
#1014 = CARTESIAN_POINT('',(8.514688,-40.12870028627,6.));
#1015 = VECTOR('',#1016,1.);
#1016 = DIRECTION('',(-1.,0.,0.));
#1017 = PLANE('',#1018);
#1018 = AXIS2_PLACEMENT_3D('',#1019,#1020,#1021);
#1019 = CARTESIAN_POINT('',(1.994634530557,9.302597932094,6.));
#1020 = DIRECTION('',(0.,0.,1.));
#1021 = DIRECTION('',(1.,0.,0.));
#1022 = ADVANCED_FACE('',(#1023),#1041,.T.);
#1023 = FACE_BOUND('',#1024,.T.);
#1024 = EDGE_LOOP('',(#1025,#1026,#1027,#1035));
#1025 = ORIENTED_EDGE('',*,*,#243,.F.);
#1026 = ORIENTED_EDGE('',*,*,#988,.T.);
#1027 = ORIENTED_EDGE('',*,*,#1028,.T.);
#1028 = EDGE_CURVE('',#989,#1029,#1031,.T.);
#1029 = VERTEX_POINT('',#1030);
#1030 = CARTESIAN_POINT('',(-0.511692176144,-17.07294481325,
    3.348528137424));
#1031 = LINE('',#1032,#1033);
#1032 = CARTESIAN_POINT('',(-6.680576661024,7.89006918927,9.517412622308
    ));
#1033 = VECTOR('',#1034,1.);
#1034 = DIRECTION('',(0.23328486759,-0.94401077383,-0.233284867591));
#1035 = ORIENTED_EDGE('',*,*,#1036,.F.);
#1036 = EDGE_CURVE('',#244,#1029,#1037,.T.);
#1037 = LINE('',#1038,#1039);
#1038 = CARTESIAN_POINT('',(-0.511692176144,50.500318,3.348528137424));
#1039 = VECTOR('',#1040,1.);
#1040 = DIRECTION('',(0.,-1.,2.22044604925E-16));
#1041 = PLANE('',#1042);
#1042 = AXIS2_PLACEMENT_3D('',#1043,#1044,#1045);
#1043 = CARTESIAN_POINT('',(-3.163164038718,50.500318,6.));
#1044 = DIRECTION('',(0.707106781187,1.570092458683E-16,0.707106781186)
  );
#1045 = DIRECTION('',(0.707106781186,-1.570092458684E-16,-0.707106781187
    ));
#1046 = ADVANCED_FACE('',(#1047),#1066,.T.);
#1047 = FACE_BOUND('',#1048,.T.);
#1048 = EDGE_LOOP('',(#1049,#1050,#1051,#1060));
#1049 = ORIENTED_EDGE('',*,*,#251,.F.);
#1050 = ORIENTED_EDGE('',*,*,#1036,.T.);
#1051 = ORIENTED_EDGE('',*,*,#1052,.T.);
#1052 = EDGE_CURVE('',#1029,#1053,#1055,.T.);
#1053 = VERTEX_POINT('',#1054);
#1054 = CARTESIAN_POINT('',(-2.208748450991,-10.2056352282,
    1.651471862576));
#1055 = ELLIPSE('',#1056,5.001996648188,1.2);
#1056 = AXIS2_PLACEMENT_3D('',#1057,#1058,#1059);
#1057 = CARTESIAN_POINT('',(-1.360220313568,-13.63929002073,2.5));
#1058 = DIRECTION('',(0.970796567378,0.239904199143,-6.162975822039E-33)
  );
#1059 = DIRECTION('',(-0.239904199143,0.970796567378,-2.287241347842E-16
    ));
#1060 = ORIENTED_EDGE('',*,*,#1061,.F.);
#1061 = EDGE_CURVE('',#252,#1053,#1062,.T.);
#1062 = LINE('',#1063,#1064);
#1063 = CARTESIAN_POINT('',(-2.208748450991,50.500318,1.651471862576));
#1064 = VECTOR('',#1065,1.);
#1065 = DIRECTION('',(0.,-1.,2.22044604925E-16));
#1066 = CYLINDRICAL_SURFACE('',#1067,1.2);
#1067 = AXIS2_PLACEMENT_3D('',#1068,#1069,#1070);
#1068 = CARTESIAN_POINT('',(-1.360220313568,50.500318,2.5));
#1069 = DIRECTION('',(0.,1.,-2.22044604925E-16));
#1070 = DIRECTION('',(-1.,0.,0.));
#1071 = ADVANCED_FACE('',(#1072),#1091,.T.);
#1072 = FACE_BOUND('',#1073,.T.);
#1073 = EDGE_LOOP('',(#1074,#1075,#1076,#1084,#1090));
#1074 = ORIENTED_EDGE('',*,*,#260,.F.);
#1075 = ORIENTED_EDGE('',*,*,#1061,.T.);
#1076 = ORIENTED_EDGE('',*,*,#1077,.T.);
#1077 = EDGE_CURVE('',#1053,#1078,#1080,.T.);
#1078 = VERTEX_POINT('',#1079);
#1079 = CARTESIAN_POINT('',(-4.860220313565,0.523813409546,
    4.302943725152));
#1080 = LINE('',#1081,#1082);
#1081 = CARTESIAN_POINT('',(-6.720992525839,8.05361606744,6.163715937426
    ));
#1082 = VECTOR('',#1083,1.);
#1083 = DIRECTION('',(-0.23328486759,0.94401077383,0.233284867591));
#1084 = ORIENTED_EDGE('',*,*,#1085,.T.);
#1085 = EDGE_CURVE('',#1078,#467,#1086,.T.);
#1086 = LINE('',#1087,#1088);
#1087 = CARTESIAN_POINT('',(-7.601855188083,24.685289351713,
    7.044578599671));
#1088 = VECTOR('',#1089,1.);
#1089 = DIRECTION('',(-0.11203793044,0.987367714828,0.11203793044));
#1090 = ORIENTED_EDGE('',*,*,#466,.F.);
#1091 = PLANE('',#1092);
#1092 = AXIS2_PLACEMENT_3D('',#1093,#1094,#1095);
#1093 = CARTESIAN_POINT('',(-2.208748450991,50.500318,1.651471862576));
#1094 = DIRECTION('',(-0.707106781187,-1.570092458683E-16,
    -0.707106781186));
#1095 = DIRECTION('',(-0.707106781186,1.570092458684E-16,0.707106781187)
  );
#1096 = ADVANCED_FACE('',(#1097),#1107,.F.);
#1097 = FACE_BOUND('',#1098,.F.);
#1098 = EDGE_LOOP('',(#1099,#1100,#1106));
#1099 = ORIENTED_EDGE('',*,*,#322,.F.);
#1100 = ORIENTED_EDGE('',*,*,#1101,.T.);
#1101 = EDGE_CURVE('',#323,#277,#1102,.T.);
#1102 = LINE('',#1103,#1104);
#1103 = CARTESIAN_POINT('',(-8.425601,-44.999682,-6.5));
#1104 = VECTOR('',#1105,1.);
#1105 = DIRECTION('',(0.,0.707106781187,-0.707106781187));
#1106 = ORIENTED_EDGE('',*,*,#276,.F.);
#1107 = PLANE('',#1108);
#1108 = AXIS2_PLACEMENT_3D('',#1109,#1110,#1111);
#1109 = CARTESIAN_POINT('',(-8.425601,-45.499682,-6.));
#1110 = DIRECTION('',(0.57735026919,0.57735026919,0.57735026919));
#1111 = DIRECTION('',(0.707106781187,2.775557561563E-17,-0.707106781187)
  );
#1112 = ADVANCED_FACE('',(#1113),#1123,.F.);
#1113 = FACE_BOUND('',#1114,.F.);
#1114 = EDGE_LOOP('',(#1115,#1121,#1122));
#1115 = ORIENTED_EDGE('',*,*,#1116,.F.);
#1116 = EDGE_CURVE('',#332,#301,#1117,.T.);
#1117 = LINE('',#1118,#1119);
#1118 = CARTESIAN_POINT('',(-8.425601,-44.999682,6.5));
#1119 = VECTOR('',#1120,1.);
#1120 = DIRECTION('',(6.730369402342E-16,0.707106781187,0.707106781187)
  );
#1121 = ORIENTED_EDGE('',*,*,#331,.T.);
#1122 = ORIENTED_EDGE('',*,*,#300,.F.);
#1123 = PLANE('',#1124);
#1124 = AXIS2_PLACEMENT_3D('',#1125,#1126,#1127);
#1125 = CARTESIAN_POINT('',(-8.425601,-45.499682,6.));
#1126 = DIRECTION('',(0.57735026919,0.57735026919,-0.57735026919));
#1127 = DIRECTION('',(-0.707106781187,-5.551115123126E-17,
    -0.707106781187));
#1128 = ADVANCED_FACE('',(#1129),#1154,.F.);
#1129 = FACE_BOUND('',#1130,.F.);
#1130 = EDGE_LOOP('',(#1131,#1141,#1147,#1148));
#1131 = ORIENTED_EDGE('',*,*,#1132,.T.);
#1132 = EDGE_CURVE('',#1133,#1135,#1137,.T.);
#1133 = VERTEX_POINT('',#1134);
#1134 = CARTESIAN_POINT('',(7.574399,-45.499682,6.));
#1135 = VERTEX_POINT('',#1136);
#1136 = CARTESIAN_POINT('',(7.574399,-45.499682,-6.));
#1137 = LINE('',#1138,#1139);
#1138 = CARTESIAN_POINT('',(7.574399,-45.499682,8.));
#1139 = VECTOR('',#1140,1.);
#1140 = DIRECTION('',(0.,0.,-1.));
#1141 = ORIENTED_EDGE('',*,*,#1142,.T.);
#1142 = EDGE_CURVE('',#1135,#323,#1143,.T.);
#1143 = LINE('',#1144,#1145);
#1144 = CARTESIAN_POINT('',(9.574399,-45.499682,-6.));
#1145 = VECTOR('',#1146,1.);
#1146 = DIRECTION('',(-1.,0.,0.));
#1147 = ORIENTED_EDGE('',*,*,#339,.T.);
#1148 = ORIENTED_EDGE('',*,*,#1149,.T.);
#1149 = EDGE_CURVE('',#332,#1133,#1150,.T.);
#1150 = LINE('',#1151,#1152);
#1151 = CARTESIAN_POINT('',(-10.425601,-45.499682,6.));
#1152 = VECTOR('',#1153,1.);
#1153 = DIRECTION('',(1.,0.,0.));
#1154 = PLANE('',#1155);
#1155 = AXIS2_PLACEMENT_3D('',#1156,#1157,#1158);
#1156 = CARTESIAN_POINT('',(-0.425601,-45.499682,2.1E-14));
#1157 = DIRECTION('',(0.,1.,0.));
#1158 = DIRECTION('',(0.,0.,1.));
#1159 = ADVANCED_FACE('',(#1160),#1171,.F.);
#1160 = FACE_BOUND('',#1161,.F.);
#1161 = EDGE_LOOP('',(#1162,#1168,#1169,#1170));
#1162 = ORIENTED_EDGE('',*,*,#1163,.T.);
#1163 = EDGE_CURVE('',#1135,#355,#1164,.T.);
#1164 = LINE('',#1165,#1166);
#1165 = CARTESIAN_POINT('',(7.574399,-44.999682,-6.5));
#1166 = VECTOR('',#1167,1.);
#1167 = DIRECTION('',(9.614813431918E-16,0.707106781187,-0.707106781187)
  );
#1168 = ORIENTED_EDGE('',*,*,#362,.T.);
#1169 = ORIENTED_EDGE('',*,*,#1101,.F.);
#1170 = ORIENTED_EDGE('',*,*,#1142,.F.);
#1171 = PLANE('',#1172);
#1172 = AXIS2_PLACEMENT_3D('',#1173,#1174,#1175);
#1173 = CARTESIAN_POINT('',(9.574399,-44.499682,-7.));
#1174 = DIRECTION('',(0.,0.707106781187,0.707106781187));
#1175 = DIRECTION('',(-1.,0.,0.));
#1176 = ADVANCED_FACE('',(#1177),#1188,.F.);
#1177 = FACE_BOUND('',#1178,.F.);
#1178 = EDGE_LOOP('',(#1179,#1180,#1181,#1187));
#1179 = ORIENTED_EDGE('',*,*,#1116,.T.);
#1180 = ORIENTED_EDGE('',*,*,#379,.T.);
#1181 = ORIENTED_EDGE('',*,*,#1182,.F.);
#1182 = EDGE_CURVE('',#1133,#380,#1183,.T.);
#1183 = LINE('',#1184,#1185);
#1184 = CARTESIAN_POINT('',(7.574399,-44.999682,6.5));
#1185 = VECTOR('',#1186,1.);
#1186 = DIRECTION('',(-2.499851492299E-15,0.707106781187,0.707106781187)
  );
#1187 = ORIENTED_EDGE('',*,*,#1149,.F.);
#1188 = PLANE('',#1189);
#1189 = AXIS2_PLACEMENT_3D('',#1190,#1191,#1192);
#1190 = CARTESIAN_POINT('',(-10.425601,-44.499682,7.));
#1191 = DIRECTION('',(0.,0.707106781187,-0.707106781187));
#1192 = DIRECTION('',(1.,0.,0.));
#1193 = ADVANCED_FACE('',(#1194),#1204,.T.);
#1194 = FACE_BOUND('',#1195,.T.);
#1195 = EDGE_LOOP('',(#1196,#1202,#1203));
#1196 = ORIENTED_EDGE('',*,*,#1197,.F.);
#1197 = EDGE_CURVE('',#1135,#404,#1198,.T.);
#1198 = LINE('',#1199,#1200);
#1199 = CARTESIAN_POINT('',(8.074399,-44.999682,-6.));
#1200 = VECTOR('',#1201,1.);
#1201 = DIRECTION('',(0.707106781187,0.707106781187,-5.768888059151E-16)
  );
#1202 = ORIENTED_EDGE('',*,*,#1163,.T.);
#1203 = ORIENTED_EDGE('',*,*,#403,.F.);
#1204 = PLANE('',#1205);
#1205 = AXIS2_PLACEMENT_3D('',#1206,#1207,#1208);
#1206 = CARTESIAN_POINT('',(7.574399,-45.499682,-6.));
#1207 = DIRECTION('',(0.57735026919,-0.57735026919,-0.57735026919));
#1208 = DIRECTION('',(-0.707106781187,0.,-0.707106781187));
#1209 = ADVANCED_FACE('',(#1210),#1220,.F.);
#1210 = FACE_BOUND('',#1211,.F.);
#1211 = EDGE_LOOP('',(#1212,#1218,#1219));
#1212 = ORIENTED_EDGE('',*,*,#1213,.F.);
#1213 = EDGE_CURVE('',#1133,#428,#1214,.T.);
#1214 = LINE('',#1215,#1216);
#1215 = CARTESIAN_POINT('',(8.074399,-44.999682,6.));
#1216 = VECTOR('',#1217,1.);
#1217 = DIRECTION('',(0.707106781187,0.707106781187,-2.211407089341E-15)
  );
#1218 = ORIENTED_EDGE('',*,*,#1182,.T.);
#1219 = ORIENTED_EDGE('',*,*,#427,.F.);
#1220 = PLANE('',#1221);
#1221 = AXIS2_PLACEMENT_3D('',#1222,#1223,#1224);
#1222 = CARTESIAN_POINT('',(7.574399,-45.499682,6.));
#1223 = DIRECTION('',(-0.57735026919,0.57735026919,-0.57735026919));
#1224 = DIRECTION('',(-0.707106781187,-5.551115123126E-17,0.707106781187
    ));
#1225 = ADVANCED_FACE('',(#1226),#1232,.F.);
#1226 = FACE_BOUND('',#1227,.T.);
#1227 = EDGE_LOOP('',(#1228,#1229,#1230,#1231));
#1228 = ORIENTED_EDGE('',*,*,#1213,.F.);
#1229 = ORIENTED_EDGE('',*,*,#1132,.T.);
#1230 = ORIENTED_EDGE('',*,*,#1197,.T.);
#1231 = ORIENTED_EDGE('',*,*,#451,.F.);
#1232 = PLANE('',#1233);
#1233 = AXIS2_PLACEMENT_3D('',#1234,#1235,#1236);
#1234 = CARTESIAN_POINT('',(8.574399,-44.499682,8.));
#1235 = DIRECTION('',(-0.707106781187,0.707106781187,0.));
#1236 = DIRECTION('',(-0.,-0.,1.));
#1237 = ADVANCED_FACE('',(#1238),#1256,.T.);
#1238 = FACE_BOUND('',#1239,.T.);
#1239 = EDGE_LOOP('',(#1240,#1241,#1247,#1248,#1249,#1255));
#1240 = ORIENTED_EDGE('',*,*,#1085,.F.);
#1241 = ORIENTED_EDGE('',*,*,#1242,.T.);
#1242 = EDGE_CURVE('',#1078,#589,#1243,.T.);
#1243 = LINE('',#1244,#1245);
#1244 = CARTESIAN_POINT('',(-4.860220313565,0.523813409546,6.));
#1245 = VECTOR('',#1246,1.);
#1246 = DIRECTION('',(-0.,-0.,-1.));
#1247 = ORIENTED_EDGE('',*,*,#596,.T.);
#1248 = ORIENTED_EDGE('',*,*,#565,.T.);
#1249 = ORIENTED_EDGE('',*,*,#1250,.F.);
#1250 = EDGE_CURVE('',#493,#558,#1251,.T.);
#1251 = LINE('',#1252,#1253);
#1252 = CARTESIAN_POINT('',(-9.36589,40.231372845699,6.));
#1253 = VECTOR('',#1254,1.);
#1254 = DIRECTION('',(-0.,-0.,-1.));
#1255 = ORIENTED_EDGE('',*,*,#500,.F.);
#1256 = PLANE('',#1257);
#1257 = AXIS2_PLACEMENT_3D('',#1258,#1259,#1260);
#1258 = CARTESIAN_POINT('',(-4.860220313565,0.523813409546,6.));
#1259 = DIRECTION('',(0.993623637984,0.112747798378,0.));
#1260 = DIRECTION('',(-0.112747798378,0.993623637984,0.));
#1261 = ADVANCED_FACE('',(#1262),#1273,.T.);
#1262 = FACE_BOUND('',#1263,.T.);
#1263 = EDGE_LOOP('',(#1264,#1265,#1266,#1272));
#1264 = ORIENTED_EDGE('',*,*,#1250,.T.);
#1265 = ORIENTED_EDGE('',*,*,#557,.T.);
#1266 = ORIENTED_EDGE('',*,*,#1267,.F.);
#1267 = EDGE_CURVE('',#484,#549,#1268,.T.);
#1268 = LINE('',#1269,#1270);
#1269 = CARTESIAN_POINT('',(-9.36589,45.784740567761,6.));
#1270 = VECTOR('',#1271,1.);
#1271 = DIRECTION('',(-0.,-0.,-1.));
#1272 = ORIENTED_EDGE('',*,*,#492,.F.);
#1273 = PLANE('',#1274);
#1274 = AXIS2_PLACEMENT_3D('',#1275,#1276,#1277);
#1275 = CARTESIAN_POINT('',(-9.36589,40.231372845699,6.));
#1276 = DIRECTION('',(1.,0.,0.));
#1277 = DIRECTION('',(0.,1.,0.));
#1278 = ADVANCED_FACE('',(#1279),#1285,.T.);
#1279 = FACE_BOUND('',#1280,.T.);
#1280 = EDGE_LOOP('',(#1281,#1282,#1283,#1284));
#1281 = ORIENTED_EDGE('',*,*,#1267,.T.);
#1282 = ORIENTED_EDGE('',*,*,#548,.T.);
#1283 = ORIENTED_EDGE('',*,*,#514,.F.);
#1284 = ORIENTED_EDGE('',*,*,#483,.F.);
#1285 = CYLINDRICAL_SURFACE('',#1286,2.);
#1286 = AXIS2_PLACEMENT_3D('',#1287,#1288,#1289);
#1287 = CARTESIAN_POINT('',(-9.36589,47.784740567761,6.));
#1288 = DIRECTION('',(0.,0.,1.));
#1289 = DIRECTION('',(1.,0.,0.));
#1290 = ADVANCED_FACE('',(#1291),#1308,.T.);
#1291 = FACE_BOUND('',#1292,.T.);
#1292 = EDGE_LOOP('',(#1293,#1294,#1300,#1301,#1302,#1303,#1304,#1305,
    #1306,#1307));
#1293 = ORIENTED_EDGE('',*,*,#996,.F.);
#1294 = ORIENTED_EDGE('',*,*,#1295,.T.);
#1295 = EDGE_CURVE('',#997,#688,#1296,.T.);
#1296 = LINE('',#1297,#1298);
#1297 = CARTESIAN_POINT('',(2.635948679719,-29.81019138553,6.));
#1298 = VECTOR('',#1299,1.);
#1299 = DIRECTION('',(-0.,-0.,-1.));
#1300 = ORIENTED_EDGE('',*,*,#687,.T.);
#1301 = ORIENTED_EDGE('',*,*,#645,.T.);
#1302 = ORIENTED_EDGE('',*,*,#613,.F.);
#1303 = ORIENTED_EDGE('',*,*,#588,.T.);
#1304 = ORIENTED_EDGE('',*,*,#1242,.F.);
#1305 = ORIENTED_EDGE('',*,*,#1077,.F.);
#1306 = ORIENTED_EDGE('',*,*,#1052,.F.);
#1307 = ORIENTED_EDGE('',*,*,#1028,.F.);
#1308 = PLANE('',#1309);
#1309 = AXIS2_PLACEMENT_3D('',#1310,#1311,#1312);
#1310 = CARTESIAN_POINT('',(2.635948679719,-29.81019138553,6.));
#1311 = DIRECTION('',(0.970796567378,0.239904199143,0.));
#1312 = DIRECTION('',(-0.239904199143,0.970796567378,0.));
#1313 = ADVANCED_FACE('',(#1314),#1324,.T.);
#1314 = FACE_BOUND('',#1315,.T.);
#1315 = EDGE_LOOP('',(#1316,#1317,#1318));
#1316 = ORIENTED_EDGE('',*,*,#727,.T.);
#1317 = ORIENTED_EDGE('',*,*,#703,.T.);
#1318 = ORIENTED_EDGE('',*,*,#1319,.F.);
#1319 = EDGE_CURVE('',#728,#696,#1320,.T.);
#1320 = LINE('',#1321,#1322);
#1321 = CARTESIAN_POINT('',(6.655535315402,-40.12870028627,6.));
#1322 = VECTOR('',#1323,1.);
#1323 = DIRECTION('',(-0.,-0.,-1.));
#1324 = PLANE('',#1325);
#1325 = AXIS2_PLACEMENT_3D('',#1326,#1327,#1328);
#1326 = CARTESIAN_POINT('',(8.514688,-40.12870028627,6.));
#1327 = DIRECTION('',(0.,1.,0.));
#1328 = DIRECTION('',(-1.,0.,0.));
#1329 = ADVANCED_FACE('',(#1330),#1354,.T.);
#1330 = FACE_BOUND('',#1331,.T.);
#1331 = EDGE_LOOP('',(#1332,#1333,#1339,#1340,#1341,#1342,#1348,#1349,
    #1350,#1351,#1352,#1353));
#1332 = ORIENTED_EDGE('',*,*,#1004,.F.);
#1333 = ORIENTED_EDGE('',*,*,#1334,.T.);
#1334 = EDGE_CURVE('',#1005,#956,#1335,.T.);
#1335 = LINE('',#1336,#1337);
#1336 = CARTESIAN_POINT('',(6.655535315402,-40.12870028627,6.));
#1337 = VECTOR('',#1338,1.);
#1338 = DIRECTION('',(-0.,-0.,-1.));
#1339 = ORIENTED_EDGE('',*,*,#963,.T.);
#1340 = ORIENTED_EDGE('',*,*,#906,.F.);
#1341 = ORIENTED_EDGE('',*,*,#864,.T.);
#1342 = ORIENTED_EDGE('',*,*,#1343,.T.);
#1343 = EDGE_CURVE('',#865,#785,#1344,.T.);
#1344 = LINE('',#1345,#1346);
#1345 = CARTESIAN_POINT('',(6.655535315402,-40.12870028627,6.));
#1346 = VECTOR('',#1347,1.);
#1347 = DIRECTION('',(-0.,-0.,-1.));
#1348 = ORIENTED_EDGE('',*,*,#784,.F.);
#1349 = ORIENTED_EDGE('',*,*,#759,.F.);
#1350 = ORIENTED_EDGE('',*,*,#735,.F.);
#1351 = ORIENTED_EDGE('',*,*,#1319,.T.);
#1352 = ORIENTED_EDGE('',*,*,#695,.T.);
#1353 = ORIENTED_EDGE('',*,*,#1295,.F.);
#1354 = PLANE('',#1355);
#1355 = AXIS2_PLACEMENT_3D('',#1356,#1357,#1358);
#1356 = CARTESIAN_POINT('',(6.655535315402,-40.12870028627,6.));
#1357 = DIRECTION('',(0.931796074017,0.362982198526,0.));
#1358 = DIRECTION('',(-0.362982198526,0.931796074017,0.));
#1359 = ADVANCED_FACE('',(#1360),#1364,.T.);
#1360 = FACE_BOUND('',#1361,.T.);
#1361 = EDGE_LOOP('',(#1362,#1363));
#1362 = ORIENTED_EDGE('',*,*,#719,.T.);
#1363 = ORIENTED_EDGE('',*,*,#670,.T.);
#1364 = CYLINDRICAL_SURFACE('',#1365,2.);
#1365 = AXIS2_PLACEMENT_3D('',#1366,#1367,#1368);
#1366 = CARTESIAN_POINT('',(8.514688,47.784740567761,6.));
#1367 = DIRECTION('',(0.,0.,1.));
#1368 = DIRECTION('',(1.,0.,0.));
#1369 = ADVANCED_FACE('',(#1370),#1381,.T.);
#1370 = FACE_BOUND('',#1371,.T.);
#1371 = EDGE_LOOP('',(#1372,#1373,#1374,#1375));
#1372 = ORIENTED_EDGE('',*,*,#888,.F.);
#1373 = ORIENTED_EDGE('',*,*,#841,.T.);
#1374 = ORIENTED_EDGE('',*,*,#808,.T.);
#1375 = ORIENTED_EDGE('',*,*,#1376,.F.);
#1376 = EDGE_CURVE('',#881,#801,#1377,.T.);
#1377 = LINE('',#1378,#1379);
#1378 = CARTESIAN_POINT('',(8.514688,45.784740567761,6.));
#1379 = VECTOR('',#1380,1.);
#1380 = DIRECTION('',(-0.,-0.,-1.));
#1381 = CYLINDRICAL_SURFACE('',#1382,2.);
#1382 = AXIS2_PLACEMENT_3D('',#1383,#1384,#1385);
#1383 = CARTESIAN_POINT('',(8.514688,47.784740567761,6.));
#1384 = DIRECTION('',(0.,0.,1.));
#1385 = DIRECTION('',(1.,0.,0.));
#1386 = ADVANCED_FACE('',(#1387),#1398,.T.);
#1387 = FACE_BOUND('',#1388,.T.);
#1388 = EDGE_LOOP('',(#1389,#1390,#1391,#1392));
#1389 = ORIENTED_EDGE('',*,*,#880,.F.);
#1390 = ORIENTED_EDGE('',*,*,#1376,.T.);
#1391 = ORIENTED_EDGE('',*,*,#800,.T.);
#1392 = ORIENTED_EDGE('',*,*,#1393,.F.);
#1393 = EDGE_CURVE('',#873,#793,#1394,.T.);
#1394 = LINE('',#1395,#1396);
#1395 = CARTESIAN_POINT('',(8.514688,-40.12870028627,6.));
#1396 = VECTOR('',#1397,1.);
#1397 = DIRECTION('',(-0.,-0.,-1.));
#1398 = PLANE('',#1399);
#1399 = AXIS2_PLACEMENT_3D('',#1400,#1401,#1402);
#1400 = CARTESIAN_POINT('',(8.514688,45.784740567761,6.));
#1401 = DIRECTION('',(-1.,0.,0.));
#1402 = DIRECTION('',(0.,-1.,0.));
#1403 = ADVANCED_FACE('',(#1404),#1410,.T.);
#1404 = FACE_BOUND('',#1405,.T.);
#1405 = EDGE_LOOP('',(#1406,#1407,#1408,#1409));
#1406 = ORIENTED_EDGE('',*,*,#872,.F.);
#1407 = ORIENTED_EDGE('',*,*,#1393,.T.);
#1408 = ORIENTED_EDGE('',*,*,#792,.T.);
#1409 = ORIENTED_EDGE('',*,*,#1343,.F.);
#1410 = PLANE('',#1411);
#1411 = AXIS2_PLACEMENT_3D('',#1412,#1413,#1414);
#1412 = CARTESIAN_POINT('',(8.514688,-40.12870028627,6.));
#1413 = DIRECTION('',(0.,1.,0.));
#1414 = DIRECTION('',(-1.,0.,0.));
#1415 = ADVANCED_FACE('',(#1416),#1421,.T.);
#1416 = FACE_BOUND('',#1417,.T.);
#1417 = EDGE_LOOP('',(#1418,#1419,#1420));
#1418 = ORIENTED_EDGE('',*,*,#1012,.F.);
#1419 = ORIENTED_EDGE('',*,*,#955,.F.);
#1420 = ORIENTED_EDGE('',*,*,#1334,.F.);
#1421 = PLANE('',#1422);
#1422 = AXIS2_PLACEMENT_3D('',#1423,#1424,#1425);
#1423 = CARTESIAN_POINT('',(8.514688,-40.12870028627,6.));
#1424 = DIRECTION('',(0.,1.,0.));
#1425 = DIRECTION('',(-1.,0.,0.));
#1426 = ADVANCED_FACE('',(#1427),#1431,.T.);
#1427 = FACE_BOUND('',#1428,.T.);
#1428 = EDGE_LOOP('',(#1429,#1430));
#1429 = ORIENTED_EDGE('',*,*,#979,.F.);
#1430 = ORIENTED_EDGE('',*,*,#938,.F.);
#1431 = CYLINDRICAL_SURFACE('',#1432,2.);
#1432 = AXIS2_PLACEMENT_3D('',#1433,#1434,#1435);
#1433 = CARTESIAN_POINT('',(8.514688,47.784740567761,6.));
#1434 = DIRECTION('',(0.,0.,1.));
#1435 = DIRECTION('',(1.,0.,0.));
#1436 = ( GEOMETRIC_REPRESENTATION_CONTEXT(3) 
GLOBAL_UNCERTAINTY_ASSIGNED_CONTEXT((#1440)) 
GLOBAL_UNIT_ASSIGNED_CONTEXT((#1437,#1438,#1439)) REPRESENTATION_CONTEXT
('Context #1','3D Context with UNIT and UNCERTAINTY') );
#1437 = ( LENGTH_UNIT() NAMED_UNIT(*) SI_UNIT(.MILLI.,.METRE.) );
#1438 = ( NAMED_UNIT(*) PLANE_ANGLE_UNIT() SI_UNIT($,.RADIAN.) );
#1439 = ( NAMED_UNIT(*) SI_UNIT($,.STERADIAN.) SOLID_ANGLE_UNIT() );
#1440 = UNCERTAINTY_MEASURE_WITH_UNIT(LENGTH_MEASURE(1.E-05),#1437,
  'distance_accuracy_value','confusion accuracy');
#1441 = PRODUCT_RELATED_PRODUCT_CATEGORY('part',$,(#7));
#1442 = MECHANICAL_DESIGN_GEOMETRIC_PRESENTATION_REPRESENTATION('',(
    #1443),#1436);
#1443 = STYLED_ITEM('color',(#1444),#15);
#1444 = PRESENTATION_STYLE_ASSIGNMENT((#1445,#1453));
#1445 = SURFACE_STYLE_USAGE(.BOTH.,#1446);
#1446 = SURFACE_SIDE_STYLE('',(#1447,#1451));
#1447 = SURFACE_STYLE_FILL_AREA(#1448);
#1448 = FILL_AREA_STYLE('',(#1449));
#1449 = FILL_AREA_STYLE_COLOUR('',#1450);
#1450 = COLOUR_RGB('',7.450980588415E-02,0.615686309239,
  7.450980588415E-02);
#1451 = SURFACE_STYLE_RENDERING_WITH_PROPERTIES(.NORMAL_SHADING.,#1450,(
    #1452));
#1452 = SURFACE_STYLE_TRANSPARENT(0.300000011921);
#1453 = CURVE_STYLE('',#1454,POSITIVE_LENGTH_MEASURE(0.1),#1455);
#1454 = DRAUGHTING_PRE_DEFINED_CURVE_FONT('continuous');
#1455 = COLOUR_RGB('',0.784313732475,0.784313732475,0.784313732475);
ENDSEC;
END-ISO-10303-21;
