ISO-10303-21;
HEADER;
FILE_DESCRIPTION(('FreeCAD Model'),'2;1');
FILE_NAME('Open CASCADE Shape Model','2026-07-15T15:30:55',(''),(''),
  'Open CASCADE STEP processor 7.8','FreeCAD','Unknown');
FILE_SCHEMA((
'AP242_MANAGED_MODEL_BASED_3D_ENGINEERING_MIM_LF. {1 0 10303 442 1 1 4 
}'));
ENDSEC;
DATA;
#1 = APPLICATION_PROTOCOL_DEFINITION('international standard',
  'ap242_managed_model_based_3d_engineering',2013,#2);
#2 = APPLICATION_CONTEXT('Managed model based 3d engineering');
#3 = SHAPE_DEFINITION_REPRESENTATION(#4,#10);
#4 = PRODUCT_DEFINITION_SHAPE('','',#5);
#5 = PRODUCT_DEFINITION('design','',#6,#9);
#6 = PRODUCT_DEFINITION_FORMATION('','',#7);
#7 = PRODUCT('sheath','sheath','',(#8));
#8 = PRODUCT_CONTEXT('',#2,'mechanical');
#9 = PRODUCT_DEFINITION_CONTEXT('part definition',#2,'design');
#10 = ADVANCED_BREP_SHAPE_REPRESENTATION('',(#11,#15),#1433);
#11 = AXIS2_PLACEMENT_3D('',#12,#13,#14);
#12 = CARTESIAN_POINT('',(0.,0.,0.));
#13 = DIRECTION('',(0.,0.,1.));
#14 = DIRECTION('',(1.,0.,-0.));
#15 = MANIFOLD_SOLID_BREP('',#16);
#16 = CLOSED_SHELL('',(#17,#57,#326,#350,#398,#422,#446,#470,#494,#518,
    #542,#566,#590,#612,#629,#641,#672,#696,#728,#752,#777,#801,#825,
    #849,#889,#921,#953,#978,#1012,#1036,#1060,#1100,#1124,#1156,#1180,
    #1207,#1223,#1254,#1270,#1287,#1308,#1320,#1341,#1364,#1380,#1408,
    #1422));
#17 = ADVANCED_FACE('',(#18),#52,.T.);
#18 = FACE_BOUND('',#19,.T.);
#19 = EDGE_LOOP('',(#20,#30,#38,#46));
#20 = ORIENTED_EDGE('',*,*,#21,.F.);
#21 = EDGE_CURVE('',#22,#24,#26,.T.);
#22 = VERTEX_POINT('',#23);
#23 = CARTESIAN_POINT('',(-11.425601,50.500318,-6.));
#24 = VERTEX_POINT('',#25);
#25 = CARTESIAN_POINT('',(-11.425601,50.500318,-0.499999999991));
#26 = LINE('',#27,#28);
#27 = CARTESIAN_POINT('',(-11.425601,50.500318,-8.));
#28 = VECTOR('',#29,1.);
#29 = DIRECTION('',(0.,2.22044604925E-16,1.));
#30 = ORIENTED_EDGE('',*,*,#31,.T.);
#31 = EDGE_CURVE('',#22,#32,#34,.T.);
#32 = VERTEX_POINT('',#33);
#33 = CARTESIAN_POINT('',(-11.425601,-43.499682,-6.));
#34 = LINE('',#35,#36);
#35 = CARTESIAN_POINT('',(-11.425601,50.500318,-6.));
#36 = VECTOR('',#37,1.);
#37 = DIRECTION('',(0.,-1.,2.22044604925E-16));
#38 = ORIENTED_EDGE('',*,*,#39,.T.);
#39 = EDGE_CURVE('',#32,#40,#42,.T.);
#40 = VERTEX_POINT('',#41);
#41 = CARTESIAN_POINT('',(-11.425601,-43.499682,-0.499999999991));
#42 = LINE('',#43,#44);
#43 = CARTESIAN_POINT('',(-11.425601,-43.499682,-8.));
#44 = VECTOR('',#45,1.);
#45 = DIRECTION('',(0.,2.22044604925E-16,1.));
#46 = ORIENTED_EDGE('',*,*,#47,.F.);
#47 = EDGE_CURVE('',#24,#40,#48,.T.);
#48 = LINE('',#49,#50);
#49 = CARTESIAN_POINT('',(-11.425601,50.500318,-0.499999999991));
#50 = VECTOR('',#51,1.);
#51 = DIRECTION('',(0.,-1.,2.22044604925E-16));
#52 = PLANE('',#53);
#53 = AXIS2_PLACEMENT_3D('',#54,#55,#56);
#54 = CARTESIAN_POINT('',(-11.425601,50.500318,-8.));
#55 = DIRECTION('',(-1.,0.,0.));
#56 = DIRECTION('',(0.,2.22044604925E-16,1.));
#57 = ADVANCED_FACE('',(#58,#155),#321,.T.);
#58 = FACE_BOUND('',#59,.T.);
#59 = EDGE_LOOP('',(#60,#68,#69,#77,#85,#93,#101,#109,#117,#125,#133,
    #141,#149));
#60 = ORIENTED_EDGE('',*,*,#61,.F.);
#61 = EDGE_CURVE('',#22,#62,#64,.T.);
#62 = VERTEX_POINT('',#63);
#63 = CARTESIAN_POINT('',(-9.425601,50.500318,-8.));
#64 = LINE('',#65,#66);
#65 = CARTESIAN_POINT('',(-9.675601,50.500318,-7.75));
#66 = VECTOR('',#67,1.);
#67 = DIRECTION('',(0.707106781187,0.,-0.707106781187));
#68 = ORIENTED_EDGE('',*,*,#21,.T.);
#69 = ORIENTED_EDGE('',*,*,#70,.F.);
#70 = EDGE_CURVE('',#71,#24,#73,.T.);
#71 = VERTEX_POINT('',#72);
#72 = CARTESIAN_POINT('',(-10.925601,50.500318,0.));
#73 = LINE('',#74,#75);
#74 = CARTESIAN_POINT('',(-10.925601,50.500318,0.));
#75 = VECTOR('',#76,1.);
#76 = DIRECTION('',(-0.707106781193,-1.57009245867E-16,-0.70710678118));
#77 = ORIENTED_EDGE('',*,*,#78,.F.);
#78 = EDGE_CURVE('',#79,#71,#81,.T.);
#79 = VERTEX_POINT('',#80);
#80 = CARTESIAN_POINT('',(-11.425601,50.500318,0.5));
#81 = LINE('',#82,#83);
#82 = CARTESIAN_POINT('',(-11.425601,50.500318,0.5));
#83 = VECTOR('',#84,1.);
#84 = DIRECTION('',(0.707106781187,-1.570092458684E-16,-0.707106781187)
  );
#85 = ORIENTED_EDGE('',*,*,#86,.T.);
#86 = EDGE_CURVE('',#79,#87,#89,.T.);
#87 = VERTEX_POINT('',#88);
#88 = CARTESIAN_POINT('',(-11.425601,50.500318,6.));
#89 = LINE('',#90,#91);
#90 = CARTESIAN_POINT('',(-11.425601,50.500318,-8.));
#91 = VECTOR('',#92,1.);
#92 = DIRECTION('',(0.,2.22044604925E-16,1.));
#93 = ORIENTED_EDGE('',*,*,#94,.T.);
#94 = EDGE_CURVE('',#87,#95,#97,.T.);
#95 = VERTEX_POINT('',#96);
#96 = CARTESIAN_POINT('',(-9.425601,50.500318,8.));
#97 = LINE('',#98,#99);
#98 = CARTESIAN_POINT('',(-9.675601,50.500318,7.75));
#99 = VECTOR('',#100,1.);
#100 = DIRECTION('',(0.707106781187,0.,0.707106781187));
#101 = ORIENTED_EDGE('',*,*,#102,.T.);
#102 = EDGE_CURVE('',#95,#103,#105,.T.);
#103 = VERTEX_POINT('',#104);
#104 = CARTESIAN_POINT('',(10.574399,50.500318,8.));
#105 = LINE('',#106,#107);
#106 = CARTESIAN_POINT('',(-11.425601,50.500318,8.));
#107 = VECTOR('',#108,1.);
#108 = DIRECTION('',(1.,0.,0.));
#109 = ORIENTED_EDGE('',*,*,#110,.T.);
#110 = EDGE_CURVE('',#103,#111,#113,.T.);
#111 = VERTEX_POINT('',#112);
#112 = CARTESIAN_POINT('',(10.574399,50.500318,2.5));
#113 = LINE('',#114,#115);
#114 = CARTESIAN_POINT('',(10.574399,50.500318,8.));
#115 = VECTOR('',#116,1.);
#116 = DIRECTION('',(0.,-2.22044604925E-16,-1.));
#117 = ORIENTED_EDGE('',*,*,#118,.F.);
#118 = EDGE_CURVE('',#119,#111,#121,.T.);
#119 = VERTEX_POINT('',#120);
#120 = CARTESIAN_POINT('',(10.074399,50.500318,2.5));
#121 = LINE('',#122,#123);
#122 = CARTESIAN_POINT('',(10.074399,50.500318,2.5));
#123 = VECTOR('',#124,1.);
#124 = DIRECTION('',(1.,0.,0.));
#125 = ORIENTED_EDGE('',*,*,#126,.F.);
#126 = EDGE_CURVE('',#127,#119,#129,.T.);
#127 = VERTEX_POINT('',#128);
#128 = CARTESIAN_POINT('',(10.074399,50.500318,-2.5));
#129 = LINE('',#130,#131);
#130 = CARTESIAN_POINT('',(10.074399,50.500318,-2.5));
#131 = VECTOR('',#132,1.);
#132 = DIRECTION('',(0.,2.22044604925E-16,1.));
#133 = ORIENTED_EDGE('',*,*,#134,.F.);
#134 = EDGE_CURVE('',#135,#127,#137,.T.);
#135 = VERTEX_POINT('',#136);
#136 = CARTESIAN_POINT('',(10.574399,50.500318,-2.5));
#137 = LINE('',#138,#139);
#138 = CARTESIAN_POINT('',(10.574399,50.500318,-2.5));
#139 = VECTOR('',#140,1.);
#140 = DIRECTION('',(-1.,0.,0.));
#141 = ORIENTED_EDGE('',*,*,#142,.T.);
#142 = EDGE_CURVE('',#135,#143,#145,.T.);
#143 = VERTEX_POINT('',#144);
#144 = CARTESIAN_POINT('',(10.574399,50.500318,-8.));
#145 = LINE('',#146,#147);
#146 = CARTESIAN_POINT('',(10.574399,50.500318,8.));
#147 = VECTOR('',#148,1.);
#148 = DIRECTION('',(0.,-2.22044604925E-16,-1.));
#149 = ORIENTED_EDGE('',*,*,#150,.T.);
#150 = EDGE_CURVE('',#143,#62,#151,.T.);
#151 = LINE('',#152,#153);
#152 = CARTESIAN_POINT('',(10.574399,50.500318,-8.));
#153 = VECTOR('',#154,1.);
#154 = DIRECTION('',(-1.,0.,0.));
#155 = FACE_BOUND('',#156,.T.);
#156 = EDGE_LOOP('',(#157,#167,#175,#183,#191,#199,#207,#216,#224,#232,
    #240,#249,#257,#265,#273,#282,#290,#298,#306,#315));
#157 = ORIENTED_EDGE('',*,*,#158,.F.);
#158 = EDGE_CURVE('',#159,#161,#163,.T.);
#159 = VERTEX_POINT('',#160);
#160 = CARTESIAN_POINT('',(-7.36589,50.500318,6.));
#161 = VERTEX_POINT('',#162);
#162 = CARTESIAN_POINT('',(-6.557276588413,50.500318,6.));
#163 = LINE('',#164,#165);
#164 = CARTESIAN_POINT('',(-9.36589,50.500318,6.));
#165 = VECTOR('',#166,1.);
#166 = DIRECTION('',(1.,0.,0.));
#167 = ORIENTED_EDGE('',*,*,#168,.T.);
#168 = EDGE_CURVE('',#159,#169,#171,.T.);
#169 = VERTEX_POINT('',#170);
#170 = CARTESIAN_POINT('',(-9.36589,50.500318,4.));
#171 = LINE('',#172,#173);
#172 = CARTESIAN_POINT('',(-7.63081775,50.500318,5.73507225));
#173 = VECTOR('',#174,1.);
#174 = DIRECTION('',(-0.707106781187,0.,-0.707106781187));
#175 = ORIENTED_EDGE('',*,*,#176,.T.);
#176 = EDGE_CURVE('',#169,#177,#179,.T.);
#177 = VERTEX_POINT('',#178);
#178 = CARTESIAN_POINT('',(-9.36589,50.500318,-4.));
#179 = LINE('',#180,#181);
#180 = CARTESIAN_POINT('',(-9.36589,50.500318,6.));
#181 = VECTOR('',#182,1.);
#182 = DIRECTION('',(-0.,-0.,-1.));
#183 = ORIENTED_EDGE('',*,*,#184,.T.);
#184 = EDGE_CURVE('',#177,#185,#187,.T.);
#185 = VERTEX_POINT('',#186);
#186 = CARTESIAN_POINT('',(-7.36589,50.500318,-6.));
#187 = LINE('',#188,#189);
#188 = CARTESIAN_POINT('',(-7.63081775,50.500318,-5.73507225));
#189 = VECTOR('',#190,1.);
#190 = DIRECTION('',(0.707106781187,0.,-0.707106781187));
#191 = ORIENTED_EDGE('',*,*,#192,.T.);
#192 = EDGE_CURVE('',#185,#193,#195,.T.);
#193 = VERTEX_POINT('',#194);
#194 = CARTESIAN_POINT('',(-6.557276588413,50.500318,-6.));
#195 = LINE('',#196,#197);
#196 = CARTESIAN_POINT('',(-9.36589,50.500318,-6.));
#197 = VECTOR('',#198,1.);
#198 = DIRECTION('',(1.,0.,0.));
#199 = ORIENTED_EDGE('',*,*,#200,.F.);
#200 = EDGE_CURVE('',#201,#193,#203,.T.);
#201 = VERTEX_POINT('',#202);
#202 = CARTESIAN_POINT('',(-1.360220313565,50.500318,-0.802943725152));
#203 = LINE('',#204,#205);
#204 = CARTESIAN_POINT('',(-1.360220313565,50.500318,-0.802943725152));
#205 = VECTOR('',#206,1.);
#206 = DIRECTION('',(-0.707106781187,-1.570092458684E-16,-0.707106781187
    ));
#207 = ORIENTED_EDGE('',*,*,#208,.T.);
#208 = EDGE_CURVE('',#201,#209,#211,.T.);
#209 = VERTEX_POINT('',#210);
#210 = CARTESIAN_POINT('',(0.336835961282,50.500318,-2.5));
#211 = CIRCLE('',#212,1.2);
#212 = AXIS2_PLACEMENT_3D('',#213,#214,#215);
#213 = CARTESIAN_POINT('',(-0.511692176142,50.500318,-1.651471862576));
#214 = DIRECTION('',(0.,1.,-2.22044604925E-16));
#215 = DIRECTION('',(-1.,0.,0.));
#216 = ORIENTED_EDGE('',*,*,#217,.F.);
#217 = EDGE_CURVE('',#218,#209,#220,.T.);
#218 = VERTEX_POINT('',#219);
#219 = CARTESIAN_POINT('',(-3.163164038718,50.500318,-6.));
#220 = LINE('',#221,#222);
#221 = CARTESIAN_POINT('',(-3.163164038718,50.500318,-6.));
#222 = VECTOR('',#223,1.);
#223 = DIRECTION('',(0.707106781187,1.570092458684E-16,0.707106781187));
#224 = ORIENTED_EDGE('',*,*,#225,.T.);
#225 = EDGE_CURVE('',#218,#226,#228,.T.);
#226 = VERTEX_POINT('',#227);
#227 = CARTESIAN_POINT('',(6.817631725152,50.500318,-6.));
#228 = LINE('',#229,#230);
#229 = CARTESIAN_POINT('',(-9.36589,50.500318,-6.));
#230 = VECTOR('',#231,1.);
#231 = DIRECTION('',(1.,0.,0.));
#232 = ORIENTED_EDGE('',*,*,#233,.T.);
#233 = EDGE_CURVE('',#226,#234,#236,.T.);
#234 = VERTEX_POINT('',#235);
#235 = CARTESIAN_POINT('',(5.014688,50.500318,-4.197056274848));
#236 = LINE('',#237,#238);
#237 = CARTESIAN_POINT('',(6.817631725152,50.500318,-6.));
#238 = VECTOR('',#239,1.);
#239 = DIRECTION('',(-0.707106781187,1.570092458684E-16,0.707106781187)
  );
#240 = ORIENTED_EDGE('',*,*,#241,.T.);
#241 = EDGE_CURVE('',#234,#242,#244,.T.);
#242 = VERTEX_POINT('',#243);
#243 = CARTESIAN_POINT('',(6.711744274848,50.500318,-2.5));
#244 = CIRCLE('',#245,1.2);
#245 = AXIS2_PLACEMENT_3D('',#246,#247,#248);
#246 = CARTESIAN_POINT('',(5.863216594468,50.500318,-3.348528594468));
#247 = DIRECTION('',(0.,1.,-2.22044604925E-16));
#248 = DIRECTION('',(-1.,0.,0.));
#249 = ORIENTED_EDGE('',*,*,#250,.T.);
#250 = EDGE_CURVE('',#242,#251,#253,.T.);
#251 = VERTEX_POINT('',#252);
#252 = CARTESIAN_POINT('',(8.514688,50.500318,-4.302943725152));
#253 = LINE('',#254,#255);
#254 = CARTESIAN_POINT('',(6.711744274848,50.500318,-2.5));
#255 = VECTOR('',#256,1.);
#256 = DIRECTION('',(0.707106781187,-1.570092458684E-16,-0.707106781187)
  );
#257 = ORIENTED_EDGE('',*,*,#258,.F.);
#258 = EDGE_CURVE('',#259,#251,#261,.T.);
#259 = VERTEX_POINT('',#260);
#260 = CARTESIAN_POINT('',(8.514688,50.500318,4.302943725152));
#261 = LINE('',#262,#263);
#262 = CARTESIAN_POINT('',(8.514688,50.500318,6.));
#263 = VECTOR('',#264,1.);
#264 = DIRECTION('',(-0.,-0.,-1.));
#265 = ORIENTED_EDGE('',*,*,#266,.F.);
#266 = EDGE_CURVE('',#267,#259,#269,.T.);
#267 = VERTEX_POINT('',#268);
#268 = CARTESIAN_POINT('',(6.711744274848,50.500318,2.5));
#269 = LINE('',#270,#271);
#270 = CARTESIAN_POINT('',(6.711744274848,50.500318,2.5));
#271 = VECTOR('',#272,1.);
#272 = DIRECTION('',(0.707106781187,1.570092458684E-16,0.707106781187));
#273 = ORIENTED_EDGE('',*,*,#274,.T.);
#274 = EDGE_CURVE('',#267,#275,#277,.T.);
#275 = VERTEX_POINT('',#276);
#276 = CARTESIAN_POINT('',(5.014688,50.500318,4.197056274848));
#277 = CIRCLE('',#278,1.2);
#278 = AXIS2_PLACEMENT_3D('',#279,#280,#281);
#279 = CARTESIAN_POINT('',(5.863216137424,50.500318,3.348528137424));
#280 = DIRECTION('',(0.,1.,-2.22044604925E-16));
#281 = DIRECTION('',(-1.,0.,0.));
#282 = ORIENTED_EDGE('',*,*,#283,.F.);
#283 = EDGE_CURVE('',#284,#275,#286,.T.);
#284 = VERTEX_POINT('',#285);
#285 = CARTESIAN_POINT('',(6.817631725152,50.500318,6.));
#286 = LINE('',#287,#288);
#287 = CARTESIAN_POINT('',(6.817631725152,50.500318,6.));
#288 = VECTOR('',#289,1.);
#289 = DIRECTION('',(-0.707106781187,-1.570092458684E-16,-0.707106781187
    ));
#290 = ORIENTED_EDGE('',*,*,#291,.F.);
#291 = EDGE_CURVE('',#292,#284,#294,.T.);
#292 = VERTEX_POINT('',#293);
#293 = CARTESIAN_POINT('',(-3.163164038718,50.500318,6.));
#294 = LINE('',#295,#296);
#295 = CARTESIAN_POINT('',(-9.36589,50.500318,6.));
#296 = VECTOR('',#297,1.);
#297 = DIRECTION('',(1.,0.,0.));
#298 = ORIENTED_EDGE('',*,*,#299,.T.);
#299 = EDGE_CURVE('',#292,#300,#302,.T.);
#300 = VERTEX_POINT('',#301);
#301 = CARTESIAN_POINT('',(0.336835961282,50.500318,2.5));
#302 = LINE('',#303,#304);
#303 = CARTESIAN_POINT('',(-3.163164038718,50.500318,6.));
#304 = VECTOR('',#305,1.);
#305 = DIRECTION('',(0.707106781187,-1.570092458684E-16,-0.707106781187)
  );
#306 = ORIENTED_EDGE('',*,*,#307,.T.);
#307 = EDGE_CURVE('',#300,#308,#310,.T.);
#308 = VERTEX_POINT('',#309);
#309 = CARTESIAN_POINT('',(-1.360220313565,50.500318,0.802943725152));
#310 = CIRCLE('',#311,1.2);
#311 = AXIS2_PLACEMENT_3D('',#312,#313,#314);
#312 = CARTESIAN_POINT('',(-0.511692176142,50.500318,1.651471862576));
#313 = DIRECTION('',(0.,1.,-2.22044604925E-16));
#314 = DIRECTION('',(-1.,0.,0.));
#315 = ORIENTED_EDGE('',*,*,#316,.T.);
#316 = EDGE_CURVE('',#308,#161,#317,.T.);
#317 = LINE('',#318,#319);
#318 = CARTESIAN_POINT('',(-1.360220313565,50.500318,0.802943725152));
#319 = VECTOR('',#320,1.);
#320 = DIRECTION('',(-0.707106781187,1.570092458684E-16,0.707106781187)
  );
#321 = PLANE('',#322);
#322 = AXIS2_PLACEMENT_3D('',#323,#324,#325);
#323 = CARTESIAN_POINT('',(-0.425601,50.500318,0.));
#324 = DIRECTION('',(0.,1.,0.));
#325 = DIRECTION('',(0.,0.,1.));
#326 = ADVANCED_FACE('',(#327),#345,.F.);
#327 = FACE_BOUND('',#328,.F.);
#328 = EDGE_LOOP('',(#329,#330,#338,#344));
#329 = ORIENTED_EDGE('',*,*,#70,.F.);
#330 = ORIENTED_EDGE('',*,*,#331,.T.);
#331 = EDGE_CURVE('',#71,#332,#334,.T.);
#332 = VERTEX_POINT('',#333);
#333 = CARTESIAN_POINT('',(-10.925601,-43.999682,2.098321516542E-14));
#334 = LINE('',#335,#336);
#335 = CARTESIAN_POINT('',(-10.925601,50.500318,0.));
#336 = VECTOR('',#337,1.);
#337 = DIRECTION('',(0.,-1.,2.22044604925E-16));
#338 = ORIENTED_EDGE('',*,*,#339,.T.);
#339 = EDGE_CURVE('',#332,#40,#340,.T.);
#340 = LINE('',#341,#342);
#341 = CARTESIAN_POINT('',(-27.84226766684,-27.08301533315,
    -16.91666666654));
#342 = VECTOR('',#343,1.);
#343 = DIRECTION('',(-0.577350269193,0.577350269193,-0.577350269183));
#344 = ORIENTED_EDGE('',*,*,#47,.F.);
#345 = PLANE('',#346);
#346 = AXIS2_PLACEMENT_3D('',#347,#348,#349);
#347 = CARTESIAN_POINT('',(-10.925601,50.500318,0.));
#348 = DIRECTION('',(0.70710678118,-1.570092458698E-16,-0.707106781193)
  );
#349 = DIRECTION('',(-0.707106781193,-1.57009245867E-16,-0.70710678118)
  );
#350 = ADVANCED_FACE('',(#351),#393,.F.);
#351 = FACE_BOUND('',#352,.F.);
#352 = EDGE_LOOP('',(#353,#361,#362,#363,#371,#379,#387));
#353 = ORIENTED_EDGE('',*,*,#354,.T.);
#354 = EDGE_CURVE('',#355,#32,#357,.T.);
#355 = VERTEX_POINT('',#356);
#356 = CARTESIAN_POINT('',(-9.425601,-45.499682,-6.));
#357 = LINE('',#358,#359);
#358 = CARTESIAN_POINT('',(-10.425601,-44.499682,-6.));
#359 = VECTOR('',#360,1.);
#360 = DIRECTION('',(-0.707106781187,0.707106781187,-2.499851492299E-15)
  );
#361 = ORIENTED_EDGE('',*,*,#39,.T.);
#362 = ORIENTED_EDGE('',*,*,#339,.F.);
#363 = ORIENTED_EDGE('',*,*,#364,.F.);
#364 = EDGE_CURVE('',#365,#332,#367,.T.);
#365 = VERTEX_POINT('',#366);
#366 = CARTESIAN_POINT('',(-11.425601,-43.499682,0.5));
#367 = LINE('',#368,#369);
#368 = CARTESIAN_POINT('',(-25.34226766666,-29.58301533333,
    14.416666666667));
#369 = VECTOR('',#370,1.);
#370 = DIRECTION('',(0.57735026919,-0.57735026919,-0.57735026919));
#371 = ORIENTED_EDGE('',*,*,#372,.T.);
#372 = EDGE_CURVE('',#365,#373,#375,.T.);
#373 = VERTEX_POINT('',#374);
#374 = CARTESIAN_POINT('',(-11.425601,-43.499682,6.));
#375 = LINE('',#376,#377);
#376 = CARTESIAN_POINT('',(-11.425601,-43.499682,-8.));
#377 = VECTOR('',#378,1.);
#378 = DIRECTION('',(0.,2.22044604925E-16,1.));
#379 = ORIENTED_EDGE('',*,*,#380,.T.);
#380 = EDGE_CURVE('',#373,#381,#383,.T.);
#381 = VERTEX_POINT('',#382);
#382 = CARTESIAN_POINT('',(-9.425601,-45.499682,6.));
#383 = LINE('',#384,#385);
#384 = CARTESIAN_POINT('',(-10.925601,-43.999682,6.));
#385 = VECTOR('',#386,1.);
#386 = DIRECTION('',(0.707106781187,-0.707106781187,-9.614813431918E-16)
  );
#387 = ORIENTED_EDGE('',*,*,#388,.F.);
#388 = EDGE_CURVE('',#355,#381,#389,.T.);
#389 = LINE('',#390,#391);
#390 = CARTESIAN_POINT('',(-9.425601,-45.499682,-8.));
#391 = VECTOR('',#392,1.);
#392 = DIRECTION('',(0.,2.22044604925E-16,1.));
#393 = PLANE('',#394);
#394 = AXIS2_PLACEMENT_3D('',#395,#396,#397);
#395 = CARTESIAN_POINT('',(-10.425601,-44.499682,-8.));
#396 = DIRECTION('',(0.707106781187,0.707106781187,0.));
#397 = DIRECTION('',(-1.110223024625E-16,1.110223024625E-16,1.));
#398 = ADVANCED_FACE('',(#399),#417,.T.);
#399 = FACE_BOUND('',#400,.F.);
#400 = EDGE_LOOP('',(#401,#402,#403,#411));
#401 = ORIENTED_EDGE('',*,*,#61,.F.);
#402 = ORIENTED_EDGE('',*,*,#31,.T.);
#403 = ORIENTED_EDGE('',*,*,#404,.F.);
#404 = EDGE_CURVE('',#405,#32,#407,.T.);
#405 = VERTEX_POINT('',#406);
#406 = CARTESIAN_POINT('',(-9.425601,-43.499682,-8.));
#407 = LINE('',#408,#409);
#408 = CARTESIAN_POINT('',(-9.925601,-43.499682,-7.5));
#409 = VECTOR('',#410,1.);
#410 = DIRECTION('',(-0.707106781187,0.,0.707106781187));
#411 = ORIENTED_EDGE('',*,*,#412,.F.);
#412 = EDGE_CURVE('',#62,#405,#413,.T.);
#413 = LINE('',#414,#415);
#414 = CARTESIAN_POINT('',(-9.425601,50.500318,-8.));
#415 = VECTOR('',#416,1.);
#416 = DIRECTION('',(0.,-1.,2.22044604925E-16));
#417 = PLANE('',#418);
#418 = AXIS2_PLACEMENT_3D('',#419,#420,#421);
#419 = CARTESIAN_POINT('',(-10.425601,50.500318,-7.));
#420 = DIRECTION('',(-0.707106781187,-1.442222014788E-16,-0.707106781187
    ));
#421 = DIRECTION('',(9.041805799227E-18,1.,-2.130027991258E-16));
#422 = ADVANCED_FACE('',(#423),#441,.T.);
#423 = FACE_BOUND('',#424,.T.);
#424 = EDGE_LOOP('',(#425,#433,#439,#440));
#425 = ORIENTED_EDGE('',*,*,#426,.T.);
#426 = EDGE_CURVE('',#143,#427,#429,.T.);
#427 = VERTEX_POINT('',#428);
#428 = CARTESIAN_POINT('',(10.574399,-43.499682,-8.));
#429 = LINE('',#430,#431);
#430 = CARTESIAN_POINT('',(10.574399,50.500318,-8.));
#431 = VECTOR('',#432,1.);
#432 = DIRECTION('',(0.,-1.,2.22044604925E-16));
#433 = ORIENTED_EDGE('',*,*,#434,.T.);
#434 = EDGE_CURVE('',#427,#405,#435,.T.);
#435 = LINE('',#436,#437);
#436 = CARTESIAN_POINT('',(10.574399,-43.499682,-8.));
#437 = VECTOR('',#438,1.);
#438 = DIRECTION('',(-1.,0.,0.));
#439 = ORIENTED_EDGE('',*,*,#412,.F.);
#440 = ORIENTED_EDGE('',*,*,#150,.F.);
#441 = PLANE('',#442);
#442 = AXIS2_PLACEMENT_3D('',#443,#444,#445);
#443 = CARTESIAN_POINT('',(10.574399,50.500318,-8.));
#444 = DIRECTION('',(-0.,-2.22044604925E-16,-1.));
#445 = DIRECTION('',(-1.,0.,0.));
#446 = ADVANCED_FACE('',(#447),#465,.T.);
#447 = FACE_BOUND('',#448,.T.);
#448 = EDGE_LOOP('',(#449,#457,#463,#464));
#449 = ORIENTED_EDGE('',*,*,#450,.T.);
#450 = EDGE_CURVE('',#135,#451,#453,.T.);
#451 = VERTEX_POINT('',#452);
#452 = CARTESIAN_POINT('',(10.574399,-43.499682,-2.5));
#453 = LINE('',#454,#455);
#454 = CARTESIAN_POINT('',(10.574399,50.500318,-2.5));
#455 = VECTOR('',#456,1.);
#456 = DIRECTION('',(0.,-1.,2.22044604925E-16));
#457 = ORIENTED_EDGE('',*,*,#458,.T.);
#458 = EDGE_CURVE('',#451,#427,#459,.T.);
#459 = LINE('',#460,#461);
#460 = CARTESIAN_POINT('',(10.574399,-43.499682,8.));
#461 = VECTOR('',#462,1.);
#462 = DIRECTION('',(0.,-2.22044604925E-16,-1.));
#463 = ORIENTED_EDGE('',*,*,#426,.F.);
#464 = ORIENTED_EDGE('',*,*,#142,.F.);
#465 = PLANE('',#466);
#466 = AXIS2_PLACEMENT_3D('',#467,#468,#469);
#467 = CARTESIAN_POINT('',(10.574399,50.500318,8.));
#468 = DIRECTION('',(1.,0.,0.));
#469 = DIRECTION('',(0.,-2.22044604925E-16,-1.));
#470 = ADVANCED_FACE('',(#471),#489,.F.);
#471 = FACE_BOUND('',#472,.F.);
#472 = EDGE_LOOP('',(#473,#474,#475,#483));
#473 = ORIENTED_EDGE('',*,*,#134,.F.);
#474 = ORIENTED_EDGE('',*,*,#450,.T.);
#475 = ORIENTED_EDGE('',*,*,#476,.F.);
#476 = EDGE_CURVE('',#477,#451,#479,.T.);
#477 = VERTEX_POINT('',#478);
#478 = CARTESIAN_POINT('',(10.074399,-43.999682,-2.5));
#479 = LINE('',#480,#481);
#480 = CARTESIAN_POINT('',(33.574399,-20.499682,-2.5));
#481 = VECTOR('',#482,1.);
#482 = DIRECTION('',(0.707106781187,0.707106781187,-1.570092458684E-16)
  );
#483 = ORIENTED_EDGE('',*,*,#484,.F.);
#484 = EDGE_CURVE('',#127,#477,#485,.T.);
#485 = LINE('',#486,#487);
#486 = CARTESIAN_POINT('',(10.074399,50.500318,-2.5));
#487 = VECTOR('',#488,1.);
#488 = DIRECTION('',(0.,-1.,2.22044604925E-16));
#489 = PLANE('',#490);
#490 = AXIS2_PLACEMENT_3D('',#491,#492,#493);
#491 = CARTESIAN_POINT('',(10.574399,50.500318,-2.5));
#492 = DIRECTION('',(-0.,-2.22044604925E-16,-1.));
#493 = DIRECTION('',(-1.,0.,0.));
#494 = ADVANCED_FACE('',(#495),#513,.F.);
#495 = FACE_BOUND('',#496,.F.);
#496 = EDGE_LOOP('',(#497,#498,#499,#507));
#497 = ORIENTED_EDGE('',*,*,#126,.F.);
#498 = ORIENTED_EDGE('',*,*,#484,.T.);
#499 = ORIENTED_EDGE('',*,*,#500,.F.);
#500 = EDGE_CURVE('',#501,#477,#503,.T.);
#501 = VERTEX_POINT('',#502);
#502 = CARTESIAN_POINT('',(10.074399,-43.999682,2.5));
#503 = LINE('',#504,#505);
#504 = CARTESIAN_POINT('',(10.074399,-43.999682,2.75));
#505 = VECTOR('',#506,1.);
#506 = DIRECTION('',(0.,0.,-1.));
#507 = ORIENTED_EDGE('',*,*,#508,.F.);
#508 = EDGE_CURVE('',#119,#501,#509,.T.);
#509 = LINE('',#510,#511);
#510 = CARTESIAN_POINT('',(10.074399,50.500318,2.5));
#511 = VECTOR('',#512,1.);
#512 = DIRECTION('',(0.,-1.,2.22044604925E-16));
#513 = PLANE('',#514);
#514 = AXIS2_PLACEMENT_3D('',#515,#516,#517);
#515 = CARTESIAN_POINT('',(10.074399,50.500318,-2.5));
#516 = DIRECTION('',(-1.,0.,0.));
#517 = DIRECTION('',(0.,2.22044604925E-16,1.));
#518 = ADVANCED_FACE('',(#519),#537,.F.);
#519 = FACE_BOUND('',#520,.F.);
#520 = EDGE_LOOP('',(#521,#522,#523,#531));
#521 = ORIENTED_EDGE('',*,*,#118,.F.);
#522 = ORIENTED_EDGE('',*,*,#508,.T.);
#523 = ORIENTED_EDGE('',*,*,#524,.F.);
#524 = EDGE_CURVE('',#525,#501,#527,.T.);
#525 = VERTEX_POINT('',#526);
#526 = CARTESIAN_POINT('',(10.574399,-43.499682,2.5));
#527 = LINE('',#528,#529);
#528 = CARTESIAN_POINT('',(33.449399,-20.624682,2.5));
#529 = VECTOR('',#530,1.);
#530 = DIRECTION('',(-0.707106781187,-0.707106781187,1.570092458684E-16)
  );
#531 = ORIENTED_EDGE('',*,*,#532,.F.);
#532 = EDGE_CURVE('',#111,#525,#533,.T.);
#533 = LINE('',#534,#535);
#534 = CARTESIAN_POINT('',(10.574399,50.500318,2.5));
#535 = VECTOR('',#536,1.);
#536 = DIRECTION('',(0.,-1.,2.22044604925E-16));
#537 = PLANE('',#538);
#538 = AXIS2_PLACEMENT_3D('',#539,#540,#541);
#539 = CARTESIAN_POINT('',(10.074399,50.500318,2.5));
#540 = DIRECTION('',(0.,2.22044604925E-16,1.));
#541 = DIRECTION('',(1.,0.,0.));
#542 = ADVANCED_FACE('',(#543),#561,.T.);
#543 = FACE_BOUND('',#544,.T.);
#544 = EDGE_LOOP('',(#545,#553,#559,#560));
#545 = ORIENTED_EDGE('',*,*,#546,.T.);
#546 = EDGE_CURVE('',#103,#547,#549,.T.);
#547 = VERTEX_POINT('',#548);
#548 = CARTESIAN_POINT('',(10.574399,-43.499682,8.));
#549 = LINE('',#550,#551);
#550 = CARTESIAN_POINT('',(10.574399,50.500318,8.));
#551 = VECTOR('',#552,1.);
#552 = DIRECTION('',(0.,-1.,2.22044604925E-16));
#553 = ORIENTED_EDGE('',*,*,#554,.T.);
#554 = EDGE_CURVE('',#547,#525,#555,.T.);
#555 = LINE('',#556,#557);
#556 = CARTESIAN_POINT('',(10.574399,-43.499682,8.));
#557 = VECTOR('',#558,1.);
#558 = DIRECTION('',(0.,-2.22044604925E-16,-1.));
#559 = ORIENTED_EDGE('',*,*,#532,.F.);
#560 = ORIENTED_EDGE('',*,*,#110,.F.);
#561 = PLANE('',#562);
#562 = AXIS2_PLACEMENT_3D('',#563,#564,#565);
#563 = CARTESIAN_POINT('',(10.574399,50.500318,8.));
#564 = DIRECTION('',(1.,0.,0.));
#565 = DIRECTION('',(0.,-2.22044604925E-16,-1.));
#566 = ADVANCED_FACE('',(#567),#585,.T.);
#567 = FACE_BOUND('',#568,.T.);
#568 = EDGE_LOOP('',(#569,#570,#571,#579));
#569 = ORIENTED_EDGE('',*,*,#546,.F.);
#570 = ORIENTED_EDGE('',*,*,#102,.F.);
#571 = ORIENTED_EDGE('',*,*,#572,.T.);
#572 = EDGE_CURVE('',#95,#573,#575,.T.);
#573 = VERTEX_POINT('',#574);
#574 = CARTESIAN_POINT('',(-9.425601,-43.499682,8.));
#575 = LINE('',#576,#577);
#576 = CARTESIAN_POINT('',(-9.425601,50.500318,8.));
#577 = VECTOR('',#578,1.);
#578 = DIRECTION('',(0.,-1.,2.22044604925E-16));
#579 = ORIENTED_EDGE('',*,*,#580,.T.);
#580 = EDGE_CURVE('',#573,#547,#581,.T.);
#581 = LINE('',#582,#583);
#582 = CARTESIAN_POINT('',(-11.425601,-43.499682,8.));
#583 = VECTOR('',#584,1.);
#584 = DIRECTION('',(1.,0.,0.));
#585 = PLANE('',#586);
#586 = AXIS2_PLACEMENT_3D('',#587,#588,#589);
#587 = CARTESIAN_POINT('',(-11.425601,50.500318,8.));
#588 = DIRECTION('',(0.,2.22044604925E-16,1.));
#589 = DIRECTION('',(1.,0.,0.));
#590 = ADVANCED_FACE('',(#591),#607,.T.);
#591 = FACE_BOUND('',#592,.T.);
#592 = EDGE_LOOP('',(#593,#594,#600,#606));
#593 = ORIENTED_EDGE('',*,*,#94,.F.);
#594 = ORIENTED_EDGE('',*,*,#595,.T.);
#595 = EDGE_CURVE('',#87,#373,#596,.T.);
#596 = LINE('',#597,#598);
#597 = CARTESIAN_POINT('',(-11.425601,50.500318,6.));
#598 = VECTOR('',#599,1.);
#599 = DIRECTION('',(0.,-1.,2.22044604925E-16));
#600 = ORIENTED_EDGE('',*,*,#601,.T.);
#601 = EDGE_CURVE('',#373,#573,#602,.T.);
#602 = LINE('',#603,#604);
#603 = CARTESIAN_POINT('',(-10.925601,-43.499682,6.5));
#604 = VECTOR('',#605,1.);
#605 = DIRECTION('',(0.707106781187,4.807406715959E-16,0.707106781187));
#606 = ORIENTED_EDGE('',*,*,#572,.F.);
#607 = PLANE('',#608);
#608 = AXIS2_PLACEMENT_3D('',#609,#610,#611);
#609 = CARTESIAN_POINT('',(-10.425601,50.500318,7.));
#610 = DIRECTION('',(-0.707106781187,1.442222014788E-16,0.707106781187)
  );
#611 = DIRECTION('',(9.041805799227E-18,-1.,2.130027991258E-16));
#612 = ADVANCED_FACE('',(#613),#624,.T.);
#613 = FACE_BOUND('',#614,.T.);
#614 = EDGE_LOOP('',(#615,#616,#622,#623));
#615 = ORIENTED_EDGE('',*,*,#86,.F.);
#616 = ORIENTED_EDGE('',*,*,#617,.T.);
#617 = EDGE_CURVE('',#79,#365,#618,.T.);
#618 = LINE('',#619,#620);
#619 = CARTESIAN_POINT('',(-11.425601,50.500318,0.5));
#620 = VECTOR('',#621,1.);
#621 = DIRECTION('',(0.,-1.,2.22044604925E-16));
#622 = ORIENTED_EDGE('',*,*,#372,.T.);
#623 = ORIENTED_EDGE('',*,*,#595,.F.);
#624 = PLANE('',#625);
#625 = AXIS2_PLACEMENT_3D('',#626,#627,#628);
#626 = CARTESIAN_POINT('',(-11.425601,50.500318,-8.));
#627 = DIRECTION('',(-1.,0.,0.));
#628 = DIRECTION('',(0.,2.22044604925E-16,1.));
#629 = ADVANCED_FACE('',(#630),#636,.F.);
#630 = FACE_BOUND('',#631,.F.);
#631 = EDGE_LOOP('',(#632,#633,#634,#635));
#632 = ORIENTED_EDGE('',*,*,#78,.F.);
#633 = ORIENTED_EDGE('',*,*,#617,.T.);
#634 = ORIENTED_EDGE('',*,*,#364,.T.);
#635 = ORIENTED_EDGE('',*,*,#331,.F.);
#636 = PLANE('',#637);
#637 = AXIS2_PLACEMENT_3D('',#638,#639,#640);
#638 = CARTESIAN_POINT('',(-11.425601,50.500318,0.5));
#639 = DIRECTION('',(0.707106781187,1.570092458684E-16,0.707106781187));
#640 = DIRECTION('',(0.707106781187,-1.570092458684E-16,-0.707106781187)
  );
#641 = ADVANCED_FACE('',(#642),#667,.F.);
#642 = FACE_BOUND('',#643,.F.);
#643 = EDGE_LOOP('',(#644,#654,#660,#661));
#644 = ORIENTED_EDGE('',*,*,#645,.F.);
#645 = EDGE_CURVE('',#646,#648,#650,.T.);
#646 = VERTEX_POINT('',#647);
#647 = CARTESIAN_POINT('',(-6.557276588413,15.479628546837,6.));
#648 = VERTEX_POINT('',#649);
#649 = CARTESIAN_POINT('',(-7.36589,22.605775676114,6.));
#650 = LINE('',#651,#652);
#651 = CARTESIAN_POINT('',(-4.860220313565,0.523813409546,6.));
#652 = VECTOR('',#653,1.);
#653 = DIRECTION('',(-0.112747798378,0.993623637984,0.));
#654 = ORIENTED_EDGE('',*,*,#655,.F.);
#655 = EDGE_CURVE('',#161,#646,#656,.T.);
#656 = LINE('',#657,#658);
#657 = CARTESIAN_POINT('',(-6.557276588413,50.500318,6.));
#658 = VECTOR('',#659,1.);
#659 = DIRECTION('',(0.,-1.,2.22044604925E-16));
#660 = ORIENTED_EDGE('',*,*,#158,.F.);
#661 = ORIENTED_EDGE('',*,*,#662,.T.);
#662 = EDGE_CURVE('',#159,#648,#663,.T.);
#663 = LINE('',#664,#665);
#664 = CARTESIAN_POINT('',(-7.36589,50.500318,6.));
#665 = VECTOR('',#666,1.);
#666 = DIRECTION('',(0.,-1.,0.));
#667 = PLANE('',#668);
#668 = AXIS2_PLACEMENT_3D('',#669,#670,#671);
#669 = CARTESIAN_POINT('',(2.042342616581,8.544031524783,6.));
#670 = DIRECTION('',(0.,0.,1.));
#671 = DIRECTION('',(1.,0.,0.));
#672 = ADVANCED_FACE('',(#673),#691,.F.);
#673 = FACE_BOUND('',#674,.T.);
#674 = EDGE_LOOP('',(#675,#676,#677,#685));
#675 = ORIENTED_EDGE('',*,*,#168,.F.);
#676 = ORIENTED_EDGE('',*,*,#662,.T.);
#677 = ORIENTED_EDGE('',*,*,#678,.T.);
#678 = EDGE_CURVE('',#648,#679,#681,.T.);
#679 = VERTEX_POINT('',#680);
#680 = CARTESIAN_POINT('',(-9.36589,40.231372845699,4.));
#681 = LINE('',#682,#683);
#682 = CARTESIAN_POINT('',(-7.684217753243,25.411134049392,
    5.681672246757));
#683 = VECTOR('',#684,1.);
#684 = DIRECTION('',(-0.11203793044,0.987367714828,-0.11203793044));
#685 = ORIENTED_EDGE('',*,*,#686,.F.);
#686 = EDGE_CURVE('',#169,#679,#687,.T.);
#687 = LINE('',#688,#689);
#688 = CARTESIAN_POINT('',(-9.36589,50.500318,4.));
#689 = VECTOR('',#690,1.);
#690 = DIRECTION('',(0.,-1.,0.));
#691 = PLANE('',#692);
#692 = AXIS2_PLACEMENT_3D('',#693,#694,#695);
#693 = CARTESIAN_POINT('',(-8.36589,50.500318,5.));
#694 = DIRECTION('',(-0.707106781187,0.,0.707106781187));
#695 = DIRECTION('',(0.,1.,0.));
#696 = ADVANCED_FACE('',(#697),#723,.T.);
#697 = FACE_BOUND('',#698,.T.);
#698 = EDGE_LOOP('',(#699,#700,#708,#716,#722));
#699 = ORIENTED_EDGE('',*,*,#316,.F.);
#700 = ORIENTED_EDGE('',*,*,#701,.T.);
#701 = EDGE_CURVE('',#308,#702,#704,.T.);
#702 = VERTEX_POINT('',#703);
#703 = CARTESIAN_POINT('',(-1.360220313565,-13.63929002074,
    0.802943725152));
#704 = LINE('',#705,#706);
#705 = CARTESIAN_POINT('',(-1.360220313565,50.500318,0.802943725152));
#706 = VECTOR('',#707,1.);
#707 = DIRECTION('',(0.,-1.,2.22044604925E-16));
#708 = ORIENTED_EDGE('',*,*,#709,.T.);
#709 = EDGE_CURVE('',#702,#710,#712,.T.);
#710 = VERTEX_POINT('',#711);
#711 = CARTESIAN_POINT('',(-4.860220313565,0.523813409546,4.302943725152
    ));
#712 = LINE('',#713,#714);
#713 = CARTESIAN_POINT('',(-6.674814072263,7.866750291943,6.11753748385)
  );
#714 = VECTOR('',#715,1.);
#715 = DIRECTION('',(-0.23328486759,0.94401077383,0.23328486759));
#716 = ORIENTED_EDGE('',*,*,#717,.T.);
#717 = EDGE_CURVE('',#710,#646,#718,.T.);
#718 = LINE('',#719,#720);
#719 = CARTESIAN_POINT('',(-7.591204040456,24.59142293298,7.033927452043
    ));
#720 = VECTOR('',#721,1.);
#721 = DIRECTION('',(-0.11203793044,0.987367714828,0.11203793044));
#722 = ORIENTED_EDGE('',*,*,#655,.F.);
#723 = PLANE('',#724);
#724 = AXIS2_PLACEMENT_3D('',#725,#726,#727);
#725 = CARTESIAN_POINT('',(-1.360220313565,50.500318,0.802943725152));
#726 = DIRECTION('',(-0.707106781187,-1.570092458684E-16,-0.707106781187
    ));
#727 = DIRECTION('',(-0.707106781187,1.570092458684E-16,0.707106781187)
  );
#728 = ADVANCED_FACE('',(#729),#747,.F.);
#729 = FACE_BOUND('',#730,.F.);
#730 = EDGE_LOOP('',(#731,#739,#740,#741));
#731 = ORIENTED_EDGE('',*,*,#732,.F.);
#732 = EDGE_CURVE('',#679,#733,#735,.T.);
#733 = VERTEX_POINT('',#734);
#734 = CARTESIAN_POINT('',(-9.36589,40.231372845699,-4.));
#735 = LINE('',#736,#737);
#736 = CARTESIAN_POINT('',(-9.36589,40.231372845699,6.));
#737 = VECTOR('',#738,1.);
#738 = DIRECTION('',(-0.,-0.,-1.));
#739 = ORIENTED_EDGE('',*,*,#686,.F.);
#740 = ORIENTED_EDGE('',*,*,#176,.T.);
#741 = ORIENTED_EDGE('',*,*,#742,.F.);
#742 = EDGE_CURVE('',#733,#177,#743,.T.);
#743 = LINE('',#744,#745);
#744 = CARTESIAN_POINT('',(-9.36589,40.231372845699,-4.));
#745 = VECTOR('',#746,1.);
#746 = DIRECTION('',(0.,1.,0.));
#747 = PLANE('',#748);
#748 = AXIS2_PLACEMENT_3D('',#749,#750,#751);
#749 = CARTESIAN_POINT('',(-9.36589,45.36584542285,0.));
#750 = DIRECTION('',(-1.,-0.,-0.));
#751 = DIRECTION('',(0.,0.,-1.));
#752 = ADVANCED_FACE('',(#753),#772,.T.);
#753 = FACE_BOUND('',#754,.T.);
#754 = EDGE_LOOP('',(#755,#756,#764,#771));
#755 = ORIENTED_EDGE('',*,*,#307,.F.);
#756 = ORIENTED_EDGE('',*,*,#757,.T.);
#757 = EDGE_CURVE('',#300,#758,#760,.T.);
#758 = VERTEX_POINT('',#759);
#759 = CARTESIAN_POINT('',(0.336835961282,-20.50659960579,2.5));
#760 = LINE('',#761,#762);
#761 = CARTESIAN_POINT('',(0.336835961282,50.500318,2.5));
#762 = VECTOR('',#763,1.);
#763 = DIRECTION('',(0.,-1.,2.22044604925E-16));
#764 = ORIENTED_EDGE('',*,*,#765,.T.);
#765 = EDGE_CURVE('',#758,#702,#766,.T.);
#766 = ELLIPSE('',#767,5.001996648188,1.2);
#767 = AXIS2_PLACEMENT_3D('',#768,#769,#770);
#768 = CARTESIAN_POINT('',(-0.511692176142,-17.07294481326,
    1.651471862576));
#769 = DIRECTION('',(0.970796567378,0.239904199143,6.162975822039E-33));
#770 = DIRECTION('',(-0.239904199143,0.970796567378,-2.287241347842E-16)
  );
#771 = ORIENTED_EDGE('',*,*,#701,.F.);
#772 = CYLINDRICAL_SURFACE('',#773,1.2);
#773 = AXIS2_PLACEMENT_3D('',#774,#775,#776);
#774 = CARTESIAN_POINT('',(-0.511692176142,50.500318,1.651471862576));
#775 = DIRECTION('',(0.,1.,-2.22044604925E-16));
#776 = DIRECTION('',(-1.,0.,0.));
#777 = ADVANCED_FACE('',(#778),#796,.T.);
#778 = FACE_BOUND('',#779,.F.);
#779 = EDGE_LOOP('',(#780,#788,#789,#790));
#780 = ORIENTED_EDGE('',*,*,#781,.F.);
#781 = EDGE_CURVE('',#733,#782,#784,.T.);
#782 = VERTEX_POINT('',#783);
#783 = CARTESIAN_POINT('',(-7.36589,22.605775676114,-6.));
#784 = LINE('',#785,#786);
#785 = CARTESIAN_POINT('',(-7.191543852755,21.069298196407,
    -6.174346147245));
#786 = VECTOR('',#787,1.);
#787 = DIRECTION('',(0.11203793044,-0.987367714828,-0.11203793044));
#788 = ORIENTED_EDGE('',*,*,#742,.T.);
#789 = ORIENTED_EDGE('',*,*,#184,.T.);
#790 = ORIENTED_EDGE('',*,*,#791,.F.);
#791 = EDGE_CURVE('',#782,#185,#792,.T.);
#792 = LINE('',#793,#794);
#793 = CARTESIAN_POINT('',(-7.36589,40.231372845699,-6.));
#794 = VECTOR('',#795,1.);
#795 = DIRECTION('',(0.,1.,0.));
#796 = PLANE('',#797);
#797 = AXIS2_PLACEMENT_3D('',#798,#799,#800);
#798 = CARTESIAN_POINT('',(-8.36589,40.231372845699,-5.));
#799 = DIRECTION('',(0.707106781187,0.,0.707106781187));
#800 = DIRECTION('',(-0.,-1.,-0.));
#801 = ADVANCED_FACE('',(#802),#820,.T.);
#802 = FACE_BOUND('',#803,.T.);
#803 = EDGE_LOOP('',(#804,#805,#813,#819));
#804 = ORIENTED_EDGE('',*,*,#299,.F.);
#805 = ORIENTED_EDGE('',*,*,#806,.T.);
#806 = EDGE_CURVE('',#292,#807,#809,.T.);
#807 = VERTEX_POINT('',#808);
#808 = CARTESIAN_POINT('',(-3.163164038718,-6.343496175507,6.));
#809 = LINE('',#810,#811);
#810 = CARTESIAN_POINT('',(-3.163164038718,50.500318,6.));
#811 = VECTOR('',#812,1.);
#812 = DIRECTION('',(0.,-1.,2.22044604925E-16));
#813 = ORIENTED_EDGE('',*,*,#814,.T.);
#814 = EDGE_CURVE('',#807,#758,#815,.T.);
#815 = LINE('',#816,#817);
#816 = CARTESIAN_POINT('',(-6.680576661024,7.890069189271,9.517412622306
    ));
#817 = VECTOR('',#818,1.);
#818 = DIRECTION('',(0.23328486759,-0.94401077383,-0.23328486759));
#819 = ORIENTED_EDGE('',*,*,#757,.F.);
#820 = PLANE('',#821);
#821 = AXIS2_PLACEMENT_3D('',#822,#823,#824);
#822 = CARTESIAN_POINT('',(-3.163164038718,50.500318,6.));
#823 = DIRECTION('',(0.707106781187,1.570092458684E-16,0.707106781187));
#824 = DIRECTION('',(0.707106781187,-1.570092458684E-16,-0.707106781187)
  );
#825 = ADVANCED_FACE('',(#826),#844,.T.);
#826 = FACE_BOUND('',#827,.T.);
#827 = EDGE_LOOP('',(#828,#836,#842,#843));
#828 = ORIENTED_EDGE('',*,*,#829,.F.);
#829 = EDGE_CURVE('',#830,#782,#832,.T.);
#830 = VERTEX_POINT('',#831);
#831 = CARTESIAN_POINT('',(-6.557276588413,15.479628546837,-6.));
#832 = LINE('',#833,#834);
#833 = CARTESIAN_POINT('',(-4.860220313565,0.523813409546,-6.));
#834 = VECTOR('',#835,1.);
#835 = DIRECTION('',(-0.112747798378,0.993623637984,0.));
#836 = ORIENTED_EDGE('',*,*,#837,.F.);
#837 = EDGE_CURVE('',#193,#830,#838,.T.);
#838 = LINE('',#839,#840);
#839 = CARTESIAN_POINT('',(-6.557276588413,50.500318,-6.));
#840 = VECTOR('',#841,1.);
#841 = DIRECTION('',(0.,-1.,2.22044604925E-16));
#842 = ORIENTED_EDGE('',*,*,#192,.F.);
#843 = ORIENTED_EDGE('',*,*,#791,.F.);
#844 = PLANE('',#845);
#845 = AXIS2_PLACEMENT_3D('',#846,#847,#848);
#846 = CARTESIAN_POINT('',(2.042342616581,8.544031524783,-6.));
#847 = DIRECTION('',(0.,0.,1.));
#848 = DIRECTION('',(1.,0.,0.));
#849 = ADVANCED_FACE('',(#850),#884,.F.);
#850 = FACE_BOUND('',#851,.F.);
#851 = EDGE_LOOP('',(#852,#860,#861,#862,#870,#878));
#852 = ORIENTED_EDGE('',*,*,#853,.F.);
#853 = EDGE_CURVE('',#284,#854,#856,.T.);
#854 = VERTEX_POINT('',#855);
#855 = CARTESIAN_POINT('',(6.817631725152,-40.12870028627,6.));
#856 = LINE('',#857,#858);
#857 = CARTESIAN_POINT('',(6.817631725152,50.500318,6.));
#858 = VECTOR('',#859,1.);
#859 = DIRECTION('',(0.,-1.,2.22044604925E-16));
#860 = ORIENTED_EDGE('',*,*,#291,.F.);
#861 = ORIENTED_EDGE('',*,*,#806,.T.);
#862 = ORIENTED_EDGE('',*,*,#863,.F.);
#863 = EDGE_CURVE('',#864,#807,#866,.T.);
#864 = VERTEX_POINT('',#865);
#865 = CARTESIAN_POINT('',(2.635948679719,-29.81019138553,6.));
#866 = LINE('',#867,#868);
#867 = CARTESIAN_POINT('',(2.635948679719,-29.81019138553,6.));
#868 = VECTOR('',#869,1.);
#869 = DIRECTION('',(-0.239904199143,0.970796567378,0.));
#870 = ORIENTED_EDGE('',*,*,#871,.F.);
#871 = EDGE_CURVE('',#872,#864,#874,.T.);
#872 = VERTEX_POINT('',#873);
#873 = CARTESIAN_POINT('',(6.655535315402,-40.12870028627,6.));
#874 = LINE('',#875,#876);
#875 = CARTESIAN_POINT('',(6.655535315402,-40.12870028627,6.));
#876 = VECTOR('',#877,1.);
#877 = DIRECTION('',(-0.362982198526,0.931796074017,0.));
#878 = ORIENTED_EDGE('',*,*,#879,.F.);
#879 = EDGE_CURVE('',#854,#872,#880,.T.);
#880 = LINE('',#881,#882);
#881 = CARTESIAN_POINT('',(8.514688,-40.12870028627,6.));
#882 = VECTOR('',#883,1.);
#883 = DIRECTION('',(-1.,0.,0.));
#884 = PLANE('',#885);
#885 = AXIS2_PLACEMENT_3D('',#886,#887,#888);
#886 = CARTESIAN_POINT('',(2.042342616581,8.544031524783,6.));
#887 = DIRECTION('',(0.,0.,1.));
#888 = DIRECTION('',(1.,0.,0.));
#889 = ADVANCED_FACE('',(#890),#916,.F.);
#890 = FACE_BOUND('',#891,.F.);
#891 = EDGE_LOOP('',(#892,#893,#901,#909,#915));
#892 = ORIENTED_EDGE('',*,*,#200,.F.);
#893 = ORIENTED_EDGE('',*,*,#894,.T.);
#894 = EDGE_CURVE('',#201,#895,#897,.T.);
#895 = VERTEX_POINT('',#896);
#896 = CARTESIAN_POINT('',(-1.360220313565,-13.63929002074,
    -0.802943725152));
#897 = LINE('',#898,#899);
#898 = CARTESIAN_POINT('',(-1.360220313565,50.500318,-0.802943725152));
#899 = VECTOR('',#900,1.);
#900 = DIRECTION('',(0.,-1.,2.22044604925E-16));
#901 = ORIENTED_EDGE('',*,*,#902,.T.);
#902 = EDGE_CURVE('',#895,#903,#905,.T.);
#903 = VERTEX_POINT('',#904);
#904 = CARTESIAN_POINT('',(-4.860220313565,0.523813409546,
    -4.302943725152));
#905 = LINE('',#906,#907);
#906 = CARTESIAN_POINT('',(-6.348283095583,6.545409721682,-5.79100650717
    ));
#907 = VECTOR('',#908,1.);
#908 = DIRECTION('',(-0.23328486759,0.94401077383,-0.23328486759));
#909 = ORIENTED_EDGE('',*,*,#910,.T.);
#910 = EDGE_CURVE('',#903,#830,#911,.T.);
#911 = LINE('',#912,#913);
#912 = CARTESIAN_POINT('',(-7.515889053312,23.927687120862,
    -6.958612464899));
#913 = VECTOR('',#914,1.);
#914 = DIRECTION('',(-0.11203793044,0.987367714828,-0.11203793044));
#915 = ORIENTED_EDGE('',*,*,#837,.F.);
#916 = PLANE('',#917);
#917 = AXIS2_PLACEMENT_3D('',#918,#919,#920);
#918 = CARTESIAN_POINT('',(-1.360220313565,50.500318,-0.802943725152));
#919 = DIRECTION('',(0.707106781187,-1.570092458684E-16,-0.707106781187)
  );
#920 = DIRECTION('',(-0.707106781187,-1.570092458684E-16,-0.707106781187
    ));
#921 = ADVANCED_FACE('',(#922),#948,.F.);
#922 = FACE_BOUND('',#923,.F.);
#923 = EDGE_LOOP('',(#924,#925,#926,#934,#942));
#924 = ORIENTED_EDGE('',*,*,#283,.F.);
#925 = ORIENTED_EDGE('',*,*,#853,.T.);
#926 = ORIENTED_EDGE('',*,*,#927,.F.);
#927 = EDGE_CURVE('',#928,#854,#930,.T.);
#928 = VERTEX_POINT('',#929);
#929 = CARTESIAN_POINT('',(6.655535315402,-40.12870028627,5.83790359025)
  );
#930 = LINE('',#931,#932);
#931 = CARTESIAN_POINT('',(7.241895793864,-40.12870028627,6.424264068712
    ));
#932 = VECTOR('',#933,1.);
#933 = DIRECTION('',(0.707106781187,0.,0.707106781187));
#934 = ORIENTED_EDGE('',*,*,#935,.T.);
#935 = EDGE_CURVE('',#928,#936,#938,.T.);
#936 = VERTEX_POINT('',#937);
#937 = CARTESIAN_POINT('',(5.014688,-35.91655133582,4.197056274848));
#938 = LINE('',#939,#940);
#939 = CARTESIAN_POINT('',(-6.858402849621,-5.437647728304,
    -7.676034574773));
#940 = VECTOR('',#941,1.);
#941 = DIRECTION('',(-0.341199911075,0.875879695714,-0.341199911075));
#942 = ORIENTED_EDGE('',*,*,#943,.F.);
#943 = EDGE_CURVE('',#275,#936,#944,.T.);
#944 = LINE('',#945,#946);
#945 = CARTESIAN_POINT('',(5.014688,50.500318,4.197056274848));
#946 = VECTOR('',#947,1.);
#947 = DIRECTION('',(0.,-1.,2.22044604925E-16));
#948 = PLANE('',#949);
#949 = AXIS2_PLACEMENT_3D('',#950,#951,#952);
#950 = CARTESIAN_POINT('',(6.817631725152,50.500318,6.));
#951 = DIRECTION('',(0.707106781187,-1.570092458684E-16,-0.707106781187)
  );
#952 = DIRECTION('',(-0.707106781187,-1.570092458684E-16,-0.707106781187
    ));
#953 = ADVANCED_FACE('',(#954),#973,.T.);
#954 = FACE_BOUND('',#955,.T.);
#955 = EDGE_LOOP('',(#956,#957,#958,#967));
#956 = ORIENTED_EDGE('',*,*,#208,.F.);
#957 = ORIENTED_EDGE('',*,*,#894,.T.);
#958 = ORIENTED_EDGE('',*,*,#959,.T.);
#959 = EDGE_CURVE('',#895,#960,#962,.T.);
#960 = VERTEX_POINT('',#961);
#961 = CARTESIAN_POINT('',(0.336835961282,-20.50659960579,-2.5));
#962 = ELLIPSE('',#963,5.001996648188,1.2);
#963 = AXIS2_PLACEMENT_3D('',#964,#965,#966);
#964 = CARTESIAN_POINT('',(-0.511692176142,-17.07294481326,
    -1.651471862576));
#965 = DIRECTION('',(0.970796567378,0.239904199143,6.162975822039E-33));
#966 = DIRECTION('',(-0.239904199143,0.970796567378,-2.287241347842E-16)
  );
#967 = ORIENTED_EDGE('',*,*,#968,.F.);
#968 = EDGE_CURVE('',#209,#960,#969,.T.);
#969 = LINE('',#970,#971);
#970 = CARTESIAN_POINT('',(0.336835961282,50.500318,-2.5));
#971 = VECTOR('',#972,1.);
#972 = DIRECTION('',(0.,-1.,2.22044604925E-16));
#973 = CYLINDRICAL_SURFACE('',#974,1.2);
#974 = AXIS2_PLACEMENT_3D('',#975,#976,#977);
#975 = CARTESIAN_POINT('',(-0.511692176142,50.500318,-1.651471862576));
#976 = DIRECTION('',(0.,1.,-2.22044604925E-16));
#977 = DIRECTION('',(-1.,0.,0.));
#978 = ADVANCED_FACE('',(#979),#1007,.T.);
#979 = FACE_BOUND('',#980,.T.);
#980 = EDGE_LOOP('',(#981,#982,#990,#999,#1006));
#981 = ORIENTED_EDGE('',*,*,#274,.F.);
#982 = ORIENTED_EDGE('',*,*,#983,.T.);
#983 = EDGE_CURVE('',#267,#984,#986,.T.);
#984 = VERTEX_POINT('',#985);
#985 = CARTESIAN_POINT('',(6.711744274848,-40.12870028627,2.5));
#986 = LINE('',#987,#988);
#987 = CARTESIAN_POINT('',(6.711744274848,50.500318,2.5));
#988 = VECTOR('',#989,1.);
#989 = DIRECTION('',(0.,-1.,2.22044604925E-16));
#990 = ORIENTED_EDGE('',*,*,#991,.T.);
#991 = EDGE_CURVE('',#984,#992,#994,.T.);
#992 = VERTEX_POINT('',#993);
#993 = CARTESIAN_POINT('',(6.655535315402,-40.12870028627,2.447289922406
    ));
#994 = CIRCLE('',#995,1.2);
#995 = AXIS2_PLACEMENT_3D('',#996,#997,#998);
#996 = CARTESIAN_POINT('',(5.863216137424,-40.12870028627,3.348528137424
    ));
#997 = DIRECTION('',(0.,1.,-2.22044604925E-16));
#998 = DIRECTION('',(-1.,0.,0.));
#999 = ORIENTED_EDGE('',*,*,#1000,.T.);
#1000 = EDGE_CURVE('',#992,#936,#1001,.T.);
#1001 = ELLIPSE('',#1002,3.305947247201,1.2);
#1002 = AXIS2_PLACEMENT_3D('',#1003,#1004,#1005);
#1003 = CARTESIAN_POINT('',(5.863216137424,-38.09477161868,
    3.348528137424));
#1004 = DIRECTION('',(0.931796074017,0.362982198526,0.));
#1005 = DIRECTION('',(-0.362982198526,0.931796074017,-2.382974248516E-16
    ));
#1006 = ORIENTED_EDGE('',*,*,#943,.F.);
#1007 = CYLINDRICAL_SURFACE('',#1008,1.2);
#1008 = AXIS2_PLACEMENT_3D('',#1009,#1010,#1011);
#1009 = CARTESIAN_POINT('',(5.863216137424,50.500318,3.348528137424));
#1010 = DIRECTION('',(0.,1.,-2.22044604925E-16));
#1011 = DIRECTION('',(-1.,0.,0.));
#1012 = ADVANCED_FACE('',(#1013),#1031,.F.);
#1013 = FACE_BOUND('',#1014,.F.);
#1014 = EDGE_LOOP('',(#1015,#1016,#1024,#1030));
#1015 = ORIENTED_EDGE('',*,*,#217,.F.);
#1016 = ORIENTED_EDGE('',*,*,#1017,.T.);
#1017 = EDGE_CURVE('',#218,#1018,#1020,.T.);
#1018 = VERTEX_POINT('',#1019);
#1019 = CARTESIAN_POINT('',(-3.163164038718,-6.343496175507,-6.));
#1020 = LINE('',#1021,#1022);
#1021 = CARTESIAN_POINT('',(-3.163164038718,50.500318,-6.));
#1022 = VECTOR('',#1023,1.);
#1023 = DIRECTION('',(0.,-1.,2.22044604925E-16));
#1024 = ORIENTED_EDGE('',*,*,#1025,.T.);
#1025 = EDGE_CURVE('',#1018,#960,#1026,.T.);
#1026 = LINE('',#1027,#1028);
#1027 = CARTESIAN_POINT('',(-6.354045684344,6.56872861901,
    -9.190881645626));
#1028 = VECTOR('',#1029,1.);
#1029 = DIRECTION('',(0.23328486759,-0.94401077383,0.23328486759));
#1030 = ORIENTED_EDGE('',*,*,#968,.F.);
#1031 = PLANE('',#1032);
#1032 = AXIS2_PLACEMENT_3D('',#1033,#1034,#1035);
#1033 = CARTESIAN_POINT('',(-3.163164038718,50.500318,-6.));
#1034 = DIRECTION('',(-0.707106781187,1.570092458684E-16,0.707106781187)
  );
#1035 = DIRECTION('',(0.707106781187,1.570092458684E-16,0.707106781187)
  );
#1036 = ADVANCED_FACE('',(#1037),#1055,.F.);
#1037 = FACE_BOUND('',#1038,.F.);
#1038 = EDGE_LOOP('',(#1039,#1040,#1041,#1049));
#1039 = ORIENTED_EDGE('',*,*,#266,.F.);
#1040 = ORIENTED_EDGE('',*,*,#983,.T.);
#1041 = ORIENTED_EDGE('',*,*,#1042,.F.);
#1042 = EDGE_CURVE('',#1043,#984,#1045,.T.);
#1043 = VERTEX_POINT('',#1044);
#1044 = CARTESIAN_POINT('',(8.514688,-40.12870028627,4.302943725152));
#1045 = LINE('',#1046,#1047);
#1046 = CARTESIAN_POINT('',(8.037480206136,-40.12870028627,
    3.825735931288));
#1047 = VECTOR('',#1048,1.);
#1048 = DIRECTION('',(-0.707106781187,0.,-0.707106781187));
#1049 = ORIENTED_EDGE('',*,*,#1050,.F.);
#1050 = EDGE_CURVE('',#259,#1043,#1051,.T.);
#1051 = LINE('',#1052,#1053);
#1052 = CARTESIAN_POINT('',(8.514688,50.500318,4.302943725152));
#1053 = VECTOR('',#1054,1.);
#1054 = DIRECTION('',(0.,-1.,2.22044604925E-16));
#1055 = PLANE('',#1056);
#1056 = AXIS2_PLACEMENT_3D('',#1057,#1058,#1059);
#1057 = CARTESIAN_POINT('',(6.711744274848,50.500318,2.5));
#1058 = DIRECTION('',(-0.707106781187,1.570092458684E-16,0.707106781187)
  );
#1059 = DIRECTION('',(0.707106781187,1.570092458684E-16,0.707106781187)
  );
#1060 = ADVANCED_FACE('',(#1061),#1095,.T.);
#1061 = FACE_BOUND('',#1062,.T.);
#1062 = EDGE_LOOP('',(#1063,#1073,#1079,#1080,#1081,#1089));
#1063 = ORIENTED_EDGE('',*,*,#1064,.F.);
#1064 = EDGE_CURVE('',#1065,#1067,#1069,.T.);
#1065 = VERTEX_POINT('',#1066);
#1066 = CARTESIAN_POINT('',(6.817631725152,-40.12870028627,-6.));
#1067 = VERTEX_POINT('',#1068);
#1068 = CARTESIAN_POINT('',(6.655535315402,-40.12870028627,-6.));
#1069 = LINE('',#1070,#1071);
#1070 = CARTESIAN_POINT('',(8.514688,-40.12870028627,-6.));
#1071 = VECTOR('',#1072,1.);
#1072 = DIRECTION('',(-1.,0.,0.));
#1073 = ORIENTED_EDGE('',*,*,#1074,.F.);
#1074 = EDGE_CURVE('',#226,#1065,#1075,.T.);
#1075 = LINE('',#1076,#1077);
#1076 = CARTESIAN_POINT('',(6.817631725152,50.500318,-6.));
#1077 = VECTOR('',#1078,1.);
#1078 = DIRECTION('',(0.,-1.,2.22044604925E-16));
#1079 = ORIENTED_EDGE('',*,*,#225,.F.);
#1080 = ORIENTED_EDGE('',*,*,#1017,.T.);
#1081 = ORIENTED_EDGE('',*,*,#1082,.F.);
#1082 = EDGE_CURVE('',#1083,#1018,#1085,.T.);
#1083 = VERTEX_POINT('',#1084);
#1084 = CARTESIAN_POINT('',(2.635948679719,-29.81019138553,-6.));
#1085 = LINE('',#1086,#1087);
#1086 = CARTESIAN_POINT('',(2.635948679719,-29.81019138553,-6.));
#1087 = VECTOR('',#1088,1.);
#1088 = DIRECTION('',(-0.239904199143,0.970796567378,0.));
#1089 = ORIENTED_EDGE('',*,*,#1090,.F.);
#1090 = EDGE_CURVE('',#1067,#1083,#1091,.T.);
#1091 = LINE('',#1092,#1093);
#1092 = CARTESIAN_POINT('',(6.655535315402,-40.12870028627,-6.));
#1093 = VECTOR('',#1094,1.);
#1094 = DIRECTION('',(-0.362982198526,0.931796074017,0.));
#1095 = PLANE('',#1096);
#1096 = AXIS2_PLACEMENT_3D('',#1097,#1098,#1099);
#1097 = CARTESIAN_POINT('',(2.042342616581,8.544031524783,-6.));
#1098 = DIRECTION('',(0.,0.,1.));
#1099 = DIRECTION('',(1.,0.,0.));
#1100 = ADVANCED_FACE('',(#1101),#1119,.F.);
#1101 = FACE_BOUND('',#1102,.F.);
#1102 = EDGE_LOOP('',(#1103,#1104,#1112,#1118));
#1103 = ORIENTED_EDGE('',*,*,#1050,.T.);
#1104 = ORIENTED_EDGE('',*,*,#1105,.T.);
#1105 = EDGE_CURVE('',#1043,#1106,#1108,.T.);
#1106 = VERTEX_POINT('',#1107);
#1107 = CARTESIAN_POINT('',(8.514688,-40.12870028627,-4.302943725152));
#1108 = LINE('',#1109,#1110);
#1109 = CARTESIAN_POINT('',(8.514688,-40.12870028627,6.));
#1110 = VECTOR('',#1111,1.);
#1111 = DIRECTION('',(-0.,-0.,-1.));
#1112 = ORIENTED_EDGE('',*,*,#1113,.F.);
#1113 = EDGE_CURVE('',#251,#1106,#1114,.T.);
#1114 = LINE('',#1115,#1116);
#1115 = CARTESIAN_POINT('',(8.514688,50.500318,-4.302943725152));
#1116 = VECTOR('',#1117,1.);
#1117 = DIRECTION('',(0.,-1.,2.22044604925E-16));
#1118 = ORIENTED_EDGE('',*,*,#258,.F.);
#1119 = PLANE('',#1120);
#1120 = AXIS2_PLACEMENT_3D('',#1121,#1122,#1123);
#1121 = CARTESIAN_POINT('',(8.514688,5.185808856862,0.));
#1122 = DIRECTION('',(1.,0.,0.));
#1123 = DIRECTION('',(0.,0.,1.));
#1124 = ADVANCED_FACE('',(#1125),#1151,.T.);
#1125 = FACE_BOUND('',#1126,.T.);
#1126 = EDGE_LOOP('',(#1127,#1128,#1129,#1137,#1145));
#1127 = ORIENTED_EDGE('',*,*,#233,.F.);
#1128 = ORIENTED_EDGE('',*,*,#1074,.T.);
#1129 = ORIENTED_EDGE('',*,*,#1130,.F.);
#1130 = EDGE_CURVE('',#1131,#1065,#1133,.T.);
#1131 = VERTEX_POINT('',#1132);
#1132 = CARTESIAN_POINT('',(6.655535315402,-40.12870028627,
    -5.83790359025));
#1133 = LINE('',#1134,#1135);
#1134 = CARTESIAN_POINT('',(4.241895793864,-40.12870028627,
    -3.424264068712));
#1135 = VECTOR('',#1136,1.);
#1136 = DIRECTION('',(0.707106781187,0.,-0.707106781187));
#1137 = ORIENTED_EDGE('',*,*,#1138,.T.);
#1138 = EDGE_CURVE('',#1131,#1139,#1141,.T.);
#1139 = VERTEX_POINT('',#1140);
#1140 = CARTESIAN_POINT('',(5.014688,-35.91655133582,-4.197056274848));
#1141 = LINE('',#1142,#1143);
#1142 = CARTESIAN_POINT('',(-7.556907125527,-3.644547282563,
    8.374538850679));
#1143 = VECTOR('',#1144,1.);
#1144 = DIRECTION('',(-0.341199911075,0.875879695714,0.341199911075));
#1145 = ORIENTED_EDGE('',*,*,#1146,.F.);
#1146 = EDGE_CURVE('',#234,#1139,#1147,.T.);
#1147 = LINE('',#1148,#1149);
#1148 = CARTESIAN_POINT('',(5.014688,50.500318,-4.197056274848));
#1149 = VECTOR('',#1150,1.);
#1150 = DIRECTION('',(0.,-1.,2.22044604925E-16));
#1151 = PLANE('',#1152);
#1152 = AXIS2_PLACEMENT_3D('',#1153,#1154,#1155);
#1153 = CARTESIAN_POINT('',(6.817631725152,50.500318,-6.));
#1154 = DIRECTION('',(-0.707106781187,-1.570092458684E-16,
    -0.707106781187));
#1155 = DIRECTION('',(-0.707106781187,1.570092458684E-16,0.707106781187)
  );
#1156 = ADVANCED_FACE('',(#1157),#1175,.T.);
#1157 = FACE_BOUND('',#1158,.T.);
#1158 = EDGE_LOOP('',(#1159,#1160,#1168,#1174));
#1159 = ORIENTED_EDGE('',*,*,#250,.F.);
#1160 = ORIENTED_EDGE('',*,*,#1161,.T.);
#1161 = EDGE_CURVE('',#242,#1162,#1164,.T.);
#1162 = VERTEX_POINT('',#1163);
#1163 = CARTESIAN_POINT('',(6.711744274848,-40.12870028627,-2.5));
#1164 = LINE('',#1165,#1166);
#1165 = CARTESIAN_POINT('',(6.711744274848,50.500318,-2.5));
#1166 = VECTOR('',#1167,1.);
#1167 = DIRECTION('',(0.,-1.,2.22044604925E-16));
#1168 = ORIENTED_EDGE('',*,*,#1169,.F.);
#1169 = EDGE_CURVE('',#1106,#1162,#1170,.T.);
#1170 = LINE('',#1171,#1172);
#1171 = CARTESIAN_POINT('',(5.037480206136,-40.12870028627,
    -0.825735931288));
#1172 = VECTOR('',#1173,1.);
#1173 = DIRECTION('',(-0.707106781187,0.,0.707106781187));
#1174 = ORIENTED_EDGE('',*,*,#1113,.F.);
#1175 = PLANE('',#1176);
#1176 = AXIS2_PLACEMENT_3D('',#1177,#1178,#1179);
#1177 = CARTESIAN_POINT('',(6.711744274848,50.500318,-2.5));
#1178 = DIRECTION('',(0.707106781187,1.570092458684E-16,0.707106781187)
  );
#1179 = DIRECTION('',(0.707106781187,-1.570092458684E-16,-0.707106781187
    ));
#1180 = ADVANCED_FACE('',(#1181),#1202,.T.);
#1181 = FACE_BOUND('',#1182,.T.);
#1182 = EDGE_LOOP('',(#1183,#1184,#1185,#1194,#1201));
#1183 = ORIENTED_EDGE('',*,*,#241,.F.);
#1184 = ORIENTED_EDGE('',*,*,#1146,.T.);
#1185 = ORIENTED_EDGE('',*,*,#1186,.T.);
#1186 = EDGE_CURVE('',#1139,#1187,#1189,.T.);
#1187 = VERTEX_POINT('',#1188);
#1188 = CARTESIAN_POINT('',(6.655535315402,-40.12870028627,
    -2.447289977642));
#1189 = ELLIPSE('',#1190,3.305947247201,1.2);
#1190 = AXIS2_PLACEMENT_3D('',#1191,#1192,#1193);
#1191 = CARTESIAN_POINT('',(5.863216594468,-38.09477279194,
    -3.348528594468));
#1192 = DIRECTION('',(0.931796074017,0.362982198526,0.));
#1193 = DIRECTION('',(-0.362982198526,0.931796074017,-2.382974248516E-16
    ));
#1194 = ORIENTED_EDGE('',*,*,#1195,.T.);
#1195 = EDGE_CURVE('',#1187,#1162,#1196,.T.);
#1196 = CIRCLE('',#1197,1.2);
#1197 = AXIS2_PLACEMENT_3D('',#1198,#1199,#1200);
#1198 = CARTESIAN_POINT('',(5.863216594468,-40.12870028627,
    -3.348528594468));
#1199 = DIRECTION('',(0.,1.,-2.22044604925E-16));
#1200 = DIRECTION('',(-1.,0.,0.));
#1201 = ORIENTED_EDGE('',*,*,#1161,.F.);
#1202 = CYLINDRICAL_SURFACE('',#1203,1.2);
#1203 = AXIS2_PLACEMENT_3D('',#1204,#1205,#1206);
#1204 = CARTESIAN_POINT('',(5.863216594468,50.500318,-3.348528594468));
#1205 = DIRECTION('',(0.,1.,-2.22044604925E-16));
#1206 = DIRECTION('',(-1.,0.,0.));
#1207 = ADVANCED_FACE('',(#1208),#1218,.F.);
#1208 = FACE_BOUND('',#1209,.F.);
#1209 = EDGE_LOOP('',(#1210,#1216,#1217));
#1210 = ORIENTED_EDGE('',*,*,#1211,.F.);
#1211 = EDGE_CURVE('',#405,#355,#1212,.T.);
#1212 = LINE('',#1213,#1214);
#1213 = CARTESIAN_POINT('',(-9.425601,-43.999682,-7.5));
#1214 = VECTOR('',#1215,1.);
#1215 = DIRECTION('',(2.499851492299E-15,-0.707106781187,0.707106781187)
  );
#1216 = ORIENTED_EDGE('',*,*,#404,.T.);
#1217 = ORIENTED_EDGE('',*,*,#354,.F.);
#1218 = PLANE('',#1219);
#1219 = AXIS2_PLACEMENT_3D('',#1220,#1221,#1222);
#1220 = CARTESIAN_POINT('',(-9.425601,-43.499682,-8.));
#1221 = DIRECTION('',(0.57735026919,0.57735026919,0.57735026919));
#1222 = DIRECTION('',(-0.707106781187,0.707106781187,-1.859623566247E-15
    ));
#1223 = ADVANCED_FACE('',(#1224),#1249,.F.);
#1224 = FACE_BOUND('',#1225,.F.);
#1225 = EDGE_LOOP('',(#1226,#1236,#1242,#1243));
#1226 = ORIENTED_EDGE('',*,*,#1227,.T.);
#1227 = EDGE_CURVE('',#1228,#1230,#1232,.T.);
#1228 = VERTEX_POINT('',#1229);
#1229 = CARTESIAN_POINT('',(8.574399,-45.499682,6.));
#1230 = VERTEX_POINT('',#1231);
#1231 = CARTESIAN_POINT('',(8.574399,-45.499682,-6.));
#1232 = LINE('',#1233,#1234);
#1233 = CARTESIAN_POINT('',(8.574399,-45.499682,8.));
#1234 = VECTOR('',#1235,1.);
#1235 = DIRECTION('',(0.,-2.22044604925E-16,-1.));
#1236 = ORIENTED_EDGE('',*,*,#1237,.T.);
#1237 = EDGE_CURVE('',#1230,#355,#1238,.T.);
#1238 = LINE('',#1239,#1240);
#1239 = CARTESIAN_POINT('',(10.574399,-45.499682,-6.));
#1240 = VECTOR('',#1241,1.);
#1241 = DIRECTION('',(-1.,0.,0.));
#1242 = ORIENTED_EDGE('',*,*,#388,.T.);
#1243 = ORIENTED_EDGE('',*,*,#1244,.T.);
#1244 = EDGE_CURVE('',#381,#1228,#1245,.T.);
#1245 = LINE('',#1246,#1247);
#1246 = CARTESIAN_POINT('',(-11.425601,-45.499682,6.));
#1247 = VECTOR('',#1248,1.);
#1248 = DIRECTION('',(1.,0.,0.));
#1249 = PLANE('',#1250);
#1250 = AXIS2_PLACEMENT_3D('',#1251,#1252,#1253);
#1251 = CARTESIAN_POINT('',(-0.425601,-45.499682,2.13162820728E-14));
#1252 = DIRECTION('',(0.,1.,0.));
#1253 = DIRECTION('',(0.,0.,1.));
#1254 = ADVANCED_FACE('',(#1255),#1265,.F.);
#1255 = FACE_BOUND('',#1256,.F.);
#1256 = EDGE_LOOP('',(#1257,#1258,#1259));
#1257 = ORIENTED_EDGE('',*,*,#380,.F.);
#1258 = ORIENTED_EDGE('',*,*,#601,.T.);
#1259 = ORIENTED_EDGE('',*,*,#1260,.F.);
#1260 = EDGE_CURVE('',#381,#573,#1261,.T.);
#1261 = LINE('',#1262,#1263);
#1262 = CARTESIAN_POINT('',(-9.425601,-44.499682,7.));
#1263 = VECTOR('',#1264,1.);
#1264 = DIRECTION('',(-4.807406715959E-16,0.707106781187,0.707106781187)
  );
#1265 = PLANE('',#1266);
#1266 = AXIS2_PLACEMENT_3D('',#1267,#1268,#1269);
#1267 = CARTESIAN_POINT('',(-11.425601,-43.499682,6.));
#1268 = DIRECTION('',(0.57735026919,0.57735026919,-0.57735026919));
#1269 = DIRECTION('',(-6.938893903907E-16,0.707106781187,0.707106781187)
  );
#1270 = ADVANCED_FACE('',(#1271),#1282,.F.);
#1271 = FACE_BOUND('',#1272,.F.);
#1272 = EDGE_LOOP('',(#1273,#1279,#1280,#1281));
#1273 = ORIENTED_EDGE('',*,*,#1274,.T.);
#1274 = EDGE_CURVE('',#1230,#427,#1275,.T.);
#1275 = LINE('',#1276,#1277);
#1276 = CARTESIAN_POINT('',(7.241065666667,-46.83301533333,
    -4.666666666667));
#1277 = VECTOR('',#1278,1.);
#1278 = DIRECTION('',(0.57735026919,0.57735026919,-0.57735026919));
#1279 = ORIENTED_EDGE('',*,*,#434,.T.);
#1280 = ORIENTED_EDGE('',*,*,#1211,.T.);
#1281 = ORIENTED_EDGE('',*,*,#1237,.F.);
#1282 = PLANE('',#1283);
#1283 = AXIS2_PLACEMENT_3D('',#1284,#1285,#1286);
#1284 = CARTESIAN_POINT('',(10.574399,-44.499682,-7.));
#1285 = DIRECTION('',(0.,0.707106781187,0.707106781187));
#1286 = DIRECTION('',(-1.,0.,0.));
#1287 = ADVANCED_FACE('',(#1288),#1303,.F.);
#1288 = FACE_BOUND('',#1289,.T.);
#1289 = EDGE_LOOP('',(#1290,#1296,#1297,#1298,#1299,#1300,#1301,#1302));
#1290 = ORIENTED_EDGE('',*,*,#1291,.F.);
#1291 = EDGE_CURVE('',#1228,#547,#1292,.T.);
#1292 = LINE('',#1293,#1294);
#1293 = CARTESIAN_POINT('',(6.241065666667,-47.83301533333,
    3.666666666667));
#1294 = VECTOR('',#1295,1.);
#1295 = DIRECTION('',(0.57735026919,0.57735026919,0.57735026919));
#1296 = ORIENTED_EDGE('',*,*,#1227,.T.);
#1297 = ORIENTED_EDGE('',*,*,#1274,.T.);
#1298 = ORIENTED_EDGE('',*,*,#458,.F.);
#1299 = ORIENTED_EDGE('',*,*,#476,.F.);
#1300 = ORIENTED_EDGE('',*,*,#500,.F.);
#1301 = ORIENTED_EDGE('',*,*,#524,.F.);
#1302 = ORIENTED_EDGE('',*,*,#554,.F.);
#1303 = PLANE('',#1304);
#1304 = AXIS2_PLACEMENT_3D('',#1305,#1306,#1307);
#1305 = CARTESIAN_POINT('',(9.574399,-44.499682,8.));
#1306 = DIRECTION('',(-0.707106781187,0.707106781187,0.));
#1307 = DIRECTION('',(1.110223024625E-16,1.110223024625E-16,1.));
#1308 = ADVANCED_FACE('',(#1309),#1315,.F.);
#1309 = FACE_BOUND('',#1310,.F.);
#1310 = EDGE_LOOP('',(#1311,#1312,#1313,#1314));
#1311 = ORIENTED_EDGE('',*,*,#580,.T.);
#1312 = ORIENTED_EDGE('',*,*,#1291,.F.);
#1313 = ORIENTED_EDGE('',*,*,#1244,.F.);
#1314 = ORIENTED_EDGE('',*,*,#1260,.T.);
#1315 = PLANE('',#1316);
#1316 = AXIS2_PLACEMENT_3D('',#1317,#1318,#1319);
#1317 = CARTESIAN_POINT('',(-11.425601,-44.499682,7.));
#1318 = DIRECTION('',(0.,0.707106781187,-0.707106781187));
#1319 = DIRECTION('',(1.,0.,0.));
#1320 = ADVANCED_FACE('',(#1321),#1336,.T.);
#1321 = FACE_BOUND('',#1322,.T.);
#1322 = EDGE_LOOP('',(#1323,#1324,#1325,#1331,#1332,#1333,#1334,#1335));
#1323 = ORIENTED_EDGE('',*,*,#645,.F.);
#1324 = ORIENTED_EDGE('',*,*,#717,.F.);
#1325 = ORIENTED_EDGE('',*,*,#1326,.T.);
#1326 = EDGE_CURVE('',#710,#903,#1327,.T.);
#1327 = LINE('',#1328,#1329);
#1328 = CARTESIAN_POINT('',(-4.860220313565,0.523813409546,6.));
#1329 = VECTOR('',#1330,1.);
#1330 = DIRECTION('',(-0.,-0.,-1.));
#1331 = ORIENTED_EDGE('',*,*,#910,.T.);
#1332 = ORIENTED_EDGE('',*,*,#829,.T.);
#1333 = ORIENTED_EDGE('',*,*,#781,.F.);
#1334 = ORIENTED_EDGE('',*,*,#732,.F.);
#1335 = ORIENTED_EDGE('',*,*,#678,.F.);
#1336 = PLANE('',#1337);
#1337 = AXIS2_PLACEMENT_3D('',#1338,#1339,#1340);
#1338 = CARTESIAN_POINT('',(-4.860220313565,0.523813409546,6.));
#1339 = DIRECTION('',(0.993623637984,0.112747798378,0.));
#1340 = DIRECTION('',(-0.112747798378,0.993623637984,0.));
#1341 = ADVANCED_FACE('',(#1342),#1359,.T.);
#1342 = FACE_BOUND('',#1343,.T.);
#1343 = EDGE_LOOP('',(#1344,#1345,#1351,#1352,#1353,#1354,#1355,#1356,
    #1357,#1358));
#1344 = ORIENTED_EDGE('',*,*,#863,.F.);
#1345 = ORIENTED_EDGE('',*,*,#1346,.T.);
#1346 = EDGE_CURVE('',#864,#1083,#1347,.T.);
#1347 = LINE('',#1348,#1349);
#1348 = CARTESIAN_POINT('',(2.635948679719,-29.81019138553,6.));
#1349 = VECTOR('',#1350,1.);
#1350 = DIRECTION('',(-0.,-0.,-1.));
#1351 = ORIENTED_EDGE('',*,*,#1082,.T.);
#1352 = ORIENTED_EDGE('',*,*,#1025,.T.);
#1353 = ORIENTED_EDGE('',*,*,#959,.F.);
#1354 = ORIENTED_EDGE('',*,*,#902,.T.);
#1355 = ORIENTED_EDGE('',*,*,#1326,.F.);
#1356 = ORIENTED_EDGE('',*,*,#709,.F.);
#1357 = ORIENTED_EDGE('',*,*,#765,.F.);
#1358 = ORIENTED_EDGE('',*,*,#814,.F.);
#1359 = PLANE('',#1360);
#1360 = AXIS2_PLACEMENT_3D('',#1361,#1362,#1363);
#1361 = CARTESIAN_POINT('',(2.635948679719,-29.81019138553,6.));
#1362 = DIRECTION('',(0.970796567378,0.239904199143,0.));
#1363 = DIRECTION('',(-0.239904199143,0.970796567378,0.));
#1364 = ADVANCED_FACE('',(#1365),#1375,.T.);
#1365 = FACE_BOUND('',#1366,.T.);
#1366 = EDGE_LOOP('',(#1367,#1368,#1369));
#1367 = ORIENTED_EDGE('',*,*,#879,.F.);
#1368 = ORIENTED_EDGE('',*,*,#927,.F.);
#1369 = ORIENTED_EDGE('',*,*,#1370,.F.);
#1370 = EDGE_CURVE('',#872,#928,#1371,.T.);
#1371 = LINE('',#1372,#1373);
#1372 = CARTESIAN_POINT('',(6.655535315402,-40.12870028627,6.));
#1373 = VECTOR('',#1374,1.);
#1374 = DIRECTION('',(-0.,-0.,-1.));
#1375 = PLANE('',#1376);
#1376 = AXIS2_PLACEMENT_3D('',#1377,#1378,#1379);
#1377 = CARTESIAN_POINT('',(8.514688,-40.12870028627,6.));
#1378 = DIRECTION('',(0.,1.,0.));
#1379 = DIRECTION('',(-1.,0.,0.));
#1380 = ADVANCED_FACE('',(#1381),#1403,.T.);
#1381 = FACE_BOUND('',#1382,.T.);
#1382 = EDGE_LOOP('',(#1383,#1384,#1385,#1386,#1387,#1393,#1394,#1395,
    #1401,#1402));
#1383 = ORIENTED_EDGE('',*,*,#871,.F.);
#1384 = ORIENTED_EDGE('',*,*,#1370,.T.);
#1385 = ORIENTED_EDGE('',*,*,#935,.T.);
#1386 = ORIENTED_EDGE('',*,*,#1000,.F.);
#1387 = ORIENTED_EDGE('',*,*,#1388,.T.);
#1388 = EDGE_CURVE('',#992,#1187,#1389,.T.);
#1389 = LINE('',#1390,#1391);
#1390 = CARTESIAN_POINT('',(6.655535315402,-40.12870028627,6.));
#1391 = VECTOR('',#1392,1.);
#1392 = DIRECTION('',(-0.,-0.,-1.));
#1393 = ORIENTED_EDGE('',*,*,#1186,.F.);
#1394 = ORIENTED_EDGE('',*,*,#1138,.F.);
#1395 = ORIENTED_EDGE('',*,*,#1396,.T.);
#1396 = EDGE_CURVE('',#1131,#1067,#1397,.T.);
#1397 = LINE('',#1398,#1399);
#1398 = CARTESIAN_POINT('',(6.655535315402,-40.12870028627,6.));
#1399 = VECTOR('',#1400,1.);
#1400 = DIRECTION('',(-0.,-0.,-1.));
#1401 = ORIENTED_EDGE('',*,*,#1090,.T.);
#1402 = ORIENTED_EDGE('',*,*,#1346,.F.);
#1403 = PLANE('',#1404);
#1404 = AXIS2_PLACEMENT_3D('',#1405,#1406,#1407);
#1405 = CARTESIAN_POINT('',(6.655535315402,-40.12870028627,6.));
#1406 = DIRECTION('',(0.931796074017,0.362982198526,0.));
#1407 = DIRECTION('',(-0.362982198526,0.931796074017,0.));
#1408 = ADVANCED_FACE('',(#1409),#1417,.T.);
#1409 = FACE_BOUND('',#1410,.T.);
#1410 = EDGE_LOOP('',(#1411,#1412,#1413,#1414,#1415,#1416));
#1411 = ORIENTED_EDGE('',*,*,#1042,.F.);
#1412 = ORIENTED_EDGE('',*,*,#1105,.T.);
#1413 = ORIENTED_EDGE('',*,*,#1169,.T.);
#1414 = ORIENTED_EDGE('',*,*,#1195,.F.);
#1415 = ORIENTED_EDGE('',*,*,#1388,.F.);
#1416 = ORIENTED_EDGE('',*,*,#991,.F.);
#1417 = PLANE('',#1418);
#1418 = AXIS2_PLACEMENT_3D('',#1419,#1420,#1421);
#1419 = CARTESIAN_POINT('',(8.514688,-40.12870028627,6.));
#1420 = DIRECTION('',(0.,1.,0.));
#1421 = DIRECTION('',(-1.,0.,0.));
#1422 = ADVANCED_FACE('',(#1423),#1428,.T.);
#1423 = FACE_BOUND('',#1424,.T.);
#1424 = EDGE_LOOP('',(#1425,#1426,#1427));
#1425 = ORIENTED_EDGE('',*,*,#1130,.T.);
#1426 = ORIENTED_EDGE('',*,*,#1064,.T.);
#1427 = ORIENTED_EDGE('',*,*,#1396,.F.);
#1428 = PLANE('',#1429);
#1429 = AXIS2_PLACEMENT_3D('',#1430,#1431,#1432);
#1430 = CARTESIAN_POINT('',(8.514688,-40.12870028627,6.));
#1431 = DIRECTION('',(0.,1.,0.));
#1432 = DIRECTION('',(-1.,0.,0.));
#1433 = ( GEOMETRIC_REPRESENTATION_CONTEXT(3) 
GLOBAL_UNCERTAINTY_ASSIGNED_CONTEXT((#1437)) 
GLOBAL_UNIT_ASSIGNED_CONTEXT((#1434,#1435,#1436)) REPRESENTATION_CONTEXT
('Context #1','3D Context with UNIT and UNCERTAINTY') );
#1434 = ( LENGTH_UNIT() NAMED_UNIT(*) SI_UNIT(.MILLI.,.METRE.) );
#1435 = ( NAMED_UNIT(*) PLANE_ANGLE_UNIT() SI_UNIT($,.RADIAN.) );
#1436 = ( NAMED_UNIT(*) SI_UNIT($,.STERADIAN.) SOLID_ANGLE_UNIT() );
#1437 = UNCERTAINTY_MEASURE_WITH_UNIT(LENGTH_MEASURE(1.E-05),#1434,
  'distance_accuracy_value','confusion accuracy');
#1438 = PRODUCT_RELATED_PRODUCT_CATEGORY('part',$,(#7));
#1439 = MECHANICAL_DESIGN_GEOMETRIC_PRESENTATION_REPRESENTATION('',(
    #1440),#1433);
#1440 = STYLED_ITEM('color',(#1441),#15);
#1441 = PRESENTATION_STYLE_ASSIGNMENT((#1442,#1450));
#1442 = SURFACE_STYLE_USAGE(.BOTH.,#1443);
#1443 = SURFACE_SIDE_STYLE('',(#1444,#1448));
#1444 = SURFACE_STYLE_FILL_AREA(#1445);
#1445 = FILL_AREA_STYLE('',(#1446));
#1446 = FILL_AREA_STYLE_COLOUR('',#1447);
#1447 = COLOUR_RGB('',7.450980588415E-02,0.615686309239,
  7.450980588415E-02);
#1448 = SURFACE_STYLE_RENDERING_WITH_PROPERTIES(.NORMAL_SHADING.,#1447,(
    #1449));
#1449 = SURFACE_STYLE_TRANSPARENT(0.300000011921);
#1450 = CURVE_STYLE('',#1451,POSITIVE_LENGTH_MEASURE(0.1),#1452);
#1451 = DRAUGHTING_PRE_DEFINED_CURVE_FONT('continuous');
#1452 = COLOUR_RGB('',0.784313732475,0.784313732475,0.784313732475);
ENDSEC;
END-ISO-10303-21;
